<svg xmlns="http://www.w3.org/2000/svg" viewBox="0 0 500 500">
    <path d="M146.86 619.79v-500h500v500h-500m7.5-7.5h485v-485h-485v485m7.5-7.5V135.41h469.38v469.38H161.86m52.5-257.5c-1.67 0-2.5 1.25-2.5 3.75v1.25c.83 2.08 1.87 3.13 3.13 3.12 1.66 0 2.5-1.25 2.5-3.75v-1.25c-.84-2.08-1.88-3.12-3.13-3.12m339.38-8.75c-1.67 0-2.5.83-2.5 2.5.83.83 1.46 1.25 1.88 1.25 1.25 0 1.87-.63 1.87-1.88s-.42-1.87-1.25-1.87m-2.5 8.12-3.75-1.25h-1.25c0 1.25.83 1.88 2.5 1.88 1.25 0 2.08-.2 2.5-.63m9.38-2.5-3.13 1.25c-.83.84-1.25 1.46-1.25 1.88 0 .83.42 1.25 1.25 1.25.83 0 1.25-.2 1.25-.63l1.88-3.75m58.75 11.88c-1.67 0-2.5 1.04-2.5 3.12 0 1.25.62 1.88 1.87 1.88s1.87-.83 1.88-2.5c0-.83-.42-1.67-1.25-2.5m4.37 6.87c-2.08 0-3.13 1.25-3.13 3.75 0 1.25.84 1.88 2.5 1.88 1.67 0 2.5-.83 2.5-2.5 0-1.25-.62-2.3-1.87-3.13m-8.75 2.5c-2.08 0-3.13 1.05-3.13 3.13 0 2.5.84 3.75 2.5 3.75 2.5 0 3.75-1.25 3.75-3.75 0-2.08-1.04-3.12-3.12-3.13m8.75 6.88c-2.08 0-3.13.83-3.13 2.5 0 1.25.84 1.88 2.5 1.87 2.09 0 3.13-.62 3.13-1.87 0-1.67-.83-2.5-2.5-2.5m-10 3.75c-2.5 0-3.75 1.25-3.75 3.75 0 1.67 1.25 2.5 3.75 2.5s3.75-.83 3.75-2.5c0-2.5-1.25-3.75-3.75-3.75m9.38 5c-2.5 0-3.76 1.25-3.75 3.75 0 1.67 1.04 2.5 3.12 2.5s3.12-1.04 3.13-3.13c0-2.08-.84-3.12-2.5-3.12m-10 5.62c-3.34 0-5 1.88-5 5.63 0 2.92 1.25 4.38 3.75 4.37 3.33 0 5-1.45 5-4.37 0-3.75-1.25-5.62-3.75-5.63m10.62 7.5-2.5 2.5 2.5 4.38.63 2.5c0 7.08-5.63 10.62-16.88 10.62l-2.5-.62c-.83-.42-2.5-.63-5-.63-.83 0-1.25.42-1.25 1.25 0 2.09 2.7 3.13 8.13 3.13 4.16 0 8.74-1.25 13.75-3.75 5-2.5 7.5-5.62 7.5-9.38l-.63-1.87-3.75-8.13m-55-161.88c2.08 2.09 3.12 4.17 3.13 6.25v.63c-1.25 0-3.34-2.08-6.25-6.25h-1.88a376.3 376.3 0 0 0 9.38 16.87l2.5.63h2.5c2.5 0 3.74-.63 3.75-1.88 0-1.25-.84-3.33-2.5-6.25l-1.88-5-.63-.62v-1.25c.42-.42 1.88-1.25 4.38-2.5l-5-5-1.88 1.25c-1.25.42-3.12 1.46-5.62 3.12M198.12 495.41c-2.08.83-3.13 2.5-3.13 5 0 2.91 1.25 4.37 3.75 4.37s3.75-1.46 3.75-4.38c0-3.33-1.45-5-4.37-5m64.38-251.25c-1.25.84-1.88 1.88-1.88 3.13 0 .83 1.04 1.25 3.13 1.25H265c.41-.42 1.04-.63 1.87-.63 1.25 0 2.08-.2 2.5-.62 0-2.08-1.67-3.12-5-3.13h-1.88m-7.5 15a4.2 4.2 0 0 0-1.87 3.75c0 2.5 1.04 3.76 3.13 3.75 2.08 0 3.12-1.04 3.12-3.12 0-2.92-1.46-4.37-4.38-4.38m8.13 8.75c-2.08 0-3.13 1.05-3.13 3.13s1.25 3.13 3.75 3.13c1.67 0 2.71-.84 3.13-2.5 0-2.5-1.25-3.75-3.75-3.76m-10.63 1.25c-1.25 0-1.87.84-1.87 2.5 0 2.09.83 3.13 2.5 3.13s2.5-.83 2.5-2.5c0-2.08-1.04-3.12-3.13-3.13m-1.87 8.75c-.42.42-.83 1.46-1.25 3.13l-.63.63c0 2.08.84 3.12 2.5 3.12 2.09 0 3.13-1.25 3.13-3.75 0-2.08-1.25-3.12-3.75-3.13m20-1.25c-2.08 0-3.13 1.25-3.13 3.75 0 2.09 1.25 3.34 3.75 3.75 2.5 0 3.75-.83 3.75-2.5 0-3.33-1.45-5-4.37-5m-8.75 5c-2.5.84-3.75 2.09-3.75 3.75 0 2.5 1.25 3.76 3.75 3.75 2.92 0 4.37-1.04 4.38-3.12 0-2.92-1.46-4.37-4.38-4.38m8.75 6.25c-.83.84-1.25 1.46-1.25 1.88 0 1.25.63 1.88 1.88 1.88s2.29-.42 3.12-1.26c0-1.66-1.25-2.5-3.75-2.5m-44.38 31.25c-4.16 0-6.25 1.88-6.25 5.63 0 1.67 1.25 2.5 3.75 2.5 4.17 0 6.25-1.46 6.25-4.38 0-2.5-1.25-3.74-3.75-3.75m-8.75 9.38c-1.66 0-2.5.83-2.5 2.5 0 1.25.63 1.88 1.88 1.88 1.67 0 2.5-.63 2.5-1.88 0-1.67-.63-2.5-1.88-2.5m-1.87 8.75c-.83 0-1.25 1.04-1.25 3.13 0 1.24.63 1.87 1.88 1.87 1.66 0 2.5-.63 2.5-1.88 0-2.08-1.05-3.12-3.13-3.12m6.25 6.88c-.83 0-1.25.83-1.25 2.5 0 2.5 1.04 3.75 3.13 3.74 2.91 0 4.37-.83 4.37-2.5 0-2.5-2.08-3.74-6.25-3.75m-.63 10c0 2.09.84 3.13 2.5 3.13 1.25 0 2.5-1.04 3.75-3.13h-6.25m11.25-4.37c1.25 1.67 2.09 2.5 2.5 2.5.42-.42 1.05-1.46 1.88-3.13l-4.38.63m3.13-8.75-3.75 2.5c.42 1.67 1.04 2.5 1.88 2.5 1.66 0 2.5-.83 2.5-2.5 0-1.25-.21-2.08-.63-2.5m6.25.63-2.5 3.12 1.25 2.5c.83-.42 1.87-1.25 3.13-2.5a7.86 7.86 0 0 0-1.88-3.13m-2.5-11.87c-2.08 0-3.13 1.46-3.13 4.38 0 2.5 1.05 3.75 3.13 3.74 2.5 0 3.75-1.25 3.75-3.75 0-2.91-1.25-4.37-3.75-4.37m-36.88 158.75c.84 5.83 2.92 8.75 6.25 8.75.84 0 1.25-.83 1.25-2.5 0-2.92-2.5-5-7.5-6.25m0 27.5-3.75-5.63-1.25-1.87c-.41.42-1.25.63-2.5.63.42 3.75 2.92 6.04 7.5 6.87m9.38 2.5h-4.38c-2.08 0-3.12.42-3.12 1.25 0 2.92 1.67 4.38 5 4.38h.63c2.5-.42 3.74-1.25 3.75-2.5a7.85 7.85 0 0 1-1.88-3.13m8.75-6.88c-2.5 3.34-3.75 5.21-3.75 5.63 0 1.67.42 2.5 1.25 2.5 1.67 0 2.92-1.04 3.75-3.13l.63-1.87c0-2.08-.63-3.12-1.88-3.13m3.13-11.25c-2.92 0-4.38 1.67-4.38 5 0 1.67 1.04 2.5 3.13 2.5 2.5 0 3.74-1.25 3.75-3.75 0-2.08-.84-3.33-2.5-3.75m-10-11.25 1.25 5.63v5l.62.63c3.75 0 5.62-2.09 5.63-6.26 0-2.5-.42-3.74-1.25-3.75l-6.25-1.25m183.12 90.63c-3.76 0-5.63 1.46-5.63 4.38 0 2.08 1.67 3.12 5 3.12 3.75 0 5.62-1.25 5.63-3.75 0-2.5-1.67-3.75-5-3.75M590.62 462.9c-2.5 0-3.76 1.46-3.75 4.38 0 2.91.62 4.37 1.87 4.37 3.33 0 5-2.08 5-6.25 0-1.67-1.04-2.5-3.13-2.5m-10 6.25c-2.5.42-4.16 1.67-5 3.75h.63c2.08 0 3.54-1.25 4.38-3.75m-3.13 8.75c-1.25 1.25-1.88 2.3-1.88 3.13 0 1.25 1.05 2.29 3.13 3.12h.63c1.25 0 2.29-.42 3.12-1.25 0-1.25-1.67-2.92-5-5m6.25-3.75v.63c0 3.33.83 5 2.5 5 2.5 0 4.37-1.88 5.63-5.63h-8.13m3.75 9.38c-2.08 0-3.13.83-3.13 2.5.84.83 1.67 1.25 2.5 1.25 1.67 0 2.5-.63 2.5-1.88s-.62-1.87-1.87-1.88m9.38-6.25c-2.5.84-3.76 2.09-3.75 3.75l.62.63c.42.42.83.63 1.25.63h.63c2.5 0 3.74-.84 3.75-2.5 0-1.67-.84-2.5-2.5-2.5m-30-61.88 3.75 4.38a74.12 74.12 0 0 1 16.25 8.12 94.04 94.04 0 0 1 15 10l13.75 11.25c3.33 2.08 5.41 3.13 6.25 3.13a8.7 8.7 0 0 0 3.75-.63l-.63-4.38c2.08-3.33 3.12-5.62 3.13-6.87 0-2.08-1.25-4.37-3.75-6.88v1.25c0 5-2.09 7.5-6.25 7.5-3.34 0-7.3-1.66-11.88-5l-12.5-9.37c-5.83-4.17-14.8-8.33-26.88-12.5m-5-6.88c4.59.84 8.75 1.67 12.5 2.5l12.5 2.5c.42 1.25.63 2.3.63 3.13l.63.63v2.5l8.12 4.37 3.13 5a8.31 8.31 0 0 0 1.87-5c0-2.92-1.67-5-5-6.25-2.92-1.25-4.38-3.12-4.38-5.63 0-1.66.84-2.5 2.5-2.5l4.38-.62c2.92 0 4.37-2.7 4.38-8.13 0-2.08-1.67-4.79-5-8.12v1.25c.83 6.25-2.09 9.58-8.75 10-.84 0-1.25.2-1.25.63l-.63 1.87-.63 1.88h-5.62l-10.63-1.88h-5l-3.75 1.88m26.88-231.88-1.25-4.38c-4.58-3.33-7.92-5-10-5-3.33 0-5 1.67-5 5 0 1.25 1.04 2.92 3.13 5v-1.88c0-1.66.83-2.5 2.5-2.5.83 0 2.5.63 5 1.88 2.91.83 4.79 1.46 5.62 1.87m-21.25-3.75-.63-3.12c-5-3.75-7.5-6.67-7.5-8.75 0-1.25 1.05-2.5 3.13-3.75-5 0-7.5 1.46-7.5 4.37 0 2.5.83 4.59 2.5 6.25l10 5m-31.25-8.12c-2.08-2.08-3.13-3.96-3.13-5.63 0-5.83 3.75-8.74 11.25-8.75 2.09 0 4.59.21 7.5.63 2.92 0 6.05.2 9.38.62-7.5-2.91-13.75-4.37-18.75-4.37-10.42 0-15.63 3.54-15.63 10.62 0 4.59 1.67 6.88 5 6.88h4.38m-10.63-16.25c-15 .83-22.5 4.8-22.5 11.87 0 4.59 2.09 6.88 6.25 6.88 2.5 0 5-1.67 7.5-5h-1.25c-2.91 0-4.37-1.25-4.37-3.75 0-3.33 4.8-6.67 14.38-10m-33.75-5.63h-1.25c-4.17 0-7.71-.62-10.63-1.87-.42-.42-1.04-.63-1.88-.63-.41 0-.62.21-.62.63 0 2.5 1.67 3.75 5 3.75 1.25 0 4.37-.63 9.38-1.88m97.5 9.38c-.42-1.25-.63-3.33-.63-6.25 0-2.5.2-4.37.63-5.63-2.5 2.09-3.76 3.76-3.75 5 0 2.09 1.25 4.38 3.75 6.88m-174.38-9.38c-2.09 0-3.13 1.25-3.13 3.75s1.04 3.76 3.13 3.75c2.91 0 4.37-1.25 4.37-3.75s-1.46-3.74-4.38-3.75m-10-2.5c-3.33 0-5 .84-5 2.5 0 2.09 1.46 3.13 4.38 3.13 2.08 0 3.12-.83 3.13-2.5 0-1.67-.84-2.7-2.5-3.13m-11.25 5.63c-2.5 0-3.76 1.25-3.75 3.75 0 2.5 1.25 3.75 3.75 3.75s3.74-1.04 3.75-3.13c0-2.91-1.25-4.37-3.75-4.37m11.87 3.12c-2.5 0-3.75 1.46-3.75 4.38 0 2.5 1.25 3.75 3.75 3.75 3.33 0 5-1.04 5-3.13 0-3.33-1.67-5-5-5m-5 8.75c-2.08 0-3.13 1.05-3.13 3.13 0 2.5 1.46 3.75 4.38 3.75 2.5 0 3.75-.83 3.75-2.5 0-2.92-1.67-4.37-5-4.38m12.5.63c-2.08.83-3.13 2.3-3.13 4.37 0 1.67 1.05 2.5 3.13 2.5 2.92 0 4.37-1.04 4.38-3.12 0-2.5-1.46-3.75-4.38-3.75m-61.25 32.5c1.67 12.5 5.2 18.75 10.63 18.75 2.08 0 3.74-1.87 5-5.63a8.7 8.7 0 0 1-3.75.63c-2.5 0-6.46-4.58-11.88-13.75m-78.13 27.5c-2.5 0-3.75.83-3.75 2.5 0 1.25 1.05 1.88 3.13 1.87 2.08 0 3.12-.62 3.13-1.87 0-1.25-.84-2.08-2.5-2.5m-14.38-1.88c-2.08 0-3.13 1.05-3.13 3.13 0 2.5 1.67 3.75 5 3.75 2.92 0 4.38-1.04 4.38-3.13 0-2.5-2.08-3.74-6.25-3.75m-10.63-2.5c-1.66 0-2.5.63-2.5 1.88.84.83 1.46 1.25 1.88 1.25 1.67 0 2.5-.42 2.5-1.25 0-1.25-.63-1.87-1.88-1.88m-10.62-3.75c-2.92-.41-4.38.84-4.38 3.75 0 2.5 1.26 3.76 3.76 3.75 2.91 0 4.37-1.04 4.37-3.12 0-2.92-1.25-4.37-3.75-4.38m-9.38 5c-2.08 0-3.12 1.05-3.12 3.13s.63 3.13 1.88 3.12c2.08 0 3.12-1.04 3.12-3.12s-.63-3.12-1.88-3.13m46.88 10c-2.92 0-4.38 1.46-4.38 4.38 0 2.5 1.46 3.75 4.38 3.75s4.37-1.04 4.38-3.13c0-3.33-1.46-5-4.38-5m-19.38.63c-2.91 0-4.37 1.25-4.37 3.75 0 1.67 1.25 2.5 3.75 2.5h.63c3.33-.83 5-1.87 5-3.13 0-2.08-1.67-3.12-5-3.12m6.87 10-1.25 2.5c0 1.25 1.04 1.88 3.13 1.87 2.91 0 4.37-1.25 4.37-3.75s-1.46-3.74-4.38-3.75c-.41 0-1.04.42-1.87 1.25v1.88m-8.13.62c-1.66 0-2.5 1.05-2.5 3.13 0 1.25.63 1.88 1.88 1.87 2.08 0 3.12-.83 3.13-2.5 0-1.66-.84-2.5-2.5-2.5m51.87-1.25c-2.08 0-3.13.63-3.13 1.88 0 1.67 1.05 2.5 3.13 2.5 2.5 0 3.75-.83 3.75-2.5 0-1.25-1.25-1.87-3.75-1.88m-13.75-1.87c-1.67 0-2.5.62-2.5 1.87s1.46 1.88 4.38 1.88c1.66.42 2.5 0 2.5-1.25 0-1.67-1.46-2.5-4.38-2.5m-7.5 2.5c-2.5 0-3.75 1.04-3.75 3.12 0 1.67.83 2.5 2.5 2.5 2.5 0 3.75-1.04 3.75-3.12 0-1.67-.83-2.5-2.5-2.5m-10 1.87c-2.5 0-3.75 1.25-3.75 3.75 0 1.67 1.04 2.5 3.13 2.5 2.08 0 3.12-1.04 3.12-3.12s-.83-3.12-2.5-3.13m-20 7.5c-2.5 0-3.75 1.25-3.75 3.75 0 1.67.63 2.5 1.88 2.5 2.5 0 3.74-1.04 3.75-3.12 0-1.25-.63-2.3-1.88-3.13m320.62 192.5c13.75 12.09 20.63 20.84 20.63 26.25 0 2.5-.84 5.21-2.5 8.13 3.74-1.67 5.62-4.17 5.62-7.5 0-8.75-6.88-17.92-20.63-27.5l-3.12.63M391.85 596.01l7.5-.63.63-5-4.38 1.25-3.75-.63c-.42.42-.63 1.05-.63 1.88l.63 3.13m231.25-10c-8.75 0-13.75-4.59-15-13.75l-11.25.62.63 5c.83 2.08 1.45 3.13 1.87 3.13h1.88c.83-.84 1.66-.21 2.5 1.87 4.16 5 7.91 7.5 11.25 7.5 2.5 0 5.2-1.46 8.12-4.38m-31.88-14.37c-4.58 4.58-6.87 8.54-6.87 11.88 0 2.91 1.25 5.2 3.75 6.87a22.23 22.23 0 0 1 1.88-5.63l2.5-5-1.25-8.12m-41.88 11.88c2.08-.42 4.37-.63 6.88-.63h5c8.74-.83 15.83-3.33 21.25-7.5 1.25-1.25 1.87-2.3 1.87-3.13 0-.83-.42-1.25-1.25-1.25l-3.13.63-15.62 5-2.5.63c-3.75 0-8.54-2.3-14.38-6.88l-1.87 3.75.63.63 1.25 2.5 2.5 2.5-.63 3.75m-8.75 2.5c-9.58-.84-14.38-3.34-14.38-7.5 0-4.59 2.3-6.46 6.88-5.63h3.75c-3.33-1.25-6.25-1.88-8.75-1.88-5.42 0-8.13 1.88-8.13 5.63 0 7.08 4.8 10.63 14.38 10.63h2.5c.83-.42 2.08-.84 3.75-1.25m-190-43.13c-.83-3.33-1.25-5.2-1.25-5.63 0-2.91 1.25-4.37 3.75-4.37 2.92 0 5.2 1.46 6.88 4.38.41.83.83 2.08 1.25 3.75a41.31 41.31 0 0 1 2.5 6.87c.41 3.33 2.29 5.83 5.62 7.5v-3.13l-5-6.25c-.42-1.25-.63-3.12-.63-5.62 0-2.08-.2-3.75-.62-5-1.25-5.83-3.96-8.75-8.13-8.75-6.66 0-10 2.92-10 8.75 0 5 1.88 7.5 5.63 7.5m-151.25 28.75c5.42 4.17 10.63 6.46 15.63 6.88.41-1.25 1.04-1.88 1.87-1.88 2.08 0 3.33.2 3.75.63l1.88.62c3.74 0 6.45-1.46 8.12-4.38h-6.87l-7.5-2.5c-.42-.41-2.09-.62-5-.62-1.25 0-2.92.2-5 .63-1.67 0-3.96.2-6.88.62m-14.37 1.88c-.84 7.5-4.17 14.58-10 21.25h3.75c4.16.83 6.66-1.05 7.5-5.63l.62-6.25c0-1.25.83-1.88 2.5-1.88s2.5 1.25 2.5 3.75v.63c2.5-1.25 3.75-3.33 3.75-6.25s-.2-5-.62-6.25l-10 .63m41.25 9.37c7.5 2.5 14.16 3.75 20 3.75 12.5 0 18.75-2.92 18.75-8.75 0-2.08-2.3-4.17-6.88-6.25.42 1.25.63 2.3.63 3.13l.62.62c0 6.67-4.58 10-13.75 10-6.67 0-13.12-.83-19.37-2.5m70 8.13c2.91-1.67 6.45-2.5 10.62-2.5 3.33 0 5 1.04 5 3.12l-.63 2.5c2.5-.42 3.75-1.46 3.75-3.13 0-2.91-1.66-4.37-5-4.37-5 0-9.58 1.46-13.75 4.38m125-6.25c6.25 1.25 9.38 3.54 9.38 6.87v.63c-.83 0-3.33-1.05-7.5-3.13-4.17-2.5-7.92-3.75-11.25-3.75l-5 1.25c0 .42.2 1.04.63 1.88a88.8 88.8 0 0 0 6.25 2.5c7.91 3.75 15 5.62 21.25 5.62 5.41 0 10.41-.83 15-2.5-11.25-5-20.84-8.13-28.75-9.38m-76.88 9.38c7.92 1.25 13.96 1.88 18.13 1.88 6.66 0 14.16-2.5 22.5-7.5 1.25-.42 1.87-.84 1.87-1.25 0-1.25-1.88-1.88-5.63-1.88-2.08 0-3.33.2-3.75.63l-6.87 3.12-5.63 1.88 1.25-2.5 3.13-2.5c-2.5.41-5.2 1.04-8.13 1.87-2.5.42-5.41 1.46-8.75 3.13l-8.12 3.12m153.12-.63a35.77 35.77 0 0 0-8.13-2.5 44.54 44.54 0 0 0-5.62-1.87h-1.25c-3.33-.83-5 .2-5 3.13 0 2.08.63 3.12 1.88 3.12l.62-.63 4.38-2.5c.41-.41 1.45-.62 3.12-.62 2.08 0 5.42.63 10 1.88m-145-84.38c1.25 2.08 2.7 3.13 4.38 3.13-2.09 0 .41-.63 7.5-1.88l1.87-.63 3.13.63c-.84-3.33-2.71-5-5.63-5h-1.25l-5.63 4.38-4.37-.63m30.63 6.88c-.42-12.09-3.34-20.63-8.75-25.63-5.42-5.42-15.21-9.17-29.38-11.25l1.25 4.38 2.5 1.25v1.87l-4.38 6.88c-.83 2.5-1.24 3.95-1.24 4.37 0 4.17 2.08 7.7 6.25 10.63a43.25 43.25 0 0 0-1.25-5v-2.5c0-6.67 3.74-10 11.25-10 10.41 0 18.33 8.33 23.75 25m43.75 31.25 3.75-7.5-1.25-13.75c0-4.59 1.45-6.88 4.37-6.88 1.67 0 2.5.83 2.5 2.5 0 .42-.42 1.88-1.25 4.38-.83 2.08-1.25 3.75-1.25 5 0 6.25 2.92 9.37 8.75 9.37 1.25 0 1.87-.63 1.88-1.88 0-.41-.21-.83-.63-1.25l-3.75-4.37-.63-5.63 3.13-6.87.63-1.88c0-5.41-2.3-8.12-6.88-8.12-2.92 0-5.63 1.67-8.13 5-2.08 2.92-3.12 5.63-3.12 8.13v1.25l2.5 11.25-.63 11.25m-26.24-53.13a463.96 463.96 0 0 1-10-41.88 698.7 698.7 0 0 1-6.25-39.37l-3.75.63c4.16 30.41 9.79 56.87 16.87 79.37l3.13 1.25m5.62-9.38c3.33-10 6.46-17.08 9.38-21.25a77.43 77.43 0 0 1 6.87-9.37l7.5-10c6.25-7.92 9.37-15 9.38-21.25 0-2.08-.63-3.54-1.88-4.38l-1.88-1.87-1.24 1.25-2.5-.63-8.75-3.75-11.88-.62-1.88-.63h-1.87l-1.88 2.5 1.88 1.25-1.88 1.88c-2.5 3.33-3.75 7.92-3.74 13.75 0 2.5 1.87 5 5.62 7.5 2.5 2.08 3.75 3.75 3.75 5 0 2.5-1.88 4.38-5.63 5.63v1.87c6.25-1.67 9.38-5.42 9.38-11.25l-.63-.63c-4.16-4.16-6.25-7.29-6.24-9.37 0-7.08 3.33-10.63 10-10.63 7.08 0 10.62 3.76 10.62 11.25 0 3.34-.63 5.84-1.88 7.5l-11.87 19.38-8.75 26.88m5.63 30c15.83-38.34 31.45-57.5 46.87-57.5 4.58 0 6.87 2.7 6.88 8.12 0 4.58-3.13 6.88-9.38 6.88 2.08 2.08 3.75 3.12 5 3.12 3.75 0 7.08-2.08 10-6.25.83-.83 1.46-1.25 1.88-1.25l3.75.63c2.08 0 3.12-1.46 3.12-4.38a4.2 4.2 0 0 0-1.88-3.75l-2.5-2.5c-.41-.42-.62-.83-.62-1.25l2.5-1.88c2.08-1.25 3.12-2.91 3.13-5 0-.41-.42-.62-1.25-.62h-3.13l-12.5-.63c-7.92-.41-18.96 7.71-33.13 24.38-8.33 10-14.58 23.96-18.74 41.88m46.25 41.87c-4.59-15.83-6.88-26.25-6.88-31.25 0-4.17.2-6.87.63-8.13l3.75-18.75.62-3.75c0-4.16-.83-8.74-2.5-13.75l-4.38 1.88-6.24-4.38h-5l-1.88 3.75c-.42.84-2.08 2.5-5 5s-4.38 5-4.38 7.5c0 2.92 1.67 5 5 6.25 1.26-6.24 3.96-9.37 8.13-9.37 6.25 0 9.17 7.08 8.75 21.25l-.63 10.63c0 9.58 3.13 20.2 9.38 31.87l.63 1.25M286.22 212.26l-3.13-3.13c-1.25-1.66-2.7-3.54-4.37-5.62l-2.5-8.75a8.18 8.18 0 0 0-3.75-3.75c-3.34-.83-5-1.87-5-3.13 0-.83.2-1.45.62-1.87l1.88-.63c.41-.41.62-.83.62-1.25l-1.25-.62c-1.25-.83-3.96-1.46-8.12-1.88-3.76-.83-8.34-.62-13.75.63a86 86 0 0 1-8.13 1.88c.83.83 1.25 1.45 1.25 1.87 0 .83-.62 1.25-1.87 1.25h-5.63c-2.92-.42-6.46 1.46-10.62 5.63 5-1.25 9.37-1.88 13.12-1.88 9.58 0 14.38 1.04 14.38 3.13-.84 1.25-1.46 1.87-1.88 1.87-1.25 0-4.58-.63-10-1.88h-2.5c-10.42 0-17.7 2.71-21.87 8.13 3.33-1.67 6.04-2.5 8.12-2.5 1.25 0 1.87.2 1.88.63-.84.83-1.46 1.25-1.88 1.25l-8.75 4.37c-3.75 2.08-5.63 4.17-5.62 6.25 0 .83.2 1.25.62 1.25a5.6 5.6 0 0 0 3.75-3.13c5.83-4.58 12.3-6.87 19.38-6.87 4.16 0 8.33 1.25 12.5 3.75 4.16 2.5 6.66 3.75 7.5 3.75l5.62.63h1.25l.63-1.25c.41-.42.83-.63 1.25-.63.41 0 2.5 1.04 6.25 3.13 4.16 2.08 8.12 3.12 11.87 3.12.83 0 3.54-1.25 8.13-3.75m-78.13-54.38c7.08-4.58 10.63-8.54 10.63-11.87 0-3.75-2.09-5.62-6.25-5.63-2.5 0-4.17 1.67-5 5 2.5-.83 3.54-1.25 3.12-1.25 2.5 0 3.75 1.05 3.75 3.13-.42.42-.62 1.25-.62 2.5l-.63 1.25-5 6.88m175 13.12a41.35 41.35 0 0 0 1.88-11.88c0-10.83-5.84-16.25-17.5-16.25-4.17 0-6.88.21-8.13.63.83.83 1.25 1.46 1.25 1.88 0 .83-.2 1.25-.62 1.25-5.84.83-10.21 1.66-13.13 2.5l-3.75.62a4.82 4.82 0 0 0-1.87-.63l-.63-.62h-.62c-.42 0-1.05.42-1.88 1.25.42.42.63.83.63 1.25.41.42 1.04.83 1.87 1.25l3.75 3.75c3.33 2.92 7.3 3.96 11.88 3.13l.62-.63.63.63c0 1.25-.84 2.7-2.5 4.37a18.58 18.58 0 0 0 9.37 2.5c2.5 0 4.17-.63 5-1.88l1.25-3.12c.83-2.08 2.5-3.12 5-3.13 5 0 7.5 4.17 7.5 12.5v.63m-3.12-6.25c-2.5 7.92-8.13 11.88-16.88 11.88-6.67 0-12.7-2.5-18.12-7.5l-15-12.5-28.13-13.75 22.5 13.12a40.1 40.1 0 0 1 16.25 15c7.92 11.67 15.2 17.5 21.88 17.5 8.33 0 12.5-1.46 12.5-4.38l-1.25-.62v-2.5l4.37-4.38c2.08-2.08 3.12-4.37 3.13-6.87l-1.25-5m80 53.13c0 15.41 3.54 23.12 10.62 23.12 3.75 0 5.62-1.67 5.63-5 0-1.25-.21-2.08-.63-2.5-2.08 2.5-3.54 3.75-4.37 3.75-5.84 0-9.59-6.46-11.25-19.38m-8.75-6.87c5.83 53.33 28.75 80 68.75 80 6.24 0 15.41-1.87 27.5-5.63l-.63-3.75c-16.67 3.34-26.04 5-28.13 5-4.58 0-9.58-1.04-15-3.12-1.24-.42-1.87-1.25-1.87-2.5.42 0 .83-.2 1.25-.63l5-3.12c1.25-.42 1.87-1.67 1.88-3.75l-.63-1.25c0-.83-.2-2.08-.62-3.75l-.63-1.88c-2.08 6.26-6.25 9.38-12.5 9.38-20.83 0-34.17-21.04-40-63.13l-4.37-1.87m-271.25 242.5 1.87-1.25-.62-3.13h-2.5l1.25 4.38m8.75-18.13c-.84.84-1.25 1.46-1.25 1.88 0 1.25.83 2.7 2.5 4.38l2.5-1.88c-2.09-2.08-3.34-3.54-3.75-4.38m22.5 66.25c-3.76 0-5.63 2.3-5.63 6.88s1.67 6.88 5 6.88 5-2.09 5-6.25c0-5-1.46-7.5-4.37-7.5m18.12-56.88c-3.33 4.58-5 8.13-5 10.63s1.04 5.41 3.13 8.75c2.08 3.33 4.37 5 6.87 5 .42 0 1.04-.42 1.88-1.25l.62-.63 5-.63c2.5 0 3.75-2.08 3.75-6.25v-1.25c-.83-2.08-1.67-3.12-2.5-3.12h-.62l-.63 5c0 1.67-1.46 2.5-4.37 2.5-5 0-7.5-2.92-7.5-8.75 0-2.5.62-5.62 1.87-9.38l-2.5-.62m-14.37 6.88c3.74 7.5 5.62 13.12 5.62 16.87 0 9.17-4.17 13.75-12.5 13.75-4.58 0-10-3.75-16.25-11.25l-1.25 3.13c6.67 6.66 12.92 10 18.75 10 10 0 15-5.21 15-15.63 0-1.67-.2-2.7-.62-3.13l-6.25-15.62-2.5 1.88m-43.13-21.88a8.48 8.48 0 0 0-2.5 6.25c0 5.42 3.33 8.13 10 8.13l5-.63v-1.25c-8.33-.83-12.5-2.5-12.5-5l1.25-5-1.25-2.5m15-6.25h1.88c.41-.42 1.04-.63 1.87-.63.42 0 .83-.2 1.25-.62 2.92 0 4.37 1.88 4.38 5.63 0 1.66-.84 3.95-2.5 6.87l2.5 1.25a22.2 22.2 0 0 0 2.5-10c0-4.58-2.09-6.87-6.25-6.88-2.09 0-3.96 1.46-5.63 4.38m21.25 8.75 5 3.75c9.17-5 18.96-9.58 29.38-13.75l-3.75-3.75c-11.67 3.75-21.88 8.33-30.63 13.75m-23.12-5-.63 2.5 6.25.63 1.25-1.25-6.87-1.88m13.12-90-3.12-8.13-.63.63 3.75 7.5m35 93.13c-22.5 13.33-33.75 26.87-33.75 40.62 0 1.25.63 2.7 1.88 4.38.41-5 1.04-9.17 1.87-12.5a40.58 40.58 0 0 1 5-9.38c2.08-3.33 5-6.46 8.75-9.38 3.75-2.91 8.54-6.45 14.38-10.62l1.87-3.13m-28.75 13.75-6.25-3.12c-7.08 5.83-11.67 10.83-13.75 15-2.92 6.67-6.88 10-11.87 10h-1.88v3.75l1.88.63 1.87-1.25 2.5 1.87-3.75 10.63-3.12 22.5 1.25 17.5 1.87-.63c.83 0 2.3 4.38 4.38 13.13a24.49 24.49 0 0 0 1.87 5 74.76 74.76 0 0 1 2.5 5.62c1.67-1.67 3.12-2.5 4.38-2.5h.62l3.75 1.25 6.25-.63h2.5v-3.12c.42-2.5 0-4.17-1.25-5a24.85 24.85 0 0 0-3.75-3.13v-1.25c0-1.25.63-1.87 1.88-1.87l2.5.63c.41-2.5.2-4.17-.63-5l-3.75-3.75.63-1.25-3.13-.63-5-5.63-5-19.37c-.42-.42-.62-1.67-.62-3.75 0-13.75 7.7-28.96 23.12-45.63m4.38-1.87 1.87-1.88-8.75-6.25-1.87 1.25 8.75 6.88m-19.38-41.25c8.75 2.5 17.5 4.58 26.25 6.25s17.5 2.92 26.25 3.75c-9.58-2.08-18.75-4.17-27.5-6.25a235.97 235.97 0 0 1-24.37-7.5l-.63 3.75m49.38 5c-10.42-7.92-22.5-20.63-36.25-38.13-5.84-5-10.63-7.5-14.38-7.5-4.58 0-6.88 2.5-6.87 7.5 0 2.92 1.25 5.21 3.75 6.88.41-5.42 2.91-8.12 7.5-8.13 3.33 0 7.5 3.13 12.5 9.38 5.41 6.25 14.37 15 26.87 26.25l6.88 3.75m-46.25-32.5c-10.84 24.58-16.05 41.88-15.63 51.88v11.25l3.13.62v-6.88c-.42-15 5.2-33.95 16.87-56.87h-4.37m123.75-79.38-23.75 10c-16.25 7.09-24.38 14.59-24.38 22.5 0 3.34.63 5 1.88 5h.62c2.5 7.92 7.08 11.88 13.75 11.88 4.17 0 6.46-.83 6.88-2.5l4.37-9.38c1.25-2.5 2.92-3.74 5-3.75h1.25c-.42-1.66-1.25-2.5-2.5-2.5s-2.7.63-4.37 1.88l-2.5 2.5-3.13 4.38c-.42.41-1.25.62-2.5.62-5.83 0-8.75-2.92-8.75-8.75 0-6.67 6.46-13.13 19.38-19.38a102.9 102.9 0 0 0 8.75-5.62 142.9 142.9 0 0 0 10-6.88m-83.13 69.38-3.12-.63c-4.17 0-6.26 2.3-6.25 6.88 0 4.58 4.16 10.63 12.5 18.13v-2.5c-6.26-6.67-9.38-11.88-9.38-15.63 0-2.92 2.08-5 6.25-6.25m-42.5-31.88-3.75 2.5c5.42 9.59 10 17.71 13.75 24.38a139.33 139.33 0 0 0 11.25 15c3.33 4.17 7.7 8.96 13.13 14.38a1524.9 1524.9 0 0 0 20.62 18.75l4.38-1.25a305.97 305.97 0 0 1-59.38-73.75M206.84 351c2.92-5.83 4.37-11.67 4.38-17.5 0-8.33-3.96-12.5-11.88-12.5-8.33 0-15.42 4.38-21.25 13.13s-8.75 19.16-8.75 31.25c0 10 2.92 19.16 8.75 27.5l2.5-1.88c-6.25-7.92-9.38-16.67-9.37-26.25 0-10.83 2.7-20.42 8.12-28.75 5.42-8.33 11.88-12.5 19.38-12.5 6.24 0 9.37 3.13 9.37 9.38 0 3.75-1.04 9.79-3.12 18.12h1.87m29.38 63.75h-3.13l-18.12 5.63h-1.88c-4.17 0-6.25-1.46-6.25-4.38 0-1.25.42-2.3 1.25-3.13h-1.87c-2.09 0-3.13.63-3.13 1.88l-.62 3.75-1.25 1.25c.41 2.92 3.54 4.38 9.37 4.38h3.13c.83-.42 2.29-1.05 4.37-1.88 2.5-1.25 5.62-2.7 9.38-4.38a24.2 24.2 0 0 1 3.12-1.25 44.5 44.5 0 0 0 5.63-1.87m-38.13-76.88-2.5-3.75a34.46 34.46 0 0 0-1.87-4.37l1.25-.63 3.75 10.63-.63-1.88m-24.37-118.12a398.34 398.34 0 0 0-3.75 24.38c-.84 6.67-1.25 12.7-1.25 18.13 0 10 2.08 22.08 6.25 36.25 2.5 7.5 3.74 13.75 3.75 18.75v2.5c-5.84 0-8.34 1.04-7.5 3.12v1.88c1.25-1.25 2.5-1.88 3.75-1.88s2.91.63 5 1.88l4.37-2.5.63-2.5c0-7.5-2.92-18.96-8.75-34.38l-.63-44.38 4.38-19.37-6.25-1.88m53.75 110c-3.76 0-5.63 1.88-5.63 5.63 0 3.33 1.46 5 4.38 5 3.74 0 5.62-1.67 5.62-5 0-3.75-1.46-5.62-4.37-5.63m49.37-23.12c-28.75 6.25-43.12 12.7-43.12 19.38l1.25 1.25c1.25 0 2.29-.42 3.12-1.25l5-5.63 5.63-3.13 22.5-8.12 5.62-2.5m-88.12 12.5v-5.63c-.42-12.91 3.54-19.37 11.87-19.37 3.33 0 6.46 2.08 9.38 6.25 2.08-.83 3.12-2.08 3.12-3.75 0-1.25-.62-2.92-1.87-5l-5.63-5 1.25-3.75-6.87-1.88-6.25 4.38h-2.5l-.63-1.88-1.25-.62c-3.75 0-5.63 5.2-5.62 15.63 0 5.41 1.45 12.29 4.37 20.62h.63m5.62-86.25v-.63c0-4.58-1.88-6.87-5.62-6.87-5 0-7.92 4.17-8.75 12.5l-1.88 13.75 3.75-13.75c1.67-4.17 4.58-6.25 8.75-6.25l.63.63c.83 0 1.87.2 3.12.62m51.88 67.5a197.03 197.03 0 0 1-16.88-8.75c-3.75-2.5-6.04-4.17-6.87-5l-21.25-27.5c-4.59-6.25-9.17-9.37-13.75-9.38-2.09 0-3.13 1.05-3.13 3.13v1.88c-3.33.41-5.42 1.87-6.25 4.37v1.25c0 3.33.83 5 2.5 5 .83 0 1.25-.2 1.25-.63v-3.12c0-2.08 1.67-3.12 5-3.13 4.17 0 9.17 3.13 15 9.38l14.38 16.88c5.41 7.08 15.41 12.29 30 15.62m183.12-127.5c.41-5.42 3.33-8.75 8.75-10 11.66-2.5 17.5-6.04 17.5-10.63 0-7.91-5-11.87-15-11.87-5.42 0-9.17 1.04-11.25 3.13l-5 5.62-7.5 3.75c-.42.42-.63 1.04-.63 1.88 0 .83 1.04 1.24 3.13 1.24 2.91 0 5.41-1.25 7.5-3.75l5.62-6.87c.42-1.67 2.92-2.5 7.5-2.5h1.25c5.83-.83 8.75 1.88 8.75 8.13v1.24c-.83 3.76-2.5 5.63-5 5.63h-7.5c-2.5 0-5 1.25-7.5 3.75-2.08 2.5-3.13 4.8-3.12 6.88 0 1.24.83 2.7 2.5 4.37m-256.25 34.38c-.42.41-.63 1.45-.63 3.12 0 4.17 3.75 6.25 11.25 6.25 1.67 0 2.5-.63 2.5-1.88 0-.41-2.5-1.66-7.5-3.75-2.08-.41-3.96-1.66-5.62-3.75M524.97 415.4l4.37 11.25c10 1.66 18.13 5.83 24.38 12.5 6.66 6.25 10 13.12 10 20.62 0 7.92-3.13 13.75-9.38 17.5.83.42 2.5.63 5 .63 7.5 0 11.67-4.17 12.5-12.5 0-2.5.42-3.75 1.25-3.75.42 0 1.46.62 3.13 1.87 1.66.83 2.91 1.25 3.75 1.25 1.66 0 2.5-.83 2.5-2.5l-.63-2.5-1.88-8.75c-2.5-10-7.7-15.2-15.62-15.63.42-.41 1.25-.62 2.5-.62 7.08-.83 10.63-1.67 10.63-2.5l-1.25-1.25c0-.42-.21-.83-.63-1.25l-3.75-5c-6.25-7.5-16.67-11.25-31.25-11.25-3.75 0-8.96.63-15.63 1.88M518.1 401l5.63 10.63 8.12-.63c11.25-.83 18.54-1.87 21.88-3.13 3.33-1.25 6.66-4.37 10-9.37l-2.5-.63h-1.88c-1.25 0-1.88-.41-1.88-1.25 0-.41.42-1.04 1.25-1.87l1.88-1.25c2.92-1.25 6.04-5 9.38-11.25.41-.42.62-1.25.62-2.5 0-.42-.63-.63-1.88-.63l-4.37.63c-.42 0-.63-.2-.63-.63v-1.87c.42-2.08.63-3.75.63-5 .42-1.25.63-2.3.63-3.13 0-8.33-3.55-12.91-10.63-13.75h-1.25c-1.67 0-2.92.21-3.75.63 5 3.33 7.5 7.3 7.5 11.88 0 14.58-12.92 25.62-38.75 33.12m50-1.88c17.08-5.41 31.67-19.79 43.75-43.12 6.25-11.25 11.67-16.88 16.25-16.88-.83-3.74-2.5-5.62-5-5.62-3.33 0-5.83 2.5-7.5 7.5a137.5 137.5 0 0 1-47.5 58.13m-18.13-46.25-6.25-1.25c-3.33 0-5.62 2.08-6.87 6.25-.42 1.66-.83 2.5-1.25 2.5-.83 0-1.25-.42-1.25-1.25l.63-1.88c0-.83-.21-1.25-.63-1.25-2.5 0-3.75 1.88-3.75 5.63 0 2.08.63 4.58 1.88 7.5 1.66 2.91 2.5 5 2.5 6.25 0 5-2.92 7.5-8.75 7.5-5.42 0-8.13-3.13-8.13-9.38 0-2.5.63-5.62 1.88-9.38 1.66-3.74 2.5-6.24 2.5-7.5 0-2.08-1.46-4.16-4.38-6.25-2.5-2.08-4.8-3.12-6.88-3.12s-4.79 1.67-8.12 5c2.5-1.25 4.37-1.87 5.63-1.88 5.41 0 8.12 2.71 8.12 8.13l-.63 2.5-1.87 6.88c-.42.41-.63 1.87-.63 4.37 0 10 4.17 15 12.5 15 3.75 0 6.88-1.04 9.38-3.13l4.38-3.75c.83 0 1.45.21 1.87.63 2.08-3.33 3.12-5.62 3.13-6.88 0-1.25-.21-2.08-.63-2.5l-2.5-3.75c-.83-2.5-1.25-4.16-1.25-5 0-5.41 3.12-8.74 9.38-10m69.37-33.12c6.25-21.67 9.17-37.92 8.75-48.75l-.63-26.88c0-16.66-3.33-27.5-10-32.5l-3.12-1.87c-.83-.83-1.25-1.67-1.25-2.5 0-.83.42-1.25 1.25-1.25.83.42 1.46.83 1.88 1.25l1.25 1.25 3.75 3.75 3.12 5c-2.08-9.58-5.63-16.46-10.63-20.63-4.58-4.58-6.87-7.29-6.87-8.12 0-.42.42-.63 1.25-.63-1.25 0 1.67 2.3 8.75 6.88l-3.13-6.88-5-8.75c-2.08-5-3.12-10.2-3.12-15.62 0-12.08 3.96-18.13 11.88-18.13 3.74 0 5.62 1.67 5.62 5 0 1.25-1.25 3.34-3.75 6.25-2.5 2.92-3.75 5.42-3.75 7.5 0 5.42 3.33 8.76 10 10-2.92-4.16-4.38-7.7-4.38-10.62 0-.83 1.05-3.96 3.13-9.38a9.14 9.14 0 0 0 1.88-5.62c0-5-3.34-7.5-10-7.5-3.76 0-6.46 1.04-8.13 3.13a46.92 46.92 0 0 0-4.38 5h-2.5c-3.75.83-5.62 4.79-5.62 11.87 0 4.58 1.25 7.7 3.75 9.38l3.13 2.5c.41.41.62 1.04.62 1.87 0 .42-.2.83-.63 1.25a30.03 30.03 0 0 1-3.12-1.88 6.76 6.76 0 0 0-5-1.87h-1.88l1.25 5 .63 6.88a8.1 8.1 0 0 0 4.38 7.5l5 3.12c1.25.83 1.87 1.67 1.87 2.5-.42.42-1.04.63-1.88.63h-3.12c-.42 0-.63.41-.63 1.25 0 5.41 3.13 10 9.38 13.75 5 2.91 9.17 8.33 12.5 16.25.83 3.33 1.25 4.79 1.25 4.37 0 1.67-.42 2.5-1.25 2.5-1.25 0-2.5-2.08-3.75-6.25-3.75-10.42-8.96-15.63-15.63-15.63-2.5 0-4.16.42-5 1.25 0 2.5 1.46 4.59 4.38 6.25 2.92 1.25 4.37 2.3 4.38 3.13l-4.38 1.88c-2.92 1.25-4.38 3.12-4.38 5.62.42 1.25 1.67 2.92 3.75 5 1.25-2.5 2.92-3.75 5-3.75 10.84 0 16.25 12.92 16.25 38.75 0 12.5-1.87 25-5.62 37.5a11.1 11.1 0 0 1 1.25 5l1.25 5M508.72 583.51c-5-2.08-8.33-3.75-10-5-15-7.92-22.5-17.92-22.5-30 0-9.17 3.96-13.75 11.88-13.75 5 0 7.5 2.7 7.5 8.13v1.87c3.74-2.92 5.62-5.83 5.62-8.75 0-5.83-2.08-8.75-6.25-8.75l-5 .63h-3.13c-.83 0-1.24-1.05-1.24-3.13v-.63c0-2.5-.63-3.74-1.88-3.75-2.08 0-5.42 2.92-10 8.75-2.92 2.92-4.38 7.71-4.38 14.38 0 20 13.13 33.33 39.38 40m108.12-33.75c7.08-15.42 10.62-30.83 10.63-46.25a83.49 83.49 0 0 0-13.75-46.25c-8.76-14.58-20.21-25-34.38-31.25 2.92 2.92 4.37 5 4.38 6.25l.62 2.5c0 2.08 1.67 4.17 5 6.25 3.75 1.67 6.04 2.92 6.88 3.75 2.08 2.5 3.95 4.8 5.62 6.88a57.04 57.04 0 0 1 4.38 6.25c6.24 10 9.37 22.08 9.37 36.25a38.8 38.8 0 0 1-6.88 22.5c-4.16 6.66-8.95 10-14.37 10-6.25 0-10.2-2.71-11.88-8.13v-1.88c0-2.5 1.46-5 4.38-7.5l6.25-4.37a6.14 6.14 0 0 0 3.13-5.63c.83-4.58-1.25-6.87-6.25-6.87.41 0-.63.42-3.13 1.25 1.67 1.25 2.5 2.5 2.5 3.75 0 2.5-1.46 4.58-4.38 6.25-5.83 3.75-8.75 8.13-8.75 13.13 0 3.75.84 6.87 2.5 9.37a32.82 32.82 0 0 0 6.25 5 32.12 32.12 0 0 0 8.75 3.13l-.62 2.5c0 .83.83 1.25 2.5 1.25h7.5c7.92-.42 12.3-4.8 13.13-13.13 0-4.17 1.04-6.25 3.12-6.25 1.25 0 1.87 1.25 1.88 3.75 0 2.08-.63 3.96-1.88 5.63l-6.88 11.25-5.62 8.12 10 2.5m-3.13-247.5.63 1.88c2.08-6.25 3.12-10.42 3.13-12.5 0-13.75-6.26-20.63-18.75-20.63-10.42 0-15.63 5-15.63 15 0 4.17 2.5 7.7 7.5 10.63-1.67-2.92-2.5-5.42-2.5-7.5 0-8.75 4.58-13.13 13.75-13.13 8.75 0 13.13 5.42 13.13 16.25 0 1.25-.21 2.7-.63 4.38 0 1.66-.2 3.54-.63 5.62m-26.87-54.38c3.75-9.16 5.62-16.87 5.63-23.12 0-5.42-.84-10.83-2.5-16.25l-4.38 5.63c.42 2.5.63 4.79.63 6.87.41 2.08.62 4.17.62 6.25 0 6.25-.83 11.04-2.5 14.38l2.5 6.25M558.71 226c4.17.83 6.05 1.25 5.63 1.25 2.08 0 5.2-1.25 9.38-3.75 4.16-2.5 6.24-4.58 6.25-6.25 0-.42-.63-1.04-1.88-1.88-1.25-.83-1.88-1.45-1.88-1.87 0-.42.42-1.04 1.25-1.88l5-1.87c2.5-.83 4.8-4.8 6.88-11.88a225.27 225.27 0 0 1-13.13-4.37c-2.08-.83-3.54-1.25-4.37-1.25-1.67 0-3.13.2-4.38.63h-.62c-.42 0-.83-.63-1.25-1.88v-3.13c-1.25-.41-3.13-.62-5.63-.62-3.75 0-7.29 2.3-10.62 6.88l1.25 1.25a7.83 7.83 0 0 0-1.88 3.12l1.25 1.25c.42 0 .84.2 1.25.63-1.66 1.66-2.7 2.91-3.12 3.75l1.88-.63c1.25 0 2.29.63 3.12 1.88 0 1.25-1.67 1.87-5 1.87l-1.88 1.88h3.75l3.13-.63h.63c.83 0 1.25.2 1.25.63 0 2.5-2.5 3.75-7.5 3.75l-3.13-.63-1.25 1.25a8.3 8.3 0 0 0 5 1.88c2.5 0 5.42-1.05 8.75-3.13 3.75-2.08 6.04-3.12 6.88-3.13.83 0 1.25.42 1.25 1.25 0 .84-.21 1.46-.63 1.88l-3.75 1.88-5.63 3.12-6.25.63 1.25 1.87c3.34-.42 5.63-.63 6.88-.63 1.25-.41 1.25-.62 0-.62 1.25 0 1.87.2 1.88.63 0 2.08-1.46 3.33-4.38 3.75l.63 1.25c.41-.42 1.04-.63 1.87-.63.83 0 1.46.83 1.88 2.5m-21.88-13.13c5.42-2.91 8.12-8.12 8.13-15.62 0-5-1.25-8.75-3.75-11.25l-5.63-4.38a36.25 36.25 0 0 1-3.13-3.75 54.38 54.38 0 0 0-5-5.62l-3.75 2.5-1.25 2.5c-.83 1.25-1.45 1.88-1.87 1.88-.42 0-1.25-.42-2.5-1.25-1.25-1.25-5-2.3-11.25-3.13-5.83-.83-10.62-3.75-14.37-8.75-2.92 4.17-4.38 8.54-4.38 13.13 0 5.41 1.67 10.41 5 15 .83.83 1.25 1.45 1.25 1.87-.83.83-1.46 1.25-1.87 1.25h-.63c-1.25 0-2.08-.2-2.5-.63h-1.87c-1.25 0-1.88.42-1.88 1.25 0 4.59 2.08 9.59 6.25 15 5.83 7.09 11.46 10.63 16.88 10.63-.42 0 1.04-.42 4.37-1.25-2.92-1.25-4.38-2.5-4.38-3.75.42-.42 1.05-.63 1.88-.63-.42 0 1.04.42 4.38 1.25l1.25-.62c-2.5-1.67-3.76-3.75-3.75-6.25 0-.42.2-.63.62-.63 2.08 0 3.96 1.46 5.63 4.38l1.87-1.25-3.75-3.13-3.13-5.62-2.5-2.5-.62-1.25c0-1.67.63-2.5 1.88-2.5.83 0 2.08 1.88 3.75 5.63 2.08 3.33 5.62 5.62 10.62 6.87-.42-.42-.63-1.25-.63-2.5s.42-1.87 1.25-1.88c1.67 0 2.5 1.46 2.5 4.38h3.13c-.42-.42-.63-1.04-.63-1.88 0-.41.42-1.04 1.25-1.87 1.67 0 2.71 1.46 3.13 4.38m-28.75 13.75c-6.25-2.92-11.67-4.38-16.25-4.38-5.83 0-9.8 3.54-11.87 10.63l-1.25 6.25c0 2.08.83 3.12 2.5 3.12.83 0 1.66-.2 2.5-.63 1.25-.41 2.29-.62 3.12-.62 2.08 0 3.12.63 3.13 1.88 0 .41-2.09 1.25-6.25 2.5-4.17 1.25-6.26 4.37-6.25 9.37 0 2.08.2 3.54.62 4.38H492.47c2.5 0 4.37-.21 5.62-.63l1.88 3.75.62.63c.83 0 1.46-.21 1.88-.63l3.12-3.75 6.25-5.63c1.67-1.66 2.7-5.62 3.13-11.87-1.25.42-2.3.83-3.13 1.25h-.62v-.63c0-.83.62-2.29 1.87-4.37v-2.5l-4.38 4.38c-4.16 4.16-7.5 6.25-10 6.25-.83 0-1.24-.42-1.24-1.25 0-.84.41-1.67 1.25-2.5l4.37-1.88 6.88-5.63c1.66-1.66 2.5-3.12 2.5-4.37l-.63-1.88-3.12 3.13c-1.67 1.67-3.34 2.5-5 2.5-1.25 0-1.88-.42-1.88-1.25 0-2.08 2.08-3.96 6.25-5.63m5.63 29.38c-1.67 1.67-2.5 3.13-2.5 4.38 0 3.33 1.66 6.04 5 8.12h3.12l2.5-1.25 7.5 5.63c1.67-3.34 2.5-6.46 2.5-9.38v-1.88c-1.67-1.25-3.75-3.33-6.25-6.25v1.25c0 2.5-.83 3.76-2.5 3.75.83 0-.2-3.12-3.13-9.37a14.58 14.58 0 0 0-1.87-3.13c-1.25.84-1.88 1.88-1.88 3.13v.63l.63 3.12v.63c0 1.25-.2 2.08-.63 2.5-.41-.42-.83-.63-1.25-.63l-1.25-1.25m77.5-97.5c-17.91-12.92-36.45-19.38-55.62-19.38-21.67 0-38.33 4.38-50 13.13l2.5 2.5a96.06 96.06 0 0 1 45.63-11.25c18.33 0 37.5 6.88 57.5 20.63v-5.63m-106.25 8.75 1.25-5c0-7.08-3.34-10.42-10-10h-.63c-1.67.83-2.7 1.46-3.12 1.88l4.37 3.75c3.33 2.08 5 3.95 5 5.62l-.62 1.88 3.75 1.87m-58.75 5.63v1.87c0 9.58 4.58 14.38 13.75 14.38h2.5l.62 3.12c9.17-.83 14.58-5.83 16.25-15 .42-6.25 2.08-9.37 5-9.38 1.67 0 2.5.84 2.5 2.5 0 2.09-1.46 4.59-4.37 7.5-1.25 5.42-3.13 10-5.63 13.75-2.08 3.76-3.13 6.88-3.12 9.38 0 2.08.62 4.58 1.87 7.5 1.67-1.67 2.92-2.5 3.75-2.5 1.25.83 1.87 1.46 1.88 1.88l.62 5.62c.83 5.83 5 8.75 12.5 8.75 6.25 0 9.8-1.87 10.63-5.63v-1.87c-.84.42-2.3 1.04-4.38 1.88-1.67.83-2.92 1.25-3.75 1.25-6.67 0-10-4.17-10-12.5 0-3.75 2.92-11.88 8.75-24.38 2.5-4.17 3.75-7.5 3.75-10 0-8.33-4.17-12.5-12.5-12.5-4.58 0-8.96 3.33-13.12 10-5.42 9.17-10.21 13.75-14.38 13.75-3.33 0-7.7-3.12-13.12-9.38m-192.5 7.5c2.91-1.25 4.37-2.91 4.37-5 0-6.66-4.38-10-13.12-10-2.09 0-3.34.21-3.75.63l-2.5 1.25h-.63c-1.25 0-1.88-.83-1.87-2.5v-2.5c-7.09.83-10.84 2.7-11.25 5.63l-2.5 6.25c-.84.83-1.67 2.08-2.5 3.75a30.24 30.24 0 0 1-3.75 4.37c0 1.67-1.46 4.58-4.38 8.75-.83.83-1.67 1.25-2.5 1.25-1.25 0-1.88-.83-1.87-2.5 0-.83.62-2.3 1.87-4.38l3.75-6.25 6.88-8.12c2.08-3.33 3.12-7.92 3.12-13.75 0-.83-.2-1.87-.62-3.13 0-1.25-.21-2.91-.63-5-2.08 2.09-3.54 3.13-4.37 3.13a14.38 14.38 0 0 1-1.88-3.13c-2.5-6.24-7.08-9.37-13.75-9.37-8.75 0-13.12 4.58-13.12 13.75 0 3.75.83 6.46 2.5 8.13l3.12 5c.42.41.63 1.66.63 3.75 0 2.08-1.05 3.54-3.13 4.37.42 1.25 1.04 1.88 1.88 1.88 3.33 0 5.41-2.3 6.25-6.88v-1.88c0-1.66-1.05-3.95-3.13-6.87s-3.13-5.62-3.12-8.13c0-5.41 2.7-8.12 8.12-8.12 5.83 0 8.75 3.96 8.75 11.88 0 3.75-2.3 9.79-6.87 18.12-5.84 9.58-8.76 16.88-8.75 21.88 0 8.33 3.54 12.5 10.62 12.5 6.25 0 11.46-3.96 15.63-11.88 9.58-15.83 17.5-23.75 23.75-23.75 3.74 0 6.66 2.3 8.75 6.88m349.38 74.37c-4.59.83-6.88 1.88-6.88 3.13v1.25c.42.83.83 2.08 1.25 3.75l5.63-8.13m-360-93.75 4.37.63c12.92-5.84 22.92-8.75 30-8.75 21.25 0 31.88 6.25 31.88 18.75 0 4.16-2.09 6.25-6.25 6.25-3.34 0-5.84-2.09-7.5-6.25l-4.38-6.88c-2.08-3.75-5.63-5.62-10.63-5.63-7.08 0-10.62 2.92-10.62 8.75 0 3.34 1.67 5 5 5l-.62-5c0-2.91 2.08-4.37 6.25-4.37 5 0 8.54 4.17 10.62 12.5s6.87 12.5 14.38 12.5l1.87-.63 3.13-1.25c.41-.41 1.04-.62 1.87-.62 0 0 .2.42.63 1.25.83.83 1.66 2.3 2.5 4.38 3.74-3.75 5.62-7.09 5.62-10 0-1.67-.42-3.75-1.25-6.25l-1.25-3.75c.42-.42 1.04-.63 1.88-.63 1.66 0 2.7.2 3.12.63-.83-15-13.96-22.5-39.38-22.5-13.33 0-27.08 3.95-41.24 11.87m-22.5 416.88-1.25 6.25c1.25 1.25 2.7 3.96 4.37 8.13 1.67-1.67 2.5-3.13 2.5-4.38l-.62-4.38c0-.83.41-1.25 1.25-1.25s1.45.21 1.87.63c12.92 8.75 27.5 13.13 43.75 13.13 21.25 0 39.58-4.8 55-14.38 15.42-10 25.83-23.33 31.25-40 1.67-3.75 2.5-6.46 2.5-8.13.42-.41 2.92-4.16 7.5-11.25h-3.13l-2.5 1.25c-.41.42-.83.63-1.24.63-1.25-.42-1.88-1.04-1.88-1.88a111.6 111.6 0 0 0 1.88-6.87c.41-.42-.42-5.62-2.5-15.63 0-.41-.21-1.25-.63-2.5 0-1.25-.2-2.91-.63-5l-.62-4.37c0-1.67-.2-2.5-.63-2.5-.83 0-1.66.42-2.5 1.25l-1.24 1.88h-.63l-1.88-2.5c-1.24-2.09-3.33-5.21-6.24-9.38a139.22 139.22 0 0 0-5-8.13c-1.25-2.91-2.71-6.04-4.38-9.37-8.33 9.58-12.5 17.5-12.5 23.75 0 2.08.42 4.58 1.25 7.5 1.25 2.92 1.87 4.8 1.88 5.63 0 .41-.21.62-.63.62h-1.88c-.83-.42-2.29-1.04-4.37-1.88a43.55 43.55 0 0 1-1.25 5v2.5c0 3.34 4.17 9.8 12.5 19.38 5.83 5.83 8.75 10.2 8.75 13.13 0 1.66-.63 2.5-1.88 2.5h-1.87c-1.67-.42-2.5-1.05-2.5-1.88l-3.75-8.13-8.75-10.62c-5.83-8.33-11.67-12.08-17.5-11.25h-3.13c2.09 3.33 3.13 5.2 3.13 5.63h-.63c-.83 0-2.91.62-6.24 1.87-2.92.83-7.71 3.96-14.38 9.38 2.92 1.66 5.62 4.37 8.13 8.12 2.5 3.33 4.79 4.8 6.87 4.38h3.13c.41 0 .62.41.62 1.25 0 .41-.2 1.25-.63 2.5 0 1.25-.2 2.91-.62 5 2.08-.42 3.96-.63 5.63-.63 1.66-.42 2.91-.63 3.75-.63 10 0 15 5.42 15 16.25 0 4.17-1.46 8.34-4.38 12.5a43.93 43.93 0 0 1-11.25 10 73.48 73.48 0 0 1-16.25 7.5 65.65 65.65 0 0 1-18.13 2.5c-13.74 0-26.04-2.91-36.87-8.75-2.5-.41-5-1.04-7.5-1.87-2.5-.83-5.2-1.67-8.12-2.5m381.25 3.13c-20 7.08-37.09 10.62-51.25 10.62-20 0-36.67-5.83-50-17.5-12.92-12.08-19.38-27.5-19.38-46.25 0-13.33 6.25-24.17 18.75-32.5l-2.5-.63c-2.5 2.09-4.38 3.34-5.63 3.75l-3.74 3.13-1.88 1.25 1.25-3.13 4.38-5-3.75 1.88c-.42.42-1.67 1.88-3.75 4.38-2.09 2.08-3.34 3.12-3.75 3.12 0-2.08 1.66-4.58 5-7.5 3.33-3.33 6.66-5 10-5 7.91 0 12.29 3.75 13.12 11.25.83 5.83 2.3 8.75 4.38 8.75.83 0 1.87-.63 3.12-1.88 1.67-1.66 2.92-2.5 3.75-2.5.42 0 1.04 1.05 1.88 3.13.83 3.75 3.12 6.25 6.87 7.5a14.52 14.52 0 0 1 2.5-3.75c.83-1.25 1.46-2.3 1.88-3.13 5.83-7.08 8.74-12.5 8.75-16.25 0-4.16-1.46-7.5-4.38-10-1.25-.41-1.88-1.25-1.88-2.5s.42-2.29 1.25-3.12l2.5-3.13.63-5.62H503.09c-8.75-.83-15.2.83-19.37 5 13.75 1.25 20.63 4.38 20.63 9.38 0 .83-.42 1.25-1.25 1.25a18.79 18.79 0 0 1-8.13-5c-2.5-2.5-5.2-3.34-8.13-2.5-6.25 0-11.45 1.87-15.62 5.62h5.63c.41-.42 1.45-.63 3.12-.63 1.67 0 2.5.42 2.5 1.25 0 1.25-1.04 1.88-3.13 1.88l-3.74-.63c-5.84 0-10.84 3.96-15 11.88-4.17 7.5-6.26 16.88-6.25 28.13 0 21.25 7.08 38.33 21.25 51.25 14.58 12.5 34.37 18.75 59.37 18.75 12.92 0 28.33-3.55 46.25-10.63l.63-4.38m-14.38-184.38c31.67-25.41 47.5-50.2 47.5-74.37 0-5.83-.83-10.2-2.5-13.13l-4.38-6.25c-.41-.83-1.04-2.5-1.87-5-.42-2.5-.83-3.74-1.25-3.75-1.67 0-3.54 2.92-5.63 8.75l-.62 1.88v.63l1.25 2.5-1.88.62-5-.63h-1.25c-3.33-.41-6.66 1.05-10 4.38-2.91 2.92-4.37 5.83-4.37 8.75 0 1.25 1.04 2.92 3.13 5 0-5.83 3.12-8.75 9.37-8.75 8.75 0 13.13 5.42 13.13 16.25 0 16.67-12.3 36.67-36.88 60l1.25 3.13m-100.62 197.5c-.42-.42-.63-1.05-.63-1.88.42-.42.63-.83.63-1.25l1.25-1.25c2.5-2.92 3.75-5.42 3.75-7.5 0-5-3.75-8.54-11.25-10.63-1.25-.41-1.88-.83-1.88-1.25 0-1.66.84-3.33 2.5-5l-5-3.75a7.77 7.77 0 0 0-5.62-2.5h-6.88l-1.87 1.88c-.42.42-1.04.63-1.88.63-.41 0-.62-.63-.62-1.88s.63-3.13 1.88-5.63c-3.34-1.25-5.63-1.87-6.88-1.87-3.33 0-7.92 2.92-13.75 8.75-2.08 2.08-3.75 3.13-5 3.13-2.92 0-4.38-1.46-4.38-4.38 0-.83 1.05-2.3 3.13-4.38 6.67-4.16 10-9.37 10-15.62l-.63-3.13-1.25-5c-.83-2.5-1.45-3.74-1.87-3.75-1.25 0-2.7 1.05-4.38 3.13-1.66 2.08-2.91 3.13-3.75 3.13-1.25 0-1.87-.84-1.87-2.5.42-.42.63-1.67.63-3.75v-2.5c.41-1.67-.84-5.42-3.75-11.25l-3.75-8.75-5-6.25-5 6.25-3.75 6.87c-2.92 4.17-4.38 6.88-4.38 8.13l-.63 8.12c-.83 5-1.66 7.5-2.5 7.5-1.25 0-2.08-.83-2.5-2.5l-.62-3.13-1.88-1.87c-.83-.83-2.29-2.08-4.37-3.75-3.33 7.92-5 12.7-5 14.38 0 3.33 1.04 6.66 3.13 10l4.37 5.62c1.25 2.08 1.87 3.54 1.88 4.38 0 2.91-1.67 4.37-5 4.37-1.67 0-3.34-1.46-5-4.38-5-5.83-10.63-8.75-16.88-8.75-2.08 0-4.58.63-7.5 1.88l5.63 9.38c0 1.25-1.05 1.87-3.13 1.87h-5.63c-3.75 0-8.33 2.5-13.75 7.5 1.67.42 2.5 1.46 2.5 3.13 0 .41-1.25 1.87-3.75 4.37s-3.75 5-3.75 7.5c0 2.08 1.67 4.8 5 8.13 1.25-9.59 10.84-14.17 28.75-13.75H368.1c1.67 0 3.33.2 5 .62 15.83 0 23.54-7.5 23.13-22.5v-2.5c0-1.25.41-1.88 1.25-1.88 1.66 0 2.5 1.46 2.5 4.38v1.25l-.63 6.25c-.42 1.25-.63 3.13-.63 5.63 0 5.41 11.05 8.12 33.13 8.12h11.25c2.5 0 5.42-.2 8.75-.63h1.88c6.66 0 10 2.09 10 6.25 0 1.25-.42 2.71-1.25 4.38a10.2 10.2 0 0 0-.63 2.5c0 1.67 1.46 2.5 4.38 2.5l.62-.63m46.25-295c-4.58 4.59-6.88 10.42-6.88 17.5l.63 1.88 1.25 3.13.63 1.87c0 .42-.21.63-.63.63h-6.25c5.83 12.08 12.92 17.91 21.25 17.5h5.63c1.25-.42 1.87-.21 1.87.62 0 .42-.42 1.25-1.25 2.5a10.2 10.2 0 0 0-.63 2.5c.84.83 1.46 1.25 1.88 1.25.83 0 2.5-.63 5-1.88l15-10.62c9.17-6.25 13.75-20.2 13.75-41.88 0-3.74-.83-7.91-2.5-12.5-1.25-5-1.88-8.12-1.88-9.37 0-1.67.42-2.5 1.25-2.5 1.67 0 2.92 1.88 3.75 5.63l1.88 9.37c.83 4.17 1.25 7.5 1.25 10 0 8.75-1.04 16.25-3.13 22.5l-5 11.25-.62 3.75-1.25 2.5c0 1.25.42 1.88 1.25 1.88l1.88.62 1.87 3.75c.42 1.67 2.08 2.5 5 2.5 1.67 0 2.5-.63 2.5-1.88 0-.83-.2-1.45-.63-1.87l-2.5-1.88c-.83-.83-1.25-2.5-1.25-5 0-3.33.84-6.45 2.5-9.37 5-10.42 7.5-22.08 7.5-35 0-22.5-6.87-41.25-20.62-56.25-9.58-10-17.5-15-23.75-15-10 0-15 5-15 15 0 5.42 4.17 12.3 12.5 20.63 18.33 17.5 27.5 33.12 27.5 46.87 0 9.17-2.5 17.08-7.5 23.75-5 6.25-11.25 9.38-18.75 9.38-11.67 0-17.5-4.8-17.5-14.38 0-8.33 3.33-12.5 10-12.5h.63c-1.25 0-.21.42 3.12 1.25h2.5c.42 0 .63-.2.63-.63 0-3.33-2.5-5-7.5-5-2.09 0-3.34.21-3.75.63l-1.88 1.88-1.25 1.25a24.5 24.5 0 0 0-1.25-3.13 24.5 24.5 0 0 0-1.25-3.13M409.35 511.01c4.58-18.75 11.88-33.54 21.88-44.37 10.41-11.25 25.83-21.46 46.25-30.63l-8.13-15.62c-20 12.08-34.38 23.33-43.13 33.75-8.75 10-16.04 25.42-21.87 46.25 2.5 2.5 4.17 6.04 5 10.63m-15.63-13.75v-4.38c.42-7.92-7.08-22.7-22.5-44.38-7.5-10.41-11.25-17.5-11.25-21.25 0-5 2.71-7.7 8.13-8.12 2.08 0 3.33-.2 3.75-.63 0-2.5-1.67-4.37-5-5.62-.42-.42-1.67-.63-3.75-.63-3.33 0-6.04 1.05-8.13 3.13-2.08 2.08-2.91 3.13-2.5 3.13l-2.5-1.25a7.33 7.33 0 0 0-1.87-1.25c-.42 0-.83-.21-1.25-.63-1.67 0-2.5 2.08-2.5 6.25 0 3.75 4.58 10.2 13.75 19.38 15.42 17.08 27.3 35.83 35.63 56.25m-175-341.25c1.25.83 1.87 1.87 1.87 3.12 16.67-9.17 32.5-13.75 47.5-13.75 20.42 0 39.8 9.17 58.13 27.5-2.5-5.42-3.76-7.92-3.75-7.5v-1.25l3.12 1.25 3.75 3.75c6.67 7.92 10 15 10 21.25 0 6.67-1.67 11.67-5 15-5 5.83-7.7 9.17-8.13 10-.41.42-1.66.63-3.75.63-1.25 0-1.87-.42-1.87-1.26 0-1.25 1.67-2.91 5-5 7.08-3.74 10.63-9.79 10.63-18.12 0-3.33-.21-5.62-.63-6.88-.83 6.26-2.5 9.38-5 9.38-.42-.42-.63-.83-.63-1.25l.63-1.88 2.5-6.87c.42-.42.63-1.25.63-2.5 0-3.33-2.09-7.08-6.25-11.25.41 2.08.62 3.75.62 5 .42 1.25.63 2.08.63 2.5 0 11.67-3.76 17.7-11.25 18.13l-9.38 1.24c-2.08 0-5.2 1.05-9.38 3.13-3.75 1.67-5.62 3.33-5.62 5 0 .42.83 1.04 2.5 1.88 1.67.41 2.5 1.04 2.5 1.87 0 .42-1.46 1.46-4.38 3.13-5 2.91-7.7 6.87-8.12 11.87v3.13c-.42.41-.63.83-.63 1.24 0 .84-.2 1.46-.62 1.88 1.25-.42 3.54-.63 6.88-.63h3.12l4.38 1.25 11.25 1.25 3.12-1.25 1.88-.62c1.25 0 1.87.83 1.87 2.5 0 1.25-.63 2.7-1.88 4.38h3.75c6.25.41 12.09-3.34 17.5-11.26 2.09-3.74 3.34-6.04 3.75-6.87l1.88-5c.83-2.08 1.67-3.12 2.5-3.13 1.67 0 2.5 1.46 2.5 4.38 0 3.75-2.5 12.08-7.5 25 4.17-3.33 7.3-8.12 9.38-14.38.41-1.25.83-1.87 1.25-1.87.41.42.62 1.04.62 1.88 0 5.83-2.5 11.04-7.5 15.62a23.36 23.36 0 0 1-16.25 6.25c-4.58 0-8.75-.63-12.5-1.88l-8.13-3.12-8.75-.63-6.25 1.25-2.5 1.25-1.87 1.88c0 .83.2 1.46.63 1.88l1.87 1.24.63.63c0 1.25-1.05 1.88-3.13 1.88s-5-.21-8.75-.63c-3.75-.83-6.46-1.25-8.13-1.25-3.33 0-7.29 1.67-11.87 5 2.92 1.67 5.42 4.38 7.5 8.13 4.58 7.08 9.58 11.25 15 12.5 1.67 0 2.5.2 2.5.62 0-.42-.42.63-1.25 3.13l-2.5 3.75c-.42.41-.63 1.04-.63 1.87 0 2.08 1.67 3.13 5 3.13h8.75l6.25.62c1.67 0 5-1.04 10-3.13l5-1.25c1.25 0 2.09.21 2.5.63 0 2.08-2.5 3.96-7.5 5.63-12.08 3.75-21.04 5.62-26.87 5.62-11.67 0-22.7-3.33-33.13-10 1.67 3.75 4.59 6.67 8.76 8.75 1.66 1.25 2.5 2.08 2.5 2.5 0 .42-.42.63-1.25.63-2.09 0-4.17-1.05-6.25-3.13-6.26-5.42-9.38-10-9.38-13.75 0-2.08.83-5.42 2.5-10 2.08-4.58 3.12-7.7 3.13-9.38 0-2.08-.21-3.54-.63-4.37-2.5 0-3.75-.83-3.75-2.5 0-1.25.63-2.92 1.88-5 1.66-2.08 2.5-3.75 2.5-5l-.63-6.88c0-3.33 1.25-9.37 3.75-18.12-10.83.83-18.33 3.54-22.5 8.13-2.08 2.08-3.33 3.12-3.75 3.12-1.67 0-2.5-1.04-2.5-3.13l.63-2.5h-3.13c-5 1.25-7.5 6.46-7.5 15.63 0 2.5.63 5.63 1.88 9.38 1.66 3.33 2.5 5.83 2.5 7.5 0 2.5-1.05 3.75-3.13 3.75-4.17 0-6.25-5-6.25-15 0-13.34 7.5-26.67 22.5-40-.42-.42-1.46-.63-3.12-.63-4.17 0-8.34 3.75-12.5 11.25-2.09 3.33-3.76 5-5 5-.42 0-.63-.63-.63-1.88 0-1.66 1.04-3.54 3.13-5.62-7.92 2.5-11.88 10.2-11.88 23.13 0 7.08 2.5 15.2 7.5 24.37 2.92 5.83 5.42 9.58 7.5 11.25l12.5 11.88-2.5-8.75c-.42-1.25-.62-4.38-.62-9.38 0-13.75 1.87-20.63 5.62-20.63.42.42.63 1.25.63 2.5v2.5l-2.5 8.13c-.42.83-.63 2.7-.63 5.63 0 7.5 2.3 15.41 6.88 23.75l6.25 5.62-5-8.13-.63-4.37-.62-4.38c0-2.5.62-3.74 1.87-3.75v1.25c.42.42.83 1.25 1.25 2.5 1.67 16.25 13.75 24.38 36.25 24.38 30 0 52.5-14.8 67.5-44.38l-7.5 5.63c-5 3.33-8.96 5.2-11.88 5.63l-18.12 1.25c-2.92 0-4.38-.84-4.38-2.5 0-1.25 1.88-1.88 5.63-1.88h5c16.67.42 29.8-7.92 39.38-25a70.27 70.27 0 0 0 2.5-18.13c0-23.33-7.92-42.91-23.75-58.75-15.84-15.83-35.84-23.75-60-23.75-17.92 0-34.59 5-50 15m167.5 353.13a40.75 40.75 0 0 1 2.5-4.38c.83-1.25 1.66-2.3 2.5-3.13-3.34-10-6.88-18.54-10.63-25.62a85.16 85.16 0 0 0-13.75-20 71.34 71.34 0 0 0-18.75-16.25c-7.08-5-15.63-10-25.63-15-45.83-22.5-68.75-41.04-68.75-55.63 0-4.16 1.05-7.7 3.13-10.62 2.5-2.92 4.37-4.37 5.63-4.38.41 0 .62.42.62 1.25l-1.25 1.25c1.67.42 2.5 1.05 2.5 1.88 0-.42-1.25 0-3.75 1.25-2.08 1.25-3.33 2.3-3.75 3.13l.63 1.25c2.5-.84 3.54-1.25 3.12-1.25 1.67 0 4.8 1.87 9.38 5.62 1.66 1.67 3.12 2.5 4.37 2.5.83 0 2.92-1.04 6.25-3.13a7.33 7.33 0 0 0-1.25-1.87l-1.25-2.5c0-.42.2-.83.63-1.25l3.12-1.25c2.08-1.25 3.12-3.54 3.13-6.88 0-2.91-.84-4.37-2.5-4.37-.42 0-1.25.42-2.5 1.25s-2.71 1.25-4.38 1.25h-1.25l-11.88-1.25c-10.41-.42-15.62 6.88-15.62 21.88l-5-1.25h-2.5l-1.87 1.87c.41.83.83 2.08 1.25 3.75.41 1.25.83 2.92 1.25 5 1.66 12.92 8.74 21.04 21.25 24.38 5.83 1.25 8.74 3.54 8.75 6.87 0 2.5-1.05 3.75-3.13 3.75-1.25 0-2.92-1.04-5-3.13-2.08-2.08-4.17-3.12-6.25-3.12-.83 0-5.2 1.67-13.12 5l1.87 2.5 3.13 2.5c.83.83 1.25 1.46 1.25 1.88 0 .83-.63 1.45-1.88 1.87l-3.12 1.25c-.84.83-4.59 5.83-11.25 15 7.08 2.92 12.5 4.38 16.25 4.38 1.66 0 3.74-.42 6.25-1.25 2.5-1.25 4.16-1.88 5-1.88 1.66 0 2.5.83 2.5 2.5s-.21 2.7-.63 3.13l4.38.62c2.08 0 5.83-1.46 11.25-4.38l16.25-8.12a18.6 18.6 0 0 1 9.37-2.5c2.08 0 3.12.63 3.13 1.88 0 1.66-2.09 3.12-6.25 4.37l-8.75 2.5c-10.84 3.33-16.88 10.2-18.13 20.63l4.38.62c.83 12.08 5 18.13 12.5 18.13 2.91 0 5.83-1.46 8.75-4.38-6.26-1.67-9.38-5.2-9.38-10.63 0-12.08 9.37-18.12 28.13-18.12 15 0 28.75 5.63 41.25 16.88 12.91 11.25 22.08 25.83 27.5 43.75m-105-111.88 16.25 8.75c4.58-3.34 8.95-5 13.12-5h143.12c8.33 0 14.17 3.54 17.5 10.62l24.38 53.75 5-1.25 7.5.63 6.87-.63 4.38-.63 1.87-.62c2.5 0 3.75 2.08 3.75 6.25s-1.25 8.13-3.75 11.88c3.75 4.58 5.62 9.37 5.63 14.37 0 5-3.13 11.25-9.38 18.75a48.68 48.68 0 0 1 5.63 23.13c0 7.91-8.34 13.33-25 16.25l-7.5 1.25c-3.34.83-5 1.87-5 3.12 0 1.67 2.08 2.5 6.25 2.5l16.25.63h6.25c2.91-.42 6.45-.84 10.62-1.25 5.83-.42 11.04-.63 15.63-.63 4.58-.42 8.33-.63 11.25-.63l13.75.63 32.5 1.88h10.62c7.92.41 11.88-.42 11.88-2.5 0-2.92-6.26-5-18.75-6.25-19.59-2.09-34.17-13.75-43.75-35l-155.63-340c-3.33-6.25-6.04-9.38-8.12-9.38-2.5 0-5.2 3.33-8.13 10l-105 219.38m-24.37 53.75-26.88 59.38c-6.25 13.75-12.7 23.54-19.37 29.37-6.25 5.83-15.83 10.63-28.75 14.38l-5.62 1.87c-2.5.83-3.76 1.67-3.75 2.5 0 2.08 3.33 3.13 10 3.13 2.5 0 8.54-.63 18.12-1.88a129 129 0 0 1 16.88-1.25c5-.42 9.37-.42 13.12 0h13.13l30 2.5c4.16 0 9.16-1.25 15-3.75a48.61 48.61 0 0 0-6.25-2.5 47.72 47.72 0 0 0-10-1.88c-19.17-1.25-28.75-8.95-28.75-23.12 0-9.17 8.54-29.8 25.62-61.88a43.26 43.26 0 0 0-1.25-5v-2.5c0-1.66.83-3.95 2.5-6.87l-2.5-.63-3.13.63-.62.63-7.5-3.13m208.12-43.13a12.72 12.72 0 0 0-9.38-3.75H313.73c-5 0-8.96 1.25-11.88 3.75l2.5 1.25 2.5-1.25h158.12m115 132.5-6.25-10c-2.08-3.74-4.17-7.7-6.25-11.87L408.08 172.26l-6.87-2.5c2.08 2.92 3.33 5 3.75 6.25.83 1.25 2.29 4.38 4.37 9.38l151.88 330c5.42 12.08 11.67 20.41 18.75 25m-305.62-66.25-.62-3.75-.63-1.88-3.12 3.75-15.63 32.5c-5 10.83-7.5 18.96-7.5 24.38 0 4.16 2.5 8.95 7.5 14.37a38.38 38.38 0 0 1-2.5-13.13c0-4.16 1.04-8.95 3.13-14.37l19.37-41.88m348.75 86.88c-5.83 2.5-10.2 3.75-13.13 3.75h-5c-2.08-.42-4.79-.83-8.12-1.25-1.25-.42-6.67-.63-16.25-.63l-35.63-.62h-16.25c-2.08 0-4.79.2-8.12.63-4.17.41-7.92.83-11.25 1.25h-8.75a50.1 50.1 0 0 1-14.37-1.88c1.66 3.75 5 5.63 10 5.63h8.75c1.66 0 3.33-.21 5-.63 18.75-1.25 31.45-1.88 38.12-1.88h15c2.92 0 6.46.21 10.63.63l23.12 1.25c2.08.42 3.96.63 5.63.63h8.75c7.08 0 11.04-1.25 11.87-3.75l.63-.63-.63-2.5m-332.5-1.88c-2.92 2.92-8.96 4.38-18.12 4.38h-10.63c-4.17-.42-8.75-.63-13.75-.63-4.58-.41-9.17-.62-13.75-.62-4.17-.42-7.5-.63-10-.63h-8.12c-3.34 0-5.63.21-6.88.63l-20 1.88h-11.25a71.57 71.57 0 0 0-6.87-1.25c2.08 3.33 6.66 5 13.75 5h7.5l8.12-1.25c.83-.42 2.92-.63 6.25-.63h5.63c2.08 0 4.16-.2 6.25-.63h18.75l19.37 1.88 13.75.63 6.88-.63 8.75-1.25c4.16-.42 6.24-1.88 6.25-4.38 0-.83-.63-1.66-1.88-2.5m333.12-311.25c1.67 3.76 1.87 5.63.63 5.63l-1.25-1.25c0-.42-.21-.83-.63-1.25.83 2.5 1.25 1.46 1.25-3.13 0 1.25-.42 1.88-1.25 1.88-.83 0-1.46-.83-1.88-2.5-.83-1.67-.83-2.92 0-3.75 2.09-1.25 3.13.2 3.13 4.38m-51.88-29.38c-.83 2.08-1.04 3.54-.62 4.38-.42 0-.83.2-1.25.62h-6.88a40.79 40.79 0 0 0 4.38-2.5c1.25-.83 2.7-1.67 4.38-2.5m-13.75 47.5-7.5-8.75-6.25-10-5.63-7.5-3.75-6.88a83.82 83.82 0 0 1 23.13 33.13m-13.75-34.38c-5.42-2.08-10-3.12-13.75-3.12-2.92 0-5.84.63-8.75 1.88 1.66-5.42 4.58-8.13 8.75-8.13 4.58 0 9.16 3.13 13.75 9.38m-78.13-41.88c.42-5 1.67-7.5 3.75-7.5.42 0 .63.42.63 1.25 0 2.5-2.71 8.33-8.13 17.5v-3.75c0-1.67 1.25-4.17 3.75-7.5m5-20.63c-.83-.41-.2-1.66 1.88-3.75h-2.5a68.95 68.95 0 0 0-7.5-1.25c.83-.41 2.5-.62 5-.62 1.25 0 2.29 1.88 3.12 5.63m-16.87 10c0 2.5 1.25 4.37 3.75 5.62-.42.42-3.96 1.25-10.63 2.5l3.75-3.75c1.25-1.25 2.3-2.7 3.13-4.38m-111.25 11.88c0 1.25.83 3.96 2.5 8.13 1.66 4.16 2.5 6.66 2.5 7.5 0 1.66-.63 2.5-1.88 2.5-3.75 0-5.63-.84-5.62-2.5 0-1.67.2-2.92.62-3.75l.63-5c.41-.42.62-1.46.62-3.13s.2-2.92.63-3.75m-50.63 31.88c1.25-.42 2.92-.63 5-.63 2.92 0 6.04.83 9.38 2.5-1.25.42-3.34.63-6.25.63-2.5 0-5.21-.84-8.13-2.5m-16.87-13.13c-.84.42-2.71.63-5.63.63-2.5 0-4.58-1.88-6.25-5.63 2.92.42 5 .83 6.25 1.25h2.5c.42.42.83 1.04 1.25 1.88l1.88 1.87m266.25-13.13c-3.34-1.66-7.09-5.2-11.25-10.62 2.5 1.25 5 2.7 7.5 4.38 2.5 1.66 3.74 3.75 3.75 6.25m-53.13 30c-.42.41-1.04 1.45-1.87 3.12-.42 1.25-1.46 3.13-3.13 5.63-.42-.84-.62-2.3-.62-4.38 0-1.67 1.87-3.12 5.62-4.38m-300-25-3.75 1.88-.62.63c-3.34 0-5.21-2.5-5.63-7.5a55.94 55.94 0 0 0 10 5m133.75 50.62c-.83.83-1.25 1.46-1.25 1.88.42.41.63.83.63 1.25h-5.63c-1.67 0-3.96-1.88-6.87-5.63 3.33 1.67 7.7 2.5 13.12 2.5m19.38-6.25c.41.83.62 2.92.62 6.25 0 .83-3.13 1.46-9.37 1.88 3.33-3.75 6.24-6.46 8.75-8.13m-38.75 34.38c-3.76 3.75-6.67 5.62-8.75 5.62-.42 0-3.13-1.04-8.13-3.13 4.58-1.66 10.2-2.5 16.88-2.5m-18.13-10.62h-5.62c-4.59-.83-6.88-3.12-6.88-6.88l.63-2.5a30.4 30.4 0 0 1 4.37 3.75c2.08 1.67 4.58 3.55 7.5 5.63m43.75 1.88c0 3.75-.2 6.25-.62 7.5l-3.13 1.25a76.8 76.8 0 0 0-7.5 2.5c2.5-4.17 6.25-7.92 11.25-11.25m-85-43.75c1.25 3.33 1.87 5.41 1.88 6.25v6.25c.41.83.83 1.04 1.25.62.41-.42.62-1.04.62-1.88.42-1.25.63-2.29.63-3.12 0-4.17-1.67-2.3-5 5.63a19.4 19.4 0 0 0-1.25-3.75v-2.5c0-1.67.62-4.17 1.87-7.5m-16.87 50c-3.76-2.5-7.3-6.05-10.63-10.63 7.08 4.58 10.63 8.13 10.63 10.63m15 159.38c12.08-9.59 21.45-14.8 28.12-15.63l14.38-2.5c1.25-.42 3.54-.63 6.87-.63 3.75 0 5.62.63 5.63 1.88 0 2.08-5.84 3.33-17.5 3.75-5 0-14.59 3.13-28.75 9.38l-8.75 3.75m43.75-21.25-5 1.25h-5.63c-2.08 0-3.13-.84-3.12-2.5 0-1.25.62-1.88 1.87-1.88.83 0 2.08.42 3.75 1.25 2.08.42 4.8 1.04 8.13 1.88m51.25 23.12-12.5.63-6.88-.63h-5.62c-1.67 0-2.5-1.04-2.5-3.13 0-1.66 1.04-2.5 3.12-2.5l13.13 2.5 11.25 3.13m-161.88 61.25c.83 2.08 1.87 5 3.12 8.75a113.7 113.7 0 0 1 5 11.88c1.67 1.25 3.54 3.54 5.63 6.87-9.59-12.08-14.38-19.17-14.38-21.25l.63-6.25m137.5-31.88c1.25 5.42 2.5 10.42 3.75 15a87.41 87.41 0 0 0 4.37 12.5c4.58 12.92 6.87 22.71 6.88 29.38 0 31.67-11.05 51.67-33.13 60l4.38-4.38 8.75-6.87c11.25-10 16.87-26.04 16.87-48.13 0-9.16-2.08-18.33-6.25-27.5-3.75-9.16-5.63-17.7-5.62-25.62v-4.38m-.63 91.88c.42-1.25.63-2.92.63-5v-4.38l-.63-5c0-1.25.83-2.29 2.5-3.12 2.08-1.25 2.5-1.88 1.25-1.88 1.67 0 2.5 1.25 2.5 3.75s-2.08 7.71-6.25 15.63m-5.62-13.13c-2.09-.41-4.8-2.29-8.13-5.62 2.5.83 5.2 2.7 8.13 5.63m-3.75-14.38-6.25-3.13-6.88-3.75-5.62-2.5h1.25c8.33 0 14.16 3.13 17.5 9.38m6.25-20.63v-2.5c-4.17-3.74-6.26-5-6.25-3.75l.62-3.12 5.63 9.38m30 15a21.29 21.29 0 0 1-2.5 5.62 62.52 62.52 0 0 1-3.75 7.5c0-5.83 2.08-10.2 6.25-13.13m83.12 45.63c5.42-1.67 10-2.5 13.75-2.5.83 0 1.87.2 3.13.63 1.66 0 3.54.2 5.62.62l-5 1.25a96.69 96.69 0 0 0-5 1.88c-2.92 0-7.08-.63-12.5-1.88m-11.87-3.13v.63c-4.17 0-6.26-2.3-6.25-6.88a7.09 7.09 0 0 1 2.5 2.5l3.75 3.75m-35 1.25a40.77 40.77 0 0 1 3.75-4.37 46.9 46.9 0 0 1 4.37-5c-1.25 4.58-3.96 7.7-8.12 9.38m43.12-35.63c1.25 2.5 1.87 4.17 1.88 5l1.25 3.75c.83 1.25.62 2.7-.63 4.38-.42-.84-.83-2.3-1.25-4.38-.42-2.5-.83-5.42-1.25-8.75m-43.75-.63c.83 1.25 1.87 2.92 3.13 5 1.25 1.67 2.29 3.96 3.12 6.88-.83-1.25-2.3-2.5-4.37-3.75-2.09-1.25-3.13-2.08-3.13-2.5 0 .42.42-1.46 1.25-5.63m17.5-7.5c-.42-.83-.62-2.7-.62-5.62l2.5-1.88 7.5-7.5c-2.5 3.34-5.63 8.34-9.38 15m50-75.62c.42-2.08 2.7-5.62 6.88-10.63a32.76 32.76 0 0 1 5.62-3.75 36.63 36.63 0 0 0 3.75-3.12c4.17-3.75 7.5-5.62 10-5.63.83 0 1.25.21 1.25.63 0 1.25-2.08 2.7-6.25 4.38-2.08.83-6.46 3.95-13.12 9.37a37.7 37.7 0 0 0-2.5 3.13l-5.63 5.62m64.38 43.75.62-.63c0-.41.2-.83.63-1.25.83.84 1.87 2.71 3.12 5.63 1.25 2.5 1.87 4.17 1.88 5-1.25-.42-3.13-2.92-5.63-7.5-2.08-3.33-3.13-5.42-3.12-6.25 0-1.25.2-1.87.62-1.88 2.92 0 4.37 2.5 4.38 7.5 0 2.09-.42 1.88-1.25-.62-.84-.83-1.25-.83-1.25 0m8.75 2.5c-.42-.42-.63-1.67-.63-3.75 0-2.5-.2-4.58-.63-6.25 1.67 1.67 2.5 3.33 2.5 5l-1.25 5m45-71.88-6.25-2.5a24.49 24.49 0 0 0-5.62-3.12c4.17-.83 6.04-1.25 5.63-1.25 5 0 7.5.42 7.5 1.25l-.63.63c0 .41-.2 1.04-.63 1.87-.83.83-.83 1.88 0 3.13m61.88 67.5c.42 3.33 1.04 7.08 1.88 11.25v2.5c.41 3.75-.84 5.62-3.75 5.62 2.08 0 3.12-.83 3.12-2.5l-1.88-2.5c-1.25-2.08-1.45-3.96-.62-5.63a36.75 36.75 0 0 0 1.25-8.75m-70-93.75-3.75 5.63-10.63-1.88c5-.41 9.8-1.66 14.38-3.75m-153.75-150 54.38 121.25c1.25 2.5 1.87 4.17 1.87 5 0 5-3.54 7.5-10.62 7.5l-120.62-.62c-6.26 0-9.38-2.08-9.38-6.25l1.25-5 58.75-123.75c3.33-7.08 6.87-10.63 10.63-10.63 4.58 0 9.16 4.17 13.75 12.5m-8.13 18.75c-1.25 0-1.88 1.05-1.87 3.13 0 1.67.83 2.5 2.5 2.5 2.08 0 3.12-.83 3.12-2.5 0-2.08-1.25-3.12-3.75-3.13m-7.5 0c-.83.84-1.25 1.46-1.25 1.88 0 1.25.42 1.88 1.25 1.88.42 0 1.04-.42 1.88-1.25 0-1.67-.63-2.5-1.88-2.5m-2.5 6.87c-1.25 0-1.88.63-1.87 1.88 0 1.25.62 1.87 1.87 1.87 1.67 0 2.5-.42 2.5-1.25 0-1.67-.83-2.5-2.5-2.5m-6.87 2.5c-1.25 0-1.88.63-1.88 1.88 0 .83.42 1.25 1.25 1.25 1.25 0 1.87-.42 1.88-1.25 0-1.25-.42-1.88-1.25-1.88m5 3.75c-1.25 0-1.88.63-1.88 1.88.83.83 1.46 1.25 1.88 1.25 1.25 0 1.87-.42 1.87-1.25 0-1.25-.62-1.88-1.87-1.88m6.87 3.13c-1.67 0-2.5 1.04-2.5 3.12 0 1.67.63 2.5 1.88 2.5 1.66 0 2.5-1.04 2.5-3.13 0-1.66-.63-2.5-1.88-2.5m-13.12 16.88c.41-5 2.5-7.5 6.25-7.5 3.74 0 5.62 3.13 5.62 9.38 0 2.91-.2 4.79-.62 5.62 2.91-1.25 4.37-3.75 4.37-7.5 0-7.5-3.13-11.25-9.37-11.25-5.84 0-8.76 2.08-8.75 6.25 0 1.67.83 3.33 2.5 5m-16.25 40c0-6.67-1.25-12.3-3.75-16.88l-1.25 1.25-.63 4.38-.62 1.88-1.25.62c-.84.83-1.25 1.67-1.25 2.5 0 2.92 1.66 5 5 6.25.41-1.25 1.04-1.87 1.87-1.88.42 0 1.04.63 1.88 1.88m45-38.13c3.74-3.74 6.87-5.62 9.37-5.62 2.5 0 3.75 1.25 3.75 3.75 0 .83-1.04 2.3-3.12 4.38 3.33-.84 5-2.71 5-5.63 0-4.17-2.09-6.25-6.25-6.25-2.92 0-5.84 3.13-8.75 9.38m14.37 37.5-1.25 3.75 2.5.62 3.13-3.13c.41 0 .62.42.62 1.25l-.62 1.25c.41.42.62.84.62 1.25.83-.41 2.08-.83 3.75-1.25 1.67-.41 2.5-1.04 2.5-1.87v-1.88l-2.5-2.5c0-.83.63-1.87 1.88-3.12 1.25-1.67 1.87-2.92 1.87-3.75 0-.83-.2-1.25-.62-1.25-6.26 0-9.8 2.3-10.63 6.88l-1.25 3.75m-25-29.38c5.42 0 8.12-5.62 8.13-16.88 0-11.25-2.92-16.87-8.75-16.87-1.25 0-1.88.63-1.88 1.88 0 .83.2 1.45.63 1.87l3.75 1.25c2.08.83 3.12 4.38 3.12 10.63 0 4.16-1.67 10.2-5 18.12m30.63 2.5c-3.34-1.25-5.63-1.87-6.88-1.88-2.92 0-6.04 2.92-9.37 8.75-.42 1.67-1.25 2.5-2.5 2.5l-.63-1.25c0-.83-.42-2.08-1.25-3.75-.42-1.66-1.67-2.5-3.75-2.5-5.42 0-8.13 4.8-8.12 14.38v3.13c.41 1.25.83 2.91 1.25 5l.62 4.37c0 4.17-1.46 6.25-4.37 6.25-2.92 0-4.38-1.25-4.38-3.75 0-1.67.63-3.75 1.88-6.25 1.25-2.92 1.87-5 1.87-6.25l-.62-1.25-1.88-1.25v-2.5l2.5-4.38c.83-2.5 1.25-3.95 1.25-4.37 0-2.5-.2-4.17-.62-5h-2.5l-2.5 1.25-2.5-.63c-.42 0-1.25.21-2.5.63-.84.42-1.46.63-1.88.63-1.25 0-2.08-1.25-2.5-3.75-.42-4.17-2.5-6.88-6.25-8.13h-4.37c2.91 4.17 4.37 7.5 4.37 10 0 2.08-1.04 5.63-3.12 10.63-1.67 5-2.5 8.95-2.5 11.87 0 5.83 2.29 11.04 6.87 15.63a26.5 26.5 0 0 0 17.5 6.25c18.75 0 28.13-8.55 28.13-25.63 0-7.92 2.91-14.17 8.75-18.75m-9.38 35c.42.42.63 1.25.63 2.5 0 1.67-1.05 2.5-3.13 2.5h-1.25c1.25.83 1.87 1.67 1.88 2.5 0 1.25-.42 1.88-1.25 1.88h-.63l-2.5-.63-2.5 1.25c2.08 6.25 5.42 8.96 10 8.13h3.75c2.92-.84 4.58-1.46 5-1.88l1.25-1.88-2.5-1.25c-.42-.41-.62-1.04-.62-1.87a447.4 447.4 0 0 0 6.87-5.63l7.5-6.25-7.5.63h-15m-11.25 22.5c.83-3.33 1.25-4.8 1.25-4.38 0-2.91-2.08-5-6.25-6.25-.83 2.09-1.67 3.13-2.5 3.13-.42 0-1.25-.42-2.5-1.25-.83-.83-1.46-1.25-1.87-1.25-.42.42-.63.83-.63 1.25l-.62.63-.63 1.25v.62l1.25 3.13-1.25 1.25-1.25-1.25c0-.42-.2-.84-.62-1.25l-.63-2.5c-.42-1.67-1.88-2.5-4.37-2.5 0 1.66-.63 2.5-1.88 2.5l-.62-.63-2.5-3.13c-.84-.83-1.46-1.25-1.88-1.25-3.75 0-5.63 2.71-5.62 8.13 0 4.58 1.87 6.88 5.62 6.88h1.25l1.25-1.25c.83.83 1.87 1.66 3.13 2.5 1.25.41 2.7 1.04 4.37 1.87.42.42 1.67.63 3.75.63 4.17 0 6.67-1.67 7.5-5l.63-1.88c.41-.42 1.04-.63 1.87-.63 2.08 0 3.33.21 3.75.63m-33.12-13.75-1.88.63c-2.08 0-3.13-.42-3.12-1.25 0-.84.2-1.46.62-1.88l-3.75-1.25h-1.87c-.84 0-1.25-.42-1.25-1.25.41-.42 1.87-1.04 4.37-1.88-2.08-2.5-5.42-4.16-10-5l-6.87-1.87-3.13 1.88 3.13 3.12.62 3.75a9.72 9.72 0 0 0 1.88 2.5c1.25.42 1.87.83 1.87 1.25 0 .83-.42 1.25-1.25 1.25l-2.5 1.88c0 3.75 1.87 5.83 5.63 6.25h1.87c9.17 0 14.38-2.71 15.63-8.13m18.12-116.88c-3.33.83-5.83 2.7-7.5 5.63l-60 125.62c-.42.41-.62 1.66-.62 3.75 0 2.5 1.25 3.75 3.75 3.75h.62v-2.5c0 .41.42-1.05 1.25-4.38L384.96 241m16.25 94.38 5 3.12c0 10.83-4.17 15.83-12.5 15l-2.5-.63c4.58-4.58 7.92-10.41 10-17.5m-11.25 17.5c-2.08 1.25-5 1.88-8.75 1.88-1.25 0-2.5-.63-3.75-1.88a8.72 8.72 0 0 1 3.75-.62c5 0 7.92.2 8.75.63M378.09 351c-8.76 0-13.13-3.96-13.13-11.88 0-1.66 1.04-4.16 3.13-7.5v6.88c0 1.67 1.04 3.54 3.12 5.63l6.88 6.87" transform="translate(-146.86 -119.79)"/>
</svg>
