<svg xmlns="http://www.w3.org/2000/svg" viewBox="0 0 500 500">
    <path d="M146.86 619.79v-500h500v500h-500m7.5-7.5h485v-485h-485v485m7.5-7.5V135.41h469.38v469.38H161.86m271.88-448.12.63-1.88c.41.42 1.25.63 2.5.63 1.66 0 3.95-1.46 6.87-4.38l-6.88 1.25-5.62 2.5c-3.33 1.25-6.25 1.88-8.75 1.88h-3.75c-1.67 0-3.13-.2-4.38-.63l-.62-1.87h6.88c5.83 0 8.74-2.08 8.75-6.25 0-5.42-5-8.12-15-8.13-7.09 0-11.46 1.25-13.13 3.75l-4.38 5.63-3.12 4.37.63 1.88 10.62-10c1.67-1.67 4.58-2.5 8.75-2.5 6.67 0 10 1.67 10 5 0 1.67-1.04 2.5-3.13 2.5H410c-1.67 0-2.5.83-2.5 2.5 0 5.83 3.33 8.75 10 8.75.83 0 6.25-1.67 16.25-5m43.75-4.38 2.5 3.13c1.67-6.25 4.37-9.37 8.13-9.38 7.5 0 11.04 3.96 10.62 11.88v2.5l5 .62c6.67.42 10-2.7 10-9.37 0-.83-.83-2.7-2.5-5.63-1.25-3.33-1.67-5-1.25-5h-2.5l-1.88 3.75h-1.87l-4.38-3.75c-.41-.41-2.5-.62-6.25-.62-10.41 0-15.62 3.54-15.62 10.62v1.25m-281.88 21.88 5-4.38 3.75-5.62 3.75-1.25a9.75 9.75 0 0 0 2.5-1.88c.83-.83 2.08-1.66 3.75-2.5 10-8.74 24.38-13.12 43.13-13.12 7.5 0 14.79 1.46 21.87 4.37 1.25-2.91 1.87-4.79 1.88-5.62 0-1.67-5.21-2.7-15.63-3.13l-12.5-.62c-7.5-.83-19.17 2.3-35 9.37a41.1 41.1 0 0 0-4.38 2.5 7.86 7.86 0 0 0-3.12 1.88l-8.75 6.87c-4.58 3.34-6.88 6.05-6.88 8.13l.63 5m377.5-33.13c1.25.42 2.5.63 3.75.63 1.67 0 2.7.2 3.13.62 7.08.84 11.25 1.46 12.5 1.88l20 6.87c4.16.84 6.45 1.25 6.87 1.25 4.58 0 6.87-2.29 6.88-6.87 0-1.25-1.05-2.3-3.13-3.13l1.25 1.25-1.88-.62c-1.25 1.67-2.5 2.5-3.75 2.5l-4.37-.63h-5.63c-1.66-.41-3.54-.83-5.62-1.25-4.58-.83-8.13-1.45-10.63-1.87l-3.75-1.25-15.62.62m-273.75 8.75c1.25-1.25 2.3-1.87 3.13-1.87.41 0 1.66.42 3.75 1.25 2.08.42 3.74.62 5 .62 2.5 0 6.87-1.25 13.12-3.75-5.42-.83-8.96-1.45-10.63-1.87l-9.37-1.88c-2.08-.83-3.54-1.25-4.38-1.25-6.66 0-10 2.71-10 8.13 0 1.25.42 2.3 1.25 3.12l3.75 3.75 1.88 4.38 1.88.62c2.91 0 4.37-1.45 4.37-4.37 0-2.08-1.25-4.37-3.75-6.88m-101.88-8.75c1.67 1.67 2.5 4.17 2.5 7.5 0 5-1.25 8.34-3.75 10-2.08 1.67-3.12 2.71-3.12 3.13v1.25c7.08-6.25 10.62-11.25 10.62-15 0-4.17-2.08-6.46-6.25-6.88m130 9.38c6.25 6.67 15.83 10 28.75 10 5.83 0 12.92-3.54 21.25-10.63 1.25-.41 2.92-1.66 5-3.75-1.25-.41-2.3-.62-3.13-.62l-.62-.63c-1.67 0-3.96.63-6.88 1.88-2.08-3.75-4.58-5.62-7.5-5.63h-1.87l-3.75 1.88 3.75 4.37v1.25c0 5.42-5.63 8.13-16.88 8.13-2.08 0-6.25-1.25-12.5-3.75a5.56 5.56 0 0 0-2.5-.63 30.06 30.06 0 0 1-3.12-1.87m200.62-9.38v1.88l-15 16.87h3.13c1.25-2.08 3.95-4.58 8.12-7.5 3.75-2.08 5.83-5.41 6.25-10l-2.5-1.25m-238.75.63h-.63l-1.25-.63c-3.33 0-5 2.5-5 7.5 0 2.92 1.05 4.38 3.13 4.38.42 0 1.04-.42 1.88-1.25v-6.25l1.87-3.75m300 59.37c-2.5-6.66-6.67-10-12.5-10-7.92 0-12.92 6.05-15 18.13-2.08-.83-3.13-2.5-3.13-5v-2.5c.42-2.08.63-3.75.63-5 .42-1.67.63-2.92.63-3.75 0-16.25-4.8-24.38-14.38-24.38-2.08 0-3.13.84-3.13 2.5l1.88 3.75c1.67 2.5 2.5 5 2.5 7.5v1.25l-1.88 20c-.41 10.84 3.13 19.8 10.63 26.88 7.92 7.08 17.92 10.62 30 10.62 12.5 0 22.5-3.95 30-11.87 7.92-7.92 11.88-18.13 11.88-30.63 0-15.41-6.05-28.33-18.13-38.75-12.08-10.83-26.88-16.25-44.38-16.25-15 0-28.33 3.96-40 11.88-2.5 2.08-3.75 3.54-3.75 4.37 0 1.25.84 1.67 2.5 1.25h.63c2.5 0 3.96-.2 4.38-.62l13.12-6.88c4.17-2.5 11.88-3.74 23.13-3.75 16.66 0 30 4.38 40 13.13 10.41 8.33 15.62 19.58 15.62 33.75 0 8.75-3.33 16.67-10 23.75-6.67 6.67-14.38 10-23.13 10-10.41 0-15.62-5-15.62-15 0-9.58 5.2-14.38 15.63-14.38h1.87m-423.12-51.87c6.25 2.92 8.96 7.5 8.13 13.75l-6.88 63.12 1.25 11.25c2.92 27.5 13.75 50 32.5 67.5l13.75 12.5c4.17 3.76 7.08 5.63 8.75 5.63h2.5c.83-.42 2.08-.83 3.75-1.25l-5-5-10.62-9.38-3.75-4.37c-19.17-19.17-28.34-39.17-27.5-60v-1.25l1.25-18.75a58.03 58.03 0 0 1 1.87-6.88c1.25-2.5 2.7-5.2 4.38-8.12l3.75-5.63c5-8.33 11.66-12.08 20-11.25h.62c.83 0 1.67.21 2.5.63 1.25 0 2.7.2 4.38.62-2.5-5.41-5.84-8.12-10-8.12h-5c-1.67 0-2.71-.63-3.13-1.88l2.5-5.62c-11.25 2.5-18.12 7.92-20.62 16.25l-3.75 11.25c-.84.83-1.46 1.25-1.88 1.25-1.25 0-1.87-.63-1.87-1.88l1.25-3.75 8.75-23.12c.83-3.33 1.25-5.2 1.25-5.63 0-2.08-.21-3.33-.63-3.75l-1.25-6.87-3.75 4.37-2.5-1.25v-9.37c0-5.42-3.54-8.12-10.62-8.13l-1.25.63-3.13 2.5m73.75 2.5c6.25 0 10 1.04 11.25 3.12l2.5 4.38 1.25.62c2.08 0 3.12-1.25 3.13-3.75 0-4.58-3.34-6.87-10-6.87-1.67 0-2.71.2-3.13.62l-5 1.88m216.25-.63c7.08 4.17 11.67 11.25 13.75 21.25v3.13c.42.83.83 2.08 1.25 3.75v6.87c-.42 2.09-.83 3.96-1.25 5.63v2.5c0 1.25.83 1.88 2.5 1.87 1.67 0 2.5-1.25 2.5-3.75v-.62l-.63-11.88c-.41-12.5-4.37-21.66-11.87-27.5a6 6 0 0 0-4.38-1.87l-1.87.62m-138.12 3.13c2.92 4.17 5.62 6.25 8.13 6.25 1.25 0 1.87-.42 1.87-1.25 0-.83-.2-1.25-.63-1.25l-3.12-3.75-2.5-1.25-3.75 1.25m244.38-.63 4.38 1.25 8.75 1.25 5.62 3.13c5.83 2.08 8.96 6.25 9.38 12.5-1.25 4.58-3.13 6.88-5.63 6.87-2.92 0-5.2-2.5-6.88-7.5a7.77 7.77 0 0 0-2.5 5.63c0 7.92 4.17 11.87 12.5 11.87 2.92 0 4.8-.41 5.63-1.25l6.25-6.25 4.38 5.63c.83-.83 1.25-2.92 1.25-6.25l1.87-5.63c-5.42-15.41-18.54-22.7-39.38-21.87h-.62l-5 .62m-252.5 1.25c2.08 3.34 5.2 5 9.38 5-2.09-3.74-3.96-5.62-5.63-5.62h-1.88l-1.87.62m-30 86.88c.42 3.75 5 5.63 13.75 5.62 13.75 0 20.63-2.08 20.63-6.25 0-2.5-.21-4.37-.63-5.62l-.63-3.75.63-16.88v-6.87a28.92 28.92 0 0 1-.63-5.63v-5.62c0-10.42 4.17-15.63 12.5-15.63l141.25-.62-3.12-15H263.12c-.42.42-3.54.2-9.38-.63l-9.37-.62-18.13-.63c-7.5-.41-11.25 1.05-11.25 4.38 0 2.5 4.59 4.38 13.75 5.62 27.09 3.76 42.5 13.55 46.25 29.38l1.88 9.37 1.88 4.38c.41.42.62 4.17.62 11.25V237.29c0 1.25.2 2.71.63 4.38m231.25-76.25-3.75.62h-31.88l3.13 16.25c16.25.84 27.5 5.21 33.75 13.13 5.41 5.42 10 17.5 13.75 36.25 4.16-.83 5.83-3.75 5-8.75v-5.63c-.42-3.33-1.05-7.7-1.88-13.12a186.7 186.7 0 0 0-4.38-20.63 18.92 18.92 0 0 1-1.25-9.37v-1.88c-.41-1.25-1.04-3.54-1.87-6.87H511.24m14.38 0c2.08 17.92 3.96 31.04 5.63 39.37 2.08 8.34 3.12 14.59 3.12 18.75 0 4.17-2.3 7.92-6.88 11.25 3.34.84 4.8 1.25 4.38 1.25 4.58 0 6.87-4.58 6.88-13.75 0-2.5-.21-4.16-.63-5l-6.25-28.12-1.88-15.63c-.41-3.74-1.87-6.45-4.37-8.12m-313.75 5c.83 3.75 2.5 6.25 5 7.5s9.17 2.92 20 5c11.67 1.67 21.46 5.83 29.38 12.5-.84-1.67-4.59-5.2-11.25-10.63a176.8 176.8 0 0 1-18.75-5.62c-7.09-2.5-15.21-5.42-24.38-8.75m355 10c-1.25 0-2.08.83-2.5 2.5l-.63 1.25c0 2.5 1.67 3.75 5 3.75 2.5 0 3.75-1.04 3.75-3.13 0-2.91-1.87-4.37-5.62-4.37m-141.88 2.5-92.5.62c-8.75 0-13.75 2.3-15 6.88-.42.83-.63 3.75-.63 8.75v31.25l1.25 10 4.38-4.38-.63-10V207.3c-.41-7.5 0-12.29 1.25-14.37 1.67-2.5 4.38-3.75 8.13-3.75h135.63v-6.25h-41.88m53.75 2.5v3.12c0 1.25 3.75 1.88 11.25 1.88 1.67.42 3.54.83 5.63 1.25 2.5.42 5.41.83 8.75 1.25-5.42-4.17-13.96-6.67-25.63-7.5m-138.75 7.5c2.5 7.08 3.75 13.12 3.75 18.12 0 1.67-.42 4.17-1.25 7.5l-13.13 43.75c-.41.84-.62 2.5-.62 5 0 8.76 4.37 14.38 13.13 16.88l6.25 1.87 6.25 1.88-.63-5c1.25.42 3.33.62 6.25.62 6.67 0 11.67-4.37 15-13.12.42-1.25.83-2.3 1.25-3.13.42-1.25.83-2.29 1.25-3.12h-5c.42-.83.63-2.5.63-5 0-8.33-3.96-12.5-11.88-12.5-5.42 0-9.8 4.8-13.13 14.37l-3.75 1.88c1.25 3.33 2.71 5 4.38 5 2.92 0 4.8-4.8 5.63-14.38 1.66-2.5 3.54-3.74 5.62-3.75 2.08 0 3.96 1.67 5.63 5a17.51 17.51 0 0 1 2.5 8.75c0 9.17-4.8 13.75-14.38 13.75-10.42 0-15.63-4.79-15.63-14.37 0-5.42 1.88-16.67 5.63-33.75.42-2.08.63-3.96.63-5.63.41-1.66.62-2.91.62-3.75v-3.12c-.42-1.25-.63-3.12-.63-5.63v-3.75c0-1.66-.2-3.33-.62-5 0-4.16-1.25-7.29-3.75-9.37m-7.5.62c1.25 9.59 1.87 15 1.88 16.25 0 .42-.63 5.21-1.88 14.38 4.58-7.08 6.87-13.75 6.88-20 0-7.08-1.25-10.63-3.75-10.63h-3.13m12.5.63c6.67 27.92 16.04 43.75 28.13 47.5l13.12 4.37-3.13 6.88 1.25 1.87v2.5c0 .84 1.67 2.3 5 4.38l19.38 8.75c5 2.08 7.5 5.63 7.5 10.62 0 3.76-.2 6.26-.63 7.5l3.13.63c4.17 0 6.25-2.08 6.25-6.25 0-.83-.2-1.46-.63-1.88l-2.5-6.25 8.13-2.5c1.67-.41 1.25-2.91-1.25-7.5l-.63-1.25c-2.08-3.33-3.95-5-5.62-5l-18.13-.62c-2.5 0-3.75-1.04-3.75-3.13v-.62l2.5-1.88.63-3.12 6.88-.63 4.37-2.5h1.25c1.67 0 2.5.42 2.5 1.25 0 .84-.2 1.25-.63 1.25l-10.62 3.13 2.5 2.5c.83.83 1.67 1.25 2.5 1.25a4.2 4.2 0 0 0 3.75-1.88l3.13-4.37c.41-.42.83-.63 1.25-.63.83 0 1.25.42 1.25 1.25v1.88l13.12-13.13c-3.75-8.74-9.58-13.12-17.5-13.12-1.25 0-3.54.62-6.88 1.87-2.91 1.25-5 1.88-6.25 1.88-1.66 0-2.5-.83-2.5-2.5 0-2.08.63-3.12 1.88-3.13l11.88-.62 7.5-3.75a4.8 4.8 0 0 1 1.87-.63l.63-.62c0-.83-.63-1.67-1.88-2.5l-4.38-1.88 3.75-6.25c.42-.41.63-1.87.63-4.37 0-2.08-1.88-4.8-5.63-8.13-2.08 7.09-4.79 11.25-8.12 12.5l-15.63 6.25c-7.08 3.34-10.62 7.92-10.62 13.75 0 1.25 1.67 4.17 5 8.75l-1.25 2.5-1.88.63H385c-8.33 0-15.2-3.33-20.63-10-9.58-10.42-14.58-20.42-15-30 0-3.75-.62-5.62-1.87-5.63l-2.5.63m30 .62c.42.84.63 2.71.63 5.63 0 4.58-2.71 6.88-8.13 6.87-4.58 0-7.5-1.25-8.75-3.75-3.33-5.41-5.2-8.54-5.63-9.37l-1.87-.63 1.88 8.13c2.5 10.83 8.74 16.25 18.75 16.25 8.33 0 12.5-4.58 12.5-13.75 0-4.17-3.13-7.3-9.38-9.38m110.62 1.25c-1.25 2.5-1.88 4.59-1.88 6.25v6.25l.63 13.13c.42 1.25.63 2.7.63 4.37 0 1.25.2 2.09.62 2.5.83 5.84 2.7 9.38 5.63 10.63a35.43 35.43 0 0 1-1.88-6.25l-1.25-7.5-.63-5.63v-16.25a8.31 8.31 0 0 0 1.88-5c0-.83-1.25-1.66-3.75-2.5m130.62-.62c-3.33 10.83-8.33 16.25-15 16.25-2.08 0-4.38-1.67-6.88-5-5 1.25-7.5 3.33-7.5 6.25 0 5 3.34 7.5 10 7.5 4.17 0 8.55-2.3 13.13-6.88 4.58-5 6.67-9.37 6.25-13.12v-5m-117.5 2.5c-2.08-1.25-3.75-1.87-5-1.88-1.25 0-1.88.42-1.88 1.25l-1.25 5.63v11.87c-.83 20.84 1.88 31.25 8.13 31.25.83 0 1.46-.2 1.88-.62l.62-3.13-3.75-15c-.42-.83-.63-2.7-.63-5.62v-4.38c0-2.5.21-4.37.63-5.62l1.25-13.75m-31.88 1.87c-2.08.84-3.12 1.67-3.12 2.5 0 2.92 1.46 4.38 4.38 4.38 2.08 0 3.12-1.04 3.12-3.13v-.62l-.63-.63c0-.41-.2-.83-.62-1.25l-3.13-1.25m-14.37 3.13c-2.08 2.08-3.13 3.33-3.13 3.75 0 2.08 1.25 3.13 3.75 3.12 2.92 0 4.38-1.45 4.38-4.37 0-.83-.42-1.67-1.25-2.5l-2.5-1.88-1.25 1.88m-247.5 1.87 5 5.63 1.25 11.87 3.75 8.13-8.12 1.87c5.83 11.25 12.91 18.55 21.25 21.88l13.12 5c3.33 1.25 5 2.7 5 4.37 0 2.5-.83 3.96-2.5 4.38l-1.25.62-1.87-1.25-10.63-8.12c-1.67-1.67-3.96-2.5-6.87-2.5H214.98l1.88 5-1.25 1.87-6.25-1.25c-2.09 0-4.38 2.09-6.88 6.25l6.88 2.5 10 8.75 9.37 1.88-5 5c-.42.42-.62 1.04-.62 1.87v.63c.41.42.62.83.62 1.25l1.25 1.25h1.88l8.12-3.13 19.38 1.25c16.66.42 33.75-4.79 51.25-15.62 16.25-11.67 25.83-24.58 28.75-38.75-10.84 22.08-29.59 35.62-56.25 40.62-4.59.84-7.09 1.46-7.5 1.88-3.34.83-4.8 1.25-4.38 1.25-2.08 0-3.13-.83-3.13-2.5s1.46-2.3 4.38-1.88h1.88c2.91 0 9.79-1.87 20.62-5.62h-5c-4.58 0-9.58-1.04-15-3.13l-17.5-10.62c-2.5-1.25-3.75-2.3-3.75-3.13 0-1.66.63-2.5 1.88-2.5h1.25l8.12 6.88c.83.83 2.5 1.46 5 1.87a902.14 902.14 0 0 1 13.13 6.25c2.08.42 5 .63 8.75.63 22.08 0 37.91-12.3 47.5-36.88a20.45 20.45 0 0 1-2.5 3.13 9.84 9.84 0 0 0-1.88 2.5c-9.58 12.5-21.46 18.75-35.63 18.75-15.41 0-23.12-6.25-23.12-18.75 0-3.75.2-6.25.63-7.5l-8.75 3.12c.41-2.08.62-3.74.62-5 .42-1.25.63-2.29.63-3.12 0-3.75-.84-7.08-2.5-10-1.25-2.08-2.3-3.12-3.13-3.13-6.67 0-9.8 4.59-9.38 13.75v4.38l-4.37-1.25-2.5-11.88c-1.25-5.83-3.75-8.74-7.5-8.75-.83.84-1.46 2.71-1.87 5.63-3.34.83-4.38 1.25-3.13 1.25-.83 0-2.3-1.46-4.37-4.38-2.09-3.33-5.42-5-10-5-1.67 0-2.71.21-3.13.63l-7.5 1.87m268.75 4.38c-1.67.42-2.5 1.67-2.5 3.75 0 2.92 1.04 4.38 3.13 4.37 3.74 0 5.62-1.66 5.62-5 0-2.08-1.67-3.12-5-3.12h-1.25m-12.5 0a9.84 9.84 0 0 0-2.5 3.75l-.63 1.25c0 3.33 1.67 5 5 5 2.92 0 4.38-1.46 4.38-4.38 0-3.74-1.88-5.62-5.63-5.62h-.62m41.88 30.62 1.25-1.25c-1.25-3.74-1.88-6.45-1.88-8.12 0-4.58 1.87-7.92 5.63-10l.62-.63.63.63 5 2.5c1.25 0 1.87-.63 1.87-1.88 0-5.83-2.3-8.74-6.88-8.75-5.83 0-8.75 4.38-8.75 13.13 0 5 .84 9.8 2.5 14.37m-53.75-25c-2.5 0-3.75 1.46-3.75 4.38 0 3.75 1.88 5.63 5.63 5.62 2.92 0 4.37-1.87 4.38-5.62 0-2.92-2.09-4.37-6.25-4.38m-15 5c2.91 2.92 4.37 5.42 4.37 7.5 0 1.25-.63 3.34-1.88 6.25 3.34-4.58 5-8.12 5-10.62 0-2.92-1.45-4.37-4.37-4.38h-.63l-2.5 1.25m36.88 10a8.31 8.31 0 0 0 1.88-5c0-2.5-1.67-3.74-5-3.75-2.5 0-3.76 1.25-3.75 3.75 0 2.5 2.29 4.17 6.87 5m-35.63 15.63a46.5 46.5 0 0 0 17.5-7.5c4.17-2.92 6.25-5.2 6.25-6.88v-.62c-.41-1.67-1.04-2.5-1.87-2.5-3.33 0-6.46 1.88-9.38 5.62-3.75 5-6.25 7.92-7.5 8.75a128 128 0 0 1-5 3.13m130.63 61.25h1.25v3.12c0 2.5.83 4.59 2.5 6.25 1.66-1.25 2.5-2.5 2.5-3.75 0-.41-.84-2.29-2.5-5.62-1.25-3.75-1.88-6.87-1.88-9.38 0-6.24 1.87-14.16 5.63-23.75 4.58-9.58 8.54-14.37 11.87-14.37l10.63-6.25 16.25-13.75 6.25-6.88.62-3.75-9.38 9.38-26.87 17.5c-12.5 8.33-18.75 20.62-18.75 36.87 0 2.92.63 7.71 1.88 14.38m-21.25-75.63-3.75 3.13c.41 2.92 1.66 5 3.75 6.25 0-4.58 2.7-7.08 8.12-7.5l-8.13-1.88m-81.87 18.13 1.88 1.25 3.12-2.5c.83-.83 1.46-1.25 1.88-1.25 2.91 0 5.41 1.04 7.5 3.12l18.12 25c2.92 3.76 6.67 5.63 11.25 5.63 7.92 0 11.88-3.54 11.88-10.63 0-2.91-.21-4.79-.63-5.62l-5-10.63v-1.87c0-2.08 1.87-4.8 5.63-8.13l7.5 3.13c.83-.83 1.25-1.67 1.25-2.5 0-4.17-2.92-6.25-8.75-6.25-3.76 0-7.5 1.67-11.25 5-3.34 3.33-5 7.08-5 11.25v2.5l3.12 5-1.25 1.87c0 1.25-.42 1.88-1.25 1.88-1.67 0-2.7-2.08-3.13-6.25-1.25-7.08-6.04-12.92-14.37-17.5a19.8 19.8 0 0 0-10-2.5c-7.92 0-12.08 3.33-12.5 10m98.13-8.75c-1.25.83-1.88 1.67-1.88 2.5 0 1.25 1.04 1.88 3.13 1.87 1.66 0 2.5-.83 2.5-2.5 0-1.25-1.05-1.87-3.13-1.87h-.63m33.13 1.87-2.5.63-10 1.87-12.5 1.25c-1.67 0-2.5.42-2.5 1.25 0 2.09 1.46 3.13 4.38 3.13 2.5 0 3.95-.2 4.37-.63l14.38-5.62 3.75-.63.62-1.25m-39.38 3.75-2.5 6.25h8.75l-6.25-6.25m-125 5.63c1.25-.42 3.55-.63 6.88-.63 12.92 0 19.38 4.59 19.38 13.75 0 5.42-2.5 8.13-7.5 8.13-2.92 0-5-2.3-6.25-6.88l-.63 5c-.83 5 1.67 7.5 7.5 7.5 9.17 0 13.75-5.2 13.75-15.62 0-3.75-1.88-7.08-5.63-10-3.75-3.33-7.7-5-11.87-5-1.25 0-3.13.2-5.63.62-2.08.42-3.54.63-4.37.63h-4.38l-.62.62c0 .42-.2 1.05-.63 1.88m137.5 1.87-2.5-1.25h-.62c-1.25 0-2.08.84-2.5 2.5l-.63 1.25c0 2.92 1.25 4.38 3.75 4.38s3.75-1.46 3.75-4.38c0-.83-.41-1.66-1.25-2.5m38.13 1.88c-11.25 4.58-16.88 12.7-16.88 24.37 0 10.84 5.63 20.63 16.88 29.38 1.67-1.67 2.5-2.92 2.5-3.75 0-1.25-.2-2.08-.63-2.5l-8.75-9.38c-2.91-2.91-4.37-8.12-4.37-15.62 0-5 .42-7.92 1.25-8.75l3.13-3.75 3.12-3.13c.42-1.25 1.87-1.87 4.38-1.87 10.41 0 15.62 5.83 15.62 17.5 0 5-1.25 10.83-3.75 17.5l-2.5 5c-1.67 2.92-4.17 7.5-7.5 13.75 0 .83.83 1.46 2.5 1.87l3.13-5h1.87l1.25-2.5 6.25-12.5c2.92-4.16 4.37-10.41 4.38-18.75 0-14.58-7.3-21.87-21.88-21.87m-58.75 5c-11.25 5.83-16.88 12.5-16.88 20 0 11.25 4.8 22.92 14.38 35l24.38 30c.41.83 1.45 2.5 3.12 5l7.5 9.37c.42 2.09 1.67 3.96 3.75 5.63l-3.13-6.88-20-26.87c-12.5-16.67-18.75-30.2-18.75-40.63 0-8.33 2.92-12.5 8.75-12.5 2.92 0 5.63 2.71 8.13 8.13 2.5-2.5 3.75-4.8 3.75-6.88 0-7.91-3.54-11.45-10.63-10.62l-5 .62.63-9.37m-224.38 80v-53.75l1.25-6.25-1.88-14.38-4.37 4.38 1.25 36.25-1.25 21.87c0 4.59 1.67 8.55 5 11.88m65.63-38.75v2.5c-2.92 1.25-4.8 3.54-5.63 6.87l6.88 1.88 8.75 3.12 6.25.63 4.37.62 6.88-1.25 5.62-3.12c.83-.42 2.3-.63 4.38-.63 2.5 0 3.74 1.25 3.75 3.75 0 2.09-1.05 3.13-3.13 3.13h-13.75l-3.13 1.25c-1.66.42-4.58 1.25-8.74 2.5 2.91.42 4.58 1.88 5 4.37-3.34 2.5-5 5-5 7.5s.83 3.76 2.5 3.75l7.5-5.62 21.87-4.38c6.25-.41 9.37-6.04 9.38-16.87 0-2.08-1.25-4.37-3.75-6.88-2.09-2.5-4.17-3.95-6.25-4.37l-36.25-2.5c-1.67 0-3.96-1.46-6.88-4.38-2.92-3.33-4.38-6.66-4.38-10 0-5.41 2.3-8.12 6.88-8.12 2.5 0 5.2 1.46 8.13 4.37l.62-1.25c-.83-5.83-4.17-8.74-10-8.75-4.17 0-8.13 1.88-11.88 5.63s-5.62 7.7-5.62 11.87c0 7.92 5.2 12.71 15.63 14.38m98.12-17.5 1.25-.63c2.92-1.25 4.37-2.5 4.38-3.75 0-5.83-3.34-8.74-10-8.75-7.09 0-10.63 3.76-10.63 11.25 0 3.34.83 6.67 2.5 10 2.08 3.34 4.17 5 6.25 5s3.12-.83 3.13-2.5c0-1.25-1.05-3.12-3.13-5.62-1.67-2.92-2.5-5.2-2.5-6.88 0-2.91 1.67-4.37 5-4.37 2.5 0 3.75 1.04 3.75 3.12v3.13m-171.88-10-5.62 3.12a175.15 175.15 0 0 1-15.63 7.5 309.75 309.75 0 0 1-13.12 5.63v223.75c0 19.17-9.38 30.83-28.13 35l-21.25 5c-2.92.42-4.38 1.67-4.37 3.75 0 1.25.2 2.08.62 2.5l288.75 3.13 5.63-4.38 31.87-52.5c1.25-1.67 1.87-3.12 1.88-4.38 0-1.25-.63-1.87-1.88-1.87s-4.38 2.5-9.38 7.5a46.85 46.85 0 0 0-4.37 5l-4.38 4.38c-7.08 6.66-16.45 11.87-28.12 15.62-5 2.92-9.8 4.58-14.37 5h-5l-20 3.75c-.42.42-3.55.63-9.38.63h-9.37c-3.76 0-7.92.2-12.5.62h-16.88l-5 .63h-.62l-2.5-.63h-8.75l-72.5-.63a84.8 84.8 0 0 0-3.13-5.62l-3.75-6.25a15.81 15.81 0 0 1-1.87-3.75c-.42-1.25-.84-2.3-1.25-3.13l-1.25-6.25-1.88-7.5-1.25-55.62-.62-70a18.33 18.33 0 0 1-.63-4.38v-10c0-7.5 2.08-11.25 6.25-11.25l26.88.63 2.5-5a65.82 65.82 0 0 0 3.75-5.63 9.8 9.8 0 0 0 1.87-2.5l2.5-2.5-13.75.63h-6.25c-15.83 0-23.75-3.96-23.75-11.88v-58.12m206.88.62c-.83.84-2.5 2.3-5 4.38-2.08 1.67-5 3.54-8.75 5.62l1.88 3.13h1.25c2.08 0 4.58-1.04 7.5-3.13 3.33-2.5 5-4.79 5-6.87 0-.83-.63-1.87-1.88-3.13m-303.12 9.38a7.77 7.77 0 0 0-5.62-2.5c-4.17 0-6.25 2.3-6.25 6.87 0-.41.41 1.05 1.25 4.38 1.25 5 2.91 7.5 5 7.5l17.5 16.87.62-1.87-11.25-11.25c-3.33-3.33-5-7.92-5-13.75 0-1.67 1.25-3.75 3.75-6.25m302.5 1.87-5.63 3.75 3.75 5 13.75 16.88 9.38 13.75 28.75 33.75 18.13 27.5 1.25-3.13-5.63-9.37-2.5-6.25-36.88-48.13-24.37-33.75m-60.63 22.5c1.25.84 1.88 1.46 1.88 1.88 0 1.25-2.08 1.88-6.25 1.87h-.63c-3.75 0-7.5 2.92-11.25 8.75l10.63-1.87-4.38 1.87c-4.16 1.25-6.25 2.92-6.25 5 0 5 3.34 7.5 10 7.5 4.17 0 8.34-2.08 12.5-6.25-5.41-.41-8.12-1.66-8.12-3.75 0-.83 2.5-2.91 7.5-6.25 2.92-1.66 5.42-5.2 7.5-10.62-10.42-4.58-14.17-6.87-11.25-6.88l-4.38.63-1.87-1.88 5.63-5.62c.83-.83 1.25-1.46 1.25-1.88l.62-1.87c0-.83-.63-1.25-1.88-1.25h-1.87l-11.88-1.25c-4.58-.83-6.87 2.08-6.87 8.75 0 5 1.46 7.7 4.38 8.12h8.12v1.88l-6.25.62c-.42.42-.63.84-.63 1.25v.63c.42 1.25 1.88 1.88 4.38 1.87h3.75c1.67-.41 3.54-.83 5.63-1.25m-286.25-1.87c-1.25-2.5-1.88-4.58-1.88-6.25 0-2.5 1.46-3.75 4.38-3.75 5 0 9.58 2.08 13.75 6.25 5.41 4.58 9.58 8.13 12.5 10.62 2.91 2.5 4.58 3.96 5 4.38l6.25 3.75 5.62 4.37-6.87-6.87-6.25-4.38-4.38-4.37-8.75-9.38-5.62-6.87-3.75-2.5-3.13-3.13c-.83-.83-2.3-1.25-4.37-1.25-6.67 0-10 3.34-10 10 0 4.59 2.5 7.71 7.5 9.38m211.88 10c-1.25-.42-3.76-.63-7.5-.63-6.67-.41-10.84.21-12.5 1.88l-12.5-1.88-6.25-1.87c-5-1.25-7.5-5.42-7.5-12.5 0-4.17 1.87-6.25 5.62-6.25 1.67 0 3.96.83 6.88 2.5 0-6.25-3.55-9.37-10.63-9.38-8.75 0-13.13 4.59-13.13 13.75 0 5.42 2.71 10.21 8.13 14.38a29.9 29.9 0 0 0 18.75 6.25c6.25 0 13.96-1.46 23.13-4.38l7.5-1.87m63.75 25-65 1.87c-4.59 0-7.5.42-8.75 1.25-1.25.42-3.55 3.13-6.88 8.13l-1.88 1.87a13.4 13.4 0 0 1-2.5 3.13h76.25c6.67 0 13.96 1.88 21.88 5.62 7.92 3.76 12.7 8.34 14.38 13.75l10.62 30c.42 1.25 1.46 1.88 3.13 1.88l.62-.63c2.5-.83 3.33-1.66 2.5-2.5l-3.75-56.87 1.88-13.75.62-11.25 1.25-5c.83-4.17 1.25-6.87 1.25-8.13 0-11.66-1.67-17.5-5-17.5-2.5 0-3.96 1.25-4.38 3.75l-5.62 18.75c-2.92 7.5-6.25 12.92-10 16.25-3.33 3.34-8.13 5.84-14.38 7.5a88.4 88.4 0 0 0-6.25 1.88m47.5-44.38c.42 2.09.63 4.59.63 7.5v11.25c0 2.5-.2 4.38-.63 5.63l-2.5 18.75-.62 8.12v5.63l.63 8.12v6.25l2.5 36.88c.41 3.33-1.46 5.83-5.63 7.5l.63 1.87h3.75c4.16.42 6.24-1.87 6.25-6.87v-2.5c-.42-.83-.63-2.7-.63-5.63l-.63-10-.62-6.25-.63-18.12-1.25-16.25c0-1.25.63-6.87 1.88-16.88 1.25-10.41 1.87-17.29 1.88-20.62 0-5-1.67-9.8-5-14.38M235.6 309.17l1.25 11.87 16.25 5.63c1.25.83 1.87 1.88 1.87 3.12 0 2.5-1.67 3.76-5 3.75h-1.25l-11.87-5.62a12.06 12.06 0 0 0-6.25-1.88c-4.59 0-7.71 1.25-9.38 3.75l5.63 5c-7.09.84-10.21 3.55-9.38 8.13v1.87l5.63-1.87 28.12-1.25c3.33-.42 6.67-3.12 10-8.13 1.67-1.66 2.5-3.95 2.5-6.87 0 .42-.42-.63-1.25-3.13-6.25-8.33-9.58-13.33-10-15l-1.25-1.87v-1.25l1.25-7.5c-.83-.83-1.67-1.25-2.5-1.25-4.17 0-6.25 2.3-6.25 6.87l1.25 8.13-2.5.62-3.12-1.87-3.75-1.25m352.5-4.38c4.16 3.76 6.24 7.92 6.25 12.5l-.63 1.88-5.63 9.37c0 1.67.63 2.5 1.88 2.5 1.67 0 3.33-1.45 5-4.37a19.8 19.8 0 0 0 2.5-10c0-5.83-3.13-9.8-9.38-11.88m-81.25 6.88-1.25 4.37 21.25 8.75a26.58 26.58 0 0 0-3.75-2.5 176.8 176.8 0 0 1-9.37-6.25 7.87 7.87 0 0 0-3.13-1.87 14.59 14.59 0 0 0-3.75-2.5m66.88 26.25 1.25-3.75c-2.08-2.08-3.13-3.75-3.13-5 0-4.17 5.63-7.92 16.88-11.25l.63-5h-1.88l-6.88 2.5c-9.16 2.92-13.75 7.7-13.75 14.37 0 2.92 2.3 5.63 6.88 8.13m-397.5-3.75v3.75c0 .42-.83 1.25-2.5 2.5-1.25 1.25-1.87 2.5-1.87 3.75s.62 1.88 1.87 1.87l1.25-.62 3.13-5 1.87-3.75 1.25-3.13-.62-.62v-.63l-3.75-5.62v-1.88c0-4.58 2.5-6.87 7.5-6.87 4.16 0 6.25 1.04 6.25 3.12l.62 2.5-3.12 5 1.87 2.5 5-8.12c0-.42-.42-1.87-1.25-4.38-2.08-3.33-5-5-8.75-5-2.92 0-6.04 1.46-9.37 4.38-2.92 2.5-4.38 5.2-4.38 8.12 0 2.09 1.67 4.8 5 8.13m440-15.63c5.42 5 8.12 10.42 8.13 16.25 0 1.67-1.67 4.17-5 7.5l-3.75 2.5a7.14 7.14 0 0 1-7.5 1.88h-6.25a6.95 6.95 0 0 0-.63 3.12c0 .84 1.04 1.25 3.13 1.25 16.25 0 24.37-6.66 24.37-20 0-10.83-3.13-16.25-9.38-16.25-.41 0-.83.21-1.25.63l-1.87 3.12m-13.75-1.25.63 3.75a9.75 9.75 0 0 0 1.87 2.5c1.25.84 2.7 2.09 4.38 3.75 1.25 1.25 3.74 5 7.5 11.25 1.25-1.66 1.87-3.12 1.87-4.37 0-2.5-2.08-5.83-6.25-10a32.98 32.98 0 0 0-10-6.88m-273.75 18.75 7.5-.62c1.25-.42 2.92-.63 5-.63h3.13l8.75-2.5 8.12-1.25c1.67-.41 4.8-1.25 9.38-2.5a743.29 743.29 0 0 1 18.12-6.25 87.75 87.75 0 0 0 6.25-1.87c-1.67-1.67-3.33-2.5-5-2.5-2.5 0-7.08 1.25-13.75 3.75-6.25 2.08-10.63 3.33-13.13 3.75l-20 3.12-3.75-.62-7.5 1.87-3.12-.62v6.87m178.12-16.87-.63 10.62 7.5 2.5c2.92.42 5.84 1.05 8.75 1.88l5 3.75 17.5 10c1.67.83 6.05 4.58 13.13 11.25a71.86 71.86 0 0 1 5.63 6.87c4.16 5.84 6.45 8.76 6.87 8.75l9.38 6.25 5.62 7.5-3.13-5.62-3.12-3.75-8.75-15-3.13-2.5-3.12-5-6.25-5.63-4.38-4.37-20.62-13.75-4.38-3.75-7.5-3.13-2.5-1.25h-2.5v-1.87c-2.5-.42-5.62-1.67-9.37-3.75m-166.88 62.5c-5 14.58-7.5 29.17-7.5 43.75 0 6.25.83 12.3 2.5 18.12a522.7 522.7 0 0 1 5.63 21.88v3.75c-4.59.83-6.88 2.92-6.88 6.25v2.5c3.33 10 5 16.46 5 19.37 0 2.5-1.46 5.21-4.38 8.13 9.17-.42 13.76-5.42 13.76-15 0-1.67-.42-3.75-1.25-6.25-.84-2.92-1.25-5-1.25-6.25 0-.83.62-1.25 1.87-1.25h.63l3.12 4.37c.83 1.67 3.96 2.71 9.38 3.13 1.25 0 3.33-.83 6.25-2.5-4.59-2.08-7.71-6.67-9.38-13.75-1.25-5.42-3.33-8.12-6.25-8.13-1.25 0-2.7.84-4.38 2.5-5.83-10.83-8.75-24.37-8.74-40.62 0-21.25 5.83-40.2 17.5-56.88l6.25-9.37 15-16.25 20-13.75-3.13-2.5h-1.25c-.83.42-1.88.83-3.13 1.25l-3.74 1.87-9.38 5.63c-7.5 5.42-14.38 13.12-20.63 23.12l-8.74 14.38c-2.5 4.17-3.96 6.88-4.38 8.12 0 .84-.83 2.3-2.5 4.38m-80-41.88c6.67-.41 10-4.37 10-11.87 0-2.08-1.04-3.12-3.13-3.13-.41 0-.83 2.09-1.24 6.25-.84 2.09-2.71 5-5.63 8.75m319.38-13.75c-1.67.42-2.5 1.25-2.5 2.5v1.25c1.25 2.5 2.3 3.76 3.13 3.75l3.12 4.38 5 5 .63-4.38-4.38-3.12-1.25-3.75-3.75-5.63m22.5.63c-6.67 10.42-10 18.33-10 23.75 0 8.75 2.08 16.87 6.25 24.37 4.17 7.09 8.75 10.63 13.75 10.63 9.17 0 13.75-6.87 13.75-20.63l-1.88-14.37-2.5 1.87 1.25 14.38-1.25 3.75c-2.08 7.08-5.2 10.62-9.37 10.62-4.17 0-7.92-3.33-11.25-10-2.92-6.66-4.38-12.5-4.38-17.5s1.25-10.2 3.75-15.62l3.75-8.75c0-.83-.62-1.67-1.87-2.5m-329.38 2.5-3.13 9.37h5.63l-.63-6.87-1.87-2.5m237.5 30.62-1.25-6.25c0-6.24 3.96-9.37 11.88-9.37 3.33 0 7.29 1.04 11.87 3.12 5 1.67 8.12 2.92 9.38 3.75l6.25 5.63 7.5 6.25c1.25.42 4.16 4.17 8.75 11.25l.62-.63v-1.25l-5-5a32.89 32.89 0 0 0-5-6.25 15.93 15.93 0 0 0-3.75-3.75 20.58 20.58 0 0 0-2.5-3.12l-11.25-7.5c-7.08-5-15-7.5-23.75-7.5-2.08 0-3.54.42-4.38 1.25l-.62 1.87-3.13 1.25c-2.08.84-3.12 3.55-3.12 8.13 0 3.75 2.5 6.46 7.5 8.12m-328.75-11.87c0 2.08 1.04 3.13 3.13 3.12 2.5 0 3.75-1.25 3.75-3.75 0-2.08-.84-3.12-2.5-3.12l-1.25.62c-2.09.84-3.13 1.88-3.13 3.13m12.5 2.5c-1.67 0-2.92 1.04-3.75 3.12l-.62 1.25c0 2.92 1.45 4.38 4.37 4.38 3.33 0 5-1.25 5-3.75 0-3.33-1.67-5-5-5m-20 .62c-2.5 0-3.75.84-3.75 2.5 0 1.67 1.25 2.5 3.75 2.5 1.67 0 2.5-.83 2.5-2.5 0-1.25-.83-2.08-2.5-2.5m92.5 51.88c-.42-7.08-1.04-12.3-1.88-15.63-1.66-7.08-2.91-12.5-3.74-16.25-.84-3.74-1.25-6.04-1.25-6.87 0-3.33 1.25-5.42 3.75-6.25l9.37-2.5-3.75-3.13c-.83-.83-2.08-1.25-3.75-1.25-7.08 0-10.63 5.21-10.63 15.63 0 5 .63 8.33 1.88 10l3.13 7.5c.41.83 1.04 2.5 1.87 5a65 65 0 0 1 2.5 8.12c.42.84.63 1.67.63 2.5.41.84 1.04 1.88 1.87 3.13m269.38-47.5-8.75.62.63 1.88h-1.25c-.84 0-1.67.42-2.5 1.25v1.25l.62 13.12-5.63-1.87c-.41.42-.62 1.04-.62 1.87 0 2.09 1.04 5.63 3.13 10.63l4.37 5 7.5 6.25c5 4.58 7.5 8.13 7.5 10.62l-1.25 1.25c-.42 0-.83.21-1.25.63-4.58-7.5-10.63-12.5-18.13-15 1.25 2.08 1.88 3.54 1.88 4.37 0 .84-.63 1.46-1.88 1.88l-5.62-3.13-2.5 1.25-1.88-1.87-5 1.87a74.02 74.02 0 0 0 2.5 5.63 32.9 32.9 0 0 1 3.13 5l7.5 5.62v1.88l-6.25 1.87 2.5 5.63 3.13 3.75h1.87l2.5 1.87 4.38-.62c-.42.42-.63 1.25-.63 2.5 0 .83 1.04 1.88 3.13 3.12 7.08 4.59 10.62 11.05 10.62 19.38v4.37c0 2.09-.2 3.76-.63 5l-1.25 6.88h1.25c1.67-7.5 2.92-11.25 3.75-11.25.84.83 1.25 1.46 1.25 1.87l-.62 3.13-1.88 9.37c2.5-.41 3.75-2.7 3.75-6.87 0-2.08.21-3.33.63-3.75 1.67 1.67 2.7 2.92 3.13 3.75 3.33-12.08 4.58-23.13 3.75-33.13v-6.25c0-.41-.42-1.66-1.25-3.75-.42-2.5-1.05-6.04-1.88-10.62l-2.5-9.38-9.38-18.75-3.12-8.75-1.88-1.25v-5l-.62-8.12 3.75-5m-355 8.12 2.5-1.87c.83-.83 1.25-1.67 1.25-2.5 0-2.08-.83-3.12-2.5-3.13-1.25 0-2.3 1.05-3.12 3.13l-.63.62c0 2.5.83 3.76 2.5 3.75m53.75-3.75c-2.08 3.34-3.13 5.63-3.12 6.88 0 5 4.16 11.04 12.5 18.12-10 1.67-16.05 6.67-18.13 15 1.25-.41 3.33-.62 6.25-.62 9.17-1.25 13.75-3.12 13.75-5.63 0-1.66-.2-2.7-.62-3.12a4.78 4.78 0 0 1 1.87-.63l.63-.62c2.91 0 6.04 2.3 9.37 6.87a19.8 19.8 0 0 1 2.5 10c0 7.5-3.54 16.67-10.63 27.5-2.5 3.34-4.79 5.63-6.87 6.88l-15.62 10.62 3.75-1.87 6.25-3.13 5-3.75 6.25-6.25 6.87-5.62c5.42-4.17 8.12-12.08 8.13-23.75 0-12.92-5.42-21.04-16.25-24.38-.42-.41-.63-1.66-.63-3.75v-.62c1.67-1.67 2.7-2.92 3.13-3.75 0-1.67-1.67-3.33-5-5-3.34-1.67-6.46-4.8-9.38-9.38m-8.75 15.63c-5.42-2.92-8.13-6.04-8.12-9.38 0-.83 1.66-2.29 5-4.37l-.63-1.25h-2.5c-3.75 0-5.63 2.08-5.62 6.25 0 2.08 1.04 4.38 3.12 6.87 2.08 2.09 4.17 3.13 6.25 3.13.83 0 1.67-.42 2.5-1.25m-23.12-14.38c-2.5 0-3.96.84-4.38 2.5v1.25c0 2.92 1.25 4.38 3.75 4.38 2.92 0 4.38-1.46 4.38-4.38 0-2.5-1.25-3.74-3.75-3.75m158.12 4.38 86.25.62 20 4.38c-9.59-5.83-19.17-8.75-28.75-8.75l-30.63-.63h-43.75l-3.13 4.38m-25 173.75a43.7 43.7 0 0 0-3.12-6.25l-3.75-6.25-1.88-10-1.87-6.25-1.25-136.25c0-5.42 2.7-8.12 8.13-8.13h.62c2.92 0 5.42.21 7.5.63h2.5c1.67 0 2.7-1.46 3.13-4.38-.42-.41-1.25-.62-2.5-.62h-.63l-5.63.62-9.37-.62c-3.75 0-6.25.62-7.5 1.87-1.25.84-1.88 2.5-1.88 5l.63 4.38c.42 2.08.63 4.17.63 6.25v9.37l-.63 14.38.63 84.37 2.5 26.25c0 4.17.2 6.46.62 6.88l6.25 13.13c1.67 3.75 3.54 5.62 5.63 5.62h1.25m-147.5-175-1.25 1.25a7.29 7.29 0 0 0-1.25 1.87v1.25c0 2.09 1.25 3.13 3.75 3.13 2.91 0 4.37-1.25 4.37-3.75s-1.46-3.75-4.37-3.75h-1.25m-10 3.75c-3.34 0-5 2.08-5 6.25 0 2.08 1.45 3.13 4.37 3.12 2.5 0 3.75-1.66 3.75-5 0-2.91-1.04-4.37-3.12-4.37m180 1.87a73.46 73.46 0 0 0-9.38 36.25v4.38c0 2.5.2 4.38.63 5.62l7.5 13.75 1.87-1.25 1.88-6.25 7.5 3.13h.62c6.25 0 9.17-3.75 8.75-11.25v-2.5c-3.33 2.08-6.25 3.13-8.75 3.12-8.75 0-13.13-7.08-13.13-21.25 0-6.66 2.5-14.16 7.5-22.5l-5-1.25m146.89 1.88c0 4.58.41 7.3 1.25 8.12l5.62 3.75 4.38 3.75h2.5a33.39 33.39 0 0 0-6.25-8.75 39.84 39.84 0 0 0-7.5-6.87m-63.13 22.5c.42-7.5 4.37-13.96 11.88-19.38-2.09-1.25-3.34-1.87-3.75-1.87-3.34 0-6.26 1.67-8.75 5-2.5 2.92-3.76 6.04-3.75 9.37 0 2.09 1.45 4.38 4.37 6.88m-245.62-20c.83 7.08 7.92 10.62 21.25 10.62h2.5c.83-.41 2.08-.83 3.75-1.25-10-.83-16.67-2.7-20-5.62-2.92-2.92-5-4.37-6.25-4.38l-1.25.63m133.12 2.5v2.5l4.38 1.25 2.5-1.88-6.88-1.87m228.75-1.25-1.25 4.37 1.88 3.13-.63 1.25-5 1.25c-2.08.83-3.13 2.3-3.13 4.37 0 2.92.63 6.26 1.88 10 4.17-3.74 7.7-5.62 10.63-5.62 8.33 0 15.2 6.46 20.62 19.37l4.38 9.38 2.5 4.37 4.37 13.13 3.13 15.62 4.37 21.88 2.5 7.5v-.63c0-5 .83-7.5 2.5-7.5h2.5l-1.25-6.25-2.5-18.12c-5.83-44.17-19.58-69.17-41.25-75a5.54 5.54 0 0 0-2.5-.63l-3.75-1.87m-173.75.62c-2.5 4.59-3.75 8.13-3.75 10.63 0 4.58 2.08 8.54 6.25 11.87 4.17 3.34 6.25 5.42 6.25 6.25v.63c-.83.83-1.46 1.25-1.88 1.25-.41 0-1.45-.2-3.12-.63-1.67-.83-2.92-1.25-3.75-1.25-1.67 0-2.5.42-2.5 1.25 0 2.5.2 3.96.63 4.38l3.75 16.25c.83 4.17 3.95 7.92 9.37 11.25 5.83 3.33 11.25 5 16.25 5l1.25.62c1.25 0 2.3-1.04 3.13-3.12-4.17-1.25-7.3-2.08-9.38-2.5l-2.5-1.25c0-1.67.2-2.7.63-3.13l6.25 2.5c2.5.84 5.2 1.67 8.12 2.5 1.67 0 2.5-.83 2.5-2.5 0-.83-2.7-2.5-8.13-5-.83-.83-1.25-1.45-1.25-1.87 0-.42.42-.63 1.25-.63 2.09 0 5.42 1.67 10 5-2.08-4.16-5.41-7.91-10-11.25 0-2.08.42-3.12 1.25-3.12 1.25 0 2.3.62 3.13 1.87l2.5 2.5 2.5 1.88-1.88-5-6.25-6.25 3.13-1.88 10 6.88-3.13-2.5-.62-1.88.63-1.25c5.83 3.34 10 5 12.5 5 .83 0 1.66-.41 2.5-1.25l-.63-1.25-4.38-3.75c-.41-.41-.62-.83-.62-1.25 0-.83.42-1.25 1.25-1.25 1.67 0 3.54 1.25 5.63 3.75l-2.5-5-6.88-4.37v-.63c0-1.66.63-2.5 1.88-2.5.83 0 2.29 1.05 4.37 3.13l4.38 4.37c-1.25-5-4.59-8.74-10-11.25l.62-1.87 8.75 5.62-15.63-20-1.25 6.25-1.87 1.88-5-5-3.13-1.25-5.62-3.13h-14.38a65.3 65.3 0 0 1-10.62-3.75m-195.62 1.25-1.25 1.25c0 .42-.2.84-.62 1.25l-.63 1.25c0 2.09 1.25 3.13 3.75 3.13 1.67 0 2.5-.83 2.5-2.5 0-.83-1.25-2.3-3.75-4.38m408.75 6.25c-4.17 1.67-6.25 4.38-6.25 8.13 0 2.08.2 3.33.63 3.75l5.62 13.12c2.08 5.84 4.37 13.75 6.88 23.75 2.5 9.59 5 21.05 7.5 34.38l3.75-10-1.25-13.13c0-.83-.63-4.16-1.88-10l-1.88-6.87-13.12-43.13M208.1 396.67c.42 2.92 1.46 4.38 3.13 4.37 1.66 0 3.33-.83 5-2.5-2.09-2.08-3.13-3.95-3.13-5.62 0-2.5 1.46-3.75 4.38-3.75h.62c1.67 0 3.54-.63 5.63-1.88h-2.5c-8.76 0-13.13 2.09-13.13 6.25v3.13m3.13 30.62c-2.92-5-6.88-8.12-11.88-9.37l-15-3.75c-2.92-.42-5.42-2.5-7.5-6.25-.42-.42-.62-1.87-.62-4.38 0-5 2.7-7.5 8.12-7.5 3.75 0 6.46 2.71 8.13 8.13 1.25-2.5 1.87-4.58 1.87-6.25 0-5-4.17-7.5-12.5-7.5s-12.5 4.17-12.5 12.5 4.38 13.33 13.13 15l23.75 5 5 4.37m135.62-36.87c-3.34 10.83-5 19.37-5 25.62 0 21.25 5.2 31.88 15.62 31.88 6.25 0 9.37-2.08 9.38-6.25 0-1.67-.63-3.75-1.88-6.25-2.08 3.75-4.17 5.63-6.25 5.62-9.58 0-14.38-9.16-14.38-27.5v-6.25c.42-2.5.84-5.41 1.26-8.75.41-.41.62-1.45.62-3.12 0-2.08.2-3.75.63-5m101.25 11.25a8.48 8.48 0 0 1 6.25-2.5c1.25 0 1.87.42 1.87 1.25 0 .83-.2 1.46-.63 1.87l-3.12.63c-.83 0-2.08.62-3.75 1.87v3.13l7.5-3.13c2.08 0 3.12.84 3.13 2.5l-.63.63-8.13 1.87c-2.91.42-4.37 1.88-4.37 4.38 0 1.25.63 1.88 1.88 1.87 1.25 0 3.12-.62 5.62-1.87 2.92-1.25 5.2-1.87 6.88-1.88 3.33 0 5 .84 5 2.5 0 2.09-1.05 2.71-3.13 1.88h-1.25c-.42 0-1.25.2-2.5.62-.83 0-2.3.21-4.38.63 3.34 2.08 5.42 2.92 6.26 2.5h1.87c2.92 0 4.37.42 4.38 1.25 0 .83-1.05 1.67-3.13 2.5 1.67 3.75 4.8 5.63 9.38 5.62.83 0 2.91-.41 6.25-1.25l4.37-1.25-3.13-3.75v-3.12c2.92 2.08 5.42 2.7 7.5 1.87l4.38-2.5-6.25-5.62-6.25-7.5c-.42-1.67-3.33-2.5-8.75-2.5l-1.25-1.88c2.92-1.66 4.8-3.74 5.63-6.25-7.5-2.08-11.88-3.12-13.13-3.12-2.92 0-6.04.62-9.38 1.87-3.33 1.25-5 2.3-5 3.13v3.75m169.39 51.25c1.66-.42 2.5-1.04 2.5-1.88 0-.83-.42-3.74-1.25-8.75-.84-5-1.25-8.33-1.25-10l-1.25-13.75c-.84-3.33.2-5 3.12-5 1.25 0 2.92.63 5 1.88l1.25-3.75c-.42-5.42-2.3-8.12-5.63-8.13-5.41 0-8.12 3.96-8.12 11.88 0 4.58.63 8.13 1.88 10.62l1.87 4.38.63 6.87 1.87 9.38-.63 6.25m-380.62-40c4.17 2.92 6.25 6.04 6.26 9.37 0 4.17-2.92 10.42-8.75 18.75 9.16-6.24 13.75-12.7 13.75-19.37 0-6.67-2.09-10-6.25-10h-1.25l-3.75 1.25m316.25 60.62c.83-2.5 1.66-5.2 2.5-8.12a79.17 79.17 0 0 0 1.87-11.25c.42-16.25 5-24.38 13.75-24.38 6.25 0 9.37 2.71 9.38 8.13 0 2.5-.63 5.2-1.88 8.12 6.25-2.91 9.37-6.04 9.38-9.37 0-1.25-.21-2.08-.63-2.5l-1.88-3.75-1.25-3.13-8.75-6.25 1.88-6.25c-.83-.83-2.08-1.25-3.75-1.25-12.08 0-18.33 13.75-18.75 41.25 0 2.5-.83 5.84-2.5 10-1.25 3.76-1.88 6.05-1.88 6.88 0 .83.84 1.46 2.5 1.87M441.86 422.3c-1.66 1.25-2.5 2.3-2.5 3.13 0 2.08 1.05 3.13 3.13 3.12 1.25 0 2.3-.62 3.13-1.87v-2.5l-3.75-1.88m9.37 1.25c-.42 0-.63.42-.63 1.25l-.62.63c0 1.25.63 1.88 1.88 1.87 1.66 0 2.5-.83 2.5-2.5 0-1.25-.84-1.87-2.5-1.87l-.63.62m-265.62 39.38c1.67-.42 2.92-2.08 3.75-5a35.3 35.3 0 0 0-3.75-10.63l8.13-2.5 1.87-4.37h-1.25c-5 0-7.5-1.87-7.5-5.63 0-3.74 2.7-5.62 8.13-5.62 9.16 0 13.75 4.38 13.75 13.12 0 8.76-3.34 16.46-10 23.13-8.34 9.58-12.71 15-13.13 16.25-.42.42-.63 1.25-.63 2.5s-.2 2.3-.62 3.12l4.38-6.87 6.87-6.88 4.38-3.12 5.62-8.13 1.88-2.5c3.75-4.16 5.62-10 5.62-17.5 0-12.5-7.08-18.75-21.25-18.75-13.75 0-20.63 6.46-20.63 19.38 0 2.92.63 5 1.88 6.25l10.63 10 1.87 3.75m273.12-35.63c.42 1.25.83 1.88 1.25 1.88 1.25 0 1.87-.42 1.88-1.25 0-.83-.42-1.25-1.25-1.25l-1.88.62m-27.5 1.25c-1.67 0-2.7.84-3.13 2.5v1.25c0 2.09 1.05 3.13 3.13 3.13 2.5 0 3.75-1.25 3.75-3.75 0-2.08-1.25-3.12-3.75-3.13m20 56.25 16.25 23.13c4.17 5.42 7.08 12.3 8.75 20.62l.63 6.25 5-.62h1.25c1.66 0 2.5-.83 2.5-2.5v-3.13l-3.75-17.5a45.8 45.8 0 0 0-3.75-8.12 192.55 192.55 0 0 0-5-9.38 50.63 50.63 0 0 0-3.75-8.12c-1.25-2.5-1.88-3.96-1.88-4.38v-1.25c.42-.41.83-.62 1.25-.62h2.5l2.5 5 3.13 3.75 1.87 6.87 5.63 11.88 2.5 10.62 2.5 6.25c.83 5 1.45 7.71 1.87 8.13h3.75c2.5-.42 3.75-2.3 3.75-5.63v-1.87l-.63-20.63a81.8 81.8 0 0 0-2.5-15.62 44.28 44.28 0 0 0-3.75-11.88l-3.12-5.62-3.75-10c-2.5-7.5-7.3-14.17-14.38-20-6.66-5.83-13.12-8.75-19.37-8.75-12.92 0-19.38 6.67-19.38 20 0 7.08 1.67 12.92 5 17.5l14.38 15.62m28.75-53.12-5.63.62 2.5 5h-2.5l-3.12-1.25 5 5 4.38 5.63c1.25 1.25 3.54 1.88 6.87 1.87 2.08 0 3.12-.83 3.13-2.5 0 .42-1.67-1.66-5-6.25.41-.83 1.87-2.08 4.37-3.75l-10-4.37m-213.75 6.25 1.25 1.25-2.5 1.87c3.75 3.34 5.62 5.84 5.63 7.5 0 4.59-2.09 7.5-6.25 8.75l-4.38 1.25-23.13-.62-10 1.87h17.51l7.5 1.88 5.62-1.25v1.25c12.5 0 18.75-4.8 18.75-14.38 0-2.5-1.46-5.2-4.38-8.12l-5.62-1.25m254.38 9.37h3.75c5 0 7.7 5.21 8.13 15.63v7.5c2.08-9.17 3.12-15 3.12-17.5 0-9.58-2.92-14.38-8.75-14.38-4.17 0-6.25 1.88-6.25 5.63v3.12m-95.63-7.5c-1.25 0-1.87.63-1.87 1.88 0 1.67.83 2.5 2.5 2.5 2.08 0 3.12-1.04 3.13-3.13 0-.83-1.05-1.25-3.13-1.25h-.63m-53.75 13.13 8.13 3.12-1.25 3.13-3.75 5c-1.67 1.67-2.5 3.96-2.5 6.87v.63c0 10.42.42 16.04 1.25 16.87l1.25.63c5.83 0 9.58-2.08 11.25-6.25l5-10 2.5 1.25-1.25 5c0 2.08.63 3.33 1.88 3.75l5-1.88 8.12-5c5.42-2.91 8.75-10.41 10-22.5l-3.75 6.25-1.88 1.25-3.12 4.38h-1.25c-.83 0-1.25-.42-1.25-1.25.83-1.25 1.87-2.7 3.13-4.38a98.31 98.31 0 0 0 5-6.87 14.53 14.53 0 0 0-3.75 2.5c-4.17 4.17-7.5 6.25-10 6.25-1.25 0-1.88-.63-1.88-1.88 0-.83 3.12-3.54 9.38-8.12 1.66-.83 3.33-2.7 5-5.63-7.09 3.76-11.88 5.63-14.38 5.63-1.25 0-1.88-.42-1.88-1.25 0-.42 2.09-1.46 6.25-3.13.42-.41.84-.62 1.25-.62l1.25-1.25c-8.75-3.75-13.33-5.62-13.75-5.63-5.41 0-10.83 3.13-16.25 9.38l-3.75 3.75m-147.5-6.25-5 2.5-1.24 1.25 1.25.62 5-4.37m280 1.87.62 5h-2.5c-7.08-.83-10.63 1.05-10.63 5.63v.62l3.13 8.13 2.5-5 1.25-.63h1.25c8.33 0 12.5 5.84 12.5 17.5 0 .84-.42 2.92-1.25 6.25l-7.5 13.13v24.37c11.67-6.66 19.38-13.12 23.13-19.37a9.8 9.8 0 0 1 2.5-1.88l1.87-1.87c2.08-2.92 4.58-6.04 7.5-9.38a82.77 82.77 0 0 1 10.63-10c.83-.41 2.91-.62 6.25-.62-3.34-3.75-5.84-5.62-7.5-5.63-3.34 0-6.46.84-9.38 2.5l-1.25 1.25c-.42 0-.83.21-1.25.63l-8.75 11.87-.63.63c-1.66 0-2.5-.63-2.5-1.88v-.62l5.63-11.88v-7.5c0-3.33-.2-5.62-.63-6.87l-7.5 3.75c-1.25-9.58-7.08-15.63-17.5-18.13m-80.62 2.5c0 1.25-.2 2.09-.63 2.5l-.62 1.25c0 1.67 1.04 2.5 3.13 2.5 1.66 0 2.5-1.04 2.5-3.12s-1.25-3.12-3.75-3.13h-.63m-208.75 7.5a40.79 40.79 0 0 0 4.38-2.5l5-2.5v-1.87l-5.63 3.12-3.75 1.88v1.87m394.38 21.88a59.19 59.19 0 0 0-2.5 17.5c0 2.92.2 4.8.63 5.62l4.37 12.5.63 6.25v13.76c-.84 3.33-2.3 5-4.38 5l-.63-.63-1.87-1.25c1.67-1.25 2.5-3.54 2.5-6.88l1.25-8.75-2.5-10.62-3.13-3.75-3.12-5.63-3.13 8.75-2.5-.62c-2.5-6.25-6.66-9.37-12.5-9.38-4.16 0-8.54 1.67-13.12 5-4.58 3.34-6.67 7.09-6.25 11.25l.63 4.38-.63 4.38c1.67 3.75 2.92 8.33 3.75 13.75 1.25 5 2.3 10.83 3.13 17.5v4.37c-3.34 9.58-10 15-20 16.25 1.66 2.92 3.54 4.38 5.62 4.38h.63l3.12-1.88 5-1.88 5.63-5.62c4.58-4.58 6.66-8.75 6.25-12.5v-.63l-4.38-28.12c-.42-.83-.63-2.7-.63-5.63 0-5.83 2.09-8.74 6.25-8.75 7.09 0 10.63 4.8 10.63 14.38 0 7.08-2.08 15-6.25 23.75l-.63 10.63 6.88 2.5v1.87l-1.25 2.5-.63 1.88-1.87 1.25-3.13 5.62-3.12 3.75-2.5 3.75-3.75 4.38v.62c0 2.92 3.12 4.38 9.38 4.38h.62l6.25-3.13a7.29 7.29 0 0 0 1.88-1.25l1.25-1.25 9.37-6.88c1.67-1.66 4.58-2.5 8.75-2.5 5 0 7.5 1.88 7.5 5.63 0 1.25-.83 3.33-2.5 6.25l6.25 1.88 1.88-1.88 3.75-1.25c.83-.83 1.25-2.3 1.25-4.38 0-1.25-.42-2.91-1.25-5-.84-2.5-1.25-3.95-1.25-4.37 0-.83.62-1.88 1.87-3.13-5.83-2.5-10-3.75-12.5-3.75-7.92 0-14.8 3.55-20.63 10.63-2.08 2.08-3.33 3.13-3.75 3.13l-2.5-.63c2.09-2.08 3.34-3.75 3.75-5 4.17-4.17 6.46-7.3 6.88-9.38.42-4.16 1.67-6.25 3.75-6.25h1.25l1.25 2.5c.83.84 1.67 1.25 2.5 1.25 5 0 9.17-4.16 12.5-12.5 3.33-8.33 4.8-18.54 4.38-30.62v-.63l-1.25-37.5v-5l-1.25-15.62v-3.13c.41-1.66.83-3.54 1.25-5.62l2.5-7.5-3.75 2.5c-3.76 2.08-5.84 6.88-6.25 14.37l-.63 1.88.63 6.87c.41 2.5-.42 3.76-2.5 3.75-.84 0-1.88-.62-3.13-1.87m-179.38-20-3.75 5 2.5 1.25 1.25-6.25m-250.62 50.62c-2.5 8.76-3.75 15.21-3.75 19.38 0 15.42 5 28.33 15 38.75-8.33-14.58-12.5-28.13-12.5-40.63 0-16.66 5.42-31.04 16.25-43.12 10.42-12.5 23.13-18.75 38.13-18.75 10.41 0 18.75 2.92 25 8.75 6.66 5.42 10 12.5 10 21.25 0 7.92-2.71 14.58-8.13 20-5.42 5.42-11.88 8.13-19.38 8.13-9.58 0-14.37-3.96-14.37-11.88 0-7.08 2.92-10.63 8.75-10.63 3.33 0 7.3 2.5 11.88 7.5.41-2.08.62-3.74.62-5 .42-1.25.63-2.08.63-2.5 0-2.5-1.67-4.79-5-6.87l-4.38-3.13 3.13-4.37v-3.13c-1.25-.41-3.34-.62-6.25-.62h-3.75c-5.42 0-10.21 2.3-14.38 6.87a23.36 23.36 0 0 0-6.25 16.25c0 6.67 2.92 12.71 8.75 18.13 5.83 5 12.5 7.5 20 7.5 9.58 0 17.7-3.54 24.38-10.63 6.66-7.08 10-15.41 10-25 0-10-4.17-18.12-12.5-24.37-8.34-6.67-18.75-10-31.25-10-2.09 0-4.8.42-8.13 1.25l-8.13 3.12-5.62 1.25-3.75 3.13-10 7.5c-2.08 1.25-3.96 3.96-5.63 8.12-4.58 7.09-7.29 12.92-8.12 17.5 0 0-.2.63-.63 1.88 0 .83-.2 2.3-.62 4.37m239.38-36.25c-2.08 0-3.13-.41-3.13-1.25l.63-2.5c-4.17 4.17-6.25 7.92-6.25 11.25v5c1.67-2.91 3.12-4.37 4.38-4.37 1.25 0 2.08.2 2.5.62.41 3.76 2.5 7.5 6.25 11.25 2.91-2.91 4.58-6.66 5-11.25l8.12 2.5v-2.5c0-4.16-1.67-7.29-5-9.37l.63 1.87-2.5 1.25c-.42-3.74-1.88-6.04-4.38-6.87.83 3.33 1.25 5.42 1.25 6.25 0 2.08-1.04 3.13-3.13 3.12-.83 0-1.25-.2-1.25-.62v-3.13l-1.87-5-1.25 3.75m178.12 25.63c2.5-1.67 3.75-3.33 3.75-5 0-4.17-2.08-10.2-6.25-18.13-4.17-7.91-11.46-11.87-21.88-11.87-7.5 0-11.25 4.17-11.25 12.5 0 5.83 1.88 9.38 5.63 10.62l3.75.63-3.13-5v-2.5c0-5 2.3-7.5 6.88-7.5 8.75 0 15.42 6.67 20 20l1.25 3.75 1.25 2.5m-61.25-25c2.5-1.25 3.75-2.5 3.75-3.75s-.42-1.87-1.25-1.88l-.63.63-1.87 5m-325 0 6.25-.63 3.75-2.5 3.13.63h10.62c9.58.83 14.38 3.96 14.38 9.37 0 3.34-.21 5.42-.63 6.25 5-.41 7.5-2.29 7.5-5.62 0-8.33-8.13-12.5-24.38-12.5-4.58 0-11.45 1.67-20.62 5m-40.63 1.87 1.88-.62c4.58 0 6.88 1.88 6.88 5.62l-2.5 15v6.25l.62 1.25.63-6.87 3.75-10c.83-4.17 1.25-6.87 1.25-8.13 0-5.83-2.3-8.74-6.88-8.75-3.33 0-5.2 2.09-5.63 6.25m184.38 8.13c18.75 27.5 44.59 41.25 77.5 41.25 6.67 0 13.96-2.08 21.88-6.25l-8.13-2.5a22.06 22.06 0 0 0 1.88-8.75c0-7.08-4.17-10.63-12.5-10.63-2.5 0-3.96 1.25-4.38 3.75 4.17 2.92 6.25 5.63 6.25 8.13 0 2.5-1.66 4.8-5 6.87-3.33 1.67-6.45 2.5-9.37 2.5h-.63l-14.37-1.25h-7.5v-1.87c-14.58-4.58-25.83-11.04-33.75-19.38l-6.88-8.12-5-3.75m6.88 1.25c9.17 11.25 18.13 16.87 26.88 16.87 5.83 0 8.74-2.7 8.75-8.12 0-1.67-1.67-3.75-5-6.25-2.09 6.25-5 9.38-8.75 9.37-5.42 0-12.71-3.95-21.88-11.87m-10 1.25v2.5c0 3.33 1.04 6.04 3.13 8.12 2.5 2.09 3.95 3.13 4.37 3.13l.63 3.12 3.75 3.75a32.88 32.88 0 0 1 6.25 5c12.91 15.42 36.66 23.13 71.25 23.13h14.37c5 0 8.12-.2 9.38-.63a5.54 5.54 0 0 1 2.5-.62 96.9 96.9 0 0 0 5-1.88l-1.88-8.75c-13.75 4.17-24.58 6.26-32.5 6.25a120.7 120.7 0 0 1-46.88-9.37c-15-6.67-25.83-15-32.5-25l-2.5-3.75-4.37-5m-3.13 15 .63 5.62c.42 2.09.63 4.17.63 6.25v6.88l-1.88 15 4.38.63c1.66 0 2.5-1.88 2.5-5.63v-1.88l-.63-5c0-5-.2-7.91-.63-8.75l-1.87-7.5a10.9 10.9 0 0 0-3.13-5.62m210.63 1.87-33.75 56.25c-2.09 3.75-5.63 5.63-10.63 5.63h-.63l-26.87-1.25-78.75-1.88H228.11l7.5 4.38 278.75 3.13c.83.41 2.3.62 4.38.62 5 0 9.79-4.8 14.37-14.38a7.9 7.9 0 0 1 1.88-3.75l10.62-20.62 7.5-10.63 3.75-8.75c1.25-2.91 1.87-4.79 1.88-5.62 0-1.67-.21-2.7-.63-3.13m-202.5 1.25 3.13 5.63 9.37 9.37 8.13 6.88c1.66 1.25 2.5 3.96 2.5 8.13v1.87c3.74-1.25 5.62-3.12 5.62-5.63 0-3.74-3.96-7.7-11.88-11.87-1.66-.42-3.75-1.67-6.25-3.75l-10.62-10.63M189.36 557.3c-2.92-7.08-4.38-13.75-4.38-20 0-11.66 4.17-17.5 12.5-17.5 2.5 0 5.63 1.25 9.38 3.75.42-.83.63-2.29.63-4.37 0-1.25-1.25-2.92-3.75-5a14.53 14.53 0 0 0-2.5-3.75h-2.5c-11.25-.42-16.88 7.7-16.88 24.37 0 .84 1.25 6.25 3.75 16.25l1.25 2.5c.83.84 1.67 2.09 2.5 3.75m155.62-44.37c-1.25 6.25-3.54 9.38-6.88 9.38h-2.5c.84 2.08 2.09 3.12 3.75 3.12l2.5-.63c2.92-.41 4.17-2.91 3.75-7.5l-.62-4.37m-83.13 13.75-3.75 2.5-16.87 9.38c-2.08 1.25-3.13 3.33-3.12 6.25v1.25l3.12-4.38 15-8.75 5.63-6.25m-66.25 19.38-1.88 13.12c-.42 2.5-.62 3.33-.62 2.5 0 9.58 3.95 15.63 11.87 18.13 7.92 2.08 12.3 3.54 13.13 4.37v.63c.41.41.62.83.62 1.25 0 2.91-1.46 4.37-4.37 4.37l-1.88-.63h-1.25l-3.12-2.5-4.38-1.25v-3.12c-.42-.83-2.7-1.88-6.87-3.13-3.75-1.66-6.46-2.5-8.13-2.5-3.33 0-8.12 1.88-14.37 5.63l3.75 3.75-5 5.63v.62l-.63.63c0 2.08 2.92 3.54 8.75 4.37-.42-.42-.62-1.88-.62-4.38 0-3.75 2.7-5.62 8.12-5.62 2.5 0 5.42.42 8.75 1.25l22.5 5.63 12.5 1.87 6.88.63 1.25-.63-.63-1.88 2.5-1.87c.83 3.33 2.3 5 4.38 5h2.5l6.25-.63 16.25.63c10 0 20.62-2.3 31.87-6.88 11.25-5 19.38-10.83 24.38-17.5h-3.75l-3.75.63c-.84.42-2.5 1.67-5 3.75a64.7 64.7 0 0 1-8.75 5.63 111.9 111.9 0 0 1-14.38 5c-5.83 1.25-12.7 1.87-20.63 1.87-8.75 0-16.87-.83-24.37-2.5a86.64 86.64 0 0 1-20-6.88c-5.42-3.33-9.8-6.87-13.12-10.62-3.34-3.75-5-7.92-5-12.5 0-9.58 4.16-13.96 12.5-13.13h5c-3.76-5.41-7.5-8.12-11.25-8.12-6.25 0-10.42 2.3-12.5 6.88l-1.88 5c-.42.41-1.25.62-2.5.62-1.25-.42-2.3-1.46-3.12-3.13m355.62 17.5c-2.92.42-4.38 2.09-4.38 5 0 3.34 1.67 5 5 5 4.17 0 6.25-1.87 6.25-5.62 0-2.92-2.08-4.38-6.25-4.38h-.63m-19.37 6.88h-1.25c-.42.42-.63 1.67-.63 3.75 0 3.75 2.3 5.63 6.88 5.63s6.87-2.3 6.88-6.88c0-4.17-2.3-6.25-6.88-6.25-3.33 0-5 1.25-5 3.75m-362.5 3.75c2.92-2.5 5.42-3.75 7.5-3.75 2.5 0 4.17.2 5 .63-2.5-2.5-4.58-3.75-6.25-3.75-4.58 0-6.87 1.25-6.87 3.75l.62 3.12m191.88 15.63c.83 2.5 1.25 3.54 1.25 3.12 0 1.67-1.67 2.5-5 2.5h-1.88l-14.37-5.63c-3.33-.83-5.42-1.25-6.25-1.25-3.33 0-5 1.05-5 3.13v.63l.63 3.12 3.75-3.75c.41-.42.83-.63 1.25-.63.41 0 .83-.2 1.25-.62h1.87l8.13 3.75h3.12c4.58 3.33 7.3 5 8.13 5 6.66 0 10-2.92 10-8.75 0-.83-.21-1.25-.63-1.25l-16.88-3.13c-1.66-.41-2.5-1.87-2.5-4.37 0-4.58 3.75-6.88 11.25-6.88 1.67 0 3.75.63 6.25 1.88 2.5.83 4.17 1.25 5 1.25l.63-.63c.42 0 .83-.2 1.25-.62-5.83-2.5-10.63-3.75-14.38-3.75-9.58 0-14.37 3.13-14.37 9.38 0 3.33.83 5.2 2.5 5.62 3.75 0 8.75.63 15 1.88m43.75-13.13h-1.25v-1.25c0-1.67-1.04-2.5-3.13-2.5-2.91 0-4.37 1.25-4.37 3.75 0 2.92 1.46 4.38 4.38 4.38 1.66 0 3.12-1.46 4.37-4.38M288.1 584.8c-5-1.67-8.13-5.21-9.38-10.63l-1.25-.63c-4.16 0-6.25 2.3-6.25 6.88 0 3.33 3.13 5 9.38 5 3.75 0 6.25-.2 7.5-.63m151.88-11.25c-3.33 2.09-5 3.55-5 4.38 0 1.25.2 2.08.63 2.5l.62 1.88 3.75 4.37v.63c0 .83-1.04 1.66-3.13 2.5h10.63l11.88-5.63 3.75-1.25c2.08-.83 2.91-2.7 2.5-5.63v-3.75c-7.09 5-12.09 7.5-15 7.5-5.42 0-8.96-2.5-10.63-7.5m36.25 1.25 3.75 5c2.08-2.08 3.12-3.54 3.13-4.37 0-.83-.63-1.25-1.88-1.25h-.63l-4.37.63m26.88 5c-.84-1.25-1.46-1.88-1.88-1.88-10.42 0-15.63 3.75-15.63 11.25 0 2.5 1.46 4.8 4.38 6.88 3.33 1.66 6.25 2.5 8.75 2.5h.63l6.25-1.25 6.25.62c4.58 0 6.87-2.7 6.87-8.13 0-1.25-.83-2.5-2.5-3.75-1.25-1.25-1.88-2.29-1.88-3.12 0-.83.21-1.46.63-1.88l8.75-2.5c.42 0 .63-.2.63-.62 0-1.67-1.05-2.5-3.13-2.5-8.75 0-13.13 2.92-13.13 8.75v.63l3.13 5 .63.62c0 3.75-3.34 5.63-10 5.63-7.5 0-11.25-2.3-11.25-6.88 0-1.67 4.16-4.8 12.5-9.38m-122.5 1.25 3.75 1.88h1.25c1.66 0 2.5-1.25 2.5-3.75 0-2.08-1.25-3.13-3.75-3.13s-3.76 1.25-3.75 3.75v1.25m28.75 6.25 4.37-3.75c-2.08-2.08-3.33-3.12-3.75-3.12-2.92 0-4.38 1.46-4.38 4.38 0 1.25 1.25 2.08 3.75 2.5m-81.25-6.25a229.92 229.92 0 0 0-4.37 5.62l-3.13 3.13c-2.91 2.5-4.37 4.16-4.37 5 0 1.66 1.87 3.33 5.63 5v-1.25a12.7 12.7 0 0 1 3.75-11.88l3.75-5-1.25-.63m135.62 18.13c1.25-2.5 5.62-8.13 13.12-16.88l-3.75-1.25c-2.5 0-5.63 1.46-9.38 4.38-3.75 2.5-5.62 5-5.62 7.5s1.87 4.58 5.63 6.25m-90-13.75c0 .83.2 1.46.62 1.88 2.08 0 3.12-.63 3.13-1.88 0-1.67-.63-2.5-1.88-2.5l-1.25.63-.63 1.87m175-.63c-.41-1.66-1.45-2.5-3.12-2.5-4.17 0-6.25 1.88-6.25 5.63 0 3.33 1.67 5 5 5s4.8-1.88 4.38-5.63v-2.5m-155.63 0c-2.08 0-3.12.84-3.12 2.5 0 2.09 1.25 3.13 3.75 3.13 1.67 0 2.5-.63 2.5-1.88 0-.83-.42-1.66-1.25-2.5-.83-.83-1.46-1.25-1.88-1.25m-9.37 6.25-2.5-1.87c-2.08 0-3.13 1.46-3.13 4.38 0 2.08 1.05 3.12 3.13 3.12 2.5 0 3.75-1.25 3.75-3.75 0-.42-.42-1.04-1.25-1.88m51.25 5.63 10-1.88 6.88-3.12-16.88 5m-35-1.25v1.88c.83.83 2.08 1.25 3.75 1.25 2.5 0 3.75-1.25 3.75-3.75 0-1.67-1.46-2.5-4.38-2.5-2.08 0-3.12.83-3.12 2.5v.62m-7.5-1.25c-1.25 0-1.88.63-1.88 1.88 0 1.66.63 2.5 1.88 2.5 1.67 0 2.5-.84 2.5-2.5 0-1.25-.83-1.88-2.5-1.88m41.25 3.13-13.75-.63-.63 1.25c-2.5-2.5-4.37-3.75-5.62-3.75-.83 0-1.25.2-1.25.63 0 1.66 2.92 2.91 8.75 3.75h6.25l6.25-1.25M178.11 212.91l3.75 1.87c0 2.08-.2 3.13-.63 3.12-.41 0-1.87-.41-4.37-1.25-2.08-1.25-3.13-2.29-3.13-3.12l.63-2.5 3.75 1.87m-5 6.88v-1.88c0-.83.42-1.25 1.25-1.25h.63l3.12 2.5h1.88l.62 4.38-1.25-1.88h-.63a9.14 9.14 0 0 1-5.62-1.87m394.38.62c0 1.25-1.67 1.88-5 1.88-2.5 0-3.75-.42-3.75-1.25l-.63-2.5 5 .62 1.88-1.25 2.5 2.5m-169.38 5.63c0 1.25.63 2.5 1.88 3.75a7.23 7.23 0 0 1-1.25 1.87l-1.88-3.12c-1.25-2.08-1.88-2.7-1.88-1.88l1.25-1.25c0-.41.63-.62 1.88-.62v1.25m-140.62-.63 3.75-.62c0 .42-.42.62-1.25.62-1.25-1.25-1.67-2.08-1.25-2.5l-1.25 2.5m-85-1.87 7.5 3.75.63 1.87c-.42 1.25-1.05 1.46-1.88.63-.42-.83-.83-1.25-1.25-1.25v-.63l-5-1.25v-3.12m50 2.5h5c-1.25 1.67-2.3 2.5-3.13 2.5l-1.25-1.25c0-.42-.2-.83-.62-1.25m338.75.62 6.88-1.87c-.84 2.08-1.88 3.13-3.13 3.12h-1.25a6.81 6.81 0 0 0-2.5-1.25m-169.38 1.25 7.5 6.88h-1.25a6.81 6.81 0 0 0-2.5-1.25c-2.92-1.67-4.58-2.5-5-2.5l-1.25-1.25v-1.25l.63-1.88 1.87 1.25m-129.38 5.63-2.5 1.25c0-1.25-.2-2.08-.63-2.5v-1.25c0-1.25.21-1.87.63-1.88 1.25 0 1.87.84 1.88 2.5l.62 1.88m309.38-3.75c-1.25 2.08-2.7 3.13-4.38 3.12h-1.25c-.41 0-.62-.2-.62-.62l3.13-3.13 3.75-1.25-.63 1.88m-341.25 1.87c-.42-.41-1.25-.62-2.5-.62-.83 0-1.46-.2-1.88-.63 0-1.25 1.05-1.87 3.13-1.87.83 0 1.25.42 1.25 1.25v1.87m184.38-1.87 5.63 1.87-16.88 2.5 11.25-4.37m-238.12 1.87 4.38 4.38c0 .42-.84.2-2.5-.63-1.67-1.25-2.71-1.87-3.13-1.87-1.67 0-2.5-.63-2.5-1.88 0-.83.42-1.25 1.25-1.25l2.5 1.25m406.88 2.5-10 .63H575c1.67 0 3.12-.2 4.38-.63a7.8 7.8 0 0 1 4.37 0c0 .42-3.33.63-10 .63-.83 0-1.25-.42-1.25-1.25 0-.83 1.67-.83 5 0 1.25.42 2.7.62 4.38.62h1.87M255 233.54c0 1.25-2.5 3.13-7.5 5.62l-2.5-3.12 5.63-1.88 1.87-1.87 2.5 1.25m-21.25 1.87c0 1.67-.42 2.5-1.25 2.5-1.67 0-2.5-.83-2.5-2.5 0-1.25.63-1.87 1.88-1.87l1.87 1.87m29.38 2.5c5 13.75 12.7 20.42 23.12 20h6.25l.63 1.88v.62c-1.25.42-3.76.63-7.5.63-2.5 0-4.59-.63-6.25-1.88l-8.75-4.37-3.75-1.88-3.75-6.25-2.5-6.87.62-2.5 1.88.62m166.25 0c0 .42-2.71 1.46-8.13 3.13-.42.42-1.88 1.04-4.38 1.87l-5 1.88c-3.33.83-5.83 1.25-7.5 1.25-1.25 0-2.5-.2-3.75-.63l-1.87-.62-3.13-3.75 14.38 1.25 11.25-3.13 8.13-1.25m-185.63 6.88 3.13 3.12c-1.67 0-3.96-.62-6.88-1.87-2.91-1.67-4.37-3.12-4.37-4.38 0-1.66.63-2.5 1.88-2.5 2.08 0 4.16 1.88 6.25 5.63m10-5c1.25-.42 1.87 0 1.87 1.25s1.25 3.33 3.75 6.25c2.92 2.92 4.17 4.38 3.75 4.37-2.08 0-6.46-2.7-13.13-8.12-.41-.42-.62-1.04-.62-1.88 0-1.25 1.46-1.87 4.38-1.87m143.12 18.12c-.42.42-1.05.63-1.88.63-1.25 0-1.88-.63-1.88-1.88l1.88-5 1.88 6.25M248.75 269.8l1.88-5h.63c1.66 0 2.5.83 2.5 2.5 0 4.17-1.67 6.25-5 6.25l-.63-.63c0-.41-.2-1.04-.63-1.87l1.25-1.25m9.38 0h2.5c-.42.42-.63.83-.63 1.25 0 .42-.2.83-.62 1.25h-1.25c-1.25 0-1.88-.63-1.88-1.88v-1.25c.84 0 1.46.21 1.88.63m246.25 4.37 4.38-.62.62-2.5 1.25-1.25c1.25-.83 1.87-1.04 1.88-.63.83 0 .83.42 0 1.25 0 .84-.21 1.46-.63 1.88 0 2.92-1.46 4.38-4.38 4.37l-1.87-.62-1.25-1.88m-265.62.63.63 2.5c0 .83-.84 1.25-2.5 1.25-2.09 0-3.13-.83-3.13-2.5 0-1.25.63-1.87 1.88-1.88h.62l2.5.63m5 1.25c1.25 0 1.87.42 1.88 1.25 0 1.25-.84 2.08-2.5 2.5l-1.88-1.88-.63-.62a4.24 4.24 0 0 1 3.13-1.25m6.25 5v-4.38.63c0 .83-.2 1.46-.63 1.87.42.42.63 1.05.63 1.88.83-1.25.83-2.3 0-3.13v3.13m8.75-2.5c-.42 0 0 1.04 1.25 3.12 1.25 2.09 1.87 2.92 1.88 2.5l-8.13-6.87c.42-.42 1.04-.63 1.88-.63l3.12 1.88m138.12 31.25 6.88 1.25h5c2.5-.83 3.95 0 4.37 2.5 0 .42-1.88.62-5.63.62-6.66 0-10.2-1.45-10.62-4.37m33.75-3.13 3.13 3.75 1.87 7.5-2.5 1.25-2.5-12.5m-9.38 21.88h-3.12c-1.67 1.67-5.2 3.33-10.63 5l-1.25-1.25c0-1.67.63-2.5 1.88-2.5l8.75-3.13 4.38 1.88m-188.13 9.37 9.38 1.25-3.75 1.25h-6.88l-2.5.63c-.41-.42-.83-.63-1.25-.63l-.62-.62 5.63-1.88m346.25 52.5-1.25 1.88a65.67 65.67 0 0 1-5.63-3.75l-5-3.75c0-1.25.83-1.87 2.5-1.88 1.67 0 4.8 2.5 9.38 7.5m-180-6.25h1.25c7.5-.41 11.25.42 11.25 2.5-.84 0-1.88.63-3.13 1.88-2.5-1.25-4.58-1.67-6.25-1.25l-5.63-.63-.62-2.5h3.13m6.25 15 2.5 3.13c1.66 0 2.5.83 2.5 2.5 0 2.08-1.05 3.13-3.13 3.12l-1.25-1.25-1.25-4.37-3.13-.63 1.25-2.5h2.5m5 8.13h.63c1.25 0 1.87.42 1.88 1.25v2.5c-2.5 0-3.76-.63-3.75-1.88 0-.41.41-1.04 1.25-1.87m115 1.87 1.25 2.5c-1.25 1.25-2.3 1.88-3.13 1.88.83-1.67 1.25-2.7 1.25-3.13l.63-1.25m3.12 4.38c1.25 0 1.87.62 1.88 1.87 0 1.25-.63 1.88-1.88 1.88s-1.88-.42-1.88-1.25c0-1.67.63-2.5 1.88-2.5m-58.75 0h1.88c.83.83 1.25 1.46 1.25 1.87l1.25 1.25c0 .84-1.46 1.25-4.38 1.25v-4.37m65 4.37-1.25 1.25v.63c0 1.25-.42 1.88-1.25 1.87-1.25 0-1.88-.2-1.88-.62 0-2.08.21-3.12.63-3.13h3.75m13.13 3.13c0 .83.41 1.25 1.25 1.25h-5.63c0-1.67.63-2.5 1.88-2.5h.62l.63.62 1.25.63m0 26.87.62 5.63-1.88.62-.62-3.12-1.88-.63c-.41-9.16-2.5-16.25-6.25-21.25a30.8 30.8 0 0 1 1.88 3.13l.63.62a20.6 20.6 0 0 0-3.13-2.5 40.6 40.6 0 0 1-2.5-4.37c0 .42.2.2.63-.63l.62-1.87c1.25 0 2.92 1.67 5 5l5 11.87 1.88 7.5m-76.25 4.38-6.25-8.13c0-1.25.41-1.87 1.25-1.87h1.25l3.12 3.12a62.2 62.2 0 0 0 3.75 7.5 52.27 52.27 0 0 1 6.25 10c1.67 1.67 2.5 2.92 2.5 3.75v2.5a96.73 96.73 0 0 0 1.88 5c.41 4.17.41 6.26 0 6.25l-2.5-8.12-1.88-5-9.38-15m-88.12-4.38-1.88 1.88c-.83 0-1.45.2-1.87.62-.83 0-1.25-.41-1.25-1.25 0-.83 1.04-1.87 3.13-3.12l4.37-3.13h.63c1.25 0 1.87.63 1.87 1.88l-.63.62-4.37 2.5m88.75 16.88-1.25-1.25-3.75-5.63-4.38-5.62c-.41-.42-.62-.83-.62-1.25 0-1.25.63-1.87 1.88-1.88 1.66 0 3.74 2.5 6.25 7.5 0 1.67.62 4.38 1.87 8.13m-33.13-6.88 1.88 3.75.63 1.25c0-1.25-.21-1.66-.63-1.25-2.5 0-3.96-.62-4.38-1.87l-1.87-5.63c0-.83.42-1.25 1.25-1.25.83 0 1.46.21 1.88.63l1.25 4.37m11.25 6.88v.62c-.84 0-2.09-1.87-3.75-5.62a15.91 15.91 0 0 0-3.75-3.75c-1.67-1.25-2.5-2.08-2.5-2.5 0-.83.2-1.25.62-1.25 1.25 0 3.12 2.3 5.63 6.87.41 2.09 1.66 3.96 3.75 5.63m-58.13-2.5c-.83-2.5-1.25-1.04-1.25 4.37 0 1.25-.42 1.88-1.25 1.88-1.67 0-2.5-.83-2.5-2.5l.63-.63c0-.41.2-.83.62-1.25l1.25-.62 2.5-1.25m-6.88 5c1.67 0 2.5.83 2.5 2.5s-1.04 2.5-3.12 2.5c-1.25 0-1.88-.63-1.88-1.88 0-1.66.84-2.7 2.5-3.12m-4.37 5h.63c.83 0 1.25.42 1.25 1.25 0 1.67-.42 2.5-1.25 2.5-1.25 0-1.88-.42-1.88-1.25 0-.83.42-1.67 1.25-2.5m142.5 1.25c2.08 2.08 3.12 3.54 3.13 4.37 0 3.76-.84 6.46-2.5 8.13h-3.75l3.12-12.5m89.38 17.5a31.76 31.76 0 0 0-.63 6.25c.42 1.67.83 3.13 1.25 4.37.42.84 1.04 1.88 1.88 3.13.83 1.25 1.25 2.08 1.25 2.5l-1.25 1.25c-.42.42-1.46 1.04-3.13 1.87l-1.88-6.87v-4.38l1.25-8.12h1.25m-104.38 15.62 3.13 3.75v1.88c0 .83-.42 1.25-1.25 1.25-2.08 0-3.33-.63-3.75-1.88v-5h1.88m82.5 38.75-3.13 13.13c0 1.25-.42 1.88-1.25 1.88-1.25 0-1.88-1.05-1.88-3.13h-.62c2.92-6.67 4.17-10.83 3.75-12.5l2.5-5.63v-5c1.25 0 1.87 1.46 1.88 4.38 0 .42-.21 1.25-.63 2.5 0 .83-.2 2.3-.63 4.38m3.13-1.25 1.88-8.13c.83 0 1.25 1.04 1.25 3.13l-.63 8.12a43.56 43.56 0 0 1-1.25 5v.63c-.83 5-2.08 7.5-3.75 7.5-.83 0-1.25-1.05-1.25-3.13 1.25-4.17 1.87-6.67 1.88-7.5.41-2.92 1.04-4.8 1.87-5.63m16.88 1.25c-1.67 1.67-3.34 2.71-5 3.13-4.17 0-6.26-.63-6.25-1.88.41-1.25.83-1.87 1.25-1.87h.62l9.38.63M600 551.03l1.87.63c4.58.83 6.87.83 6.88 0l-2.5 1.25-2.5 1.25c-1.25 0-2.09-.21-2.5-.63l-.63.63-1.25.62v-1.88l.63-1.87m.62 5.63v3.12c-1.25 0-1.88-.42-1.88-1.25 0-.42.42-1.04 1.25-1.88h.63m-400.62 1.25 1.25 6.25v4.38c-.83.83-1.46 1.25-1.88 1.25-1.66 0-2.5-1.04-2.5-3.13v-8.12l1.88-1.25 1.25.63m21.88 28.12 2.5-.63c1.66 0 2.5 1.05 2.5 3.13 0 2.92-1.46 4.38-4.38 4.38-.83 0-1.46-.63-1.88-1.88l2.5-1.88-1.25-3.12m8.13.63c1.67 0 2.5 1.04 2.5 3.12 0 3.33-.83 5-2.5 5s-2.5-.83-2.5-2.5l.63-3.13c.41-.41.62-.83.62-1.25l1.25-1.25m6.25 2.5c1.25 0 1.87 1.05 1.88 3.13 0 2.08-.84 3.13-2.5 3.13-.84 0-1.25-.42-1.25-1.25v-.63c.83-2.5 1.45-3.96 1.87-4.38" transform="translate(-146.86 -119.79)"/>
</svg>
