<svg xmlns="http://www.w3.org/2000/svg" viewBox="0 0 500 500">
    <path d="M146.86 619.79v-500h500v500h-500m7.5-7.5h485v-485h-485v485m7.5-7.5V135.41h469.38v469.38H161.86m230-445c2.5 3.33 5.62 5 9.38 5 4.16 0 7.29-1.25 9.37-3.75l5-8.75c1.67-2.92 3.96-4.37 6.88-4.38 2.91 0 5.2 1.46 6.87 4.38.42 2.08.63 3.75.63 5 .41 1.25.62 2.3.62 3.12 0 2.5-1.46 6.88-4.38 13.13a34.04 34.04 0 0 0-1.87 4.37l-1.25 2.5c-2.08 4.59-4.58 13.34-7.5 26.25l2.5-7.5 5.63-15 11.87-19.37a7.77 7.77 0 0 0 2.5-5.63c0-11.25-5.42-16.87-16.25-16.87-5.42 0-8.54 1.67-9.38 5l-4.37 11.87c-.83 2.09-2.5 3.13-5 3.13-4.58 0-7.3-1.67-8.13-5l-2.5-13.13c-.41-2.91-3.12-4.37-8.12-4.37-2.08 0-4.38.83-6.88 2.5a76.2 76.2 0 0 0-6.25 5.62 68.15 68.15 0 0 1-5 5.63l-1.87 2.5c-.42-.42-.83-.63-1.25-.63l-.63-.62-5-3.13-1.87 1.88c0 2.92 2.3 4.38 6.88 4.37 2.08 0 4.79-.83 8.12-2.5l8.75-10c.42-1.25 1.87-1.87 4.38-1.87 5.41 0 8.12 4.38 8.12 13.12v3.13m55.63 1.25-5 5a94.42 94.42 0 0 1-6.25 5.62l-3.75 5.63-8.13 15c-4.17 10.83-6.25 20.62-6.25 29.37v6.88c.42 2.92.83 7.08 1.25 12.5l2.5 5.62 4.38 10 6.25 5-3.13-6.87c-4.58-12.5-6.88-21.46-6.88-26.88.42-42.91 21.88-68.75 64.38-77.5l2.5-.62 1.25-.63c.83-.83 3.33-1.25 7.5-1.25l20 .63c10 0 20.63 3.75 31.88 11.25l9.37 8.12 1.88 3.75 5.62 11.25-2.5 8.13c-2.08 2.08-3.75 3.13-5 3.12-3.33 0-5-2.08-5-6.25 0-.83.2-1.45.63-1.87l3.75-6.88v-2.5c0-4.58-1.46-6.87-4.38-6.87h-3.13c1.25 2.5 1.88 4.38 1.88 5.62l-.63 5a43.52 43.52 0 0 1-1.25 5v6.25c2.5 7.09 6.25 10.63 11.25 10.63 6.25 0 10-5.2 11.25-15.63l5.63 2.5c2.5-5 3.75-8.74 3.75-11.25 0-11.25-6.46-18.95-19.38-23.12-1.66-.42-2.5-1.25-2.5-2.5 0-1.67.63-2.5 1.88-2.5-.42 0 2.92 1.04 10 3.12a54.75 54.75 0 0 1 8.13 11.88c2.91 7.92 8.74 11.87 17.5 11.87 8.33 0 12.5-1.66 12.5-5 0 .42-.42-1.04-1.25-4.37 7.5-2.5 11.25-7.7 11.25-15.63 0-2.08-.84-3.12-2.5-3.12h-.63l-13.13 5.62-10-.62-2.5.62h-.62l-33.13-8.75a72.12 72.12 0 0 0-6.87-1.25c-2.92-.41-6.67-1.04-11.25-1.87-2.08 0-3.54-.2-4.38-.63l-13.12-.62-18.75-.63c-19.58-.83-38.54 6.05-56.88 20.63m-3.75-17.5h1.88c2.08 0 3.12 1.25 3.13 3.75 0 2.92-1.25 5.2-3.75 6.87-2.09 1.25-3.13 2.09-3.13 2.5 0 1.67.2 2.71.63 3.13 7.91-5 11.87-9.58 11.87-13.75 0-3.75-2.08-5.62-6.25-5.63-.83 0-1.46.21-1.88.63l-2.5 2.5m-94.37 0c.83 3.33 1.87 5 3.13 5 2.5 0 3.74-1.46 3.75-4.38 0-2.08-1.05-3.12-3.13-3.12-1.25 0-2.5.83-3.75 2.5m-181.25 11.87c2.92-6.24 6.04-9.37 9.38-9.37 2.08 0 4.79 1.25 8.12 3.75l.63 8.12-8.75 21.25-1.25 7.5 3.12-5.62 7.5-13.75 3.75-6.88c.83-3.33 1.25-5.62 1.25-6.87 0-8.33-3.75-12.5-11.25-12.5s-11.67 4.8-12.5 14.37m136.25-13.12-1.25 5c0 3.75 2.5 5.63 7.5 5.62 2.08 0 3.75-.62 5-1.87l7.5-3.75c2.5-.83 3.96-1.25 4.38-1.25 4.58 0 6.87 1.67 6.87 5 0 5.42-5.63 8.13-16.88 8.12-4.16 0-6.66-.2-7.5-.62l-31.87-10-8.75-.63c2.5.84 4.58 1.46 6.25 1.88 22.92 9.58 37.92 14.37 45 14.37 12.08 0 18.13-4.58 18.13-13.75 0-5-4.17-7.5-12.5-7.5-3.76 0-6.46.84-8.13 2.5l-3.13 2.5-1.25.63-2.5.62h-.62c-3.33 0-5.42-2.29-6.25-6.87m59.38 1.25c-1.25 0-2.09.83-2.5 2.5l-.63 1.25c0 2.08 1.25 3.13 3.75 3.12 2.5 0 3.75-1.25 3.75-3.75 0-2.08-1.46-3.12-4.38-3.12m-155.62 145 20.63 9.37 4.38 2.5h5l-.63-5.62-3.13-1.25-5.62-2.5-8.75-2.5c-10.83-3.33-20.63-11.46-29.38-24.38-8.33-13.33-12.5-27.08-12.5-41.25 0-10 1.67-19.37 5-28.12 3.34-8.75 7.92-16.25 13.75-22.5a67.37 67.37 0 0 1 20.63-15 59.1 59.1 0 0 1 25.63-5.63c8.74 0 15.83 1.46 21.25 4.38 7.91 4.17 12.7 6.25 14.37 6.25 3.33 0 5.62-.2 6.88-.63-1.25-1.66-2.3-2.7-3.13-3.12-.42-.42-1.88-1.25-4.38-2.5l-6.25-3.13c-7.91-4.16-18.12-6.24-30.62-6.25-20 0-36.46 7.5-49.38 22.5-12.91 14.59-19.37 33.13-19.37 55.63 0 12.5 3.33 25 10 37.5 7.08 12.5 15.63 21.25 25.63 26.25m282.5-134.38 5 1.87 5 6.88c.41.42.83.62 1.25.62 1.25-.41 1.87-2.29 1.87-5.62 0-3.75-3.13-5.62-9.38-5.63h-.62l-3.13 1.88m-141.88-1.88c-2.08 0-3.12 1.25-3.12 3.75s1.25 3.76 3.75 3.75c2.5 0 3.75-1.25 3.75-3.75s-1.46-3.74-4.38-3.75m-119.38 4.38-4.37 2.5 2.5 1.25c1.25.42 2.7 1.04 4.38 1.87l1.87 3.13 1.88-5-5.63-2.5-.62-1.25m63.12 31.25 6.88 7.5a68.04 68.04 0 0 1 3.75 13.12 49.3 49.3 0 0 1 .62 13.75v39.38l-.63 24.37v6.88l-1.25 8.75.63 1.25 1.25 1.25.63-.63 18.12-16.87 16.88-11.25a4.24 4.24 0 0 0 1.25-3.13l-.63-3.12a31.75 31.75 0 0 1-.63-6.25V209.78c0-15.41 4.17-23.12 12.5-23.12l63.75.62 8.13-18.75h-28.75l-67.5-.62-41.88-1.25-5 1.25-6.25-.63-25-.62c-3.33 0-5 1.04-5 3.12 0 2.5 2.3 4.38 6.88 5.63l30.63 8.12 10.62 4.38m-83.13-15.63-3.74 5-4.38 3.13c-2.08 2.08-3.13 6.46-3.12 13.12v1.25l2.5 3.75c1.66 3.34 4.79 5.21 9.37 5.63l-.62-3.13c-4.17-2.91-6.67-6.45-7.5-10.62l3.75-.63-.63 1.88c0 1.67 1.25 3.13 3.75 4.37l1.88-7.5.62-3.12 6.88-5v-5c-.84-5-2.92-7.5-6.25-7.5l-2.5 4.37m245.62-3.12-10 10-6.25 8.75 4.37.62 43.13.63c13.75 0 27.5 6.25 41.25 18.75l8.12 12.5c.42.42 1.87 4.38 4.38 11.87 2.5 7.09 4.58 10.63 6.25 10.63 3.33 0 5-2.5 5-7.5v-5c-.84-5.42-1.67-9.8-2.5-13.13-.84-3.74-1.67-6.45-2.5-8.12l-10.63-26.88v-11.87h-4.38l-76.25-1.25m83.13 1.25-.63 6.25c0 2.5 1.25 6.46 3.75 11.87l3.13 9.38 1.88 3.75 1.87 5 2.5 9.37c.42 1.67.83 3.55 1.25 5.63.42 1.67.83 3.54 1.25 5.62v8.13c0 3.75-1.88 6.88-5.63 9.37l2.5 5c5.84-3.33 8.75-8.12 8.75-14.37 0-9.58-1.45-17.92-4.37-25l-11.25-28.75-.63-10-4.37-1.25m-310 .62v.63c-3.33 0-5 .83-5 2.5 0 2.5.2 4.17.63 5 5 0 7.29-1.87 6.87-5.63v-2.5h-2.5m395 11.25c-2.92 1.67-5 2.5-6.25 2.5s-4.17-1.66-8.75-5c1.67 6.67 6.46 10 14.38 10 3.74 0 5.62-2.29 5.62-6.87 0-2.92-.83-4.58-2.5-5l-1.88-.63-.62 5m-334.38 6.88c-7.08-2.92-12.08-4.8-15-5.63l-16.88-4.37-9.37-1.88v1.88c.42 2.5 3.75 4.17 10 5l24.38 4.37 6.25 1.88.62-1.25m-47.5-10-4.37 2.5-13.13 1.87c-7.08 1.25-10.42 5.63-10 13.13v1.25c1.67 6.67 6.46 10 14.38 10 1.25 0 2.29-.42 3.12-1.25l6.25-9.38c.83-.83 1.67-1.25 2.5-1.25.83 0 1.25.42 1.25 1.25 0 3.76-2.7 7.71-8.12 11.88l1.87 6.87c2.92 2.92 5.62 4.38 8.13 4.38 9.58 0 14.37-5.83 14.37-17.5 0-6.25-3.96-12.7-11.88-19.38a4.1 4.1 0 0 0-1.87-1.87l-2.5-2.5m353.75 1.87-8.13.63 2.5 6.25.63 11.25c3.75-4.17 5.62-7.92 5.63-11.25l-.63-6.88m6.88 0-4.38.63c.42 1.25.63 3.33.63 6.25 0 3.33-2.3 7.92-6.88 13.75l-1.88 1.87a111.52 111.52 0 0 1-10 5l-6.87 4.38-2.5 4.37c-3.75 6.26-5.63 12.71-5.63 19.38 0 2.5 1.25 3.75 3.75 3.75 1.25 0 3.13-.63 5.63-1.88l-1.88 9.38-.62-3.13c-2.5 5-3.75 8.96-3.75 11.88 0 4.17 1.25 9.58 3.75 16.25l6.25-2.5 1.25 14.37 5.63 6.88c-.42-1.25-.63-3.96-.63-8.13 0-7.08 2.08-12.08 6.25-15l8.75-7.5 3.13-5.62c.41-.42 1.04-.63 1.87-.63l1.25 1.25c.42 0 .83.42 1.25 1.25h2.5c5-11.66 7.5-21.66 7.5-30 0-2.91-1.04-7.5-3.13-13.75l-1.25 8.75h-3.75c3.34-9.58 4.8-15 4.38-16.25 0-2.08-1.04-5.83-3.13-11.25v6.25c.42 1.25-.41 5.42-2.5 12.5-3.33 7.5-5.41 11.25-6.25 11.25-1.25 0-1.87-.83-1.87-2.5l2.5-3.75 3.75-10 2.5-8.75c.42-.83.63-2.7.63-5.62 0-1.67-1.05-5.2-3.13-10.63l-3.13 19.38h-2.5l1.25-6.88c.42-2.08.63-3.95.63-5.62.42-1.67.63-2.92.63-3.75v-5.63m-259.38 92.5c3.74-1.66 5.62-3.33 5.62-5l-1.87-6.87v-15c0-2.92.2-6.04.62-9.38v-20l-.62-10.62c0-5.83.62-9.37 1.87-10.63 1.67-1.66 5.42-2.5 11.25-2.5h35c2.92 0 5.62.21 8.13.63h8.12c2.5.83 3.75-.63 3.75-4.38l-61.25-.62c-5 0-8.13 2.3-9.37 6.87v20c0 4.17-.21 9.17-.63 15l-1.25 35.63.63 6.87m92.5-78.75 72.5.63c-10.84-3.33-22.09-5-33.75-5h-4.38l-8.12.62h-6.88l-15.62-.62c-2.09 0-3.34 1.46-3.75 4.37m-175.63-1.87c1.67 5 2.92 7.5 3.76 7.5 1.25 0 1.87-.42 1.87-1.25v-1.25l-5.63-5m-70.62 1.25v5.62c-.42 6.67 1.87 10 6.88 10 .83 0 1.66-1.04 2.5-3.12l-1.88-.63 1.88-3.12a17.48 17.48 0 0 0-9.38-8.75m188.12 6.25c-2.08-2.08-4.17-3.12-6.25-3.13-3.75 0-5.63 1.05-5.62 3.13 0 2.92 2.29 4.38 6.87 4.37 2.92 0 4.58-1.45 5-4.37m16.88 6.87 3.75 5 1.25-.62-.63-1.88c0-3.74 1.04-5.62 3.13-5.62 4.58 0 7.7 3.96 9.37 11.87l4.38 15 .62-4.37-1.87-5-.63-7.5c-.83-11.25-5-16.88-12.5-16.88-4.58 0-6.88 2.09-6.87 6.25v3.75m-14.38-.62c.83 2.08 1.87 3.13 3.13 3.12 4.58 0 6.87-1.87 6.87-5.62 0-2.5-1.46-3.75-4.37-3.75-3.34 0-5.21 2.08-5.63 6.25m51.88 36.87c-.42-1.25-.63-3.12-.63-5.62v-5.63a26.5 26.5 0 0 1 6.25-17.5c4.58-5.41 9.8-8.12 15.63-8.12 9.58 0 14.37 3.96 14.37 11.87 0 5.42-2.5 8.13-7.5 8.13h-1.25l-11.87-4.38-1.25-.62-1.25.62c-4.59 2.09-6.88 5.42-6.88 10 0 5.84 2.5 8.76 7.5 8.75.83 0 2.08-.83 3.75-2.5-5-1.66-7.5-3.95-7.5-6.87 0-3.75 1.87-5.62 5.63-5.63h1.25l10 7.5a8.3 8.3 0 0 0 5 1.88c3.74 0 7.5-2.92 11.25-8.75.83-3.33 1.25-5.62 1.25-6.88 0-.83-.21-1.66-.63-2.5 0-1.25-.2-2.91-.62-5l7.5.63c-2.5-7.92-11.05-11.88-25.63-11.88-8.33 0-15.2 3.13-20.62 9.38-5.42 6.25-8.13 14.37-8.13 24.37 0 5.42 1.46 8.34 4.38 8.75m-176.88-22.5 5-.62v3.12l-3.13.63-7.5-.63c-5.83-.83-8.75.21-8.75 3.13 0 2.5 2.08 3.75 6.25 3.75 17.5 0 26.25-6.46 26.25-19.38 0-2.08-.62-3.54-1.87-4.37l-1.88-.63-5-1.87-9.37 16.87m103.75-16.87h-.63c-3.75 0-5.63 1.88-5.62 5.62 0 3.34 1.45 5 4.37 5 5 0 7.5-2.29 7.5-6.87 0-2.5-1.88-3.75-5.62-3.75m-65.63 0c-2.5 11.67-5.83 17.5-10 17.5-2.08 0-3.96-1.25-5.62-3.75l-1.25 5c0 3.75 1.87 5.63 5.62 5.62 7.92 0 11.88-5.62 11.88-16.87 0-3.75-.21-6.25-.63-7.5m5 .62c-.42 2.92-.83 5.42-1.25 7.5v5l-.62 3.75-2.5 4.38-1.88 5-3.75 2.5-3.75 6.87-6.25 4.38-4.37 4.37c-4.17 4.17-12.09 6.26-23.75 6.25-5.84 0-10.84-1.25-15-3.75l-5.63-3.12-2.5-1.25c-4.58-2.08-7.08-6.87-7.5-14.38v-.62c0-.83.63-2.08 1.88-3.75l3.75-3.75c0-.83-2.09-1.87-6.25-3.13-3.76-1.66-6.26-2.5-7.5-2.5-2.09 0-3.13.84-3.13 2.5v1.25l3.13 5 3.75 14.38c1.66 4.58 6.45 8.75 14.37 12.5a56.35 56.35 0 0 0 24.38 5.62c17.91 0 32.5-9.16 43.75-27.5 1.66-2.91 2.5-6.66 2.5-11.25 0-3.74-.63-9.16-1.88-16.25m70.63 10c.41 1.67 1.45 2.5 3.12 2.5 3.75 0 5.62-1.66 5.63-5 0-3.33-1.46-5-4.38-5-3.75 0-5.2 1.67-4.37 5v2.5m-141.88 4.38 5 5v3.75c-5 .83-7.5 2.5-7.5 5 0 1.25.62 1.88 1.87 1.87 6.25 0 9.37-2.5 9.38-7.5 0-4.58-2.5-8.74-7.5-12.5a27.43 27.43 0 0 0-16.88-5.62c-8.75 0-13.12 3.33-13.12 10 0 6.25 2.08 9.38 6.25 9.37.83 0 1.25-.2 1.25-.62l.62-1.25c0-.83-.83-1.87-2.5-3.13-1.25-1.25-1.88-2.29-1.87-3.12 0-4.58 3.54-6.87 10.62-6.88 1.25 0 6.04 1.88 14.38 5.63m253.12 23.12h-9.38l8.13 19.38 9.37 5c2.92 1.67 5.42 3.13 7.5 4.37 2.08.84 3.54 1.46 4.38 1.88l23.12 8.75 5.63 3.12 5.62 3.75a97.81 97.81 0 0 0 6.88 5c2.5 1.67 4.79 3.34 6.87 5v1.25c-.83-.41-1.88-.83-3.13-1.25a15.8 15.8 0 0 1-3.75-1.87c-11.66-9.17-23.75-13.75-36.25-13.75-12.08 0-18.12 2.3-18.12 6.87l4.38 4.38c-8.34 4.58-12.09 8.96-11.25 13.12l.62 5a17.75 17.75 0 0 0 14.38 6.88h1.87a23.43 23.43 0 0 1-2.5-10.63c0-9.58 5.83-14.37 17.5-14.37 6.67 0 14.38 3.13 23.13 9.37l9.37 5.63 11.88 10.62 7.5 8.13 10.62 12.5 5 8.75c4.17 6.25 6.46 9.38 6.88 9.37.83 0 1.45-.2 1.87-.62l.63-1.25c1.25 0 2.5-.2 3.75-.63 1.66-.41 2.5-2.08 2.5-5 0-4.58-6.46-15.83-19.38-33.75a161.23 161.23 0 0 0-12.5-16.25c-3.75-4.16-7.08-7.29-10-9.37l-25-17.5-5-2.5-5.63-3.13v-1.25l-8.12-2.5-5-4.37a7.33 7.33 0 0 0-1.87-1.25 30.03 30.03 0 0 1-3.13-1.88c-8.75-5.41-13.12-13.33-13.12-23.75 0-12.5 5.83-18.75 17.5-18.75 4.16 0 8.54 2.5 13.12 7.5.42.84.63 2.09.63 3.75 0 2.5-.84 3.76-2.5 3.75-11.67 1.67-17.71 3.76-18.13 6.25l-.62 1.88.62 5v3.12c0 .42 2.92 2.92 8.75 7.5.42.42 1.25.63 2.5.63h.63c.83-.42 1.87-.83 3.12-1.25l-1.87-2.5c-6.26-1.25-9.38-4.37-9.38-9.38 0-2.5 1.67-4.16 5-5l6.25-.62 6.88-1.25c2.91-2.92 4.37-6.25 4.37-10 0-9.17-5.63-13.75-16.88-13.75-18.33 0-27.5 7.92-27.5 23.75v3.12c.42 1.25.84 2.92 1.26 5m-95.63-28.75h-.62c-3.34 0-5 2.09-5 6.25 0 1.67.83 2.5 2.5 2.5 4.16 0 6.24-2.08 6.25-6.25 0-1.66-1.05-2.5-3.13-2.5m10.63 1.88v1.87l-6.25 3.13-.63 2.5-2.5 1.87-1.87 13.13-8.13.62v5a24 24 0 0 0 1.25 3.13l1.25 2.5 5.63 3.75 13.75 1.25 15.62 6.87 8.75.63c1.67.42 2.5-.2 2.5-1.88 0-.83-1.25-2.91-3.75-6.25-.42-.83-.83-1.87-1.25-3.12a34.47 34.47 0 0 0-1.87-4.38l-2.5-.62c-1.25-.83-3.55-1.67-6.88-2.5l-3.12-1.25-6.88-3.75c-2.08-3.33-3.13-6.04-3.12-8.13 0-4.58 2.29-6.87 6.87-6.87 1.25 0 3.54.62 6.88 1.87v-1.87c.41-2.92-4.17-5.42-13.75-7.5m-40 25.62c4.16 9.59 12.08 14.8 23.75 15.63l-5-3.75-10-5.63c-4.59-2.5-6.88-7.29-6.88-14.37 0-6.25 3.12-10.63 9.38-13.13v-3.12h-1.88c-7.92 0-11.87 5.2-11.87 15.62 0 2.92.83 5.84 2.5 8.75m16.25-20c-2.92 0-5 1.67-6.25 5v.63c0 2.5 1.66 3.75 5 3.75 4.58 0 6.87-1.67 6.87-5 0-2.92-1.88-4.37-5.62-4.38m-181.25 33.13c1.25 4.58 3.74 8.96 7.5 13.12l5.62 5.63c.83.83 1.87 1.88 3.13 3.12a14.67 14.67 0 0 0 5 3.13l6.25 4.37 5.62 2.5-5-4.37-6.87-4.38-9.38-8.12c-5.42-5.42-8.13-11.67-8.12-18.75 0-6.25 2.5-9.37 7.5-9.38 2.5 0 5.41 1.67 8.75 5v-4.37c0-1.25-1.25-3.54-3.75-6.88a8.48 8.48 0 0 0-6.25-2.5c-7.5 0-11.25 5-11.25 15v3.13c.41.83.83 2.08 1.25 3.75m78.12-13.13c-1.25-4.58-4.17-6.87-8.75-6.87-.83 0-2.3.2-4.37.62-1.67 0-3.96.21-6.88.63l.63 3.12-2.5-.62c-1.25-3.75-3.13-5.62-5.63-5.63-1.67 0-2.5 1.05-2.5 3.13s1.87 3.96 5.63 5.62c5.41 2.92 9.58 4.38 12.5 4.38 2.5 0 6.45-1.46 11.87-4.38m30.63-6.87-5 6.87-9.38 10c-1.25.84-2.92 1.88-5 3.13a231 231 0 0 0-5.62 4.37l-11.88 6.25c-6.25 3.34-9.38 7.92-9.37 13.75 0 7.92 3.12 11.46 9.37 10.63l3.13-.63c-3.34-4.58-5-7.91-5-10 0-2.5 5.83-7.5 17.5-15 13.75-9.16 20.83-18.95 21.25-29.37m229.38 27.5h-1.25c-5.84 0-8.76-2.5-8.75-7.5 0-6.25 1.66-9.37 5-9.38h3.12v2.5l-3.13 3.13c-.83.83-1.25 1.46-1.25 1.87 0 1.25.84 1.88 2.5 1.88l6.25-4.38c1.25-2.5 1.88-4.58 1.88-6.25 0-2.5-1.88-3.74-5.63-3.75-8.33 0-12.5 4.59-12.5 13.75 0 7.92 3.34 11.88 10 11.88 2.5 0 3.75-1.25 3.75-3.75m-91.87-15-3.75 3.75 1.88 3.75 1.87 4.37c2.92-1.66 5-2.5 6.25-2.5s2.92.63 5 1.88v.62c0 5-6.46 7.5-19.37 7.5-2.92 0-8.76-.62-17.5-1.87l-3.75-1.25-2.5-1.25c-7.09-2.92-11.88-4.37-14.38-4.38-2.5 0-3.75 1.46-3.75 4.38h-5l-10-1.25h-3.75l-3.75 1.87c-2.5 1.25-3.75 2.3-3.75 3.13 0 1.25.83 2.7 2.5 4.37l2.5 3.75 5.63 1.88.62 1.87c-2.92.42-4.38 1.46-4.37 3.13 0 2.5 2.91 3.75 8.75 3.75h10c.83-.83 3.12-2.5 6.87-5 .42.42.63 1.04.63 1.87 0 1.25-1.46 2.09-4.38 2.5a65.07 65.07 0 0 0-8.12 2.5l-2.5.63-3.75 3.12-4.38 1.25c-.83.84-2.08 2.71-3.75 5.63l-3.75 6.25.63 4.37 6.25-1.25.62 11.25c3.33 4.59 6.04 6.88 8.13 6.88h.62c2.5-.42 5.62-1.04 9.38-1.88a14.46 14.46 0 0 1-4.38-10.62c0-9.58 6.46-17.7 19.38-24.38 12.91-6.66 28.54-10 46.87-10a172.7 172.7 0 0 1 35 3.75c2.5.84 3.54 1.25 3.13 1.25.41 0 1.66-.62 3.75-1.87 2.08-1.25 6.45-1.87 13.12-1.88l-15-6.25-11.25-6.87-8.75-8.75a85.95 85.95 0 0 1-8.12-1.88c-8.76-2.91-14.17-4.37-16.25-4.37-2.09 0-5.21-1.25-9.38-3.75m-268.12 20.62h1.25l1.25-3.75h3.75l6.25 3.13-4.37-6.25c-.84-.83-2.09-1.25-3.75-1.25-2.92 0-4.38 1.67-4.38 5v3.12m35-5.62c.83 2.08 1.87 3.13 3.13 3.12h4.37l1.88-.62c4.58 0 10.41 2.92 17.5 8.75 5 5.83 7.7 9.17 8.12 10l4.38 11.25a28.31 28.31 0 0 1 1.87 10v1.25l-1.87 15.62-1.25 8.13-3.75 10.62 1.87 4.38a75.86 75.86 0 0 0 8.13-34.38c0-13.75-3.96-25.41-11.88-35-7.5-9.58-16.87-14.37-28.12-14.37-.84 0-1.46.2-1.88.62l-2.5.63m152.5 3.75-3.12 3.75c2.08-.83 3.12-1.87 3.12-3.13v-.62m195.62 8.75c.42 4.58 2.3 8.96 5.63 13.12l5.62 8.13a14.25 14.25 0 0 0 6.25 6.87l5.63 8.13 6.25 10.62 9.37 15v-.62c0-5-2.08-10.83-6.25-17.5l-9.38-13.75-13.75-18.13c-2.08-3.33-3.12-5.83-3.12-7.5v-2.5c.42-1.25.83-2.7 1.25-4.37l5 1.87 2.5 3.75 1.88-4.37c-2.5-4.58-5.21-6.87-8.13-6.88-5.42 0-8.33 2.71-8.75 8.13m-251.88 8.75-1.25-1.88a23.43 23.43 0 0 1-10.62 2.5c-6.67 0-10-2.29-10-6.87v-.63l5-6.25-5-.62c-1.67 0-3.13 1.04-4.38 3.12a10.06 10.06 0 0 0-1.25 4.38c0 6.67 3.96 10 11.88 10 2.91 0 8.12-1.25 15.62-3.75m48.75-7.5-18.12 10.62-14.38 12.5-5.62 4.38-6.25 8.75-5.63 4.37-1.25 3.13-3.75 5c-3.75 5.83-8.75 16.46-15 31.87l-1.25 3.13-.62 5-5.63 25c-.42 1.67-.83 3.54-1.25 5.62v16.25c5-.83 7.08-2.5 6.25-5v-3.12c-.83-20 4.17-40.42 15-61.25 10.42-20.83 23.13-36.46 38.13-46.88l18.12-11.87c1.25-.83 3.96-2.08 8.13-3.75 4.16-1.67 6.24-2.7 6.25-3.13 0-2.5-.84-3.95-2.5-4.37l-1.25-.63h-.63l-8.75 4.38m-170.62 8.75-.62.62-.63 7.5c-.42 8.34 2.3 16.25 8.13 23.75 6.24 7.09 13.54 11.67 21.87 13.75l6.88 1.88v-2.5l-6.88-3.13c-17.92-7.91-26.87-19.79-26.87-35.62 0-3.75.62-6.67 1.87-8.75 2.5-3.75 3.75-6.25 3.75-7.5v-.63c0-1.25-.62-1.87-1.87-1.87-.42 0-2.3 4.17-5.63 12.5m409.38-4.38-.63 3.13c0 2.5 1.88 3.75 5.63 3.75h5.63v2.5l-8.75-.63-1.88-1.25c.83 6.26 6.04 10.21 15.63 11.88 1.66-2.5 3.12-3.75 4.37-3.75 2.08 0 4.58.83 7.5 2.5l6.25 7.5c.42-1.25.63-3.96.63-8.13 0-6.24-1.25-9.79-3.75-10.62l-6.88-2.5 1.88-8.13c-.42-.41-1.25-.62-2.5-.62-2.09 0-5 1.04-8.75 3.12-3.34 1.67-5.84 2.5-7.5 2.5h-3.13c-.83-.41-2.08-.83-3.75-1.25m-233.75 10.63c-.42 2.08-.83 3.96-1.25 5.62v3.13c0 2.08.63 4.38 1.88 6.87l4.37 4.38c-2.08-7.08-3.13-11.67-3.12-13.75 0-4.17.83-7.08 2.5-8.75 3.33-3.33 5-5.2 5-5.63 0-.83-.42-1.25-1.25-1.25-1.25 0-3.96 3.13-8.13 9.38m110 8.75c-2.08 2.08-3.75 3.13-5 3.12-1.25 0-3.13-.62-5.62-1.87l-1.25-6.25c0-6.25 6.04-9.37 18.12-9.38 1.25 0 3.12.42 5.63 1.25 2.91.84 5 1.25 6.25 1.25.83 0 1.66-1.04 2.5-3.12-4.17-.83-7.92-1.46-11.25-1.88a41.12 41.12 0 0 0-10-1.25c-15 0-22.5 4.8-22.5 14.38 0 8.75 4.79 13.12 14.37 13.12 5.83 0 8.75-3.12 8.75-9.37m-212.5-.63 1.88 5 1.87.63 10-1.25 15.63-3.13 13.12-5c4.58-1.25 6.87-3.12 6.88-5.62 0-2.08-1.05-3.12-3.13-3.13-1.25 0-2.08.63-2.5 1.88l-1.87 2.5c-.42.42-1.67.62-3.75.62-1.67 0-6.05 1.25-13.13 3.75-7.08 2.5-13.75 3.76-20 3.75h-5m165.62-11.25c-3.33 4.59-5 7.5-5 8.75s1.04 4.38 3.13 9.38l-1.25 1.87h-.63c-2.5-.41-3.75.42-3.75 2.5 0 3.76 2.5 6.88 7.5 9.38 2.5 1.25 4.58 1.88 6.25 1.87l1.88-.62 15.62-4.38h1.88c2.91 0 4.37.84 4.37 2.5 0 1.67-.2 2.71-.62 3.13h-8.13c-5 0-10.83 2.7-17.5 8.12v7.5c6.67-3.74 10.63-5.62 11.88-5.62l23.75.62c9.58.84 14.37-2.91 14.37-11.25 0-6.24-4.17-9.37-12.5-9.37l-16.25-3.13-10-3.75c-7.5-4.58-11.46-8.33-11.87-11.25l-.63-5h-.62a7.29 7.29 0 0 0-1.88-1.25m-70 .63c-2.92.42-4.38 1.67-4.37 3.75l.62 11.87-.62 6.88.62 9.37v16.88l4.38 1.25-.63-50m-152.5 15.62-.62-2.5c0-4.16 2.08-6.24 6.25-6.25h2.5l28.75 9.38 8.75 1.25v-1.88l-26.88-8.12-8.75-4.38c-.42-.41-2.08-.62-5-.62-6.25 0-9.38 2.5-9.37 7.5 0 3.75 1.45 5.63 4.37 5.62m120 10.63-3.75 5-3.12 3.75-3.13 3.75c-.83.83-1.25 2.7-1.25 5.62v2.5c.42.42.63 1.88.63 4.38l.62 17.5-2.5 172.5c0 7.08-4.58 13.33-13.75 18.75-8.75 5.42-18.54 8.13-29.37 8.13-8.34 0-12.5 2.08-12.5 6.25 0 3.33 5.41 4.58 16.25 3.75h5.62c17.5-.84 30.42-1.46 38.75-1.88a1305 1305 0 0 1 13.75-.63l64.38 3.75c9.16 0 13.75-1.45 13.75-4.37v-1.88l-1.25-.62-.63-.63-28.12-4.37c-4.59-.83-10-3.54-16.25-8.13l-2.5-1.87c-7.92-10.42-11.88-23.54-11.88-39.38v-4.37l.63-25v-16.88l.62-76.25v-13.12c.83-6.67 3.12-10.2 6.88-10.63l13.12-1.25c1.25 0 3.75-3.95 7.5-11.87.42-1.67 1.67-3.54 3.75-5.63l-26.87-.62c-3.34-1.25-4.59-2.92-3.75-5v-42.5c-10 7.08-18.55 14.17-25.63 21.25m-36.25-3.75-8.75 6.87c0 .84.2 1.25.63 1.25.41 0 2.91-1.25 7.5-3.75l5.62-3.75 12.5-10.62 3.75-1.88v-1.25c0-1.25-.42-1.87-1.25-1.87-1.67 0-4.38 2.08-8.12 6.25-3.76 4.17-6.46 6.67-8.13 7.5l-3.75 1.25m225 17.5-5 7.5c-2.92 2.08-6.67 3.75-11.25 5-4.17.83-7.3 1.25-9.37 1.25l-5.63-.63-18.75.63-51.87-1.25c-4.59-.83-9.8 5.63-15.63 19.37l91.88 1.25c17.91 0 27.7 13.34 29.37 40 .83 6.67 3.12 11.88 6.88 15.63l3.12-4.38-1.88-51.87 1.88-22.5v-19.38l.63-13.12c.83-5-.21-7.92-3.13-8.75-2.5 0-4.58 6.25-6.25 18.75a44.46 44.46 0 0 1-1.87 5.62c-.42 2.09-1.46 4.38-3.13 6.88m16.25-29.38v26.25l-1.25 20.63 1.25 64.37-1.88 6.88-.62.62 3.13.63c2.91 0 4.37-1.67 4.37-5l-1.25-32.5.63-5-.63-18.75 1.25-18.75.63-6.25-.63-20.63v-5c0-2.91-1.67-5.41-5-7.5m-219.38 3.13-3.12 1.87-3.13 3.13c-6.25 6.25-9.8 10.62-10.62 13.12l-2.5 4.38-7.5 11.87-6.25 13.75-16.25 57.5c-2.5 8.76-7.92 16.25-16.25 22.5-7.92 6.26-16.25 9.38-25 9.38-13.34 0-23.34-5.62-30-16.88a21.06 21.06 0 0 1-3.75-11.87c0-2.08.2-3.54.62-4.38l5.63-10.62-.63-3.13-5 6.88c-2.08 3.33-3.13 6.67-3.12 10 0 9.58 3.33 17.5 10 23.75 6.66 6.25 15.2 9.38 25.62 9.37a48.4 48.4 0 0 0 26.88-8.12c8.33-5.83 13.75-12.7 16.25-20.63l17.5-60c5-17.91 15-33.54 30-46.87l.62-5m-30 6.87c-.83-1.25-1.67-1.87-2.5-1.87-2.5 0-3.75 1.04-3.75 3.12 0 1.67.83 2.5 2.5 2.5s2.92-1.25 3.75-3.75m-69.37 8.75 4.37-3.12c.83-.83 2.08-1.25 3.75-1.25 8.33 0 12.5 3.13 12.5 9.37 0 3.76-1.67 8.55-5 14.38l-2.5 3.75-1.25 1.25-.62.62c0 1.25.62 1.88 1.87 1.88 2.5 0 5-3.33 7.5-10 2.08-7.08 3.12-11.46 3.13-13.13 0-8.33-4.8-12.5-14.38-12.5-8.33 0-12.5 2.5-12.5 7.5 0 .84.2 1.25.63 1.25h2.5m56.25-5.62c-2.5 0-3.76 1.88-3.75 5.62 0 3.76 1.87 5.63 5.62 5.63 3.33 0 5-1.67 5-5 0-4.17-2.3-6.25-6.87-6.25m96.25 20c4.16 4.17 8.95 6.25 14.37 6.25 4.17 0 7.7-.83 10.63-2.5l2.5-1.88-5.63-.62-6.25.62-1.25.63c-6.25.83-9.38-1.87-9.37-8.13 0-1.25.62-2.91 1.87-5a8.3 8.3 0 0 0 5 1.88l1.25-1.25c0-3.33-1.88-5-5.62-5-5.42 0-7.92 3.33-7.5 10v5m268.12-14.38-11.25 7.5-.63 1.88-2.5-1.25-1.25-3.13-1.88.63-3.75 5-4.37 14.37 3.75 2.5 1.25 6.25c0 1.25-2.08 4.59-6.25 10-4.58 1.25-7.5 1.88-8.75 1.88-4.58 0-7.5-2.7-8.75-8.13l-1.88-1.25c-2.08.42-3.54 1.05-4.37 1.88-1.25-.42-5-1.04-11.25-1.88l-3.13-.62c-.41 0-2.29.42-5.62 1.25l-3.75 2.5-3.13 3.12c.42.42.63.84.63 1.25l1.25 1.25.63 2.5-7.5 3.75c-4.17 4.17-6.26 7.5-6.25 10 0 2.09 2.7 3.13 8.12 3.13h5l7.5.62c-.83 3.34-1.25 4.8-1.25 4.38 0 2.08 1.25 3.13 3.75 3.12 8.33 0 15-5 20-15l2.5-1.87.63 1.87c-2.5 5-3.76 8.76-3.75 11.25 0 3.34.83 6.67 2.5 10 1.66 3.34 3.33 5 5 5h1.25c.41-2.91 1.66-4.37 3.75-4.37.83 0 1.25.2 1.25.62l.62 4.38.63.62 5 6.25c.41 1.25 2.91 3.13 7.5 5.63l.62-4.38 3.13-8.75 8.12-8.75 1.88-5.62 4.37-1.25c-.42-15.42-5.83-23.13-16.25-23.13-2.5 0-5.63 2.09-9.38 6.25l1.25 3.13 2.5 1.87.63 1.88c-.42.42-.63 1.46-.63 3.12 0 2.5.84 5.21 2.5 8.13l-3.12 1.87 1.88-.62-2.5-.63-1.25-6.87-1.88-6.25c-1.25-3.33-2.5-5-3.75-5-1.67 0-2.5.62-2.5 1.87 0 .84.2 1.46.63 1.88l-.63 4.37c-.42-.41-1.04-.62-1.88-.62l-.62-2.5c0 .42-.42-1.04-1.25-4.38l-6.25-1.25-5.63-5.62-6.25 1.87h-5.62l6.25-3.12a70.9 70.9 0 0 1 5-.63l9.38 5.63c2.5.83 4.16 1.25 5 1.25 4.58 0 8.74-1.87 12.5-5.63 3.74-3.74 5.62-7.7 5.62-11.87 0-.83-.2-1.87-.63-3.13 0-1.25-.2-2.91-.62-5l3.75-5.62 1.88.62-2.5 5.63 1.25 6.87-3.13 10c12.08-2.08 18.13-8.95 18.13-20.62l-3.75-1.88 1.87-6.87 1.25-11.88c0-.41-.2-.83-.63-1.25m-259.38 87.5c3.34 2.09 5.42 3.13 6.26 3.13 1.66 0 2.5-1.25 2.5-3.75v-1.25a36.05 36.05 0 0 1-5-18.13c0-13.75 3.12-24.58 9.37-32.5 6.25-8.33 17.92-16.87 35-25.62 1.67-.42 3.75-1.46 6.25-3.13-2.08-2.08-3.54-2.7-4.37-1.87l-10 3.12-27.5 18.75c-3.34 2.09-7.09 8.13-11.25 18.13-3.34 8.75-5 15.83-5 21.25 0 4.17 1.25 11.46 3.75 21.87m121.88-83.12-1.25 5.62c5.41 2.92 9.16 4.38 11.25 4.38 2.08 0 3.12-.83 3.12-2.5 0-1.25-4.38-3.75-13.12-7.5m-217.5 1.25c-2.09.83-3.13 2.3-3.13 4.37 0 2.92 1.46 4.38 4.38 4.38 2.91 0 4.37-1.67 4.37-5 0-2.5-1.46-3.75-4.37-3.75h-1.25m-77.5 2.5-3.13 7.5-2.5 5.62-1.25 3.13v.62c0 1.25.63 1.88 1.88 1.88l1.25-.63 4.37-10.62 1.88-4.38-2.5-3.12m-7.5 2.5c-7.92 2.92-11.88 6.46-11.88 10.62 0 4.17 2.5 7.92 7.5 11.25 5.42 2.92 10.42 4.38 15 4.38 6.67 0 10-1.25 10-3.75-.83-.83-1.46-1.25-1.87-1.25l-11.88 1.25c-9.58.83-14.37-3.75-14.37-13.75 0-2.5 2.5-4.17 7.5-5v-3.75m368.12.62a19.47 19.47 0 0 1-1.25 3.75v2.5c0 7.09 3.12 11.46 9.37 13.13a7.77 7.77 0 0 1-2.5-5.63c0-2.5 1.67-3.74 5-3.75 2.5 0 5 1.88 7.5 5.63l4.38 5 1.25-.63c.41-.41.62-1.04.62-1.87v-1.88l-2.5-2.5a54.34 54.34 0 0 0-5-5.62l-3.13-3.75c-2.91-2.92-6.87-4.37-11.87-4.38h-1.88m-18.74 13.75 1.25 5 2.5 3.75 4.37 6.25c0-4.16-.63-7.5-1.88-10-1.24-2.5-1.87-4.58-1.87-6.25 0-2.5.83-3.74 2.5-3.75 1.67 0 2.7.21 3.13.63l2.5 3.12.62-3.75c0-4.58-2.08-6.87-6.25-6.87-5.42 0-8.13 2.08-8.13 6.25 0 .42.42 2.3 1.26 5.62m-336.88-8.12c8.74 4.58 13.12 10.83 13.12 18.75 0 8.75-4.58 13.33-13.75 13.75 2.92 1.67 5.2 2.5 6.88 2.5 7.5 0 11.25-5 11.25-15 0-8.75-3.13-15-9.38-18.75l-6.87-3.75-1.25 2.5m30.62 4.37c9.58 7.92 14.8 21.05 15.63 39.38 2.5-.42 3.74-1.67 3.75-3.75 0-7.92-1.67-14.8-5-20.63l-4.38-9.37c-3.33-5-5.83-7.7-7.5-8.13h-1.25l-1.25 2.5m72.5-.62-5.62 12.5a101.62 101.62 0 0 0-6.88 37.5c0 9.58 2.92 14.37 8.75 14.37 1.67 0 3.33-.83 5-2.5-6.25-2.5-9.38-7.7-9.37-15.62 0-5.83.62-11.88 1.87-18.13l5.63-21.87.62-6.25m96.88 0-5 3.75-10.63 10.62-1.87 6.88-1.88 3.75c-.42.42-.62 1.67-.62 3.75 0 7.92 3.95 11.87 11.87 11.87 4.17 0 6.25-1.25 6.25-3.75l-.62-3.75-5.63 2.5h-.62c-2.92 0-4.38-2.91-4.38-8.75 0-5.83 4.37-14.79 13.13-26.87m-129.38 10.62-3.13 6.25-8.75 18.13c-3.33 7.5-8.54 11.25-15.62 11.25-5 0-7.09-2.3-6.25-6.88v-3.12c-4.17 1.67-6.26 3.75-6.25 6.25 0 5.83 3.74 8.75 11.25 8.75 2.08 0 5.2-1.46 9.37-4.38l5.63-3.12 3.12-5 5-12.5 4.38-10 1.25-5.63m263.75 1.25v5.63c-.42 1.25 0 3.54 1.25 6.87l2.5 5.63c3.33-2.08 5-3.75 5-5 0-.83-.63-2.3-1.88-4.38l-1.87-3.75-5-5m-298.75 3.75c-10.84 14.59-21.46 23.96-31.88 28.13-2.92.42-4.38 1.25-4.37 2.5 0 1.25.2 2.08.62 2.5a74.2 74.2 0 0 0 5.63-2.5 74.8 74.8 0 0 1 5.62-2.5l3.75-4.38 3.75-1.25 9.38-8.12 3.75-3.13 3.12-5 2.5-2.5-1.87-3.75m-50 2.5c-.42 1.25-.63 3.13-.63 5.63v4.37c0 15 6.04 26.67 18.13 35v1.25c6.24 3.34 13.33 5.21 21.25 5.63l2.5-.63 3.75-2.5 6.87-2.5 3.13-3.75 3.75-3.75v-.62c-.84-.83-1.46-1.25-1.88-1.25-.83 0-1.46.2-1.87.62l-10 8.75c-1.67 1.67-5 2.5-10 2.5-11.25 0-19.8-5.41-25.63-16.25-4.58-10-6.88-17.29-6.87-21.87l.62-2.5v-3.75c0-2.08-1.04-3.54-3.12-4.38m205.62 6.88-.63 4.37 105.62.63a25.9 25.9 0 0 0-15.62-5h-89.38m-42.5 154.38c0 6.67 1.25 12.5 3.75 17.5l3.13 5-1.88-11.88v-152.5c0-5 3.12-7.91 9.38-8.75l1.25-4.37h-3.75c-7.92-.42-11.88 1.25-11.88 5v150m88.75-136.88 1.25-1.88 2.5.63c-.83-5-2.5-7.5-5-7.5s-3.75 1.46-3.75 4.37c0 .84 1.67 2.3 5 4.38m15.63-3.75c-6.67.42-10 3.33-10 8.75 0 2.92.62 4.38 1.87 4.37-.42 0 .63-.41 3.13-1.25v1.88c-.42 1.67 0 2.5 1.25 2.5a8.7 8.7 0 0 0 3.75-.63v-1.25c-.84-1.25 0-1.87 2.5-1.87v1.87c0 1.25.41 1.88 1.25 1.88 1.66 0 2.7-1.46 3.12-4.38h2.5v2.5c2.92-1.25 4.8-3.54 5.63-6.87h1.25v3.75a8.3 8.3 0 0 0 1.87 5l4.38-2.5-1.25 3.75c0 1.67.83 2.5 2.5 2.5a7.25 7.25 0 0 0 1.87-1.25l1.25-1.25v4.37h3.75l2.5.63c2.08 0 3.12-2.08 3.13-6.25 0-5.42-1.67-8.75-5-10l-8.13-3.75-3.75-6.25c-.83 0-1.67.42-2.5 1.25-.42.42-5.42 1.25-15 2.5h-1.87m-66.88 5c2.92 2.92 4.37 5.83 4.38 8.75 0 2.5-1.67 5.63-5 9.37-3.34 3.34-5 6.26-5 8.75 0 5 1.45 7.5 4.37 7.5h.63l10-1.87 14.37-.63c4.17 0 9.8.63 16.88 1.88l1.87-2.5h-3.12l.62-3.13 3.75 1.88 1.88-1.88-3.13-3.12.63-1.88 5 1.25-1.25-4.37-3.13-2.5c-.83-.42-3.33-1.04-7.5-1.88-3.75-.83-5.63-1.66-5.62-2.5 0-1.25.83-1.87 2.5-1.87-.42 0 1.04.42 4.37 1.25 5 2.08 7.7 3.13 8.13 3.12h2.5a60 60 0 0 1 4.37-1.25l-5-5.62 5 1.87 1.88 1.25v-.62c.41-4.17-.63-6.87-3.13-8.13a38.64 38.64 0 0 0-6.87-4.37l-3.75-.63a26.85 26.85 0 0 0-5-.62 4.82 4.82 0 0 0-1.88-.63c-2.08 0-5.42.84-10 2.5-4.17 1.25-7.3 1.88-9.37 1.88h-4.38c-.83 0-2.08-.2-3.75-.63l-6.25-.62m163.12 33.75 5.63.62v-6.25c0-3.74-.63-8.54-1.88-14.37a60.91 60.91 0 0 0-1.25-4.38 60.91 60.91 0 0 0-1.25-4.37l-5-1.25 3.75 30m-46.87-28.75-5 .62 1.25 1.88c-3.76 2.08-5.63 3.96-5.63 5.62v2.5l6.25-3.12 2.5-3.75 1.25-1.25-.62-2.5m56.25 29.37 1.87.63v-5.63c-.83-8.74 1.87-13.12 8.13-13.12 3.74 0 5.62 1.88 5.62 5.62 0 2.09-1.25 4.38-3.75 6.88.42.42 1.46.62 3.13.62 4.58 0 6.87-2.91 6.87-8.75 0-6.24-3.75-9.37-11.25-9.37-7.08 0-10.62 7.7-10.62 23.12m-90.63-20.62c-1.25 0-1.88.83-1.87 2.5 0 2.08 1.04 3.13 3.12 3.12 1.25 0 1.87-.83 1.88-2.5 0-1.25-1.05-2.29-3.13-3.12m-15.62 10c2.08 2.08 3.54 3.13 4.37 3.12 3.33 0 5.42-3.12 6.25-9.37 0-2.08-1.67-3.12-5-3.13-4.58 0-6.46 2.3-5.62 6.88v2.5m81.87-2.5h2.5c3.75 0 6.87 1.67 9.38 5-1.25-6.67-3.76-10-7.5-10-2.92 0-4.38 1.46-4.38 4.37v.63m-91.25-5-2.5 1.87c-.42.42-.62 1.05-.62 1.88 0 4.58 2.29 6.88 6.87 6.87 1.67 0 2.5-2.08 2.5-6.25 0-2.08-.62-3.12-1.87-3.12l-4.38-1.25m47.5 2.5c-.83 3.33-1.25 5.42-1.25 6.25 0 1.67 1.25 3.13 3.75 4.37v2.5c0 2.09 1.67 3.13 5 3.13l-.62 5c.41.42 1.45.62 3.12.62h3.13c.41 0 .62.21.62.63 0 .83-.2 1.25-.62 1.25l-3.75.62v2.5l3.12 3.13c-2.92 1.25-4.38 2.3-4.37 3.12.41.42.62.84.62 1.25l1.88 1.88v1.87h-.63c-1.67 0-2.5.42-2.5 1.25 0 1.67 1.25 3.96 3.75 6.88h-1.87v2.5c1.66 1.67 3.33 2.5 5 2.5 1.25 0 2.7-1.46 4.37-4.38a24.91 24.91 0 0 0 3.13-8.12l1.87-12.5 1.25-5.63-3.75-3.12-8.12-12.5c-2.5-3.75-6.05-5.62-10.63-5.63h-1.25l-1.25.63m-13.12 1.25h-.63c-2.08 0-3.13 2.3-3.12 6.87 0 1.25.62 1.88 1.87 1.88 2.08 0 3.33-1.46 3.75-4.38l.63-1.87c0-1.25-.84-2.08-2.5-2.5m-10.63 1.87c-2.5.84-3.75 2.92-3.75 6.25 0 2.92.63 4.38 1.88 4.38 3.33 0 5-2.3 5-6.88 0-2.5-.84-3.74-2.5-3.75h-.63m148.75.63a23.43 23.43 0 0 0-2.5 10.62v4.38l-3.75 1.25c1.25 7.5 1.87 12.5 1.88 15v20l1.87 5 1.88 3.12 1.25.63 1.25-4.38.62-6.87 1.25-15c.42-9.17-.83-20.42-3.75-33.75m5.63 56.25h.62c1.25 0 2.3-1.67 3.13-5l.62-4.38c.42-1.25.63-2.7.63-4.37s.2-3.12.62-4.38l-.62-8.12.62-5v-9.38l1.88-5 .62-3.12 3.75-3.75-1.87-1.25-.63-.63c-1.67 0-3.54 1.25-5.62 3.75-1.67 2.5-2.5 4.59-2.5 6.25l-.63 36.88-.62 7.5m-135-52.5c-5 2.08-7.5 5-7.5 8.75 0 2.92 1.25 4.38 3.75 4.37 3.33 0 5-2.91 5-8.75 0 .42-.42-1.04-1.25-4.37m-222.5 0-4.38 12.5-4.37 8.75c-.84 3.33-1.25 5.42-1.25 6.25 0 5 2.5 7.5 7.5 7.5 2.08 0 3.54-1.67 4.37-5-4.58-.83-6.88-2.92-6.87-6.25 0-3.33.83-6.87 2.5-10.63 1.66-3.74 2.5-6.87 2.5-9.37v-3.75m173.75 15a44.47 44.47 0 0 0 1.87-5.63l1.25-6.25c0-1.25-.83-1.87-2.5-1.87s-2.5.62-2.5 1.87l-1.25 3.13h-1.25l-.62 6.25c0 1.67 1.66 2.5 5 2.5m143.12 9.37c.41-10 3.33-15 8.75-15l3.75 1.25c5 3.34 7.91 6.05 8.75 8.13l3.75 15.62 3.75 6.88-.63-8.13c-2.08-20.83-8.54-31.25-19.37-31.25-8.76 0-13.13 4.38-13.13 13.13 0 3.33 1.46 6.46 4.38 9.37m-295-13.75 9.37-3.12c0-3.33-1.88-5-5.62-5-2.92 0-6.05 1.04-9.38 3.12-4.58 3.34-6.88 6.26-6.87 8.75.83 1.25 1.45 1.67 1.87 1.25h1.88l8.75-5m78.12-6.87c.83 7.08 3.54 10.62 8.13 10.62l6.25-1.25-.63-2.5 3.13-.62c-3.34-5-7.3-7.5-11.88-7.5-1.67 0-2.7.2-3.12.62l-1.88.63m78.75 9.37c.42.42 1.46.63 3.13.63 3.33 0 5-2.5 5-7.5 0-2.08-1.05-3.12-3.13-3.13-3.75 0-5.42 2.71-5 8.13v1.87m14.38-8.12c-1.25 0-2.5 1.67-3.75 5a8.7 8.7 0 0 0-.63 3.75c0 2.08 1.04 3.13 3.13 3.12 4.16 0 6.24-2.29 6.25-6.87 0-3.33-1.67-5-5-5m16.25 13.75c1.66-2.92 2.5-5.42 2.5-7.5 0-2.92-1.05-4.37-3.13-4.38-5 0-7.5 3.34-7.5 10 0 2.09 1.04 3.13 3.13 3.13l5-1.25m-235-1.25c-6.26 2.08-10.42 3.13-12.5 3.12-5.84 0-9.17-1.04-10-3.12v-1.88l.62-6.87h-1.25c-3.33 0-5 2.08-5 6.25 0 5.83 4.17 8.75 12.5 8.75 5 0 10.2-2.08 15.63-6.25m170-7.5h-6.25l-1.88 1.25-6.87-.63-6.25 3.13-4.38 1.25-1.25 2.5-4.37 2.5-2.5 5.62-1.25 9.38c.83 7.08 1.45 12.08 1.87 15 .83 2.5 1.25 3.13 1.25 1.87 0 2.5-.83 4.59-2.5 6.25l-8.12 6.88-1.88 4.37c4.17-1.25 7.5-1.87 10-1.87 6.25 0 10.42 3.13 12.5 9.37l5.63 9.38c6.66 4.17 12.91 6.25 18.75 6.25 10.83 0 20.2-6.46 28.12-19.38 3.33-5.83 5-10.41 5-13.75 0-1.25-1.25-2.29-3.75-3.12 2.08-1.25 3.12-2.3 3.13-3.13 0-3.33-1.25-5-3.75-5-1.25 0-2.5.63-3.75 1.88h-1.88l-.62-1.88c2.08-.83 3.54-1.87 4.37-3.12l-5.62-1.88-18.13 5-1.25 1.25c-1.67-.41-2.5-1.04-2.5-1.87 0-2.5 2.92-4.37 8.75-5.63l8.75-1.87h3.75c.42-.42.83-.63 1.25-.63l1.25-1.25-2.5-3.12 4.38-.63.62-4.37h-5l.63-1.88h.62c2.08 0 3.33-.83 3.75-2.5l-1.25-1.87h-5.62v-1.25c2.5-.42 3.74-1.04 3.75-1.88 0-1.25-.21-2.08-.63-2.5-1.25.42-2.3.84-3.12 1.25h-.63c-.83 0-1.88-.62-3.12-1.87l3.12-1.88a40.66 40.66 0 0 1-4.37-2.5 41.02 41.02 0 0 0-4.38-2.5l-11.87-.62m81.87 1.25a7.91 7.91 0 0 0-1.87 3.75v1.87c0 2.92 1.25 4.38 3.75 4.38s3.74-1.25 3.75-3.75c0-4.17-1.88-6.25-5.63-6.25m33.75 11.87c7.08-4.58 15.63-6.87 25.63-6.87 8.33 0 16.04 2.5 23.12 7.5v-.63c.83-7.08-8.33-10.62-27.5-10.62-14.17 0-21.25 3.54-21.25 10.62m-233.12-10.62c-11.67 2.92-18.12 9.8-19.37 20.62-.42.84-.63 3.55-.63 8.13-1.25 20.42-7.08 30.62-17.5 30.62-6.25 0-9.38-2.7-9.37-8.12 0-2.5.62-4.37 1.87-5.63l11.25-9.37c.83-.83 1.25-1.67 1.25-2.5 0-5.42-2.7-8.12-8.12-8.13-5.42 0-8.13 1.46-8.13 4.38l.63 1.25.62 1.25c2.92-2.5 5.62-3.75 8.13-3.75 2.5 0 3.74 1.46 3.75 4.37 0 2.5-1.67 4.38-5 5.63-9.17 3.75-13.75 8.54-13.75 14.37 0 10.84 7.29 16.67 21.87 17.5.42-3.74 3.75-7.29 10-10.62a17.2 17.2 0 0 0 4.38-5c1.25-2.5 2.08-3.75 2.5-3.75 1.25 0 2.29.42 3.12 1.25l3.75 2.5c4.17-7.92 6.25-13.54 6.25-16.88 0-1.66-1.88-7.5-5.62-17.5l-1.25-5c0-2.08.83-3.12 2.5-3.12 1.25 0 2.08.83 2.5 2.5l1.25 6.87 1.25 1.88 2.5 5.62c3.33 3.34 5.83 5 7.5 5 4.16 0 6.24-1.45 6.25-4.37l-5-6.25-.63-18.75c0-2.5-2.92-4.17-8.75-5m190 3.12c-2.08 0-3.13 1.67-3.12 5 0 4.59 1.04 6.88 3.12 6.88 3.33 0 5-2.3 5-6.88 0-3.33-1.67-5-5-5m-41.25 3.13c-.42.42-.62 1.88-.62 4.37 0 2.5 1.25 3.76 3.75 3.75 4.58 0 6.87-1.66 6.87-5 0-2.91-.83-4.37-2.5-4.37l-1.87-.63-5.63 1.88m100.62 8.75c2.5-1.25 4.37-1.87 5.63-1.88 9.58 0 14.37 1.25 14.37 3.75 0 1.67-1.25 2.71-3.75 3.13l1.25 4.37 9.38-3.12c3.33-.83 5-2.7 5-5.63 0-2.91-3.96-5.83-11.88-8.75l-4.37-.62c-1.25-.42-3.34-.63-6.25-.63h-4.38c-14.17 0-21.25 3.13-21.25 9.38 0 5.83 4.58 8.96 13.75 9.37 2.08 0 3.12-1.45 3.13-4.37 0-2.5-.21-4.17-.63-5m-87.5-6.25-.62 3.75c0 3.33 1.04 5 3.12 5 3.75 0 5.62-1.67 5.63-5 0-1.25-.21-2.08-.63-2.5l-2.5-2.5c-.83-.83-1.46-1.04-1.87-.63l-1.88.63-1.25 1.25m10.63 10c.41 1.67 1.66 2.5 3.75 2.5 4.58 0 6.87-2.5 6.87-7.5 0-2.92-1.46-4.37-4.37-4.38-4.17 0-6.26 3.13-6.25 9.38m26.87-5.63c-2.5 0-3.75 1.67-3.75 5 0 2.5.42 3.76 1.25 3.75 4.17 0 6.25-2.08 6.25-6.25 0-1.66-1.25-2.5-3.75-2.5m-298.75 6.88c-1.25-2.92-4.38-4.37-9.37-4.38-5 0-7.5 2.5-7.5 7.5 0 2.92 1.04 4.38 3.12 4.38l3.75.62-2.5-3.75v-1.87c0-2.5 1.87-3.75 5.63-3.75.83 0 1.66.2 2.5.62 1.25 0 2.7.21 4.37.63m355-2.5-6.87 23.12-11.88 23.13-3.75 5-1.87 2.5-8.75 11.25-6.88 6.25-4.37 3.12-4.38 3.75c-.83.84-2.5 2.09-5 3.75a544.1 544.1 0 0 0-8.12 5l-2.5 1.25a30.6 30.6 0 0 0-3.13 1.88l1.25 1.88c0 2.08.63 3.12 1.88 3.12.83 0 1.45-.2 1.87-.63l13.75-8.75c10.42-6.24 20.42-16.04 30-29.37 10.83-16.25 16.88-26.46 18.13-30.63l1.87-8.75 3.75-11.25.63-5.62h-5.63m-104.38.62c-2.5 2.5-3.75 4.8-3.75 6.88 0 4.17 1.25 6.25 3.75 6.25 3.75 0 5.62-2.92 5.63-8.75 0-2.92-1.88-4.37-5.63-4.38m145 .63v5h-9.37c-10.84.83-16.25 4.58-16.25 11.25 0 2.92.62 5.83 1.87 8.75l4.38 3.12 3.75.63-3.13-9.38c0-3.74 2.7-5.62 8.13-5.62 4.16 0 7.29 2.5 9.37 7.5 2.08 5 3.12 9.17 3.13 12.5 0 2.92-.21 4.58-.63 5l-9.37 24.37c-2.09 6.26-3.13 11.46-3.13 15.63 0 3.75 1.46 7.08 4.38 10 5.83 3.33 9.79 5 11.87 5 11.25 0 16.88-4.37 16.88-13.13 0-2.08-1.88-3.12-5.63-3.12l-2.5.63c-.42.41-1.46.62-3.12.62-2.09 0-3.76.2-5 .63-.42-.84-.63-2.5-.63-5 0-2.09.63-4.38 1.88-6.88l5-8.13 10.62-18.75v-5l2.5-7.5-8.12-8.75c-4.17-10.83-9.8-17.29-16.88-19.37m-115.62 10c1.67 1.25 2.92 1.88 3.75 1.87 3.75 0 5.62-3.12 5.63-9.37 0-1.67-.84-2.5-2.5-2.5-4.17 0-6.46 3.33-6.88 10m-233.12-9.38-11.25 5-27.5 1.88c-5.42.42-10.42 3.33-15 8.75s-6.88 11.25-6.87 17.5c0 9.17 2.29 15.42 6.87 18.75l6.88 5 5 4.37c.41 2.5 1.25 3.76 2.5 3.75.41-.41.83-.62 1.25-.62.41 0 .83-.2 1.25-.63l1.25-6.87 13.12-5.63c4.58-2.08 6.87-6.45 6.88-13.12 0-8.33-3.76-12.5-11.25-12.5-4.17 0-6.46 2.5-6.88 7.5 1.67-2.5 3.33-3.75 5-3.75 5.42 0 8.12 3.13 8.13 9.37 0 7.09-5 10.63-15 10.63-13.34 0-20-6.04-20-18.13 0-5 2.29-9.79 6.87-14.37s9.37-6.87 14.38-6.88l25-3.12c.83 0 4.37-1.87 10.62-5.63l-1.25-1.25m215 0-1.87 4.38 4.37-1.88-2.5-2.5m7.5 6.88c1.25 2.08 2.3 3.13 3.13 3.12 2.08 0 3.12-.83 3.12-2.5a7.33 7.33 0 0 0-1.25-1.87v-.63l-4.37-2.5-.63 4.38m25 0c0 5.42 1.46 8.13 4.38 8.12 2.5 0 3.74-2.08 3.75-6.25 0-2.08-.84-3.12-2.5-3.12h-1.25l-4.38 1.25m-31.25 2.5c-5 0-7.5 1.88-7.5 5.62 0 3.76 1.87 5.63 5.63 5.63 4.58 0 6.87-2.7 6.87-8.13 0-2.08-1.67-3.12-5-3.12m20 8.75 1.25.62v1.25c0 2.92.63 4.38 1.88 4.38 4.58 0 6.87-3.33 6.87-10 0-2.08-1.04-3.12-3.12-3.13-2.09 0-4.38 2.3-6.88 6.88m35-4.38v1.88c0 1.67 1.46 2.5 4.38 2.5 1.66 0 5-1.04 10-3.13-4.17-2.91-7.3-4.37-9.38-4.37-.83 0-1.67.42-2.5 1.25l-2.5 1.87m-46.87 4.38 1.87 2.5c1.67 1.25 2.92 1.88 3.75 1.87l2.5-.62v-1.88c0-4.58-.83-7.08-2.5-7.5l-4.37-.62-1.25 6.25m33.75-1.25 1.25 3.75-3.75 2.5 1.87 3.75h-4.37l-1.88 3.75 8.13 4.37c.41.42.62.84.62 1.25 0 .84-.42 1.25-1.25 1.25-.83 0-2.3-.83-4.37-2.5-2.09-2.08-3.76-3.12-5-3.12-1.25 0-1.88.83-1.88 2.5v2.5l-5-1.25c.42 2.08.63 3.75.63 5 .41 1.25.62 2.08.62 2.5l-.62 9.37.62 1.25c.83 2.09 2.92 3.13 6.25 3.13 1.67 0 2.7-.2 3.13-.63l8.75-9.37 8.75-.63c-2.09-3.33-3.13-5.83-3.13-7.5 0 3.34.63-.62 1.88-11.87v-3.13c.83-5.83-1.46-8.74-6.88-8.75-.42.42-.83.63-1.25.63-.42 0-.83.2-1.25.62l-1.87.63m-9.38 6.87 1.25-.62c2.08-.83 3.12-1.87 3.13-3.13 0-1.25-1.05-1.87-3.13-1.87-1.67 0-2.08 1.04-1.25 3.12v2.5m-194.38-3.12-.62 4.37 10.62 15.63c.42.42 1.04.62 1.88.62.83 0 1.25-.62 1.25-1.87 0-2.08-2.5-5.62-7.5-10.63-2.09-1.25-3.96-3.95-5.63-8.12m216.88 4.37h2.5a19.47 19.47 0 0 1-1.25 3.75v1.25c0-.41.42 1.05 1.25 4.38h1.88c1.25-3.75 2.91-5.62 5-5.63 1.25 0 2.5 1.46 3.75 4.38-1.67 12.5-8.76 23.96-21.25 34.37l-8.13 6.25-3.75 3.75c7.08-2.5 14.8-8.54 23.13-18.12 10-11.25 15-20.42 15-27.5 0-6.67-2.92-10-8.75-10l-9.38 3.12m-56.25 1.88 11.25 1.25v-2.5c.42-2.92-.83-4.37-3.75-4.38l-.62.63h-.63l-6.25 5m156.25 18.75-2.5 5.62-5 7.5v7.5l10.63 1.25.62-5.62c1.67-11.25 4.37-19.8 8.13-25.63 5.83-2.08 8.74-4.58 8.75-7.5 0-2.5-2.5-3.74-7.5-3.75-5 0-7.71 1.46-8.13 4.38l-1.25 9.37-3.75 6.88m-126.25-20.63c-1.67 1.25-2.5 2.3-2.5 3.13 0 .83.63 1.25 1.88 1.25s1.87-.42 1.87-1.25c0 .42-.42-.63-1.25-3.13m-10.62 1.25c-2.5.84-3.76 1.88-3.75 3.13 0 2.5 1.25 3.75 3.75 3.75 2.91 0 4.37-1.46 4.37-4.38 0-1.66-1.25-2.5-3.75-2.5h-.62m65 19.38-13.75 18.12-5 5c-9.59 9.59-15.63 15-18.13 16.25-5 2.09-7.92 3.76-8.75 5-.42 1.25-.83 1.88-1.25 1.88l-1.87.63 1.25 1.25v.62c2.08 0 5-1.67 8.75-5 4.16-3.75 11.25-9.37 21.25-16.88.83 0 3.33-2.7 7.5-8.12l5.62-6.25a40.27 40.27 0 0 0 8.75-13.13c3.75-8.33 7.92-12.5 12.5-12.5 2.5 0 3.75 1.46 3.75 4.38 0 1.67-.2 2.92-.62 3.75h4.37a8.48 8.48 0 0 0 2.5-6.25c0-4.58-2.92-6.87-8.75-6.88-5 0-11.04 6.05-18.12 18.13m-247.5-17.5c-.42.83-.63 2.5-.63 5 0 1.67 1.25 3.75 3.75 6.25 1.67 3.75 5.2 8.96 10.63 15.62h1.25v-8.75l-5-4.37-5.63-8.75-4.37-5m163.75 2.5.62 5-2.5-.63c0-2.5-.62-3.74-1.87-3.75-.84 0-1.67.42-2.5 1.25l-3.75 10-6.25 8.13-5.63 5.62-8.12 8.13-.63 3.75c0 5.42 4.8 8.13 14.38 8.12h3.12l2.5 6.25 5-5.62 13.13-5.63c11.25-5 16.87-13.33 16.87-25 0-.83-.2-1.66-.62-2.5 0-1.25-.21-2.7-.63-4.37l-1.87-1.88v4.38l-2.5-1.25c-.42-2.5-1.67-4.17-3.75-5-2.09 8.75-3.55 13.12-4.38 13.12-1.25 0-1.88-.41-1.87-1.25v-.62l3.12-5.63c.42-.41.63-1.45.63-3.12 0-1.67-1.05-2.92-3.13-3.75l-1.87-1.25-3.13 5.62c.42-.83.63-2.5.63-5 0-1.25-1.67-2.29-5-3.12m-176.88 7.5 4.37 16.87 2.5 8.75 3.13 18.13v6.88c0 2.5-.84 5.83-2.5 10-1.25 3.75-1.88 6.66-1.88 8.75 0 .41.42.62 1.25.62 3.75 0 6.04-4.17 6.88-12.5l1.25-15c0-5-1.25-11.04-3.75-18.13-2.5-7.5-3.76-12.5-3.75-15-.84-4.16-3.34-7.29-7.5-9.37m-3.13 4.37 1.25 7.5 1.88 8.13c.41 2.08.62 3.96.62 5.62.42 1.67.63 2.92.63 3.75 0 10-3.96 15.21-11.88 15.63.42 2.92 1.67 4.38 3.75 4.38 7.5 0 11.25-5.42 11.25-16.25 0-10.42-1.67-18.55-5-24.38l-2.5-5v.62m-5 3.75a32.12 32.12 0 0 1 1.88 10c0 2.09-2.3 3.55-6.88 4.38 0 2.5 1.04 3.75 3.13 3.75 1.66 0 3.74-1.46 6.25-4.38l-.63-9.37-3.12-4.38h-.63m264.38 16.25-11.87 11.88c.41.42.83.63 1.25.63.41 0 .83.2 1.25.62 1.25 0 2.5-1.25 3.75-3.75 1.66-4.17 4.58-6.25 8.75-6.25l10-5.63c.83-.83 2.5-1.25 5-1.25 3.33 0 6.66 1.88 10 5.63 1.25 2.5 1.87 4.58 1.87 6.25 0 4.58-3.13 7.7-9.37 9.37-.42.42-1.67.63-3.75.63-4.17 0-6.88-.2-8.13-.63 4.17 4.17 7.92 6.26 11.25 6.25 5 0 9.37-1.87 13.13-5.62 4.16-3.75 6.24-7.92 6.25-12.5 0-2.08-.84-4.58-2.5-7.5 2.5-.42 3.74-1.87 3.75-4.38-5.84-5.83-10.84-8.74-15-8.75-8.34 0-15.84 3.76-22.5 11.25l-3.13 3.75m-165.62.63c2.92-2.92 5.62-4.37 8.13-4.38 5.41 0 8.12 2.71 8.12 8.13 0 7.08-4.8 10.62-14.37 10.62-3.34 0-7.3-.83-11.88-2.5 0 5.84 4.58 8.76 13.75 8.75 5 0 9.37-1.66 13.13-5 4.16-3.33 6.24-7.29 6.25-11.87 0-9.17-5-13.75-15-13.75-5.42 0-8.13 2.7-8.13 8.12v1.88m114.38-4.38-1.25 3.75h-1.25l-1.25-2.5c-2.5 3.34-3.75 6.46-3.75 9.38 0 3.33 1.87 6.46 5.63 9.37l2.5-6.87 3.12-5c.42-.42.63-1.46.63-3.13 0-2.08-1.46-3.74-4.38-5m-64.37 7.5-7.5 3.75-.63-2.5 4.38-1.87a4.24 4.24 0 0 0-3.13-1.25c-3.75 0-6.88 1.67-9.37 5-1.25 2.08-1.88 3.75-1.88 5 0 2.08.63 3.13 1.88 3.13h1.87l7.5-3.75 6.25-1.88.63-5.63m-241.25 10c.41-4.16 2.29-6.24 5.62-6.25 5 0 7.5 2.92 7.5 8.75 0 1.25-.2 2.09-.62 2.5a55 55 0 0 0-2.5 16.25v5c0 2.5.2 4.38.62 5.63.42-4.58 1.04-9.17 1.88-13.75 1.25-4.58 2.7-9.17 4.37-13.75l1.25-5c0-7.08-3.96-10.63-11.87-10.63-5 0-7.5 1.88-7.5 5.63 0 .42.41 2.3 1.25 5.62m52.5-9.37c2.91 2.08 5.41 3.33 7.5 3.75 6.66 2.92 10 5.63 10 8.12 0 1.67-.42 2.5-1.25 2.5-1.25-.41-3.76-2.29-7.5-5.62-3.76-3.75-9.38-5.83-16.88-6.25h-1.87c-10.84-.83-18.13 3.75-21.88 13.75 5.42-2.92 10.42-4.37 15-4.38 5 0 9.58 2.09 13.75 6.25v3.13l1.88 1.25v5.63l-1.25 1.25-.63 3.75-3.75 1.87v.63c0 4.16 2.3 6.25 6.88 6.25l7.5.62v12.5l8.75 6.25v-6.88c0-1.66.41-2.91 1.25-3.75l11.25-11.87c3.33-3.33 5-7.5 5-12.5v-2.5l-3.75-9.38 3.12-6.25.63-5-21.25-.62c-4.17-2.08-7.3-2.92-9.38-2.5h-3.12m368.12 6.25c10.41 2.08 17.7 5.2 21.87 9.38l1.88 5c-4.17 0-7.3 1.25-9.38 3.75-1.67 2.5-2.7 3.75-3.12 3.75l-3.75-1.25c1.25 5 3.12 7.5 5.62 7.5 2.08 0 5-1.88 8.75-5.63l3.75.63v1.87c-.83 3.75 1.46 6.67 6.88 8.75l-.63-8.13.63-5.62-2.5-4.38-2.5-1.25c-2.09-8.33-5-13.12-8.75-14.37l-8.13-2.5h-8.75l-1.87 2.5m-174.38 3.13-3.13 3.75c-6.67 8.33-18.54 12.91-35.62 13.75l-10.63-2.5a59.97 59.97 0 0 1-4.37-1.25 34.43 34.43 0 0 1-4.38-1.88l-6.25-3.13c1.67 10.42 5 16.67 10 18.75 2.92.84 6.46 1.67 10.63 2.5 4.16.84 9.16 2.09 15 3.75 5.41.84 9.37 1.67 11.87 2.5 2.92.42 4.8.63 5.63.63l48.12-.63c12.5 0 21.25 1.46 26.25 4.38 5.42 2.92 8.12 7.7 8.13 14.38v1.25l1.25.62c4.16-5.42 6.24-9.58 6.25-12.5 0 .42-.42-1.46-1.25-5.63l5.62-.62c-2.08-11.25-10.2-16.88-24.37-16.88-2.92 0-5.84.84-8.75 2.5h-1.25c-1.25.42-2.09-.2-2.5-1.87 2.08-1.25 3.95-3.33 5.62-6.25a23.45 23.45 0 0 0-10.62-2.5c-5.42 0-10.21 1.46-14.38 4.38l-4.37.62-4.38 3.75c-4.17 2.92-10.62 4.8-19.37 5.63h-5l-1.25-2.5c7.08 0 11.66-3.13 13.75-9.38h-3.75l-1.25-2.5c2.08-3.33 3.12-5.83 3.12-7.5 0-1.25-1.46-3.12-4.37-5.63m73.12 18.75c.42.42 1.25.63 2.5.63.42 0 2.08-1.25 5-3.75 2.92-2.92 4.8-4.58 5.63-5 7.08-3.33 10.62-5.83 10.62-7.5s-.62-2.5-1.87-2.5c-.42 0-1.25.83-2.5 2.5a62.8 62.8 0 0 1-7.5 7.5 82.22 82.22 0 0 1-11.88 8.13m-58.12.62c9.16-5.42 17.91-8.12 26.25-8.13h2.5c1.66 0 3.12.21 4.37.63-2.5-3.33-5.42-5-8.75-5-6.25 0-11.04 1.04-14.37 3.13l-6.25 5a30.8 30.8 0 0 1-3.13 1.87l-.62.63v1.87m-235-11.25-.63-.63-1.25.63c-6.67 6.67-10 13.54-10 20.63 0 12.08 4.37 22.7 13.13 31.87 9.16 8.75 20 13.13 32.5 13.13 2.91 0 9.37-1.67 19.37-5 6.25-1.67 9.37-3.55 9.38-5.63 0-1.67-.84-2.3-2.5-1.88h-3.13l-17.5 5.63c-1.25.42-3.33.63-6.25.63-10.83 0-20.2-3.55-28.12-10.63-7.92-7.5-11.88-16.04-11.88-25.63 0-7.08 2.3-14.79 6.88-23.12m371.25 3.13c-1.25 2.5-1.88 4.58-1.88 6.25 0 1.25 1.04 2.91 3.13 5 0-2.5 1.04-4.17 3.12-5v4.37c-.83 3.33 2.5 5.42 10 6.25l.63-2.5h1.87l-.62 3.13c3.74-1.25 5.62-2.92 5.62-5 0-2.09-1.88-3.13-5.62-3.13h-.63a35.77 35.77 0 0 1-15.62-9.38m-58.75 1.88-1.25 1.88h1.87c4.17-.42 7.08 1.45 8.75 5.62.42-.83.63-2.7.63-5.63 0-2.5-1.46-3.74-4.38-3.75-1.25 0-2.08.21-2.5.63l-3.12 1.25m44.37-1.25c1.25 7.92 3.33 11.88 6.25 11.88l3.75-.63v-2.5l-1.87-1.88 1.25-.62.62-1.88v-.62c0-2.92-3.13-4.17-9.37-3.75h-.63m-48.12 1.88-3.13 4.37 5-2.5-1.87-1.88m30.62 16.25c2.5 3.34 3.75 6.25 3.75 8.75 0 7.09-3.33 11.88-10 14.38l-16.87 5.63-2.5 3.12c23.33-3.75 35-12.08 35-25 0-10.83-5.63-16.25-16.88-16.25-7.92 0-11.87 4.58-11.87 13.75 0 6.25 2.5 9.38 7.5 9.38h.62c-.42-.42-1.25-3.55-2.5-9.38v-1.88c0-3.75 2.08-5.62 6.25-5.62 1.67 0 4.17 1.04 7.5 3.13m75.63-5.63.62.63c-2.92.41-4.38 1.87-4.37 4.37 0 3.75 1.45 5.83 4.37 6.25 2.08 0 3.12-1.46 3.13-4.38 0-3.75-1.25-6.04-3.75-6.87m-49.38 2.5c-2.08 2.08-3.13 3.96-3.12 5.63v2.5c.41 1.25.83 2.91 1.25 5l1.25 3.75.62 1.87h6.88c9.16.42 13.75-1.88 13.75-6.88 0-2.08-1.67-4.16-5-6.25l-3.75-1.25-2.5 3.13v-4.38l-1.88-1.87-7.5-1.25m-360 23.75c7.92 8.75 17.5 12.7 28.75 11.88h2.5l3.13-.63 10.62-3.13c-.83-.83-1.67-1.25-2.5-1.25-.83.42-1.88.84-3.12 1.25-.84 0-2.09.42-3.75 1.25h-5.63c-18.75 0-28.12-6.04-28.12-18.12 0-4.58 2.91-6.88 8.75-6.88l1.25.63c-2.09-5-4.59-7.5-7.5-7.5-6.26 0-9.38 3.96-9.38 11.88 0 2.5 1.67 6.04 5 10.62m395-21.88-8.12.63v3.13l-3.13 1.87c.42 3.75 1.87 5.63 4.38 5.63 2.08 0 3.33-.21 3.75-.63 4.58-2.5 6.87-5 6.87-7.5-.42-1.67-.83-2.5-1.25-2.5l-3.75-1.25 1.25.63m-40.62 31.87c-6.67 2.08-11.46 4.17-14.38 6.25-2.92 1.67-4.8 2.5-5.62 2.5l-24.38 5 2.5 1.88 10-.63h4.38l5.62-1.88 12.5-5 30.63-13.75 10-1.87c2.08-.42 3.54-.63 4.37-.63 1.25-.41 1.67-.62 1.25-.62 1.67 0 4.17 1.04 7.5 3.13 2.5 3.33 3.75 6.25 3.75 8.75 0 4.16-2.7 6.25-8.12 6.25-2.5 0-6.05-2.3-10.63-6.88-2.08-2.08-3.54-3.13-4.37-3.13h-1.25l-3.75.63h-4.38c-1.67 0-3.33 2.08-5 6.25a12.05 12.05 0 0 0-1.87 6.25c0 7.08 3.33 10.63 10 10.63 2.5 0 3.95-1.46 4.37-4.38-6.25 0-9.38-2.5-9.37-7.5 0-4.17 2.29-6.25 6.87-6.25l1.88.63 13.75 10a10.12 10.12 0 0 0 6.25 1.87c4.58 0 7.29-.63 8.12-1.88l5-7.5 5-3.12v-5l-2.5-6.25c-2.5-6.25-8.96-9.38-19.37-9.38-6.67 0-17.92 4.17-33.75 12.5-.84.84-2.5 1.88-5 3.13m0-15.63c-15.42 11.67-27.71 18.13-36.88 19.38-9.17 1.25-13.75 2.92-13.75 5 0 2.5 1.25 3.75 3.75 3.75 2.08 0 3.54-.2 4.38-.63l7.5-1.25c3.33-.83 6.24-1.66 8.75-2.5a78.58 78.58 0 0 0 7.5-2.5l23.75-12.5 5-4.37-3.13.63c-2.5 0-4.8-1.67-6.87-5m-153.75 1.87c-3.34 4.58-9.38 6.88-18.13 6.88h-9.37c-9.17-.84-16.67-1.46-22.5-1.88-5.42-.42-9.17-.63-11.25-.63l-20-.62-56.88 1.88c-4.58 0-10.42-1.05-17.5-3.13 1.25 5 5.83 7.5 13.75 7.5l12.5.63 27.5-2.5 63.75 1.25 15.63 1.87 4.37.63c14.58.83 21.88-1.88 21.88-8.13 0-.42-1.25-1.67-3.75-3.75m71.25 15.63 1.25-2.5c-11.67-7.92-20.42-11.88-26.25-11.88-10.84 0-16.25 5.83-16.25 17.5 0 4.17 1.45 7.92 4.37 11.25 3.33 3.33 6.87 5 10.63 5 8.33 0 13.12-2.92 14.37-8.75l1.25-8.13v-1.87l-1.87-.63-1.88 6.88-.62 1.25-3.13 5-1.87 1.88-1.25.62-.63-.63-1.87-.62-6.88-.63c-4.58-.83-6.88-4.37-6.87-10.62 0-8.33 4.79-12.5 14.37-12.5 1.67 0 7.5 2.3 17.5 6.88l2.5 1.25c.83.41 1.87.83 3.13 1.25m-5-11.25 2.5 1.87 5.62 1.88c1.25.41 2.3 2.08 3.13 5 .83 2.5 1.25 4.37 1.25 5.62 0 3.75-3.55 7.3-10.63 10.63a8.31 8.31 0 0 0 5 1.87c6.25 0 9.37-4.17 9.38-12.5 0-10.42-3.96-15.63-11.88-15.63h-1.25l-3.12 1.25m-133.12 9.38-5 5a28.27 28.27 0 0 0-5 5c.41 1.25 1.04 2.7 1.87 4.38-2.92 2.91-6.25 4.37-10 4.37-12.5 0-22.08-5-28.75-15-.83-2.5-1.88-3.75-3.12-3.75-1.25 0-1.88.63-1.88 1.88 0 .41.63 1.45 1.88 3.12l3.75 5.63 3.12 1.87 8.13 5.63 10.62 2.5c4.17.83 6.46 1.25 6.88 1.25 1.25 0 2.91-.42 5-1.25 2.08-.84 3.33-1.25 3.75-1.25-.42 0 .62.41 3.12 1.25l3.75 1.87 10.63-1.88h10v-1.87l-1.25-1.25-3.75-1.88-11.25-3.75 1.25-6.87-3.75-5m-65.63 12.5c-.42 5.42-2.08 8.13-5 8.13-4.58 0-6.88-2.5-6.87-7.5 0-1.25.2-1.88.62-1.88l8.13-9.38-1.25-1.25-5 4.38-3.75 5a6.76 6.76 0 0 0-1.88 5c0 6.25 3.12 9.38 9.38 9.38 5.41 0 8.12-2.92 8.12-8.75 0-1.67-.83-2.71-2.5-3.13m-97.5 3.13c1.67-6.67 5.42-10 11.25-10 .42 0 2.7.41 6.88 1.25l15 5 6.87.62-5-3.13-5.62-1.25-11.88-5.62a17.91 17.91 0 0 0-8.12-1.88c-7.09 0-10.63 2.5-10.63 7.5v2.5c.42 1.25.83 2.92 1.25 5m143.12-14.37c.83 3.33 1.25 4.8 1.25 4.38 0 3.33-2.7 5.62-8.12 6.87l5 1.25c4.16 0 6.24-3.33 6.25-10 0-1.25-1.46-2.08-4.38-2.5m55.63 0-.63.63v.62c0 2.08.63 3.13 1.88 3.13 2.08 0 3.12-.84 3.12-2.5l-.62-.63c0-.42-.21-.83-.63-1.25h-3.12m14.37 2.5c-.83-.83-1.67-1.25-2.5-1.25l-.62-.63c-1.67 0-2.5 1.05-2.5 3.13s1.04 3.13 3.12 3.13c1.25 0 2.08-1.46 2.5-4.38m-41.25 2.5v2.5l6.25-2.5c.42-.42 1.87-.63 4.38-.63 2.08 0 6.04.63 11.87 1.88-.83-3.75-4.8-5.63-11.87-5.63l-3.13.63-7.5 3.75m51.88 9.38-1.25 1.87 5 1.25 1.87-1.25h3.13l9.37-9.38c1.25-1.25 3.33-1.87 6.25-1.87s4.37 1.46 4.38 4.38c0 .41-.42 2.29-1.25 5.62l1.87.63c2.08 0 3.12-2.3 3.13-6.88 0-4.58-3.13-6.88-9.38-6.88-3.33 0-7.08 2.5-11.25 7.5-3.33 3.34-6.25 5-8.75 5h-3.12m-9.38-5c-1.67 0-2.5.84-2.5 2.5 0 1.67 1.04 2.5 3.13 2.5 2.08 0 3.12-1.04 3.12-3.12 0-1.25-1.04-1.88-3.12-1.88h-.63m-25 .63h-.62c-.42.42-.63 1.04-.63 1.88-.42 1.66.42 2.5 2.5 2.5 1.67 0 2.5-.63 2.5-1.88 0-1.67-1.25-2.5-3.75-2.5m18.75 6.25c-1.67 0-2.5.63-2.5 1.88 0 1.66 1.04 2.5 3.13 2.5 2.08 0 3.12-.84 3.12-2.5 0-2.09-1.04-2.71-3.12-1.88h-.63m-10.62 0c-.42 0-1.05.42-1.88 1.25v1.25c0 2.08 1.04 3.13 3.13 3.13 1.66 0 2.5-.63 2.5-1.88v-1.25c-.42-1.67-1.67-2.5-3.75-2.5m16.25-134.38c.41 0 1.87-.42 4.37-1.25 2.92-1.25 4.37-1.67 4.38-1.25 0 .83-1.25 2.3-3.75 4.38s-3.96 3.12-4.38 3.12c-2.08 0-3.13-.83-3.12-2.5 0-1.67.83-2.5 2.5-2.5m-146.88 71.25c3.74 0 5.62.63 5.62 1.88 0 3.33-1.67 5-5 5-1.67 0-2.7-.84-3.12-2.5v-.63c0-2.5.83-3.75 2.5-3.75m307.5-386.88 5.62 1.87c0 2.5-2.08 3.76-6.25 3.75-1.67 0-2.5-.83-2.5-2.5.83-2.08 1.46-3.12 1.88-3.12h1.25m11.25 1.87-5 1.88c0 1.67-1.05 2.92-3.13 3.75l1.25-.63-1.87-.62 1.87-4.38h6.88m5.62 5.63-8.12 1.25.62-4.38 7.5 3.13m40 11.87-5.62 3.75 1.87-3.75-.62 3.13-8.75-.63.62-3.12 12.5.62m-36.87 3.13 3.12 5 1.88 4.37 6.25 1.88c0-.42-1.46.62-4.38 3.12 0 .84-.83 1.46-2.5 1.88l-3.12-10.63-4.38-4.37-.62-.63v-.62l1.25-1.25 2.5 1.25M216.16 190.4l8.12 5-6.25 4.37-1.87-9.37m30 1.87 6.87 6.88-.62 4.37-6.25-11.25m3.75 16.25 4.37 4.38-10 4.37 5.63-8.75m325 11.88-4.38 10-.62-4.38 2.5-6.87 2.5 1.25m3.75 2.5v3.12c0 .84.62 1.67 1.87 2.5 1.25.42 1.46.84.63 1.25l-2.5-6.87m14.37 8.12 6.25-1.25-5.62-.62 3.12-.63-3.75 2.5m3.75 4.38-6.87-.63 3.12-.62 3.75 1.25m2.5 7.5 10.63-4.38-5 5a28.26 28.26 0 0 0-5 5c-.42 4.17-3.13 6.26-8.13 6.25.42 0 1.67-1.25 3.75-3.75 2.5-2.5 3.75-5.2 3.75-8.12m-15 2.5 3.13-.63 6.87-1.25-10 1.88m-9.37 7.5 4.37 7.5c-4.58 0-6.88-.2-6.87-.63v-1.25l1.25-9.37 1.25 3.75m-88.13 6.25-.62 1.25c-6.26-5.42-9.38-8.75-9.38-10 0-.42.2-.63.63-.63h.62l8.75 9.38m-85-8.13 4.38 1.25 10 1.25-1.25 1.88v1.87h-3.13l-3.12-1.87-6.25-2.5-.63-1.88m52.5 7.5c.83 2.92-1.46 6.46-6.87 10.63l3.12-5.63.63-5.62 3.12.63m3.13 1.25h5c.83 3.33-.84 6.45-5 9.37v-9.38m8.75 4.38-1.25-1.88c.41.42 0 1.67-1.25 3.75-1.25 2.09-1.88 3.34-1.88 3.75 0 .42 1.67-.41 5-2.5.42-.41.83-.62 1.25-.62l1.88-1.88-3.75-.62m5.62 3.75c0-1.67 1.04-2.5 3.13-2.5 3.74 0 5.62 1.04 5.62 3.13 0 2.08-3.54 3.12-10.62 3.12-.84 0-1.25-.42-1.25-1.25 0 1.67 1.04.83 3.12-2.5m-88.12.63 31.87-1.88-5 2.5-5.62.63-11.25 1.87-3.13-.63H382.41c-2.09.84-3.13.63-3.13-.62v-1.25l4.38-.63m30.62 1.88-2.5 2.5-1.25 3.13 3.75-5.63m-6.25 3.75-1.25 1.25c-.42.42-1.04 1.46-1.87 3.13 0 .83-.42 1.66-1.25 2.5l-1.88-3.13 1.25-2.5 5-1.25m-11.87 3.13c2.5 2.08 3.74 2.7 3.75 1.87 0 2.08-.63 3.13-1.88 3.13l-1.25-.63-.62-4.38m109.38 8.75 3.12 2.5-11.25 1.25 8.13-3.75m-113.75 6.25a68.19 68.19 0 0 0-5 5.63 76.13 76.13 0 0 1-5.63 6.25c-.83 3.75-1.67 5.63-2.5 5.63-1.25 0-1.88-.63-1.87-1.88 0 2.92 1.66 0 5-8.75.41-1.67 1.04-2.5 1.87-2.5l8.13-4.38m58.75 25c.83 0 1.25-.41 1.25-1.25 0-.41-.84-.83-2.5-1.25-1.67-.41-2.5-.41-2.5 0a14.5 14.5 0 0 0 3.75 2.5c-12.09-6.66-22.71-11.04-31.88-13.12 13.33 3.33 20 5.63 20 6.88l10.63 3.12c-.84.42-1.67.63-2.5.63a35.74 35.74 0 0 0-6.25-1.88 14.51 14.51 0 0 1-3.75-2.5c11.25 3.75 15.83 6.04 13.75 6.88m5.62 1.87 4.38.63-2.5 4.37-1.88-5m98.13 48.75-6.88 3.13-.62 1.25-3.13.62c-.42 1.67-1.04 2.5-1.87 2.5h-1.25c.41-.42 1.66-1.25 3.75-2.5l10-5m53.75 17.5c.41-.83 1.04-.63 1.87.63a4.24 4.24 0 0 1 1.25 3.12c0 2.08-1.67 3.13-5 3.13-.42 0-1.25-.63-2.5-1.88l1.88-3.13 1.25-1.87h1.25m-23.75 7.5v3.13c-2.5-2.5-3.76-4.59-3.75-6.25 0-1.67.62-2.5 1.87-2.5l1.88 5.62m-178.12-3.13-5 1.88-2.5 1.88 7.5-3.75m-20 18.75c-4.17 2.5-7.3 4.16-9.38 5 0-.84 1.87-2.71 5.63-5.63 4.16-2.92 6.66-4.37 7.5-4.38h.62l-1.25 2.5a7.29 7.29 0 0 0-1.25 1.88v1.25h-3.75c0-1.67-.62-2.3-1.87-1.88-.84.84.41 1.25 3.75 1.25m-8.75 23.75-1.88-2.5 6.25-4.37c1.25-1.25 2.5-1.87 3.75-1.88 5.83 0 8.75-.2 8.75-.62 0 1.67-3.96 3.33-11.87 5-1.67.42-3.34 1.88-5 4.38m-99.38-3.75c2.5-1.25 6.46-1.46 11.88-.63-.84-.42-2.92 0-6.25 1.25l-4.38 1.25h-1.25l-.62.63c-1.25 0-1.88-.21-1.88-.63v-1.88h2.5m-3.12 28.13.62 6.25v1.25c0 1.25.83 1.67 2.5 1.25 1.67-1.25 1.87-1.87.63-1.88l-6.25 5 1.87-8.12.63-3.75m128.12-3.75-8.75 7.5v-1.88l8.75-5.62m184.38 28.75 5.62-7.5-2.5 8.13-1.25 1.25-1.87-1.88m11.87-8.13v1.88c0 2.08-.83 4.38-2.5 6.88l-2.5 5c-1.25 3.33-2.3 5-3.12 5-1.25-.42-1.88-1.05-1.88-1.88l.63-.63 5.62-10 1.25-4.37 2.5-1.88m-121.25 12.5h5.63l-.63 3.75h-1.87a5.6 5.6 0 0 1-3.13-3.75m-69.37 1.25-3.13 2.5h-9.37 1.25l-2.5-1.25.62-1.87 13.13.63m12.5-1.25-5 5.62c-1.25 3.75-5.42 5.63-12.5 5.63-11.25 0-16.88-2.3-16.88-6.88l1.25-1.25c1.25 0 3.12 1.25 5.63 3.75 2.5 2.08 5.2 3.13 8.12 3.13l4.38-2.5 15-7.5m22.5 18.75 11.25-8.13c-1.67 4.17-5.42 6.88-11.25 8.13m16.25-6.25-.63 2.5a15.38 15.38 0 0 1-9.37 7.5l-2.5 1.87-1.25-1.88c5.41-2.5 10-5.83 13.75-10m118.75 22.5 5 3.13h5.62v1.88h-1.87c-3.76.83-6.67-.84-8.75-5m-330.62 20-1.25-1.25c1.25-2.09 1.66-3.75 1.25-5-.84-2.5-1.05-3.96-.63-4.38l3.75-2.5v8.13l-3.12 5m151.88-1.88h1.87v6.25l-2.5-.63.63-5.62m-18.75 1.25c1.66-.42 2.5.42 2.5 2.5 0 1.25-.63 1.88-1.88 1.88s-1.88-1.05-1.87-3.13c0-.83.41-1.25 1.25-1.25m5.62 0c1.67.42 2.5 1.04 2.5 1.88 0 1.25-.62 1.87-1.87 1.87 2.5 0 2.08-.42-1.25-1.25l.62-2.5m93.75 2.5 6.25 3.13 1.25 3.12-5.62-2.5-5.63-3.75h3.75" transform="translate(-146.86 -119.79)"/>
</svg>
