<svg xmlns="http://www.w3.org/2000/svg" viewBox="0 0 500 500">
    <path d="M146.86 619.79v-500h500v500h-500m7.5-7.5h485v-485h-485v485m7.5-7.5V135.41h469.38v469.38H161.86m299.38-143.75c-3.33 0-5 1.46-5 4.37 0 2.5 1.46 3.76 4.38 3.75 2.91 0 4.37-1.25 4.37-3.75 0-2.91-1.25-4.37-3.75-4.37m-5 11.87c-3.33 0-5 1.67-5 5v.63c.42 1.67 1.67 2.5 3.75 2.5h1.25c2.92-.42 4.37-2.08 4.38-5 0-2.08-1.46-3.12-4.38-3.13m-8.75 10.63-5.63 5.62 5.63-.62c2.08-.83 3.12-1.87 3.13-3.13 0-1.66-.84-2.5-2.5-2.5l-.63.63m-7.5-8.13c-3.75.84-5.63 2.71-5.63 5.63 0 1.25 1.05 1.88 3.13 1.87 5 0 7.5-1.66 7.5-5 0-1.66-1.46-2.5-4.38-2.5H440m9.38-5.62c-.84 0-1.67.42-2.5 1.25.83.83 1.66 1.25 2.5 1.25 1.66 0 2.5-.42 2.5-1.25-.84-.83-1.67-1.25-2.5-1.25m-20 15c-3.76 0-5.63 1.46-5.63 4.37 0 1.25 1.46 1.88 4.38 1.88h1.25c2.91-.42 4.37-1.46 4.37-3.13 0-2.5-1.46-3.54-4.38-3.12m6.88 6.87c-2.5 0-3.75 1.25-3.75 3.75 0 2.09 1.04 2.71 3.13 1.88 2.08 0 3.12-1.04 3.12-3.13 0-1.66-.83-2.5-2.5-2.5m-30-66.87c2.92-.42 7.7-1.25 14.38-2.5 6.66-1.25 11.66-1.87 15-1.88 5.83 0 8.74 1.88 8.75 5.63l-2.5 5-.63 1.25c0 2.08 1.04 3.13 3.13 3.12 5 0 7.5-2.5 7.5-7.5 0-8.74-5.63-13.12-16.88-13.12-7.5 0-17.08 3.33-28.75 10m100 43.75c-1.67.42-2.5 1.46-2.5 3.12 0 1.67 1.04 2.5 3.13 2.5 2.08 0 3.12-.83 3.12-2.5 0-2.08-1.25-3.12-3.75-3.12m-10 8.12c-1.67 0-2.5 1.05-2.5 3.13 0 1.67 1.04 2.5 3.13 2.5 2.5 0 3.74-1.04 3.75-3.13 0-1.66-1.46-2.5-4.38-2.5M178.12 230.41v8.75c-.42 8.34 1.46 15.42 5.63 21.25 4.58 5.84 10.2 8.76 16.87 8.75 10.42 0 15.63-5.62 15.63-16.87 0-10-4.17-15-12.5-15-7.09 0-10.63 2.3-10.63 6.87 0 .84.2 1.25.63 1.25l1.87-.62c3.33-1.67 5.83-2.5 7.5-2.5 4.58 0 6.87 2.92 6.88 8.75 0 7.08-3.55 10.62-10.63 10.62-10.83 0-17.08-10.2-18.75-30.62l-2.5-.63M317.5 379.16l3.13 1.25a443.3 443.3 0 0 1 16.25-18.75c5.41-5.41 10.41-9.79 15-13.12 5.83-4.58 10.62-8.33 14.37-11.25s6.46-5 8.13-6.25c6.66-5.42 10-11.67 10-18.75 0-11.25-6.26-16.88-18.75-16.88-8.76 0-13.13 3.96-13.13 11.88l1.25 6.25c5.42-7.92 9.8-11.88 13.13-11.88 7.08 0 10.62 4.38 10.62 13.13 0 6.67-3.33 12.7-10 18.12l-20.63 15.63a196.44 196.44 0 0 0-14.37 13.12c-5 5-10 10.84-15 17.5m1.25-73.12c12.5-1.67 18.75-4.37 18.75-8.13-.83-.83-2.08-1.25-3.75-1.25-5.83 0-10.83 3.13-15 9.38m23.13-19.38c-3.76 0-5.63 1.67-5.63 5 .83.84 2.08 1.25 3.75 1.25 2.92 0 4.37-1.04 4.38-3.12 0-1.67-.84-2.7-2.5-3.13m5.62 6.88c-4.17 0-6.25 1.46-6.25 4.37 0 2.09 1.67 3.13 5 3.13h1.25c2.5-.42 3.75-1.87 3.75-4.38 0-2.08-1.25-3.12-3.75-3.12m-9.38 10c-2.08 0-3.12.83-3.12 2.5 0 1.25 1.04 1.88 3.13 1.87 2.5 0 3.74-.83 3.75-2.5 0-1.25-1.25-1.87-3.75-1.87m-44.38-3.13c-10.83 8.76-23.13 13.13-36.88 13.13l-1.25 5.62c1.25.42 3.13.63 5.63.63h5.63c12.5 0 21.45-6.46 26.87-19.38M255 322.3l-.63 2.5h10c2.92.42 6.25.42 10 0 4.17-.83 8.96-1.67 14.38-2.5 10.42-2.5 18.54-3.75 24.38-3.75 12.91 0 19.37 4.38 19.37 13.12 0 2.5-1.46 5.21-4.38 8.13-2.91 2.5-5.83 3.75-8.75 3.75-1.25 0-2.7-.42-4.37-1.25l-1.88-1.25c-.41 0-.62.42-.62 1.25 0 6.25 5.42 9.38 16.25 9.37 10.83 0 15.83-5.41 15-16.25l-.63-6.25 6.25-1.25c-2.5-12.08-9.79-18.12-21.87-18.12-5.42 0-15.63 2.3-30.63 6.87-13.33 4.59-23.95 6.46-31.87 5.63h-10m-56.25 176.25a62.32 62.32 0 0 0-9.38 1.87c-2.5.84-4.79 1.67-6.87 2.5 1.25.42 3.33.63 6.25.63 2.08 0 5.42-1.67 10-5m-19.38-5c-2.08 0-3.12.83-3.12 2.5 0 2.08 1.25 3.13 3.75 3.12 2.08 0 3.12-1.04 3.13-3.12 0-1.67-1.25-2.5-3.75-2.5m-6.25 7.5c-1.25 0-1.88.83-1.88 2.5s.63 2.5 1.88 2.5c2.5 0 3.74-.83 3.75-2.5 0-1.67-1.25-2.5-3.75-2.5m8.12 6.87c-2.5 0-3.75 1.05-3.75 3.13s1.04 3.13 3.13 3.12c2.5 0 3.74-1.25 3.75-3.75 0-1.66-1.05-2.5-3.13-2.5m50-25-8.75 1.88-16.88 5.62c-3.33.84-5.62 1.25-6.87 1.25-6.25 0-11.88-2.29-16.88-6.87-4.58-4.58-6.87-10-6.87-16.25 0-12.08 5.62-18.13 16.88-18.13 9.58 0 14.37 4.17 14.37 12.5 0 6.26-3.54 9.38-10.63 9.38l-7.5-3.75-.62 3.75c-.83 2.5 1.25 3.96 6.25 4.37 3.33.84 5.2 2.5 5.63 5 8.74-5.41 13.12-11.25 13.12-17.5 0-12.91-6.88-19.37-20.63-19.37-5.83 0-10.83 2.3-15 6.87-4.16 4.17-6.25 9.59-6.25 16.25 0 7.5 2.71 13.96 8.13 19.38 5.42 5 12.08 7.5 20 7.5 1.67 0 8.96-2.3 21.88-6.88.83-.41 2.08-.83 3.75-1.25 2.08-.83 4.79-1.66 8.12-2.5l-1.25-1.25m36.25-137.5c-3.75 4.59-5.63 7.92-5.63 10 .42.84.84 2.09 1.25 3.75l1.88 5.63.63 1.87c0 .42-.21.63-.63.63-2.08 0-3.96-3.12-5.63-9.38l-.62 5c0 2.5.63 5.21 1.88 8.13 1.66 2.5 3.33 4.8 5 6.87a32.9 32.9 0 0 1 5 6.25c1.66 1.67 2.5 3.13 2.5 4.38 0 3.75-2.3 5.63-6.88 5.62-3.75 0-9.38-6.04-16.88-18.12-7.08-12.08-21.66-18.13-43.75-18.13-23.33 0-35 7.92-35 23.75 0 9.17 2.71 14.59 8.13 16.25l11.88 4.38c2.08.83 3.12 2.5 3.12 5 0 4.17-2.3 5.83-6.88 5h-5.62c-6.25-.42-9.38 2.08-9.38 7.5s2.3 8.13 6.88 8.12c.83 0 1.25-.41 1.25-1.25 0-.83-.2-1.45-.63-1.87l-3.75-3.75c0-4.58 1.88-6.87 5.63-6.88.42.42 1.25.63 2.5.63s2.3.2 3.13.62l2.5.63c5.83 0 8.74-2.3 8.75-6.88 0-4.16-1.46-6.87-4.38-8.12l-13.13-5c-5-1.67-7.5-6.46-7.5-14.38 0-5.83 3.34-10.62 10-14.37 6.67-4.17 14.8-6.25 24.38-6.25 19.17 0 32.5 6.25 40 18.75l9.38 16.87c2.91 5.42 7.5 8.13 13.75 8.13 10.41 0 15.62-6.46 15.62-19.38 0-5.83-4.58-13.33-13.75-22.5-4.17-4.16-6.25-7.7-6.25-10.62v-2.5c.42-1.25.83-2.7 1.25-4.38m-81.25 75c-2.08 0-3.13.84-3.13 2.5 0 1.67.84 2.5 2.5 2.5 2.09 0 3.13-.83 3.13-2.5 0-1.66-.83-2.5-2.5-2.5m-.63 8.75c-2.5 0-3.75 1.05-3.75 3.13s1.05 3.13 3.13 3.12c2.5 0 3.75-1.04 3.75-3.12s-1.04-3.12-3.13-3.13m-12.5 1.25c-2.08 0-3.12 1.05-3.12 3.13 0 1.67 1.25 2.5 3.75 2.5 2.08 0 3.12-.83 3.13-2.5 0-2.08-1.25-3.12-3.75-3.13m.62-154.38c.42 2.5.63 4.38.63 5.63l.62 1.87a64.98 64.98 0 0 0 3.13 6.88c1.66 2.92 3.95 6.88 6.87 11.87 6.25 9.59 9.37 17.92 9.38 25 0 11.67-4.17 17.5-12.5 17.5-3.34 0-5-2.91-5-8.75v-2.5l3.12-11.25.63-1.25c0-2.08-1.46-4.37-4.38-6.87l-3.13 1.25c2.09 2.08 3.13 3.96 3.13 5.62l-3.13 9.38c-1.25 2.5-1.87 5-1.87 7.5 0 9.17 3.96 13.75 11.88 13.75 3.74 0 7.08-2.3 10-6.88 3.33-5 5-10.41 5-16.25 0-6.24-1.46-12.08-4.38-17.5l-13.13-21.87-6.87-13.13m8.13-85c-8.76 22.09-13.13 40-13.13 53.75 0 21.67 11.67 41.05 35 58.13l1.88-5.63c-21.25-16.66-31.88-35.41-31.88-56.25 0-11.66 3.33-26.04 10-43.12l-1.88-6.88m-11.25-12.5c3.75 2.5 6.67 3.76 8.75 3.75 4.59 0 6.88-1.87 6.88-5.62 0-.83-.63-1.25-1.88-1.25-1.66 0-4.16.42-7.5 1.25-2.91.83-5 1.46-6.25 1.87m403.75 416.88-3.12-4.37 5.63-8.13c.41-.41.62-1.25.62-2.5 0-.83-.42-1.25-1.25-1.25h-.63a14.65 14.65 0 0 0-5 3.13c-4.58 5.83-6.87 8.96-6.87 9.38 0 3.33 1.87 5 5.63 5l5-1.25m-16.25-10c-4.17.83-6.88 1.25-8.13 1.25-2.08 0-4.17-1.05-6.25-3.13-21.25 5-37.92 7.5-50 7.5-4.17 0-9.38-.2-15.63-.63-5.83-.83-12.7-1.66-20.62-2.5 20 6.25 35.83 9.38 47.5 9.38 14.58 0 32.3-3.96 53.13-11.88m-13.75-6.87c-16.67 3.33-26.05 5-28.13 5-12.5 0-18.75-2.92-18.75-8.75 0-3.75 1.67-6.25 5-7.5h1.25c4.17 0 6.25 1.46 6.25 4.38l-.63 1.25-.62 1.87c0 .83.2 1.25.63 1.25 5.41 0 8.12-2.08 8.12-6.25s-3.33-6.25-10-6.25c-11.25 0-17.5 2.92-18.75 8.75l-1.25 2.5v.63c-1.25 0-2.7-.84-4.38-2.5-2.08 1.25-3.12 2.29-3.12 3.12 0 8.33 7.5 12.5 22.5 12.5 2.92 0 16.67-2.5 41.25-7.5l.63-2.5m-61.88 10-1.88-1.88-8.75-2.5c-4.58-.83-6.87-2.91-6.87-6.25v-.62c.42-.83.83-1.88 1.25-3.13-.42-.41-1.67-.62-3.75-.62-4.17 0-6.25 1.46-6.25 4.38 0 6.66 8.75 10.2 26.25 10.62m-50.63-12.5H420a97.47 97.47 0 0 0 23.13 13.13c8.33 2.91 17.08 5.2 26.25 6.87a446.65 446.65 0 0 1-20-10 326.92 326.92 0 0 1-17.5-10m-16.25 0-13.75-1.25c12.5 8.33 27.08 14.17 43.75 17.5a176.9 176.9 0 0 1-15.63-6.88c-5-2.91-9.8-6.04-14.38-9.37m28.13 19.38c-14.58-3.75-31.67-9.38-51.25-16.88-15-6.67-26.46-10-34.38-10-12.5 0-18.75 4.17-18.75 12.5 0 7.5 5.21 11.88 15.63 13.13-3.33-4.59-5-7.3-5-8.13 0-6.67 4.8-10 14.38-10 5.83 0 12.5 1.88 20 5.63 15.83 7.91 35.62 12.5 59.37 13.75m-130 0c2.92 1.25 5.42 1.87 7.5 1.87 2.5 0 5.2-.83 8.13-2.5-3.34-1.25-5.84-1.88-7.5-1.88-2.5 0-5.21.84-8.13 2.5m-48.13-14.37h2.5c8.75 0 16.88 2.5 24.38 7.5 5.42 3.75 10 5.2 13.75 4.38l8.75-2.5 12.5-2.5c1.67-.42 1.04-3.13-1.88-8.13-2.91-5.42-4.37-8.96-4.37-10.63 0-.83 1.04-2.91 3.13-6.25-5.42 0-9.17.84-11.25 2.5-1.67 1.25-3.13 4.59-4.38 10-.83 5-1.88 7.5-3.13 7.5s-4.37-1.25-9.37-3.75c-5-2.91-9.17-4.37-12.5-4.37-4.17 0-10.2 2.08-18.13 6.25m-91.87-48.75c-2.5 5.83-3.75 10.83-3.75 15 0 9.58 1.67 17.7 5 24.38 3.33 6.66 5 11.04 5 13.12 0 3.75-1.88 6.46-5.63 8.13 2.5 1.25 4.38 1.87 5.63 1.87 5 0 7.5-2.5 7.5-7.5 0-2.92-1.25-6.04-3.75-9.38-5.83-8.75-8.96-13.75-9.38-15-1.66-2.91-2.5-7.29-2.5-13.12 0-4.17.63-10 1.88-17.5m13.75 32.5c-4.17-8.33-6.25-15.63-6.25-21.88 0-12.5 6.25-24.16 18.75-35 12.92-10.41 27.3-15.62 43.13-15.62 11.25 0 23.33 3.96 36.25 11.87l.62-4.37c-14.17-7.92-26.88-11.88-38.13-11.88-14.16 0-27.91 4.8-41.25 14.38-16.25 11.25-24.37 23.33-24.37 36.25 0 7.08 3.75 15.83 11.25 26.25m55.63-65.63c-11.25.84-16.88 4.38-16.88 10.63 0 5 1.67 7.5 5 7.5 1.67 0 3.75-1.25 6.25-3.75-4.58-.83-6.88-2.3-6.88-4.38 0-4.58 4.17-7.91 12.5-10m-34.37 30.63c.42.83.63 2.5.63 5 0 5.42-1.67 8.13-5 8.13-5.84 0-8.76-3.96-8.75-11.88 0-16.25 15.62-27.92 46.87-35-33.75 2.08-50.63 14.58-50.63 37.5 0 10.83 3.96 16.25 11.88 16.25 5.83 0 8.75-3.33 8.75-10 0-2.08-1.25-5.42-3.75-10m268.75-187.5 6.25 6.25 3.75 4.37c1.25 1.25 2.3 1.88 3.13 1.88 1.25 0 1.87-1.04 1.87-3.13 0-3.74-5-6.87-15-9.37m23.13 6.25c-2.5 0-3.76 1.04-3.75 3.12 0 2.92 1.25 4.38 3.75 4.38 2.08 0 3.12-1.04 3.12-3.13 0-2.91-1.04-4.37-3.13-4.37m-6.25 8.75c-2.5 0-3.75 1.25-3.75 3.75 0 2.08 1.25 3.13 3.75 3.12 2.09 0 3.13-1.04 3.13-3.12 0-2.5-1.04-3.75-3.13-3.75m-10.62-2.5c-2.08 0-3.13 1.04-3.13 3.12 0 2.5 1.25 3.76 3.75 3.75 2.09 0 3.13-1.04 3.13-3.12 0-2.5-1.25-3.75-3.75-3.75m31.88-10c5.83 5.83 8.74 10.62 8.75 14.37 0 2.09-1.88 3.76-5.63 5 4.17.84 6.67 1.25 7.5 1.25 3.33 0 5-2.29 5-6.87 0-6.25-5.2-10.83-15.63-13.75m-101.88 56.87c7.92-1.25 15-1.87 21.25-1.87 20.84 0 31.25 9.8 31.25 29.37a20.8 20.8 0 0 1-3.12 11.25l-3.13 5 1.25.63 2.5-.63 2.5.63.63 1.87v8.75l2.5 10-1.25 9.38c21.25 0 33.54-5.42 36.88-16.25.41-2.5 1.04-3.75 1.87-3.75 1.67 0 3.33.83 5 2.5 1.25-6.67 1.87-11.67 1.88-15 0-5.42-1.25-9.8-3.75-13.13l-11.88-14.37-1.25-3.75c0-1.25.42-1.87 1.25-1.88 3.33 0 6.67 1.88 10 5.63 8.75 10.83 13.13 22.3 13.13 34.37 0 7.92-4.17 19.17-12.5 33.75 15.41-5 23.12-15.62 23.12-31.87 0-27.92-20.83-47.7-62.5-59.38 14.17 13.75 21.25 26.05 21.25 36.88 0 2.92-.63 4.38-1.88 4.37-1.25 0-1.87-2.91-1.87-8.75 0-5-6.67-15.41-20-31.25-2.92-1.66-6.46-2.5-10.63-2.5h-.62c8.33 5.84 12.5 9.38 12.5 10.63 0 .42-.2.83-.63 1.25-.41-.42-.83-.63-1.25-.63L460 397.3l-7.5-4.38c-2.08-1.25-3.95-1.87-5.62-1.87s-2.5.42-2.5 1.25c0 1.67 2.08 2.92 6.25 3.75 4.17.42 6.25 1.67 6.25 3.75l-.63.62-1.25-.62-22.5-6.88c-2.91 0-9.16 2.92-18.75 8.75m116.88 68.75c-7.91 11.67-16.87 17.5-26.87 17.5-4.17 0-9.58-1.04-16.25-3.12s-11.67-3.12-15-3.13c-2.5 0-6.25 1.25-11.25 3.75 1.25 2.09 1.87 3.55 1.88 4.38 0 2.5-1.25 3.33-3.75 2.5H455c-7.92-.42-15.2 6.46-21.88 20.62l6.88-1.25 11.88 3.75 8.75 1.88-1.88 5.63c5.42.83 10 1.66 13.75 2.5 3.75.41 7.08.62 10 .62 6.67 0 16.04-4.17 28.13-12.5-1.67 1.67-4.17 2.5-7.5 2.5-1.25 0-2.3-.42-3.13-1.25.42-.42.83-.63 1.25-.63l10-3.75 11.25-12.5c-9.17 7.92-19.38 11.88-30.63 11.88-6.25 0-9.37-1.04-9.37-3.13a4.24 4.24 0 0 1 3.13-1.25c-.84 0-.84.21 0 .63 1.25 0 3.54.2 6.87.62h3.75c5.83 0 11.67-1.66 17.5-5 7.92-5.41 12.5-9.37 13.75-11.87v-1.25c.42-.83.83-2.3 1.25-4.38a58.52 58.52 0 0 1-7.5 5c-2.5 1.25-5.42 2.92-8.75 5-.83 0-1.25-.2-1.25-.62s.42-1.04 1.25-1.88l13.13-7.5 5.62-6.87-.63-6.88m-163.75 63.75 5.63.63c-6.67-21.67-10-40.2-10-55.63 0-15 4.37-31.87 13.13-50.62l6.87-13.75c4.17-7.92 10.2-18.75 18.13-32.5l11.87-21.88c-1.25-.41-2.3-.62-3.13-.62l-.62-.63c-1.67 0-2.7.21-3.13.63l-11.87 25.62-25 48.13c-7.5 14.58-11.25 31.04-11.25 49.37 0 12.5 3.12 29.59 9.38 51.25m111.88-154.38v1.88c0 3.75 1.87 5.83 5.62 6.25.83 0 3.12.42 6.88 1.25 3.74.42 9.16 1.04 16.25 1.87 10 1.25 19.79 5.63 29.37 13.13-7.92-8.33-14.17-12.92-18.75-13.75l-30.63-6.25-8.75-4.38M322.5 412.91c17.92-16.67 31.88-25 41.88-25 5 0 7.92 1.25 8.75 3.75a34.57 34.57 0 0 1 3.13 6.87c.83.84 1.66 1.25 2.5 1.25l.62-.62c2.92-.42 4.37-2.92 4.38-7.5v-1.25c-2.09-7.5-6.88-11.25-14.38-11.25-12.5 0-28.13 11.25-46.88 33.75m44.38 14.37c.42-1.25.63-3.54.63-6.87 0-7.5-2.5-11.25-7.5-11.25s-7.5 2.5-7.5 7.5c0 2.5 1.45 4.58 4.37 6.25.42-4.17 1.46-6.25 3.13-6.25 4.58 0 6.87 3.13 6.87 9.37v1.25m62.5-118.12c2.5-3.74 3.75-12.29 3.75-25.62 0-5.83-.63-14.38-1.88-25.63-.41-5.83-.83-10.83-1.25-15v-11.25c0-12.5 2.09-18.75 6.25-18.75 1.67 0 3.34.84 5 2.5 2.09-3.33 3.13-5.41 3.13-6.25 0-4.16-2.5-6.24-7.5-6.25-8.75 0-12.92 6.46-12.5 19.38v3.12l6.25 56.25-1.25 27.5m9.38-71.25c1.66 1.25 2.91 1.88 3.75 1.88 0-.42.83-.63 2.5-.63l1.87-.62c.83 0 1.25.62 1.25 1.87v13.75c.42.42 0 2.92-1.25 7.5 5-1.25 8.75-2.7 11.25-4.37 2.5-2.08 4.17-3.96 5-5.63 1.25-1.66 1.87-3.12 1.88-4.37.41-1.25.83-1.87 1.25-1.88l3.12 3.13 2.5-8.13-.63-9.37c0-1.25.63-1.87 1.88-1.88 1.25 0 1.87 2.09 1.88 6.25v3.75c-1.25 4.59-1.88 8.13-1.88 10.63 0 3.33 1.25 7.08 3.75 11.25 2.5-2.92 4.58-4.37 6.25-4.38.83 0 1.67.63 2.5 1.88l2.5 6.25 9.38 7.5 2.5 5.62c4.58-8.33 6.87-13.95 6.87-16.87 0-1.67-.42-3.75-1.25-6.25-.42-2.5-.63-4.37-.63-5.63l.63-.62c.42 0 1.04.62 1.88 1.87 1.25.84 2.08 1.25 2.5 1.25 1.66 0 2.5-2.29 2.5-6.87 0-3.33-.84-5.83-2.5-7.5l-10.63-13.13c-.83-.83-1.25-1.45-1.25-1.87.83-.83 1.46-1.25 1.88-1.25.83 0 1.87.83 3.12 2.5 2.08 3.75 7.92 7.92 17.5 12.5v-.63c0-1.25.63-1.87 1.88-1.87h5l6.87-6.25-3.13-1.25a24.5 24.5 0 0 0-5.62-3.13l-5-2.5-2.5-1.87v-1.25l.63-2.5-10.63-2.5-5-3.13-9.38-2.5c2.92 2.5 4.38 4.59 4.38 6.25-.42.42-.83.63-1.25.63-1.25 0-2.5-.63-3.75-1.88l-6.88-6.87c-.83-1.25-2.08-1.67-3.75-1.25H480c-.41.42-.62 1.04-.62 1.87 0 7.5 2.08 14.59 6.25 21.25 2.08 3.34 3.12 5.63 3.13 6.88 0 .42-.42 1.04-1.25 1.87-1.67 0-3.96-3.74-6.88-11.25l-4.38-12.5v-9.37c-.41-.42-1.25-.63-2.5-.63-.83 0-1.45-.2-1.87-.62h-2.5c-2.5 0-3.54 2.08-3.13 6.25v6.25c.42 2.92-.2 4.38-1.87 4.37-1.67 0-2.5-1.66-2.5-5 0 .84.2.21.63-1.87.41-2.5 1.04-6.46 1.87-11.88l-5-1.25c-3.75 0-6.88 5.42-9.38 16.25-1.25 5.84-5 13.75-11.25 23.75m-56.25 300c2.92.84 5.63 1.46 8.13 1.88 2.92.42 6.04.83 9.38 1.25l2.5-6.25 1.25-6.25.62-.63c0-.41.2-.83.63-1.25 1.25 0 1.87.84 1.87 2.5 0-.83-1.46 3.13-4.38 11.88 4.17 1.25 7.5 1.88 10 1.88l6.88-.63a23.7 23.7 0 0 0 6.25-14.38H420c-.83 0-1.25-.62-1.25-1.87l.63-6.25c.42-4.17-3.13-10-10.63-17.5l-6.25 8.12-6.87 6.88c-.42.42-1.04 1.67-1.88 3.75-.41 2.08-.83 3.13-1.25 3.13-.41 0-1.04-.42-1.87-1.25l-2.5-4.38-3.13 2.5c-2.08 2.08-3.12 5.83-3.12 11.25l.63 5.63m-24.38-26.25c-1.67-20.42-7.92-30.63-18.75-30.63s-16.25 4.8-16.25 14.37c0 10 4.37 15 13.13 15l1.87-.62 4.38-2.5-1.25-.63h-3.13c-5.83 0-8.75-2.91-8.75-8.75 0-7.5 3.75-11.25 11.25-11.25 6.25 0 12.08 8.34 17.5 25m-180 48.75c2.08 4.59 3.96 8.34 5.63 11.25a88.66 88.66 0 0 0 4.37 5c1.67 1.67 8.12 2.5 19.38 2.5h4.37l-1.25 1.88-6.25 1.25c-2.08.42-4.58.83-7.5 1.25 5.42 2.5 10 3.75 13.75 3.75 2.92 0 6.67-1.25 11.25-3.75s7.5-5 8.75-7.5l3.75-6.25c.42-1.25 1.25-1.88 2.5-1.88.83 0 1.25.63 1.25 1.88 0 5.83-7.5 12.5-22.5 20l9.38-.63 5-3.75h1.25c.41 0 .62.21.62.63 0 2.08-.83 3.33-2.5 3.75a49.97 49.97 0 0 0 28.75-14.38c5.42-4.58 10.42-7.29 15-8.12-1.25-1.67-2.7-3.75-4.38-6.25-2.08-1.25-3.95-1.88-5.62-1.88l-5 .63c-1.67 0-2.5-.42-2.5-1.25 0-.42.42-1.67 1.25-3.75.83-2.5 1.25-5 1.25-7.5 0-4.58-1.88-9.58-5.63-15-3.33-5.83-5-10.2-5-13.13l-.62-6.25c-2.92 0-6.88 3.76-11.88 11.25l-1.87 3.75c-.83 2.5-1.88 4.8-3.13 6.88-.83 1.67-1.25 2.7-1.25 3.13-.41 0-1.45-.21-3.12-.63a17.07 17.07 0 0 0-3.75-.63c-1.67 0-3.33 1.25-5 3.75 2.92 5.42 4.37 9.8 4.38 13.13 0 12.08-6.88 18.13-20.63 18.13-5.83 0-13.33-3.75-22.5-11.25m440.62-143.13c-2.5.84-3.75 1.67-3.75 2.5v1.88l2.5 7.5c2.5 10 3.75 21.04 3.75 33.12 0 7.09-.63 13.13-1.88 18.13l-5.62 23.12c-3.75 16.25-8.33 24.38-13.75 24.38h-.63l-1.87-2.5h-.63c-2.5 0-6.04 2.3-10.62 6.88-20 22.08-35.2 33.12-45.63 33.12-1.66 0-2.7-.2-3.12-.63l-8.13-4.37c-.41-.42-1.25-.63-2.5-.63s-1.87.84-1.87 2.5c0 7.09 5.42 10.63 16.25 10.63 3.33 0 5.42-.2 6.25-.63h3.13c.41 0 .62.21.62.63 0 .83-.2 2.3-.63 4.38a31.07 31.07 0 0 0-.62 3.75h2.5c13.75.41 23.75-5 30-16.25 5-9.17 8.96-13.75 11.88-13.75 2.08 0 3.12 1.25 3.12 3.75 0 2.08-2.08 4.58-6.25 7.5-5.83 3.75-8.75 9.16-8.75 16.25v5.62l1.25 6.25c.83 0 2.5-.63 5-1.88 2.92-1.66 4.58-2.5 5-2.5 2.08 0 4.58 1.46 7.5 4.38 3.33 2.92 6.04 4.58 8.13 5h2.5c10 .83 15-3.13 15-11.88 0-.83-.21-1.45-.63-1.87L620 569.79c-.42-.41-.63-1.66-.63-3.75 0-4.58 1.67-6.87 5-6.87l.63.63c.83 0 1.87.2 3.13.62-.84-5-2.5-7.5-5-7.5l-1.88.63c-3.75 1.25-5.63 3.95-5.63 8.12 0 3.33 1.67 8.75 5 16.25a12.06 12.06 0 0 1 1.88 6.25c0 2.5-1.04 3.75-3.13 3.75-7.08 0-10.62-5.83-10.62-17.5 0-3.33 2.92-10.42 8.75-21.25 1.25-2.92 1.87-5.2 1.88-6.88 0-1.66-1.05-3.12-3.13-4.37-1.67-1.67-2.5-2.7-2.5-3.13l.63-1.87c8.74-31.25 13.12-53.96 13.12-68.13 0-10.83-2.92-26.66-8.75-47.5M450 312.91l-.63 1.88c27.09-4.58 40.63-14.8 40.63-30.63 0-13.33-6.88-20-20.63-20-12.5 0-18.75 5.84-18.75 17.5 0 7.92 2.92 11.88 8.75 11.88l5-3.13c-5-1.66-7.5-3.95-7.5-6.87 0-6.67 3.75-10 11.25-10 9.59 0 14.38 4.8 14.38 14.37 0 10.42-10.83 18.75-32.5 25m71.88-29.37c-2.92-2.92-4.38-5.83-4.38-8.75 0-5.83 3.75-8.75 11.25-8.75 8.33 0 12.5 4.17 12.5 12.5 0 12.5-10.42 20.42-31.25 23.75l-20 3.12-5 2.5c20.42-1.25 35.42-3.12 45-5.62 17.5-5.42 26.25-15.83 26.25-31.25 0-7.08-3.96-15.83-11.88-26.25-1.25.83-2.08 2.92-2.5 6.25-.41 3.33-1.45 5-3.12 5-.83 0-2.3-.2-4.38-.63a17.17 17.17 0 0 0-3.75-.62c-12.5 0-18.75 6.25-18.75 18.75 0 7.92 2.5 11.87 7.5 11.87.42-.41.84-.62 1.25-.62l1.25-1.25m-77.5 43.12a510.23 510.23 0 0 1 23.13-3.75 139.9 139.9 0 0 1 16.88-1.25c4.58 0 8.95.42 13.12 1.25a156 156 0 0 1 13.75 1.88l47.5 10 16.88 1.25-.63-1.88-27.5-4.37-41.88-8.75c-2.5-.42-5.2-.63-8.12-.63-2.5-.41-5.2-.62-8.13-.62-8.33 0-22.5 1.25-42.5 3.75l-2.5 3.12m-1.25-5.62 2.5.62 25.63-3.75 51.25-1.87c20.42-1.25 42.92-8.96 67.5-23.13l-3.13-3.12A482.76 482.76 0 0 1 555 302.91c-8.75 3.34-16.04 5.42-21.88 6.25-2.91.42-7.91.84-15 1.25-6.66.42-15.83 1.05-27.5 1.88-15.83.83-30.83 2.7-45 5.62l-2.5 3.13m-7.5 12.5 9.38 3.75c5.83-.42 11.46-.63 16.88-.63 5.83-.41 11.66-.62 17.5-.62 27.5 0 58.95 10.83 94.37 32.5l6.88-1.25c-37.09-25-74.17-37.5-111.25-37.5-8.34 0-19.59 1.25-33.75 3.75m15 6.25 1.87 1.87c12.08.84 18.13 5.21 18.13 13.13 0 5-1.88 7.5-5.63 7.5l-3.13-.63c2.5 3.76 4.38 5.63 5.63 5.63 6.67 0 10-3.75 10-11.25 0-10.42-8.96-15.83-26.88-16.25m116.25-86.88C565.63 260 565 265.62 565 269.8c0 5.83 2.92 12.92 8.75 21.25l2.5-2.5c-6.25-10-9.38-17.92-9.38-23.75v-3.75c.42-2.08.84-4.37 1.25-6.88l-1.25-1.25m31.25 50.63 1.88 1.87a33.65 33.65 0 0 1 10.63-1.87c9.58 0 14.16 6.88 13.75 20.62v1.25h3.12c-.42-16.66-6.04-25-16.88-25-2.08 0-6.25 1.05-12.5 3.13m-10.62-1.88c-.83.84-1.25 1.46-1.25 1.88l1.25 1.87c.83 1.25 2.3 2.92 4.38 5 .83.84 1.87 2.09 3.12 3.75l5 5 3.13-2.5c-6.26-6.66-11.46-11.66-15.63-15m-34.38 13.75 1.88-.62c11.25 0 16.88 2.08 16.88 6.25l-.63 1.25c0 .42-.2 1.25-.63 2.5 4.17-2.92 6.25-5.2 6.25-6.88 0-4.58-3.54-6.87-10.62-6.87-4.58 0-8.96 1.46-13.13 4.37m-6.87 26.25c6.67 3.76 11.46 5.63 14.38 5.63 5 0 7.5-1.67 7.5-5 0-1.67-.84-2.5-2.5-2.5-.42 0-1.25.62-2.5 1.87-.84.84-2.92 1.25-6.25 1.25h-5c-1.67-.41-3.55-.83-5.63-1.25m43.13-26.87c-7.92 12.92-11.67 25.62-11.25 38.12v6.88l3.12-.63c0-15.41 3.33-29.58 10-42.5l-1.88-1.87m25-2.5c-7.08 9.58-16.04 16.04-26.87 19.37v2.5a65.81 65.81 0 0 0 29.38-18.12l-2.5-3.75m-2.5 12.5-2.5 3.12a38.66 38.66 0 0 1 4.37 6.88c1.67 2.5 3.33 4.8 5 6.87l.63-4.37c-2.09-5-4.59-9.17-7.5-12.5m13.12 15c-4.58 12.08-10 18.12-16.25 18.12-5.42 0-8.13-2.5-8.13-7.5 0-4.16 3.13-8.54 9.38-13.12-9.58 3.75-14.38 8.75-14.38 15 0 7.08 3.55 10.62 10.63 10.62 9.58 0 15.83-7.7 18.75-23.12m0 20-1.25 1.25c.42 3.75.63 7.3.63 10.62.41 2.92.62 5.42.62 7.5 0 5.42-1.67 12.71-5 21.88-4.58 10-9.38 15-14.38 15-2.91 0-7.7-1.87-14.37-5.63 6.25 6.26 11.04 9.38 14.38 9.38 4.58 0 9.16-2.92 13.75-8.75 5.41-7.92 8.12-16.25 8.12-25 0-3.75-.2-7.7-.63-11.88-.41-4.58-1.04-9.37-1.87-14.37m-24.38 43.12a34.47 34.47 0 0 1 1.88 4.38l1.25 2.5h1.88l-5-6.88m-.63-7.5c2.92 4.59 5.42 8.96 7.5 13.13l4.38-3.75c-3.34-7.5-6.05-11.25-8.13-11.25-.83 0-2.08.62-3.75 1.87m11.25 26.88-2.5 1.25c.42 3.33.63 6.67.63 10 .41 2.92.62 5.83.62 8.75 0 14.58-3.96 22.08-11.88 22.5h-.62c-2.08 0-3.75-.2-5-.63v2.5c0 1.67.2 2.92.63 3.75 2.08.42 3.54.84 4.37 1.25h2.5c9.58-2.08 14.38-10.83 14.38-26.25 0-3.33-.42-6.87-1.25-10.62-.42-3.75-1.05-7.92-1.88-12.5m1.88 48.12a52.13 52.13 0 0 0-8.75 15.63h3.75c4.16-4.17 6.24-7.7 6.25-10.63l-1.25-5m-245 34.38c6.66-12.5 17.5-18.75 32.5-18.75 18.33-.83 27.5-3.12 27.5-6.88 0-.83-1.25-1.87-3.75-3.12l-3.13-1.88c.42-1.66 2.08-2.08 5-1.25h5c8.75 0 17.7-5.83 26.88-17.5l-13.13-5-11.88-10-4.37-1.25c-1.25-.41-1.88-1.04-1.88-1.87v-1.88l3.13-1.87 1.25-5.63-13.13 3.13-15 1.87c-4.58.42-10.41 3.13-17.5 8.13-.83.83-1.45 1.25-1.87 1.25-.42-.42-.63-.83-.63-1.25v-1.25c1.67-5.83 5.21-10.42 10.63-13.75l25-14.38a57.21 57.21 0 0 1 18.13-3.12c6.66 0 13.12 1.25 19.37 3.75.42.42 1.25.62 2.5.62v-.62c0-1.25-4.38-3.75-13.13-7.5l4.38-.63a95.22 95.22 0 0 0-21.88-2.5c-17.5 0-33.95 10.63-49.37 31.88-6.25 8.75-9.38 16.67-9.38 23.75 0 3.33.63 5 1.88 5h2.5l-.63 2.5-5 7.5c-.83 2.5-1.25 3.54-1.25 3.12 0 .42.42.63 1.25.63 2.5 0 5.84-2.7 10-8.13 5.84-7.5 16.05-11.66 30.63-12.5h1.88c0 1.25-6.26 3.34-18.75 6.25-10.84 3.34-18.96 12.09-24.38 26.25 1.67-.41 2.92-.83 3.75-1.25.83-.41 3.75-3.54 8.75-9.37 1.67-2.5 4.37-3.75 8.13-3.75 1.25 0 1.87.2 1.87.62 0 1.67-1.88 3.34-5.63 5-6.25 2.5-11.87 8.96-16.87 19.38l.63 6.25m-97.5-15c2.08.83 3.95 1.88 5.62 3.12a24.45 24.45 0 0 0 5.63 3.13c3.74-26.67 8.74-44.38 15-53.13L315 418.54c2.92-4.17 4.37-10.2 4.38-18.13v-6.87c0-3.33-.21-6.04-.63-8.13l-5 2.5-5 3.75c-.83.84-1.67 1.25-2.5 1.25-.83 0-1.25-.41-1.25-1.25v-1.25l7.5-20.62c.42-.42.63-1.46.63-3.13 0-7.91-6.46-15.62-19.38-23.12v1.25c0 .83-.42 1.67-1.25 2.5l-3.75-2.5a11.64 11.64 0 0 0-7.5-2.5c-6.67 0-10 1.88-10 5.62l.63 4.38c1.66-.42 2.91-.63 3.75-.63a5.56 5.56 0 0 1 2.5-.62c9.58 0 14.37 8.13 14.37 24.37 0 5-.63 10-1.88 15l-11.25 38.13a287.7 287.7 0 0 0-5.62 27.5c-1.25 10-2.3 21.25-3.13 33.75m0 15c.84 23.33 7.5 45.62 20 66.87 3.34.42 5.63 1.25 6.88 2.5 2.92 2.92 5.2 4.38 6.88 4.38.83 0 1.25-.2 1.25-.63l-1.25-5.62v-1.88l2.5-1.25c.41-.41.62-1.04.62-1.87 0-1.25-1.67-4.8-5-10.63-5.83-9.58-8.75-22.7-8.75-39.37 0-16.67 3.75-32.3 11.25-46.88 7.5-14.16 15.83-21.25 25-21.25 6.67 0 10 2.71 10 8.13 0 5-1.46 7.7-4.38 8.12L320 469.16c-5.42 1.67-8.13 5.21-8.13 10.63 0 4.17 1.88 6.25 5.63 6.25h2.5a9.14 9.14 0 0 1-1.88-5.63c0-3.74 1.46-5.62 4.38-5.62l17.5-.63c7.5 0 11.46-5.2 11.88-15.62.41 0 2.29.42 5.62 1.25.42-2.08.63-3.75.63-5 .41-1.67.62-3.12.62-4.38 0-10-5-15.41-15-16.25-1.67-.41-2.5-.83-2.5-1.25l1.25-1.25 5-3.12 3.13-6.25c-7.09-2.92-13.13-4.37-18.13-4.38-7.08 0-14.58 5.21-22.5 15.63-13.33 15.83-20.83 31.25-22.5 46.25-2.08 23.75-4.17 35.62-6.25 35.62-2.5 0-3.33-1.66-2.5-5v-2.5c-2.5-1.66-5.2-2.7-8.13-3.12m100.63-301.88H375c4.16 0 8.12 1.88 11.87 5.62-1.25-6.66-3.33-10-6.25-10-1.25 0-2.5.21-3.75.63-1.25 0-2.7.2-4.38.62l-1.25 3.13m36.25 114.38 8.75-3.13-5.62-18.12-5-8.13c-.42-.41-.63-1.25-.63-2.5l.63-.62c2.08 0 3.96 2.3 5.63 6.87a479.2 479.2 0 0 1 9.37 20.63c-.42-5-2.08-10-5-15-2.92-5.42-4.38-8.33-4.38-8.75.84-.83 1.46-1.25 1.88-1.25 1.67 0 3.54 2.3 5.63 6.87a24.3 24.3 0 0 0 1.87 5 75.03 75.03 0 0 1 2.5 5.63c-.83-7.5-2.08-13.75-3.75-18.75-1.25-5-2.7-8.96-4.38-11.88-6.25-10.41-9.37-16.87-9.37-19.37 0-.42.2-.63.63-.63 4.58 0 8.33 5.21 11.25 15.63.83 2.08 1.66 4.8 2.5 8.12a223.2 223.2 0 0 1 4.37 11.25V274.8l-6.25-17.5v-1.25c0-1.25.2-2.08.63-2.5 1.66 0 3.95 4.58 6.87 13.75 0-11.67-4.38-23.54-13.13-35.63-3.33-4.16-6.66-9.79-10-16.87v-1.25c1.25 0 4.59 4.58 10 13.75.84 2.92 3.96 7.08 9.38 12.5l-1.25-8.75-6.88-10.63-.62-1.87c0-.42.2-.63.63-.63 2.08 0 4.16 2.5 6.25 7.5-.42-5-1.25-8.54-2.5-10.62a59.29 59.29 0 0 0-3.75-4.38 7.29 7.29 0 0 0-1.25-1.87v-.63a4.24 4.24 0 0 1 3.12-1.25l-2.5-10h-8.75l-1.25 7.5c-.42.42-.83.63-1.25.63-1.67-1.67-5.2-3.54-10.63-5.63-1.25 2.09-1.87 3.76-1.87 5 0 5 1.87 9.38 5.63 13.13l8.12 10c3.33 3.33 5 7.5 5 12.5 0 2.5-.42 3.75-1.25 3.75-2.5 0-4.58-3.96-6.25-11.88-1.67-6.24-5.42-9.79-11.25-10.62l-.63.62-.62 2.5c-.83 1.25-1.46 1.88-1.88 1.88-.41 0-.83-.2-1.25-.63l-5.62-6.25-15-3.12a11.1 11.1 0 0 1 1.25 5c.42 1.25.83 2.3 1.25 3.12.42 5.84 1.04 9.17 1.88 10l7.5 8.13-1.25 1.25-3.75 1.25c-.42 0-.63.42-.63 1.25v.62c1.25 4.59 4.37 7.71 9.38 9.38l11.87 4.37c6.25 2.09 9.37 5.21 9.38 9.38 0 1.25-.42 1.88-1.25 1.87-.42 0-2.3-1.87-5.63-5.62a16.03 16.03 0 0 0-12.5-5.63c-2.08 0-3.13.84-3.13 2.5l.63 1.88 3.13 6.25v.62c0 .84-2.3 1.67-6.88 2.5-5.83 0-8.75 3.34-8.75 10 0 6.67 3.54 10 10.63 10l2.5-.62a7.77 7.77 0 0 1-2.5-5.63c0-2.5 2.29-3.74 6.87-3.75 9.58 0 17.3 11.05 23.13 33.13M285 172.91c-.84.42-2.5.62-5 .62-5.42 0-8.13-1.87-8.13-5.62 0-7.92 8.75-11.88 26.25-11.88 2.08 0 4.17.21 6.25.63 2.08 0 4.17.2 6.25.62l23.75 5.63c-18.75-7.08-33.13-10.63-43.13-10.63-19.16 0-28.75 5.63-28.75 16.88v1.87c1.67 5.42 5.63 8.13 11.88 8.13 3.33 0 6.87-2.08 10.63-6.25m12.5 134.38 8.12-10.63c.42 0 .63.63.63 1.88 0 2.92-.84 5.2-2.5 6.87a50.9 50.9 0 0 0 10-18.75c.83-1.66 1.45-2.7 1.87-3.12.83 0 1.25 1.04 1.25 3.12l-1.25 3.75c-.42 2.09-1.25 5.42-2.5 10 7.5-15.41 11.25-27.7 11.25-36.87 0-3.75-.63-6.67-1.88-8.75-6.25-9.17-9.37-14.38-9.37-15.63s.63-1.87 1.88-1.87c2.5 0 5.41 3.13 8.75 9.37l3.12 8.75c.42 2.09.63 3.96.63 5.63.41 1.67.62 2.92.62 3.75 0 6.67-1.67 16.25-5 28.75 4.58-5.83 7.5-11.46 8.75-16.88.42-1.66.83-2.5 1.25-2.5.83.84 1.25 1.46 1.25 1.88l-.63 8.12 4.38-11.25-.63-13.12c0-1.25.42-2.3 1.25-3.13 2.09 0 3.13 3.55 3.13 10.63 0 3.75-.2 6.25-.63 7.5 2.09-3.33 3.13-5.62 3.13-6.88l-.63-8.12c0-1.67.42-2.5 1.25-2.5 1.67 0 2.5 1.67 2.5 5v1.25a100.94 100.94 0 0 0 4.38-15.63c.83-4.58 1.46-8.54 1.88-11.87 1.25-11.25 2.08-17.08 2.5-17.5 1.25-5.42 3.95-10.42 8.12-15-10 .42-16.04 3.33-18.13 8.75a14.4 14.4 0 0 1-1.87 3.12c-2.5-3.33-3.96-5-4.38-5-5.41 0-8.33 5-8.75 15-.41.84-.62 2.5-.62 5s-.2 4.8-.63 6.88l-4.37-12.5-5-22.5c-.83-4.58-5-9.17-12.5-13.75-7.5-5-13.75-7.5-18.75-7.5-4.58 0-9.17.83-13.75 2.5a8.48 8.48 0 0 1 2.5 6.25c0 .42-.2.83-.63 1.25l-2.5-.63c-.41-.41-1.45-.62-3.12-.62-1.25 0-2.08-.2-2.5-.63-12.5-.83-21.67-4.37-27.5-10.62a92.36 92.36 0 0 0-1.88 18.12c0 15 4.38 25.21 13.13 30.63 8.75 5.83 13.13 9.8 13.13 11.87 0 1.25-.63 1.88-1.88 1.88-.83 0-2.7-1.25-5.63-3.75-2.08-1.25-3.95-1.87-5.62-1.88-3.33 0-5 1.05-5 3.13v1.87c2.92 11.67 7.7 17.71 14.38 18.13l16.87.62c2.5 0 3.75.63 3.75 1.88 0 .83-.42 1.67-1.25 2.5l-8.13 1.87c-5.41 1.25-8.12 5-8.12 11.25 0 3.76 2.5 8.13 7.5 13.13 4.58-7.08 8.54-10.63 11.88-10.63 9.16 0 13.75 6.46 13.75 19.38 0 1.67-.21 3.13-.63 4.37 0 1.25-.2 2.71-.63 4.38m-31.25 207.5v-11.88c-5-2.5-10.41-4.16-16.25-5 2.09 2.92 4.38 5.84 6.88 8.75 2.92 2.5 6.04 5.21 9.38 8.13m-28.75-31.25c9.16 0 18.54 1.25 28.12 3.75l2.5-20c-12.08-20.83-20-35.63-23.75-44.38-1.67-5-3.33-11.25-5-18.75-1.25-7.91-2.3-17.29-3.13-28.12-11.25-6.67-21.45-9.58-30.62-8.75h-6.88c.84 12.5 1.88 23.75 3.13 33.75a228.16 228.16 0 0 0 5.63 25c4.16 13.75 14.16 32.92 30 57.5m1.25-105.62c1.25 10.83 2.29 19.58 3.12 26.25 1.25 6.25 2.7 12.08 4.38 17.5a158.2 158.2 0 0 0 8.12 17.5c3.33 5.83 7.92 13.54 13.75 23.12l.63-3.12c-13.34-26.25-21.46-51.46-24.38-75.63l-5.63-5.62m-39.37-26.25h11.25c5.83-.83 14.38 1.67 25.63 7.5a355.41 355.41 0 0 1 3.12-29.38c1.67-8.33 3.33-15.2 5-20.62 3.33-11.67 10.2-26.46 20.63-44.38-10-2.91-17.5-11.04-22.5-24.37-16.67 25-27.09 43.12-31.25 54.37-2.09 5.84-4.17 13.55-6.25 23.13a405.09 405.09 0 0 0-5.63 33.75M260 278.54c-7.92 15.42-13.13 27.71-15.63 36.88a276.38 276.38 0 0 0-2.5 18.12c-.83 7.5-1.67 16.67-2.5 27.5l4.38 2.5c.83-10.83 1.45-19.58 1.87-26.25.83-6.66 1.87-12.5 3.13-17.5 1.25-5 2.91-10.2 5-15.62 2.08-5.42 5.2-12.3 9.37-20.63l-3.13-5m94.38 283.12c32.08 8.34 56.67 12.5 73.75 12.5 35 0 87.5-17.29 157.5-51.87v-115c0-10.42 4.58-16.46 13.75-18.13l10.63-2.5c2.91-.41 4.37-1.87 4.37-4.37 0-.83-.83-2.08-2.5-3.75a32.9 32.9 0 0 1-11.88 5c-12.91 2.92-19.37 12.3-19.37 28.12v107.5c-70 33.75-125 50.63-165 50.63-17.5 0-37.92-2.7-61.25-8.13m-54.38-61.25c-.41 4.17-.83 7.71-1.25 10.63a58186.78 58186.78 0 0 0 0 15c.42 2.5.84 5.83 1.25 10 43.75 20.83 84.59 31.25 122.5 31.25 32.5 0 84.38-16.46 155.63-49.38V408.53c0-13.75 6.24-22.5 18.75-26.25l8.75-2.5c2.91-.41 4.37-1.66 4.37-3.75 0-3.33-4.58-4.79-13.75-4.37h-1.88l-53.75 3.12-46.25-1.87c-9.16-.42-13.75.62-13.75 3.12 0 3.76 3.13 5.84 9.38 6.25 20 2.5 33.54 6.05 40.63 10.63 7.5 4.58 11.25 12.3 11.25 23.12v90.63c-48.34 27.08-86.67 40.62-115 40.62-24.59 0-45.21-3.12-61.88-9.37-17.92-6.25-39.58-18.75-65-37.5m22.5-120a43.7 43.7 0 0 1 1.25 10.62l1.25 10c31.67-30.41 60.2-45.62 85.63-45.62 22.5 0 33.75 6.67 33.75 20 0 2.5-.21 4.17-.63 5 9.17-1.25 13.75-4.37 13.75-9.38 0-2.91-.83-5.62-2.5-8.12l-2.5-3.75c.83-.83 3.75-2.08 8.75-3.75-11.25-11.25-22.5-16.88-33.75-16.88-10 0-26.04 3.96-48.13 11.88-7.08 2.5-11.45 4.38-13.12 5.62-5 3.76-8.54 5.63-10.63 5.63l-.62-.63 1.88-1.87a69.62 69.62 0 0 1 18.12-10 339.4 339.4 0 0 1 16.88-4.38l17.5-5c15.83-4.58 25.83-9.37 30-14.37l-2.5-1.25-2.5-1.25c.41-1.25 1.66-2.3 3.75-3.13 7.91-3.74 11.87-9.16 11.87-16.25 0-7.5-2.92-11.25-8.75-11.25-.83 0-1.25.42-1.25 1.25l1.88 6.25.62 1.88c0 4.17-3.13 7.5-9.38 10l-47.5 19.37c-17.5 7.09-38.54 23.55-63.12 49.38m288.75-183.75c4.58 11.67 6.87 20 6.88 25 0 1.67-.21 3.96-.63 6.87 0 2.5-.2 5.42-.63 8.75l3.75 7.5c.84-5.41 1.46-10 1.88-13.75a46.73 46.73 0 0 0 1.25-10c0-7.5-2.08-16.87-6.25-28.12l-6.25 3.75m-12.5 8.75-3.75 3.12c7.08 2.5 11.46 5.21 13.13 8.13 1.66 2.5 2.5 7.92 2.5 16.25l3.12 1.25v-2.5c0-8.33-.83-13.96-2.5-16.88-1.25-2.91-5.42-6.04-12.5-9.37m-1.88 25-1.25 2.5c12.5 7.92 20.21 15.42 23.13 22.5.83 2.92 1.46 7.3 1.88 13.12.83 5.42 1.04 12.5.62 21.25l-.63 8.75 1.88 1.25c.42-2.08.63-4.79.63-8.12v-7.5c0-17.08-1.46-28.33-4.38-33.75-2.5-5.83-9.8-12.5-21.88-20m15 25.62-3.75 6.25a74 74 0 0 0-2.5 5.63l1.25 6.87a56.94 56.94 0 0 0 4.38-6.25c1.67-2.5 2.92-5 3.75-7.5a33 33 0 0 0-3.13-5m-6.87 2.5 5.63-8.75-2.5-2.5-4.38 9.38 1.25 1.87m5-73.75-6.25 3.75c0 1.67 2.08 2.5 6.25 2.5 6.25 0 9.37-2.91 9.38-8.75 0-.83-.84-1.25-2.5-1.25-1.67 0-3.96 1.25-6.88 3.75m-296.88.63c6.25 3.75 11.25 9.38 15 16.87 33.75-12.91 65.83-19.37 96.25-19.37 85.42 0 140 33.54 163.75 100.62.42 2.08 1.25 3.54 2.5 4.38 3.33 0 5-3.75 5-11.26 0-2.5-.2-3.95-.63-4.37l-15-61.25-.62-3.13c0-2.08-.2-5.41-.63-10 0-3.33-.62-5-1.87-5l-5.63 3.13c-3.75 1.67-6.87 2.5-9.37 2.5-3.75 0-9.58-1.87-17.5-5.63-43.75-18.75-83.13-28.12-118.12-28.12-26.67 0-64.38 6.88-113.12 20.62m16.25 20 1.88 4.38c37.5-13.75 68.95-20.63 94.37-20.63 33.75 0 73.33 12.09 118.75 36.25-33.75-26.25-75.42-39.37-125-39.37-24.17 0-54.17 6.46-90 19.37m252.5-11.25c.42 7.5 1.25 15.42 2.5 23.75 1.67 8.34 3.54 17.3 5.63 26.88 5 18.75 7.5 30.2 7.5 34.37 0 1.67-.63 4.38-1.88 8.13-.42.42-.63 1.04-.63 1.88 0 .83.21 1.24.63 1.24 4.58 0 6.87-3.12 6.88-9.37l-.63-1.88-13.13-62.5-3.12-19.37-3.75-3.13m-180-35h11.88c5.83-7.08 10.62-10.62 14.37-10.62 1.25 0 3.54 1.25 6.88 3.75v-1.88c0-5-3.76-7.5-11.25-7.5-8.76 0-16.05 5.42-21.88 16.25m101.88-15c-5.42 1.25-10 2.3-13.75 3.13a97.02 97.02 0 0 0-9.38 2.5c-7.5 2.5-13.33 3.75-17.5 3.75-6.66 0-10-1.46-10-4.38 0-2.5.21-4.37.63-5.62-5.83 2.08-8.75 4.38-8.75 6.87 0 7.09 3.75 10.63 11.25 10.63.83 0 16.67-5.62 47.5-16.88m-7.5 7.5c-8.33 3.34-15.2 7.71-20.63 13.13l2.5 1.25 3.13-1.88 1.25 2.5 3.13 1.25c1.66-2.91 3.33-5.62 5-8.12a56.23 56.23 0 0 1 5.62-8.13m-1.88 15 1.25 3.75 2.5.63c7.92-12.92 16.88-22.7 26.88-29.38-9.58.42-16.67 2.5-21.25 6.25-4.58 3.76-9.58 10.42-15 20l2.5 1.25 3.13-2.5m23.75-12.5c10.83-5.83 20-8.74 27.5-8.75 6.24 0 16.25 2.92 30 8.75 1.25-.41 3.12-.62 5.62-.62.83 0 1.87.2 3.13.62 1.25 0 2.91.21 5 .63-19.17-10.42-33.55-15.63-43.13-15.63-7.5 0-16.88 5-28.13 15m70.63-8.12.63-5c-4.17 1.67-6.26 3.33-6.25 5 0 .42 2.29 1.67 6.87 3.75l-1.25-3.75m5.63 6.87 1.87 6.88 6.88 7.5c.83 2.5 1.25 3.54 1.25 3.12 0 .84-.63 1.25-1.88 1.25-.83 0-1.46-.2-1.88-.62l-9.37-10.63-13.13-1.25-1.25 3.75-15-1.87c-11.25 0-16.87 3.96-16.87 11.87 0 1.25 2.3 3.55 6.88 6.88.41-7.92 2.91-11.88 7.5-11.88 3.33 0 8.74 1.67 16.25 5 10.41 6.26 18.54 9.38 24.37 9.38 9.58 0 14.38-3.96 14.38-11.88l-6.88-18.12c0-5 2.3-7.5 6.88-7.5 4.16 0 6.24 1.67 6.25 5 0 1.25-.84 3.13-2.5 5.62-1.25 2.5-1.88 4.59-1.88 6.25 0 4.59 1.67 6.88 5 6.88 1.25-.42 2.7-1.46 4.38-3.13-2.92-1.25-4.38-2.91-4.38-5 0-1.66.2-2.7.63-3.12l2.5-4.38c0-8.33-3.55-12.5-10.63-12.5-5 0-9.8 4.8-14.38 14.38l-5-1.88m-343.75-9.37a8.48 8.48 0 0 1 2.5 6.25v1.25c6.67-.83 13.13-1.46 19.38-1.88 6.67-.41 13.33-.62 20-.62 16.25 0 35.2 5.83 56.88 17.5l7.5-1.88A379.47 379.47 0 0 0 335 152.9c-6.25-2.91-11.46-5-15.63-6.25-8.75-2.91-22.08-4.37-40-4.37-4.58 0-9.37.2-14.37.62-5 0-9.8.21-14.38.63m110 19.37 1.88-.62-6.88-12.5a4.2 4.2 0 0 0-3.75-1.88c-1.25 0-1.87.84-1.87 2.5 0 .42.2.84.63 1.25l10 11.25m-20-15-.63 1.25c0 2.09 1.04 3.13 3.13 3.13 1.25 0 1.87-.63 1.87-1.88 0-2.08-1.04-3.12-3.13-3.12l-1.25.62m5-7.5c-2.08 0-3.12.84-3.12 2.5 0 1.67 1.25 2.5 3.75 2.5s3.75-1.04 3.75-3.12c0-1.67-1.25-2.3-3.75-1.88h-.63m13.13 0c-2.5 0-3.75 1.05-3.75 3.13 0 1.67 1.46 2.5 4.38 2.5 2.08 0 3.12-1.25 3.12-3.75 0-1.67-1.25-2.3-3.75-1.88m8.13 21.88 5.62-1.25v-3.13c-.83-7.5 2.3-11.25 9.38-11.25 2.91 0 5.83 1.46 8.75 4.38-2.5-6.67-5.84-10-10-10-8.76 0-13.34 7.08-13.75 21.25m-127.5-11.88.62 6.88c.83 2.08 2.08 3.13 3.75 3.12l.63-.62c2.5-.42 3.74-2.92 3.75-7.5 0-7.5-3.34-11.25-10-11.25-1.25 0-1.88.62-1.88 1.87v.63l3.13 6.87M570 154.15c-12.09-3.74-21.05-5.62-26.88-5.62-7.5 0-13.75 2.08-18.75 6.25s-7.5 9.38-7.5 15.62c0 5.42 2.5 8.13 7.5 8.13 4.17 0 7.92-4.17 11.25-12.5-2.5 2.5-4.8 3.75-6.88 3.75-3.75 0-5.62-1.46-5.62-4.38 0-8.74 7.08-13.12 21.25-13.12 1.67 0 4.17.2 7.5.62s7.92 1.05 13.75 1.88l4.38-.63m27.5 323.13c-2.5 0-3.76 1.04-3.75 3.12 0 2.5 1.25 3.75 3.75 3.75s3.74-1.25 3.75-3.75c0-2.08-1.25-3.12-3.75-3.13m0 10.63c-2.92 0-4.38 1.46-4.38 4.38 0 3.33 1.67 5 5 5 2.5 0 3.75-1.67 3.75-5 0-2.92-1.46-4.38-4.38-4.38m11.25 3.75c-2.08.83-3.12 2.08-3.12 3.75 0 2.08.83 3.13 2.5 3.13 2.5 0 3.75-1.25 3.75-3.75 0-2.09-1.04-3.13-3.13-3.13m-221.88-73.13c10.42-8.74 19.17-15.2 26.25-19.37 7.5-4.17 12.5-7.08 15-8.75 5.84-3.75 8.75-7.92 8.75-12.5 0-8.33-4.16-12.5-12.5-12.5-5.83 0-9.58 3.13-11.25 9.38v1.87c0 4.17 1.46 6.25 4.38 6.25 1.67 0 2.5-.83 2.5-2.5l-.63-.63-1.87-4.37c0-2.92 1.67-4.37 5-4.38 3.75 0 5.62 2.09 5.63 6.25 0 4.59-3.55 9.17-10.63 13.75l-16.25 11.25c-3.75 3.34-8.54 8.76-14.38 16.25M203.12 151.64a186.27 186.27 0 0 0-12.5 6.88 147.49 147.49 0 0 0-13.12 7.5l21.25 1.25 13.13-10.63c3.33-2.08 5.83-3.12 7.5-3.12 1.66 0 2.5.62 2.5 1.87 0 2.5-1.67 4.8-5 6.88l-15 7.5c-9.59 4.58-14.38 12.3-14.38 23.12 0 3.34 1.04 9.17 3.13 17.5 1.66-1.66 3.12-2.5 4.37-2.5s1.87.84 1.88 2.5l-.63 8.13c-.42 10.42 6.25 15.62 20 15.62 8.75 0 13.96-3.33 15.63-10v-1.25c0-4.58-3.34-9.37-10-14.37-3.76-2.92-5.63-5-5.63-6.25 0-4.17 1.87-6.25 5.63-6.25 1.66 0 4.16 1.04 7.5 3.12-3.34-5-6.05-7.5-8.13-7.5-6.67 0-10 4.17-10 12.5 0 3.34 2.7 7.09 8.13 11.25 5.41 4.17 8.12 6.88 8.12 8.13 0 4.58-2.5 6.88-7.5 6.87-10 0-15-7.08-15-21.25 0-5 .83-8.95 2.5-11.87 2.08-3.33 8.75-11.25 20-23.75 6.25-7.5 9.37-14.17 9.38-20 0-7.92-4.59-11.88-13.75-11.88l-23.75 6.88c-1.67.42-3.13.83-4.38 1.25h-4.38c-4.58 0-9.58-2.08-15-6.25-1.66 2.92-2.5 4.8-2.5 5.62 0 3.76 4.38 5.63 13.13 5.63 3.75 0 9.37-1.04 16.88-3.13m35.62 410v-5c0-2.08.63-5.41 1.88-10 .41 1.67.62 3.13.62 4.38.42.83.63 1.67.63 2.5 0 2.08-1.05 4.8-3.13 8.13m10-27.5c2.92 2.91 4.37 5.83 4.38 8.75 0 2.91-.21 5-.63 6.25l-3.75-15m31.25-50c0-1.67-1.04-3.13-3.13-4.38-1.66-1.25-2.5-2.08-2.5-2.5 0-3.33 1.25-8.54 3.75-15.63 1.25 3.76 1.88 11.25 1.88 22.5m-3.75 33.13 4.38 11.25v11.88l-3.13-12.5-1.25-10.63m-36.88 65.63a56.85 56.85 0 0 1 6.25-4.38 56.85 56.85 0 0 1 6.25-4.38c-3.33 4.59-7.5 7.5-12.5 8.75M417.5 456.01c2.08-.41 3.95-.62 5.62-.62 2.08-.42 3.54-.63 4.38-.63 11.66 0 19.16.84 22.5 2.5l-10 1.88c-.84 0-3.13-.2-6.88-.63-3.33-.83-8.54-1.66-15.63-2.5m-21.25 23.75c1.25-.41 3.75-.62 7.5-.62.84 0 1.88.2 3.13.63 1.25 0 2.92.2 5 .62-3.33 1.25-5.63 1.88-6.88 1.88a17.5 17.5 0 0 1-8.75-2.5m-20.62-21.25v-2.5c-.83-2.92 2.7-6.46 10.63-10.63l-5 5a87.4 87.4 0 0 0-5.63 8.13m17.5-15c6.25-6.67 11.46-9.17 15.63-7.5a164.69 164.69 0 0 1-15.63 7.5m48.75 61.87c8.75-3.33 15-5 18.75-5 4.58 0 9.58 1.46 15 4.38-2.5-.42-4.8-.63-6.88-.63a20.53 20.53 0 0 0-5-.63c-3.33 0-10.62.63-21.87 1.88m29.38 11.88c2.91 1.66 5.2 2.5 6.87 2.5 3.33 0 6.46-.84 9.38-2.5a16.24 16.24 0 0 0-5-.63h-3.13c-.83 0-2.3.2-4.38.63-1.66 0-3.54.2-5.62.62l1.88-.63m-64.38 3.75.63-1.87c0-3.33.62-6.04 1.87-8.13.42.84.63 2.3.63 4.38 0 .42-1.05 2.3-3.13 5.63m156.25 50a68.35 68.35 0 0 0 5.63-5 35.95 35.95 0 0 0 5.62-5.63c-1.25 5.83-5 9.38-11.25 10.63m31.88-29.38c5 0 8.12 2.08 9.37 6.25-4.58-1.25-7.7-3.33-9.38-6.25m10 44.38c-2.91-4.17-4.37-7.5-4.37-10v-3.13c.42-1.67.83-3.54 1.25-5.63.42 2.92.83 6.05 1.25 9.38a92.55 92.55 0 0 0 1.88 9.38M295.6 469.13a70.47 70.47 0 0 1 5.62-11.25c2.92-4.59 6.46-9.8 10.63-15.63 6.66-9.17 10.41-14.17 11.25-15l-7.5 10a189.99 189.99 0 0 0-11.25 16.25c-2.92 5-5.84 10.2-8.75 15.63M296.86 246l-13.13 1.88h-8.75l.63-3.75-.63-2.5c0-1.25.63-1.87 1.88-1.88.41.42.83.63 1.25.63.41 0 .83.2 1.25.63a98.4 98.4 0 0 1 7.5 1.87c2.91.83 6.24 1.88 10 3.13m17.5 337.5a11.1 11.1 0 0 0 1.25-5l1.25-5a7.77 7.77 0 0 1 2.5 5.62c0 .83-1.67 2.3-5 4.38m.62-184.38c0 1.25-.63 3.12-1.88 5.62-1.25 2.08-1.87 3.33-1.87 3.75 0 2.92-2.3 6.25-6.88 10 3.34-3.75 6.88-10.2 10.63-19.38m294.38-226.88a7.77 7.77 0 0 0 0 4.38h-1.88l-6.87 1.88c4.17-2.09 7.08-4.17 8.75-6.25M488.74 438.5c.83 4.16 1.25 6.04 1.25 5.62 0 3.75-.42 6.04-1.25 6.88 0-.84-.63-1.88-1.88-3.13-.83-1.25-1.25-2.08-1.25-2.5 0-1.25 1.05-3.54 3.13-6.88m15-9.37c5 5.83 7.5 10 7.5 12.5l-1.88.63a51.97 51.97 0 0 1-5.62-13.13m-6.88 32.5c-2.08 3.75-4.79 5.63-8.12 5.63-2.08 0-3.54-.21-4.38-.63l5-1.25a62.27 62.27 0 0 0 7.5-3.75m-166.88-77.5c5-2.92 13.75-10.42 26.25-22.5l-13.12 8.75c-2.5 2.08-5 4.58-7.5 7.5-2.5 2.5-5.2 5.42-8.13 8.75l2.5-2.5m57.5-48.75c12.5-7.5 25.21-12.7 38.13-15.63-5.42 3.34-14.17 7.3-26.25 11.88l-11.88 3.75m23.13 8.13c5.42-1.25 9.58-1.88 12.5-1.88 10.83 0 18.13.63 21.88 1.88l-13.75.62H418.1l-7.5-.63m17.5 5h4.38c6.24-.41 10-.41 11.25 0-3.76.42-8.96.42-15.63 0m27.5-98.12c.42-4.58 1.04-9.17 1.88-13.75a118.7 118.7 0 0 1 5-14.38v3.13c0 6.25-2.3 14.58-6.88 25m46.88 8.13c-4.17-4.17-8.34-10.42-12.5-18.75a156.3 156.3 0 0 1 8.12 8.75c2.5 2.5 3.96 5.83 4.38 10m17.5-36.88a96.75 96.75 0 0 1-7.5-1.88 204.73 204.73 0 0 1-10.63-5c2.08.42 4.58 1.25 7.5 2.5 2.92.84 6.46 2.3 10.63 4.38m-26.88-1.25c.42-5 2.92-6.87 7.5-5.63 0 .42-.83.63-2.5.63a14.36 14.36 0 0 1-5 5m-85.63 29.38c-3.33-2.09-7.7-5-13.12-8.75-5-3.75-10.83-8.55-17.5-14.38 3.33 1.67 7.5 4.58 12.5 8.75 5 3.75 11.04 8.54 18.13 14.38M223.74 149.13c3.74 1.25 5.62 2.5 5.62 3.75a7.85 7.85 0 0 0 1.88 3.13l-1.88-1.88a89.19 89.19 0 0 0-5.63-5m-30.62 38.75c.42-1.66 2.3-4.37 5.63-8.12 2.08-2.08 3.33-3.54 3.75-4.38a50642 50642 0 0 1-5 6.25 56.8 56.8 0 0 1-4.38 6.25m33.75-20.62-5.63 10.63c.42-2.5.63-4.59.63-6.25.42-2.09 2.08-3.55 5-4.38m24.38 29.38c15.83 10.41 29.16 18.12 40 23.12 11.25 4.58 16.87 7.7 16.87 9.38 0 1.66.63 2.5 1.88 2.5-3.76 0-10.63-2.5-20.63-7.5-17.08-8.34-29.8-17.5-38.13-27.5M288.12 271h2.5c9.58-.83 14.8 1.67 15.63 7.5a423.5 423.5 0 0 0-8.13-3.13c-2.92-1.25-6.25-2.7-10-4.37m62.5-46.88-2.5 15.63c-1.67-2.92-2.5-5.42-2.5-7.5s1.67-4.8 5-8.13" transform="translate(-146.86 -119.79)"/>
</svg>
