<svg xmlns="http://www.w3.org/2000/svg" viewBox="0 0 500 500">
    <path d="M146.86 619.79v-500h500v500h-500m7.5-7.5h485v-485h-485v485m7.5-7.5V135.41h469.38v469.38H161.86m94.38-467.5-10 1.25c-7.09.83-14.38 2.3-21.88 4.37-7.5 2.09-15 4.59-22.5 7.5h-13.75l3.13-1.25-.63-3.12 8.75-.63 5-6.25-12.5-1.25 1.25-.62h-3.13l-3.12 1.25c-4.17 1.67-6.46 5.2-6.88 10.62 4.59 7.09 9.17 10.63 13.76 10.63l16.87-5v1.87c0 .42-1.04 1.05-3.13 1.88l-3.74 3.12c12.5.42 18.33 1.05 17.5 1.88l18.75-10.63 6.25-1.87c9.16-2.92 17.7-4.37 25.62-4.38h6.25c2.92 0 5.2.21 6.88.63l15 1.87 7.5 2.5c3.74.84 8.74 2.3 15 4.38 1.66 0 3.74-1.67 6.25-5l-3.75-3.13-16.25-4.37-3.75-1.88-4.38-.62-12.5-1.88h-7.5l-4.38-1.25-20-.62m120.63 22.5c2.08 0 3.54-.2 4.37-.63-1.67-3.33-2.5-6.45-2.5-9.37 0-5.42 2.3-8.12 6.88-8.13 1.66 0 4.16.63 7.5 1.88-3.34-3.75-6.46-5.62-9.38-5.63-7.92 0-11.88 3.34-11.88 10 0 7.92 1.67 11.88 5 11.88m167.5-19.38-23.12-1.25h-1.25l-11.88 1.88c-14.58 2.08-29.58 8.96-45 20.62l-1.87 1.25-.63 1.88h-1.25l-1.25 1.87-1.87 1.25-6.25 8.75-2.5 1.88c-.83 0-3.96 5.2-9.38 15.62v1.25c0 1.67 1.46 3.34 4.38 5 2.92-7.08 5.2-11.45 6.88-13.12l8.75-10 2.5-3.75 6.87-5.63 18.75-11.87c1.25-1.25 11.67-4.17 31.25-8.75 2.08-.42 3.75-.63 5-.63 1.25-.41 2.08-.62 2.5-.62h1.88l12.5 1.25c9.58.42 15.2 1.46 16.87 3.12 4.17 3.34 6.87 4.38 8.13 3.13l3.12-4.38c1.25-1.25 1.87-2.08 1.88-2.5 0-.83-1.88-1.66-5.63-2.5-6.67-2.91-11.46-4.16-14.38-3.75h-5m-100 32.5-3.75 9.38 4.38-5.63 4.38-6.25c.41-1.25 4.79-5.41 13.12-12.5 6.25-5.41 9.37-10 9.38-13.75 0-3.33-2.09-5-6.25-5-2.09 0-3.13.42-3.13 1.25l1.25 7.5-.63.63c-.41.42-1.45 1.67-3.12 3.75-1.67 2.08-4.17 5-7.5 8.75-1.25 1.25-3.96 5.2-8.13 11.87m176.25-32.5-8.75 6.88 4.38-1.25c-6.25 2.08-10.2 3.13-11.88 3.12-1.66 0-4.16-.2-7.5-.62-2.91-.83-5-1.25-6.25-1.25.42 0-1.04.42-4.37 1.25-6.25 4.58-9.38 8.96-9.38 13.12 0 .84.21 1.46.63 1.88 3.75 0 9.17.62 16.25 1.87 1.67.42 4.37 2.3 8.13 5.63l1.25 6.25c0 2.5-1.46 4.58-4.38 6.25l-1.25.62v1.88c4.17 3.75 6.25 7.08 6.25 10 0 .42-.2 1.67-.63 3.75 0 2.08-.2 5.2-.62 9.37-2.08 2.09-3.54 3.13-4.38 3.13h-.62c-1.67 0-2.5-.83-2.5-2.5 0-.42.63-2.08 1.88-5a14.75 14.75 0 0 0 1.87-9.38l-1.88-3.12a7.78 7.78 0 0 0-5.62-2.5c-3.33 0-6.67 2.3-10 6.87 2.92-1.25 5.2-1.87 6.88-1.87.83 0 1.25.42 1.25 1.25 0 2.08-.21 3.54-.63 4.37l1.25-.62-.63 6.25-1.25 4.37.63 5.63c2.5 4.17 5.62 6.25 9.38 6.25 9.58 0 14.37-7.08 14.37-21.25 0-1.67-1.25-6.04-3.75-13.13l7.5.63a48.97 48.97 0 0 0-6.25-11.25c-2.5-3.75-4.8-6.87-6.88-9.38-2.08-2.5-3.95-4.16-5.62-5-1.67-1.25-2.5-1.66-2.5-1.25 0-1.66 1.25-2.5 3.75-2.5h1.88l10 5.63h3.12l3.13-1.88 2.5-.62c.41-.42.62-.83.62-1.25v-1.25l-4.38-5 6.88-3.75c1.67-.42 2.5-2.92 2.5-7.5 0-1.67-1.46-2.7-4.38-3.13M399.99 172.3l4.38 1.87c1.25-6.24 4.17-13.12 8.75-20.62 6.25-5 12.5-7.5 18.75-7.5 6.67 0 10 2.3 10 6.87 0 1.67-.2 2.71-.63 3.13l-13.12 10-5 10.62 6.88-1.25 5.62-6.87 13.13-10 .62-4.38.63-2.5c0-2.91-1.05-5.41-3.13-7.5-5-2.08-8.75-3.12-11.25-3.12-20 0-31.88 10.42-35.63 31.25m-74.37-8.75 8.13-1.25 9.37-10a22.34 22.34 0 0 1 5.63-1.88 20592 20592 0 0 0 6.25-2.5c2.5-1.25 4.58-1.87 6.25-1.87l1.87.62h3.13c2.08 0 3.12-.83 3.12-2.5 0-1.25-1.04-1.87-3.13-1.87-24.16 0-37.7 7.08-40.62 21.25m56.88-17.5v1.87l6.25 1.25c6.66 1.67 11.04 2.92 13.12 3.75 2.5.84 2.92 1.25 1.25 1.25.83 0 1.67-1.04 2.5-3.12l-6.88-3.13-9.37-2.5-4.38-1.25-2.5 1.88m188.75 3.12c-2.91 2.92-4.37 5.63-4.37 8.13 0 2.5 1.25 3.75 3.75 3.75.83 0 1.25-.2 1.25-.63l4.38-8.12 3.12-5-4.38-1.88-3.75 3.75m-86.25 10.63c10.84-4.17 19.8-6.25 26.88-6.25 9.17 0 13.75 2.3 13.75 6.87 0 2.09-.2 3.55-.63 4.38.84.42 2.3.62 4.38.62 5 0 7.5-2.5 7.5-7.5 0-3.33-3.13-6.04-9.38-8.12v-.63c-1.25-.41-3.54-.62-6.87-.62-12.08 0-23.96 3.75-35.63 11.25m-115-5.63c-.41-.41-1.25-.62-2.5-.62-1.66 0-2.5 2.08-2.5 6.25 0 7.08 3.96 10.62 11.88 10.62 11.25 0 17.08-3.33 17.5-10 .42-2.91.83-4.58 1.25-5l-5-2.5-2.5 6.25c-.42 1.25-2.5 2.71-6.25 4.38-.42.42-1.67.62-3.75.62-6.25 0-9.38-2.29-9.38-6.87 0 .42.42-.63 1.25-3.13m-30 7.5v1.25l12.5 7.5 14.38 11.88 8.75 8.12 3.13 2.5 2.5-.62 3.12-1.25v-1.88l-4.38-4.37-18.12-16.88-17.5-11.25-4.38 5m45.63 11.88c0 1.67 1.67 3.13 5 4.37 7.92 3.34 12.92 5 15 5 9.17 0 13.75-3.74 13.75-11.25 0-7.08-1.88-11.04-5.63-11.87-1.66 0-2.5.83-2.5 2.5v1.87l.63.63 2.5 3.12c.42.42.63 1.25.63 2.5 0 4.59-3.13 6.88-9.38 6.88-3.75 0-7.08-1.04-10-3.13l-4.38-3.75c-.83.42-1.87.84-3.12 1.25-1.25.42-2.08 1.05-2.5 1.88m-170 10 3.75 3.75 3.13 5.62 1.25 3.75 3.75 16.88-.63 11.25-.63 94.37a78.16 78.16 0 0 1 15.63-3.75c6.25-1.25 13.13-2.29 20.63-3.12l-1.25-91.88c-.42-23.75 4.16-36.87 13.75-39.37l23.75-5.63c2.91-.41 4.37-1.66 4.37-3.75 0-4.16-6.04-6.24-18.13-6.25h-1.87c-5.42.42-12.7 1.05-21.88 1.88l-8.12.62h-16.25c-.42 0-4.58-.2-12.5-.62-7.5-.42-19.17-1.04-35-1.88h-2.5c-5.42 0-8.13 1.25-8.13 3.75 0 3.76 3.34 5.84 10 6.25 11.26 1.25 20.21 3.96 26.88 8.13m355.62-15.63-42.5 1.88c-8.75 0-19.58-.63-32.5-1.88a35.2 35.2 0 0 0-6.88-.62h-2.5c-9.16 0-13.75 1.67-13.75 5 0 2.08 1.25 3.33 3.75 3.75l19.38 4.37 5 2.5c2.5.84 5.42 2.3 8.75 4.38l6.25 7.5c2.92 4.17 4.37 7.5 4.38 10l.62 5 .63 6.25v33.75l-.63 82.5c0 3.33-1.67 6.04-5 8.12l-12.5.63-42.5-.63.63 11.88v7.5l58.75.62-.63 108.75h6.88l5.62-.62c5.83 0 12.3 2.92 19.38 8.75l1.25 1.87-1.88 1.88c1.25 2.08 1.87 3.75 1.88 5 0 .83-.84 2.08-2.5 3.75.41 2.08.62 4.17.62 6.25.42 1.67.63 2.92.63 3.75 0 3.33-1.46 7.08-4.38 11.25l-4.38 3.75-11.87 1.25c-2.92-.42-5-2.08-6.25-5 7.08-2.5 10.63-5.62 10.63-9.38 0-6.66-1.67-10-5-10-.42.42-1.25.63-2.5.63l-7.5-.63-.63 8.75v15.63c-.42 21.67-12.92 35-37.5 40-8.33 1.67-12.92 3.75-13.75 6.25 5.83 3.33 12.08 5 18.75 5h1.25l62.5-3.13 22.5 1.88h5.63l6.87.63 16.25-.63c3.33 0 5.62-1.67 6.88-5l-5-2.5-3.13-1.25-13.75-3.75c-7.92-2.08-15-6.46-21.25-13.13-5.83-7.08-8.75-13.95-8.75-20.62l-.63-287.5c.42-2.92.63-5.2.63-6.88.42-2.08.63-3.95.63-5.62.41-13.33 1.66-22.3 3.75-26.88 2.08-4.58 6.04-8.12 11.87-10.62 13.33-5.42 20.63-8.12 21.88-8.13l1.25-1.25v-1.25c0-.83-1.05-1.66-3.13-2.5a40.03 40.03 0 0 0-13.75-2.5l-3.75.63-5 .62M310.61 192.3l7.5-4.38c-.42.84-.63 2.5-.63 5 0 5 2.3 7.5 6.88 7.5l6.25-1.25c-3.75-3.74-5.63-7.08-5.63-10 0-8.33 5.21-12.5 15.63-12.5 10.83 0 19.8 4.38 26.88 13.13 2.08 2.08 3.54 3.13 4.37 3.12 1.25 0 2.08-.2 2.5-.62-10-11.25-21.67-19.17-35-23.75l-2.5-.63a8.72 8.72 0 0 0-3.75-.62c-5.42 0-10.63 2.3-15.63 6.87-5 4.17-7.29 8.76-6.87 13.75v4.38m297.5-23.75 4.38 8.12 1.87 1.25 3.13 1.88 3.75 1.25c2.08 0 3.54-1.04 4.37-3.13v-8.12l-1.25.62-1.25 1.88-5.63 1.25-5-1.88-4.37-3.12m-303.75 5-4.38 3.12c-4.58.84-13.12 3.34-25.62 7.5-5 1.67-8.54 9.17-10.63 22.5l.63 9.38.63 7.5v86.87c0 2.09.83 3.13 2.5 3.13 1.25 0 2.08-.83 2.5-2.5l-1.25-88.75c0-21.67 3.33-33.33 10-35l24.37-6.88c2.08-.83 3.12-1.87 3.13-3.12 0-.42-.63-1.67-1.88-3.75m293.75-.63-3.13 3.75-5.62 1.88c-7.08 2.08-11.46 3.75-13.13 5-1.25.83-3.33 2.5-6.25 5-7.08 5.83-10.41 20.83-10 45l.63 15v38.75l-.63 231.25a86.8 86.8 0 0 0 1.88 6.25c1.25 2.5 2.7 5.42 4.38 8.75l2.5 4.38 2.5 3.75 2.5 2.5h1.25l-10-25v-290c0-24.17 3.74-37.92 11.25-41.26l22.5-9.37c.83-.83 1.25-1.46 1.25-1.88 0-.41-.63-1.66-1.88-3.75m-418.12 2.5c3.33 3.76 6.25 6.05 8.75 6.88l14.38 3.12c2.91.84 7.91 3.34 15 7.5l1.25-.62-4.38-6.25a45.88 45.88 0 0 0-8.13-3.75c-2.5-1.25-5-2.3-7.5-3.13L180 175.41m294.38 1.25c.83 4.17 3.33 6.88 7.5 8.13 4.58.83 11.04 2.3 19.38 4.37 1.66 0 4.16.63 7.5 1.88l-6.88-5.63-12.5-3.75-3.75-1.87-5-.63-6.25-2.5m-62.5 11.88.63.62 6.87-1.87c2.92-.83 5.62-1.67 8.13-2.5 2.5-.83 5.2-1.46 8.12-1.88l2.5-4.37h-.63l-1.87-.63-12.5 1.25-6.88 3.75-3.75 1.88-1.25.62c0 1.67.21 2.71.63 3.13m-244.38-10.63c-1.25 2.5-1.88 4.38-1.88 5.63 0 1.67.21 2.7.63 3.12 2.5 2.5 4.58 3.76 6.25 3.75 1.25 0 3.96-2.08 8.13-6.25l-.63-3.12c-2.92 1.67-5.42 2.5-7.5 2.5h-3.13l-1.87-5.63m291.25 7.5 9.38 5c2.91 1.67 4.37 4.38 4.37 8.13 0 6.67-4.8 10-14.38 10-11.66 0-19.58-3.33-23.75-10-4.58-7.08-7.5-10.63-8.75-10.63s-1.87.63-1.87 1.88c0 2.5 1.67 6.04 5 10.62 3.75 4.59 6.87 7.5 9.38 8.75 5 2.5 10.41 3.76 16.25 3.75 17.08 0 25.62-4.79 25.62-14.37 0-4.17-2.08-8.12-6.25-11.88-4.17-3.74-8.33-5.62-12.5-5.62-2.5 0-3.75.83-3.75 2.5 0 .42.42 1.04 1.25 1.87m-123.75-4.37c-2.92 1.67-4.38 3.33-4.38 5 0 2.92 4.8 6.88 14.38 11.87 5.83 2.92 12.92 4.38 21.25 4.38 6.67 0 14.8-1.87 24.38-5.63 1.25-.41 3.54-1.04 6.87-1.87.42-.83.63-1.46.63-1.88l.62-.62c0 .42-.42-.63-1.25-3.13-10.42 5.42-19.58 8.13-27.5 8.13-15.83 0-27.5-5.42-35-16.25m71.25 3.75c-4.17.42-6.25 1.46-6.25 3.12 0-4.16 2.3.63 6.88 14.38l1.87 3.12 2.5 4.38 8.75 16.25 5 10.62 9.38 31.88a7.77 7.77 0 0 0 2.5-5.63v-.62l-3.75-15c-.84-4.17-1.67-7.3-2.5-9.38l-.63-3.12-20-40-1.25-4.38-2.5-5.62m-223.12 28.12.63 2.5 1.25 2.5 1.25-.62 1.25-3.75h2.5l.62 5.62 3.13 3.75c4.16 5 8.74 7.5 13.75 7.5 6.24 0 10.2-2.7 11.87-8.12h-9.38c-6.66-4.17-10-9.37-10-15.63 0-5.83.84-11.45 2.5-16.87l-4.37-.63-11.25-3.12c-2.08 0-3.13 1.25-3.13 3.75l-.62 5-1.88 3.75.63 3.75-.63 6.25 1.88 4.37m299.38-18.75.63 3.13c4.58 1.25 6.87 3.33 6.87 6.25 0 1.67-1.67 6.88-5 15.62-.83 3.34-1.46 5.63-1.88 6.88 8.75-10.42 13.13-19.58 13.13-27.5 0-.83-.42-2.5-1.25-5l-3.75-3.13c-.83-.83-1.46-1.04-1.88-.62l-1.87.62-5 3.75m133.12-1.25h-1.88l.63 10.63v18.75c0 .83.2 2.08.63 3.75l.62 6.87-1.88 5.63-3.12 4.37c-1.67 2.09-4.8 4.8-9.38 8.13l-6.25 1.87c-4.16 2.92-8.12 4.38-11.87 4.38a7.77 7.77 0 0 1-5.63-2.5l-1.87 1.25a43.53 43.53 0 0 1-1.25 5v2.5c0-.42.42 1.46 1.25 5.62l.63-.62 4.37 2.5h1.88l-1.88 2.5-2.5.62-1.88.63 1.88 1.25-.63.62a17.5 17.5 0 0 0 8.75 2.5c2.92 0 5.21-.83 6.88-2.5 8.75-5.83 13.33-9.37 13.75-10.62l3.13-6.88c.41-.41 1.25-.62 2.5-.62 2.08 0 3.12.83 3.12 2.5l-1.88 3.75-9.37 11.25-5 4.37h2.5l-7.5 4.38-8.75 8.75-4.38 1.25-6.25 5.62-4.37 13.13-.63 4.37h3.13l5-3.12 3.75-1.25-1.25 6.25-1.88-1.25-3.12 5.62c-2.92 5.42-4.38 9.59-4.38 12.5l.63 1.88 3.13 15 .62 9.37c2.08-1.25 3.33-3.33 3.75-6.25l1.88.63c3.33 8.33 7.7 12.5 13.12 12.5 8.33 0 13.75-1.25 16.25-3.75l2.5-3.75 3.75-3.13 1.25-3.12 2.5-7.5v-2.5c0-10-3.33-18.33-10-25-1.25-2.92-1.88-5.2-1.88-6.88l.63-1.25c.42-.41 3.96-1.66 10.63-3.75 3.74-1.25 5.62-3.74 5.62-7.5 0-3.33-.83-6.66-2.5-10h-.63v-1.25 3.13c.42 4.17-.83 6.88-3.75 8.12l-13.12 4.38-6.25 4.37a43.54 43.54 0 0 1-1.25 5v3.13c0 2.08 1.04 4.8 3.13 8.12l.62 1.88h1.88c7.08 8.33 10.62 14.17 10.62 17.5 0 5.42-2.92 10.42-8.75 15h-10.63l-.62-1.88c-6.67-4.16-10-10.2-10-18.12 0-11.25 4.8-24.17 14.38-38.75l22.5-31.25c4.58-7.08 6.87-20.63 6.87-40.63 0-13.33-2.5-25.41-7.5-36.25-.42-1.66-1.46-2.5-3.13-2.5l-1.87 1.25m-436.25 0c-4.17 12.5-6.25 21.05-6.25 25.63l.63 2.5c0 2.92.62 6.88 1.87 11.87-.42.42-.63 1.46-.63 3.13 0 .83.63 1.46 1.88 1.87l1.25 7.5c.42 2.92 3.33 9.38 8.75 19.38l2.5 4.37 4.38 5.63c.41 0 1.25 1.04 2.5 3.12l3.12 3.13c1.25 0 1.87-.63 1.88-1.88l-1.25-1.25c.41.42 1.04.63 1.87.63.83 0 0-1.25-2.5-3.75-2.5-2.92-4.17-4.37-5-4.38v.63c.42.42.83 1.04 1.25 1.87l-1.25-3.12 4.38 3.12 1.87 3.13 4.38 3.12c3.74 3.76 8.74 6.67 15 8.75v-5c-17.09-5.41-27.71-14.79-31.88-28.12l-5-14.38c-3.33-8.74-4.17-13.12-2.5-13.12l.63-12.5-2.5-12.5.62-9.38m207.5 9.38.63 1.25 5 6.25 10.62 16.25L420 256.66l1.25 5 2.5 6.25 3.12 10.63 1.25 5c2.5-3.75 3.75-6.87 3.75-9.38l-.63-1.87-6.25-19.38c-2.08-4.16-4.79-9.16-8.12-15a277.12 277.12 0 0 0-11.25-21.25c-6.25-12.08-10.42-17.7-12.5-16.87l-6.25 2.5m-106.88 1.25c-.42 1.25-.63 3.33-.63 6.25V217.91c0 2.5.21 4.38.63 5.63l7.5 10-8.13-2.5c-.41 1.25-.62 3.54-.62 6.87v1.88a48.65 48.65 0 0 1 2.5 6.25c.83 2.08 1.67 4.8 2.5 8.12l.63 5.63c0 2.5-1.67 6.67-5 12.5a11.37 11.37 0 0 1-5 3.75l-.63 26.87c5.42-.41 10-.83 13.75-1.25a78.97 78.97 0 0 0 11.25-1.87c.83-.83 6.25-2.7 16.25-5.63 7.08-2.08 12.08-3.12 15-3.12 3.75 0 7.7 1.46 11.88 4.37 2.5-3.74 3.74-6.45 3.75-8.12 0-2.08-1.67-4.17-5-6.25-3.34-2.08-5.84-3.12-7.5-3.13-.42 0-4.17 1.05-11.25 3.13-1.67 1.67-3.13 2.5-4.38 2.5-1.67 0-2.5-.63-2.5-1.88 0-.83.63-1.66 1.88-2.5l.62-.62 19.38-3.75c2.5-.42 5-1.67 7.5-3.75s4.79-4.58 6.87-7.5a40.58 40.58 0 0 0 5-9.38c1.25-3.33 1.87-6.24 1.88-8.75v-4.37l-8.75 2.5-1.88-1.88c5-5 7.7-10.41 8.13-16.25v-8.12c.41-.83.83-2.08 1.25-3.75a38.3 38.3 0 0 1 3.75-6.88c-4.59-1.25-8.13-1.87-10.63-1.87-8.33 0-15.2 3.33-20.63 10l-1.87 1.87c-.42.84-1.25 1.88-2.5 3.13l-1.88-.63v-5c.42-5.41-.83-8.12-3.75-8.12-.83 0-1.87 1.67-3.12 5-3.33 4.58-5.2 14.17-5.63 28.75-.83 8.75-2.5 13.12-5 13.12-1.66 0-2.5-1.04-2.5-3.12 0-.83.21-1.46.63-1.88l3.13-7.5 1.25-11.87.62-11.88c-.42-1.66-2.5-4.37-6.25-8.12l-.63 11.87c-1.66-.41-3.54-3.33-5.62-8.75-.42-2.91-2.08-5-5-6.25l-10.63-4.37-.62 2.5m228.12 3.12-4.38 1.25-.62 1.25c-1.67.84-3.54 2.3-5.63 4.38a126.5 126.5 0 0 1-6.87 6.25l-6.25 8.75c-1.67 2.5-2.92 6.04-3.75 10.62 0 2.5-.2 4.38-.63 5.63l.63 15 4.38 13.12 8.12 10.63 5.63 3.75 6.25 6.25c1.66 1.67 4.79 3.33 9.37 5 .42-.83.63-2.7.63-5.63 0-1.66-.84-2.7-2.5-3.12-1.67-.42-5.42-3.75-11.25-10l-5.63-6.88c-3.75-4.16-5.63-11.87-5.63-23.12 0-13.33 4.17-21.25 12.5-23.75 7.92-2.92 12.3-4.8 13.13-5.63l-.63-3.75-1.25-10.62-1.87-1.25-3.75 1.87m60.63 43.13c10.41-.42 15.62-3.96 15.62-10.63 0-1.25-.2-2.08-.63-2.5-3.33-2.5-5-4.79-5-6.87 0-.83.42-1.67 1.25-2.5 4.17-2.92 6.25-5.42 6.25-7.5 0-1.25-.62-2.92-1.87-5l-3.75-4.38-6.88-3.75-1.87-1.87-1.88 10v12.5l2.5 8.75v1.25c0 3.33-1.25 7.5-3.75 12.5m-188.75-40.63c-5.83 3.34-8.75 6.67-8.75 10 0 2.5 1.25 3.96 3.75 4.38.42-5.42 2.71-8.12 6.88-8.13 5.42 0 11.46 4.59 18.13 13.75l1.87 1.88h1.88l-3.75-5-4.38-6.25a23.76 23.76 0 0 0-6.88-5.63 81.92 81.92 0 0 0-8.75-5m55.63 2.5-1.88 5a71.6 71.6 0 0 0-.62 8.75v12.5l3.75 16.25 1.25 6.88 2.5 6.25h1.88l-.63-13.13-3.13-16.25.63-8.12v-8.13l1.25-8.12c-.42-.42-2.08-1.04-5-1.88m23.75 3.75c-3.33 0-5.2.84-5.63 2.5l-5 4.38-3.12 6.25-1.88 2.5v3.75l-1.25 8.75-.62 3.12c0 3.76 1.04 5.63 3.13 5.63a4.24 4.24 0 0 0 1.25-3.13l-.63-1.25v-4.37c-.42-5 1.04-9.17 4.38-12.5 3.74-3.75 6.87-5.62 9.37-5.63 7.5 0 11.25 2.3 11.25 6.88 0 .83-.2 1.46-.63 1.87l-3.12 5.63 3.13.62 1.87-1.25 4.38-7.5c.41-.41.62-1.25.62-2.5 0-9.16-5.83-13.75-17.5-13.75M187.48 232.3l.63 5.62c2.91 7.5 6.24 11.25 10 11.25l1.87-.62c-6.67-9.17-10-14.8-10-16.88v-.62l.63-.63v-1.25l-1.25-3.75-3.13-1.87 1.25 8.75m397.5-6.88-1.88 6.88c1.67 1.25 3.13 1.88 4.38 1.87 2.5 0 3.75-1.25 3.75-3.75 0-2.08-2.08-3.74-6.25-5m-413.75 2.5v5c-.42 11.25 3.12 22.3 10.63 33.13l3.12 6.87 4.38 6.25 3.12 5 5.63 8.75c4.58 7.09 6.87 12.71 6.87 16.88 0 2.5-2.08 5.63-6.25 9.37h-1.25c-3.75.42-6.25-1.25-7.5-5-2.08.84-3.13 2.09-3.12 3.75 0 5.84 3.95 8.76 11.87 8.75 10 0 15-5.41 15-16.25 0-2.91-.83-5.83-2.5-8.75l-5-8.75-19.37-23.75c-6.26-7.5-10.42-16.45-12.5-26.87l-1.25-7.5-1.88-6.88m206.25 0-10.63 3.75 5.63 5.63a14.26 14.26 0 0 0-6.88 6.25c-1.25 4.58-1.87 7.92-1.87 10s.63 5 1.88 8.75c5 6.25 10.83 9.38 17.5 9.37 4.16 0 8.12-1.87 11.87-5.62l-.63-1.25c-1.25.42-3.33.62-6.25.62-.83 0-3.75-1.04-8.75-3.12-3.33-4.58-5-7.92-5-10 0-7.08 4.17-10.63 12.5-10.63 4.59 0 9.8 1.67 15.63 5l8.75 8.75 2.5 5 4.38 8.13 1.87 6.25 5 4.37-6.25-19.37c-2.92-8.75-8.13-16.25-15.63-22.5-7.08-6.67-14.16-9.8-21.25-9.38h-4.37m-173.75 5.63c-2.92 2.5-4.38 4.58-4.37 6.25 0 3.75 2.08 5.63 6.25 5.62 3.74 0 5.62-2.29 5.62-6.87 0-2.5-2.5-4.17-7.5-5m10.63 23.12h2.5c.83 0 1.25-.83 1.25-2.5 0-5-1.67-7.5-5-7.5-3.34 0-5 1.88-5 5.63 0 4.17 1.45 6.25 4.37 6.25l.63-.63 1.25-1.25m283.75-1.87c-1.25 8.33-1.88 12.08-1.88 11.25 0 7.5 4.37 13.96 13.13 19.37l5.62 2.5c-8.75-6.66-13.13-13.54-13.13-20.62 0-7.08 2.5-10.63 7.5-10.63 2.09 0 3.55.21 4.38.63-1.25-5.83-3.54-8.75-6.88-8.75-.83 0-1.66.42-2.5 1.25l-6.25 5m-51.87 19.37h-1.88c-2.5-1.25-4.37-1.87-5.62-1.87-3.75 0-5.63 5.2-5.63 15.62 0 5.42.84 9.8 2.5 13.13l6.25 19.37c.42.42 1.25 5.42 2.5 15l-1.87 1.25 1.25-1.25h-2.5c-2.92-32.91-14.38-53.75-34.38-62.5l-1.25 9.38 1.25 2.5c-2.5-.83-4.79-2.3-6.87-4.38l-6.88-1.87c-.83-.42-2.7-.63-5.62-.63-3.75 0-6.25.21-7.5.63.42 4.17 1.87 7.7 4.38 10.62-9.59 6.26-13.96 12.3-13.13 18.13v2.5c.83 9.58 6.04 14.37 15.63 14.37l1.87-.62 8.13-3.13h6.25l.62-1.25c-3.33-1.66-5.2-2.91-5.63-3.75h-13.75c-2.5-.41-3.75-2.29-3.75-5.62 0-6.67 4.8-10 14.38-10 3.75 0 9.8 2.92 18.13 8.75l5 8.12 5 7.5 6.25 20c.41 1.67.83 3.55 1.25 5.63.41 2.08 1.04 4.8 1.87 8.12v12.5l10-.62 10 1.87c2.5 0 3.75-1.45 3.75-4.37l.63-9.38.62-7.5c0-3.33-.63-9.16-1.88-17.5-2.5-15.41-3.75-28.12-3.75-38.12 0-20 5.63-32.5 16.88-37.5-2.92-4.17-6.04-6.25-9.38-6.25-9.58 0-14.37 4.38-14.37 13.12v3.75c.42 1.67.83 3.76 1.25 6.25m-246.25-10c3.75 0 5.62-2.08 5.63-6.25 0-3.33-1.67-5-5-5-3.76 0-5.63 1.25-5.63 3.75 0 5 1.67 7.5 5 7.5m280 2.5c-1.25-1.66-2.7-2.5-4.38-2.5-3.33 0-5 1.46-5 4.38s1.67 4.38 5 4.37c2.5 0 3.96-2.08 4.38-6.25m-303.75-1.25v5l.63 8.13c0 4.58-2.92 7.92-8.75 10 1.66 2.92 3.54 4.38 5.62 4.37-.42 0 1.04-.41 4.38-1.25 3.74-2.5 5.62-5.62 5.62-9.37 0-3.75-2.5-9.37-7.5-16.88m285 6.25v1.88c0 3.33 1.04 5 3.13 5 3.33 0 5-1.46 5-4.38 0-3.33-1.25-5-3.75-5l-1.25.63-3.13 1.87m108.12 3.75v5c-.83 3.76.2 5.63 3.13 5.63l7.5-3.13-6.25-2.5-4.38-5m-95 .63c-.42.42-.63 1.67-.63 3.75s4.8 4.17 14.38 6.25c1.25.42 2.3.83 3.13 1.25 1.25.42 2.29.83 3.12 1.25-5-7.08-11.67-11.25-20-12.5m105 10.62c-6.25.84-9.38 2.5-9.38 5 0 .42.42 2.3 1.25 5.63 6.67-2.5 11.88-5.62 15.63-9.38a30.28 30.28 0 0 1 4.38-3.75c1.66-.83 2.7-1.45 3.12-1.87l1.88-3.13-16.88 7.5m-109.38 3.13c1.25-2.5 1.87-4.37 1.88-5.63 0-1.66-1.46-2.5-4.38-2.5-3.33 0-5 1.46-5 4.38s1.46 4.38 4.38 4.37c1.66 0 2.7-.2 3.12-.62m-263.12-5.63v2.5l13.75 8.13v-4.38l-13.75-6.25m261.88 8.13-.63 1.87h-3.12l-1.88 1.88-3.12 1.25-.63 2.5c4.59.83 6.88 1.67 6.88 2.5 0 1.25-1.46 3.13-4.38 5.62l-2.5 5.63 1.88 9.37c5 5.42 10.2 8.13 15.63 8.13 6.24 0 10.2-1.46 11.87-4.38l10.63-13.12a4.24 4.24 0 0 1 3.12-1.25c.83 0 2.3.62 4.38 1.87v6.88l3.12-6.25c0-2.08-1.88-4.17-5.63-6.25l-1.87-.63c-5.42 0-9.38 3.13-11.88 9.38-3.75 3.75-6.66 5.63-8.75 5.62-7.08 0-10.62-3.33-10.62-10 0-8.33 6.46-12.5 19.38-12.5 7.91 0 13.75 1.25 17.5 3.75 1.66 1.67 3.12 2.5 4.37 2.5.83 0 1.67-.41 2.5-1.25v-2.5c0-1.66-1.04-2.91-3.13-3.75l-6.87-3.12-12.5-5.63-5-.62a26.27 26.27 0 0 0-6.25-.63h-2.5c-1.67 0-5 1.05-10 3.13m-123.12 32.5c1.67.83 3.75 2.3 6.25 4.37a356.1 356.1 0 0 0 8.75 5.63 244.7 244.7 0 0 0-9.38-12.5c-2.91-4.58-4.37-8.96-4.37-13.13 0-7.08 2.5-10.62 7.5-10.62 1.25 0 3.12.62 5.63 1.87v8.13c4.16-2.5 6.24-4.8 6.25-6.88 0-5.83-3.76-8.74-11.25-8.75-5 0-9.17 2.92-12.5 8.75-2.09 5-3.13 8.55-3.13 10.63 0 1.67.83 3.96 2.5 6.87 1.67 2.92 2.92 4.8 3.75 5.63m-165.62-25c-2.92.42-7.3 4.38-13.13 11.87-.41 5.42-.83 9.17-1.25 11.25 0 1.67 0 1.67 0 0 0-.41.42 1.05 1.25 4.38l4.38 6.25 8.13 1.87v1.88l-10.63 1.25c-1.25 0-1.88.62-1.88 1.87s.63 2.09 1.88 2.5c4.17 2.92 7.3 4.38 9.38 4.38h3.12l8.75-.63 6.88-2.5 13.75-10c6.66-5 16.04-9.37 28.12-13.12l14.38-4.38h-7.5c-10 1.67-20.42 5.42-31.25 11.25l-6.88 1.88-8.13 3.75-5.62.62c-2.5.84-6.67-.41-12.5-3.75-3.33-4.58-5-8.12-5-10.62 0-9.17 4.58-13.54 13.75-13.13h1.88c-2.09-3.74-6.05-6.04-11.88-6.87m130 2.5c-5.42 1.25-8.13 3.13-8.13 5.62 0 3.34 2.3 5.42 6.88 6.25l14.38 3.75 6.25 1.88 6.25 1.87-4.38-3.75-17.5-8.75-1.88-5.62-1.87-1.25m-46.25 15.62c-15.83 2.5-26.88 5.63-33.13 9.38l-17.5 10.62-10.62 7.5-6.25 5.63-8.13 7.5a30.97 30.97 0 0 0-5.62 8.12 605.2 605.2 0 0 1-6.88 12.5c-1.25 2.92-2.08 4.59-2.5 5l-1.87 7.5-1.88 6.25-3.75 24.38v-7.5l.63 7.5-1.25 26.25v5c.42 8.33 1.67 15.83 3.75 22.5l1.25 6.25c.42 1.67 1.04 3.96 1.88 6.87 1.25 2.5 2.7 5.63 4.37 9.38l4.38 15 1.87 4.38c.42 1.25.63 3.75.63 7.5 0 9.16-5.21 15.62-15.63 19.37a38.3 38.3 0 0 0 6.88 3.75c2.91 0 6.45-1.46 10.62-4.38 3.75-5.41 5.62-9.58 5.63-12.5 0-1.66-.63-4.16-1.88-7.5l3.75 3.13 1.88.63 1.25-6.25v-3.13c.41-1.25.2-3.54-.63-6.88l-2.5-5c-1.25-2.91-2.08-4.58-2.5-5-.42-.83-3.33-3.74-8.75-8.75l-2.5-3.75-2.5-5-3.75-8.75c-1.25-2.5-1.88-3.95-1.88-4.37.42-1.25 1.05-1.87 1.88-1.88 1.67 0 2.5 1.67 2.5 5v.63l3.75 8.75 1.88 3.75 5 6.25v-7.5l1.25-1.88c4.16 5 8.33 7.5 12.5 7.5 3.33 0 5-.62 5-1.87l-3.13-8.75-3.13-9.38-6.25-5.62.63-2.5h5c-.83-4.17-3.96-8.54-9.38-13.13-1.25-.41-2.91-1.66-5-3.75-5-3.74-7.7-8.95-8.12-15.62l3.13-.63 1.87 7.5 3.13 2.5 1.25 1.88c1.25 2.08 2.91 3.13 5 3.12 1.25 0 2.5-.83 3.75-2.5l-.63-5h5l3.13-3.75 1.25-5.62h-5c-9.17.42-13.75-6.25-13.75-20 0-17.92 5.83-33.33 17.5-46.25l3.75-5.63c1.25-1.25 5.2-4.37 11.87-9.37l15.63-11.25c1.25-1.25 4.79-2.92 10.62-5l7.5-2.5c7.08-2.92 21.25-4.37 42.5-4.38 11.67 0 23.75 2.3 36.25 6.88l10.63 4.37h13.75l-13.75-7.5c-12.09-6.24-26.67-9.79-43.75-10.62l-14.38-.63-5.63-.62-11.87 1.87m1.25 16.25 1.88 3.13 1.87.62v-5.62c.42-.42.63-1.25.63-2.5 0-.83-.63-1.67-1.88-2.5-.83 0-1.25.2-1.25.62l-1.25 6.25m-6.88-5-21.25 9.38-3.75 1.25c-5 2.08-7.5 5.63-7.5 10.62v3.13l.63 38.12-.63 64.38 3.13 4.37 3.13 1.88c7.08 4.58 13.33 6.88 18.75 6.87 7.08 0 10.62-3.74 10.62-11.25V369.8c1.25-6.67 3.54-10 6.88-10h160v-2.5c0-5.42-1.46-11.04-4.38-16.88l-148.12.63-9.38-1.88c-2.91-2.5-4.37-5.83-4.37-10h-3.75m-41.88 20c-14.16 11.25-21.25 22.5-21.25 33.75 0 3.76.21 6.26.63 7.5a32.95 32.95 0 0 0 10 8.75v-5c4.17.84 6.46 1.25 6.88 1.25 6.66 0 10-3.74 10-11.25 0-5.41-2.09-8.12-6.25-8.12-1.67 0-2.5.62-2.5 1.87s.83 2.09 2.5 2.5c0 4.59-1.88 6.88-5.63 6.88-4.58 0-6.88-2.7-6.88-8.13 0-10.41 3.34-18.33 10-23.75 2.09-2.08 3.13-3.54 3.13-4.37 0-.83-.2-1.46-.63-1.88m281.88 12.5-26.87.63-8.75-.63-1.88 6.25 57.5.63v-5.63l-20-1.25m-233.75 16.25v5l.63 8.13-.63 19.37.63 6.88v11.87l-.63 10.63c.42.42 1.25.62 2.5.62s1.88-.41 1.88-1.25l.63-1.87.62-66.88 1.88-3.12H425c2.91 0 4.37-1.04 4.37-3.13 0-1.25-.63-1.87-1.88-1.87H283.12c-9.16 0-14.37.42-15.62 1.25-1.25.83-1.88 2.7-1.88 5.62v1.88c0 .83-.2 1.88-.62 3.12 0 .84-.2 2.09-.63 3.75m11.25-6.87-2.5 5h5.63c17.92 0 35.42 6.25 52.5 18.75v-1.25c2.92-1.67 4.37-3.54 4.38-5.63 0-2.08-3.13-4.37-9.38-6.87l-15.63-6.88c-.41-.41-3.33-1.25-8.75-2.5l-26.25-.62m117.5 0-8.12.62 5.63 6.25 10.62 15.63 1.88 4.37 3.75 8.13 1.87 3.75a101 101 0 0 1 4.38 15.62 87.5 87.5 0 0 1 2.5 11.88l.62 6.87v13.75c0 7.09-1.04 16.46-3.13 28.13 6.25-1.25 9.59-5.83 10-13.75l.63-16.25c.42-36.25-9.8-64.58-30.63-85m48.75 1.87c-20.83.84-31.25 3.96-31.25 9.38 0 2.08.84 3.13 2.5 3.12.84-.41 2.5-.83 5-1.25 2.5-.83 5.84-1.87 10-3.12a70.27 70.27 0 0 1 13.75-1.25c5.84 0 10 .62 12.5 1.87 10.42 5.42 16.25 8.13 17.5 8.13.84 0 1.25-.83 1.25-2.5 0-6.25-6.04-10.42-18.12-12.5l-13.13-1.88m-85.62 5.63c-1.67 2.92-2.5 5.2-2.5 6.87 0 7.09 1.67 14.59 5 22.5.83 1.25 1.46 3.13 1.88 5.63.83 2.08 1.66 3.13 2.5 3.12 1.25 0 1.87-.83 1.87-2.5 0-2.08-.83-5.62-2.5-10.62-1.67-5-2.5-8.54-2.5-10.63 0-6.66 2.92-10 8.75-10 .42 0 1.25.21 2.5.63a27 27 0 0 1 5 .62l-2.5-8.12-1.25-.63-7.5-1.87h-1.25l-.63.62-6.87 4.38m234.38-4.38-11.25 5-2.5 1.25c-3.75 2.92-6.04 6.26-6.88 10v7.5l.63 6.25 4.38 2.5c.83-1.25 1.87-2.5 3.12-3.75l3.13-3.12h1.87l2.5 6.25c2.92 3.75 6.25 5.63 10 5.62 1.25 0 4.58-2.08 10-6.25.83-.83 2.92-2.29 6.25-4.37-3.33-2.5-6.46-3.75-9.38-3.75-3.75 0-6.25.2-7.5.62-3.33-3.33-5-5.83-5-7.5 0-5 3.34-7.5 10-7.5 1.67 0 5.21 1.05 10.63 3.13l3.13 3.12 2.5 3.13c2.08 5.42 3.12 9.17 3.12 11.25 0 6.67-3.75 14.37-11.25 23.12l-5 2.5c-4.17.42-6.25 1.46-6.25 3.13 0 1.25.63 2.7 1.88 4.37 17.91-4.16 26.87-15.41 26.87-33.75 0-13.75-7.5-22.91-22.5-27.5l-12.5-1.25m-249.38-.62v6.25c.42 8.33-4.58 15.83-15 22.5l-4.38 4.37-11.87 7.5c-8.33 5.84-12.5 14.17-12.5 25v3.75c.42 1.25.83 2.92 1.25 5l.63 3.75c2.5 8.34 7.91 12.5 16.25 12.5 2.08 0 4.79-.41 8.12-1.25l5.63-3.12 5.62-1.88c.83.84 1.25 1.46 1.25 1.88 0 1.67-1.67 2.92-5 3.75l-3.13.62-8.75 3.13h-5.62c-2.08-1.25-3.75-1.87-5-1.88-.83 0-1.46.21-1.88.63 9.17 10 20.21 15 33.13 15l16.88-.63c3.33 0 7.5.84 12.5 2.5 4.16 1.67 6.66 5.21 7.5 10.63h3.12a37.7 37.7 0 0 0 2.5-3.13c1.67-2.08 2.5-5 2.5-8.75l-1.88-6.25-5.62-3.75c1.25-1.66 1.87-3.12 1.88-4.37 0-3.33-3.55-5.42-10.63-6.25l-8.13 2.5h1.25l-5 1.25-11.87 5c-.42.42-1.46.62-3.13.62-2.5 0-3.75-1.04-3.75-3.12 0-1.25 1.25-1.87 3.75-1.88l6.88-.62c2.92 0 5.83-1.04 8.75-3.13 3.33-2.5 5-5 5-7.5 0-1.66-1.25-2.5-3.75-2.5h-1.88c7.09-5 10.63-10.41 10.63-16.25v-3.12c0-2.08-.2-3.75-.63-5a21.78 21.78 0 0 1-11.25 6.25h-12.5c-1.25 4.17-3.54 6.25-6.87 6.25l3.13-8.13-5.63.63-6.25 5.62-4.38 8.13c-1.25 2.08-2.7 3.13-4.37 3.12-1.67 0-2.7-.2-3.13-.62l-1.25-5c0-3.75 6.25-8.12 18.75-13.13 6.67-2.5 11.05-5.41 13.13-8.75 2.08-3.33 3.75-9.37 5-18.12-2.92 0-5 1.04-6.25 3.12l-2.5-1.87c5.83-7.08 8.75-12.7 8.75-16.88 0-4.58-3.33-9.37-10-14.37m159.38 1.87c-4.17.42-6.67 1.88-7.5 4.38v4.37a16.3 16.3 0 0 0-5-.62h-3.13c-4.58 0-8.75 2.5-12.5 7.5h-1.25c-5 0-7.5 4.17-7.5 12.5 0 5.42 1.67 8.75 5 10l10 4.37 1.25 1.88h.63c1.25 0 1.87-1.04 1.88-3.13v-1.87l-1.88-1.88c-.42-1.25-1.46-2.7-3.13-4.37a10.22 10.22 0 0 1-3.12-7.5c0-6.67 4.37-10 13.13-10 5 0 9.37 2.5 13.12 7.5 1.25 3.75 1.87 6.67 1.88 8.75 0 .83-1.05 3.75-3.13 8.75l-1.88 3.12-7.5 6.25-13.12 9.38-3.13 3.12-2.5.63-6.87 7.5-4.38 3.75-6.25 8.12-6.87 11.25 5-5 13.13-15 4.37-3.75 30.63-17.5c7.5-4.16 11.25-11.87 11.25-23.12 0-2.92-.21-4.58-.63-5l-8.75-16.25.63-7.5-1.88-.63m-216.25 5.63c-5 2.08-7.5 5-7.5 8.75 0 4.58 2.7 6.67 8.13 6.25h.62v-1.25c-.42-6.67 5-10 16.25-10 2.08 0 6.04.62 11.88 1.87-12.09-4.58-19.8-6.66-23.13-6.25h-3.13l-3.12.63m133.12 7.5c.83 2.08 1.46 3.13 1.88 3.12.83-.41 2.5-1.04 5-1.87 2.5-.83 5.41-1.87 8.75-3.13.41-.41 2.91-.62 7.5-.62 7.5 0 14.58 2.08 21.25 6.25.83-2.5 1.25-3.54 1.25-3.13 0-2.91-4.59-5.2-13.75-6.87-.84-.42-3.96-.63-9.38-.63a64.2 64.2 0 0 0-15.63 1.88c-4.58.83-6.87 2.5-6.87 5m-32.5 14.37c-2.5-1.66-3.75-3.54-3.75-5.62 0-4.17 2.08-6.25 6.25-6.25 2.92 0 6.46 1.46 10.63 4.37-3.76-7.08-7.92-10.62-12.5-10.62-7.5 0-11.25 3.13-11.25 9.37 0 6.26 2.7 9.38 8.12 9.38l2.5-.63m56.88-14.37-6.88 1.25 1.25 3.75-1.25.62c-2.08-3.33-3.54-5-4.38-5 .42 0-1.04.42-4.37 1.25l1.25 2.5 1.88 3.75 1.87 1.25.63 3.13 8.75-1.25 10 2.5 4.37-6.25 2.5-3.13-4.38-2.5c-.83 3.34-1.66 5-2.5 5h-1.87c1.25-1.66 1.87-3.12 1.88-4.37 0-.42-.63-.83-1.88-1.25-1.25-.83-2.08-1.25-2.5-1.25-.83 0-1.25 1.46-1.25 4.37h-3.13v-4.37m-141.88 0-3.75 2.5-3.12 5-3.75 4.37-3.13 5.63-.62-11.25-1.88 9.37-4.37-3.12-3.75 9.37a43.54 43.54 0 0 1-1.25 5v2.5c0 2.09 1.25 4.8 3.75 8.13 2.92 3.33 6.87 5.83 11.88 7.5-1.67-2.92-2.5-5.42-2.5-7.5 0-1.67.83-2.5 2.5-2.5 1.25 0 1.87 1.67 1.87 5v1.25c.83-3.75 1.04-5.83.63-6.25v-3.13c0-3.33.83-5 2.5-5 .83 0 1.25.42 1.25 1.25 0 2.5-.21 4.38-.63 5.63l.63 3.75a48.14 48.14 0 0 0 7.5-11.88 38.78 38.78 0 0 0 1.25-9.37c0-5-1.67-10.42-5-16.25m-95.63 44.37 1.25.63c-.42.83-.63 2.5-.63 5v2.5c.42.83.84 2.3 1.26 4.37l2.5 7.5c6.66 13.75 15.62 22.3 26.87 25.63l10 2.5 5 .62v-.62c0 1.25-1.88-.42-5.63-5l3.76-3.13a62.32 62.32 0 0 1-9.38-1.87 167 167 0 0 1-8.13-4.38l-5-3.75c-8.33-8.33-12.5-18.75-12.5-31.25 0-4.16.63-7.91 1.88-11.25l6.25-13.12-.63-5-.62-5.63-5.63 9.38-3.74 6.87-3.13 5.63-.63 3.75-2.5 6.25-.62 4.37m223.75-20.62 1.88 2.5 1.25.62c2.5-3.74 6.24-5.62 11.25-5.62 2.5 0 4.79.62 6.87 1.87l5 5c1.67 0 2.5-1.45 2.5-4.37 0-5-3.13-8.12-9.38-9.38l-3.75-.62.63-.63h-1.88v-.62h-.62v.62l-6.25.63c-4.58 0-7.08 3.33-7.5 10m-236.25-9.38c-1.67 1.67-2.5 3.96-2.5 6.88v.62c.42.42.83 1.05 1.25 1.88 1.67 3.75 4.17 5.63 7.5 5.62 5 0 8.75-3.95 11.25-11.87-4.58 3.33-8.13 5-10.63 5-4.16 0-6.45-2.7-6.87-8.13m191.88 3.75c-2.08.84-3.13 2.09-3.13 3.75 0 2.92 1.88 4.38 5.63 4.38 3.33 0 5-1.46 5-4.38 0-2.5-2.08-3.74-6.25-3.75h-1.25m-30.63 1.25v4.38l-2.5 6.87 3.13 6.25c4.17-1.25 6.25-2.7 6.25-4.37 0-4.17-2.3-8.54-6.88-13.13m43.75 5c1.67 2.5 3.55 3.76 5.63 3.75 1.67 0 2.5-1.04 2.5-3.12 0-3.33-1.04-5-3.13-5l-4.37-.63-.63 5m43.13-.62c-4.17.42-6.25 2.3-6.25 5.62v2.5c3.75-1.25 6.46-1.87 8.13-1.87 2.91 0 5.83.83 8.75 2.5.41-1.25.62-2.08.62-2.5l.63-1.25c0-3.75-3.34-5.62-10-5.63h-1.25l-.63.63m-46.25 3.12c-1.67.42-2.5 1.88-2.5 4.38 0 3.75 1.46 5.63 4.38 5.62 2.91 0 4.37-1.45 4.37-4.37 0-3.75-1.88-5.62-5.63-5.63h-.62m-34.38 8.75-5 4.38 2.5 1.25c5-3.75 8.75-6.04 11.25-6.88 2.5-.83 6.05-1.25 10.63-1.25h8.75c-.83-3.74-2.92-5.62-6.25-5.62-7.92 0-15.2 2.7-21.88 8.12m231.88-6.87c-.41 3.75-2.7 6.67-6.87 8.75-3.75 2.08-7.08 3.13-10 3.12l-4.38-.62v11.25h5l8.13 2.5h1.25c6.25 0 9.37-2.08 9.38-6.25l-.63-.63-1.88-3.75 6.88-3.75c.42-.41.63-.83.63-1.25 0-.83.2-1.45.62-1.87 0-3.33-2.7-5.83-8.13-7.5m-188.75 9.37c1.67 1.25 2.92 1.88 3.75 1.88 1.67 0 2.5-1.46 2.5-4.38 0-2.91-1.04-4.37-3.12-4.37s-3.13 1.67-3.13 5v1.87m33.13-3.12-.63 8.75-5.62 32.5c-.42.83-1.46 3.75-3.13 8.75-1.25 5-1.87 8.13-1.87 9.37 0 1.25.63 3.34 1.88 6.25l3.12 2.5 1.88-5L435 474.8l4.37-13.13 5.63-28.12 1.25-6.25c.41-.42.62-1.46.62-3.13 0-1.66-1.04-2.5-3.13-2.5l-1.87.63-6.25 1.25m-51.25 1.25c-3.75 0-5.63 1.46-5.63 4.37 0 2.09 1.88 3.13 5.63 3.13 3.33 0 5-1.67 5-5 0-2.08-1.46-3.12-4.38-3.13l-.62.63m61.25 28.75c5-13.33 10.63-20 16.88-20 .83 0 1.87.83 3.12 2.5 1.25-1.25 1.87-2.5 1.88-3.75 0-3.33-2.09-5-6.25-5-2.92 0-5.21 1.46-6.88 4.37l-4.38 6.25-1.87 2.5v3.13l-1.88 4.37-.62 5.63m33.13-10.63-6.25 3.13-3.13 2.5-8.75 9.37-10.63 11.88-6.25 10-4.37 6.25-5 8.75-1.25 3.75-1.88 1.87V514.8l3.75-6.25 6.25-13.75 8.13-12.5 13.13-16.25 10.62-11.25 7.5-5 7.5-5c4.58-3.33 9.58-5 15-5 8.33-.83 12.3-2.7 11.88-5.63v-6.87h-1.25l-6.88 1.87-15.63 5.63-4.37 3.12-4.38 1.25-3.75 3.75M395 429.16a9.84 9.84 0 0 0-3.75 2.5v1.25c0 2.5 1.25 3.76 3.75 3.75 4.17 0 6.25-1.45 6.25-4.37 0-2.08-1.87-3.12-5.62-3.13h-.63m221.88 3.75c-2.5.84-3.75 1.88-3.75 3.13 0 2.92 1.25 4.38 3.75 4.37 2.5 0 3.75-1.25 3.75-3.75 0-1.66-1.25-2.91-3.75-3.75m-348.12 15.63c1.25 1.67 3.13 2.5 5.63 2.5h1.25l.63 1.87c-5 0-8.55 1.67-10.63 5l-3.75 7.5-.63 2.5-10 9.38 2.5 1.87c2.92 2.92 6.88 4.38 11.88 4.38 4.17 0 9.17-1.67 15-5h2.5a26.6 26.6 0 0 1-6.88 11.25l9.38 1.87c12.5-2.91 18.75-10 18.75-21.25v-1.25c-2.08-4.58-5.42-6.87-10-6.87h-1.88l-9.37 3.12 1.25-.62-2.5.62v-.62c0-1.67 1.67-2.92 5-3.75 5.42-1.25 8.12-5 8.13-11.25 0-2.92-2.5-4.8-7.5-5.63v-1.25l5-1.25-3.75-5-3.13-1.25v-.62l-3.75.62-5 1.25-1.88 1.25-2.5 1.88-1.87 2.5-3.13 2.5 1.25 3.75m353.75-8.13c-2.08 2.09-3.12 3.76-3.12 5 0 2.09 1.25 3.13 3.75 3.13l3.13-1.25 1.25-2.5.62-1.25-.63-.63-1.25-2.5h-3.75m-52.5 1.25-.62 8.13c3.75 2.08 9.37 6.46 16.88 13.12 3.74 4.59 5.62 8.76 5.62 12.5 0 5.42-2.08 10.21-6.25 14.38-4.17.83-6.04 1.25-5.63 1.25-2.5 0-3.75-1.04-3.75-3.13l8.13-8.12c.42-.42.63-1.46.63-3.13 0-5-2.09-7.5-6.25-7.5-.42 0-2.3.42-5.63 1.25 2.5 2.09 3.75 3.96 3.75 5.63 0 2.5-1.88 5.83-5.63 10v3.75c-.41 6.67 3.34 10 11.25 10 4.59 0 8.34-2.7 11.25-8.13l1.25-8.12h.63c2.5 0 4.17-.42 5-1.25l.63-3.75v-3.13l-.63-11.87c-.42-7.92-6.25-13.54-17.5-16.88l1.25-1.25-5.63-1.25-8.75-2.5m-180.62.63a9.57 9.57 0 0 0 4.38 6.87v.63c-8.75.83-13.13 5.42-13.13 13.75 0 2.92 1.88 5.63 5.63 8.12 1.25 1.25 2.3 1.88 3.13 1.88.41 0 1.04-.42 1.87-1.25a14.5 14.5 0 0 1-2.5-3.75l-.63-2.5c0-4.17 2.71-6.25 8.13-6.25 3.75 0 7.08 2.7 10 8.12 1.67 3.34 2.5 6.46 2.5 9.38 0 3.33-.83 6.88-2.5 10.62v1.88c4.17-1.25 6.25-7.5 6.25-18.75 0-15.42-7.7-25-23.13-28.75m201.88 3.12.63 1.25c5.42.84 9.37 1.67 11.88 2.5l4.37.63c4.17 0 6.25-1.46 6.25-4.38 0-1.66-1.25-2.5-3.75-2.5l-5.63.63-13.75 1.87m-225 .63-3.12 3.12c1.67 1.67 2.5 3.34 2.5 5 0 .42-1.04 2.3-3.13 5.63 3.34 0 5-1.04 5-3.13v-2.5c-.41-.41-.62-1.45-.62-3.12 0-2.08-.2-3.75-.63-5m121.25 3.12-11.25 5.63c10.42-1.25 15.21-1.87 14.38-1.88 8.33 0 12.5 3.34 12.5 10 0 6.67-2.92 9.59-8.75 8.75h-3.75v1.25c0 1.67 2.5 2.5 7.5 2.5 7.5 0 11.25-4.37 11.25-13.12 0-10-5.42-14.58-16.25-13.75l-5.63.62m125.63 5.63c1.66 2.5 3.33 3.75 5 3.75 2.08 0 3.12-1.25 3.12-3.75 0-3.33-1.25-5-3.75-5-2.08 0-3.54 1.67-4.38 5m-16.25-2.5 8.75 11.25c5.84 4.58 9.8 6.88 11.88 6.87 4.17 0 6.67-1.25 7.5-3.75v-2.5l-7.5 1.25-5.63-1.87-3.12-1.88a29.1 29.1 0 0 0-5.63-4.37l-6.25-5m8.13 11.87 5 20c2.92 6.26 4.37 11.88 4.38 16.88 0 5.83-1.05 11.25-3.13 16.25l-4.38 8.13-1.25 2.5-3.12 2.5-1.25 2.5-3.75 2.5-5.63 5-8.12 3.12c-.83.83-1.25 1.46-1.25 1.88 0 .83 1.04 1.66 3.13 2.5l4.37 2.5h1.25c3.75 0 7.08-2.09 10-6.25.83-1.25 1.67-2.3 2.5-3.13l1.88-1.88a59.16 59.16 0 0 0 4.37-3.75l2.5-2.5.63-3.12 6.25-13.75c1.25-1.67 1.87-7.3 1.87-16.88 0-10.83-3.75-20.62-11.25-29.37l-5-5.63m-126.88 5.63-.63 5a26.85 26.85 0 0 0-5-.63c-1.25-.41-2.29-.62-3.12-.62-6.25 0-10.2 4.58-11.88 13.75.84 5 3.55 8.54 8.13 10.62-1.25-2.91-1.88-5.2-1.88-6.87 0-6.67 3.75-10 11.25-10 2.09 0 4.8 1.04 8.13 3.12a24 24 0 0 1 5.63 15.63v9.37l1.87-6.25 3.13-8.75c.41-.83.62-2.91.62-6.25 0-10-5.42-16.04-16.25-18.12m13.75 56.25a65.22 65.22 0 0 0 9.38 16.25c3.33-.83 5-2.3 5-4.38l-.63-.62a198.23 198.23 0 0 1-5.63-8.13 30.3 30.3 0 0 1-3.12-13.75c0-7.5 2.7-13.95 8.13-19.37 5.83-5.83 12.5-8.75 20-8.75 10 0 15 5 15 15 0 2.5-1.46 5.2-4.38 8.12l-1.88.63c.42 1.25 1.05 1.88 1.88 1.87 3.75 0 7.3-2.29 10.63-6.87a19.34 19.34 0 0 0 1.87-8.75c0-4.17-2.5-8.54-7.5-13.13l-.63-1.87c4.59-2.08 6.88-3.33 6.88-3.75 0-1.25-2.3-2.5-6.88-3.75-4.58-1.67-7.7-2.5-9.37-2.5-11.25 0-20.83 4.58-28.75 13.75-7.92 8.75-11.88 19.37-11.88 31.87 0 2.5.63 5.21 1.88 8.13m-181.25-50.63 2.5 6.88 1.25 2.5-2.5 1.25a6433.58 6433.58 0 0 0-3.13-6.25c-2.08 0-3.12 2.7-3.12 8.12v3.75c.42 1.25.83 2.71 1.25 4.38 2.08 2.5 5.42 4.8 10 6.87l.63-5.62 5 3.75c3.74 1.25 6.66 1.88 8.75 1.87 4.58 0 6.45-1.04 5.62-3.12 0-2.92-1.46-5.83-4.38-8.75-4.16-5-6.66-7.92-7.5-8.75-.83-.83-3.33-2.3-7.5-4.38.42 2.09 1.67 4.59 3.75 7.5 0 1.25-.41 1.88-1.25 1.88-.83 0-1.25-.2-1.25-.63l-5-8.12-3.12-3.13m-85 1.88.63 34.37v5.63c-3.76 21.67-15.42 34.17-35 37.5l-8.13 1.25c-2.92.42-4.38 1.46-4.38 3.13 0 2.5 3.34 4.37 10 5.62 2.09.42 3.96.83 5.63 1.25h4.38l43.75-2.5 28.12 2.5 22.5 1.25 10.63.63c5-.42 7.5-2.5 7.5-6.25 0-1.67-.42-2.5-1.25-2.5l-19.38-4.38a19.4 19.4 0 0 0-4.38-1.25 65 65 0 0 0-8.12-2.5l-6.25-6.88-2.5-3.12c-5.83-11.25-8.54-19.8-8.13-25.63v-6.25c.42-1.25.63-3.12.63-5.62v-16.25h-5.63l-11.25-.63-8.12-3.12c-4.58-1.25-8.33-3.33-11.25-6.25m379.38 3.75 1.25 16.25c.42 1.67.63 3.13.63 4.37v3.75c0 6.67-3.55 12.3-10.63 16.88-2.08 1.25-4.8 1.88-8.13 1.88-7.5 0-11.25-2.92-11.25-8.75 0-2.09 2.5-5.42 7.5-10h-1.87c-3.33 0-6.67 1.66-10 5a14.3 14.3 0 0 0-1.88 7.5c0 10 5.42 15 16.25 15 6.67 0 12.3-3.13 16.88-9.38 5-6.25 7.5-13.75 7.5-22.5 0-7.92-2.08-14.58-6.25-20m-56.88.62-3.75 2.5 3.13 3.75h1.88c.41-.41.62-1.04.62-1.87 0-.83-.63-2.3-1.88-4.38M214.38 494.8c-2.5 2.5-4.79 3.75-6.87 3.75.42 0-2.92-1.04-10-3.13h-2.5c-.42 0-.63.21-.63.63 0 1.67 1.46 3.33 4.38 5l5.63 3.75 6.87-.63 3.13.63c4.58-.83 6.87-5 6.87-12.5 0-6.25-1.67-9.37-5-9.38h-1.88l1.25 8.13-1.25 3.75m138.75-10.63-1.87 5.63-9.38 12.5-6.87 6.87c2.92 1.67 5.42 2.5 7.5 2.5 1.67 0 3.54-1.66 5.63-5 1.25-1.66 3.74-4.79 7.5-9.37 3.74-5 5.62-9.17 5.62-12.5 0-.83-.83-1.25-2.5-1.25-2.92 0-4.8.2-5.63.62m-88.12 3.13.63 36.87 3.75 11.25 2.5 3.75 3.12 4.38 2.5 2.5 5 3.75v-1.25c0-.83-1.25-2.3-3.75-4.38-6.67-5-10-15.83-10-32.5v-10.62c.42-4.17.83-8.54 1.25-13.13l-5-.62m133.12 15.62c-.83 1.25-1.88 3.55-3.13 6.88s-2.08 5-2.5 5c-1.25 0-1.87-.2-1.87-.63l-1.88-10.62-5 2.5c-6.25 5.83-10 18.33-11.25 37.5 0 2.5-1.04 4.38-3.12 5.63l1.25-1.25-3.13-.63.63-5 .63-6.25v-3.13c0-6.24-2.09-11.45-6.25-15.62-1.25-2.5-3.96-3.75-8.13-3.75l-4.38-.63-.62 3.13c0 .83.83 2.08 2.5 3.75v1.25c0 1.25-.63 1.88-1.88 1.88l-1.87-2.5-4.38-3.13-2.5-3.13-4.37-.62-9.38-.63-5 2.5-3.75.63v2.5l1.25 2.5.63 1.25 5.63 3.13-1.25 1.87c-1.25 0-2.09-.2-2.5-.63h-3.75l-4.38-.62c-7.5 0-11.25 3.96-11.25 11.88v2.5c.42 1.25.83 2.91 1.25 5l2.5 1.87c3.33-5.83 6.87-8.75 10.63-8.75 7.5 0 13.75 3.75 18.75 11.25.41 1.25 1.66 2.92 3.75 5l2.5 5c.83 3.33 3.12 8.13 6.87 14.38l1.88 2.5 3.75 3.12c4.16 3.75 7.7 5.63 10.62 5.63 7.5 0 12.3-1.25 14.38-3.75l3.12-4.38 5-6.25c.42-.42 1.67-3.54 3.75-9.38 2.08-4.58 3.75-6.87 5-6.87.83 0 1.25.63 1.25 1.88a230.3 230.3 0 0 1-1.88 6.87c-.83 2.92-3.33 7.7-7.5 14.38-2.5 2.5-3.75 4.37-3.75 5.62 0 1.67 1.67 2.5 5 2.5l5-1.25-4.37-1.88v-2.5l8.13 2.5.62 1.88h-3.75l5.63.63c7.91 0 14.16-2.3 18.75-6.88l10.62-9.38 3.13-1.87 20.62-22.5c4.17-5.42 9.8-8.12 16.88-8.13 4.16 0 6.24 2.3 6.25 6.88l-.63 4.38c-1.67.41-2.92.83-3.75 1.25l-2.5 1.25c-10.83 3.75-19.17 9.16-25 16.25-3.33 7.91-5 14.37-5 19.37 0 4.58 2.7 8.75 8.13 12.5 1.25 1.25 2.29 1.88 3.12 1.88l9.38 1.87-1.88-3.13v-1.87l6.25 2.5a23.54 23.54 0 0 0 9.38 1.88c2.5 0 4.79-.63 6.87-1.88l20-13.13c3.33-2.08 6.67-3.12 10-3.12 5 0 7.5 1.88 7.5 5.63h-.63l-1.25 2.5v6.25c2.5 2.91 4.8 4.37 6.88 4.37s4.8-.63 8.13-1.88l1.25.63 3.75-5.63c4.16-6.25 8.54-9.37 13.12-9.37.83 0 1.25.2 1.25.63l3.13 5h1.25c.83 0 1.25-.42 1.25-1.25v-.63l-1.25-6.25h-.63c-2.92-1.67-5.42-2.5-7.5-2.5-3.75 0-6.25.83-7.5 2.5l-9.38 10.63c-1.25 1.66-2.7 2.5-4.37 2.5s-2.7-.63-3.13-1.88l-.62-1.25v-10.63l-5.63-3.12-11.25.63-20.62 11.25a17.5 17.5 0 0 1-8.75 2.5c-2.92 0-6.46-.63-10.63-1.88l-5-2.5c-3.75-5-5.62-9.17-5.62-12.5 0-8.33 2.3-13.75 6.88-16.25l17.5-10 3.75-5c1.25-1.67 2.7-3.54 4.37-5.63l-.63-8.12-.62-2.5-4.38-5.63a18.6 18.6 0 0 0-9.37-2.5c-.42 0-3.75 1.25-10 3.75l-3.75-.62 3.75-6.25v-4.38c-1.25-.41-3.75-.62-7.5-.62-2.5 0-5.83 1.46-10 4.38l-1.88 1.25v1.25l-4.37 5.62-10.63 23.75-4.37 5c-2.92 4.17-5.2 6.25-6.88 6.25h-1.25a6.79 6.79 0 0 0-2.5-1.25l3.75-5.63 6.25-5.62 3.13-5.63 2.5-5c2.5-5.83 3.75-9.16 3.75-10 .42-1.25.83-3.54 1.25-6.87h-1.88c-2.08 0-4.16 2.3-6.25 6.88H425l1.25-.63-2.5.63c2.09-8.34 3.13-13.75 3.13-16.25 0-15.42-2.5-23.13-7.5-23.13-.83 0-4.17 1.67-10 5l-6.88 4.37-4.37 5m-23.13-10-6.25.63a40.03 40.03 0 0 0-11.87 8.12c-.83.84-1.67 1.88-2.5 3.13l-2.5 3.75c0 1.25 1.04 1.88 3.13 1.87 1.25 0 3.12-1.66 5.62-5 2.92-3.74 6.04-5.41 9.38-5h2.5l1.25 7.5c2.91-2.91 4.37-5.83 4.37-8.75 0-1.66-1.46-2.5-4.38-2.5l1.25-3.75m-87.5.63-8.75 5.62c-2.5 3.34-3.75 6.46-3.75 9.38 0 6.25 2.3 9.38 6.88 9.37l4.38-.62 1.25-1.88c-4.17-1.25-6.26-3.12-6.25-5.62 0-4.17 2.29-6.25 6.87-6.25-.42 0 1.46.42 5.63 1.25 2.5 3.33 3.74 5.83 3.75 7.5 0 9.17-7.5 13.75-22.5 13.75 0 3.33 1.04 4.58 3.12 3.75h2.5l8.75-.63 10.63-5 4.37-3.75v-3.12h2.5c1.25-.42 1.87-2.7 1.88-6.88 0-6.24-2.71-11.25-8.13-15l-1.88 5.63a12.27 12.27 0 0 0-5.62-5.63l-5.63-1.87m150.63 23.75c6.66-10 12.91-15 18.75-15 1.25 0 3.12 1.25 5.62 3.75-1.25-6.25-3.75-9.37-7.5-9.38-2.92 0-5.63 1.46-8.13 4.38l-3.12 4.37a76.45 76.45 0 0 0-3.75 5l-1.88 1.88v5m-241.25-11.88 3.13 10a36.56 36.56 0 0 1 3.75 3.13c1.25.83 2.3 1.67 3.13 2.5 4.16 3.75 7.29 5.63 9.37 5.63 3.33 0 5-1.67 5-5 0-.84-2.3-2.3-6.88-4.38a6.79 6.79 0 0 0-2.5-1.25c-.83-.83-2.29-2.08-4.37-3.75l-10.63-6.88m3.13 15.63-.63 3.13c0 5 2.71 7.5 8.13 7.5l6.25 3.75 2.5-3.75L200 521.03m418.75 0-5 11.88-5.63 8.75-4.37 3.75-3.75 3.75-3.75 3.12c2.5 1.25 4.58 1.88 6.25 1.88s3.54-1.67 5.63-5c2.91-5.42 5.2-9.8 6.87-13.13s2.7-5.83 3.13-7.5c.41-.42.62-2.92.62-7.5M277.5 532.29v1.88c0 1.25.63 2.5 1.88 3.75l.62 1.87 20.63-3.13 2.5-5.62 1.87-4.38-4.38 1.88-10 1.25-5 1.88-8.12.62m-30 35-10.63-.63a15.6 15.6 0 0 0-6.25 0c-2.5 0-5.41.21-8.75.63-5.83.42-10.62.83-14.37 1.25H200c-1.25 0-3.54-.2-6.88-.63a108.4 108.4 0 0 0-12.5-2.5c7.5 5.84 15.21 8.55 23.13 8.13l51.25-1.88c2.5 0 11.88.63 28.13 1.88 3.33.42 6.45.83 9.37 1.25h8.75c10 0 15-2.5 15-7.5 0-2.92-.63-4.38-1.88-4.38v1.25c0 .84-1.04 1.88-3.12 3.13s-6.67 1.88-13.75 1.88h-5l-38.13-2.5-6.87.62m222.5-1.88c.42 5.42 6.25 8.13 17.5 8.13h1.25l30-.63 20-1.25 13.13-.62c1.25 0 3.74.2 7.5.63 3.74 0 8.54.2 14.37.62 4.58.42 8.33.83 11.25 1.25h6.88c8.74 0 13.75-2.3 15-6.88-4.59 1.25-7.92 1.88-10 1.88h-12.51l-18.75-.63-27.5-.62-60 1.88-8.12-3.75m-302.5 11.25-1.25 6.25 1.25 1.87c2.08-4.58 3.96-6.88 5.63-6.88 2.08 0 4.16 1.88 6.25 5.63l1.25 1.25 5 .63c-1.67-9.17-5.63-13.75-11.88-13.75-3.33 0-5.42 1.66-6.25 5m51.25 10v6.25c-3.33 2.08-5.83 3.12-7.5 3.12-2.92 0-4.8-1.67-5.63-5-.83-3.75-1.45-7.08-1.87-10-4.58-2.5-8.96-3.75-13.13-3.75h-2.5v1.25c7.92.42 11.88 2.7 11.88 6.88v11.25c0 2.08 3.33 3.12 10 3.12 7.08 0 11.88-2.5 14.38-7.5v-1.25l-.63-8.13c0-2.5 3.12-3.75 9.38-3.75 1.25 0 2.5 1.25 3.75 3.75-2.09 2.09-3.13 3.96-3.13 5.63 0 3.33 1.25 5.2 3.75 5.63l6.88 1.87-3.13 3.75v1.25c2.5.42 4.58.83 6.25 1.25h5c14.17 0 21.25-5.83 21.25-17.5 0-3.75-.2-6.25-.63-7.5l-7.5 1.88v2.5c.84 4.58-1.87 7.91-8.12 10h-10.63c-2.5-1.25-3.75-2.5-3.75-3.75v-.63l.63-.63v-1.25l1.88-3.12c.41-.42.62-1.04.62-1.88 0-3.33-6.04-5-18.13-5-6.66 0-10 2.3-10 6.88 0 2.08.21 3.54.63 4.38m358.75-9.38c-2.08 3.33-3.13 6.67-3.13 10 0 5 1.88 8.75 5.63 11.25.83 2.08 2.3 3.13 4.38 3.13l1.87-8.13c6.25 6.25 12.08 9.38 17.5 9.38 10 0 15-4.8 15-14.38 0-4.17-1.46-7.08-4.38-8.75h-1.25c-1.66 0-2.5.63-2.5 1.88l1.25 5-1.25 1.25-.62 3.12-3.13 2.5-3.75.63h3.75l-9.37-.63-5-3.75-4.38-12.5H577.5m-286.88 2.5-.63 1.88c0 2.08.63 3.12 1.88 3.12-.42 0 1.04-.42 4.38-1.25 3.33 2.08 5 4.17 5 6.25 0 3.75-3.13 5.63-9.38 5.63-6.25 0-11.04-4.17-14.38-12.5h-1.87l1.25.62-.63 5.63 3.13 7.5c3.75 3.75 7.92 5.62 12.5 5.62 9.58 0 14.38-4.58 14.38-13.75 0-5-2.5-7.5-7.5-7.5-3.34 0-5.63.2-6.88.63l-1.25-1.88m73.13 10.63-17.5-1.25 3.75-1.88c2.91-.42 4.37-1.25 4.37-2.5 0-.83-1.88-1.67-5.63-2.5l-8.12-1.25c-3.33-.83-7.08 0-11.25 2.5l-9.38 5c.42 1.25 2.3 2.92 5.63 5a41.25 41.25 0 0 0 17.5 3.75c10 0 16.88-2.3 20.63-6.88m-190-8.12c-2.92 4.58-3.96 8.54-3.13 11.88v4.37c3.33 2.08 5.42 3.13 6.25 3.13 1.67 0 3.96-.84 6.88-2.5l-1.88-1.25h-2.5l-1.25-.63-1.88.63h-.62c-1.25 0-1.88-1.67-1.88-5 0-2.92.84-5.84 2.5-8.75l-2.5-1.88m4.38 6.25c0 4.58 1.67 6.88 5 6.88 8.33 0 12.5-3.34 12.5-10 0-1.67-.83-2.5-2.5-2.5-.42 0-1.25 1.25-2.5 3.75-1.25 2.08-3.33 3.12-6.25 3.12l-6.25-1.25m205-.63h-1.88l-1.25-.62h-.62c-3.33 0-5.63 1.04-6.88 3.13v.62c0 1.67 1.67 2.5 5 2.5 4.17 0 6.25-1.04 6.25-3.13 0-1.25-.2-2.08-.62-2.5m180.62.63-2.5 1.25v.63l-.63.62v1.25c0 2.08.84 3.13 2.5 3.13 2.92 0 4.38-1.46 4.38-4.38 0-2.08-.83-3.13-2.5-3.13h-1.25v.63m-165 1.25h3.13l-13.75 1.88c2.91 0 5.41 1.25 7.5 3.75-.84-.42-2.71-.63-5.63-.63-2.08 0-3.96.83-5.63 2.5 7.5 2.08 13.55 3.13 18.13 3.13h5.63c2.08 0 3.74-.21 5-.63l11.25-2.5 6.25-.63c-5.42-5.41-13.34-8.12-23.75-8.12-3.34 0-5.42.2-6.25.63l-1.88.62m148.12.63c-1.67 1.66-2.5 2.91-2.5 3.75 0 2.08.83 3.12 2.5 3.12 2.5 0 3.75-1.25 3.75-3.75 0-2.08-1.04-3.13-3.13-3.13h-.62m-178.12 4.38-2.5 3.13-6.25 3.12 1.25 1.25c.83.83 2.5 1.25 5 1.25 5.83 0 10.2-2.08 13.13-6.25l-10.63-2.5m186.25 0c-2.08 2.08-3.13 3.33-3.13 3.75 0 2.08 1.05 3.13 3.13 3.13 2.92 0 4.37-1.05 4.38-3.13 0-1.25-.21-1.88-.63-1.88l-3.75-1.87M353.74 219.17l-13.75 8.12c-1.67 0-2.5-.62-2.5-1.87.83-.83 1.46-1.25 1.88-1.25l.62.62 13.75-5.62m-60 5.62 5.63 12.5v7.5l-.63 5.63-1.25 5c-2.08-.83-3.13-2.08-3.13-3.75 0-.83.21-2.5.63-5 .83-2.5 1.25-4.58 1.25-6.25 0-2.08-1.04-6.87-3.13-14.38l.63-1.25m44.38 5c1.66-.41 3.12-.83 4.37-1.25l5-1.25c-.42 0-2.7.84-6.88 2.5-3.75 1.25-5.62 1.67-5.62 1.25a4.24 4.24 0 0 1 3.13-1.25m7.5 2.5-12.5 6.25-1.25-.62 2.5-1.88 11.25-3.75m-6.25 4.38-8.13 6.25v1.87-2.5l-3.13 1.25 1.88 2.5 1.25-1.25-1.88.63 10-8.75m278.13 10h4.37l.63 1.25h-5.63l.63-1.25m-276.88-1.25c-1.67 3.33-5 7.5-10 12.5-4.59 5-11.05 10.42-19.38 16.25l-5 4.37-8.13 5-6.25 4.38-4.37 1.25-3.75 1.25-1.25 1.25-1.25.62c-.83 0-1.25-.41-1.25-1.25 0-.83 1.87-2.08 5.63-3.75 4.16-1.66 6.45-2.7 6.87-3.12l5.63-3.75 12.5-9.38 5-5 6.87-8.12 3.75-8.13h1.25l13.13-4.37m272.5 6.87h1.87c3.75-.41 6.25.21 7.5 1.88l-1.25.62-.63 1.88c-.83-.83-2.08-1.25-3.75-1.25l-2.5-1.88-1.25-1.25m-300 4.38 1.25-1.25c0 .83.21 1.46.63 1.87l1.25 2.5-8.13-1.25c5.42 0 8.34.21 8.75.63-10.41 1.25-15.62 0-15.62-3.75l1.88 1.87 10-.62m-23.13-14.38.63 15v11.88c-1.67 1.67-3.13 2.7-4.38 3.12-.42-1.25 0-3.54 1.25-6.87v-6.25l2.5-16.88m63.13 5.63-3.13 2.5-7.5 7.5-1.88 1.87a9.8 9.8 0 0 1-1.87 2.5l-4.38 3.75-3.75 1.25-.62-1.87 23.13-17.5m-5 10-1.25 3.75-1.25.62-1.88 3.75-1.88.63-6.25 4.37-7.5 2.5v-.62c0-1.67 1.46-2.7 4.38-3.13 2.92-.41 5-1.45 6.25-3.12l3.13-3.75 2.5-1.88 2.5-3.12h1.25m-47.5 2.5c2.91 1.25 4.37 2.08 4.37 2.5 0 .83-.2 1.25-.63 1.25h-2.5l-1.87.62-1.25-2.5 1.88-1.87m293.12 3.75 16.87-8.13c-3.33 3.34-8.33 6.46-15 9.38-.42-.42-.83-.63-1.25-.63l-.63-.62m-298.12 3.12c2.92 0 4.8.42 5.63 1.25v1.88c-2.5 0-4.17-.2-5-.63l-.63-2.5m-8.12 6.88 7.5-1.25v2.5l-6.88 3.75-1.25 1.25.63-6.25m44.38 11.25-12.5 1.25-3.13 1.25 14.38-1.88 1.25-.62m116.88-2.5v1.25l.62 16.25-1.25 13.12-1.25-30 1.88-.62m-132.5 5c.83.42 1.25.83 1.25 1.25h.62c0 .42-.63.62-1.88.62-1.25.84-1.87.63-1.87-.62l.63-.63c.41 0 .83-.2 1.25-.62l4.37-2.5-1.25 1.25c.83.83 1.25.42 1.25-1.25l-4.38 2.5m-16.87 1.87c2.5-1.66 5.2-2.7 8.13-3.12l-5.63 8.12a14.07 14.07 0 0 1-2.5-5m118.12-4.37 8.75 10a71.36 71.36 0 0 1 3.75 12.5v2.5c-1.25-.42-1.88-2.08-1.88-5l-10.62-20m168.12 11.87-1.25 3.13-5 5c-.83 2.5-1.46 3.75-1.88 3.75-1.25 0-1.87-.42-1.87-1.25 0-2.92.83-4.37 2.5-4.38l15-11.25-13.75 15a56.96 56.96 0 0 0 4.38-6.25l5-6.25c0 .42-1.05 1.25-3.13 2.5m-.63 14.38 21.25-27.5-18.12 28.75-3.13-1.25M171.86 412.29l1.88-2.5h2.5l1.25.62c1.25 1.25 1.04 1.88-.62 1.88h-5m156.25 8.12h-.63l1.88-1.87 9.37-6.25c-.83-1.67-1.25-1.25-1.25 1.25 0 2.08-3.13 4.38-9.38 6.87m-49.37-4.37h1.88l11.25-3.13-7.5 11.88c-3.76-.42-5.63-3.33-5.63-8.75m47.5 13.12-1.88-1.87a91.45 91.45 0 0 0 6.88-3.13c2.5-1.25 5-2.91 7.5-5 1.25-2.08 2.3-3.12 3.13-3.12.41.42.62 1.04.62 1.87 0 4.17-5.42 7.92-16.25 11.25m-151.88-12.5 1.88-5.62 1.87 8.12-6.87 1.25 3.12-3.75m-3.12 12.5c0-5 1.66-7.5 5-7.5l1.25-5.62c.41.83.83 1.88 1.25 3.12.41 1.25.83 2.71 1.25 4.38l-.63 3.12-4.37-1.87-1.88 4.37h-1.87m147.5-11.87-8.13 10.62c-.83.84-2.3 2.92-4.38 6.25-1.66 3.34-2.7 5-3.12 5-1.25 0-1.88-.83-1.88-2.5 0-.83.21-1.45.63-1.87l1.88-2.5 5-6.25 10-8.75m-151.25 16.25a92.1 92.1 0 0 1 3.12 10 88.2 88.2 0 0 1 3.75 11.25l1.88 3.75c1.66 1.25 2.5 2.5 2.5 3.75 0 .83-.21 1.25-.63 1.25h-2.5a30.76 30.76 0 0 1-1.87-3.13c0-.83-.21-1.66-.63-2.5l-3.75-7.5-.62-3.12c-2.09-5-3.13-7.92-3.13-8.75 0-1.67.63-2.5 1.88-2.5s1.87.62 1.87 1.87l-1.87-4.37m140.62 16.25 7.5 5 15-4.38a87.45 87.45 0 0 1-12.5 6.25h-1.25c-3.76 0-6.67-2.29-8.75-6.87m-5 2.5 6.87 4.37 1.25 1.88h-3.13c-2.91-1.25-4.58-3.33-5-6.25m45-5-6.24 8.12-1.88 1.25-.63-3.12 8.76-6.25m-180.63 5 3.76 9.37-3.13.63-.62-10m3.12 5.62 1.88 7.5h-3.13l.63-1.87.62-5.63m169.38 7.5-6.88 6.88-.62-1.88v-3.75l1.88-1.25h5.62m-10.63 8.75-1.87-1.87a7.29 7.29 0 0 0-1.25-1.88c0-1.25.42-1.87 1.25-1.87 1.25 0 1.87 1.04 1.88 3.12v2.5m-6.88-5 1.25 5h-1.88l.63-5m-23.13-5a30.45 30.45 0 0 1 2.5 12.5c0 1.67-1.25 3.76-3.75 6.25l-1.25-2.5 2.5-16.25m-5.62 1.25c.42 1.67.63 3.34.63 5 .41 1.25.83 2.92 1.25 5 0 1.25-1.25 2.71-3.75 4.38l-.63-1.88 2.5-12.5m52.5 11.88 15-2.5-.63 2.5-9.37-.63-5 .63m15-9.38 5.63 7.5c-.42 1.67-1.05 2.5-1.88 2.5-1.67 0-2.5-.83-2.5-2.5l-1.25-7.5m57.5 26.88c-7.08 3.33-10.63 5.83-10.63 7.5l-3.12 3.75 2.5-2.5-11.25 13.12-1.88-.62c3.75-5 6.46-8.54 8.13-10.63a107.3 107.3 0 0 1 3.75-4.37c2.5-4.17 5.62-6.25 9.38-6.25h3.12m-5.63 6.87-14.37 16.88 5-1.25h-3.13c1.25-3.33 4.59-7.08 10-11.25l2.5-4.38m0 20h-1.87l-1.88-.62-.62-1.88 1.25-.62c1.67 0 2.7.63 3.13 1.88.41.83.41 1.25 0 1.25m40.62-.63-4.38 3.13-.62 1.87-5.63 6.25-1.87-1.25 1.25-.63 3.75-5.62 3.75-3.13 2.5-1.25 1.25.63m-96.25-3.75 4.38 6.25-1.25-.63 1.87 3.75 1.88 6.25c.41.42.62 1.46.62 3.13-2.5-3.75-4.17-5.62-5-5.63l3.75 6.25h-2.5l-3.75-19.37m52.5 6.25 1.25 1.88-1.25 1.25h1.25l-3.13-.63c-.41 0-.62-.42-.62-1.25 0-.83.83-1.25 2.5-1.25m36.25 10 6.25-4.38-5 4.38h1.88-3.13m-41.88-3.75c-1.66 0-2.08-.42-1.25-1.25a4.24 4.24 0 0 1 3.13-1.25c2.08 0 3.12 1.25 3.13 3.75 0 1.25-1.25 1.88-3.75 1.88l-.63.62.63-.63-1.25-3.12m-5 13.75 3.12.63-2.5 2.5 1.88-1.25-1.25.62c-1.25 0-1.88-.42-1.88-1.25l1.25-1.25.63.63-1.25-.63m-.63 8.13 1.88 1.25h-1.25l.62-1.88c-2.5.83-3.54 1.25-3.13 1.25-.41 0-.62-.42-.62-1.25 0-.42.42-.63 1.25-.63h1.25v1.25m-36.88-1.25c3.34 2.09 4.38 3.13 3.13 3.13 5.42 0 6.46.42 3.13 1.25l5 5.63-11.25-10 8.75 6.25 1.87 1.87c0 2.92-.42 4.38-1.25 4.38-.42 0-1.25-1.05-2.5-3.13-.83-2.08-1.46-2.92-1.88-2.5l-1.87-1.25-2.5-1.88-.63-3.75m-20.62 1.25 3.13 1.25 5.62 13.13 2.5 3.75 4.38 6.25 5 5c0 .83-.42 1.25-1.25 1.25l-1.88-.63-4.38-4.37-3.12-6.25-3.13-4.38c-1.66-2.5-3.12-5-4.37-7.5l-2.5-7.5m25.63 9.38 1.25 1.25c-3.76 1.25-4.8 1.88-3.13 1.88-.42 0-1.25-.42-2.5-1.25a9.81 9.81 0 0 0-2.5-1.88c-2.5-3.75-3.75-7.08-3.75-10 .42 0 1.87 2.08 4.38 6.25l3.12 1.88 3.13 1.87m-11.88 1.88 1.25 3.12 1.25 2.5 1.88 5c-2.09-.83-3.96-2.92-5.63-6.25l-3.13-5v-1.25c0-1.25.42-1.88 1.25-1.88 1.25 0 2.3 1.25 3.13 3.75m51.88-1.25 5 3.13 1.25 1.25h6.87l.63 1.88v-1.88l.62 1.88a91.06 91.06 0 0 1-6.88 1.25c-2.5 0-5-2.5-7.5-7.5m-49.37-1.88 3.13 4.38 1.87 3.12 1.25 3.13-3.75-3.75-2.5-6.88m44.38 6.88 5.62 4.37 4.38 3.13h-5.63l-2.5-1.88 1.25-3.13-1.25 1.88-1.88-4.38m3.13 10 2.5 1.25-3.13.63-4.37 2.5h-1.88l-1.25-.63-2.5-.62 1.25-2.5 2.5 1.25 1.25-1.25 2.5-1.25 3.13.63" transform="translate(-146.86 -119.79)"/>
</svg>
