<svg xmlns="http://www.w3.org/2000/svg" viewBox="0 0 500 500">
    <path d="M146.86 619.79v-500h500v500h-500m7.5-7.5h485v-485h-485v485m7.5-7.5V135.41h469.38v469.38H161.86m380.62-448.75 3.13 3.12c.41.84.62 2.5.62 5 0 3.76-2.08 5.63-6.25 5.63-5.83 0-8.96-2.08-9.38-6.25l-.62-11.25c-.42-5.42-5-8.12-13.75-8.13-5.83 0-10.42 1.88-13.75 5.63-2.92 3.33-5 5-6.25 5-4.17 0-6.25-1.25-6.25-3.75 0-1.67 1.25-3.75 3.75-6.25-2.5-1.25-4.58-1.87-6.25-1.88-3.75 0-5.63 2.3-5.63 6.88 0 7.5 4.17 11.25 12.5 11.25l1.88-.63 1.25-.62 17.5-11.88c2.08 0 5 1.25 8.75 3.75l.63 16.25c5.41 6.26 11.45 9.38 18.12 9.38.42 0 1.67-.63 3.75-1.88l.63-1.87 3.12-3.75c.83-.83 1.25-2.08 1.25-3.75 0-3.33-1.25-7.92-3.75-13.75 1.67-4.17 4.17-6.25 7.5-6.25 2.08 0 3.33.2 3.75.62l3.13 2.5 1.87.63c1.25 0 1.87-.63 1.88-1.88 0-6.24-4.59-9.37-13.75-9.37-7.09 0-10.63 4.38-10.63 13.12 0-.41.42 1.05 1.25 4.38m-131.88-5.63c2.5-2.91 4.37-4.37 5.63-4.37 1.66 0 4.16.83 7.5 2.5 3.33 1.25 5.62 1.88 6.87 1.87 2.08 0 4.17-1.25 6.25-3.75l-10-.62-7.5-3.75c-2.08-1.25-3.96-1.87-5.63-1.88-7.91 0-11.66 3.96-11.25 11.88v2.5c4.17 5 10.42 7.5 18.75 7.5 11.25 0 18.55-1.87 21.88-5.63l11.25-10.62a6.76 6.76 0 0 1 5-1.88c4.17 0 6.25 1.88 6.25 5.63 0 2.5-2.3 5.63-6.88 9.37a225.3 225.3 0 0 1-11.87 3.75c-1.25.42-3.54 1.05-6.88 1.88l-51.25 3.75v4.37c0 5.84-3.75 12.09-11.25 18.75h6.88c6.67.42 12.5.84 17.5 1.25 5.42.42 9.8 1.05 13.13 1.88 12.5 2.5 21.66 6.88 27.5 13.12.41.42.83 1.05 1.25 1.88l3.12 3.12 1.88 3.13v1.87l1.25 5c0 2.09-.84 3.96-2.5 5.63-3.34 2.5-5.63 3.75-6.88 3.75-2.08 0-3.33-.2-3.75-.63-4.58-2.08-7.08-4.79-7.5-8.12l-5-15.63-3.13-5-1.25 1.88 1.88 14.37 1.25 5c1.67 8.76 7.7 13.13 18.13 13.13 4.58 0 8.54-1.67 11.87-5 2.08-2.08 3.33-3.12 3.75-3.13.83 0 1.67.42 2.5 1.25l2.5 4.38c7.5-.42 11.67-1.46 12.5-3.13v-7.5c0-2.08-.2-4.58-.63-7.5v-4.37l7.5-.63c-2.08-5-5-9.58-8.75-13.75l-5.62-3.75-3.13-1.87h-6.25l-3.12-4.38c-9.58-2.5-16.04-3.74-19.38-3.75h-.62l-21.88 1.88c-4.16 0-6.25-1.46-6.25-4.38 0-2.91 1.46-4.37 4.38-4.37l28.75 3.12 13.13-1.25 10-2.5c2.91-1.25 4.37-2.08 4.37-2.5 0-1.25-.63-2.5-1.88-3.75l.63-2.5c7.5-2.5 11.25-7.29 11.25-14.37 0-9.17-5.42-13.75-16.25-13.75-3.33 0-6.04 1.04-8.13 3.12l-15 11.88-3.75 1.25-4.37 1.87-3.75.63c-10 .83-15-1.46-15-6.88v-1.25m-244.38-11.25c-.83.84-1.25 1.46-1.25 1.88 0 1.67.63 2.5 1.88 2.5 2.08 0 3.12-.83 3.12-2.5 0-1.25-1.25-1.87-3.75-1.88m169.38 20 3.13 2.5 7.5-.62-2.5-3.75c-.42-.42-.63-1.25-.63-2.5 0-5 3.96-7.5 11.88-7.5 8.33 0 14.16 4.38 17.5 13.12l4.37 1.25c-3.75-14.58-12.3-21.87-25.63-21.87-3.75 0-7.5 1.46-11.25 4.37-3.75 2.5-5.62 5.42-5.62 8.75l1.25 6.25m-88.13-3.12c10-6.25 15.63-9.37 16.88-9.38 4.58 0 6.87 1.05 6.88 3.13l-1.88 10c0 3.33 3.96 5 11.88 5 4.16 0 8.33-1.46 12.5-4.38l-3.13-7.5c2.5-4.16 6.67-6.24 12.5-6.25 4.58 0 8.54 1.88 11.88 5.63.83 3.33 1.25 4.8 1.25 4.37l-1.25 6.25c5.41-2.5 8.12-5 8.12-7.5 0-10-6.46-15-19.38-15-10.41 0-15.62 2.92-15.62 8.75 0 2.5.2 4.17.63 5-.84 3.76-2.5 5.21-5 4.38h-2.5c-2.5-1.67-3.76-3.33-3.75-5l1.25-5c0-5.83-3.34-8.75-10-8.75-10.84 0-17.92 5.42-21.25 16.25m335-1.25c2.5 0 3.74-1.46 3.75-4.38 0-4.16-1.67-6.24-5-6.25-2.5 0-3.76 1.05-3.75 3.13a8.3 8.3 0 0 0 1.87 5c1.25 1.67 2.3 2.5 3.13 2.5m-403.13-11.88c-.41.42-.62 1.05-.62 1.88l.63 1.25c1.25 2.08 2.7 3.13 4.37 3.12 1.67 0 2.5-.62 2.5-1.87 0-2.08-.83-3.12-2.5-3.13l-4.37-1.25m203.75 20.63c.41-7.92 2.7-11.88 6.87-11.88 3.33 0 5.42.21 6.25.63-1.67-5.42-4.38-8.12-8.13-8.13-6.25 0-9.37 5-9.37 15 0 2.5 1.46 3.96 4.38 4.38m-185.63.62 1.26 2.5c1.66 2.09 3.95 6.46 6.87 13.13v-7.5l-1.88-5.63c-.83-2.5-1.24-3.95-1.24-4.37 0-7.08 4.16-11.04 12.5-11.88-2.92-4.16-5.63-6.24-8.13-6.25-7.08 0-10.2 4.8-9.38 14.38v5.62m398.75-8.12c-2.08 7.08-2.7 11.67-1.87 13.75v3.12c.42.84.83 2.09 1.25 3.75l5-1.25a43.62 43.62 0 0 0-1.25-5v-3.75c0-5.83 2.5-8.74 7.5-8.75 1.25 0 3.54 1.05 6.88 3.13l.62 3.75-1.88 7.5c-10.41 4.58-18.33 9.58-23.75 15l-2.5 3.12c-.41.84-.62 2.5-.62 5 0 .84.42 2.09 1.25 3.75.83 1.67 2.08 2.5 3.75 2.5 5 0 7.5-1.04 7.5-3.12 0-1.25-.42-1.87-1.25-1.88l-5-1.87 1.25-5c.83-2.08 3.75-4.17 8.75-6.25 9.17-2.92 14.8-5.42 16.88-7.5 2.08-2.5 3.12-6.87 3.12-13.13 0-10-4.38-15-13.13-15-2.91 0-7.08 2.71-12.5 8.13m-425-8.13c-2.08 0-3.12.63-3.12 1.88 0 3.33 2.5 5 7.5 5 2.08 0 3.12-.83 3.13-2.5 0-2.92-2.5-4.37-7.5-4.38m402.5 11.88c2.5 0 3.74-1.25 3.75-3.75 0-2.92-1.88-4.37-5.63-4.38-2.92 0-4.38.63-4.38 1.88 0 4.17 2.09 6.25 6.25 6.25m-356.25 3.12h.63l.63 10h-3.13l-3.75-1.25-1.88 5v2.5l1.26 4.38 3.12 3.75 3.13 2.5c.83 3.33 1.25 4.8 1.25 4.37 0 2.5-2.5 3.96-7.5 4.38-2.09-3.33-4.8-5.2-8.13-5.63v8.13l-3.75-.63c-5.83-.83-8.75 1.05-8.75 5.63 0 2.08.63 4.58 1.88 7.5 2.5-5 5-7.5 7.5-7.5 1.25 0 4.16 1.25 8.75 3.75 2.91 1.25 5 1.88 6.25 1.87 4.16 0 6.87-3.33 8.12-10l1.88 1.88 3.12 2.5 3.13 6.87c1.25 7.09 1.87 12.3 1.87 15.63 0 3.75-1.67 8.54-5 14.37-.83 3.34-2.5 6.88-5 10.63-5.42 7.5-8.96 15.2-10.63 23.12 1.67 0 2.92-1.66 3.76-5 .41-1.66 5-9.58 13.75-23.75a59 59 0 0 0 8.75-31.25c0-6.66-2.5-13.54-7.5-20.62 1.25-2.92 1.87-5.2 1.87-6.88 0-2.5-1.67-6.04-5-10.62-2.92-4.58-4.38-8.33-4.38-11.25 0-7.08 3.34-10.63 10-10.63 2.92 0 5 .21 6.26.63-2.09-4.58-4.8-6.87-8.13-6.88-8.75 0-13.54 4.17-14.38 12.5m342.5-10c-2.5 1.25-3.75 2.5-3.75 3.75v3.13c2.5 1.25 4.8 1.88 6.88 1.87 2.08 0 3.12-.62 3.13-1.87 0-.83-.21-1.46-.63-1.88l-.63-1.87c-.83-.83-2.5-1.87-5-3.13m-373.12 1.25h-1.25c-2.91 0-4.37 1.67-4.37 5 0 2.5 1.46 3.76 4.38 3.75 3.33 0 5-1.87 5-5.62 0-2.08-1.25-3.12-3.75-3.13m395.62 5.63-.63 2.5c1.67 2.5 3.33 3.75 5 3.75 2.08 0 3.12-1.04 3.13-3.13 0-3.33-1.67-5-5-5h-.63l-1.88 1.88m-415.62 4.37.63 1.25h2.5c2.92 0 4.37-1.04 4.38-3.12 0-2.5-1.25-3.75-3.75-3.75s-3.76 1.88-3.75 5.62m404.38 8.75v-7.5c-1.25-1.66-2.5-2.5-3.75-2.5-4.17 0-6.26 1.46-6.25 4.38 0 4.58 2.08 6.67 6.25 6.25l3.75-.63m7.5 3.75-1.25 4.38c-3.34 13.75-16.25 20.83-38.75 21.25l-1.25 1.87a26.2 26.2 0 0 0 10.62 2.5c12.92 0 23.13-5.83 30.63-17.5h.62c2.5-6.24 3.75-10.83 3.75-13.75 0-7.91-2.08-11.87-6.25-11.87-1.25 0-1.88 1.25-1.88 3.75 0 .83.21 1.46.63 1.87l1.88 3.75 1.25 3.75m-252.5-9.37-18.75.62c-3.34 0-7.09.21-11.25.63-4.17.42-7.09.62-8.75.62h-5.63c-2.5-.41-5.42-.83-8.75-1.25a31.88 31.88 0 0 0-6.25-.62h-5c-4.17 0-7.08-.2-8.75-.63h-1.88c-6.25-.41-9.37.84-9.37 3.75 0 2.5 1.46 3.96 4.38 4.38l25.62 7.5c2.92.83 7.5 4.38 13.75 10.62l2.5 3.13 1.25 1.25v1.87c1.25 2.09 1.87 3.55 1.88 4.38l.62 8.75.63 6.87c11.66-3.74 21.66-5.62 30-5.62h4.37c3.33-12.08 8.54-20.2 15.63-24.38 1.25-.83 3.95-1.87 8.12-3.12a913.89 913.89 0 0 0 18.13-6.88c7.08-3.33 10.62-6.66 10.62-10 0-2.91-4.38-4.16-13.13-3.75h-3.12l-36.88 1.88m-142.5.62c-2.08-2.08-3.54-3.12-4.37-3.12-2.92 0-4.38 1.25-4.38 3.75 0 3.33 2.71 5 8.13 5 .83 0 1.25-.42 1.25-1.25 0-2.08-.2-3.54-.63-4.38m6.88-2.5c-1.25.84-1.88 1.67-1.88 2.5 0 3.34 1.88 5 5.63 5v-1.25c.42-.41.83-1.04 1.25-1.87v-1.25c0-2.08-1.25-3.12-3.75-3.13h-1.25m190.62 3.75-1.25 3.13-.63 2.5c0 1.25-.62 2.08-1.87 2.5l-9.38 3.75-10.62 4.37-6.88 1.88c-12.08 5.83-18.75 14.37-20 25.62.42.42 1.46.63 3.13.63.42 0 1.04-.42 1.88-1.25.83-7.08 2.91-12.08 6.25-15 3.74-2.92 10.41-5.62 20-8.13a22.34 22.34 0 0 1 5.62-1.87c2.08-.83 4.37-1.67 6.88-2.5 7.08-4.58 10.62-8.12 10.62-10.63 0-2.08-1.25-3.74-3.75-5m92.5 1.88-.63 1.25a7.82 7.82 0 0 0 1.88 3.12c-.83.84-2.08 1.67-3.75 2.5l-9.38 4.38 8.13 1.87 8.13 1.88 12.5 3.75 16.87 7.5 3.75 1.87 11.25 5.63 1.25 1.25c.83.42 2.08 1.25 3.75 2.5l9.38 8.75 1.25 1.87 3.75 5 .62 1.88.63 1.87c2.5 3.34 3.74 6.67 3.75 10l-.63 2.5c-2.08 3.34-4.38 5-6.88 5-3.75 0-5.62-2.08-5.62-6.25h-1.88c-1.25 2.5-1.87 4.38-1.87 5.63 0 1.67.83 3.96 2.5 6.87 4.17 3.76 8.12 5.63 11.88 5.63 3.33 0 6.45-1.67 9.37-5 2.92-3.33 4.17-6.67 3.75-10l-.63-5 6.25 1.87 1.88-4.37c-.83-7.08-2.92-12.92-6.25-17.5l-3.13-3.13a7.09 7.09 0 0 0-2.5-2.5l-1.87-1.87c-1.25 0-3.13-.2-5.63-.63l-7.5-2.5a48.3 48.3 0 0 1-6.25-2.5c-1.66-1.25-2.5-2.5-2.5-3.75 0-2.08.63-3.12 1.88-3.12h21.88l6.87-3.13-18.75-8.75a80.72 80.72 0 0 0-13.13-4.37 92.98 92.98 0 0 0-16.25-3.75c-3.33-1.25-5.62-1.87-6.87-1.88a72.1 72.1 0 0 0-6.88-1.25c-2.5-.41-5.62-.83-9.37-1.25l-11.25-1.87h-3.75m-300 4.37c-2.5 0-3.75 1.05-3.75 3.13 0 3.33 1.67 5 5 5 2.5 0 3.96-.83 4.38-2.5l.62-1.25c0-2.92-2.08-4.37-6.25-4.38m13.13 0c-.42.42-.63.84-.63 1.25 0 .42-.2.84-.63 1.25 0 1.67 4.17 4.38 12.5 8.13l6.25 3.12 5 2.5c.42 1.25 1.25 1.88 2.5 1.88.84-.83 1.25-1.67 1.25-2.5l-3.75-1.88c-2.5-1.66-6.04-3.95-10.62-6.87l-6.25-3.75-5.63-3.13m55 .63c0 3.75 5.84 7.08 17.5 10a92.09 92.09 0 0 1 25 10.62l-4.37-6.25c-5-3.74-11.04-6.87-18.13-9.37l-20-5m367.5 16.87c.42-.41 1.67-.62 3.75-.62.42 0 1.67.62 3.75 1.87l1.88 5.63c2.92-1.67 4.37-3.33 4.38-5 0-5.42-2.92-8.12-8.75-8.13-4.59 0-6.88.84-6.88 2.5 0 1.25.63 2.5 1.88 3.75m-9.38-3.75-.63 3.13c.42.83 1.05 1.88 1.88 3.12a41.1 41.1 0 0 1 2.5 4.38l3.75 5a8.49 8.49 0 0 1 2.5 6.25v.62c-1.25 2.5-4.8 3.76-10.63 3.75-.83 0-5.2-1.66-13.12-5l-2.5-1.87-10-6.88-15.63 6.25-3.12.63 3.13 2.5 7.5 5.62 5.62 3.75 2.5 3.13 9.38 7.5 8.12 3.75 10 .62h3.13l-.63-4.37 1.25-1.88c8.33-4.58 12.5-9.58 12.5-15 0-4.58-1.25-8.12-3.75-10.62l-5.63-4.38-3.12-5c-.42-4.16-1.67-6.24-3.75-6.25l-1.25 1.25m-434.38 5c-.42.84-.63 2.5-.63 5a8.3 8.3 0 0 0 1.88 5c1.25 1.67 3.12 2.5 5.63 2.5 4.16 0 6.24-1.87 6.25-5.62 0-.42-.21-.63-.63-.63-2.5 0-4.17.21-5 .63-1.25-.42-1.88-1.25-1.88-2.5.42-.42.63-.83.63-1.25 0-.83.2-1.46.63-1.88 2.08-3.33 6.66-5 13.75-5 1.66 0 3.54.42 5.62 1.25 2.5.42 4.17.63 5 .63.42 0 1.04-.42 1.88-1.25l-3.13-1.88c-4.58-1.66-8.75-2.5-12.5-2.5-7.5 0-13.33 2.5-17.5 7.5m302.5-4.37 6.88 2.5 7.5 2.5c6.24 2.08 12.29 6.25 18.12 12.5 1.67 2.92 2.5 5.2 2.5 6.87 0 8.34-4.17 12.5-12.5 12.5-2.92 0-4.8-.2-5.63-.62 4.17 5 8.13 7.5 11.88 7.5 10 0 15-5.42 15-16.25 0-5.42-2.92-10.63-8.75-15.63-2.92-2.91-5.42-4.58-7.5-5l-16.25-6.25-10-1.87-1.25 1.25m-223.75 13.12-1.88 7.5 1.88 13.75 1.88-5.62 1.25-10c.41-5 3.33-7.5 8.75-7.5.83 0 1.87.2 3.12.62 1.67 0 3.54.21 5.63.63-1.67-5.42-4.59-8.12-8.75-8.13-4.17 0-8.13 2.92-11.88 8.75m95.63 8.13v1.87c0 .84 1.04 1.67 3.12 2.5l5.63-.62 5-.63c7.08-1.25 13.54-4.79 19.37-10.62l6.25-7.5-3.75-1.25c-.83 0-3.54 2.3-8.13 6.87-4.16 4.17-11.04 7.09-20.62 8.75l-5 .63h-1.88m58.13 1.25 1.88 3.12c4.16 7.5 10.2 12.09 18.12 13.75l-1.88-2.5-3.75-1.87c-6.66-3.75-10-8.33-10-13.75s3.34-8.12 10-8.13h1.25c-1.66-2.91-3.33-4.37-5-4.37-7.91 0-11.87 2.5-11.87 7.5 0 .83.42 2.92 1.25 6.25m-135-1.88c-6.25 5-11.04 10.42-14.38 16.25a9.8 9.8 0 0 1-1.87 2.5c-.83.84-1.67 1.88-2.5 3.13l5.63-4.38 20.62-18.12 7.5-5 4.38-3.13c-2.09-.41-3.34-1.04-3.75-1.87 1.66 0-3.55 3.54-15.63 10.62m8.75 5-8.13 6.88-20.62 18.75-6.25 6.87a234.39 234.39 0 0 0-10 15 603.95 603.95 0 0 0-10 16.88l-3.75 7.5-2.5 7.5-4.38 16.25c1.26 2.5 1.88 5 1.88 7.5l-.63 5.62 2.5-5.62 8.76-28.13 8.12-15.62 23.75-29.38 31.88-26.25c4.16-2.5 6.24-4.79 6.25-6.87v-1.25l-.63-1.25-2.5-3.75-13.75 9.37m-92.5-6.87c-1.67 2.92-2.5 5.2-2.5 6.87v3.75c-6.67 2.92-10 6.26-10 10l.63 3.13 5 .62h3.12l.63 1.25v-1.25 4.38l-1.88 3.75 1.25 4.37 6.25-7.5c.42-1.25 2.92-1.87 7.5-1.87 4.17 0 8.12 1.88 11.88 5.62l3.75 5v-1.25c.83-5.41-1.46-8.95-6.88-10.62l-.63-1.88 3.76-.62c0-2.92-1.46-4.58-4.38-5l-5-.63v-.62l-.63-2.5 3.76-.63v-1.25l-3.13-3.12-2.5-1.88-1.25-1.25-8.75-6.87m205.62 28.12-1.25-9.37c2.5-2.5 4.58-3.75 6.25-3.75 6.67 0 10 3.33 10 10 0 .42-.2 1.25-.63 2.5 0 .83-.2 2.3-.62 4.37-.83 5-3.54 10.21-8.13 15.63-2.5 1.25-3.75 2.7-3.75 4.37 0 .84.63 1.25 1.88 1.25l3.75-3.12 5-3.75c5-3.75 7.5-10.2 7.5-19.38 0-12.91-5.42-19.37-16.25-19.37-8.33 0-12.5 3.75-12.5 11.25 0 4.17 2.92 7.3 8.75 9.37m-80-16.25c-10.83 2.09-18.75 4.59-23.75 7.5l-5.63 3.75-20 13.75-3.74 5-5.63 3.75-2.5 4.38c4.17-1.25 6.87-2.3 8.13-3.13 1.25-1.25 3.95-4.16 8.12-8.75 2.08-2.5 5.2-4.79 9.38-6.87a69.11 69.11 0 0 1 13.75-6.25 121.18 121.18 0 0 1 16.25-5 67.06 67.06 0 0 1 15-1.88c16.25 0 29.16 4.17 38.75 12.5l1.25.63 1.87 1.25a17.41 17.41 0 0 1 3.75 10.62c-.83 7.09-3.96 10.21-9.38 9.38h-5.62l-1.25-2.5a42.9 42.9 0 0 1-1.25-5h-1.25l-1.25 4.37.63 5 .62 1.88 2.5 4.37 3.75 3.13c2.92 1.25 5.2 1.88 6.88 1.87 10 0 15.62-3.54 16.87-10.62l1.25-5.63h11.25c.83 0 1.25-.62 1.25-1.87 0-7.08-2.7-13.33-8.13-18.75-4.16-5-8.75-8.33-13.75-10l-4.37-2.5-3.13-1.25-6.87-2.5-4.38-.63c-.41-.41-1.04-.62-1.87-.62-1.25 0-2.08-.2-2.5-.63-5-1.66-9.58-2.5-13.75-2.5l-2.5.63-18.75 3.12m-98.75 10 3.13 3.13c.83-4.58 2.5-6.87 5-6.88l3.75.63c1.66 3.33 2.5 6.46 2.5 9.37 0 5.84-.84 11.05-2.5 15.63 5-5.42 7.5-12.7 7.5-21.88 0-8.74-3.13-13.12-9.38-13.12-7.5 0-10.83 2.92-10 8.75v4.37m360.62-10 .63 3.13v1.25l5 4.37 3.12 1.88 3.75 3.75 15 20 4.38 5.62 1.87 1.25c4.58 3.34 8.12 5 10.63 5 3.33 0 7.08-2.08 11.25-6.25-11.25-3.74-18.75-9.37-22.5-16.87-2.09-3.75-4.59-5.62-7.5-5.63h-1.25l-1.88-.62-3.13-1.25-3.12-1.88-10.63-8.75-3.75-3.75-1.87-1.25m-48.13 8.13.63 2.5c0 2.92-1.25 5.2-3.75 6.87-5 2.5-8.75 3.76-11.25 3.75-2.92 0-6.67-.62-11.25-1.87s-8.13-1.87-10.63-1.88c-.83 0-2.08.21-3.75.63-1.66 0-3.54.2-5.62.62l6.88 1.25c5.41.42 9.37 1.05 11.87 1.88l15.63 4.37c.83.42 2.7.63 5.62.63 7.5 0 11.25-3.12 11.25-9.38 0-2.91-1.88-6.04-5.63-9.37m50.63 1.87c.42 2.5.2 5.21-.63 8.13-.83 2.5-1.25 3.96-1.25 4.37 0-.41.42.63 1.25 3.13l5 6.87 4.38 13.13-.63 8.75v5.62l-2.5 9.38-1.25 3.75-3.12 5 1.25 1.25c.42 0 .83.2 1.25.62 4.17 0 7.92-2.5 11.25-7.5 1.25-1.66 1.87-3.95 1.88-6.87l1.25-12.5c0-.83.41-1.25 1.25-1.25l3.12.62v-6.87c0-6.67-5.42-16.67-16.25-30l-6.25-5.63M298.1 232.3l-5.63 1.87v34.38l1.25 151.88 6.88 1.25c2.08.42 3.75.83 5 1.25h2.5c1.25.42 2.92.62 5 .62l11.25 3.13 4.38.62-.63-193.12c0-1.66-.63-2.7-1.88-3.12-1.25-.83-3.75-1.04-7.5-.63h-3.12l-9.38.63-8.12 1.25m321.88.62v1.25c0 5.42-2.92 7.71-8.75 6.88h-5.63l-1.25.62 8.13 4.38h2.5c5.42 0 8.12-2.08 8.13-6.25 0-1.25-1.05-3.54-3.13-6.88m-289.38-.62v11.25l.63 183.75c.41 2.5 2.29 3.75 5.62 3.75L335.6 237.3c-.42-2.92-2.08-4.58-5-5m-140 5-.62.62h-3.75l3.12 35-.62 6.88v2.5l.62 1.25-.62 11.87-1.88 3.75-3.12 18.75-6.88 29.38-1.25 10-1.87 6.25-3.13 23.75h1.25l3.75-6.88 2.5 1.25-5.62 8.75-1.88 4.38-.62 10 2.5-3.75 1.87 1.25-1.87 4.37c-2.5 3.34-3.76 6.46-3.75 9.38l.62 4.37.63.63 2.5-4.38 1.87 1.88-1.87 4.37-3.13 5.63.63 8.75 2.5-4.38 1.87 2.5-3.12 8.75-.63 1.25.63 6.88 1.87-1.88 1.25-3.12 1.88 1.87-.63 1.88-1.25 3.12-1.25 4.38-.62 3.12 1.25 7.5c.83-3.74 2.29-6.04 4.37-6.87v1.87l-3.12 11.25 1.87 10.63 1.88-6.25 2.5 1.25a19.8 19.8 0 0 0-2.5 10c0 2.5 1.04 6.46 3.12 11.87l1.25.63V495.42l2.5-.62-.62 16.87 1.87 4.38 1.25-6.88 2.5.63-.62 14.37c1.25-.41 3.54-.62 6.87-.62h3.75c4.17 0 6.46-.2 6.88-.63.83-.83 2.08-3.74 3.75-8.75.41-2.91 2.29-6.04 5.62-9.37l13.75-14.38c-.83.84-1.46 1.25-1.87 1.25-1.25 0 0-3.95 3.75-11.87l2.5-3.75 2.5-3.75-3.75 1.87h-2.5l2.5-6.25 3.12-6.25c2.08-5 3.12-10.2 3.13-15.62 0-3.33-1.05-9.17-3.13-17.5.42 1.25.2 2.08-.62 2.5-.84.42-2.3.83-4.38 1.25-1.67.42-3.75 1.46-6.25 3.12-2.08 1.25-4.38 3.34-6.87 6.25-2.09 2.5-3.76 3.76-5 3.75l-2.5-4.37c-12.09 12.08-18.34 21.46-18.75 28.12 0 4.59-.63 6.88-1.88 6.88-1.67 0-2.5-.83-2.5-2.5l.63-3.13c.41-4.16.62-7.29.62-9.37l.63-3.13c2.5-3.33 3.95-5.2 4.37-5.62l16.88-28.75c1.25-1.25 2.29-5.62 3.12-13.13l-6.87 1.25v-2.5c.83-.83 2.29-2.08 4.37-3.75a62.75 62.75 0 0 0 7.5-7.5c1.67-1.66 2.5-3.33 2.5-5v-11.25l.63-2.5-9.38 1.25-8.12 8.13-2.5-.63-.63-7.5-6.87 3.75c-7.09 10-11.25 17.71-12.5 23.13l-2.5-7.5c1.25-10.83 5.83-22.08 13.75-33.75 7.91-12.92 11.87-24.17 11.87-33.75 0-2.92-.62-6.04-1.87-9.38l.62-3.12c0-2.08-1.04-3.12-3.12-3.13l-5.63 9.38c-.42.42-.83.62-1.25.62-1.25 0-1.88-.62-1.87-1.87 0-1.67 1.04-3.54 3.12-5.63 2.08-2.08 5-7.5 8.75-16.25l1.25-6.87c.42-2.08.63-3.75.63-5 .41-1.67.62-2.92.62-3.75l-.62-5.63-3.13-12.5c-.83.84-1.67 2.5-2.5 5-.83 2.5-1.67 3.76-2.5 3.75-.83 0-1.25-.41-1.25-1.25 0-.83.42-2.08 1.25-3.75.83-2.08 1.25-3.74 1.25-5l-1.25-6.25-3.12-11.87-1.25-6.25-3.13-6.25m258.12 4.37 3.75 1.88c1.25.42 2.3.83 3.13 1.25 4.16 1.67 9.58 5 16.25 10-4.59-2.5-8.76-4.58-12.5-6.25-3.76-2.08-10.42-3.96-20-5.63l-14.38 2.5-1.88 1.25h8.13c8.33 0 14.58 1.46 18.75 4.38-8.33-2.08-15-3.12-20-3.13-6.25 0-11.25.84-15 2.5-9.58 2.5-16.46 5.84-20.63 10l-1.24.63-1.88 2.5-3.13.62.63 1.25-10 5.63-5 5-5 4.37-3.13 5 1.88.63-1.25.62-1.88 3.13-6.24 4.37-3.13 6.88 15-6.25 21.88-6.25a14.4 14.4 0 0 1-1.88 3.12l-6.25.63-15 4.37c-4.17.84-7.5 2.5-10 5l-8.75 5.63 1.88-.63a33.18 33.18 0 0 0-5 13.13l5.62-5 4.38-3.13 3.75-3.12 6.87-2.5.63 1.87-5 2.5c3.33-.83 5-1.66 5-2.5l-.63-1.87c.42.42.63 1.04.63 1.87 0 2.09-2.09 3.34-6.25 3.75l-3.75 2.5c-11.25 9.59-16.88 21.05-16.88 34.38 1.67-2.08 2.7-3.96 3.13-5.63 10-18.33 21.87-27.5 35.62-27.5 2.92 0 4.8.21 5.63.63l23.12 7.5c2.08.42 3.96.83 5.63 1.25h5.62c6.25 0 9.37-1.25 9.38-3.75 0-2.5-1.46-5.2-4.38-8.13l6.88 1.88 3.12 3.75c1.67 1.67 7.08 3.13 16.25 4.37 1.67 0 3.54.21 5.63.63 2.08 0 4.58.2 7.5.62-.42.42-.63-3.74-.63-12.5 0-12.5-2.7-20.83-8.13-25a16.7 16.7 0 0 0-4.37-3.12 16.7 16.7 0 0 0-4.38-3.13h1.26l-1.25-1.87 3.75-5.63-8.13-5-8.13-1.25a16.3 16.3 0 0 0-5-.62h-3.12c-3.75 0-8.13.83-13.13 2.5h-4.37 2.5c-8.33 1.25-11.88 1.88-10.63 1.87-1.24 0-1.87-.41-1.87-1.25 0-1.25 1.67-2.91 5-5 11.67-4.58 20.83-6.87 27.5-6.87 7.92 0 16.04 2.3 24.38 6.87 1.66.42 3.54 1.46 5.62 3.13l4.38 3.12 3.12 3.13-3.75-10-6.25-6.25-2.5-2.5-1.88-1.88c3.75 1.25 6.46 3.34 8.13 6.25l5 5a13.96 13.96 0 0 1 1.88 5 75.03 75.03 0 0 1 2.5 5.63v3.12c0 1.67.2 3.13.62 4.38 0 1.67.63 5.2 1.88 10.62l.62 2.5 1.88 5.63 3.12 5.62c.42 3.76 1.67 5.63 3.75 5.63s4.17-1.67 6.25-5 3.33-5 3.75-5c.83 0 1.67.42 2.5 1.25.42.83.63 2.3.63 4.37 0 .84-1.25 5-3.75 12.5-.84 3.34-1.25 5.21-1.25 5.63 0 4.17 2.29 9.8 6.87 16.87l3.75 5.63 1.88 7.5c18.33-8.33 28.33-20.42 30-36.25 5.83 0 8.74-.83 8.75-2.5 0-1.67-.21-2.92-.63-3.75l-.63-6.88v-3.75c.84-11.25-3.33-20.83-12.5-28.75l-5-5.62-1.87-3.75 5 2.5 9.38 8.12 7.5 10.63 3.12 6.25 1.88 6.25 1.87 7.5c1.25 4.58 1.87 10.42 1.88 17.5 0 7.08-.63 12.08-1.88 15l-1.88 6.87-1.87 7.5c4.17-2.91 7.08-9.58 8.75-20h1.88l.62 5 1.88-4.37.62-9.38 1.88-1.25v-4.37l.62-7.5v-3.13c.42-4.16-3.54-11.04-11.88-20.62l-2.5-5-5.62-5-3.13-4.38-4.37-3.12-5-5-3.75-2.5-3.75-3.13-3.13-2.5a27.75 27.75 0 0 0-11.87-5l-1.88-1.25v-.62l-3.74-.63-2.5-1.25v3.75c-1.67 0-2.92-.2-3.75-.62a4.1 4.1 0 0 0-1.88-1.88 7.09 7.09 0 0 0-2.5-2.5c-1.25-.83-3.13-1.45-5.63-1.87l-6.87-.63 3.75 3.75 1.88.63 6.87 5 1.88 1.87 4.37 6.25 1.88 3.13-6.25-3.75a68.45 68.45 0 0 0-5.63-5 75.8 75.8 0 0 1-6.25-5.63l-3.13-1.87-1.87-1.88-6.25-3.12-5-1.88-13.75-.62-3.75.62m-251.88 3.13 1.88 1.87-.63-5.62-2.5-.63 1.25 4.38m68.75 1.25-3.12 3.12-1.25.63v1.87c5.83-3.33 9.79-5 11.87-5 1.67 0 4.17 1.05 7.5 3.13l.63 2.5v.62c0 1.67.41 2.5 1.25 2.5 2.91 0 4.37-2.08 4.37-6.25 0-4.16-1.67-6.66-5-7.5a8.72 8.72 0 0 0-3.75-.62c-2.5 0-6.67 1.67-12.5 5m-63.75.62-.62 3.13-.63 14.37.63 3.75 2.5-1.87 1.87 2.5h1.25l-.62-9.38c0-2.91-1.46-7.08-4.38-12.5m322.5 7.5 15 13.13 10 10.62c4.17 2.92 7.92 4.38 11.25 4.38 7.92 0 11.88-3.33 11.88-10 0-4.58-3.13-7.92-9.38-10 1.67 1.67 2.5 3.33 2.5 5 0 .83-1.04 2.92-3.13 6.25l-4.37.62c-2.92 0-8.54-3.54-16.88-10.62l-2.5-1.25c-4.58-4.58-9.37-7.3-14.37-8.13m-265 3.75h-4.37l-17.5 11.25-4.38 6.25-4.37 3.13-7.5 14.37-3.13 5.63-.62 6.25-.63 1.87 2.5-.62c.42-1.25 1.04-2.7 1.88-4.38l2.5-6.25 6.87-10c7.08-9.58 16.88-14.37 29.38-14.37 5 0 9.58 2.08 13.75 6.25h1.25l-.63 1.25a4.2 4.2 0 0 1 1.88 3.75v2.5c-1.67 5.42-5.42 8.13-11.25 8.12-1.67 0-2.92-.41-3.75-1.25l-11.88-5.62h-1.87c-5 0-7.5 2.3-7.5 6.87 0 2.5 1.45 3.96 4.37 4.38.83-4.58 2.5-6.87 5-6.88.42 0 3.54 1.67 9.38 5 5.41 2.92 9.79 4.38 13.12 4.38 4.17 0 7.7-1.67 10.63-5 3.33-3.33 5-7.3 5-11.88 0-2.5-.84-5.2-2.5-8.12l-4.38-3.75-1.25-1.88c3.33-1.25 5-2.5 5-3.75 0-2.5-2.5-4.37-7.5-5.62-.42-.42-1.25-.63-2.5-.63s-2.08-.2-2.5-.62c-7.08-1.67-11.04-2.08-11.87-1.25l-.63.62m336.88 5.63v3.75l1.88 3.75 4.37 11.25 1.88 5.62c.41.84.83 3.34 1.25 7.5.83 4.17 2.08 9.8 3.75 16.88l.62 3.75.63 10v8.75c.41 9.58-.84 19.58-3.75 30l-1.25 3.75c0 3.33-.21 5.63-.63 6.87 7.08 2.92 11.04 4.38 11.88 4.38.83 0 1.25-1.67 1.25-5 .41-1.67 1.04-5.42 1.87-11.25 1.25-6.25 1.67-12.3 1.25-18.13v-7.5c-2.5-41.66-10.83-66.45-25-74.37m15 6.87v4.38c2.92 6.25 6.04 9.38 9.38 9.37 4.16 0 6.24-2.5 6.25-7.5l-.63-1.87c-2.92 1.67-5 2.5-6.25 2.5-2.08 0-4.58-2.08-7.5-6.25l-1.25-.63m-16.25 5v9.38c4.17 10 6.25 18.54 6.25 25.62 0 12.09-3.13 19.59-9.38 22.5l-6.25.63-4.37-1.88c-2.08-5.41-3.13-8.74-3.13-10 0-3.74 2.71-5.62 8.13-5.62 2.08 0 4.17 1.67 6.25 5 .42-1.67.63-2.92.63-3.75.41-1.25.62-2.3.62-3.13 0-3.74-1.46-5.62-4.38-5.62-11.66.83-17.08 6.25-16.25 16.25l.63 8.12 2.5 6.88c1.67 2.5 4.17 3.75 7.5 3.75h1.88v9.37l-.63 1.88c0 1.67.83 2.5 2.5 2.5l1.88-.63 1.87-1.87c1.25-.83 2.7-2.08 4.38-3.75l7.5-6.88c2.5-2.91 3.74-9.16 3.75-18.75 0-17.91-3.96-34.58-11.88-50m-427.5 5.63v1.87l-1.25 1.25-.62 1.25.62 9.38c0 3.75 1.04 6.04 3.13 6.87v-6.87c-.84-7.08 1.25-10.63 6.25-10.63 2.08 0 3.74 1.46 5 4.38v5.62c0 8.34-1.46 18.55-4.38 30.63-.83 4.17-1.25 6.04-1.25 5.62l-2.5 14.38-1.25 4.37.63 9.38 1.25.62 8.75-46.87 2.5-8.75c.83-4.17 1.25-7.08 1.25-8.75v-6.88c0-9.16-3.13-13.75-9.38-13.75h-1.25l-7.5 6.88m176.88.62-3.13 2.5v3.75c1.67-1.25 3.13-1.87 4.38-1.87s2.08.2 2.5.62c1.25 3.34 1.87 5.42 1.88 6.25 0-2.08-.42-2.08-1.25 0-.42 1.67-1.05 5.42-1.88 11.25h-.63l-3.12 11.88v7.5l2.5-6.25 1.88-5.63 8.75-20c.41-.41.62-1.45.62-3.12 0-6.25-2.5-9.37-7.5-9.38-2.08 0-3.75.84-5 2.5m124.38 13.13-.63.62v3.13l2.5 2.5c.42-1.25.63-2.08.63-2.5l.63-1.25c0-.83-1.05-1.67-3.13-2.5m-238.75 1.25c-2.5 1.25-4.38 3.54-5.62 6.87a76.74 76.74 0 0 1 7.5-2.5l3.12-1.25c0-2.08-1.67-3.12-5-3.12m-5 11.25a28.29 28.29 0 0 0-10 8.13l-1.25 5c10.83-9.59 20.63-14.38 29.38-14.38 4.16 0 9.79 2.92 16.87 8.75-1.67-7.92-7.92-11.88-18.75-11.88-5.42 0-10.83 1.46-16.25 4.38m245-1.25v3.75c2.5.83 3.54 1.25 3.13 1.25 2.08 0 3.12-1.04 3.12-3.13 0-2.5-1.46-3.74-4.38-3.75h-.62l-1.25 1.88m-199.38 0c-3.75 2.08-5.63 3.96-5.63 5.62 0 3.76 1.88 5.63 5.63 5.63 3.33 0 5-2.08 5-6.25 0-2.5-1.67-4.17-5-5m-36.88 5.62-5.62 1.25c-.42.84-.62 2.3-.62 4.38 0 1.25.83 1.88 2.5 1.87 1.66 0 2.91-2.5 3.75-7.5m331.25 2.5c.41 1.25.62 3.34.62 6.25 0 12.92-4.8 23.55-14.38 31.88-7.91 4.17-14.58 6.25-20 6.25h-6.87l-8.13-.63h-3.12c-.83 0-1.25.63-1.25 1.88 0 2.92.2 4.8.63 5.62-.84.42-1.46.84-1.88 1.25h-.63l-2.5-1.25a14.59 14.59 0 0 0-3.75-2.5c-1.25-.41-5.62-1.04-13.12-1.87-.83-.42-2.7-.63-5.63-.63-2.08 0-3.12.63-3.12 1.88 0 .42.42 1.04 1.25 1.87l3.75 8.13 1.88 3.75a13.9 13.9 0 0 0 1.87 5c1.25 1.25 3.54 3.96 6.88 8.12 2.5 1.25 4.16 3.55 5 6.88-8.34.83-12.5 1.88-12.5 3.12 0 1.25.83 2.71 2.5 4.38 2.08 1.25 4.37 2.5 6.87 3.75 2.92.83 5.62 1.67 8.13 2.5 2.91.42 5.41.62 7.5.62 4.16 0 9.37-.62 15.62-1.87l1.25.62-1.88.63h.63l-3.13.62a74.85 74.85 0 0 0-5.62 2.5 74.12 74.12 0 0 1-5.63 2.5l-15.62 1.88c5 2.5 9.8 3.75 14.38 3.75 13.75 0 26.87-9.17 39.37-27.5l-2.5-1.25 2.5-10 5-3.13c2.92-1.66 4.37-5.41 4.38-11.25l-2.5 3.13-5.63 4.37-4.38 4.38-6.87 3.12-9.38 3.75h-2.5l.63-.62v-1.88c10.83-4.58 18.13-8.12 21.88-10.62 7.91-5.42 12.29-11.46 13.12-18.13a34.28 34.28 0 0 1-4.38 1.88c-1.25 0-2.29.2-3.12.62v-1.25c6.25-3.74 9.37-7.7 9.38-11.87v-1.25l-1.88.62c-.42 2.92-1.46 4.38-3.13 4.38-.83 0-1.45-.63-1.87-1.88 0-.83 1.46-2.5 4.38-5 1.66-1.25 2.5-3.12 2.5-5.62 0-5.42-1.67-12.7-5-21.88m-94.38 0-1.25 1.25c-.42.84-.63 2.5-.63 5s1.05 3.76 3.13 3.75h1.25l1.25-3.75c.42-.41.63-1.04.63-1.87 0-1.67-1.46-3.12-4.38-4.38m-220.62 1.88c0 2.5.63 3.75 1.88 3.75 2.08 0 3.12-1.04 3.12-3.13 0-.83-.2-1.25-.62-1.25l-3.75-1.25-.63 1.88m233.75 1.25c-.83 3.33-1.25 4.8-1.25 4.37 0 2.09.83 3.13 2.5 3.13 1.25 0 1.87-.63 1.88-1.88v-6.87h-2.5l-.63 1.25m-263.75 1.25c-.83 2.5-2.08 4.38-3.75 5.62l-.62 5c1.25-2.91 2.91-4.79 5-5.62 2.5-1.25 4.16-2.3 5-3.13v-1.25c0-1.66-.63-2.5-1.88-2.5l-.62.63-3.13 1.25m37.5 5-1.25 2.5c2.92 1.67 5.62 2.5 8.13 2.5 2.91 0 4.37-1.46 4.37-4.38 0-4.16-2.08-6.24-6.25-6.25-4.17 0-5.83 1.25-5 3.75v1.88m113.12-4.38h-1.25l-4.38 1.88c-2.91.42-4.37 2.08-4.37 5-.83 4.58-2.3 6.88-4.38 6.87-.83 0-1.25-1.25-1.25-3.75v-.62l-3.75 6.25c-7.5 12.08-11.25 24.37-11.25 36.87 0 4.59.21 7.5.63 8.75l1.25 4.38 1.25 6.87.63 2.5 1.87 5.63-.63 1.87 1.88.63 2.5-8.75 1.88 1.25v-1.25l-2.5 8.75-.63 7.5 3.75 5.62.63-11.25 3.12-.62-1.88 20 4.38 5 .63-6.88-.63-15.62 1.88-5 3.75-10.63 2.5-5c1.25-2.08 2.7-4.58 4.37-7.5 1.25-2.5 2.7-3.74 4.38-3.75h.62l-3.75 5.63 4.38-6.25-3.13 5.62a32.76 32.76 0 0 0-3.75 5.63 19.47 19.47 0 0 1-1.25 3.75l-3.75 10.62-1.25 6.25c0-.41.42.63 1.25 3.13l.63-1.25-.63 4.37-3.13 10 .63 9.38-.63 3.12c0 1.67 1.05 2.92 3.13 3.75l1.25-2.5c-1.25-1.66-1.88-2.91-1.88-3.75v-.62l.63-3.75c.83-2.92 1.46-4.58 1.88-5l1.25-.63-.63 9.38-1.25 6.25v1.25c.42.83.83 2.08 1.25 3.75l2.5 2.5.63-11.25h2.5v11.25c-.84 2.5 0 4.58 2.5 6.25l1.25 1.87-.63-6.25v-7.5c0-9.58 3.12-17.5 9.38-23.75l13.12-11.25c8.33-8.33 12.5-16.25 12.5-23.75l-.63-1.25-.62-1.25-8.13-1.87 4.38-5 10-11.25 5.63-11.25a22.06 22.06 0 0 0 1.87-8.75c0-2.08-3.54-3.54-10.63-4.38a9.14 9.14 0 0 1-5.62-1.87l-7.5-1.88-3.75 1.25h-1.88l-3.75 5h-1.87l3.13-2.5-3.13 1.25-1.25-5.62c-.83-2.5-1.67-3.75-2.5-3.75-2.5 0-7.7 4.58-15.63 13.75l.63-.63c-3.33 3.34-5.83 7.71-7.5 13.13l-2.5 6.25-.63 6.25-1.25 5.62-2.5 1.25c1.25-.41 2.3-1.45 3.13-3.12l-3.13 1.87c-.41-1.25-.62-3.74-.62-7.5 0-10.41 5.42-25.41 16.25-45m-135.62 2.5c-6.67 1.67-12.08 4.8-16.25 9.38-3.75 4.17-6.46 7.5-8.12 10-.84.83-1.67 2.3-2.5 4.37-.84 1.67-2.09 3.96-3.75 6.88l-20 35 1.87 1.87c5.42-7.08 11.67-11.04 18.75-11.87l.63 5.62c2.91-16.66 8.54-27.91 16.87-33.75l6.88-5c1.25-1.25 4.16-1.87 8.75-1.87 4.58 0 8.74 2.3 12.5 6.87 2.91-.41 4.37-1.87 4.37-4.37v-.63c0-2.08-.62-5-1.87-8.75l-3.13-1.87-5.62-1.88-1.25 3.13h-.63l-.62-.63c2.91-5.83 4.37-10 4.37-12.5 0-1.25-1.04-1.87-3.12-1.87l-2.5.62-5.63 1.25m36.88 6.25c4.16 0 6.24-1.66 6.25-5l-1.25-1.25-3.75-.62-1.25 6.87m160-3.12h-1.25a8.7 8.7 0 0 0-.63 3.75c0 2.08 1.25 3.13 3.75 3.12 3.75 0 5.62-1.25 5.63-3.75 0-2.08-1.46-3.12-4.38-3.12h-3.13m-182.5 3.75c2.5.83 3.55 1.25 3.13 1.25 1.67 0 2.5-.83 2.5-2.5 0-2.08-1.04-3.12-3.12-3.13-2.09 0-2.92.84-2.5 2.5v1.88m229.38-2.5c-1.67 0-2.5 1.04-2.5 3.12 0 4.59 1.87 6.88 5.62 6.88 1.25 0 1.87-.83 1.88-2.5 0-5.42-1.46-7.92-4.38-7.5h-.63m-26.25 5c1.67 1.67 2.92 2.5 3.75 2.5 2.09 0 3.13-1.04 3.13-3.13 0-2.08-1.25-3.12-3.75-3.12-2.08 0-3.13.83-3.13 2.5v1.25m91.25-2.5h-.62c-.83 0-1.67.42-2.5 1.25v1.25h-.63c0 4.17 1.46 6.25 4.38 6.25 2.08 0 3.12-1.87 3.13-5.63 0-2.08-1.25-3.12-3.75-3.12m-125.63-.63-.62 1.25.63 3.13 1.25.62 1.87.63 1.88-.63h2.5v-1.25c0-1.66-2.5-2.91-7.5-3.75m47.5.63c-1.67 0-2.5 1.04-2.5 3.12 0 2.92 1.66 4.38 5 4.38 2.91 0 4.37-1.04 4.37-3.13 0-2.91-2.08-4.37-6.25-4.37h-.63m-21.87 2.5c-1.25 2.08-1.88 3.33-1.88 3.75 0 2.92 1.67 4.38 5 4.37 1.67 0 2.5-1.45 2.5-4.37 0-3.33-1.04-5-3.12-5h-.63l-1.87 1.25m-185.62 0-1.25 3.12c.42.42 1.46.63 3.13.63.83 0 1.25-.42 1.25-1.25 0-.83-1.05-1.67-3.13-2.5m6.25 3.12c0 2.5 1.04 3.76 3.13 3.75 1.66 0 2.5-.62 2.5-1.87 0-3.33-.84-5-2.5-5-.84 0-1.67.42-2.5 1.25l-.63 1.87m166.88 3.13c-.42.42-.63 1.67-.63 3.75 0 2.5 1.46 3.75 4.38 3.75 3.33 0 5-1.46 5-4.38 0-3.33-1.67-5-5-5h-1.25l-1.25.63-1.25 1.25m-156.88-1.88c-3.33 12.09-5 16.67-5 13.75v1.25c.42.84.83 2.09 1.25 3.75 1.25 5 4.17 7.5 8.75 7.5 4.17 0 7.3-2.91 9.38-8.75l-1.25-1.25c-2.5 2.92-4.8 4.38-6.88 4.38-3.75 0-5.63-3.12-5.63-9.38v-6.25c0-2.08-.2-3.74-.62-5m260.62 1.25c-2.08 2.09-3.13 3.55-3.13 4.38 0 .83.21 1.88.63 3.12.83 1.25 1.67 1.88 2.5 1.88 3.33 0 5-2.08 5-6.25 0-1.25-1.67-2.3-5-3.13m-46.88 1.25 1.25.63h-.62c-2.5-.42-3.75.83-3.75 3.75 0 3.33 1.67 5 5 5 2.08 0 3.12-1.04 3.13-3.13 0-2.08-1.67-4.16-5-6.25m-21.25 1.25c-.42.42-.63 1.25-.63 2.5 0 1.67.83 2.5 2.5 2.5 2.08 0 3.12-1.04 3.13-3.12 0-.42-1.67-1.04-5-1.88m-12.5 0-.63.63c-.42.42-.63 1.67-.63 3.75 0 1.25 1.05 1.88 3.13 1.87 2.92 0 4.37-1.04 4.38-3.12 0-2.08-1.25-3.12-3.75-3.13h-2.5m-7.5 5h.62l-4.38 1.88c-2.08.83-6.45 3.96-13.12 9.37l-5.63 8.75 2.5 1.25-1.87 1.88-2.5 4.37-1.88.63c-.41 1.67-.83 3.54-1.25 5.62-.41 2.09-.83 4.38-1.25 6.88l13.75-11.88-2.5 2.5a7.33 7.33 0 0 1-1.25 1.88c-5.41 5.42-8.33 10.62-8.75 15.62l.63 3.75 5-8.12 1.25.62c-2.5 6.26-3.75 10.21-3.75 11.88 0 2.08 2.5 5.63 7.5 10.62-1.25-4.16-1.88-7.7-1.88-10.62 0-8.75 4.8-14.8 14.38-18.13l20.63-5.62 3.12-3.75c1.25-1.25 1.87-2.3 1.88-3.13 0-1.25-2.3-2.29-6.88-3.12a96.59 96.59 0 0 1 5-1.88c1.25-.83 2.3-1.45 3.13-1.87l4.37-5.63c1.67-1.66 2.5-2.91 2.5-3.75l2.5-9.37h-2.5l-5 1.25-13.13 1.87-5.62 5 .63-1.87h-1.88l-2.5-5-1.88-1.88m-18.75 1.25-1.87 1.88c.42 2.92 1.04 4.38 1.88 4.37 1.66 0 2.5-1.04 2.5-3.12l-.63-2.5-1.88-.63m144.38.63.63 1.87a555.9 555.9 0 0 1-1.25 9.38c-.42 2.5-.83 4.58-1.25 6.25l-5.63 20.62c-.83 3.34-1.25 5.21-1.25 5.63 0 6.67 3.75 10 11.25 10 4.17 0 7.92-2.3 11.25-6.88 1.25-2.5 1.88-4.79 1.88-6.87 0-1.67-.2-2.7-.63-3.13l-1.25-1.25-3.12 5.63c-3.33 1.25-5.42 1.88-6.25 1.87-.83 0-2.3-1.04-4.38-3.12a68.95 68.95 0 0 0-1.25-7.5v-3.75c0-2.92.63-6.87 1.88-11.88 1.67-5.41 2.5-9.37 2.5-11.87 0-1.25-1.04-2.92-3.13-5m-45.62 1.87c-1.67 0-2.92 1.05-3.75 3.13v.62c0 2.09 1.04 3.13 3.13 3.13 2.5 0 3.74-1.25 3.75-3.75 0-2.08-1.05-3.12-3.13-3.13m10 .63h-.63c-1.25.83-1.87 1.46-1.87 1.87 0 2.5 1.25 3.76 3.75 3.75 2.08 0 3.12-1.04 3.13-3.12 0-1.67-1.46-2.5-4.38-2.5m-45.63 6.25.63 1.25c1.25.42 2.08.83 2.5 1.25h1.25c1.67 0 2.5-1.04 2.5-3.13 0-2.91-1.46-4.37-4.38-4.37-2.5 0-3.33 1.25-2.5 3.75v1.25m-8.75-3.75c-1.66.42-2.5 1.88-2.5 4.37 0 1.67.84 2.5 2.5 2.5 2.92 0 4.38-1.45 4.38-4.37 0-1.67-1.25-2.5-3.75-2.5h-.63m-60 2.5c-1.25 2.08-1.87 3.33-1.87 3.75 0 1.25.42 1.88 1.25 1.87 2.08 0 3.12-.83 3.13-2.5 0-2.08-.84-3.12-2.5-3.12m-194.38 19.37 3.75 12.5 1.87 1.88c.83.42 1.46.83 1.88 1.25 1.66-1.67 2.7-2.92 3.12-3.75-4.17-6.67-6.25-11.04-6.25-13.13l.63-1.25v-1.25l.62-.62 5.63-7.5c.41-.42 1.66-.63 3.75-.63 10 0 18.95 5.21 26.87 15.63l3.75 6.87 1.88 4.38 1.87 5 1.25 2.5 1.25 1.25c2.08 0 3.12-.83 3.13-2.5v-2.5l-1.25-3.13-3.13-8.12c-2.5-7.5-7.5-13.54-15-18.13-7.08-4.58-13.33-6.87-18.75-6.87-11.25 0-16.88 6.04-16.88 18.12m246.88-10 1.88.63c-2.92.42-4.38 2.5-4.38 6.25v.62a8.3 8.3 0 0 0 5 1.88h.63c1.67-1.67 2.5-2.92 2.5-3.75 0-2.92-1.46-4.58-4.38-5l-1.25-.63m-63.12 6.88h1.88c-1.25 0-2.5.62-3.75 1.87.41 2.92 1.45 4.38 3.12 4.38 2.5 0 3.75-1.25 3.75-3.75 0-2.08-.83-3.12-2.5-3.13h-.63l-1.87.63m60 3.12a14.57 14.57 0 0 1-2.5 3.75l-.63 1.25c0 1.67 1.05 2.5 3.13 2.5 1.67 0 2.5-.62 2.5-1.87 0-2.08-.83-3.96-2.5-5.63m10 1.88-1.88 2.5c-.41.42-.62 1.25-.62 2.5 0 .83.63 2.08 1.88 3.75 3.33 0 5-.63 5-1.88l-1.25-5-3.13-1.87m114.38 10h4.38c5.41 0 11.66 3.13 18.75 9.37-2.5-9.58-7.92-14.37-16.25-14.37-3.76 0-6.05 1.67-6.88 5m-133.12-3.13c-3.33 2.09-5 3.76-5 5 0 2.5 1.25 3.96 3.75 4.38 3.33-2.08 5-3.96 5-5.63 0-2.91-.83-4.37-2.5-4.37l-.63.62h-.62m97.5.63-4.38 1.87.63 4.38 3.75-6.25m-333.12 19.37a43.22 43.22 0 0 1-1.25 5v2.5c0 7.92 4.8 11.88 14.38 11.88 1.66 0 2.7-.2 3.12-.63l15-3.75 8.13.63.62-1.88c.42-.41.63-1.04.63-1.87 0-2.5-1.88-3.75-5.63-3.75l-21.25 5.62-1.88-1.25-5-1.25c-2.08-.83-3.12-2.29-3.12-4.37 0-5.42 3.96-10 11.88-13.75 7.91-4.17 17.29-6.25 28.12-6.25 0-4.17-1.46-6.25-4.38-6.25h-.62l-11.25 1.87c-4.58.84-7.08 1.46-7.5 1.88l-6.25 4.37-4.38 1.88c-2.5.83-5.62 3.96-9.37 9.37m222.5-17.5c-.83 3.34-1.25 4.8-1.25 4.38 0 1.67 1.04 2.5 3.13 2.5 2.5 0 3.74-1.25 3.75-3.75l-.63-.63v-1.25l-3.13-1.87-1.87.62m21.88 6.25c2.08 2.09 3.54 3.13 4.37 3.13 2.92 0 4.37-1.46 4.38-4.38 0-3.33-1.46-5-4.38-5s-4.38 2.09-4.38 6.25m-186.25-6.87-.62 2.5v.62c0 2.92.83 4.38 2.5 4.38 2.08 0 3.12-1.04 3.13-3.13 0-1.66-1.67-3.12-5-4.37m203.12 3.75-2.5.62v1.88c0 2.92.83 4.38 2.5 4.37 2.91 0 4.37-1.45 4.37-4.37l-.63-.63-.62-1.25-3.13-.62m110.63 1.25-6.25 3.75-5 6.25-8.13 23.12c-2.08 5.42-6.25 8.96-12.5 10.63h-1.88c-7.5 0-11.25-3.96-11.25-11.88 0-2.91 2.3-6.66 6.88-11.25h-4.38c-6.66-.41-10 4.17-10 13.75 0 11.25 5.42 16.88 16.25 16.88 2.09 0 3.34-.2 3.75-.63l6.88-3.12v6.25c10.42-2.92 17.3-9.8 20.63-20.63l3.75-11.87c.41-2.92 2.5-4.37 6.25-4.38 2.5 0 3.74 1.67 3.75 5 0 4.59-3.76 10.63-11.25 18.13l-4.38 5-3.75 5-5.63 12.5c-.41.42-.62 1.25-.62 2.5s1.04 1.88 3.13 1.87c2.08 0 3.54-.2 4.37-.62-.83 2.92-1.46 4.58-1.88 5-2.08 7.08-3.12 10.83-3.12 11.25 0 14.58 6.46 21.87 19.38 21.87 7.91 0 13.54-4.16 16.87-12.5l.63-1.25v-5.62c0-2.08-2.09-6.46-6.25-13.13a9.14 9.14 0 0 1-1.88-5.62c0-1.25.42-2.3 1.25-3.13l10 .63-1.25-3.13-3.13-3.12c-.83-.42-2.29-.63-4.37-.63-5 0-7.5 2.92-7.5 8.75 0 2.5.83 5.21 2.5 8.13l3.13 11.25v5.62l-.63 1.88-.63.62-5 .63-6.25-1.25-2.5-5a22.22 22.22 0 0 1-1.87-5.63 46.22 46.22 0 0 1 1.88-9.37c.83-2.5 1.66-4.58 2.5-6.25l8.75-13.75a57.93 57.93 0 0 0 8.75-30.63c0-5.41-2.09-10.83-6.25-16.25a15.02 15.02 0 0 0-8.13-5l-5.63-.62m-158.75 10.62v-1.87c2.92-1.67 4.38-3.33 4.38-5 0-2.5-1.04-3.75-3.13-3.75-3.33 0-5 1.88-5 5.62 0 1.67 1.25 3.34 3.75 5m16.25-6.25.63 8.13.63 1.25 2.5 4.37 1.25 3.13-.63-1.88c-.83.84-1.46 1.25-1.88 1.25-.41 0-1.66-1.04-3.75-3.12l-3.12-1.88-5-1.25-10-2.5-5.63-3.12c-.41.83-.62 2.3-.62 4.37 0 2.09.63 3.96 1.88 5.63v1.25l1.25 3.12 1.87 3.75h-2.5l.63.63c-3.76.83-6.46 2.7-8.13 5.62l3.13 1.25 2.5 1.25c.83 0 2.08.42 3.75 1.25 8.74 3.34 13.33 5.21 13.75 5.63 1.66.42 3.54.83 5.62 1.25 2.5.42 5.2 1.04 8.13 1.87l.62-3.12c5 2.5 9.37 3.75 13.13 3.75h2.5c1.25-.42 2.91-.83 5-1.25l-10-3.13-1.25-.62-6.88-3.13-2.5-1.87h-1.25l-3.13-2.5 1.25.62-1.25-1.25 1.25-.62a422.2 422.2 0 0 1 7.5 4.37 35.7 35.7 0 0 0 6.25 1.88c11.67 3.75 18.96 5.63 21.88 5.62 2.08 0 5.42-.62 10-1.87l1.25-1.25-8.75-1.25-7.5-3.13-.63-2.5c7.09 2.92 13.75 4.38 20 4.38 3.75 0 7.92-1.67 12.5-5l-8.12.62c-2.08 0-6.67-1.04-13.75-3.12l-4.38-1.88-3.12-.62-8.13-5-3.12-3.13-2.5-1.87v-1.25l-4.38-5-3.75-3.13c-2.5-1.25-6.04-2.29-10.62-3.12l-1.25-.63-3.13-1.25m-7.5 1.88c-.83 0-1.45.62-1.87 1.87v.63c0 1.25.83 1.88 2.5 1.87 1.25 0 1.87-.83 1.88-2.5 0-1.25-.63-1.87-1.88-1.87h-.63m31.25.62H480c-.42 0-.83.63-1.25 1.88l-.63 1.25c0 1.67.84 2.5 2.5 2.5 2.5 0 3.75-1.25 3.75-3.75 0-1.25-1.25-1.87-3.75-1.88m-235 3.75c10.42 4.59 17.3 6.88 20.63 6.88 15.83 0 23.75-2.08 23.75-6.25 0-1.67-.63-2.5-1.88-2.5h-.62a238.7 238.7 0 0 0-6.88 2.5c-3.33 1.25-6.25 1.88-8.75 1.87-2.5 0-4.16-.2-5-.62l-18.75-5.63c-1.66 0-2.5.63-2.5 1.88v1.87m240 4.38c-.41.42-.62 1.46-.62 3.12 0 1.67.83 2.5 2.5 2.5s2.5-.83 2.5-2.5v-1.87l-4.38-1.25m-206.88 18.12-3.12 8.13a99.7 99.7 0 0 1-3.13 4.37 40.92 40.92 0 0 0-2.5 4.38l-3.12 5-6.88 11.25-2.5 3.12v.63c0 2.08 1.25 3.13 3.75 3.12h.63l6.88-12.5 10.62-15.62c.83-2.08 1.87-4.58 3.13-7.5a54.2 54.2 0 0 0 3.12-10.63l1.25-6.87-1.25-.63c-2.5 0-4.17 1.67-5 5a65.74 65.74 0 0 1-1.88 8.75m121.88-6.25a25.23 25.23 0 0 0-8.12 8.13l-.63 11.25h-3.12c-.83 0-1.67 1.04-2.5 3.12a26.85 26.85 0 0 0-.63 5c0 1.25.63 3.13 1.88 5.63l.63 1.87 3.75 8.75 1.25 1.88 1.87 2.5 5.63 6.87c7.91 7.5 13.95 11.25 18.12 11.25l2.5-.62 13.13-1.88 11.25 5 1.25 1.88c.41 1.25.62 2.3.62 3.12l.63.63c0 2.08-1.46 3.13-4.38 3.12h-.63l-8.12-1.25h-5 3.13-5c-1.67-.41-4.38.42-8.13 2.5-3.75 1.67-5.63 3.34-5.63 5 0 2.09 4.17 3.13 12.5 3.13h1.25c2.5 0 8.75.62 18.75 1.87 1.25.42 5.21.63 11.88.63 20 0 38.54-3.33 55.63-10l16.25-6.25 3.75-1.25 9.37-4.38 13.13-7.5c11.66-5.83 18.95-15.83 21.87-30-2.92.84-5.2 2.09-6.88 3.75L565 454.8l-6.88 5.62-7.5 4.38-6.25 3.12c-2.5 1.25-5.83 2.71-10 4.38-3.33 1.25-7.08 2.5-11.25 3.75-10.83 3.75-24.16 5.63-40 5.62-17.08 0-30.83-2.5-41.25-7.5l-10.62-5.62-.63-1.25-4.37-2.5-1.25-.63-14.38-13.12-3.12-4.38a20.74 20.74 0 0 1-1.88-8.12c0-5.42 2.3-8.12 6.88-8.13 2.08 0 4.58.84 7.5 2.5l3.13 3.13h1.25v-5c.41-11.25-5.21-16.88-16.88-16.88l-1.88.63-5 .62M345 419.8l-.63 1.25c-1.66 2.92-2.5 5.42-2.5 7.5 0 3.33 2.71 6.88 8.13 10.62 1.67 1.67 3.96 2.5 6.88 2.5h.62l-3.75-5c-1.25-1.66-2.7-3.54-4.38-5.62-.41-.42-.62-1.67-.62-3.75v-6.88l-3.75-.62m-58.75 8.75c21.67.42 43.13 7.3 64.38 20.62l3.75 2.5a7.86 7.86 0 0 1 3.12 1.88c7.08 5.83 12.5 10.2 16.25 13.12 4.17 2.5 6.67 3.96 7.5 4.38.83 0 1.46.2 1.88.62 2.5 0 4.16-.62 5-1.87l-6.88-5-12.5-8.75-3.13-3.13-11.25-7.5-10.62-6.25-6.25-3.12-5.63-2.5-6.25-2.5-5.62-2.5-6.25-1.25-6.25-1.88-13.13-1.87h-6.25l-1.87 5m-41.88 24.37.63 2.5.63 2.5c2.91 9.17 8.54 13.75 16.87 13.75h2.5c.42-.41 1.67-.62 3.75-.62 2.5 0 4.37-.2 5.63-.63l8.12 5c2.08 3.34 3.12 6.05 3.13 8.13 0 14.58-4.8 21.87-14.38 21.87-7.08 0-12.5-5-16.25-15l-.63-3.12-.62-1.25v-.63c0-1.66.42-3.33 1.25-5 .83-2.08 1.25-3.74 1.25-5 0-1.66-.83-2.5-2.5-2.5-2.92 0-4.38 3.55-4.38 10.63 0 6.67 1.46 12.08 4.38 16.25 5 7.92 10.2 11.87 15.63 11.87.83 0 1.87-.41 3.12-1.25 1.25-1.25 2.08-1.87 2.5-1.87l4.38-1.25 3.75-3.13c5-6.24 7.5-12.91 7.5-20 0-15-4.59-22.5-13.75-22.5-1.67 0-2.71.21-3.13.63l-9.38 3.12c-.41.42-1.45.63-3.12.63-7.92 0-11.88-4.37-11.88-13.13 0-11.25 7.09-18.75 21.25-22.5 2.5-1.66 3.75-3.33 3.75-5 0-.83-.83-1.25-2.5-1.25-1.25 0-3.12.63-5.62 1.88-.42 0-1.88.62-4.38 1.87-10 4.17-15.83 12.5-17.5 25m136.88-26.87-3.12 10v10l1.88 6.25 1.25 1.87.62 1.25 1.25 2.5 5 5.63c2.5 2.5 4.37 3.96 5.63 4.37L390 462.3l-1.88-4.38-5-11.25v-16.25l-1.88-4.37m184.38 18.75-.62-1.25-5.63 1.25-9.37 3.75c-2.5.83-4.17 1.25-5 1.25-6.67 0-10-2.3-10-6.88 0-2.91 2.08-5.83 6.25-8.75-1.67-1.66-3.33-2.5-5-2.5-5.83 0-8.75 2.92-8.75 8.75 0 9.17 4.8 13.75 14.38 13.75 6.24 0 14.16-3.12 23.75-9.37m-271.25-12.5v77.5c0 11.67-.84 18.96-2.5 21.87-2.09 5.84-7.5 10.84-16.25 15-6.67 4.17-11.67 6.46-15 6.88-5.84 2.08-8.76 4.17-8.75 6.25 0 1.67 4.58 2.5 13.75 2.5l156.88-.63-1.25-2.5-5-7.5v-3.12c0-1.67 1.25-3.75 3.75-6.25l-63.75.63-8.75-3.75-2.5-1.25c-7.92-4.17-12.92-10-15-17.5-.42-2.09-.84-5-1.25-8.75v-15.63l.62-14.38v-40l-1.88-1.25-5.62-1.87-2.5-.63-25-5.62m195.62 21.87-9.38-2.5a35.54 35.54 0 0 0 9.38 16.25l3.75 3.13c5.42 2.92 10.83 4.38 16.25 4.37 20.83 0 40.42-9.37 58.75-28.12l-10 5.62-5 3.75-13.13 6.88a44.11 44.11 0 0 1-17.5 3.75c-4.16 0-8.95-.83-14.37-2.5l-3.75-.63c-4.58-4.58-6.88-8.33-6.88-11.25 0-7.08 3.13-10.62 9.38-10.62l1.25.62 10 3.75-2.5-5.62-8.75-4.38h-4.38c-10 0-14.58 4.17-13.75 12.5l.63 5m-282.5-18.75-1.88 3.13-3.12 5.62h1.88c3.33-2.08 5-3.54 5-4.37 0-.83-.63-2.3-1.88-4.38m228.75 10.63c-2.08 5-3.13 7.7-3.13 8.12 0 12.5 6.46 18.75 19.38 18.75 6.25 0 10.83-2.7 13.75-8.12.42-.42.63-1.04.63-1.88l-1.25-1.25c-3.34 2.5-5.84 3.76-7.5 3.75-2.09 0-4.8-.83-8.13-2.5-3.33-1.66-5-4.37-5-8.12 0-5.83 4.17-9.37 12.5-10.63l28.75-4.37 3.75-2.5h-7.5l-5 .62-26.25-.62c-4.17-.42-9.17 2.5-15 8.75m-104.38-3.13.63 34.38v3.75c0 2.5-.21 4.38-.63 5.62v10c0 10.84.83 19.38 2.5 25.63l3.13 6.25 2.5 1.88 1.25-.63c-3.34-7.5-5-14.17-5-20v-.63l.62-11.87v-8.13l.63-6.87-.63-36.88-5-2.5m247.5 15.63c-2.92 1.67-6.04 5.2-9.38 10.62l-5 4.38-7.5 7.5c-8.75 5.42-16.04 13.75-21.87 25-5 8.75-7.5 15-7.5 18.75 0 1.25.42 1.88 1.25 1.88 1.67 0 2.7-.42 3.13-1.25.83-1.25 2.29-5 4.37-11.25.83-.84 2.3-3.34 4.38-7.5l5-8.13a6261.09 6261.09 0 0 1 21.88-19.38l4.37-4.37a16.7 16.7 0 0 0 3.12-4.38l3.13-3.75 3.75-5v-1.87c0-.83-.63-1.25-1.88-1.25h-1.25m-237.5 13.12a8.11 8.11 0 0 0 7.5 4.38c-.83-3.33-1.25-5.42-1.25-6.25 0-2.92 2.08-4.37 6.25-4.38h1.88l8.12 3.13h5.63l-5-3.13-5-3.75a19.72 19.72 0 0 0-10.63-3.12c-5.83 0-8.54 2.7-8.13 8.12l.63 5m39.38 1.88-9.38 1.25c-5 .83-9.38 2.7-13.13 5.62-3.75 2.5-5.62 4.17-5.62 5 0 2.5 3.12 3.76 9.38 3.75l.62 1.88.63-1.25-.63 1.87c-4.17.42-7.3 2.09-9.38 5l-1.87 3.13c-1.25 3.33-1.88 5.83-1.88 7.5v3.12c2.09 7.09 7.5 11.46 16.25 13.13a43.25 43.25 0 0 0-1.25-5v-3.75c0-3.33 1.05-6.67 3.13-10 4.58-5.42 9.17-8.33 13.75-8.75l13.13-1.25 10-6.88 5-3.12v-1.88h-.63l-.63-.62-1.25-.63-3.12-.62-1.88-1.88-5-1.87-6.25-2.5-3.75-.63-6.25-.62m167.5 9.37-8.12 4.38-30 12.5-9.38 2.5-3.75 1.87-5 1.25c-5.83 5-8.75 9.59-8.75 13.75 0 8.34 4.59 12.5 13.75 12.5 4.59 0 7.09-1.45 7.5-4.37-6.66-1.25-10-4.58-10-10 0-4.58 4.38-8.54 13.13-11.88 8.33-3.33 15-5.83 20-7.5 5-2.08 7.92-3.33 8.75-3.75.83-.83 2.3-1.87 4.38-3.12 2.08-1.67 4.79-3.96 8.12-6.88l-.63-1.25m-136.25 6.25c-2.91.84-6.45 2.71-10.62 5.63l-4.38 3.12-11.87 13.75.63.63c-2.09 2.5-3.34 5.83-3.75 10 0 1.25-.42 3.54-1.25 6.88-.84 2.91-1.25 5.2-1.25 6.87 0 1.25.2 1.88.62 1.88l3.75 1.25 4.38-20.63 4.37-7.5c.83-2.08 3.54-4.8 8.13-8.13l-4.38 6.25v1.25c-2.92 4.17-4.38 8.55-4.38 13.13 0 1.67.84 2.7 2.5 3.13 2.92 5 6.25 7.5 10 7.5 7.92 0 11.88-3.75 11.88-11.25 0-2.09-1.25-4.17-3.75-6.25-.42 5-3.33 7.7-8.75 8.12l-2.5-.63a7.77 7.77 0 0 1-2.5-5.62c0-6.25 3.75-12.92 11.25-20l-1.25-1.88-3.75 3.13-1.88 1.87v-1.87c0-.42.42-1.04 1.25-1.88l5.63-1.87 11.88-6.25c3.33-.83 5.62-1.25 6.87-1.25h10.63c.83 0 1.25-.63 1.25-1.88 0-2.08-3.34-3.12-10-3.12-5.84 0-12.09 1.88-18.75 5.62m143.12 20c-3.76 6.26-9.38 11.67-16.88 16.25-2.5 2.09-4.58 3.34-6.25 3.75-12.5 7.5-29.8 11.88-51.88 13.13h-4.37v19.38h6.25l33.75-1.25c-1.25 0-.63.2 1.88.62 2.91 0 7.91.2 15 .63h2.5c6.24.83 10-2.92 11.25-11.25 1.25-6.67 2.7-10 4.37-10l6.88-12.5L570 502.3c1.67-2.92 2.5-5.2 2.5-6.88 0-2.5-1.04-3.74-3.13-3.75-1.66 0-3.12 1.05-4.37 3.13l-3.13 6.25c-1.66 1.67-3.75 4.38-6.25 8.12m18.75-14.37c-.41 2.5-2.08 7.3-5 14.37a567.35 567.35 0 0 1-13.12 28.75c-2.5 4.17-3.96 7.09-4.38 8.75-2.08 5-3.75 8.75-5 11.25a55.7 55.7 0 0 1-3.12 5.63c-.42.83-1.04 1.25-1.88 1.25-.41-.42-1.25-.63-2.5-.63h-7.5l-57.5-.62-2.5 5.63 75-.63L575 509.8a17.51 17.51 0 0 0 2.5-8.75c0-.83-1.04-2.92-3.13-6.25m11.88 8.75c-.42.83-.63 2.3-.63 4.37-2.5 7.5-3.75 11.88-3.75 13.13 0 2.08.21 3.75.63 5v6.88-1.25H580c-3.33 0-6.46 1.45-9.38 4.37v.63l-3.75 10 5-1.25c.42 0 3.55 1.66 9.38 5l3.13 3.75a19.8 19.8 0 0 1 2.5 10c0 5.83-4.17 11.66-12.5 17.5l8.12-2.5 4.38-5.63c.41-1.25 1.25-1.88 2.5-1.88l1.25 1.25c0 1.25-.84 2.71-2.5 4.38l1.87.63c2.92-3.75 4.8-8.55 5.63-14.38h3.12l-1.25 10c3.75-1.67 5.62-5.83 5.63-12.5 0-8.33-1.46-15.42-4.38-21.25h2.5l3.75 5.63v3.12c1.25 4.58 1.87 7.7 1.88 9.38 0 .41-.21 1.25-.63 2.5 0 1.25-.2 2.91-.63 5l1.25 1.87c2.5-2.92 3.75-5.83 3.75-8.75 0-.42-.2-1.25-.62-2.5 0-1.25-.2-2.92-.63-5h2.5v1.25l1.88 3.13c1.25-2.92 1.87-5.21 1.88-6.88 0-1.67-1.25-4.8-3.75-9.38l3.12-.62 1.88 3.13c.41-2.5.62-4.59.62-6.25.42-2.09.63-3.75.63-5 0-2.09-.21-3.75-.63-5v-1.88c0-.42 1.25-5 3.75-13.75h-3.13c-2.08 0-4.58.83-7.5 2.5a14.7 14.7 0 0 1-3.12 5c-.83 0-3.13-1.87-6.88-5.63-3.33-3.74-5-6.45-5-8.12-.83-4.58-1.66-6.87-2.5-6.88h-.62l-6.25 6.88m-358.12-1.88c-5 3.76-9.8 9.17-14.38 16.25l1.88 3.75 1.88 2.5 3.12 6.88 1.25 5.63c-1.25 2.5-2.5 3.75-3.75 3.75-2.08 0-3.33-.21-3.75-.63-2.5-2.92-5.2-4.37-8.13-4.38H198.13l-.63 1.25 2.5 6.25a65.92 65.92 0 0 1 3.75 5.63l6.25 5.63 1.25 2.5 5.63 2.5 1.25-2.5 2.5 1.25c.83.83 1.46 1.25 1.88 1.25.41-.42.83-.63 1.25-.63l1.25-1.25-1.25-3.13c3.33.84 4.79 1.25 4.37 1.25 1.25 0 1.67-1.25 1.25-3.75v-2.5l3.75-.62a109.3 109.3 0 0 0 1.88-6.88l.62-1.87c.42-1.25.63-3.12.63-5.63v-6.25l-1.25-6.25v-5l-2.5-8.12c-1.25-4.58-2.71-6.87-4.38-6.88m201.25 4.38c-4.58 5.83-6.88 10.42-6.88 13.75v3.13c.42 1.25.84 2.91 1.25 5h.63l.63 5.62 1.87 3.13 4.38 5-.63 1.25-.63-2.5-.62 3.12c-3.33.42-5.63 1.67-6.88 3.75-1.25 1.67-1.87 2.92-1.87 3.75 0 .83.63 1.88 1.88 3.13 2.08 3.33 5.41 5.83 10 7.5 5 1.66 8.95 4.16 11.87 7.5 1.67 2.91 2.5 5.2 2.5 6.87s-1.67 4.17-5 7.5h.63c4.16.42 6.87-2.08 8.12-7.5.42-2.5 1.67-3.75 3.75-3.75l-1.88 8.75c4.59-3.33 6.88-8.33 6.88-15 0-4.58-1.46-8.96-4.38-13.13l3.13-.62-.63-.63c3.34 5.84 5 10.84 5 15v6.25l3.13-3.12-.63-7.5c.42-.42 1.46-.63 3.13-.63.42.42.63 1.25.63 2.5l1.25-4.37-1.25-8.13 2.5.63v-5c.41-2.5-1.05-6.25-4.38-11.25l-1.25-3.13c-4.58-4.58-6.88-8.74-6.88-12.5l.63-4.37c-5.83.83-9.38 5.2-10.63 13.13l-3.75-6.25-5.62-6.25-10-10.63m-75.63 17.5-1.25 3.13c0 5.83 3.75 8.75 11.25 8.75s12.5-3.96 15-11.88c1.67-5.42 3.13-8.75 4.38-10l3.13-5-1.25-1.25h-.63c-1.67 0-3.33 1.88-5 5.62-4.58 11.25-10.2 16.88-16.88 16.88-2.91 0-5.83-2.08-8.75-6.25m-100-1.88a40.78 40.78 0 0 0-4.37 3.75 20.46 20.46 0 0 1-2.5 3.13l-.63 1.25a56.87 56.87 0 0 0-1.87 15l1.88 11.88c2.08-2.09 3.12-3.34 3.12-3.75v-.63c0-2.08-.2-4.17-.63-6.25l-.62-1.88c.83-8.33 2.7-12.5 5.63-12.5 1.66 0 2.7.21 3.12.63l5 2.5 5.63 1.25c1.66.42 2.5 1.46 2.5 3.13v2.5c4.16-2.92 6.24-6.25 6.25-10 0-9.17-4.8-13.75-14.38-13.75-4.17 0-6.88 1.25-8.13 3.75m-63.12 41.25-7.5-5c-3.33-2.09-5-5.84-5-11.25 0-3.75 2.92-7.5 8.75-11.25 4.17-2.92 7.7-4.38 10.63-4.38 1.66 0 4.16.42 7.5 1.25 3.33.42 5.83.63 7.5.63h.62c2.08.83 3.12 0 3.13-2.5 0-2.09-4.8-3.13-14.38-3.13h-3.75a26.5 26.5 0 0 0-17.5 6.25c-5 3.75-7.5 8.33-7.5 13.75 0 3.75 1.46 8.13 4.38 13.13 2.91 4.58 6.45 6.87 10.62 6.87 2.08 0 3.12-.83 3.13-2.5 0-.83-.21-1.46-.63-1.88m6.88-9.37c-2.5.83-3.76 2.92-3.75 6.25 0 3.33 1.66 5 5 5 3.33 0 5-2.3 5-6.88 0-2.91-1.88-4.37-5.63-4.37h-.63m38.13 6.25c2.5-1.25 3.75-2.3 3.75-3.13 0-1.66-.83-2.5-2.5-2.5-2.08 0-3.13 1.05-3.13 3.13.42.42.63.83.63 1.25l1.25 1.25m-6.25 1.25c-2.08 0-3.13.83-3.13 2.5 0 2.08.84 3.13 2.5 3.13 1.25 0 2.3-.63 3.13-1.88l.63-1.25c0-1.67-1.05-2.5-3.13-2.5m28.75 3.75c-1.67.42-4.17 0-7.5-1.25l8.75 6.25 180-.63c-4.58-3.75-8.75-5.41-12.5-5h-5l-163.75.63m-18.75-3.13-2.5 5-5 2.5-5 2.5c0 2.92 3.96 6.88 11.88 11.88a277.7 277.7 0 0 0 9.37 5.63c2.92 1.25 5.42 2.29 7.5 3.12 1.67.42 3.75.83 6.25 1.25 2.5.42 5.42 1.04 8.75 1.88 2.08.41 3.75.83 5 1.25h6.25l9.38-1.25c3.33-2.5 5-4.59 5-6.25 0-2.92-4.38-4.38-13.13-4.38h-8.75l-3.75-.63-2.5-.62-3.13-.63-3.12-1.25-1.88-.62-6.87-5-9.38-8.13-4.37-6.25m-19.38 2.5c-.83 0-1.25.63-1.25 1.88 0 2.08 1.05 3.13 3.13 3.13 1.25 0 1.87-.84 1.88-2.5 0-1.67-1.25-2.5-3.75-2.5m-8.75 0 .62 3.75 3.13-3.13-3.75-.63m-5.63 3.13c-1.67 0-2.5.83-2.5 2.5 0 1.25.63 1.88 1.88 1.88 1.66 0 2.5-.84 2.5-2.5 0-1.25-.63-1.88-1.88-1.88m375.62 2.5-10.63 5-1.87.63h-1.25l-18.75-2.5c-2.08-.84-3.13-.21-3.13 1.87 0 .42 4.38 2.5 13.13 6.25 3.33.83 4.8 1.25 4.38 1.25 3.33 0 7.7-1.46 13.12-4.38 3.75-1.66 5.62-3.54 5.63-5.62v-.63l-.63-1.87m-385.62-.63c-2.5.84-3.75 1.88-3.75 3.13 0 2.92 1.25 4.38 3.75 4.38s3.75-1.46 3.75-4.38c0-2.08-1.04-3.13-3.13-3.13h-.62m-20 5.63c0 3.75 1.67 5.63 5 5.63s5-1.88 5-5.63c0-2.92-1.88-4.38-5.63-4.38-2.91 0-4.37 1.46-4.37 4.38m362.5-1.88v2.5c2.08 3.34 3.12 5.21 3.13 5.63 0 1.25-.84 3.13-2.5 5.63-1.25 2.08-2.5 3.12-3.75 3.12s-3.13-.63-5.63-1.88l-2.5-1.87-1.25-8.75c-3.75 3.33-5.63 6.04-5.63 8.13 0 4.16 2.5 8.12 7.5 11.87 3.34.83 4.8 1.25 4.38 1.25.83 0 2.5-1.25 5-3.75s4.17-3.54 5-3.13l5.63 2.5-1.25-11.25-6.88-10h-1.25m-50 0-2.5.63h3.13a45 45 0 0 0-16.25 3.13l-21.25 9.37c-5.84 2.5-13.75 4.38-23.75 5.63 5 0 7.91.2 8.75.62h4.37l43.13-13.13c.41-.41 1.45-.62 3.12-.62 2.5 0 5.42 1.25 8.75 3.75 1.67 2.92 2.5 5.42 2.5 7.5 0 1.67-.63 3.75-1.88 6.25h1.88c4.58.83 6.87-2.7 6.88-10.63 0-2.5-1.25-5.41-3.75-8.75a54.34 54.34 0 0 0-13.13-3.75m-91.88 1.88c2.92 2.92 7.09 5.63 12.5 8.13l8.13 2.5 5.63.62 12.5-1.25c3.74-1.25 6.66-4.17 8.75-8.75h-1.25a36.06 36.06 0 0 1-18.13 5 37.6 37.6 0 0 1-18.13-4.38c-1.66-2.91-3.75-4.37-6.25-4.37-1.25 0-2.08.2-2.5.63l-1.25 1.87m-18.75-.63c0 12.5-5.41 18.75-16.25 18.75l-3.12-.62-1.88-.63L345 577.92c-1.66-2.91-6.04-4.37-13.12-4.37-12.92 0-18.96 3.75-18.13 11.25v1.88l3.13 3.75c.42-9.17 4.8-13.75 13.13-13.75 5.83 0 10.41 2.29 13.75 6.87l4.37 6.88c3.33 4.58 8.12 6.87 14.38 6.87 5.83 0 9.58-1.46 11.25-4.38l1.87-3.12 3.75-4.38c1.67-1.66 2.5-5 2.5-10 0-1.66-.63-2.5-1.88-2.5l-1.25.63-1.25.63m-118.12-.63c5.42 5.42 12.71 8.13 21.88 8.13 3.75 0 6.25-.21 7.5-.63l-29.38-7.5m130 1.25c1.25 4.17 3.96 7.7 8.13 10.63v1.25c0 4.58-1.46 6.87-4.38 6.87-.83 0-2.7-.63-5.62-1.88 1.67 5.42 3.96 8.13 6.88 8.13 5.83 0 8.74-2.92 8.75-8.75 0-3.33-3.13-7.5-9.38-12.5a7.29 7.29 0 0 0-1.88-1.25l-2.5-2.5m219.38.63-25 8.75h5c1.67.41 4.17.2 7.5-.63 3.34-1.25 6.05-1.88 8.13-1.88.42 0 4.17 1.05 11.25 3.13 1.67 1.67 2.5 3.33 2.5 5-.42.42-.63 1.67-.63 3.75h1.88c1.67 0 2.7-2.08 3.13-6.25l.62-4.38c0-2.08-1.88-4.16-5.63-6.25l-8.75-1.25m-408.12 7.5c4.59-2.08 6.88-3.75 6.88-5 0-1.66-.63-2.5-1.88-2.5-1.66 0-3.33 2.5-5 7.5m-15 1.25c1.67 1.67 3.13 2.5 4.38 2.5 2.08 0 3.12-1.04 3.12-3.12s-.83-3.33-2.5-3.75h-.62l-4.38 4.38m25.63 15c0-7.5 2.92-11.25 8.75-11.25 3.75 0 7.08.83 10 2.5l11.87 5 6.88.62v-1.88l-7.5-2.5c-1.25-.83-3.75-2.29-7.5-4.37-5.42-2.92-10.63-4.38-15.63-4.38-8.75 0-13.12 3.13-13.12 9.38 0 2.92 2.08 5.2 6.25 6.88m-34.38-18.13-.62 6.25 2.5-3.13-1.88-3.12m152.5 4.38h-.62c-.83 0-1.25.62-1.25 1.87 0 1.67 1.04 2.5 3.13 2.5 1.25 0 1.87-.83 1.87-2.5 0-1.25-1.04-1.88-3.13-1.88m-150 1.25c-2.5 2.09-3.75 3.55-3.75 4.38 0 3.75 1.88 5.63 5.63 5.63 3.33 0 5-1.46 5-4.38s-2.3-4.8-6.88-5.63m159.38.63v4.38c2.09 0 3.13-.63 3.13-1.88 0-.83-1.04-1.67-3.13-2.5m-143.75 3.13c-2.91 0-4.37 1.25-4.37 3.75 0 2.91 1.46 4.37 4.37 4.37 2.92 0 4.38-1.67 4.38-5 0-2.08-1.46-3.13-4.38-3.13m121.88 3.75c.42 2.5 2.5 3.75 6.25 3.75 2.92 0 6.05-.83 9.38-2.5-.83-.83-1.67-1.25-2.5-1.25h-1.25c-1.67.42-2.92.84-3.75 1.25h-4.38a19.4 19.4 0 0 0-3.75-1.25m25 1.25c-2.5 0-3.75 1.05-3.75 3.13 0 1.25 1.05 1.88 3.13 1.88 1.25 0 2.3-.63 3.13-1.88v-1.25c0-1.25-.84-1.88-2.5-1.88m61.24-420.62c-.41.84-.62 2.71-.62 5.63v1.25c0 .83.2 1.67.63 2.5l1.87 3.12-1.88.63c-2.91-2.92-4.37-4.58-4.37-5 0-3.75 1.46-6.46 4.38-8.13m-6.88 1.25-.63 5.63 1.25 5-3.75-1.25c-1.25 0-1.87-1.04-1.87-3.13 0-3.74 1.25-5.62 3.75-5.62l1.25-.63m125.62 7.5 3.13 1.25c-3.34 1.67-5.63 2.5-6.88 2.5l-5.63 6.88v-.63c0-3.74.21-6.04.63-6.87.83-.83 3.75-1.87 8.75-3.13m-53.75 16.25-.63 2.5-17.5-8.12-11.87-4.38 3.13-.62c5.83 0 14.79 3.54 26.87 10.62m60.63-11.25a29.05 29.05 0 0 0-5.63 4.38 40.77 40.77 0 0 0-4.38 3.75l1.25-.63h-1.87v-1.25c0-3.33 3.54-5.41 10.63-6.25m-306.25 5.63v-9.38l2.5 5.63c0 2.92-.63 4.58-1.88 5l-5 5 4.37-6.25m310.63-.63c.83-2.08.62-3.12-.63-3.12-1.67 0-3.96 1.25-6.88 3.75-2.5 2.08-2.91 3.13-1.25 3.12.42 1.67 1.05 2.09 1.88 1.25 0-1.66.83-2.5 2.5-2.5 1.67-.83 2.7-1.45 3.13-1.87l1.25-.63m-87.5 2.5 7.5 3.75 5.62 1.88 2.5 3.12-15.63-6.25v-2.5m104.38 19.38.63-1.88c1.25.42 2.7 1.05 4.38 1.88 4.16 4.58 6.45 11.25 6.87 20l-5-13.75-6.88-6.25m-81.87 3.12c-.42 0-.42-.83 0-2.5.42-1.66 1.04-2.5 1.88-2.5 1.25 0 1.87 2.3 1.87 6.88l-4.38 8.75c.42 0 .63-3.54.63-10.63m111.88 5.63 8.13 3.75 12.5 1.25h-14.38l-5-3.13-1.25-1.87m-213.12 11.87a19.76 19.76 0 0 0-11.25-5c.83 0 1.46.21 1.87.63-4.58-2.08-6.87-3.54-6.87-4.38 0-.41.42-.62 1.25-.62 1.67 0 3.75.62 6.25 1.87 2.92.84 5.62 2.09 8.12 3.75a23.76 23.76 0 0 1 6.88 5.63c2.08 2.08 3.12 4.38 3.12 6.87l2.5 7.5-6.25-11.87-3.12-2.5-2.5-1.88m205.62 10 5 5c2.5 2.09 4.58 8.76 6.25 20l-1.88 1.88-3.12-14.38a43.93 43.93 0 0 0-3.13-6.25 43.63 43.63 0 0 1-3.12-6.25m-174.38 28.13 8.75-.63-6.25 2.5h-1.88c-.83 0-2.5-1.25-5-3.75 0-2.08.42-3.12 1.25-3.12l3.13 5m121.88-3.13 3.75 1.25 9.38 10.63 5.62 13.75-.63 5.62-1.25-1.87c-.41-1.25-1.04-3.33-1.87-6.25-.83-.42-1.67-1.87-2.5-4.38-1.25-5.83-3.75-10.62-7.5-14.37l-5-4.38m-15-1.87h2.5c2.08-.83 3.12-.2 3.13 1.87 0 2.5-1.26 3.76-3.76 3.75-2.08 0-2.91-.2-2.5-.62 0-2.5.21-4.17.63-5m6.25 8.12 2.5 1.88-.63 2.5-3.75-.63 1.88-3.75m-26.88 2.5c2.09 3.34 3.13 5.63 3.13 6.88v4.37l.63 6.25c-2.92 0-4.38-3.95-4.38-11.87v-3.75l.63-1.88m-4.38-.62 1.25 9.37 1.88 6.25v5.63l-3.76-8.13c-2.08-5-3.12-7.7-3.12-8.12.83-2.08 1.46-3.12 1.88-3.13l1.87-1.87m-278.12 25-7.5 13.12 1.87-8.12c2.09-3.33 3.13-6.25 3.13-8.75 0 .42.2-.63.62-3.13s1.05-6.04 1.88-10.62v-2.5c.42-1.25 1.04.42 1.87 5l-1.87 15m202.5-16.88 1.87 1.88-.62 1.87h-5.63l-1.25-1.87 2.5-2.5 3.13.62m45 2.5 4.37 1.25 2.5 5 2.5 5.63 1.25 3.12-1.25-3.12-4.37-5-5-6.88m-40.63 3.13v-3.75h.63l2.5-.63c.83 0 1.25.42 1.25 1.25 0 1.67-1.46 2.71-4.38 3.13m11.88-3.75c.42 0 .62 1.25.62 3.75 0 .42-1.25.83-3.75 1.25l-1.25-3.13 1.25-1.25 1.88-.62h1.25m8.12 5-1.87-3.75-1.88-.63-1.25 3.13c0 1.25.42 1.88 1.25 1.87 2.5 2.5 3.75 2.3 3.75-.62m18.75.62 8.13 8.13c2.08 3.33 3.12 5.83 3.12 7.5 0-1.25.42-.83 1.25 1.25.84 2.08 1.25 3.75 1.25 5-.41 1.67-1.25 2.3-2.5 1.87l-3.75-10.62c-.83 0-2.08-2.5-3.75-7.5a32.89 32.89 0 0 0-3.75-5.63m-16.25 2.5 4.38-1.87-3.75-3.75-.63 5.62m87.5 28.75 5-8.12-.62 1.87c2.5-7.08 5-10.62 7.5-10.62-5 10.83-7.5 15.42-7.5 13.75 0 6.25-1.46 9.38-4.38 9.37l-.62-.62-1.25-1.25 1.88-4.38m13.12-4.37-5 1.87c-.83 2.5-3.33 7.5-7.5 15l.63-.62 11.87-16.25M202.53 332.3V342.93l-1.25 1.87-3.13 7.5 1.25-6.25 1.25-3.75 1.88-10m31.25 1.88-8.75 1.87-6.88 6.25 15.63-8.12m-5 6.25 7.5-5.63a311.31 311.31 0 0 0-10 7.5c-3.75 2.5-7.92 5.84-12.5 10 3.75-5 8.75-8.95 15-11.87m154.38-7.5c0 2.5-1.25 4.58-3.75 6.25-2.08 1.67-6.25 7.5-12.5 17.5l-.63 1.25-4.37 9.37c.42-9.16 4.37-17.5 11.87-25l9.38-9.37m213.75 10c1.67-6.25 3.33-10.2 5-11.88.42 0 .63.21.63.63 0 9.58-3.96 16.46-11.88 20.62.83-.83 2.92-3.95 6.25-9.37m-403.12 9.37 1.87-7.5c-4.58-.83-6.87 4.8-6.87 16.88 0-.42-1.04 1.46-3.13 5.62a48.67 48.67 0 0 0-4.37 13.13l8.75-16.88 3.75-11.25m202.5 4.38-1.88 4.37c-.83 0-1.25-.41-1.25-1.25 0-1.25.63-1.87 1.88-1.87l1.25-1.25m61.25.62 3.12 2.5-2.5 3.13-1.87-2.5-.63-1.25 1.88-1.88m-64.38 6.25-1.25 1.88-1.25-.63h-1.25c-1.66 0-2.5-.83-2.5-2.5 0-1.25.84-1.87 2.5-1.87 1.67 0 2.5.62 2.5 1.87 0 .84.42 1.25 1.25 1.25m56.88-4.37 1.25 6.87-4.38-3.12 3.13-3.75m78.75 3.75 16.25-2.5c-2.08.42-4.58 1.46-7.5 3.12-2.5 1.25-3.96 1.88-4.38 1.88-1.66 0-3.12-.83-4.37-2.5m-88.13 3.75 2.5 2.5c-2.91 0-3.95-1.25-3.12-3.75l.62-1.88 3.13 1.25-.63 4.38-2.5-2.5m-58.12 0 2.5.62-.63 3.75-5.62-1.25 1.25-1.25 2.5-1.87m130 11.87-.63 1.88-1.25 2.5-2.5-2.5c0-.42.21-.63.63-.63l.62-.62c2.5 0 3.55-.2 3.13-.63m-163.75-5.62 6.25 1.25c-.42.42.42 1.04 2.5 1.87l3.12.63c-5 0-7.29.2-6.87.62l-5-4.37m170 7.5-1.25 5-3.13-1.25.63-1.88.63-1.87h3.12m8.13 1.87-.63 4.38h-3.13v-.63l1.88-3.75c0 .84.63.84 1.88 0m-178.75-3.75 6.24 1.88h8.75a14.53 14.53 0 0 0-3.75 2.5l-1.25.62c-2.08 0-3.33.21-3.75.63-2.08-.42-4.16-2.3-6.25-5.63m56.88 11.25c-2.08 5.84-8.96 12.71-20.63 20.63l-4.37 5 4.37-5.63c2.09-2.91 6.05-6.66 11.88-11.25l3.75-5 5-3.75m-1.25-3.75-6.88 6.88c-2.5 2.5-5 4.8-7.5 6.87l-2.5.63 2.5-3.75 2.5-2.5 11.88-8.13m141.25 8.75 4.38-1.25-3.13 5.63-1.88-2.5.63-1.88m60 1.25-3.75-5 7.5 2.5 3.75 5.63-7.5-3.13m-65.63.63 5.63 5h-3.75l-1.88-5m-335 3.12v-4.37l4.38-1.88.62 1.25-5 5m396.25 3.13 6.25.62 3.13 2.5h3.75l-4.38-4.37-5.62-.63-3.13 1.88m-65-1.88 2.5 3.13h-5.62l3.13-3.13m-334.38-1.25-6.26 15.63c-5.83 7.92-8.54 17.3-8.12 28.12v3.75l-1.25.63c-1.25-2.92-1.88-5-1.88-6.25.84-1.25 1.46-3.96 1.88-8.13l1.25-5.62c.42-1.25.83-2.7 1.25-4.38a58.01 58.01 0 0 1 1.87-6.87c-.41.42-.62 1.04-.62 1.87v.63a65.67 65.67 0 0 0 6.25-10c2.08-3.33 3.96-6.46 5.62-9.38m391.25 6.88-3.12 5.62-1.88 5.63c-.83 2.08-1.66 3.13-2.5 3.12-.41 0-.62-.2-.62-.62 0-.83.42-2.92 1.25-6.25 1.25-3.75 3.54-6.25 6.88-7.5m-408.13 5c1.67-3.33 3.34-5.42 5-6.25 1.67 0 1.25.83-1.25 2.5a6.9 6.9 0 0 1-6.87 1.25l-3.75-3.13 2.5 5.63c1.67 1.25 2.92 1.46 3.75.62l.62-.62m271.25 4.37c.84.84.84 1.67 0 2.5-1.66-.41-2.5-.83-2.5-1.25 0-2.5.21-3.74.63-3.75l1.87 2.5m-244.38-1.25-1.87 5.63a34.43 34.43 0 0 1-1.88 4.37 27.42 27.42 0 0 1-2.5 5c-.83 1.67-2.29 4.17-4.37 7.5-3.75 4.17-6.04 6.26-6.88 6.25l8.75-14.37-3.75 5.62-.62 2.5c0-.41.2-.62.62-.62l-.62.62v-.62c.42-.83 1.25-2.3 2.5-4.38a31.23 31.23 0 0 0 3.12-4.37 14.52 14.52 0 0 1-2.5 3.75l5-10 5-6.88m-28.75 3.75-2.5 1.25-1.87-1.87-1.25-5.63 5 4.38 1.25-.63c0 1.25 1.46 1.05 4.37-.62-.41.83-2.08 2.7-5 5.62.42-1.25.42-2.08 0-2.5m18.75 1.88c0 2.5-1.25 5.42-3.75 8.75-2.5 2.92-4.16 4.38-5 4.37v-.62c.42-1.25 2.3-3.54 5.63-6.88l1.25-3.12 1.25-1.88.62-.62m398.13 10.62-2.5 4.38c0 1.25-.63 2.7-1.88 4.37l-5.63 8.75-1.25-.62c.42-5.42 4.17-11.04 11.25-16.88m-.62 8.75-.63 3.13c0 .42-1.04 2.3-3.12 5.62l-2.5-.62c1.25-5 3.33-7.7 6.25-8.13M214.4 465.43l1.25.62 2.5-1.25h.62-.62c1.67 0 1.87-1.04.62-3.12-1.25-1.67-2.08-2.3-2.5-1.88-.41 1.67-1.45 2.5-3.12 2.5-.42 0 0 1.05 1.25 3.13m197.5-.63c.42.42 2.7 1.67 6.88 3.75l2.5 2.5c1.25.84 2.29 1.67 3.12 2.5h1.25l.63 3.13-6.88-5-3.75-2.5-3.13-2.5-.62-1.88m-6.25 1.88 6.25 3.75c.42.42 1.25 1.04 2.5 1.87 1.67.84 3.54 2.09 5.63 3.75l-.63 3.75-7.5-5-3.13-3.75-3.12-4.37m-191.88 3.75c-8.75 16.25-14.38 31.67-16.88 46.25v1.88c0 .41-.2.62-.62.62-.83 0-1.25-.2-1.25-.63v-6.25c0-15.41 6.25-30 18.75-43.75v1.88m168.12 7.5-10.63 3.12c1.67-1.25 6.05-1.25 13.13 0 3.75.84 6.04 1.05 6.88.63.83-.42.83-.83 0-1.25a19.4 19.4 0 0 0-4.38-1.25 11.1 11.1 0 0 0-5-1.25m-192.5 5.62c-2.5-.41-3.75-2.5-3.75-6.25l4.38 1.88h3.74c2.09-2.08 3.13-2.08 3.13 0 0 1.25-1.88 2.5-5.63 3.75l-1.87.62m25.63 5.63 5.62-6.25c0-.42-2.92 1.88-8.75 6.87l-.63 1.88 3.75-2.5m16.25-10.63-2.5 5c0 .42-1.45 2.3-4.37 5.63l-3.75 5v.62l.63-.62c.41 0 .83-.2 1.24-.63a9.81 9.81 0 0 1-2.5 1.88l-.62.62 1.25-1.25.63.63c-.84.83-2.3 1.25-4.38 1.25v-2.5l3.13-2.5 6.87-7.5 4.38-5.63m-40.63 6.88h5.63c-.84 1.25-2.5 2.3-5 3.12h-3.13l-3.13-3.12h5.63m263.75-.63 4.38 5c-.84 0-1.25-.62-1.25-1.87.41 6.67-1.25 10-5 10 .41-.42.62-1.04.62-1.88v-1.25c.42-3.33.63-5.62.63-6.87.41-1.67.62-2.7.62-3.13m7.5 0h1.25c.83.84 1.67 2.09 2.5 3.75.83.84-.42 3.76-3.75 8.75v-12.5m11.88 6.25c-1.67.84-2.71 1.67-3.13 2.5 0 .84-.2 1.67-.63 2.5-1.25 0-1.87-1.04-1.87-3.12 0-2.92.83-4.37 2.5-4.38 1.67.42 2.5.42 2.5 0l.63 2.5m-288.75.63 5 3.12c1.24-.41 2.7-1.04 4.37-1.87 2.08-.83 2.08-1.25 0-1.25-5.83-.42-8.96-.42-9.38 0m170 12.5 11.88-6.88-6.88 5.63-5 1.25m-126.88 6.25 2.5 3.12 1.25 2.5c.42 2.09.63 3.96.63 5.63.42 1.25.63 2.3.63 3.13 0 2.08-.63 3.12-1.88 3.12l1.88-.63-2.5.63-2.5-17.5m-25 3.12-.63 3.13h-3.13l4.38-8.75-.63 5.62m395 21.25-1.87.63c-.42-.42-.83-.63-1.25-.63l-1.25-1.25c0-.41.83-.62 2.5-.62h.63l1.25 1.88m-371.25-.63 1.25 8.13c0 2.5-.21 3.95-.63 4.37l-1.25 1.25-5 1.25c-1.25 0-3.96-.42-8.13-1.25l-1.25-3.75 6.25 1.25 3.13.63 3.13-1.88 2.5-10m-5.63-81.25 3.13-4.38v7.5H220l1.25-3.12" transform="translate(-146.86 -119.79)"/>
</svg>
