<svg xmlns="http://www.w3.org/2000/svg" viewBox="0 0 500 500">
    <path d="M146.86 619.79v-500h500v500h-500m7.5-7.5h485v-485h-485v485m7.5-7.5V135.41h469.38v469.38H161.86m77.5-33.75c-1.67 0-2.5 1.04-2.5 3.13 0 2.08 1.04 3.12 3.13 3.12 2.08 0 3.12-1.04 3.12-3.13 0-2.5-1.25-3.54-3.75-3.12m101.25-415c-1.67-1.67-3.33-4.37-5-8.13l-.63-1.87.63-.63c1.67-2.5 3.75-3.74 6.25-3.75l2.5.63c-2.08-2.5-3.96-3.75-5.63-3.75-5.41 0-8.12 1.88-8.12 5.62 0 4.17 3.33 8.13 10 11.88m-112.5-10-5 3.12-6.25 1.88c-7.92 2.5-15.2 8.33-21.88 17.5l9.38.62 3.13-3.75 8.75-5.62 4.37-2.5 12.5-5 12.5-5.63 6.88-.62h20c17.08-.83 36.04 4.8 56.87 16.87 2.92 2.5 5.42 3.76 7.5 3.75 2.92 0 4.37-.83 4.38-2.5a7.33 7.33 0 0 0-1.25-1.87v-.63l-3.75-2.5-6.88-5c-3.75-2.91-8.96-5.2-15.63-6.87l-8.75-3.13c-10-3.74-22.7-5.62-38.12-5.62-10 0-21.25 2.08-33.75 6.25l-1.25.62c-.83 0-2.08.21-3.75.63m-45.63 10-9.37-1.88c-.42-.83-.63-2.5-.63-5 0-3.33 1.46-5 4.38-5l16.25 3.75 5-3.75-10.63-1.25-6.24-3.12c-.42-.42-1.88-.63-4.38-.63-7.92 0-11.88 3.34-11.88 10 0 10.42 3.75 15.21 11.26 14.38h.62c3.75 0 7.08-.83 10-2.5l11.88-5a7.25 7.25 0 0 0 1.87-1.25l1.25-1.25v-1.88l-10 2.5-9.38 1.88m185.63-16.25c-6.67 2.5-9.8 6.46-9.38 11.87v3.75l1.88 5-5-.62c-2.92-1.67-5.63-2.5-8.13-2.5-2.08 0-3.13 2.92-3.13 8.75 0 4.58 4.17 8.75 12.5 12.5l12.5-10c-1.25-4.17-2.29-7.08-3.12-8.75l-.63-3.13c0-5.41 2.92-8.12 8.75-8.12 2.92 0 5.84 1.46 8.75 4.37 2.5 8.76 7.71 13.13 15.63 13.13 1.25 0 2.3-.42 3.13-1.25l1.25-2.5 1.87-1.25v-5c-3.33 2.5-6.25 3.75-8.75 3.75-2.92 0-5.42-1.67-7.5-5l-3.75-9.38c-1.25-1.66-3.75-3.54-7.5-5.62-3.33-.83-5.2-1.25-5.63-1.25-1.25 0-2.08.2-2.5.62l-1.25.63m128.13 9.37 3.12 3.13c13.33-5.42 26.04-8.12 38.13-8.13 14.58 0 26.04 2.92 34.37 8.75l21.25 15.63 8.75 2.5v-1.25l-.63-.63c0-.41-.2-.83-.62-1.25l-6.88-5.62-9.37-8.13c-10.83-10-27.08-15-48.75-15-17.08 0-30.2 3.34-39.38 10m112.5 23.13-.62-7.5-5.63-10a4.23 4.23 0 0 1-1.25-3.13c0-2.91 2.09-4.37 6.25-4.37 3.75 0 5.42 2.08 5 6.25l-.62 3.12 1.88 5.63 3.12 1.25-1.25-4.38 1.88-8.12c0-4.17-2.09-7.5-6.25-10-3.34-.83-5.42-1.25-6.25-1.25-7.5 0-11.25 2.7-11.25 8.12 0 .84.41 2.5 1.25 5 1.25 2.09 1.87 3.34 1.87 3.75v1.88l9.38 10 2.5 3.75m-190.63-3.13 2.5 3.13 5.63 3.75 13.13 2.5-4.38 5 9.38 1.25c2.91.42 6.04-1.04 9.37-4.38l11.25-13.75 6.25-.62c.42.42.63.83.63 1.25l1.25 1.25c0 1.25-1.25 2.5-3.75 3.75-7.09 3.33-10.63 7.7-10.63 13.12 0 2.92 1.25 6.46 3.75 10.63l3.75 3.75 3.75 1.25 1.25-5 1.25-.63 1.25.63c0 .83.83 3.13 2.5 6.87.42 1.67 2.7 2.5 6.88 2.5 3.33 0 5.2-2.08 5.62-6.25-5.83-1.25-8.75-4.37-8.75-9.37l.63-4.38-1.88.63c-1.25 0-1.88-.63-1.88-1.88 0-.83.63-2.5 1.88-5l2.5-3.12c.83-.83 1.46-1.25 1.88-1.25 1.66 0 2.5.42 2.5 1.25l-2.5 2.5c-1.67 1.25-2.71 3.13-3.13 5.62 7.5-6.66 11.25-12.5 11.25-17.5 0-9.58-5.42-14.37-16.25-14.37-6.67 0-13.54 3.54-20.63 10.62-7.08 4.59-13.12 6.88-18.12 6.88-10.83 0-16.25-4.17-16.25-12.5 0-3.33 1.67-5 5-5 1.67 0 3.54.62 5.63 1.87 4.16 3.76 6.66 5.63 7.5 5.63h6.87c1.67 0 4.8-3.54 9.38-10.63-5.42 2.09-8.76 3.13-10 3.13-.84 1.25-2.92.42-6.25-2.5-3.34-2.92-7.92-4.8-13.75-5.63-7.09 0-10.63 4.59-10.63 13.75 0 3.34 1.46 7.09 4.38 11.25m61.87-20.62 12.5 6.87v1.25l3.75 8.13.63-4.38c.41-2.91-1.05-6.04-4.38-9.37-2.92-3.33-5.42-5-7.5-5l-1.88.62-3.12 1.88m-238.12 3.75c-5.42 2.92-8.13 5.83-8.13 8.75 0 4.58 2.09 6.88 6.26 6.87l10.62.63c.42 0 3.12-1.25 8.13-3.75 5.41-2.5 8.95-3.75 10.62-3.75-.83-.42-2.7-.63-5.63-.63-2.5 0-5 .84-7.5 2.5-2.5 1.25-4.37 1.88-5.62 1.88s-2.7-.42-4.38-1.25c-1.24-1.25-1.87-2.5-1.87-3.75 0-2.92 2.7-5.2 8.13-6.88 4.16-1.66 7.7-2.29 10.62-1.87h3.13c5.41.42 8.95.83 10.62 1.25h.63c2.5 0 5.2-.83 8.12-2.5a54.4 54.4 0 0 0-7.5-.63 20.6 20.6 0 0 0-5-.62c-12.92 0-23.33 1.25-31.25 3.75m265 15c0 7.92 4.37 11.87 13.13 11.87 4.58 0 8.12-1.25 10.62-3.75l15.63-13.75 3.75-1.25c2.91 0 5.83.84 8.75 2.5-2.09-3.74-3.96-5.62-5.63-5.62l-2.5.62-5 .63-13.75 11.25a8.48 8.48 0 0 1-6.25 2.5c-3.75 0-5.63-2.5-5.63-7.5 0-8.33 7.5-12.5 22.5-12.5 13.75 0 27.71 5.83 41.88 17.5l3.75 1.25c-10.42-15.42-28.33-23.13-53.75-23.13-5.83 0-11.67 1.67-17.5 5-6.67 4.17-10 8.96-10 14.38m-181.88-1.88c-11.25-4.58-20.2-6.87-26.88-6.87-6.66 0-12.7 1.88-18.12 5.62-5.42 3.34-8.13 7.09-8.13 11.25 0 2.09.84 3.13 2.5 3.13 1.25 0 2.92-2.3 5-6.88 3.34-7.08 9.8-10.2 19.38-9.37l1.25.62h2.5l16.25 1.88 6.25.62m11.25 6.88 2.5 5.62-5-.62-2.5-1.25c-3.33-.83-4.8-1.25-4.38-1.25-.83 0-1.87.62-3.12 1.87h-3.13c-1.66-.41-3.33.84-5 3.75-1.25 2.5-1.87 4.38-1.87 5.63 0 1.67.2 2.92.63 3.75l2.5.62c3.74-1.25 6.87-1.87 9.37-1.87 3.75 0 7.5 2.08 11.25 6.25l3.75 3.12 1.25 1.88 3.13 1.87c3.33 2.09 5.41 5.42 6.25 10v.63c2.08 2.08 5.41 3.13 10 3.12 6.24 0 11.45-1.87 15.62-5.62 4.58-3.75 6.87-8.33 6.88-13.75 0-5.83-2.09-11.46-6.25-16.88l-3.13 1.88c-4.58 1.25-6.88 3.13-6.88 5.62v.63l3.13 3.75v1.25c0 5-2.5 7.5-7.5 7.5h-3.75c-3.75-3.75-6.04-7.5-6.88-11.25 0-1.67-1.25-4.37-3.75-8.13l1.88 6.88-4.38-1.25-2.5-5-5-4.38 4.38-1.25c-.83-3.33-2.5-5-5-5-1.25 0-2.08.63-2.5 1.88m24.38 10c-2.09 2.08-2.71 3.96-1.88 5.62v3.13c.83.83 1.46 1.25 1.88 1.25.83 0 1.45-.2 1.87-.63 2.5-12.5 9.17-18.33 20-17.5h.63c2.08 0 5 1.25 8.75 3.75l-1.88 5.63 6.88 14.37 3.75-5.62-.63-10 11.25-.63c3.33 0 5-.62 5-1.87v-1.88l-5-1.87-7.5-4.38-6.88 1.88c-.41.42-1.04.62-1.87.62-.42 0-1.88-.62-4.38-1.87a12.07 12.07 0 0 0-6.25-1.88c-5.41 0-11.04 1.67-16.87 5l-4.38 3.13-2.5 3.75m-151.25 8.12c1.26.84 3.34 3.13 6.26 6.88l3.75 5.62 3.12 10v30l-.62 136.25 10.62-3.75c5.42-1.66 8.12-6.66 8.13-15l-.63-4.37c-.42-4.17-.62-7.7-.62-10.63v-21.25c.41-1.25.62-3.12.62-5.62v-5.63l-.62-51.25c0-1.25.41-1.87 1.25-1.87 2.08 0 3.33.2 3.75.62l.62.63.63.62 1.25 1.88 4.37 8.12 1.88 3.13 5.62 11.87 1.88.63 3.12-13.75 3.13-1.25 3.12-13.13 6.25-8.75c.83-2.5 1.25-4.16 1.25-5-2.5-4.16-4.8-8.33-6.88-12.5a245.93 245.93 0 0 0-7.5-13.75l-8.75-17.5a482.23 482.23 0 0 0-12.5-23.12c-2.08-3.75-3.54-5.62-4.37-5.63l-38.75.63-18.12-1.25c-2.5 0-3.76 1.04-3.75 3.12 0 1.67.62 2.5 1.87 2.5l11.25 3.13 5 1.87 4.38.63 10 6.87m33.12-16.87 1.88 3.75 2.5 2.5.62 1.87 3.13 5v1.25l7.5 13.75 1.87 3.13.63 1.87 1.25 3.13 4.37 8.12.63 1.88 1.25 2.5 6.25 10.62 6.25 12.5 6.87 11.88 1.25 1.25 5 7.5 3.75 1.25-48.13-89.38-6.87-4.37m20 1.25c-1.25 0-1.88.83-1.88 2.5 0 3.33 1.46 5 4.38 5 1.67 0 2.5-1.04 2.5-3.13 0-2.08-1.67-3.54-5-4.37m18.13 6.87c5.41-.41 8.12-1.66 8.12-3.75 0-2.08-1.67-3.12-5-3.12-2.08 0-3.13 2.08-3.13 6.25v.62m313.75-6.87h-6.87l-43.75.62-6.25 1.25c-1.67 2.92-2.92 5.21-3.75 6.88a6.8 6.8 0 0 1-1.25 2.5l-68.75 140 6.25-1.88c.83-.41 2.3-.62 4.38-.62l13.75-1.88 4.37-10 21.88-42.5c5.41-10.41 8.54-15.62 9.37-15.62.83 0 1.87.62 3.13 1.87v20.63c24.16-.42 35.83-4.37 35-11.88v-6.25l-.63-17.5v-13.75c-1.25-24.58 9.8-39.37 33.13-44.37 7.91-1.67 11.87-3.33 11.87-5 0-1.25-.2-1.87-.63-1.88l-8.75-.62h-2.5m-306.88 24.37v5l3.75 7.5h-9.37c-.42.42-.63.84-.63 1.25 0 1.67 1.05 4.17 3.13 7.5.83 2.5 2.3 5 4.38 7.5l2.5-4.37 3.75 1.87 6.25 5.63.62 3.75-9.38-3.75 11.88 9.37 3.13 2.5-10 .63v3.12c0 1.25 1.25 5.21 3.75 11.88 2.91 4.17 4.37 8.13 4.37 11.87 0 8.76-3.13 15.84-9.38 21.25-2.08 2.09-3.54 3.13-4.37 3.13-1.25 0-2.08-.2-2.5-.63v-2.5c0-.41.83-1.87 2.5-4.37s2.5-5.83 2.5-10v-4.38l-5.63 1.25v-3.12c.42-3.75-2.7-9.58-9.37-17.5h-1.25l-1.25 3.75-5 8.12v10l.63 5.63h-3.13l-1.25-1.25c-1.67 5-4.17 9.8-7.5 14.37l-5 5a46.94 46.94 0 0 0-5 4.38l.63 1.87-.63 5.63v14.37c0 2.92 1.25 4.38 3.75 4.38 1.67 0 6.04-.63 13.13-1.88l11.25-1.25c36.25-5.41 61.66-21.66 76.25-48.75.41-1.66 1.45-3.54 3.12-5.62l-2.5-.63c-1.25-.41-1.88-1.04-1.88-1.87.42-1.25 1.46-2.3 3.13-3.13 5.42-2.91 8.75-8.33 10-16.25 1.25-6.66 1.87-10.2 1.88-10.62 0-2.5-1.25-3.75-3.75-3.75-.84 0-3.96 1.04-9.38 3.12-2.08 1.25-3.33 1.88-3.75 1.88-.83 0-1.25-.2-1.25-.63l-1.25-6.25-1.25-1.25-5.63 8.75-6.25 17.5c0 .42-.41 1.05-1.25 1.88l-1.25 2.5-1.87-1.25a19.5 19.5 0 0 0-1.25-3.75v-2.5c0-.83.63-2.92 1.88-6.25 4.58-12.92 6.87-21.46 6.87-25.63 0-2.08-.63-4.37-1.88-6.87l-5-10.63a32.98 32.98 0 0 0-3.12-5l-2.5 1.25-1.25 5c0 .84-.63 1.25-1.88 1.25-.83 0-2.08-2.08-3.75-6.25-.83-2.5-4.16-5.2-10-8.12l-2.5-3.13c-2.5-2.91-3.75-5.62-3.75-8.12 0-3.33.21-5.62.63-6.88-.83-.83-1.67-1.25-2.5-1.25-5.42 0-8.96 2.5-10.63 7.5l-1.87 3.75-1.88 3.13.63 4.37-.63 5m-113.12-20.62c2.92 4.17 8.96 7.3 18.13 9.37.83.42 1.87.84 3.13 1.25 1.66 0 3.54.42 5.62 1.25 0-3.33-4.17-5.62-12.5-6.87l-8.75-1.88-5.62-3.12m434.38 0c-2.09 2.08-3.76 3.33-5 3.75-4.17.42-11.25 2.92-21.25 7.5l-7.5 6.25c-1.67 4.17-3.34 6.67-5 7.5a36.75 36.75 0 0 0-3.75 9.37l-1.25 10-.63 11.88.63 26.25 1.87-.63 2.5-3.75v-23.12c-.42-14.58 1.67-25 6.25-31.25 4.58-6.67 13.13-11.46 25.63-14.38 5-.41 7.5-3.54 7.5-9.37m-81.25 4.37c-5 1.67-8.13 3.13-9.38 4.38a99.04 99.04 0 0 1-4.38 3.12c-.83.42-1.45.84-1.87 1.25l-5.63-3.12a17.72 17.72 0 0 0-11.87-3.13h-4.38c2.92 5.42 10 9.17 21.25 11.25l-3.12 8.13c-2.08 5.42-3.13 8.75-3.13 10v4.37c.42 1.25.84 2.92 1.25 5 6.25-5 9.38-9.16 9.38-12.5l.63-14.37v-1.25c.83-1.25 1.87-2.3 3.12-3.13l6.88-5v-1.25c.41-.83.83-2.08 1.25-3.75m-73.13 2.5-5 6.88a67.96 67.96 0 0 0-3.75 13.12 49.18 49.18 0 0 0-.63 13.75v1.25l1.25 13.13c0 3.75-1.25 8.13-3.75 13.12h1.25c10 .84 14.59-3.33 13.75-12.5v-3.12l-3.12-19.38.63-1.25 1.25-1.25 1.87.63 1.25 13.75c3.75 9.17 7.92 13.75 12.5 13.75 2.5 0 4.17-.2 5-.63l3.75-4.37c-6.25-4.17-9.38-11.04-9.38-20.63v-3.12c0-2.08.21-3.75.63-5a8.7 8.7 0 0 1-3.75.62c-5 0-8.96-4.37-11.88-13.12-.83-1.25-1.45-3.12-1.87-5.63m-179.38.63c-2.92.42-4.38 2.08-4.38 5 0 3.75 1.25 5.63 3.75 5.62.84 0 2.3-1.25 4.38-3.75.42-.41.63-1.45.63-3.12 0-2.5-1.25-3.75-3.75-3.75h-.63m130 .62v3.13c0 1.25 1.25 1.88 3.75 1.87 2.08 0 3.12-1.04 3.13-3.12 0-1.67-.42-2.5-1.25-2.5l-5.63.62m-228.12 1.25-6.25 15.63c-.83 2.5-1.67 6.25-2.5 11.25-.83 5-1.46 11.04-1.88 18.12l-.62 6.88v3.75l.63-.63-.63 7.5c0 4.17 1.87 13.34 5.63 27.5l3.12 8.13.63 5.62 3.12 9.38v1.87c0 .84-.2 1.88-.63 3.13 0 .83-.2 2.08-.62 3.75l-.63 5.62-5 8.13a20.74 20.74 0 0 0 8.13 1.87c3.75 0 6.87-1.87 9.38-5.62 2.5-4.17 3.74-8.12 3.75-11.88 0-1.66-.21-2.7-.63-3.12l-3.75-8.13c-.42-.41-.63-1.66-.63-3.75 0-1.25.84-1.87 2.5-1.87h1.88c1.25 1.25 2.3 1.88 3.13 1.87h.62c1.25 0 1.87-.41 1.88-1.25v-3.12l-1.88-16.25c0-3.75-4.58-8.33-13.75-13.75-3.33-2.08-5.2-6.04-5.63-11.88.84-2.08 1.88-3.12 3.13-3.12 2.5 0 4.58 2.08 6.25 6.25 1.67 9.58 8.54 14.58 20.63 15l-2.5-5.63h1.87c8.33.84 12.5-2.5 12.5-10v-3.75l-2.5-5.62-3.75 4.37-2.5 1.88h-4.38l-3.74.62c-7.09.84-12.92-6.04-17.5-20.62-.84-4.17-1.25-7.3-1.25-9.38 0-7.08 1.45-13.33 4.37-18.75l1.25-5c0-.41-1.25-1.04-3.75-1.87l.63-.63-8.13-2.5m435-.62c-2.92 1.25-4.38 2.7-4.38 4.37 0 2.5.84 5.63 2.5 9.38.84 2.08 1.67 5.42 2.5 10a73.9 73.9 0 0 1 1.25 14.37v1.88c0 5.83-.41 10.42-1.25 13.75l-2.5 10.62-1.25 6.25c.42 1.67 1.05 2.5 1.88 2.5 1.25 0 2.3-.62 3.13-1.87l.62-5 2.5-5c2.08-6.25 3.12-14.17 3.13-23.75 0-9.58-.84-16.25-2.5-20l-3.75-11.88-1.88-5.62m-410.62 1.25 1.25 3.12 3.13 1.88 3.75 2.5 1.25-1.25a32.88 32.88 0 0 0-5-3.13 16.7 16.7 0 0 0-4.38-3.12m225.62 3.12h-.63c-.41.42-.62.84-.62 1.25l-.63.63v1.25c0 2.08 1.05 3.13 3.13 3.12 2.5 0 3.75-1.04 3.75-3.12s-1.67-3.12-5-3.13m-233.75 1.88c-3.33 9.17-5 15.2-5 18.12 0 12.92 5.42 19.38 16.25 19.38 7.08 0 10.63-3.33 10.63-10 0-3.75-2.5-7.92-7.5-12.5.83 3.33 1.25 4.8 1.25 4.37 0 2.92-.21 4.8-.63 5.63-2.5 2.5-5 3.75-7.5 3.75-6.67 0-10-4.37-10-13.13 0-.83.2-2.5.63-5a61.64 61.64 0 0 0 1.87-10.62m220 5.62c0 2.92 1.46 4.38 4.38 4.38 2.5 0 3.74-1.87 3.75-5.63 0-2.08-1.05-3.12-3.13-3.12-3.33 0-5 1.46-5 4.37m26.88-1.87-1.88-1.88h-.63c-1.25 0-1.87.84-1.87 2.5 0 2.5.83 3.76 2.5 3.75 1.67 0 2.5-1.25 2.5-3.75l-.63-.62m55 8.75c4.17-.42 6.25-1.87 6.25-4.38 0-2.5-1.25-3.74-3.75-3.75-2.5 0-3.75 1.25-3.75 3.75 0-.41.42 1.05 1.25 4.38m8.13-8.13-1.88 9.38-1.87 3.12-2.5 1.25-1.25 3.13-.63 1.87v.63c0 2.08 1.46 3.13 4.38 3.12.42 0 1.04-.41 1.88-1.25l.62-.62 1.25-10 4.38-8.75v-.63c0-.83-.84-1.25-2.5-1.25h-1.88m86.25 16.25c1.67-.41 2.92-.62 3.75-.62l1.25-.63c1.67 0 4.17 1.05 7.5 3.13 2.92 5.42 4.37 9.58 4.38 12.5v2.5c0 1.25-.21 2.5-.63 3.75 0 1.67.2 2.7.63 3.12l-1.25 8.75 2.5 1.25 2.5-15.62-2.5-15c-2.09-8.33-6.05-12.5-11.88-12.5-4.17 0-6.25 3.13-6.25 9.37m-180.62-7.5c-2.92.42-4.38 2.3-4.38 5.63 0 2.5 1.25 3.75 3.75 3.75 4.59 0 6.88-1.87 6.88-5.63 0-2.5-1.67-3.74-5-3.75h-1.25m170-.62c-1.67 1.67-2.5 3.33-2.5 5 0 1.25.63 4.17 1.88 8.75s1.87 8.54 1.87 11.87c0 9.17-1.46 16.46-4.38 21.88a32.92 32.92 0 0 1-3.12 5 24.9 24.9 0 0 1-3.13 3.75l-3.75 3.75c-4.16 4.17-8.33 7.08-12.5 8.75-9.58 3.75-15.41 5.63-17.5 5.62H520l-.63 1.88v1.25c0 1.67 1.67 2.5 5 2.5 3.75 0 6.25-.2 7.5-.63l13.75-2.5c22.5-4.16 35.63-19.37 39.38-45.62l.63-6.88c0-7.91-2.3-16.04-6.88-24.37m-194.38 2.5a90.87 90.87 0 0 1-9.38 7.5 84.9 84.9 0 0 1-5.62 3.12l-3.75 1.25c-.83 0-1.88.42-3.13 1.25a17.5 17.5 0 0 0 8.75 2.5c9.59 0 14.59-5.2 15-15.62h-1.87m100.62 10.62 6.88.63 1.87-9.38c-.83-.83-1.67-1.25-2.5-1.25-4.17 0-6.25 1.88-6.25 5.63v4.37m-60-4.37a29 29 0 0 0-6.25 18.12v10.63l2.5 5 1.25 1.25 5.63 13.75c-.84.42-1.46.83-1.88 1.25h-.63c-1.25-.42-2.29-2.3-3.12-5.63-5-16.25-14.58-25.2-28.75-26.87.42 2.08 2.7 5 6.88 8.75l2.5 3.75 1.25 2.5 4.37 9.37 3.75 10.63c4.58 5.83 9.17 8.75 13.75 8.75 7.08 0 10.63-2.3 10.63-6.88.41-.41.62-1.25.62-2.5 0-1.66.2-3.12.63-4.37-.42-3.33-.84-6.04-1.25-8.13a19.47 19.47 0 0 0-1.25-4.37l-8.75-20.63c-1.25-2.5-1.88-7.29-1.88-14.37m-16.88 5.62c-3.33 0-5 1.67-5 5 0 3.34 1.88 5 5.63 5s5.62-1.66 5.63-5c0-3.33-2.09-5-6.25-5m93.75.63h-.63c-4.58 0-6.88 1.25-6.88 3.75 0 2.92 1.46 4.38 4.38 4.37 2.5 0 3.75-1.45 3.75-4.37 0-1.67-.2-2.92-.63-3.75m-11.25.62h-1.25c-4.58 0-6.87 1.05-6.87 3.13 0 2.5 1.46 3.75 4.38 3.75 3.74 0 5.62-1.67 5.62-5v-.63l-.63-1.25h-1.25m98.13 9.38-1.88 6.25-1.25 8.75a92.13 92.13 0 0 1-3.12 6.87 68.78 68.78 0 0 1-3.75 8.75l-1.25 4.38a88.04 88.04 0 0 0 7.5-11.25l4.38-10 3.12-12.5c.83-.83 1.67-1.25 2.5-1.25 2.08 0 3.54 1.25 4.38 3.75 2.08-1.25 3.12-2.5 3.12-3.75 0-4.58-2.5-6.87-7.5-6.88-2.08 0-4.17 2.3-6.25 6.88m-215.62-2.5 5.63 14.37a635.8 635.8 0 0 0 1.87 10c.42 2.09.63 2.71.63 1.88v6.87l.62 8.13-.63 7.5v6.87l-2.5 15.63-.62.62-8.13 21.25-10 18.13a117.3 117.3 0 0 0-10.62 12.5l-.63 5 .63 1.25c.83.42 1.46.83 1.88 1.25h.62c.83-.83 1.87-2.5 3.13-5 .41-.42 1.25-1.67 2.5-3.75 1.66-2.08 3.95-4.8 6.87-8.13 16.67-17.91 25-44.16 25-78.75l-.63-4.37-.62-6.25v-6.88l-1.25-6.25c-2.08-9.16-3.33-14.16-3.75-15h-2.5l-7.5 3.13m88.75 9.37v2.5c0 2.5.63 4.59 1.88 6.25l1.25 1.88 1.87 5 6.25 8.75 1.88 2.5 1.25.62 2.5 1.88c1.66 2.92 3.54 4.38 5.62 4.37 3.75 0 5.62-2.08 5.63-6.25 0-.83-1.67-1.87-5-3.12l-4.38-1.25a32.23 32.23 0 0 1-11.25-15.63c-1.25-2.91-3.75-5.41-7.5-7.5m19.38 10.63-3.13-1.88-3.13-5-1.25-.62c-.83 0-1.25.62-1.25 1.87 0 .84.42 1.67 1.25 2.5l2.5 5 1.88 3.13c4.17 2.5 7.5 3.75 10 3.75 6.25 0 9.37-3.75 9.38-11.25 0-3.75-1.25-6.04-3.75-6.88l-3.13-1.25-5 1.88 5 5.62v.63c0 2.5-1.25 3.75-3.75 3.75-.42 0-2.3-.42-5.63-1.25m109.38 13.12-3.12 4.38c-3.75 3.33-5.63 7.92-5.63 13.75 0 2.5.84 5.2 2.5 8.12 4.17 4.17 7.92 6.26 11.25 6.25l3.75-1.25 5.63-4.37 3.13-1.88 5.62-8.75a40.8 40.8 0 0 0 4.38-2.5 40.87 40.87 0 0 0 4.37-3.75c-1.25-5.41-4.38-8.12-9.38-8.12h-1.25l-1.25 2.5c-1.66.42-3.12 2.3-4.37 5.62-1.67 4.59-2.92 7.5-3.75 8.75-.42 1.25-1.04 1.88-1.88 1.88-1.25 0-2.08-.2-2.5-.63-2.08-1.25-3.12-2.5-3.12-3.75v-.62l8.75-13.75v-11.88l-3.75 1.25-1.25-10.62-3.13-1.88.63 9.38c.83 2.08-1.04 6.04-5.63 11.87m-130-10 1.88 7.5 3.75 10c3.33 5.84 5 11.05 5 15.63l-1.88 6.87-1.87 1.25c-4.17 2.92-7.7 4.38-10.63 4.38-2.08 0-4.58-1.46-7.5-4.38l-1.87 6.25c3.75 4.59 7.7 6.88 11.88 6.88 11.25 0 16.87-7.7 16.87-23.13 0-5-1.46-9.58-4.38-13.75l-6.25-8.75-5-8.75m-20 22.5 8.75-5.62-.62 5.62-1.88 3.13 1.88.62.63 5c6.24-2.91 9.37-7.5 9.37-13.75 0-8.33-1.46-12.5-4.38-12.5-2.08 0-4.16 1.05-6.25 3.13l-3.75 5-2.5 2.5-1.25 6.87m81.88-15.62-12.5 24.37-18.13 38.13 5.63-.63c1.67-2.5 2.7-4.58 3.13-6.25a88.4 88.4 0 0 0 1.87-6.25l1.88-3.75 11.25-21.25 5-10.62 3.12-3.75-1.25-10m-278.75 8.12-.63 4.38-.62 31.25-.63 35.62.63 2.5v28.13l3.13-3.13 1.87-93.75-3.75-5m53.75 2.5 1.25 6.25c0 2.5-.2 4.38-.63 5.63h1.25l1.88-8.13-3.75-3.75m-88.13 1.25c-.41.42-1.04 1.46-1.87 3.13l-.63 1.25c0 .42.42.62 1.25.62 2.92 0 4.38-.83 4.38-2.5 0-1.66-1.04-2.5-3.13-2.5m186.25 6.25 1.25 7.5-.62 5.63c-.42 2.92 1.04 4.38 4.38 4.37 2.5 0 5.41-2.29 8.75-6.87l-1.25-1.25.62-3.13c2.08 0 4.17-1.04 6.25-3.12l-10.63 1.25.63-2.5c5.83-2.5 8.75-3.54 8.75-3.13 0-2.5-3.33-3.74-10-3.75-5.83 0-8.75 1.05-8.75 3.13 0 .83.2 1.46.63 1.87m-31.88 6.88a7.77 7.77 0 0 0 2.5-5.63c0-2.08-.83-3.12-2.5-3.12-2.08 0-3.13 1.88-3.13 5.62 0 1.25 1.05 2.3 3.13 3.13m-148.12-6.88-1.25 3.75c0 1.67.42 2.92 1.25 3.75.83 0 1.67-1.04 2.5-3.12v-1.25l-1.25-1.25c0-.42-.42-1.04-1.25-1.88m354.38 0-5 2.5v9.38c.42 10 1.04 22.5 1.88 37.5l-.63 8.75c-.83 2.5 0 3.75 2.5 3.75 2.08 0 3.12-1.87 3.13-5.63v-.62L570 276.66m-366.25 2.5c0 4.17 1.67 6.26 5 6.25.83 0 1.25-.2 1.25-.62 0-3.75-1.88-5.62-5.63-5.63h-.62m229.38 0-2.5 10.63-4.38-10 .63 3.12-3.13.63-1.25-3.75c-4.58 1.67-7.29 5.42-8.12 11.25a16.45 16.45 0 0 0 5 10l8.13 6.87c2.08-2.08 3.74-3.33 5-3.75 6.24-4.16 9.37-9.16 9.37-15 0-4.58-2.92-7.91-8.75-10m128.12 1.25-6.25 3.75-10 3.13-2.5 1.25-15 .62.63 33.75-.63 10.63c0 3.75 2.5 5.63 7.5 5.62h1.25l8.75-.62 18.75-.63v-7.5l-1.25-13.12v-26.88l-1.25-10m-186.88 1.25h-2.5c-2.08 0-3.13 1.46-3.13 4.38 0 3.33 1.25 5 3.75 5 1.67 0 2.5-1.46 2.5-4.38 0-2.5-.2-4.16-.62-5m-18.13 5.63c-1.25 2.5-1.87 4.58-1.87 6.25 0 2.08.83 3.13 2.5 3.12 1.67 0 2.5-1.25 2.5-3.75 0-.41-1.04-2.29-3.13-5.62m223.75.62c-.83 4.17-1.25 6.05-1.25 5.63 0 5 3.13 7.5 9.38 7.5 3.33 0 5-1.04 5-3.13-1.67-1.25-3.96-2.29-6.88-3.12-2.5-.83-4.58-3.12-6.25-6.88m27.5 16.25-3.12 3.13-3.13 2.5-2.5 1.87h-1.87v1.88l-6.25 1.87-1.25 2.5-6.25 4.38c-1.67 1.25-2.5 3.13-2.5 5.62 0 1.67.2 2.92.63 3.75l2.5 2.5 2.5 1.25-.63 2.5-6.88 1.25c-14.58 2.5-23.54 3.76-26.87 3.75h-1.25l-25.63-1.87h-31.25c-2.91 0-4.58 1.46-5 4.37l75 1.88c2.5 0 6.25-.42 11.25-1.25 5-.83 8.55-1.25 10.63-1.25 1.67 0 2.5.62 2.5 1.87v2.5l-2.5 3.75v.63c0 1.25.83 2.92 2.5 5s3.12 3.13 4.38 3.12l9.37 3.13 6.25 3.12 2.5 5.63-3.13 6.25 5 1.25c3.34 0 5-3.12 5-9.38 0-1.25-.62-2.5-1.87-3.75l-5-4.37v-1.25h3.13c3.74 0 5.62-1.04 5.62-3.13 0-4.16-2.7-6.24-8.13-6.25h-.62l-11.25.63c-1.67 0-2.5-1.04-2.5-3.13 0-1.25 1.25-1.87 3.75-1.87l15-1.25 1.25-.63c.42-.41.63-1.04.63-1.87 0-.42-.84-1.04-2.5-1.88-1.25-.83-1.88-1.66-1.88-2.5 0-.41.2-.83.63-1.25l6.25-3.12 3.75-8.13-6.25-1.87c-2.92-1.67-5.42-2.5-7.5-2.5-1.25 0-5.84 1.67-13.75 5v-4.38l10-3.12c2.5-.42 6.24-3.54 11.25-9.38-3.34-.83-5-2.08-5-3.75 0-1.25 1.25-2.5 3.75-3.75 2.5-1.66 3.74-3.33 3.75-5-.42-4.16-1.46-6.66-3.13-7.5l-3.13-1.87-6.25 14.37m-394.38-12.5-1.25 1.88v.62c0 2.09 1.05 3.13 3.13 3.13 1.25 0 1.87-.63 1.88-1.88l-.63-.62c0-.83-.2-1.46-.63-1.88l-2.5-1.25M365 306.04l1.88 10c1.67-3.33 2.5-7.5 2.5-12.5 0-7.5-1.25-11.25-3.75-11.25-1.67 0-2.5.83-2.5 2.5 0-.42.63 3.33 1.88 11.25m-161.88-10.63-2.5 2.5h-1.25c-1.67 0-2.5.42-2.5 1.25 0 .42.62.84 1.87 1.25 1.67 2.5 5.2 5.84 10.63 10 2.08 3.34 4.79 5.21 8.12 5.63.83-4.17 1.25-6.67 1.25-7.5 0-2.5-1.67-4.37-5-5.63l-2.5-1.25-8.13-6.25M575 308.54c3.75-1.67 5.63-3.33 5.63-5 0-2.08-1.46-3.96-4.38-5.63-1.25 0-1.87 1.67-1.87 5 0 2.92.2 4.8.63 5.63m-59.38-3.13.63 4.38c0 1.67-1.05 4.17-3.13 7.5-4.58 2.08-11.25 4.38-20 6.87-17.5 1.67-26.88 3.96-28.13 6.88 4.17-.42 10.21-1.04 18.13-1.88 25.83-2.08 38.75-8.95 38.75-20.62 0-6.25-2.3-9.37-6.88-9.38-2.08 0-3.12.84-3.12 2.5 0 1.25 1.25 2.5 3.75 3.75M340 304.8c-3.75 2.08-5.63 5.63-5.63 10.62 0 2.5 1.05 4.8 3.13 6.88 1.25-6.67 4.17-10 8.75-10h1.25l.63.62.62 1.88h1.88c1.66 0 2.91 1.04 3.75 3.12l.62 2.5v5.63c.42 4.17-.83 8.96-3.75 14.37l-3.13 4.38-3.12 5.62 2.5-1.25 2.5-3.12 7.5-11.25c2.92-4.17 4.37-9.8 4.38-16.88 0-10.83-5.63-16.25-16.88-16.25l-.63.63-4.37 2.5m-141.25 3.12a42.52 42.52 0 0 0 5.63 12.5c1.25 2.09 1.87 3.55 1.87 4.38 0 2.92-1.25 5-3.75 6.25l-.63.62-1.87-.62-6.88-5c-.41.42-.62 1.04-.62 1.87 0 6.26 2.92 9.38 8.75 9.38 7.5 0 11.25-3.12 11.25-9.38 0-6.66-4.58-13.33-13.75-20m179.38 18.75-3.75 6.88c-3.33 4.58-6.04 8.33-8.13 11.25-1.66 2.92-2.91 4.8-3.75 5.62-.41.84-1.04 1.88-1.87 3.13-.83.83-1.67 2.08-2.5 3.75a22.1 22.1 0 0 0-4.38 8.12l4.38-4.37a46.95 46.95 0 0 0 4.38-5c16.25-26.67 28.33-40 36.25-40 1.25 0 2.29.42 3.12 1.25a76.2 76.2 0 0 0 5 3.75c1.67.42 2.7.83 3.13 1.25.41-.42.62-1.25.62-2.5 0-7.08-5-10.63-15-10.63-2.08 0-4.17 1.05-6.25 3.13l-4.38 5.62-3.12 2.5-3.75 6.25m46.88 10.63-8.75 5.62-3.75 2.5-8.75 3.75-5 1.88-11.88 6.25-6.88 4.37-7.5 6.88-10.62 10.62c0 2.09.63 4.59 1.88 7.5l1.87 2.5 2.5 4.38 1.88 4.37 6.87-1.87 5.63-2.5c4.16-.83 7.5-1.25 10-1.25 9.16 0 15.83 3.33 20 10l1.25 10.62c4.58-3.33 6.87-7.7 6.87-13.12v-1.88l-3.13-5.62 5.63-2.5-1.88-3.75-4.37-2.5-2.5-1.25c-5.42-2.08-8.54-3.12-9.38-3.13l-1.87.63a51 51 0 0 0-6.25.62h-5v-1.87c7.08-1.25 13.33-1.67 18.75-1.25h.63l12.5 1.25 1.87-.63-1.88-4.37 9.38-1.88c.83 0 3.54-3.74 8.13-11.25l-11.25-5c-.84 0-1.67.63-2.5 1.88-.84.83-1.46 1.25-1.88 1.25-1.67 0-2.5-.63-2.5-1.88 0 .42.42-.62 1.25-3.12l-1.88-1.88-6.25-.62c-1.25 1.25-2.29 1.88-3.12 1.87l-4.38.63-.62 1.25-3.13 1.87-3.12 3.75-2.5-1.25c5.83-5.83 9.58-8.74 11.25-8.75l14.38-.62 3.12-1.88 8.75-5.62c2.92-.83 5.83-3.96 8.75-9.38 2.08-3.33 3.12-6.66 3.13-10 0-2.08-.84-4.79-2.5-8.12-1.67-3.75-3.55-5.62-5.63-5.63-1.25 0-1.88 1.46-1.88 4.38 0 1.25.21 2.08.63 2.5v2.5l-1.25 2.5-4.38 8.75-8.75 7.5m-1.87-25.63c-10.42 15.84-21.25 27.09-32.5 33.75l-10 5.63-15 11.87c-1.25.84-2.7 2.09-4.38 3.75a68.38 68.38 0 0 0-4.37 6.88l1.88 1.25 8.12-6.88 15.63-12.5 6.25-3.12 13.75-11.25 9.37-7.5 5.63-7.5 5-4.38 4.37-8.75-3.75-1.25m-103.75 4.38c-.42.42-.63 1.04-.63 1.87 0 1.25.63 2.71 1.88 4.38l1.88 1.87 11.25 22.5 60 113.75 1.25-5v-.62l-3.13-5-4.38-9.38-17.5-32.5-47.5-91.87c-.41-.42-1.04-.63-1.87-.63H320l-.62.63m-7.5 3.12-3.75 1.88c-5 3.75-10.2 6.04-15.63 6.87-2.91 0-4.79.21-5.62.63-.83 0-2.5.62-5 1.87l3.75 5.63 2.5 4.37 6.88 12.5 87.5 171.25 3.75 1.25 41.87-82.5 37.5-78.12h-6.88l-4.37.62h-5c-3.75.42-6.46 2.09-8.13 5-1.25 2.5-2.7 5.21-4.37 8.13a856.27 856.27 0 0 1-22.5 49.37c-6.67 14.17-13.33 26.46-20 36.88h-3.13l-10.62-20L320 327.29c-2.08-5.83-3.95-8.75-5.62-8.75l-2.5.62m64.38 30c.83-.83 2.08-1.66 3.75-2.5a56.9 56.9 0 0 0 6.25-4.37l5-2.5c3.33-1.67 6.04-4.58 8.12-8.75l.63-1.25c0-4.58-2.09-6.87-6.25-6.88l-1.25.63-2.5 2.5 3.12 3.12c.42.42.63.84.63 1.25 0 2.09-3.13 5.21-9.38 9.38l-3.75 3.75a230.5 230.5 0 0 1-4.38 5.62m66.88-8.75v1.88l66.88-8.75c9.16-1.25 13.75-3.12 13.75-5.63 0-2.5-1.25-3.74-3.75-3.75h-1.25c-2.09.84-4.8 1.67-8.13 2.5-3.33.84-7.08 1.67-11.25 2.5l-30 3.13-15.63 2.5H450c-1.66.83-3.95 2.7-6.87 5.62m-163.12 10c.42.42.63 1.25.63 2.5 0 .84-.42 1.67-1.25 2.5-2.5 2.5-4.8 3.76-6.88 3.75-2.92 0-5-3.33-6.25-10-1.67 1.25-2.5 2.71-2.5 4.38v6.87l.63 2.5c2.91 4.17 5.41 6.26 7.5 6.25l10-.62 4.37 4.37h3.13c1.25-5 1.87-8.74 1.87-11.25 0-2.91-.83-5.83-2.5-8.75l-3.13-6.87c-3.75-9.17-12.5-13.75-26.25-13.75-.83 0-1.25.2-1.25.62.84 1.25 3.55 2.3 8.13 3.13 7.08 1.25 11.67 6.04 13.75 14.37m-113.75-3.12c.42 6.67 1.87 11.46 4.38 14.37 2.91 2.92 9.37 7.09 19.37 12.5.42-.41.63-1.66.63-3.75 0-.83-.84-1.45-2.5-1.87l-11.88-8.75c-3.33-5.83-5-10-5-12.5 0-5 2.08-7.5 6.25-7.5l2.5.62 12.5 3.75c2.08 0 3.12-.62 3.13-1.87 0-1.25-1.25-2.5-3.75-3.75-4.59-2.5-8.55-3.75-11.88-3.75-7.92 0-12.5 4.17-13.75 12.5m30.63 7.5 6.25-5c3.74-2.92 6.66-4.8 8.75-5.63l3.75-1.87a7.29 7.29 0 0 0 1.87-1.25l.63-1.25c.41-.42.62-1.04.62-1.88 0-1.25-.83-1.87-2.5-1.87s-3.96.83-6.88 2.5l-8.75 6.25c-10 6.25-15 11.46-15 15.62 0 2.09 1.05 3.13 3.13 3.13.83 0 1.46-.2 1.88-.63l6.25-8.12m53.75-14.38v6.88l2.5 3.12c.41.42.62 1.67.62 3.75 0 2.92-1.25 6.46-3.75 10.63-.83 2.92-2.7 5.2-5.63 6.87a77.82 77.82 0 0 1-11.25 8.13 124.25 124.25 0 0 1-13.12 5.62v2.5c0 1.67.63 2.5 1.88 2.5l5-3.12 12.5-5.63c12.5-5.41 18.75-14.37 18.75-26.87 0-6.25-2.5-11.04-7.5-14.38m233.12-.62c-2.09.42-3.55 1.88-4.38 4.37l-1.88 5h2.5c1.67 0 3.55-2.91 5.63-8.75l-1.88-.62m-13.12 1.25-16.25 2.5-.63 1.87c-1.25 1.25-1.87 2.3-1.87 3.13 0 .83.42 1.67 1.25 2.5 2.08-.42 4.17-.63 6.25-.63H468.76c4.58.84 7.5-2.08 8.75-8.75l-6.88-.62m-22.5 5.62-1.25-.62-1.88.62-6.25.63-5 1.87-.62.63-.63 1.25c0 .42.42 1.04 1.25 1.87l7.5-1.87h5l1.88-4.38m80 4.38.63 13.75 1.25 41.25 1.25 63.12v6.88c.41 2.92.83 6.67 1.25 11.25.41 2.08.62 3.96.62 5.62v12.5c0 29.17-10.63 44.38-31.88 45.63-4.16.42-6.25 1.67-6.25 3.75 0 2.5 4.38 3.75 13.13 3.75h6.88l43.12-.63 41.25 1.25 3.13-.62 6.25-.63c1.25 0 1.87-1.04 1.87-3.12 0-2.92-3.54-4.8-10.63-5.63-21.66-.41-32.91-15-33.75-43.75l-2.5-153.12-35.62-1.25m41.25 0-1.25 65.63.63 39.37 1.87 55.63a58.77 58.77 0 0 0 9.38 25l2.5 2.5-7.5-25.63-2.5-82.5-.63-78.75-2.5-1.25m-115.62 3.13h-4.38l-3.12 1.25-1.88.62 1.88 1.88v3.75a261.7 261.7 0 0 1 16.88-1.88c5.41-.41 10.83-.62 16.25-.62 17.5 0 32.29 1.88 44.37 5.62.42-.83.63-2.29.63-4.37 0-5.83-13.75-8.54-41.25-8.13h-6.88l-22.5 1.88m-248.75 0-3.13 3.12c5 6.26 6.67 9.38 5 9.38 2.09 0 3.13-.42 3.13-1.25l-1.25-2.5c-.83-2.08-2.08-5-3.75-8.75m5 1.25 1.25 3.75 1.88 3.75c.83 3.33 1.25 4.8 1.25 4.37 0 2.5-1.46 3.96-4.38 4.38-4.17.83-6.46 1.46-6.88 1.87-.41.42-.83 1.67-1.25 3.75 10.42-1.25 15.63-6.04 15.63-14.37 0-3.75-2.5-6.25-7.5-7.5m-13.13 30 1.25-.63v-9.37c2.09-6.25 3.13-9.17 3.13-8.75 0-2.08-.63-3.12-1.88-3.13l-5 11.88c0 3.33.84 6.67 2.5 10m273.13-21.88-30 60.63-1.88 3.75a27.66 27.66 0 0 0-2.5 5l-4.38 10.62L415 474.8l-18.75 37.5-5 9.38-5.62 7.5c0 1.67 1.46 2.5 4.38 2.5.83 0 1.45-.2 1.87-.63l82.5-166.88-4.38-.62m46.88 24.37 3.13 3.75.62-4.37c0-5.42-2.3-10.2-6.88-14.38-4.58-4.16-9.79-6.24-15.62-6.25-3.75 0-7.3 1.46-10.63 4.38-3.33 2.5-5 5.63-5 9.37 0 2.09.84 3.13 2.5 3.13l1.25-1.25 2.5-5.63c2.09-3.33 5.63-5 10.63-5 9.17 0 15 5.42 17.5 16.25m78.75-19.37c-1.67 5.42-4.8 8.13-9.38 8.12h-1.87l-8.13-1.87c.84 4.58 6.46 6.88 16.88 6.87 2.5 0 4.8-1.87 6.88-5.62l1.25-2.5-5.63-5m-423.12 43.12c2.92-.41 4.37-2.08 4.38-5v-.62l-.63-14.38 5-15.62c-.83-2.08-2.08-3.12-3.75-3.13-.42 0-.83.21-1.25.63l-3.13 8.12-1.87 7.5c-.83 2.5-1.25 3.96-1.25 4.38 0 5 .83 11.04 2.5 18.12m81.25-15.62 6.25 8.12 8.75 5.63a8.11 8.11 0 0 1 4.38 7.5c0 4.58-3.34 8.13-10 10.62l.62 1.88c8.33-1.25 12.5-4.8 12.5-10.63v-2.5l-1.25-6.87-13.75-13.75a6.76 6.76 0 0 1-1.88-5c0-5.42 2.71-8.12 8.13-8.13 2.5 0 5.62 1.25 9.38 3.75l3.12 3.75 3.13 3.75c.41 1.67.62 2.92.62 3.75.42.84.63 1.67.63 2.5l.62 6.25.63 6.88-3.13 18.75v10.62l-1.88 3.13-1.87 14.37v6.88l2.5 1.87 11.25 9.38v-1.25c.42-1.25.63-3.12.63-5.63v-1.87c0-3.75 1.45-5.83 4.37-6.25v5c0 1.67-.42 3.96-1.25 6.87-.42 2.5-.63 4.38-.63 5.63s.84 2.5 2.5 3.75l4.38 6.87h2.5l1.25-4.37 6.88-11.25c.41-.42.62-1.87.62-4.38v-3.12c0-1.67.2-3.33.63-5l-1.88-.63-3.75 3.13c-.42-.83-.63-2.3-.63-4.38 0-1.66.84-5.41 2.5-11.25 1.67-6.24 2.5-11.45 2.5-15.62 0-6.25-1.25-12.3-3.75-18.13-5 4.59-7.5 8.34-7.5 11.25 0 5.42-.83 8.13-2.5 8.13-1.66 0-2.7-.63-3.12-1.88v6.88c-.42 9.17-1.88 13.75-4.38 13.75-1.25 0-2.08-.83-2.5-2.5l-.62-3.13 1.88-11.87 11.87-21.88c2.5-4.16 3.75-9.58 3.75-16.25 0-4.58-2.08-10.2-6.25-16.87l-3.13 1.87-1.87 4.38-3.75 2.5c-3.75-10.83-11.88-16.25-24.38-16.25-10 0-15 4.8-15 14.37 0 1.67.63 3.96 1.88 6.88m-53.75 43.75c1.67 1.67 2.92 2.5 3.75 2.5 1.25 0 2.08-1.46 2.5-4.38.42-1.25 1.87-4.37 4.38-9.37 4.16-7.92 6.24-19.58 6.25-35 0-10.83-1.25-16.25-3.75-16.25-2.09 0-2.71 1.25-1.88 3.75v.62l1.25 18.75-2.5 12.5-3.75 12.5c-1.25 6.26-3.33 11.05-6.25 14.38m296.88-40v.62c.83 2.09 1.46 3.13 1.88 3.13 5 0 7.5-4.37 7.5-13.13 0-3.33-.63-5.62-1.88-6.87l-3.13-3.13.63 5v.63c0 4.58-1.67 9.17-5 13.75m-253.75-16.25-1.88 5.62v21.88l-.62 92.5h3.75l2.5-119.38-1.88-1.88-1.87 1.25m333.75 0c-.42.84-.63 2.5-.63 5 0 1.67 2.5 4.59 7.5 8.75l1.88 1.88c.83.42 1.87 1.25 3.13 2.5l.62 1.87 3.13 3.75 3.75 4.38c2.91-.42 4.37-1.25 4.37-2.5 0-5-6.04-12.3-18.13-21.88-1.25-.41-3.12-1.66-5.62-3.75m-88.75 28.13-1.25-2.5-1.88-.63h-1.25l-5.62 3.13-5 1.25c-4.58 0-6.88-2.08-6.88-6.25 0-3.33 1.05-5.83 3.13-7.5a174.9 174.9 0 0 1 7.5-5.63l6.88-1.87c2.08-.42 3.74-.63 5-.63a10.2 10.2 0 0 1 2.5-.62h1.25l2.5.62c1.25 0 2.29-1.25 3.12-3.75-3.33-.83-5.63-1.25-6.88-1.25-19.58 0-29.37 7.09-29.37 21.25 0 6.67 4.17 10 12.5 10 4.58 0 9.17-1.87 13.75-5.62m-249.38-22.5-.63-1.25-10 3.75-6.25 2.5-1.25 6.25-.62 6.87-.63 50.63.63 46.87 17.5-1.87v-70l1.25-43.75m-61.88 26.25-3.12 5.62c-5.42 7.92-8.13 14.8-8.13 20.63 0 12.92 4.8 19.37 14.38 19.37 9.58 0 14.38-2.7 14.38-8.12 0-1.25-.84-2.08-2.5-2.5-4.59 3.75-8.13 5.63-10.63 5.62-7.08 0-10.63-4.37-10.63-13.12s5.42-19.17 16.25-31.25l5.63-5 7.5-5c2.5-1.67 5.2-3.54 8.13-5.63v-5.62l-1.25-.63v.63c-.84.42-2.5 1.46-5 3.12l-9.38 7.5c-2.5 2.09-5 4.38-7.5 6.88-2.5 2.08-5.2 4.58-8.13 7.5m333.75-25-.62 4.37.63 1.25 6.87 5c1.67 1.25 2.5 2.5 2.5 3.75 0 2.92-.63 5.84-1.88 8.75-5.41.42-8.12 2.09-8.12 5 .42.42 1.04.63 1.88.63 1.25 0 2.08.2 2.5.62 7.08 0 10.62-4.58 10.62-13.75 0-5.83-4.8-11.04-14.38-15.62m97.5.62-4.37.63c-4.17.42-6.25 1.46-6.25 3.12.42.42.63.84.63 1.25 0 .84.2 1.46.62 1.88l1.88 2.5 7.5 5v1.25c.41 5.42-3.55 8.75-11.88 10l-5-.63.63-2.5c0-2.5-.84-3.95-2.5-4.37l-1.25-1.88a15.93 15.93 0 0 0-3.75-3.75l-3.13 3.13c-1.25 3.75-1.88 6.67-1.88 8.75 0 8.33 4.38 12.5 13.13 12.5 6.67 0 13.13-2.5 19.38-7.5 6.24-5 9.37-10.63 9.37-16.88 0-6.24-4.38-10.41-13.13-12.5m-122.5 4.38c1.67 11.25 5.42 16.87 11.25 16.87 2.09 0 3.13-.83 3.13-2.5v-.62l-6.88-6.25-3.12-6.88-2.5-.62h-1.88m26.25 7.5-1.87 2.5v2.5c-.83 1.25-2.5 2.3-5 3.12-3.33 2.5-9.58 6.26-18.75 11.25-15.42 4.17-24.38 7.3-26.88 9.38l-5.62 4.37 3.75-.62 10.63-4.38 21.25-4.37 9.37-5c3.75-2.5 5.83-3.96 6.25-4.38l10-10.62c.42 0 .63-.42.63-1.25 0-.83-1.25-1.67-3.75-2.5m111.88 1.25c-1.67 8.33-5.84 14.8-12.5 19.37a37.44 37.44 0 0 1-21.25 6.25c-4.59 0-8.96-3.12-13.13-9.37l1.25 6.87c4.17 4.17 8.96 6.26 14.38 6.25 7.08 0 13.95-2.29 20.62-6.87 7.08-5 10.63-10.63 10.63-16.88v-5.62m-245.63 9.37 1.88 3.75h4.38l3.12.63c7.08 2.08 10.63 6.67 10.63 13.75-2.92 2.92-4.38 6.04-4.38 9.37 0 1.67.63 3.96 1.88 6.88l1.87-5.63 3.75-3.12c2.5-2.08 4.37-5.42 5.63-10l-1.25-6.88-3.75-4.37 1.87-5.63c.83-1.66-2.08-2.7-8.75-3.12l-3.75-.63-6.25-.62-6.88 5.62m-62.5 7.5 1.88-1.25.63-3.12 1.25-1.88c.41-.41.62-1.04.62-1.87 0-.83-.2-1.25-.63-1.25l-1.87-.63-1.88 10m-60.62-5.62c-1.67 0-2.5 1.25-2.5 3.75 0 2.92 1.25 4.38 3.75 4.37 3.33 0 5-1.45 5-4.37 0-2.5-1.88-3.75-5.63-3.75h-.62m-72.5 7.5c-1.25 3.33-1.88 5.63-1.88 6.87 0 1.67 2.09 4.59 6.25 8.75.42.42 1.05 1.25 1.88 2.5l3.75 3.75c5 5.84 12.92 11.05 23.75 15.63v-5.63a43.75 43.75 0 0 0-6.25-3.12 14.53 14.53 0 0 1-3.75-2.5c-6.67-3.75-13.13-10.2-19.38-19.38l-4.37-6.87m318.12 5.62 6.88 3.13 6.87 3.75a8.3 8.3 0 0 0 5 1.87c5 0 7.5-2.7 7.5-8.12 0-4.58-1.46-6.87-4.38-6.88-.83 0-1.25.63-1.25 1.88v.62l.63 1.25v.63c0 2.92-2.3 4.38-6.88 4.37-.41 0-2.5-.41-6.25-1.25a35.16 35.16 0 0 0-8.12-1.25m-186.88 28.75 3.13 1.25 1.87 8.75 5-17.5 6.25-13.75v-2.5c0-5-1.46-7.5-4.38-7.5-2.5 0-4.37 2.71-5.62 8.13l-.63 4.37-3.75 11.88-1.87 6.87m-62.5-21.25c1.25 2.09 2.5 3.13 3.75 3.13 2.92 0 4.37-1.46 4.38-4.38 0-2.91-1.67-4.37-5-4.37-2.92 0-3.96 1.25-3.13 3.75v1.87m358.12 0 .63 3.13 6.87 30.62.63 10.63v5.62c0 11.25-.63 19.38-1.88 24.38l-3.13 10-2.5 10-3.12 7.5c-2.5 3.33-3.75 5.63-3.75 6.88s2.08 2.08 6.25 2.5c10-20.42 15-42.09 15-65 0-13.76-1.25-25.63-3.75-35.63-2.5-10.42-5.42-15.63-8.75-15.63-2.08 0-3.13.84-3.13 2.5 0 1.25.21 2.09.63 2.5m-183.12 35c-8.33 12.09-12.5 23.96-12.5 35.63v4.37c.83 9.17 2.7 18.34 5.63 27.5l3.75 10 1.25.63 6.25 11.25-1.25-5-.63-6.88-3.13-7.5-.62-5-4.38-21.25V500.41c-.41-1.25-.2-3.33.63-6.25.83-2.92 1.25-4.8 1.25-5.63l4.38-9.37-1.25-5 1.87-1.88h3.75l1.25-3.12 7.5-8.75 1.88-3.13 5.62-3.75 6.88-6.25 3.75-1.25 11.25-5.62c2.5-1.25 6.87-1.87 13.12-1.88 7.08 0 14.8 2.92 23.13 8.75l1.87 2.5 1.88 3.13 1.87 6.87c-2.08 5-5 8.34-8.75 10l-.63 1.88c-2.5-1.25-3.75-2.7-3.75-4.38l.63-2.5c0-7.08-3.33-11.45-10-13.12a17.5 17.5 0 0 0-8.75-2.5c-1.25 0-3.13.42-5.63 1.25-2.5.83-4.16 1.25-5 1.25-1.66.42-2.91.83-3.75 1.25h-1.25l-1.87 1.87-1.88.63-3.75 3.12-4.37 1.25-10 8.75-2.5 1.25-2.5 3.13c.42.42 1.46.62 3.13.62 2.08 0 4.58-.83 7.5-2.5 1.25.84 1.87 1.67 1.87 2.5 0 0-.2.42-.63 1.25 0 .42-.2 1.25-.62 2.5l6.25-.62 8.13-5c1.66-1.67 4.58-2.5 8.75-2.5 4.16 0 6.24 1.46 6.25 4.37 0 1.25-1.05 2.92-3.13 5l-6.25.63-3.75-.63c-2.08 0-4.38 2.3-6.88 6.88l-1.25 5h6.88l-.63 3.75-1.87 4.37 1.25 8.75c2.08 3.34 3.12 6.05 3.13 8.13 0 1.67-.63 3.96-1.88 6.88h4.38c2.5.83 4.79-.84 6.87-5l.63 1.87c2.08-2.08 6.04-4.58 11.87-7.5v3.12l5-4.37 3.13-11.88c1.25-5.41 3.74-8.12 7.5-8.12 1.25 0 2.91 1.25 5 3.75l1.25 6.25-3.13 4.37-1.88 3.13-1.87 1.25v3.12l5-.62-2.5 7.5c-.83 3.33-1.25 5.63-1.25 6.88v6.87l-.63 5.63 1.88-1.25 1.88.62c1.66-7.08 5.2-13.54 10.62-19.38 2.92-2.91 4.37-5.2 4.38-6.87 0-1.25-.21-2.08-.63-2.5-.83 2.08-1.88 3.13-3.13 3.12-.41-.41-.62-1.04-.62-1.87v-.63c0-.41.63-1.66 1.88-3.75 1.66-2.08 2.5-6.66 2.5-13.75v-1.25c.41-.41 1.25-.62 2.5-.62.83 0 1.25 1.25 1.25 3.75v1.25c.41-.83.62-3.12.62-6.88 0-1.66-.83-3.33-2.5-5l-4.38-1.25-2.5-.62-.62-2.5c4.58-4.58 6.87-9.58 6.88-15 0-5.83-.84-9.58-2.5-11.25l-7.5-10c-2.09-2.08-3.34-3.12-3.75-3.13l-15.63-5.62c-3.33-.83-5.42-1.25-6.25-1.25l-7.5 1.25h-6.25c-15.42 0-31.25 12.3-47.5 36.87m179.38-35-1.88 6.25 1.25 6.88c2.5 15 3.75 20.83 3.75 17.5l-.62.62-1.25 4.38-1.25 6.87-4.38 6.25-1.25 1.25c-3.33 2.09-5.62 3.13-6.87 3.13s-2.92-1.25-5-3.75c-1.67-2.92-2.5-5-2.5-6.25 0-2.92.63-4.8 1.88-5.63l9.37-8.75a8.48 8.48 0 0 0 2.5-6.25c0-7.91-3.33-11.87-10-11.87l-6.25 1.25 7.5 7.5.63 8.12-10 9.38c-1.67 1.67-2.5 3.96-2.5 6.87 0 2.5 1.25 5.84 3.75 10 1.25 2.92 3.33 4.38 6.25 4.38h1.25a19.7 19.7 0 0 0-3.13 10.62c16.67-3.74 25-15.41 25-35 0-1.66-.42-3.95-1.25-6.87-.42-2.92-1.04-6.67-1.88-11.25v-5.63l-1.87-3.75-1.25-6.25m-338.12 2.5c-2.5 2.09-3.75 3.96-3.75 5.63 0 5 .83 7.5 2.5 7.5l.63-.63c3.33-2.08 5-5 5-8.75 0-.83-.21-1.45-.63-1.87l-3.75-1.88m64.38 6.88-5 8.75-1.25 6.25-3.13 10 1.25 4.37 1.25-6.25c2.5-8.33 5-14.37 7.5-18.12l3.13-3.75c.41-.42.62-1.04.62-1.88v-.62l-1.88-1.88-2.5 3.13m-80 3.75c-1.25 3.33-1.87 5.83-1.87 7.5 0 2.08.2 3.75.62 5a20.94 20.94 0 0 0 15 10.62l1.25 2.5c-7.5.84-12.91 3.76-16.25 8.75-1.25 2.09-1.87 3.76-1.87 5 0 3.76.2 6.26.62 7.5l2.5 1.88c1.67-10.42 7.5-15.63 17.5-15.63 5.84 0 11.05 2.3 15.63 6.88l3.13 2.5c5.41 5.42 9.79 12.7 13.12 21.87l1.88 10.63-.63 12.5 1.88-.63c.41-2.08.62-3.95.62-5.62.42-2.08.63-3.75.63-5 0-6.25-.84-11.04-2.5-14.38l-2.5-5.62-1.88-5.63-4.38-8.75c-2.91-5.41-7.29-10.62-13.12-15.62l-1.88-1.25-1.87-1.88-5.63-4.37-12.5-5.63c-2.5-.41-5-4.79-7.5-13.12m-82.5 21.25a8.48 8.48 0 0 0-2.5 6.25c0 5.42 2.5 8.13 7.5 8.12h1.88c6.67-1.66 10.83-3.33 12.5-5l1.87-1.87c.84-.83 3.96-2.3 9.38-4.38 1.67-.41 3.54-1.45 5.62-3.12-9.16 2.08-15.62 4.17-19.37 6.25-3.33 2.08-5.83 3.13-7.5 3.12-3.75 0-6.88-3.12-9.38-9.37m80.63-1.25-.63 5 5-1.25-4.37-3.75m-82.5 50.62-1.25 5.63c-.42 1.25-.63 3.33-.63 6.25v6.25c0 5.42 1.25 13.13 3.75 23.13l1.88 6.87 3.12 3.75 6.88 8.75 5.62 5c11.25 10 23.55 15 36.88 15 22.92 0 38.12-8.54 45.62-25.63l1.25-2.5c.42-1.25.84-2.29 1.25-3.12h-5a40.46 40.46 0 0 1-7.5 10.63l-.62 1.87c-2.08 1.67-3.96 2.7-5.63 3.13-7.91 4.58-12.08 7.08-12.5 7.5-2.91 1.66-7.5 2.5-13.75 2.5h-3.12c-24.58.83-40.83-10.42-48.75-33.75l-1.25-2.5c0-.84-.42-2.09-1.25-3.75-1.67-4.59-2.5-10.21-2.5-16.88 0-5.83 1.25-12.7 3.75-20.63 2.5-7.91 7.92-16.66 16.25-26.25l3.12-3.12 3.75-1.88 8.13-3.75 9.37-3.12c.42-.42.63-1.46.63-3.13 0-1.66-1.04-2.5-3.13-2.5-1.66 0-5.2 1.25-10.62 3.75l-7.5 4.38-5.63 5-10 11.87-3.12 3.13c-2.08 2.08-3.96 6.04-5.63 11.87l-1.87 6.25m161.88-41.25-2.5 6.25a11.37 11.37 0 0 1-5-3.75l-3.13-3.12c-8.33 10.83-12.5 18.96-12.5 24.37v3.13c0 2.08.21 4.17.63 6.25l3.13 10.62 1.25 2.5.62 3.13c1.25 5 1.87 8.54 1.88 10.63 0 3.33-2.3 6.66-6.88 10 .42.41 1.67.62 3.75.62 1.67 0 2.7-1.46 3.13-4.38 2.08 0 3.12.42 3.12 1.25 0 2.09-1.25 3.96-3.75 5.63l4.38.63c-1.25 2.91-3.13 4.37-5.63 4.37-2.92 0-4.8-.2-5.63-.63l1.25-3.12c-3.75-1.25-5.62-2.7-5.62-4.38.42-.41 1.25-.62 2.5-.62-5.42-5.42-8.13-13.75-8.13-25v-3.75c0-2.5.21-4.37.63-5.63l-6.25-10.62c.42.83.63 2.5.63 5 0 1.25-1.25 2.08-3.75 2.5-.42-.83-.63-3.33-.63-7.5l-.63-5.63c-.83-2.08-3.12-4.37-6.87-6.87v3.12l1.25 13.75 1.25 10 1.25 8.75 2.5 10c2.5 9.17 6.87 16.46 13.13 21.88 2.91 4.17 7.7 6.25 14.37 6.25 11.25 0 16.88-6.88 16.88-20.63l-1.25.63c-2.09 6.25-3.34 9.38-3.75 9.38-1.25 0-1.88-.63-1.88-1.88l1.25-6.25v-15c2.5.83 3.96 3.33 4.38 7.5.41-.42.62-1.46.62-3.13 0-2.08-.63-5.41-1.88-10-.83-4.58-1.25-8.12-1.25-10.62 0-18.33 5-27.5 15-27.5 7.92 0 11.88 2.08 11.88 6.25 0 .42-.42 2.3-1.25 5.62-.83.84-5 2.92-12.5 6.25-2.08.42-3.96 2.5-5.63 6.25-1.25 3.34-1.87 6.05-1.87 8.13v3.75c.42 1.25.83 2.92 1.25 5l.63 1.25 1.87 3.13c4.17 3.75 7.7 5.62 10.63 5.62 3.74 0 5.62-1.25 5.62-3.75 0-1.25-.2-2.08-.63-2.5-.83.42-2.7.63-5.62.63-5.42 0-8.13-2.92-8.13-8.75 0-6.67 1.25-10.63 3.75-11.88l13.13-6.25c3.33-2.08 5-6.04 5-11.88 0-6.24-2.7-12.08-8.13-17.5-5.41-2.08-8.95-3.12-10.62-3.12-4.58 0-8.33 1.88-11.25 5.62m105-5-5.63 1.25 3.13 6.88 6.88 3.12.62 6.25 5.63-.62 2.5-2.5 1.25 3.12-1.88 10.63c0 1.25.42 4.17 1.25 8.75 1.25 4.58 1.87 7.92 1.88 10 0 3.33-2.3 8.54-6.88 15.63.83.41 2.7.62 5.63.62 3.74 0 5.62-1.25 5.62-3.75l-.63-6.88 2.5-2.5.63-1.25v-1.87c0 .42-.42-1.04-1.25-4.38l-3.13-5c-2.08-3.33-3.12-7.5-3.12-12.5 0-2.08.63-4.37 1.88-6.87l1.87-3.75 2.5-6.25H444.4l-1.88-5.63c-.83.42-2.29.63-4.37.63-1.25 0-2.5-1.04-3.75-3.13m-240.62 19.38-2.5 2.5a7.29 7.29 0 0 1-1.25 1.87c-9.17 9.17-13.75 18.55-13.75 28.13 0 7.08 3.12 10.63 9.37 10.63 5 0 7.71-1.46 8.13-4.38l10-26.88 5.62-6.25-.62-1.87c-5.42 1.25-8.96 5.63-10.63 13.12l-1.25 7.5c-.83 2.09-2.7 5-5.62 8.75l-4.38.63c-4.16 0-6.25-2.08-6.25-6.25 0-7.5 5.42-16.04 16.25-25.63 1.25-1.25 5-2.5 11.25-3.75 5-1.25 7.5-3.12 7.5-5.62 0-1.67-.83-2.5-2.5-2.5-1.25 0-3.12.62-5.62 1.87-2.08.84-6.67 3.55-13.75 8.13m69.37 20.62.63 1.25 2.5 3.13 5.63 8.13 3.12 5c-.83-4.59-1.88-7.92-3.13-10l-8.12-11.25v-3.76c-.83-4.58.42-6.87 3.75-6.87 2.92 0 5.2.83 6.88 2.5 0-7.08-2.92-10.63-8.76-10.63-5 0-7.5 3.55-7.5 10.63 0 4.58 1.67 8.54 5 11.87m192.5-20-1.25 5.63 1.25-5.63m154.38 6.25c-3.75 3.76-7.7 8.34-11.87 13.75 0 0-.2.42-.63 1.25 0 .84-.2 2.09-.62 3.75h2.5c2.08 0 4.17-1.66 6.25-5l4.38-7.5c.41-1.25.62-2.08.62-2.5l.63-1.25-.63-.62c0-.42-.2-1.04-.63-1.88m-112.5 2.5-.62 5-3.13 6.88-1.25 7.5h5c-.41 2.08-.83 3.96-1.25 5.63v3.75c0 3.33 1.25 7.08 3.75 11.25v-6.88l-.62-9.38 1.87-8.75h-3.12c-.83-3.33-1.25-4.79-1.25-4.37 0-1.67 1.04-4.17 3.12-7.5h-1.87l-.63-3.13m-70.62 26.25c1.25 2.5 1.87 4.38 1.87 5.63l1.25 6.25c.42.42.63.83.63 1.25l1.25 1.25c1.25-1.25 1.87-2.3 1.87-3.13 0-.83-.83-2.7-2.5-5.62-.41-.42-.62-1.67-.62-3.75 0-2.5-.2-4.37-.63-5.63l-.62-6.25c0-3.33 1.46-5 4.37-5l1.88 1.88 3.12.63-.62 3.75h1.87c2.92 0 4.38-2.71 4.38-8.13 0-3.33-2.3-6.04-6.88-8.13h-3.12c-6.25 0-9.38 3.96-9.38 11.88 0 1.25.63 5.63 1.88 13.13m30.62-25c-1.25 1.24-1.87 2.29-1.87 3.12 0 1.67.2 2.7.62 3.12l1.88-4.37-.63-1.88m-254.38 18.75-2.5 3.75-.62 9.38c-1.25.83-1.88 1.46-1.88 1.88v.62c.42 1.25 1.25 1.88 2.5 1.88 3.34 0 5.42-1.67 6.25-5l2.5-10c2.5-9.17 10-13.75 22.5-13.75 12.92 0 23.55 5.62 31.88 16.87a34.46 34.46 0 0 1 1.88 4.38c.41 1.25.83 2.29 1.24 3.12.42 1.25.84 2.92 1.25 5a61 61 0 0 0 3.75 6.25h1.25c1.25 0 1.88-.42 1.88-1.25 0-4.17-2.5-10.63-7.5-19.38-7.92-12.91-19.38-19.37-34.38-19.37-13.75 0-23.75 5.2-30 15.62m386.25-12.5h-.62c-1.67 0-2.7.84-3.13 2.5v1.25c0 2.09 1.05 3.13 3.13 3.13 3.33 0 5-1.87 5-5.63 0-.83-1.46-1.25-4.38-1.25m-128.75 0c-1.66 1.67-2.5 2.92-2.5 3.75 0 1.25.21 2.09.63 2.5l.63 1.25 1.87 1.88c.42-.83.63-2.5.63-5 0 .42-.42-1.04-1.26-4.38m-106.88 9.38c1.25 2.92 2.71 4.38 4.38 4.38 3.33 0 5-1.67 5-5 0-2.92-1.46-4.38-4.38-4.38-2.5 0-4.16 1.67-5 5m-126.25-3.75c-5.83 2.08-9.16 5-10 8.75-3.33 12.08-8.75 19.38-16.25 21.88a78.81 78.81 0 0 1-7.5 2.5 77.53 77.53 0 0 0-10 3.75v1.25c-.83 2.5 1.46 3.75 6.88 3.75 2.92 0 7.92-.21 15-.63 7.08-.83 12.5-1.25 16.25-1.25l5.62.63c4.59.41 9.38.83 14.38 1.25 5.42.41 11.04.83 16.87 1.25h14.38c6.25.83 9.37-.63 9.38-4.38 0-1.25-1.46-2.08-4.38-2.5l-11.25-1.88-5.63-1.25-6.25-3.12-8.75-5.63c-5.41-7.91-8.12-13.54-8.12-16.87-.83-5.42-2.08-7.92-3.75-7.5h-6.88m13.13 1.88 2.5 12.5 5.62 6.25-5-16.25-1.25-1.25-1.87-1.25m248.75-.63-3.75 7.5-3.13.63 1.25-4.38-.62-3.13-1.88 1.88c-7.91 4.58-13.12 6.67-15.62 6.25h-3.75l-3.13 7.5c5.84 0 11.05-2.3 15.63-6.88l2.5 1.88v1.88c-.42 2.91 0 4.37 1.25 4.37 1.67 0 4.17-2.5 7.5-7.5l3.13-3.75.62-6.25m100.62 5.63h-1.88l-1.87 1.87v1.25c0 2.92 1.25 4.38 3.75 4.38 2.08 0 3.12-1.46 3.13-4.38 0-2.08-1.05-3.12-3.13-3.13m11.25 1.88-1.25 1.25c-.42 0-.83.2-1.25.63l-.63 1.87v.63c0 2.5 1.05 3.75 3.13 3.75 2.92 0 4.37-1.67 4.38-5 0-2.09-1.46-3.13-4.38-3.13m-237.5 3.75c-3.33 0-5 1.88-5 5.63 0 3.33 1.67 5 5 5s5-1.88 5-5.63c0-3.33-1.67-5-5-5m-110 5.63c4.17.41 7.3 2.08 9.37 5 .42 3.75 1.05 5.62 1.88 5.62 1.25 0 1.87-.63 1.88-1.88 0-1.25-.84-3.33-2.5-6.25l-2.5-5.62c-.42-1.67-1.88-2.5-4.38-2.5-2.92 0-4.38 1.04-4.38 3.13l.63 2.5m142.5 3.75c3.33-2.09 6.25-3.13 8.75-3.13 2.08 0 3.33.83 3.75 2.5l2.5 5 5 5c-3.33-12.08-8.13-18.13-14.38-18.13-4.58 0-6.45 1.88-5.62 5.63v3.13m-18.13 2.5 5.63 6.25h-6.88c-6.25 0-12.5 2.5-18.75 7.5s-9.37 9.58-9.37 13.75c0 1.25.63 1.87 1.88 1.87.83 0 2.29-.63 4.37-1.88 6.67-5 10.63-7.91 11.88-8.75 1.66-.83 4.37-1.25 8.12-1.25 6.67 0 12.92 1.88 18.75 5.63l31.25 19.38c8.33 4.58 20.83 9.37 37.5 14.37 1.25.42 3.75.63 7.5.63 11.67 2.08 17.3 3.12 16.88 3.12l25 .63c3.74.41 8.74 0 15-1.25l14.37-3.13c5-.42 7.5-1.67 7.5-3.75 0-2.5-2.08-3.75-6.25-3.75.42 0-4.58 1.04-15 3.13l-6.25 1.25h-5c-10 0-18.96-1.88-26.88-5.63l-9.37-4.38-15.63-11.87-.62-2.5c-3.33-5.83-5-10.2-5-13.13 0-6.66 2.92-10 8.75-10 2.5 0 5.42 1.88 8.75 5.63v4.38l-2.5 5.62v.63c0 5.83 2.7 8.75 8.13 8.75 1.25 0 3.12-.63 5.62-1.88l-5.63-4.38 1.25-15c0-2.91-2.29-5.41-6.87-7.5-4.58-2.5-8.33-3.74-11.25-3.75-8.33 0-14.38 5.21-18.13 15.63h-2.5c-.83-2.92-2.29-5-4.37-6.25-1.67-1.25-2.92-1.88-3.75-1.88h-.63c-1.66.42-2.5 3.34-2.5 8.75 0 1.25 1.05 2.92 3.13 5l4.38 4.38 1.25 1.25c2.5 2.08 3.74 4.17 3.75 6.25 0 2.92-1.46 4.38-4.38 4.38-.42 0-3.13-1.05-8.13-3.13l-1.87-.63-7.5-9.37a36.3 36.3 0 0 1-3.13-3.75 32.87 32.87 0 0 0-3.75-5.63l-6.25-4.37-3.12-1.88c.83 3.34 1.25 4.8 1.25 4.38 0 .83-1.46 1.46-4.38 1.88l-3.12-3.13a9.84 9.84 0 0 0-2.5-1.88l-2.5-2.5c-5.83-5-10.2-7.5-13.13-7.5l-1.25.63-3.75.63m-26.87.62-3.75 3.75-.63.63c0 2.08 1.25 3.12 3.75 3.12 3.34 0 5-1.46 5-4.38 0-2.08-1.25-3.12-3.75-3.12h-.62m-169.38 18.75v1.88c0 3.33 3.54 4.58 10.63 3.75h.62l26.88-1.88 57.5 1.25c2.91.42 5-1.25 6.25-5-6.26 1.25-11.25 1.88-15 1.88-4.59 0-11.46-.21-20.63-.63-8.75-.83-15.42-1.25-20-1.25h-9.38c-4.16 0-7.29.2-9.37.63l-8.13.62-5.62.63c-3.75 0-8.33-.63-13.75-1.88m311.25-.63-.63 2.5c0 4.17 3.34 6.05 10 5.63l21.25-1.25h81.88c4.58 0 7.3-2.5 8.13-7.5-1.25.83-2.3 1.46-3.13 1.88-.83.41-1.46.83-1.88 1.25l-6.87.62h-12.5l-28.75-1.25h-30c-2.08.42-4.8.63-8.13.63-3.33 0-5.83.2-7.5.62h-8.75c-1.25.42-2.29.83-3.12 1.25h-.63a24.5 24.5 0 0 0-5-1.88 41 41 0 0 0-4.37-2.5m-193.12 8.13c3.33 5.83 7.5 8.75 12.5 8.75 13.33 0 19.8-3.96 19.38-11.88v-.62c0-1.67-.21-2.5-.63-2.5-1.25.42-2.92 1.67-5 3.75-3.33 3.33-8.75 5-16.25 5-3.75 0-7.08-.83-10-2.5m-93.75 3.13c3.75 2.08 5.62 3.95 5.62 5.62 0 3.75-2.29 5.63-6.87 5.63-1.67 0-6.46-1.88-14.38-5.63 5 6.25 11.25 9.38 18.75 9.38 6.67 0 10-2.71 10-8.13 0-5.83-3.54-8.75-10.62-8.75h-1.25l-1.25 1.88m140.62 25.62-.63-8.75c-.83-2.5-.62-3.75.63-3.75l6.88-5 1.25-1.25h3.12l9.38-.63c1.25 0 2.91 1.05 5 3.13 2.5 1.67 3.95 2.5 4.37 2.5l3.75-1.25v-1.25c0-1.67-1.67-3.13-5-4.38-6.25-2.91-11.46-4.37-15.63-4.37-4.58 0-8.75 1.67-12.5 5-3.33 2.92-5 6.46-5 10.63 0 3.33 1.46 6.45 4.38 9.37m235-25.63c-2.08 3.34-4.38 5-6.88 5h-.62v-1.25c0-.83-.63-1.66-1.88-2.5h-1.25l-18.12 7.5-5.63.63h-1.25c-3.75 0-6.45-2.08-8.12-6.25-2.5.83-3.75 2.08-3.75 3.75 0 5.83 3.75 8.75 11.25 8.75l9.38 1.25-1.25 2.5c0 2.5 1.87 3.75 5.62 3.75 7.08 0 11.25-2.7 12.5-8.13-2.5 3.75-5 5.63-7.5 5.63-1.67 0-2.7-.83-3.13-2.5l11.25-6.25v3.13a36.55 36.55 0 0 1 5-4.38l1.88-1.88c.83 0 1.46.21 1.88.63 1.25 2.08 1.87 3.33 1.87 3.75 0 .83-.83 2.3-2.5 4.38s-2.5 3.95-2.5 5.62c0 .83 1.04 2.3 3.13 4.38l6.25 1.25 4.37-5.63 7.5 5.63a10.12 10.12 0 0 0 6.25 1.87c9.58 0 14.38-2.92 14.38-8.75 0-1.67-.21-2.7-.63-3.13l-3.75-6.87v-1.25c0-2.08 1.04-3.13 3.13-3.13 2.08 0 3.33.21 3.75.63-2.09-3.75-4.17-5.63-6.25-5.63-3.76 0-5.63 2.5-5.63 7.5l.63 4.38 1.25 5c0 4.58-2.5 6.88-7.5 6.88-5.42 0-8.13-2.71-8.13-8.13 0-2.5.83-6.04 2.5-10.63a8.48 8.48 0 0 0-6.25-2.5c-2.08 0-4.58.63-7.5 1.88l.63-3.75 1.25-2.5-5.63-.63m-77.5 15 1.88 1.88 4.37.63 4.38 1.25h10c.41.41 1.25.62 2.5.62s2.08.2 2.5.63l1.25-3.13-10 .63-6.25-1.25c-3.76-1.67-5.63-3.55-5.63-5.63 0-2.5 3.12-4.8 9.38-6.88-1.67-1.66-3.96-2.5-6.88-2.5-7.5 0-11.25 2.3-11.25 6.88 0 2.08 1.25 4.38 3.75 6.88m-278.12-10h-.63c-1.25 0-1.87.62-1.87 1.87 0 2.08 1.25 3.13 3.75 3.13s3.75-1.05 3.75-3.13c0-1.25-1.67-1.88-5-1.88m-55.63 0 3.13 6.25 3.12 3.75a7.77 7.77 0 0 1 2.5 5.63c0 1.25-1.04 2.5-3.12 3.75l-3.13.63c-1.25 0-2.7-.84-4.37-2.5 0 5.41 2.7 8.12 8.12 8.12 4.59 0 6.88-2.5 6.88-7.5 0-2.92-2.92-7.3-8.75-13.13l-1.88-1.87a13.43 13.43 0 0 0-2.5-3.13m87.5 19.38 1.25 1.25c13.34-8.33 21.67-12.5 25-12.5 2.09 0 4.59.83 7.5 2.5.84 4.17 1.25 6.04 1.25 5.63 0 2.5-2.5 5-7.5 7.5 1.67 1.66 3.96 2.5 6.88 2.5 3.33 0 6.25-2.09 8.75-6.25 1.25-1.67 1.87-4.17 1.88-7.5 0-8.75-5-13.13-15-13.13-6.26 0-12.71 3.75-19.38 11.25-2.5 2.5-4.38 4.17-5.63 5-.83.83-2.5 2.08-5 3.75m66.25-16.25-13.12 3.13c5.42 8.75 10.83 13.12 16.25 13.12 4.58 0 6.87-2.3 6.88-6.88 0-7.5-2.09-11.25-6.25-11.25l-3.75 1.88m-75.63-.63c-3.33 0-5 1.05-5 3.13s1.25 3.13 3.75 3.13 3.75-1.05 3.75-3.13v-1.25c-.83-1.25-1.67-1.88-2.5-1.88m139.38 3.75-20.63 10-1.25-1.87-5-1.88-4.37-4.37h-1.88c-2.5 0-3.75.83-3.75 2.5 0 2.92 2.5 6.04 7.5 9.38 5 2.91 8.96 4.37 11.88 4.37a20.8 20.8 0 0 0 11.25-3.13l18.75-13.12c.42-.42.83-.63 1.25-.63 3.33 0 7.3 1.25 11.88 3.75v3.13c.41 5.42-2.5 8.13-8.75 8.13-3.34 0-7.09-1.46-11.25-4.38-1.25.83-1.88 1.67-1.88 2.5 0 4.58 5.83 6.88 17.5 6.88 7.5 0 11.25-2.92 11.25-8.75 0-4.17-2.08-7.92-6.25-11.25-4.17-3.34-8.75-5-13.75-5-4.17 0-8.33 1.25-12.5 3.75m-152.5.62-10 5.63-5 1.25 3.12 1.87 1.88-1.25 9.37-1.88c1.25-.41 1.88-1.04 1.88-1.87v-1.88l-1.25-1.87m247.5-421.88v5.62l-1.88-2.5-5-4.37v-1.25l1.25-.63h1.25c.84 0 2.3 1.05 4.38 3.13m-6.25 8.12c-.83-2.08-3.13-3.95-6.88-5.62v-1.25c.42-.42 1.25-.63 2.5-.63-1.25 0-.41 1.25 2.5 3.75 2.92 2.5 4.38 4.38 4.38 5.63-2.08-1.25-2.92-1.87-2.5-1.88m-10 22.5-3.75-3.12c0 2.5 1.67 3.33 5 2.5 4.17-.42 6.87-.63 8.13-.63 1.66-.41 1.66-.62 0-.62l-6.25 3.12c-3.34.84-3.96 1.25-1.88 1.25-2.92 0-5.42-2.29-7.5-6.87-.83-1.25-.42-2.3 1.25-3.13l5 7.5m-93.75 8.13 1.25-3.75-1.25-1.25c2.5-.42 3.75.83 3.75 3.75 0 1.67-.63 3.33-1.88 5l4.38-1.25v1.87c.42 3.76-3.13 6.26-10.63 7.5l-1.25-1.87 2.5-2.5-4.37.62h-1.88l-1.25-2.5 6.25-2.5c.42.42.84.63 1.25.63l.63-.63c.83-.83 1.67-1.87 2.5-3.12m83.75 5.62c.83.42.42 1.05-1.25 1.88-1.67.42-3.13.62-4.38.62l1.25-2.5c1.67-1.66 3.13-2.7 4.38-3.12h1.25c3.75 0 6.04 2.5 6.88 7.5.41 5 .2 7.5-.63 7.5-.42-.42-.63-2.92-.63-7.5.42-4.17-1.87-5.62-6.87-4.38m-151.88 2.5 3.13 4.38-5 2.5c-1.25-.42-1.88-1.25-1.88-2.5 0-.83.42-1.67 1.25-2.5l2.5-1.88m31.25 24.38h-3.13V222.9l-2.5-4.37.63-1.25c0-1.25.63-1.87 1.88-1.88 2.08 0 3.12 5.21 3.12 15.63m134.38-6.25v5l-3.75-7.5c-.83-2.08-1.04-3.33-.63-3.75l5 5.62-.62.63m-159.38-5.63-.63 2.5h-.62c-1.25 0-1.88-.83-1.88-2.5 0-2.5-.41-3.33-1.25-2.5.42-.41 1.05-.62 1.88-.62 1.67 0 2.5.62 2.5 1.87v1.25m-135.62 3.75c0 .84-.42 1.25-1.25 1.25-2.08 0-3.13-.62-3.13-1.87v-.63c.42-1.25 1.25-1.87 2.5-1.87l1.88 3.12m138.75 3.75 2.5-1.25c-1.25 0-2.3-.41-3.13-1.25-.83-2.5-1.25-1.87-1.25 1.88.42.42 1.05.62 1.88.62 1.67-1.25 2.5-1.66 2.5-1.25 0-.83-1.04-1.25-3.13-1.25 2.09 0 2.92.21 2.5.63-.83 0-.62.2.63.62l-.63.63c-.41 0-1.04.2-1.87.62m-137.5 5.63h-4.38c-1.25 0-1.87-.2-1.87-.63 0-3.33 1.87-5 5.62-5 1.25 0 1.88 1.67 1.88 5h-1.25c-.42 0-.42.21 0 .63m143.75 1.87-.63 3.13-4.37.62-1.88-1.25c0-.41-.2-.83-.62-1.25v-1.25l2.5-.62 5 .62m-140.62 5.63-5.63 1.87-1.25-3.12c.42-2.92 2.09-4.37 5-4.38 1.25.84 1.88 2.71 1.88 5.63m133.12 4.37 8.13.63c.41 1.25.41 2.7 0 4.37-1.67 1.67-2.5 4.17-2.5 7.5v6.25l-1.25 11.25-3.13 7.5-1.88 8.75c-.41 1.25-1.45 3.13-3.12 5.63-1.25 2.08-2.92 4.8-5 8.13l-10.63 11.87-4.37 2.5-13.75 5.63c.42-.84.83-1.46 1.25-1.88l1.25-1.25a55.95 55.95 0 0 0 6.88-5c2.91-2.08 6.24-4.58 10-7.5 4.16-4.17 6.66-6.87 7.5-8.13 7.91-10.41 11.87-23.33 11.87-38.75 0-1.66-.2-3.74-.63-6.25 0-2.91-.2-6.66-.62-11.25m38.13 23.75c.83.84 2.29-1.87 4.37-8.12 1.67-4.58 2.5-7.3 2.5-8.13.42 0 1.04 2.3 1.88 6.88 0 1.67-2.92 4.8-8.75 9.38m-165-1.88.62 4.38c-2.5 2.08-4.38 1.24-5.63-2.5l1.88-1.26 3.12-.62m162.5-10.63 1.25 2.5c.42.42 1.67-.41 3.75-2.5 0-1.25-.83-1.87-2.5-1.87l-2.5 1.87m-70.62 11.88c-.83 2.08-1.46 3.13-1.88 3.13-1.66 0-2.5-1.05-2.5-3.13v-1.25l.63-1.25 2.5-3.75 1.25 6.25m70.63-5.63.62 1.25c-1.25.42-3.54 3.55-6.88 9.38a7.25 7.25 0 0 0-1.25 1.88c0 .83-.41 1.66-1.25 2.5-2.5 5.83-7.29 12.91-14.37 21.24l-1.25.63a30.52 30.52 0 0 0-1.88 3.13l-1.25 1.24c-.83.84-2.08 1.67-3.75 2.5a76.47 76.47 0 0 0-5 3.75c-.83.84-2.08 1.67-3.75 2.5a32.84 32.84 0 0 0-5.62 3.75c-3.33 0-5-.41-5-1.25l.63-1.25c-1.25 0 .2-.41 4.37-1.25 1.25-1.25 3.96-2.91 8.13-5l4.37-4.37 3.75-3.13 1.88-1.87c.83-.83 1.87-2.08 3.12-3.75 4.17-4.58 6.46-7.7 6.88-9.38l8.12-14.37 5.63-5.63 2.5-3.12 1.25.63m-22.5 10c.83-.42.41-.63-1.25-.63 0 .83.2 1.46.62 1.88 0-.42.2-.84.63-1.26h-.63l-.63-.62c-.83 0-.83-.42 0-1.25-1.66 1.67-2.5 3.33-2.5 5 0 2.08 1.67 1.88 5-.63-1.66 0-1.66-.83 0-2.5h-1.25m-135-2.5c1.67 2.5 2.92 7.92 3.75 16.25l-3.12-5.62-2.5-8.13 1.25 3.13.62-5.63m93.75 5.63h-1.25v1.88c0-2.09-.41-3.13-1.25-3.13l-1.87-3.75 4.38 5m141.25-.63 5.62-8.75-3.75 3.75c-.42 0-1.25.21-2.5.63a4.8 4.8 0 0 1-1.88.63 8.48 8.48 0 0 0-6.25-2.5l8.75 6.24m-105.62 1.25 5.63 4.38c-3.33 0-4.8.2-4.38.63l-1.87-2.5.63-2.5m-42.5 5-.63-3.13.63-.63h1.24l.63-.62 1.88.63.62.62v1.25c0 1.25-1.46 1.88-4.38 1.88m63.13 11.24c-3.33 3.34-6.46 5-9.38 5-1.25 0-1.66-.2-1.25-.62.84-.83 1.88-1.67 3.13-2.5 1.25-1.25 2.5-2.3 3.75-3.13 1.25-.83 1.87-1.45 1.88-1.87 0 .42-1.05 1.25-3.13 2.5 2.5-.83 3.54-1.25 3.13-1.25v.63c0 .41-.21.62-.63.62v-.63c.42-.41 1.67-2.7 3.75-6.87 5-5.42 7.7-8.33 8.13-8.75v.63c0 2.91-1.46 5.83-4.38 8.74-.83 0-2.08 1.46-3.75 4.38v1.25c-.42.42-.63.83-.63 1.25l-.62.63m250.62-9.38 3.13 6.88.62-5-3.75-5v3.12m-316.88 6.25 1.25 3.75c-1.67 6.67-3.54 10.83-5.63 12.5-1.66 1.67-5.83 3.54-12.5 5.63v-1.26c5-3.74 8.13-6.45 9.38-8.12 1.67-1.67 3.54-5.2 5.63-10.63a7.27 7.27 0 0 1-1.25 1.88v.63c1.66-2.92 2.7-4.38 3.12-4.38m318.12 1.25c-2.5-3.75-3.33-6.04-2.5-6.88 1.67 1.25 2.5 3.96 2.5 8.13 0-.83-.2-1.25-.63-1.25l-1.25-1.25-1.87-1.25v-2.5l3.75 5m-305.62 6.25c2.08 3.33 3.12 4.58 3.13 3.75 0 .83-1.25.2-3.75-1.88l.62-1.87m-2.5 6.88.63-1.88 3.75 3.75h-1.88c-.83 0-1.46.2-1.88.63h-.62v-2.5m-6.88 4.37 5.63 2.5-.63-1.88-.62-.62c0-.42-.2-1.04-.63-1.88l-3.75 1.88m-1.25 6.88 3.13-1.26-4.38-3.12-1.25 1.25h-1.87l4.38 3.13m337.5 14.37 3.75 5.63-1.25-1.88h-2.5v-3.75m-14.38 10.63c-.42 1.66-2.5 2.08-6.25 1.24h-1.25l.63-2.5 3.12-1.25 7.5-3.12-3.75 5.63m-176.88 23.12 1.25 2.5-2.5 3.75-3.13-3.75 1.88-1.88 2.5-.62m-12.5 2.5c-.83.42-2.92 1.25-6.25 2.5a589.03 589.03 0 0 0-11.25 5 41.02 41.02 0 0 0-4.38 2.5c-1.25.83-2.7 1.67-4.37 2.5-.83.42-1.25 2.5-1.25 6.25.42 3.75.42 5.63 0 5.63l-5-10.63c6.25-7.5 14.8-12.3 25.63-14.38l6.87-1.25 1.88-1.25c-.42 0-1.05 1.05-1.88 3.13m19.38-1.88.62 5c0 .84-.63.84-1.88 0-.83 0-1.45-1.25-1.87-3.75 0-.83.42-1.25 1.25-1.25h1.88m-127.5 45c0 .84-.63 2.09-1.88 3.75l-3.13 5.63 2.5-16.88 2.5 7.5m2.5 35.63c-1.66 0-2.5-.2-2.5-.63l2.5.63m-.62 6.25-1.25 3.75c0-.42-.83-.63-2.5-.63s-2.5-1.04-2.5-3.12c0-.42.42-1.04 1.25-1.88l5 1.88m-4.38 6.88c.84 0 1.25 1.04 1.25 3.12h-3.12c-1.25 0-1.88-.63-1.88-1.88h.63a24.2 24.2 0 0 1 3.13-1.25m-14.38.63h3.13c2.5 0 3.74 1.67 3.75 5 0-.42-.84-.63-2.5-.63l-1.88-1.25-2.5-3.12m-1.25 6.25 6.88 3.75-2.5 1.25c-.84.83-1.25 1.04-1.25.63.41 0 .41-.63 0-1.88s-1.46-2.5-3.13-3.75m205 1.88c1.67 4.16 1.87 6.45.63 6.87 0-1.67-.84-2.3-2.5-1.88l-.63-.62c-1.67-1.67-2.5-3.12-2.5-4.38 0-1.66.83-2.5 2.5-2.5 1.25 0 2.08.84 2.5 2.5m-13.13-.62 7.5 3.75.63 8.13-1.88-1.88-1.87-5-1.88-2.5-1.87-1.25-.63-1.25m-2.5 37.5c2.09-10.42 6.05-16.46 11.88-18.13 2.92-1.25 4.58-2.08 5-2.5l.63.63 5 1.88v-1.88h.62l-1.25 1.25-7.5 3.75-1.25 1.88c-2.08.83-4.38 3.95-6.88 9.37-.41 2.92-1.25 4.38-2.5 4.38a8.7 8.7 0 0 1-3.75-.63m35-20c4.17 2.5 6.25 3.33 6.25 2.5v1.88l-5.62-.63h3.75l-2.5-1.25.63 1.88 1.25 2.5c.41.41.83 1.04 1.25 1.87 0 .83-.21 1.25-.63 1.25l-1.88-1.25c-.83-2.5-2.29-3.75-4.37-3.75-2.5 0-3.96.2-4.38.63l.63-1.88 5.63-.63v-3.12m-196.25 26.25-1.88.63v-.63a14.42 14.42 0 0 1-1.88-3.13h1.25c-.41-1.25-.62-3.33-.62-6.25 0-5.83 1.67-8.74 5-8.75.42.84.63 1.46.63 1.88v.63c.41 0 .62-.42.62-1.26l-.63 4.38-1.87.63c-2.08 3.33-2.3 5-.63 5v6.87m144.38 43.75v1.88c-.83 7.08-.83 10.83 0 11.25l1.25-.63-1.87.63-1.88-3.13c-1.25-2.5-1.87-5-1.87-7.5 0-2.08.83-3.13 2.5-3.13h.63l1.25.63m-42.5 16.88 9.37 11.25-.63-.63a9.83 9.83 0 0 0-1.87-2.5s-.63-.2-1.88-.63l-5.62-3.75a7.29 7.29 0 0 0-1.88-1.25 18.56 18.56 0 0 0-2.5-1.87c-.41-.42-.62-1.04-.62-1.88 0-.83.2-1.25.63-1.25h.62l4.38 2.5m31.25 9.38 1.87-4.38.63-.62c.41 0 .83-.2 1.25-.63.41.42 1.04 1.46 1.87 3.13l.63 1.25c0 3.75-2.09 5.63-6.25 5.63-2.5 0-3.76-.63-3.75-1.88l.62-.63 3.13-1.87m11.25.63 1.25 3.75-1.25 3.75 1.25-1.25c.41-2.5 1.25-3.75 2.5-3.75h1.25c.41.83.62 2.7.62 5.62 0 2.5-1.04 3.75-3.13 3.75-2.08 0-3.12-1.25-3.12-3.75a8.7 8.7 0 0 1-3.75.63c-1.25 0-2.08-.63-2.5-1.88l1.25-2.5 2.5-1.25.63-3.75 2.5.63m11.87 9.37c0 2.5-.83 3.75-2.5 3.75-2.08 0-3.13-.83-3.13-2.5 0-1.25.84-1.88 2.5-1.88l3.13.63m8.13 3.13-.63 3.12-5-1.25 2.5-3.75 3.13 1.88m3.12 5c0-1.67.83-2.5 2.5-2.5 2.08 0 3.12.41 3.13 1.25 0 1.25-.63 1.87-1.88 1.87-2.08 0-3.33-.2-3.75-.63" transform="translate(-146.86 -119.79)"/>
</svg>
