<svg xmlns="http://www.w3.org/2000/svg" viewBox="0 0 500 500">
    <path d="M146.86 619.79v-500h500v500h-500m7.5-7.5h485v-485h-485v485m7.5-7.5V135.41h469.38v469.38H161.86m446.88-459.38c1.25 1.25 2.3 1.88 3.13 1.87 1.25 0 1.87-1.25 1.87-3.75v-.62l-3.13-1.88-1.87 4.38m-396.88 3.75-6.25 1.87-5-2.5.63 4.38c.83 2.08 3.33 3.13 7.5 3.12l3.75-1.25 7.5-5.62 1.25-.63c3.74 0 5.62 1.67 5.62 5 0 2.5-2.3 7.3-6.88 14.38l1.26 1.25c.41 0 .83.2 1.25.62 2.5 0 5.62-2.91 9.37-8.75 1.67-1.66 2.5-4.37 2.5-8.12 0-7.08-3.96-10.63-11.88-10.63-3.75 0-7.29 2.3-10.62 6.88m163.12-4.38 6.88 4.38c.41.42.62 1.67.62 3.75 0 .83-.83 2.08-2.5 3.75-2.92 1.67-5.42 2.5-7.5 2.5h-1.25l-23.13-5a26.98 26.98 0 0 0-5-.63l-1.25-.62-8.12-3.75-19.38-1.25-1.25 1.25 6.25 1.25c2.09.42 4.17 1.04 6.25 1.87l33.13 10.63a47.68 47.68 0 0 0 13.75 1.87c12.92 0 19.38-3.54 19.38-10.62 0-7.5-3.55-11.25-10.63-11.25l-1.88.62-4.37 1.25m220.62 3.75h.63l.62 3.75a9.14 9.14 0 0 0 5.63 1.88c2.5 0 3.74-1.67 3.75-5 0-3.33-1.88-5-5.63-5l-1.25.62-3.75 3.75m-108.75-2.5c2.5 2.09 3.75 3.55 3.75 4.38 0-.42-.42 1.04-1.25 4.37-2.08 2.09-3.13 3.76-3.13 5v1.88l5-2.5 2.5-1.25c-1.66.83-2.91 2.5-3.75 5h1.25l5-1.88 8.13-1.87 16.25-6.25a57.23 57.23 0 0 1 18.13-3.13c20 0 37.7 6.46 53.12 19.38l1.25 1.25 6.25 8.12.63 1.88 3.12 4.37c2.92-1.66 4.37-3.12 4.38-4.37 0-7.5-10.63-17.3-31.88-29.38-10.83-4.16-23.13-6.24-36.88-6.25-11.66 0-21.45 1.88-29.37 5.63l-10 4.37-5.63 1.88a90.9 90.9 0 0 0 1.25-6.88c0-3.33-2.08-5-6.25-5h-1.25l-.62 1.25m-39.38 16.25c-1.25.42-2.91.63-5 .63h-3.12c-5 0-7.5-1.04-7.5-3.13v-1.25l3.13-3.75v-1.25c0-5-3.13-7.5-9.38-7.5-3.75 0-8.13 1.88-13.13 5.63h14.38v3.75c-2.08.83-3.13 3.13-3.13 6.87 4.17 4.17 11.25 6.26 21.25 6.25 7.5 0 11.05-4.37 10.63-13.12v-2.5l9.38-6.25a8.73 8.73 0 0 0-3.75-.63c-8.34 0-12.5 3.55-12.5 10.63v1.25c.41.42.62 1.46.62 3.12 0 .42-.63.84-1.88 1.25m122.5-15c7.09 2.09 11.88 3.13 14.38 3.13 4.17 0 6.04-.63 5.63-1.88v-2.5c-3.34 1.25-5.63 1.67-6.88 1.25a84.97 84.97 0 0 0-8.75-.62 31.45 31.45 0 0 0-3.75-.63l-.63 1.25m-106.25 2.5c4.59 2.5 6.88 6.26 6.88 11.25v.63l-3.75 8.75c-1.25 2.5-1.88 3.96-1.88 4.37l.63 1.25c.42.84 1.67 1.46 3.75 1.88l2.5 1.25c2.08-.83 5.2-4.37 9.38-10.63a15.77 15.77 0 0 0 3.75-10.62c0-2.92-.84-4.37-2.5-4.38-1.25 0-2.71.63-4.38 1.88-1.67-5.42-4.38-8.12-8.13-8.13-2.5 0-4.58.84-6.25 2.5m-226.88 15c6.67.42 11.26.84 13.76 1.25h.62c.42 0 4.8-1.25 13.13-3.75 4.16-1.25 11.04-1.87 20.62-1.87 13.33 0 27.92 4.17 43.75 12.5 20 19.58 30 36.87 30 51.87 0 10.84-3.54 19.17-10.63 25l-.62 1.88c-5 2.5-8.33 3.75-10 3.75-2.5 0-5.2-1.46-8.13-4.38-1.66-2.91-2.5-5-2.5-6.25 0-3.74 1.05-5.62 3.13-5.62l16.88-10.63c3.74-2.5 5.62-6.24 5.62-11.25 0-8.74-3.33-13.12-10-13.12s-10 3.33-10 10v.62c2.92-2.91 5.42-4.37 7.5-4.37 3.75 0 5.62 2.7 5.63 8.12 0 2.92-.84 4.59-2.5 5l-13.75 9.38c-3.76 2.08-5.63 6.88-5.63 14.37 0 4.17 1.25 8.96 3.75 14.38 4.17 3.75 7.92 5.63 11.25 5.62 1.67 0 2.7-.2 3.13-.62l5-1.88 1.87-.62 1.25-1.88 3.75-5 2.5-4.37 2.5.62v1.88l1.88 1.87 5-6.87c2.91-4.58 5-11.67 6.25-21.25v-6.88l-3.13-12.5c-1.25-2.91-2.3-4.79-3.13-5.62l-4.37-3.13c-.83-.83-1.25-1.45-1.25-1.87 0-2.08 1.25-3.12 3.75-3.13 1.25 0 2.5 1.25 3.75 3.75 1.25 2.09 2.92 6.46 5 13.13l.63 2.5c.41.42.83 1.04 1.25 1.87l2.5 2.5 3.12 2.5c5.42 3.76 8.96 5.63 10.63 5.63-.42 0 .62-.42 3.12-1.25l-1.25-5c2.5.42 4.58.83 6.25 1.25h3.75c8.33 0 12.5-4.37 12.5-13.13 0-1.66-.83-3.33-2.5-5-1.67 6.67-5 10-10 10l-4.38-.62-10-5.63-1.24-1.87c-4.17-4.58-9.38-10.2-15.63-16.88a862.08 862.08 0 0 0-22.5-24.37c-18.33-10.83-38.33-16.25-60-16.25-24.58 0-41.88 5.2-51.88 15.62m376.88-7.5 3.13 4.38c.83 2.5 1.46 4.58 1.88 6.25v1.25c0 7.08-5.63 14.37-16.88 21.87 13.33-5 20-13.12 20-24.37 0-11.25-2.5-16.88-7.5-16.88-2.08 0-3.13 1.25-3.13 3.75 0 .84.84 2.09 2.5 3.75m-98.75-1.25v1.25h1.25c4.17 0 8.13 1.25 11.88 3.75l1.25 4.38-1.88 5.62 4.38-1.87c2.08-1.25 3.12-4.17 3.13-8.75 0-5-3.34-7.5-10-7.5l-1.88.62-8.13 2.5m32.5-1.87-6.87 5c-2.08 7.08-3.13 10.42-3.13 10 0 2.08.63 3.33 1.88 3.75l5.63 6.25h1.25l-1.25-5.63-2.5-6.25 2.5-.62.62 3.12 2.5 6.88c3.75-5 5.62-8.96 5.63-11.88 0-2.5-.63-3.74-1.88-3.75-2.08 0-3.33.21-3.75.63h-1.88l1.25-7.5m58.13 2.5c-2.5.83-3.75 2.08-3.75 3.75 0 3.75 1.87 5.63 5.63 5.62 2.5 0 3.74-1.66 3.75-5 0-2.91-1.46-4.37-4.38-4.37h-1.25m-421.88 0 4.38 8.12-1.25-.62 2.5 5.62v13.75l-1.88 7.5-1.25 19.38v1.25l1.88 3.12c2.08 2.92 3.54 4.59 4.37 5 2.5 2.5 5 3.96 7.5 4.38l-3.12.62.62.63-11.25-2.5-4.37 4.37.62 3.13-.62 3.75 1.87 8.12 1.88 4.38.62 1.87c3.33 7.09 9.37 11.88 18.13 14.38l20.62 6.87c.83 0 1.25.84 1.25 2.5 0 1.67-.2 2.71-.62 3.13l-6.88-1.25-1.87-1.25c0-.83-2.3-2.3-6.88-4.38h1.25a26.23 26.23 0 0 0-10.62-2.5c-2.92 0-6.26 1.88-10 5.63 1.66 3.75 4.37 5.83 8.12 6.25v2.5h-5c-2.5-.42-5-.2-7.5.62l-3.12 2.5-5 2.5-5.63 6.25c-2.08 2.09-3.33 5-3.75 8.75l-1.25 3.13.63-1.25v5.62c.83 3.34 2.29 5.21 4.37 5.63.83-4.17 3.12-6.67 6.88-7.5 4.16-1.25 7.5-1.87 10-1.88 1.25 0 2.7.21 4.37.63 2.08 0 4.58.2 7.5.62l8.13-1.25 1.25 2.5v.63l-1.25-.63-1.25 3.75-3.13 3.75 9.38 2.5 6.25 1.88c4.58-.83 11.25-2.7 20-5.63l6.25-4.37 5.62-2.5.63 1.87v-1.87l1.25 2.5h-2.5l1.87.62c-4.17 2.09-6.46 5.42-6.87 10l8.12-1.87 16.88.62v-16.87l.62-6.88-.63-11.87c.42-1.25.63-3.12.63-5.63 0-.83-1.04-2.91-3.13-6.25a22.18 22.18 0 0 1-2.5-10c0-3.33.84-7.7 2.5-13.12l1.26-6.25c0-3.75-1.46-7.7-4.38-11.88l-3.13 1.25-3.74 3.13-3.75 5c.41-.42-.21-.63-1.88-.63-1.25-.41-1.88-1.25-1.87-2.5l.62-1.25c2.5-6.66 3.75-11.66 3.75-15 0-3.74-2.5-9.79-7.5-18.12-6.25 2.92-11.46 10-15.62 21.25l-3.13-.63.63-6.87.62-6.25.63-8.75.62-2.5c0-4.58-.83-6.87-2.5-6.88-1.67 0-2.5 1.05-2.5 3.13s.2 3.33.63 3.75l.62 6.25-2.5-1.25v.62c.42.42.63.84.63 1.25.41-.41.62-1.87.62-4.37v-3.13l-1.25-2.5c0-4.16-.62-7.29-1.87-9.37l1.25-1.25.62 3.75 1.88 2.5c-1.25-7.92-5-14.8-11.25-20.63l-3.75 1.25-1.88 7.5h-1.25l-1.25-1.25-2.5-8.12c-2.92-7.5-10.42-11.67-22.5-12.5m327.5 0-3.13 1.87h8.13l-5-1.87m-20.63 8.75-8.74 6.87a53.2 53.2 0 0 1-5 6.25l-1.25 1.88c0 .83.83 1.88 2.5 3.12l5 2.5c7.08-5.83 13.12-8.74 18.12-8.75 2.5 0 5.2 1.46 8.13 4.38 1.66 1.25 2.5 2.7 2.5 4.37v1.25c0 5-2.71 8.13-8.13 9.38 1.67 2.5 3.33 3.75 5 3.75 7.92 0 11.88-4.8 11.88-14.38 0-9.16-2.5-13.75-7.5-13.75l-3.13.63v-2.5c2.92 0 4.37-.63 4.38-1.88v-1.87l-6.25-1.88-3.75-1.87-6.88.62-6.88 1.88m-118.74 3.75-10 .62-.63 1.88c0 .83 1.04 1.88 3.13 3.12l3.12 6.25 5.63 2.5 6.25.63 16.87 1.25c26.67 1.67 47.92 10.62 63.75 26.87 16.25 15.84 23.96 35.84 23.13 60v1.88l-4.38 39.37c2.08.42 4.37.84 6.88 1.25 2.5 0 5.41.42 8.75 1.25 9.58 4.59 14.79 6.05 15.62 4.38l3.13-9.38 5.62-25c.42-1.25.63-5 .63-11.25 0-32.5-10.21-58.33-30.63-77.5-20-19.16-47.08-28.75-81.25-28.75h-15.63c-3.33 0-5.41-.2-6.24-.62h-3.75c-.84 0-2.3.2-4.38.62-1.67 0-3.54.21-5.63.63m190.63-1.88-1.88 1.25-6.88 3.75-.62 2.5-2.5 5 1.25 1.25h1.88c2.08-2.91 5.2-4.58 9.37-5l-1.88 2.5c-3.33 2.09-5 3.34-5 3.75 0 1.25.84 2.5 2.5 3.75l8.75-3.75 1.25 1.25.63-1.25-.63 1.88c-5 1.25-7.5 2.92-7.5 5 0 .83.84 1.25 2.5 1.25l6.25-1.25 6.88-3.13.63 1.88-13.75 6.87-.63 5 10.63-2.5v1.88c0 .83-1.25 1.46-3.75 1.87l-1.88.63h-5l-1.25 5 10.63.62v2.5h-2.5l-10-.62c-.42.42-.63 1.46-.63 3.12 0 1.25.63 2.09 1.88 2.5l-.63.63c4.17 2.92 7.7 4.38 10.63 4.37 9.58 0 15.62-5.2 18.12-15.62l-4.38.62c-2.08 0-4.16-1.04-6.25-3.12h2.5l1.25-1.88h2.51l2.5-3.12c1.66-1.67 2.5-3.33 2.5-5l1.25-6.25 1.25-4.38c0-4.58-4.59-6.87-13.75-6.87-1.25 0-2.09.62-2.5 1.87h-.63c-2.5 0-3.75-.41-3.75-1.25 0-.83.63-2.5 1.88-5l-11.25-2.5m-328.75 1.25-5 1.88v.62c0 4.17 2.08 6.46 6.25 6.88 25.83 4.58 39.37 17.08 40.62 37.5v4.37l2.5 20.63-2.5 271.25a111.17 111.17 0 0 0 30 4.37h4.38l.62-14.37.63-96.88c.83-10.83 3.74-15.83 8.75-15l63.75 3.75c49.58 1.67 87.91-16.04 115-53.12l-.63-1.25h-2.5c-5.83-2.08-12.5-3.33-20-3.75h-8.12c-17.09 29.58-51.88 44.37-104.38 44.37-17.5 0-28.34-.62-32.5-1.87-12.92-2.5-19.38-9.17-19.38-20V212.29c0-8.75 1.04-14.8 3.13-18.13 2.08-3.74 7.08-6.24 15-7.5.41-.41 1.25-.62 2.5-.62 1.66 0 3.12-.2 4.37-.63-9.17-9.16-14.58-13.75-16.25-13.75-.83 0-1.88.21-3.12.63-.84 0-2.09.2-3.75.62a35.2 35.2 0 0 0-6.88-.62H279.34c-11.25 0-26.46-1.25-45.63-3.75m294.38 8.12-2.5.63-.63 6.87 1.88 2.5v1.25l5.63 3.13c3.33.83 4.79 1.25 4.37 1.25 2.08 0 3.12-1.46 3.13-4.38 0-1.66-1.46-2.7-4.38-3.12l-1.88-.63v-1.25l6.88.63 2.5-4.38c-5-2.08-7.7-3.12-8.13-3.12l-3.12.62h-3.75m-297.5 1.25-.62 1.25c3.33 3.34 8.33 6.26 15 8.75 4.58 1.25 7.08 2.09 7.5 2.5l7.5 3.75 3.12.63-.62-1.88-9.38-6.25-6.87-2.5-5.63-2.5-10-3.75m315.62 15 1.88 1.25-.63 1.25-3.75-.62c-3.75-1.25-6.46-1.87-8.13-1.88-3.75 0-7.08.63-10 1.88l-6.25 3.75-1.25 3.12-4.37 3.13c-2.08 2.08-3.13 5.42-3.13 10 1.26 1.25 2.09 1.88 2.5 1.87a14.67 14.67 0 0 0 3.13-5c2.5-8.74 8.54-13.12 18.13-13.12 1.66 0 6.04 1.04 13.12 3.12v1.88l-4.38-.63.63 1.88 1.25 5.62 3.75 1.25v-3.12c2.5.83 3.54 1.25 3.13 1.25 1.66 0 2.7-1.46 3.12-4.38v-5.62c0-6.67-2.3-10-6.88-10l-.62.62c.42-2.91 1.46-4.37 3.13-4.37 1.25 0 2.29 1.04 3.12 3.12h1.25c-2.08-5-4.38-7.5-6.88-7.5-4.58 0-6.87 2.5-6.87 7.5v2.5l5 1.25m-170-7.5 2.5 5.63 6.88.62 18.12.63 26.25 3.75c0-2.5-7.3-4.8-21.87-6.88l-11.88-1.87-8.75-.63-11.25-1.25m-204.38 10.63h2.5c1.67 1.67 2.5 3.33 2.5 5l.63 5 .62 6.87-.62 4.38-5 29.37V268.54c0 2.08.62 4.58 1.87 7.5l-1.25-20c0-7.92.83-14.58 2.5-20l4.38-16.25c2.08-10.42 3.12-17.92 3.12-22.5 0-2.92-1.25-5.2-3.75-6.88-2.08-2.08-3.75-3.12-5-3.12a8.11 8.11 0 0 0-7.5 4.37l-.62 1.25c0 1.67 1.87 2.71 5.62 3.13m165.62-8.75c-10 1.25-16.46 3.54-19.37 6.87-2.92 2.92-4.17 9.38-3.75 19.38l.62 18.75v48.75l-1.25 30 1.25 25.62-.62 17.5c0 3.76.83 7.92 2.5 12.5 1.66 4.17 3.12 6.26 4.37 6.25l1.88-.62c-3.76-10.42-5.63-20.2-5.63-29.38V329.8c.42-4.58.83-11.25 1.25-20 .42-3.33.63-6.67.63-10v-30.63l-.63-18.12 1.25-16.88-1.25-25.62c0-9.17 4.37-14.17 13.13-15l8.12-.63c.42 0 1.04-.41 1.88-1.25l-4.38-4.37m276.25 1.25c-.42.42-.63 1.04-.63 1.87 0 .42-.2.84-.62 1.25l3.75 9.38c.83 4.17 1.25 6.67 1.25 7.5 0 5.83-2.3 15.2-6.88 28.12l-6.87 11.25-10.63 15.63.63 11.87 1.88 3.13 3.12 2.5c4.17 2.92 8.12 4.38 11.88 4.37 5.41 0 8.74-2.7 10-8.12-5 2.08-7.92 3.13-8.75 3.12-6.67 0-10-3.12-10-9.37 0-4.17 1.25-8.75 3.75-13.75 2.91-5.83 5-10.42 6.25-13.75 1.66-3.75 2.91-6.46 3.75-8.13 1.66-3.74 3.12-11.87 4.37-24.37-.42-1.67-.83-3.54-1.25-5.63 0-2.08-.2-4.16-.63-6.25a34.47 34.47 0 0 0-1.87-4.37l-2.5-6.25m-5 2.5v5c1.67 6.25 2.5 10.83 2.5 13.75 0 2.5-1.04 7.3-3.13 14.37-1.25 4.59-2.7 7.71-4.37 9.38l-2.5 3.75-3.13 6.25-16.25 10-5.62 1.87-3.75 1.88a47.9 47.9 0 0 1-12.5 1.87c-7.92 0-17.7-1.87-29.38-5.62v1.25c-.83 4.58-.2 7.5 1.88 8.75.42.42 2.5.62 6.25.62l26.88 1.88c6.66 0 12.08-1.46 16.25-4.38l6.87-5 6.25-3.12a30.33 30.33 0 0 0 3.75-4.38l9.38-13.12c4.16-4.17 6.24-13.33 6.25-27.5 0-5.83-1.88-11.67-5.63-17.5m-4.38 3.12v5c.42 2.09.84 4.59 1.25 7.5v1.88c0 1.25-1.25 6.46-3.75 15.62l-7.5 11.88-6.25 5.62-.62.63-3.13 1.25c-4.16 2.92-7.7 4.38-10.62 4.37-6.67 0-11.46-.62-14.38-1.87-2.5-1.25-3.75-4.58-3.75-10v-1.25c-6.25.83-9.37 3.33-9.37 7.5 0 3.33 2.3 6.67 6.88 10 5.41 1.25 9.58 1.88 12.5 1.87 12.5 0 22.7-4.58 30.62-13.75 7.92-9.16 11.88-21.04 11.88-35.62 0-7.08-1.25-10.63-3.75-10.63m-182.5 16.25v.63c0 2.08 1.04 3.54 3.12 4.37 1.67-4.16 3.75-6.24 6.25-6.25.42 0 1.25.21 2.5.63 1.25 0 2.92.2 5 .62l1.25 1.25c3.33 3.34 5.2 7.5 5.63 12.5l.62 4.38 1.25 8.12v5c0 .42 1.04 4.8 3.13 13.13l-.63-7.5-.62-8.75.62-20c.42-4.58-1.25-8.54-5-11.88-3.33-3.74-7.3-5.62-11.87-5.62-6.26 0-10 3.13-11.25 9.37m118.12-3.12c-2.92 2.92-4.38 6.25-4.38 10s.42 6.25 1.25 7.5c.83.83 2.5 1.25 5 1.25 5.83 0 8.75-2.5 8.75-7.5 0-1.67-.42-2.5-1.25-2.5-.83 0-1.25.2-1.25.62l-1.88 4.38h-1.87l1.25-5.63c0-1.25-.63-1.87-1.88-1.87-1.25.83-1.87 2.3-1.87 4.37l-1.88.63.63-3.13 1.88-3.75-2.5-4.37m-86.88 45.62v1.88l1.25 3.75 1.25 7.5 3.13 6.25 3.75 9.37 2.5 3.13 1.87 1.25 3.75 4.37c.83 2.09 1.67 3.13 2.5 3.13 3.33 0 5-1.46 5-4.38-.42-.41-.62-1.04-.62-1.87l-7.5-9.38c-6.67-7.91-10-20.2-10-36.87v-1.88c.41-2.91.83-7.7 1.25-14.37v-3.13c.41-1.25-.21-2.5-1.88-3.75l-3.75-4.37-1.25-.63-3.12 18.13v4.37c0 1.25.62 7.09 1.87 17.5m100.62-35.62v2.5c-.83 5.83 4.58 11.67 16.25 17.5l4.38 6.25c3.74-1.25 5.62-3.12 5.62-5.63 0-.83-.42-1.66-1.25-2.5l-3.75-4.37 6.88-1.88v-2.5c.83-3.33-2.3-5-9.38-5h-4.38l-5.62-1.87-4.38-3.13c.84 4.59 2.71 7.5 5.63 8.75v1.88l-3.75-1.25-6.25-8.75m-131.25 2.5-10.62 6.87c-5.84 4.59-8.76 9.38-8.75 14.38 0 7.5 2.5 11.25 7.5 11.25l15 .62 5 1.25-1.25-4.37c-14.59-.83-21.88-3.75-21.88-8.75 0-10.83 6.25-16.25 18.75-16.25 1.25 0 3.12.42 5.63 1.25l2.5 1.25.62 3.12h-5l-2.5-3.12c-.42-.42-1.04-.63-1.87-.63-9.59 0-13.96 3.55-13.13 10.63v3.12c1.67 3.76 3.96 5.63 6.88 5.63 2.91 0 4.37-1.46 4.37-4.38 0-.41-1.25-1.04-3.75-1.87l-1.87-3.13 3.12-4.37h1.25c.42-.42 1.04-.63 1.88-.63.83 0 2.5.84 5 2.5 2.91 1.67 4.58 2.5 5 2.5 2.91 0 4.37-1.87 4.37-5.62 0-5.83-3.13-9.17-9.37-10l-6.88-1.25m-46.87 4.37c-.84 8.34-2.71 17.71-5.63 28.13-.83.83-1.46 2.92-1.87 6.25l-3.75 5-5 9.37-7.5 8.13c-5 5.42-9.8 8.54-14.38 9.37l-10.62 2.5c-1.67 1.67-2.5 5.63-2.5 11.88v7.5c.41.42 1.25.62 2.5.62.83 0 2.29-.62 4.37-1.87l15.63-8.75c22.5-12.92 33.75-34.58 33.75-65 0-4.17-1.67-8.54-5-13.13m9.37 5v1.25l-1.87 3.13.62 7.5-1.25 6.87v17.5l1.25 6.88.63 6.87 1.87 5.63-8.12 4.37a4.2 4.2 0 0 0-1.88 3.75c0 2.09.63 5.21 1.88 9.38 1.66 4.17 2.5 7.3 2.5 9.37 0 5-3.96 7.71-11.88 8.13 2.92 2.5 5.2 3.75 6.88 3.75h2.5a60.8 60.8 0 0 1 4.37-1.25c6.67-5.42 9.8-10.63 9.38-15.63v-2.5l-1.88-8.12v-2.5c0-1.25.42-2.3 1.25-3.13l12.5-2.5c5-1.25 7.92-5.41 8.75-12.5l-8.12 3.75h-1.25a20.53 20.53 0 0 0-3.13-2.5 20.53 20.53 0 0 0-3.12-2.5l-1.25-.62c.41 0-1.05.42-4.38 1.25v.62c0 1.25-.42 1.88-1.25 1.88-2.08 0-3.13-1.25-3.12-3.75v-4.38c.41-1.66.41-4.37 0-8.12-.42-2.08-.84-3.96-1.25-5.63v-3.75c.41-.83.62-4.79.62-11.87l.63-5.63c0-.83-.63-2.5-1.88-5m130.62 3.75c5 15 7.5 27.5 7.5 37.5s-1.46 19.38-4.37 28.13l-5.63 23.12 5 2.5 2.5-6.87 1.88-8.13 1.25-3.75a77.16 77.16 0 0 0 3.12-21.87v-15c0-2.08-.2-4.17-.62-6.25v-4.38c.83-4.58-2.71-12.91-10.63-25m-336.25 11.25-2.5 23.75 2.5 11.25 6.25-3.12v-10l1.25-7.5v-2.5l-2.5-3.13-5-8.75m291.25 2.5-3.12 1.88c-2.09 5-3.13 7.92-3.13 8.75 0 4.17 1.46 8.96 4.38 14.37l.62 1.88 1.25 1.25 4.38 6.25 1.87.62v-1.87c0-1.25-.83-2.7-2.5-4.38-3.33-3.33-5-8.12-5-14.37 0-2.92 1.87-7.3 5.63-13.13l-4.38-1.25m-40.62 18.75c1.66 2.92 3.54 4.38 5.62 4.38 3.33 0 5-1.87 5-5.63 0-3.74-2.08-5.62-6.25-5.62-3.75 0-5.2 1.67-4.37 5v1.87m-6.88 2.5c-3.33 0-5 1.67-5 5 0 3.34 1.67 5 5 5 4.58 0 6.87-1.87 6.88-5.62 0-3.33-2.09-4.8-6.25-4.38h-.63m-91.87 1.25c-3.34 2.09-5 5-5 8.75h-2.5v1.25c2.91 4.17 6.66 6.26 11.25 6.25h.62c3.33 0 5.2-.2 5.63-.62l6.87-5c4.17-2.5 6.25-4.37 6.25-5.63 0-.83-.42-1.25-1.25-1.25-.42 0-1.04.42-1.87 1.25-7.92 3.34-12.3 5-13.13 5-5 0-7.3-2.7-6.87-8.12v-1.88m114.38 1.25 1.25 6.88h1.87c2.92 0 4.37-1.46 4.38-4.38 0-2.91-1.67-4.37-5-4.37l-1.25.62-1.25 1.25m98.75 2.5c-8.76 5.84-13.13 13.13-13.13 21.88 0 2.5.2 4.17.63 5l1.25 4.37 1.25 6.25 3.75 6.88 5 5 1.25 1.25 2.5 1.25.62-1.88c0-.41-1.04-1.66-3.13-3.75-5-4.16-7.5-10.83-7.5-20 0-13.33 6.25-20 18.76-20 5 0 7.5 2.3 7.5 6.88l-3.13 8.12c7.5-1.25 11.25-5 11.25-11.25 0-2.91-2.08-6.24-6.25-10-5.83-2.5-9.58-3.74-11.25-3.75h-1.88l-7.5 3.75m-104.37 0c-5.42 0-8.13 1.88-8.13 5.63s1.25 5.63 3.75 5.62h.63c1.25-.41 2.91-.83 5-1.25 1.25-.41 1.87-1.25 1.87-2.5 0-1.66-1.04-4.16-3.12-7.5m-19.38 15.63c2.08 2.08 3.54 3.13 4.38 3.12 3.74 0 5.62-1.87 5.62-5.62 0-2.92-1.67-4.37-5-4.38-4.17 0-5.83 1.67-5 5v1.88m24.38-2.5-1.88 1.87v1.88c-.83 3.75.63 5.63 4.38 5.62 5 0 7.5-1.87 7.5-5.62 0-4.17-1.67-6.25-5-6.25h-.63l-4.37 2.5m146.25-1.88-5.63 1.88c-10 5.42-16.04 11.25-18.12 17.5l-2.5 8.12v.63l1.25 5-1.25 3.12-1.25.63c-1.25 0-2.3-1.25-3.13-3.75-.42-2.5-2.3-3.96-5.62-4.38l-1.88 6.88-1.25 5-1.87 5c-.42.42-.63 1.46-.63 3.12v2.5c.42 1.25.83 2.92 1.25 5l1.25 5 6.88 11.88-.63.62 11.25 13.75 4.38 6.25 7.5 11.88c1.25-2.08 2.5-4.37 3.75-6.88a85.6 85.6 0 0 1 4.37-8.75v-1.25c0-2.08-1.25-5.41-3.75-10-1.67-3.33-3.33-7.29-5-11.87-1.25-5-2.3-10.42-3.12-16.25.41-1.25.62-2.5.62-3.75s.2-2.08.63-2.5v-5c0-2.5.83-5.2 2.5-8.13l3.75-10c1.25-2.91 6.66-6.24 16.25-10l1.87.63-1.25 1.25 1.88-1.88c7.91 0 11.87 3.34 11.87 10 0 2.92-.2 4.8-.62 5.63l-1.25 1.87-5 5.63-16.88 6.25-1.25 2.5-3.12 1.87c-1.25.84-1.88 3.55-1.88 8.13 0 4.17 2.3 8.54 6.88 13.12 3.74 2.5 6.45 3.76 8.12 3.75 1.67 0 5.42-1.25 11.25-3.75 0-.83 1.04-2.91 3.13-6.25-.42-.41-.63-.83-.63-1.25 0-.41-.2-.83-.62-1.25-2.92 4.17-7.3 6.26-13.13 6.25-1.25 0-2.7-1.04-4.37-3.12-1.25-2.5-1.88-4.8-1.88-6.88 0-2.5.83-3.95 2.5-4.37l15.63-6.25 2.5-3.13c5-5.41 7.5-11.66 7.5-18.75 0-12.08-6.26-18.12-18.75-18.12-1.25 0-5.63 1.04-13.13 3.12h1.88l-2.5 1.25 1.25-7.5m-178.13 4.38c0 3.75-1.87 5.83-5.62 6.25v-1.88 1.25l-5.62-.62h-.63c0 3.33 2.92 5 8.75 5s8.75-2.08 8.75-6.25c0-2.5-1.88-3.75-5.62-3.75m20 3.12-3.75 5.63c-4.59 2.5-8.55 3.75-11.88 3.75-3.75 0-6.25-.2-7.5-.63l-11.25-5-3.12-1.87-1.25-.63-.63 3.75c10.83 5.84 18.75 8.76 23.75 8.75 9.17 0 16.25-3.95 21.25-11.87-.83-3.75-1.88-5.62-3.12-5.63-.84 0-1.25.21-1.25.63l-1.25 3.12m-38.75 8.75 12.5 11.88c.41.42.62 1.46.62 3.12 0 .84-.62 2.09-1.87 3.75l-1.88 1.88h2.5c7.08.83 10.63-1.25 10.63-6.25 0-4.58-2.92-7.92-8.75-10l-4.38-1.25-8.12-4.38-1.25 1.25m78.75 15.63v-3.13h-6.25l-4.38-1.25-16.25-2.5c-2.92-.41-4.38-2.08-4.37-5v-3.12h-1.25c-3.76 0-5.63 1.88-5.63 5.62 0 6.67 5 9.59 15 8.75h4.38l11.25-.62c.41 0 1.25.2 2.5.62a27 27 0 0 1 5 .63m-128.12-6.88c-2.92.42-5.63 2.3-8.13 5.63-4.17 4.17-6.25 8.13-6.25 11.87 0 13.34 5.62 20 16.88 20l-1.25 2.5-1.25.63-1.88 2.5c5.42 5 10.2 7.5 14.38 7.5l1.87-.63 16.88-7.5 10.62-4.37 5-3.13-.62 4.38 1.25-1.88-6.25 1.88-9.38 4.37-3.75 2.5c-.42.42-1.04.84-1.87 1.25l-3.75 1.88c-7.5 3.33-12.3 8.54-14.38 15.62l7.5.63 7.5-.63h7.5l1.25-3.12 3.13-3.13 3.12-5.62h2.5l-7.5 11.87h6.25c2.92-5 7.5-10.41 13.75-16.25 22.08-18.33 46.25-27.5 72.5-27.5 14.58 0 29.38 2.92 44.38 8.75l13.75 5.63 9.37 3.12 6.25 2.5 8.13 4.38-5.63-12.5-1.88-1.25-1.25-.63-3.75-2.5c-6.66-5-14.58-8.74-23.75-11.25-1.66-.41-3.54-.83-5.62-1.25a96.75 96.75 0 0 1-7.5-1.87l-14.37-3.75a156 156 0 0 0-13.75-1.88 66.85 66.85 0 0 0-13.13-1.25c-2.92 0-5.63.21-8.12.63-2.09 0-4.17.2-6.25.62l-23.75 3.75-8.13 3.13c-.42.42-1.25.62-2.5.62s-2.3.21-3.12.63c-4.59.83-9.59 2.08-15 3.75a339.07 339.07 0 0 0-16.88 4.37c-4.58.84-8.75 1.67-12.5 2.5-3.33.42-6.25.63-8.75.63-12.08 0-18.12-4.58-18.12-13.75 0-6.25 2.91-9.37 8.75-9.38 2.08 0 3.12 1.25 3.12 3.75v1.25l-1.87 4.38v3.12c.41 2.92 2.91 4.38 7.5 4.38 3.74 0 6.45-1.46 8.12-4.38l-5.62-6.25-.63-11.25-5.62-3.12-7.5 3.12m-158.12 0v1.25l-2.5-.62c-1.25 0-1.88.62-1.88 1.87 0 2.5 1.46 5.84 4.38 10a74.87 74.87 0 0 1 2.5 5.63 43.76 43.76 0 0 1 3.12 6.25l3.13 6.25 2.5 2.5c4.58-2.08 6.87-3.96 6.87-5.63 0 .42-.42-.62-1.25-3.12-3.33-6.25-5.2-9.8-5.62-10.63-1.25-3.33-2.5-6.45-3.75-9.37-.84-2.92-3.34-4.37-7.5-4.38m338.12 6.88-1.88 8.12 5.63 3.13 6.25 2.5c1.25.83 2.7 1.88 4.37 3.12a32.9 32.9 0 0 1 5.63 3.75c1.25-2.91 1.87-5.41 1.87-7.5 0-1.66-2.08-3.33-6.25-5l-1.25-.62-5.63-3.75-6.25-3.75h-2.5m-290.62 5-3.12 1.25c-3.33 4.58-5 8.75-5 12.5 0 2.5.83 5.2 2.5 8.12l.63 1.25c5.83 10.84 12.7 16.88 20.62 18.13l11.25 1.87v-.62c0-2.08-3.33-3.96-10-5.63-7.08-1.66-12.7-7.29-16.87-16.87a9.14 9.14 0 0 1-1.88-5.63c0-5.83 3.33-8.95 10-9.37-.42-4.17-1.88-6.25-4.37-6.25h-1.25l-2.5 1.25m5.62 10.62-1.25 2.5v1.25c15.83 1.67 24.8 10.84 26.88 27.5 0 2.5.41 3.76 1.25 3.75 1.25 0 2.08-.2 2.5-.62-.42-1.25-.63-3.54-.63-6.88-1.25-17.91-10.83-27.08-28.75-27.5m-72.5 10c-1.67 2.92-2.5 5.21-2.5 6.88v1.87c.42.84.83 2.3 1.25 4.38l.63 2.5a6.14 6.14 0 0 0 5.62 3.12c-.42-.83-.62-2.91-.62-6.25 0-6.66 3.74-10 11.25-10 2.5 0 6.04 1.25 10.62 3.75 2.08-.83 3.12-2.08 3.13-3.75l-5.63-4.37-3.12-3.13c-1.25-1.25-4.17-1.87-8.75-1.87-5.42 0-9.38 2.3-11.88 6.87m36.88 5-1.88.63c-17.5 15.83-26.25 37.08-26.25 63.75 0 8.75 1.46 17.5 4.38 26.25 0 4.58.83 6.88 2.5 6.87 1.66 0 2.5-1.25 2.5-3.75 0-1.25-1.05-3.95-3.13-8.12-2.08-4.58-3.13-11.04-3.12-19.38 0-3.33 1.04-10.2 3.12-20.62 4.17-18.75 12.7-33.33 25.63-43.75 9.16-7.5 13.75-11.46 13.75-11.88 0-1.66-.84-2.5-2.5-2.5-1.67 0-4.59 2.09-8.75 6.25l-6.25 6.25m295.62-6.87-.63 5-3.12 5.62-5 4.38-11.25 11.25a35.28 35.28 0 0 1-7.5 5.62l-6.25 3.13.62.62-10 6.25-8.12 3.13-11.88 3.75-5 1.25-6.87 1.25-5 .62-21.25 3.13-8.75-.63-22.5 1.25h-1.88l-11.25-1.25c-1.25-.41-3.13-.62-5.62-.62-2.92 0-5.42-.2-7.5-.63l-18.75-.62-3.75 1.87c-2.09 2.09-3.34 3.76-3.75 5-.42 1.25-.63 6.67-.63 16.25l.63 99.38 3.75-.63V422.3l1.25-19.38c1.25-5 4.79-7.08 10.62-6.25h.63l42.5 3.13c67.91 3.33 112.08-16.25 132.5-58.75l-6.25-1.25m-285 8.75-5 5c-.42.42-.63 1.04-.63 1.87 0 1.25 1.25 2.09 3.75 2.5l2.5 1.88 6.88 4.37c10.41 7.92 20.41 12.09 30 12.5l7.5.63 8.75.62c2.91.42 4.37-.83 4.37-3.75 0-2.08-2.7-3.12-8.12-3.12l-6.88-.63-15-4.37c-12.08-5.83-20.42-11.25-25-16.25l-3.12-1.25m289.38 9.37c-.84 4.17-1.25 6.67-1.25 7.5 0 4.59 2.7 7.09 8.12 7.5l-.62-7.5c4.16-6.24 9.37-9.37 15.62-9.37 12.92 0 24.38 5.42 34.38 16.25l12.5 13.12 3.12 5.63 2.5 1.87.63-2.5-1.88-1.87-2.5-5-2.5-1.25c-.83-2.5-3.13-5.62-6.88-9.38l-5-5c-3.33-3.74-6.25-6.45-8.75-8.12l-14.37-8.13-11.25-2.5h-10c-5.83 2.09-9.8 5-11.88 8.75m-178.74 1.25c-.42.42-.63 1.46-.63 3.13 0 1.25.63 1.88 1.88 1.87l8.12-3.12c1.25-.83 3.33-1.46 6.25-1.88 0-2.5-1.04-3.74-3.12-3.75h-.63l-11.87 3.75m279.38 3.75c1.66 1.67 3.33 2.5 5 2.5 2.08 0 3.12-1.45 3.12-4.37s-1.67-4.37-5-4.38c-2.5 0-3.75 1.05-3.75 3.13 0 1.67.2 2.7.63 3.12m-397.5-6.25-1.88 2.5 13.75 6.88-11.87-9.38m136.88 3.13-16.88 5.62c0 3.76.83 5.63 2.5 5.63 6.25 0 12.92-2.92 20-8.75l-5.62-2.5m83.75 3.75c-.84-2.08-1.88-3.12-3.13-3.13-2.92 0-4.38 1.46-4.37 4.38 0 1.25.41 1.88 1.25 1.87.83 0 2.91-1.04 6.25-3.12m-21.25-.63-11.25 2.5c-2.09 2.09-3.13 3.76-3.13 5v1.25l1.25 1.25 5.63-1.25 14.37-2.5 4.38-2.5a59.48 59.48 0 0 0-11.25-3.75m-185 3.13 3.75 2.5 1.25 1.25-5-3.75m391.88 10.62h.62c4.58 0 6.87-1.45 6.88-4.37 0-2.92-1.88-4.37-5.63-4.38-2.08 0-3.13 1.05-3.13 3.13 0 .42.42 2.3 1.25 5.62m-18.12-5.62a34.4 34.4 0 0 0-8.75 14.37l5-4.37a32.77 32.77 0 0 1 5.63-3.75 16.25 16.25 0 0 1 4.37-2.5c4.17-.42 6.25-1.67 6.25-3.75 0-1.25-1.04-2.3-3.13-3.13h-3.12l-1.88 1.25c-.83.42-2.29 1.05-4.37 1.88m-66.25 2.5-9.38 3.75h-4.37l-6.25 1.25H501.22c-8.34.42-13.34.83-15 1.25-1.67 0-4.17.83-7.5 2.5-4.59 1.25-8.13 3.13-10.63 5.62-11.25 8.34-16.87 19.17-16.87 32.5 0 6.67 1.87 10 5.62 10 .83-.83 1.87-2.08 3.13-3.75 1.25-1.66 2.08-4.16 2.5-7.5l3.12-.62c0 1.25-.83 3.33-2.5 6.25-1.25 2.5-1.88 4.17-1.87 5 0 .83.62 1.25 1.87 1.25 2.08 0 4.17-2.5 6.25-7.5.42-1.67.63-2.7.63-3.13.41-.83.62-1.45.62-1.87.42-2.92.83-4.58 1.25-5h2.5l-3.12 13.75 2.5.62c1.66 0 4.37-1.66 8.12-5 3.75-3.74 6.04-5.83 6.88-6.25 1.25-.83 3.33-1.45 6.25-1.87l-1.25 3.75 3.12-3.75-1.87-.63 1.87.63-1.87 3.12-5 1.25-3.75 4.38-3.75 1.87 2.5-1.87-2.5 1.87-3.75 1.88-1.88 3.12a11.41 11.41 0 0 0-5 8.13l5-4.38c2.92-2.91 5.42-4.37 7.5-4.37.83 0 1.25.62 1.25 1.87v-2.5 3.13l-1.87-.63-1.88 1.25h2.5l-6.25 2.5c-3.33 2.5-5.2 5.21-5.62 8.13l1.25 1.87a35.45 35.45 0 0 1 10.62-7.5l-5.62 6.25c-1.67 1.67-2.5 2.92-2.5 3.75 0 1.25 3.54 2.3 10.62 3.13l16.25 1.25c12.5.83 21.67-5 27.5-17.5l5.63-13.13 1.25-6.25-8.13 1.25 3.75-5.62 5.63-6.25c1.66-1.67 2.5-5.83 2.5-12.5 0-15-2.09-22.5-6.25-22.5l-5.63 3.75m-340.62 11.87-3.12 8.13a43.58 43.58 0 0 0-2.5 15l2.5 27.5 2.5 3.12a8.7 8.7 0 0 0 .62-3.75c0 .42-.42-.62-1.25-3.12l-.62-6.88c-1.25-7.91-1.88-12.7-1.88-14.37 0-5 1.25-11.04 3.75-18.13 4.58-10.83 9.58-16.25 15-16.25 2.5 0 5 1.46 7.5 4.38v1.87c0 2.09.63 3.13 1.88 3.13.83 0 2.5-2.08 5-6.25 0-6.25-2.71-9.37-8.13-9.38-10 0-17.08 5-21.25 15m418.12-7.5-3.75 3.13v2.5c1.67 2.92 3.12 4.38 4.38 4.37 2.91 0 4.37-1.87 4.37-5.62 0-2.08-1.67-3.54-5-4.38m-340.62 4.38-2.5 1.25c-1.25 10-10.63 22.08-28.13 36.25a49.66 49.66 0 0 1-18.74 9.37c-2.92.42-4.38 1.46-4.38 3.13.42 1.25 1.25 1.88 2.5 1.87h.63l.62-.62 5-2.5 12.5-5.63c17.5-9.16 28.96-23.33 34.38-42.5l-1.88-.62m327.5 0-3.13 3.75c-2.5 7.5-3.75 11.67-3.75 12.5 0 1.25 1.25 2.7 3.75 4.37v1.88c1.67 2.5 4.17 7.5 7.5 15 2.09 3.33 3.13 5.63 3.13 6.87 0 .42-1.04 1.67-3.13 3.75l1.88-.62c-3.33-.83-5-2.5-5-5-.42-9.58-4.17-17.92-11.25-25l-2.5-.63-2.5-1.87-4.38-2.5-8.12-3.13-1.25-1.25c-2.92 0-4.38 1.88-4.38 5.63 0 1.67 1.25 5 3.75 10l-4.37.62 3.75-1.25h-1.88c-3.75 0-8.33 1.05-13.75 3.13l-4.37 5.62v3.13l-2.5 7.5 1.88 4.37a30.8 30.8 0 0 1 1.87 3.13c.42.83 1.87 1.67 4.38 2.5 2.91-8.75 8.33-13.13 16.25-13.13 1.25 0 3.54.63 6.87 1.88l6.88 5 5.62 5.62 2.5 3.75c8.33 14.59 12.5 31.88 12.5 51.88 0 4.58-.2 7.5-.63 8.75l-1.87 11.87a65.26 65.26 0 0 0-1.88 8.75c-.41 2.5-1.04 5-1.87 7.5l6.25.63-1.88 7.5h1.88c2.92-6.67 4.8-11.46 5.63-14.38.41-.83.83-2.08 1.25-3.75.41-2.08 1.04-4.79 1.87-8.12l3.75-16.25c1.67-4.58 2.5-14.38 2.5-29.38 0-24.16-3.96-44.37-11.88-60.62l-4.37-10-2.5-7.5-2.5-2.5m-391.25 30.62v6.25c0 7.5.63 12.71 1.88 15.63l4.37 11.87c1.25 3.34 2.3 5 3.13 5 .83 0 1.45-.2 1.87-.62l-1.25-6.25-4.37-13.13c-.84-3.33-1.25-5.83-1.25-7.5 0-19.58 6.45-29.37 19.37-29.37 3.33 0 6.87 1.88 10.63 5.62 3.74 3.76 6.04 5.63 6.87 5.63 1.25 0 1.87-.63 1.88-1.88l-3.13-6.87v-1.25c-1.67-1.67-3.13-2.7-4.37-3.13-4.59-2.5-8.96-3.74-13.13-3.75-10.42 0-17.92 7.92-22.5 23.75m248.12-20.62-10 1.87h5.63l-11.25 1.25-3.75 1.88h2.5l-11.25 1.25 5.62-.63-33.12 4.38 1.87 4.37 1.88 2.5 2.5 3.75 2.5 5 1.87.63 4.38 3.75 5 4.37 6.25 3.75 3.75 3.13h3.12l1.25-1.25v-1.25l-3.75-3.13 8.75 2.5-.62-2.5-2.5-.62-2.5-3.75 5 1.87 1.25 1.25c1.66 1.25 2.91 1.88 3.75 1.88-.42 0 1.04-.42 4.37-1.25l-5.62-3.13-9.38-9.37-1.87-3.13h.62a62.16 62.16 0 0 1 5 4.38l5 2.5c.42 3.33 3.54 5.2 9.38 5.62l1.87 1.25v-.62c0-2.92-1.04-4.37-3.12-4.38l-1.88-1.87h-.62l-7.5-7.5 8.75 5.62 3.75 3.13.62-2.5c0-.83-1.25-2.3-3.75-4.38l-2.5-5.62 1.88.62 1.25.63.62 2.5 3.13 1.87v-4.37c0-1.25-.84-2.7-2.5-4.38l3.12-.62 1.25 1.25.63-1.88 1.87-3.75-1.87-3.75-.63-3.12m-109.38 9.37-1.25.63-5.62 13.75c-5.42 14.58-8.13 30.2-8.13 46.87v14.38c0 4.58.2 7.5.63 8.75l1.25 10 4.37 18.75 5.63 14.38 3.75 6.25 1.87 2.5 1.25 2.5c1.67-1.67 2.92-4.17 3.75-7.5 2.5 0 4.17 1.04 5 3.12l1.25 1.88c2.92 5.41 9.37 8.75 19.38 10 7.08.83 12.08 4.37 15 10.62l.62 4.38-2.5 3.75 6.25 3.12a17.5 17.5 0 0 0 8.75 2.5l11.25.63c2.92 0 4.37-.84 4.38-2.5 0-.42-.84-1.25-2.5-2.5a9.14 9.14 0 0 1-1.88-5.63 43.58 43.58 0 0 0 15 2.5c13.75 0 23.54-9.17 29.38-27.5l-5.63 1.88-1.25-.63v-3.75c.42-2.5-1.04-5.42-4.37-8.75-5-2.5-9.17-3.75-12.5-3.75-12.5 0-20.21 4.38-23.13 13.13 1.67.41 2.5 1.04 2.5 1.87v3.75c-1.67.42-3.13.83-4.37 1.25h-2.5c-3.34 0-7.09-2.08-11.25-6.25v-1.88c0-2.08.83-3.33 2.5-3.75 3.74-1.66 5.62-3.54 5.62-5.62v-1.25c-.83-1.25-1.67-1.87-2.5-1.88v.63l-2.5 2.5-6.25 5-.62 10c.41 5 5.62 7.5 15.62 7.5 8.33 0 13.75-3.13 16.25-9.38l-1.25.63v-1.25a7.33 7.33 0 0 0-1.25-1.88v-.62c0-1.67 1.87-2.92 5.63-3.75l8.75-1.25c1.25.83 2.91 1.88 5 3.13 2.08 1.25 2.91 3.33 2.5 6.25v.62c-2.92 5-6.67 8.96-11.25 11.88h-1.88c-5.83 1.25-10 1.87-12.5 1.87h-4.37a68.57 68.57 0 0 0-7.5-1.25c-3.76 0-6.26-.2-7.5-.63l-2.5-1.25-1.88-1.25-6.25-2.5-2.5-3.75h-5l-1.25-1.25-7.5-5-3.12-1.87v-.63l-2.5-2.5-1.88-2.5-3.12-1.87-3.13-5-5-5.63-2.5-5-5-9.37-1.25-5-3.75-12.5-.62-18.75 5-40.63 2.5-8.75-.63-10c-.42-2.5-.83-3.95-1.25-4.37-.42-.42-1.67-.63-3.75-.63m-17.5 6.25c.42 3.76 1.46 5.63 3.13 5.63 1.25 0 2.29-.42 3.12-1.25 4.58-3.33 6.87-6.25 6.88-8.75 0-1.25-.63-1.87-1.88-1.88-.42 0-.83.21-1.25.63l-3.12 4.37-6.88 1.25m26.88 5 1.25 5a8.7 8.7 0 0 0 3.75.63c.83 0 2.91-1.04 6.25-3.13h1.87v9.38l1.25 3.75.63 2.5c3.74 4.58 6.66 6.88 8.75 6.87l1.25-.62c4.16-1.25 6.87-1.87 8.12-1.88l2.5.63c.42 0 .63-.2.63-.63 0-1.25-.63-2.29-1.88-3.12-5-5-7.3-12.08-6.87-21.25v-8.75l-1.88.62h-6.87l-4.38-.62a54.15 54.15 0 0 0-7.5-.63 26.98 26.98 0 0 0-5-.62c-2.08 0-3.13 1.46-3.12 4.37 0 .84.41 3.34 1.25 7.5m-98.13 5c-1.25 2.09-1.88 3.76-1.87 5 0 .42 1.25 4.38 3.75 11.88l1.25 8.12.62 1.25c.83 2.09 1.46 3.13 1.88 3.13-.42 0 .62-.42 3.12-1.25l-6.87-27.5-1.88-.63m95.63 2.5a57.04 57.04 0 0 0-2.5 16.88v3.12c.41.84.83 2.09 1.25 3.75 2.5 3.34 5 5 7.5 5 6.66 0 10-2.29 10-6.87 0 .42-.42-1.04-1.25-4.38l-7.5 4.38h-.63c-4.58 0-6.88-3.12-6.87-9.38 0-1.25.2-2.91.62-5 .83-2.08 1.25-3.74 1.25-5 0-.83-.62-1.66-1.87-2.5m50.62 3.13a5.71 5.71 0 0 0-4.37 3.75l-2.5 5 5 1.25 1.25-.63v1.25l.62-.62c-.42.42-1.04.83-1.87 1.25l-3.75 1.87-5.63 4.38c-.83.42-1.46.83-1.87 1.25 0 .42-.21.83-.63 1.25 0 2.5 3.75 5.2 11.25 8.12l5.63 2.5 6.25 1.25c2.5 0 3.74-.83 3.75-2.5v-1.87c2.91 0 4.58-1.46 5-4.38h-8.13l2.5-1.25 6.25-.62 3.75-4.38h-5l-8.75 1.25h-2.5l21.88-5c-1.25-2.91-2.92-3.95-5-3.12h-.63l-8.12 1.87-1.25-1.25 9.37-1.87-4.37-1.88-3.13-1.87-7.5-.63 2.5-3.12c-2.08-2.5-3.96-3.75-5.62-3.75-1.25 0-2.09.2-2.5.62l-1.88 1.88m46.88 7.5-6.25 1.25.62.62-2.5.63-1.87 1.25a41.23 41.23 0 0 0-13.75 14.37l-5 8.75-6.25 6.88c-6.26 6.67-12.71 11.46-19.38 14.37l-6.87 1.88-6.25 1.25h-5c-3.34 0-6.67-.83-10-2.5l-3.13-1.88c-2.5-2.91-3.75-5.62-3.75-8.12 0-10.42 5.2-15.63 15.63-15.63 8.74 0 12.7 2.92 11.87 8.75v1.88a8.48 8.48 0 0 0 2.5-6.25c0-6.67-5-10-15-10-7.08 0-14.37 3.96-21.87 11.87-2.92 4.17-4.38 8.55-4.38 13.13 0 7.5 1.87 12.7 5.63 15.62l1.87 1.88c5.83 0 8.75.62 8.75 1.87a7.25 7.25 0 0 0-1.25 1.88l-1.87 1.87.62 1.88c.83 1.25 2.3 2.08 4.38 2.5l7.5 2.5c3.33.83 4.79 1.25 4.37 1.25 6.25 0 12.92-1.46 20-4.38l5-1.87c6.25-2.08 13.75-6.67 22.5-13.75l1.88-1.88c.83-.83 1.87-1.66 3.12-2.5l4.38-4.37 3.75-5.63c1.66-2.5 3.33-3.74 5-3.75 1.25 0 2.08.21 2.5.63v-1.88c.41.42.62 1.46.62 3.13 0 1.25-1.25 2.7-3.75 4.37l2.5-3.75-3.75 3.75-3.75 5.63c-2.08 3.75-6.46 7.5-13.12 11.25l-13.13 7.5c-1.67.83-3.96 2.08-6.87 3.75-2.5 1.25-5.84 2.7-10 4.37h2.5l-3.13.63-6.87 2.5-1.88 1.87-5 2.5h1.25c-5.42 5.42-8.13 9.8-8.12 13.13 0 1.67 1.04 3.54 3.12 5.63l1.25 1.87 3.75 1.25c-.42-.83-.62-2.7-.62-5.63 0-5.41 5.2-9.58 15.62-12.5l25.63-6.87a74.26 74.26 0 0 0 36.25-21.88c10-10.83 15-22.08 15-33.75 0-4.58-1.88-9.37-5.63-14.37l.63-1.25-1.88.62-3.12-3.75-4.38-2.5-5.62-1.87h-5m90.62 1.25c-1.25 2.5-1.88 4.38-1.88 5.62 0-1.25 3.13 2.5 9.38 11.25a30.38 30.38 0 0 1 3.75 4.38l3.75 8.75.63 1.87 1.87 9.38c1.25 5.83 1.87 10.2 1.88 13.12 0 2.5-.21 3.96-.63 4.38l-1.88 5a334.9 334.9 0 0 1-1.87 10c-.83 4.17-2.08 8.96-3.75 14.37l-5 7.5-3.75 5.63-12.5 15c-1.25.83-1.88 1.46-1.88 1.88v2.5c.42.41 1.05.62 1.88.62a7.23 7.23 0 0 1 1.88-1.25 9.84 9.84 0 0 0 2.5-1.88l5-5 2.5-3.75 10.62-15.62c3.75-5.42 7.5-17.7 11.25-36.88.42-2.08.63-3.74.63-5 .41-1.66.62-2.91.62-3.75 0-8.74-2.5-17.91-7.5-27.5-5-10-10.83-16.87-17.5-20.62m-301.88 5c1.25.83 2.5 1.88 3.75 3.12 1.25.84 2.7 2.09 4.38 3.75l.62 9.38h2.5l1.25-6.25.63-3.13v-.62c.83-5.83-2.3-8.75-9.38-8.75-.83 0-1.25.2-1.25.62l-2.5 1.88m-68.12 3.12a26.24 26.24 0 0 1 13.12 8.75c.83-2.5 1.25-3.54 1.25-3.12 0-1.67-1.25-3.75-3.75-6.25-2.08-2.5-3.96-3.75-5.62-3.75h-.63l-4.37 4.37m13.75 73.75c1.25 0 1.87-1.04 1.87-3.12v-1.25l-.62-3.13-1.88-11.87-1.25-10.63-.62-2.5c-.42-7.08 1.45-14.37 5.62-21.87 4.58-7.92 9.37-13.33 14.38-16.25 2.5-1.25 3.74-2.5 3.75-3.75 0-1.25-.42-1.87-1.25-1.88-1.25 0-2.71.84-4.38 2.5l-7.5 6.25c-3.75 3.34-7.08 9.38-10 18.13-2.92 8.75-4.38 16.25-4.37 22.5 0 2.08.2 4.58.62 7.5.83 2.5 1.67 5.83 2.5 10 0 .83.2 2.7.63 5.62.41 2.5 1.25 3.76 2.5 3.75m393.12-70.62-2.5 1.25c-3.34 4.58-5 8.13-5 10.62 0 2.09 1.04 4.8 3.12 8.13 2.5-5.42 5.62-8.12 9.38-8.13 10 0 15.62 11.25 16.87 33.75v5l-3.13 19.38 1.25-.63c.84-.83 1.25-2.08 1.25-3.75l3.13-17.5v-3.12c.42-9.17-1.46-19.58-5.63-31.25l-1.87-5.63-8.13-8.12-6.87-.63-1.88.63m-350 28.12-6.24-2.5c-.84-4.16-1.25-6.04-1.25-5.62 0-1.67 1.87-4.17 5.62-7.5l15-5 1.25-1.88-2.5-.62c-5 0-10.2 1.88-15.62 5.62-5.42 3.34-8.13 7.5-8.13 12.5s1.87 7.5 5.63 7.5c2.5 0 4.58-.83 6.25-2.5m46.25-5.62.62 4.37c0 2.09-2.08 4.59-6.25 7.5l3.75 1.25c4.17-2.91 6.25-6.04 6.25-9.37 0-5-1.88-9.37-5.62-13.13-5-4.16-9.38-6.66-13.13-7.5-1.25 0-1.88.63-1.87 1.88 0 1.67 1.04 2.92 3.12 3.75 4.58 1.67 7.3 2.92 8.13 3.75 1.25.83 2.91 3.33 5 7.5m208.12-12.5h4.37-1.87l.62 4.37 3.13 4.38 3.12 1.25v.62l-1.87-.62 1.25 1.87h-4.38l-3.12-6.87.62 13.75 3.13 5.62c-.84.42-1.46.84-1.88 1.25h-.62c-.42 0-1.05-.41-1.88-1.25a15.71 15.71 0 0 0-3.75-6.25v8.13l1.88 3.12.62 2.5h-1.25c-1.25.84-2.92-1.25-5-6.25-.42 1.25-.62 3.13-.62 5.63 0 2.08.83 4.58 2.5 7.5l.62 3.12 1.88 2.5v4.38l1.87 2.5 1.25 5.62a453.86 453.86 0 0 1 1.88 13.75c0 2.5-.21 4.38-.63 5.63 13.75-7.08 20.83-14.38 21.25-21.88l.63-10.62h2.5l5 5 5 1.25c1.25-6.25 2.7-10.63 4.37-13.13l.63-3.12 1.87-9.38 1.88-1.87-1.25-5.63c-1.25-8.33-7.09-12.7-17.5-13.12l-26.25-3.75m-169.38 71.25 16.87-1.25c1.67-.42 2.92-.63 3.75-.63l1.25-.62c0-2.5-1.25-3.75-3.75-3.75h-.62l-10 1.25h-3.13c-35.83 2.08-64.8-6.46-86.87-25.63l-16.88-14.37c-3.33-2.92-7.7-9.37-13.12-19.38-1.25-2.91-2.3-4.37-3.13-4.37-1.67 0-2.5 1.25-2.5 3.75 0 3.33 1.25 6.46 3.75 9.37l3.13 3.75 6.87 9.38c.42 1.25 2.92 3.54 7.5 6.87l13.13 11.25c16.66 14.17 38.95 22.09 66.87 23.75l16.88.63m-85.63-63.13v2.5c0 3.34 1.25 5 3.75 5l5 3.75 7.5 4.38 4.38 1.87c1.66.42 2.91.84 3.75 1.25h1.25c.83 0 1.25-1.25 1.25-3.75l-8.13-1.87-5-4.38-7.5-3.12-4.37-5-1.88-.63m35.63 1.25-.63 3.13 2.5 1.25-1.87-4.38m126.88 6.88-2.5-3.13c-.42.42-.63 1.46-.63 3.13s.83 2.5 2.5 2.5c.42 0 .63-.42.63-1.25v-1.25m-126.88-1.88-1.25 6.25-1.88 10-2.5 8.13-.62 7.5h1.87c3.75-11.25 5.62-19.17 5.63-23.75 0-.83-.21-1.87-.63-3.13 0-1.25-.2-2.91-.62-5m-68.75.63c.83 3.33 2.08 5 3.75 5l-3.75-5m3.75 6.87c2.91 4.17 5.83 7.92 8.75 11.25l10 8.75 1.87.63v-1.88l-20.62-18.75m363.75 38.75-9.38 20.63c-2.92 2.92-4.38 5.63-4.38 8.13 7.92-9.59 13.55-18.75 16.88-27.5l4.38-11.25c5.41-12.5 10.2-18.96 14.37-19.38 2.08-.42 4.58-.63 7.5-.63h3.13v-1.25c0-5-2.3-7.5-6.88-7.5-7.08 0-11.88 3.13-14.38 9.38l-7.5 20.62-1.24 5-2.5 3.75m-30-30v6.25a8.48 8.48 0 0 1 6.25-2.5c-.42 0 1.45.42 5.62 1.25l2.5 1.88 1.25 1.87c1.67 1.67 2.5 3.13 2.5 4.38 0 2.08-.2 3.54-.63 4.37v6.25c-1.66 7.09-4.16 12.92-7.5 17.5a32.95 32.95 0 0 1-3.12 5 32.87 32.87 0 0 1-3.75 5.63l-2.5 2.5a7.33 7.33 0 0 1-1.25 1.88v.62c.42.42.83 1.04 1.25 1.88l.63-2.5c14.16-12.92 21.25-28.55 21.25-46.88 0-10.83-4.17-16.25-12.5-16.25-2.09 0-5.42 2.3-10 6.87m-299.38 6.25a35.9 35.9 0 0 0 5.62 5.63c2.5 1.25 5.2 2.7 8.13 4.37v-1.87c-2.09-.83-5-3.75-8.75-8.75-1.25-2.5-1.88-4.37-1.88-5.63l.63-.62a8.7 8.7 0 0 0 .62-3.75c0-.42-.2-.63-.62-.63-3.34 0-5 1.25-5 3.75v2.5c.41 1.25.83 2.92 1.25 5m227.5 7.5h-3.13 3.13l-4.38-.62c-4.58 6.25-6.46 10.62-5.62 13.12l.62 6.88c0 2.08.83 3.13 2.5 3.13 2.92 0 6.67-1.67 11.25-5v1.87c0 1.25.42 1.88 1.25 1.88 1.25 0 2.5-.84 3.75-2.5 2.92-5 4.17-9.38 3.75-13.13v-7.5h-1.87l.62 3.75-3.12-1.25-1.25-1.25-1.88 2.5-1.87.62c.41.42.62.84.62 1.25 0 .42-.42 1.05-1.25 1.88l-1.87 1.25c-1.25 0-1.88-.83-1.88-2.5l1.25-1.88 3.13-5.62.62-1.25v-.63l-.62-1.87-3.75 6.87m-236.25 2.5v-1.87c0-1.25-.42-1.87-1.25-1.88-.42.42-.84.63-1.25.63 0 1.67.83 2.7 2.5 3.12m-29.38-2.5c.42 2.09.63 3.76.63 5 .41 1.25.62 2.09.62 2.5 0 3.34-2.92 9.17-8.75 17.5 7.92-4.16 11.88-10.41 11.88-18.75 0-2.91-1.46-5-4.38-6.25m57.5 3.75h-4.37l2.5 1.88 1.87.62v-2.5m110 12.5 1.25 3.13a4.24 4.24 0 0 0 3.13 1.25c1.25 0 2.29-.42 3.12-1.25l4.38-3.75 5.62-3.75h-3.12c-4.17 0-8.96 1.46-14.38 4.37m259.38-2.5-2.5 1.25c-3.33 3.76-5.2 8.34-5.63 13.75 2.92-5.41 6.67-8.54 11.26-9.37l.62-3.75-3.75-1.88m-422.5 6.25c-11.67 9.17-17.5 19.59-17.5 31.25 0 11.25 3.75 20.21 11.25 26.88 15.83 14.58 43.13 21.88 81.88 21.88 15.41 0 29.16-3.55 41.25-10.63l16.25-8.75c2.5-.83 4.16-2.08 5-3.75l2.5-3.75-25.63 13.75a147.22 147.22 0 0 1-14.37 5.63c-5 1.25-10.21 2.08-15.63 2.5l-23.12 1.25c-14.59.83-31.25-2.92-50-11.25l-1.88-1.25-1.87-.63c-14.59-9.58-21.88-21.25-21.88-35 0-7.92 2.92-14.58 8.75-20 6.25-5.42 14.17-8.12 23.75-8.13 5 .84 8.75 2.5 11.25 5 2.08 2.09 3.75 3.13 5 3.13.83 0 2.3-1.25 4.38-3.75-7.92-6.67-16.05-10-24.38-10-4.58 0-9.58 1.88-15 5.63m380 13.75c0 .83-.63 1.87-1.88 3.12l.63.63-5 7.5-1.25 3.75-4.38 6.25-1.87 5-3.75 9.37 2.5 7.5 2.5 3.13c4.17 3.75 7.92 5.62 11.25 5.62 7.5 0 14.58-5.2 21.25-15.63l4.38-4.37c5.83-5.83 9.58-8.75 11.25-8.75 1.66 0 4.16 1.04 7.5 3.13.41.83.62 2.5.62 5 0 1.25-.83 2.08-2.5 2.5l-5 4.37-7.5 2.5-8.13 5a17.5 17.5 0 0 0-2.5 8.75c0 5.83 3.55 8.75 10.63 8.75 2.5 0 6.04-1.67 10.63-5-1.25.42-3.34.63-6.25.63-2.92 0-5.84-1.25-8.75-3.75-.84-3.34-1.25-5.21-1.25-5.63 0-2.08.62-3.13 1.87-3.13l13.75-2.5c2.92-.41 5.42-2.5 7.5-6.25 2.5-3.75 3.75-6.87 3.75-9.37 0-3.33-1.46-7.08-4.38-11.25-1.24-1.67-2.29-2.5-3.12-2.5l-1.88.63-4.37-.63.63-5.63c-8.34 1.25-13.96 4.38-16.88 9.38l-6.88 11.25-5.62 6.25h-3.13c-3.75.83-5.62-.42-5.62-3.75 0-1.67 1.67-3.54 5-5.63 3.33-2.08 7.5-5 12.5-8.75l-.63-2.5c-1.66 1.67-3.12 2.3-4.37 1.88h-1.88a16.18 16.18 0 0 1 6.88-8.13l.63 4.38c2.08-4.17 2.91-8.12 2.5-11.88v-1.87h-1.88c-1.67 0-3.13 1.04-4.38 3.13h-2.5l2.5-.63-3.12-.63v-2.5c.42-9.16-3.54-14.16-11.88-15h3.13a8.7 8.7 0 0 0-3.75-.62c-4.17 0-6.25 1.25-6.25 3.75.83.83 2.7 2.92 5.63 6.25 2.91 2.92 3.95 5.2 3.12 6.88m16.25-6.88 2.5-5.63-1.88-3.12-.62 5v3.75m-75-4.38-6.88-1.25c-5.41 0-9.58 2.09-12.5 6.25l-1.87 5.63c4.17-2.92 7.5-4.37 10-4.38 4.17 0 6.25 2.5 6.25 7.5 0 .84-.2 2.09-.62 3.75 0 1.25-.21 2.92-.63 5l-3.75 3.75-3.75 5.63c-1.25.83-2.7 1.88-4.37 3.13a40.84 40.84 0 0 1-4.38 3.75l-5 1.87-1.87 1.25c-8.34 4.58-18.55 6.88-30.63 6.88-5.83 0-11.67-.21-17.5-.63l-17.5-2.5v2.5c.83.83 1.25 1.67 1.25 2.5.42.83.83 1.46 1.25 1.88 0 2.08-2.5 2.7-7.5 1.87l-16.25-.63-3.75-1.25-1.25-1.25.63 2.5c.83.84 2.5 1.46 5 1.88l16.87 7.5c12.5 5 26.67 7.5 42.5 7.5 10.83 0 19.17-.63 25-1.88l18.75-4.37 5-.63 16.25-6.25c3.33 0 5 1.67 5 5 0 4.17-1.88 6.25-5.63 6.25h-3.12c1.25 5 3.96 7.5 8.13 7.5 3.74 0 7.08-1.87 10-5.62 3.33-3.75 5-7.7 5-11.88 0-2.5-1.67-6.04-5-10.62l-3.13-1.88-5-1.87c1.25-2.92 1.87-5.2 1.88-6.88 0-1.25-.63-1.87-1.88-1.87l-4.38.63c-.83 0-2.08.2-3.74.62-1.67 0-3.55.2-5.63.63h-3.13c-.83.83-2.08 1.87-3.74 3.12a62 62 0 0 1-5 4.38l-2.5 1.25a30.6 30.6 0 0 0-3.13 1.87c-3.75 3.75-10.42 6.67-20 8.75l-9.37 2.5v-1.25a58.03 58.03 0 0 0 6.87-1.88c2.5-.83 5.42-1.66 8.75-2.5l25-17.5 7.5-2.5c2.08-.83 3.96-4.16 5.63-10l-4.38.63-.63-1.88c2.5-5 3.75-8.74 3.76-11.25 0-4.16-2.3-7.91-6.88-11.25m-270.62-1.25-11.87 11.25c-8.76 5-15 7.5-18.75 7.5-5.84 0-12.09-2.7-18.75-8.12l-2.5 2.5a7.29 7.29 0 0 1-1.25 1.88c0 .83.83 1.66 2.5 2.5l6.25 2.5c2.5.83 4.79 1.66 6.87 2.5 2.5.41 4.37.62 5.63.62 11.66 0 19.79-3.13 24.37-9.38l5.63-8.12 3.12-2.5-1.25-3.13m-40.62 1.88c6.66 2.08 10.2 5.42 10.62 10 2.92-1.25 4.37-2.3 4.38-3.13a8.11 8.11 0 0 0-4.38-7.5c-.42-.41-1.46-.62-3.12-.62-.42 0-1.25.2-2.5.63-1.25 0-2.92.2-5 .62m68.12 4.38-3.12 5.62-3.13 3.13-15.62 8.75c-2.92.41-5 1.04-6.25 1.87-7.09 2.08-10.42 3.13-10 3.13-5 .83-7.92 1.66-8.75 2.5l-3.13 1.87c-.42.42-.62.83-.62 1.25v1.25c0 3.75 4.58 5.63 13.75 5.63l55.62-1.25 57.5 3.12 7.5.63c1.25-.42 3.12-.63 5.63-.63h3.75l8.75.63c6.66 0 10-1.25 10-3.75 0-1.25-.84-2.5-2.5-3.75l-.63-1.88c-1.67-.42-3.54-.83-5.62-1.25a88.4 88.4 0 0 1-6.25-1.88l-6.88-.62-5.62-.63-5.63-.62-8.75-1.88-15.62-6.25c-6.26-3.74-10-7.5-11.25-11.25h-15l-6.25-.62-16.25-1.88-5.63-1.25m46.88 2.5c.41 3.76 1.87 5.63 4.37 5.63-.42-2.92-1.88-4.8-4.37-5.63m-81.25 13.13h1.25c2.91.42 4.37-.42 4.37-2.5 0-1.67-.83-2.5-2.5-2.5-2.08 0-3.13 1.46-3.12 4.38v.62m112.5-4.38-2.5 5 3.75 1.25.62-5.62-1.87-.63m123.75 1.88c-2.09 0-3.34.83-3.75 2.5v1.25c0 3.33 1.45 5 4.37 5 1.67 0 2.5-1.25 2.5-3.75 0-3.33-1.04-5-3.12-5m-299.38-1.25-3.13 5 1.88 6.88 1.25-11.88m287.5 8.75c-1.25 2.08-1.88 3.75-1.88 5 0 1.67.83 2.5 2.5 2.5 2.92 0 4.37-1.88 4.38-5.63 0-2.08-1.05-3.12-3.13-3.12l-.62.63-1.25.62m16.87 8.13 1.88 2.5 1.25.62c3.33 0 5-1.67 5-5s-1.67-5-5-5c-2.5 0-3.76 1.67-3.75 5l.62 1.88m-283.75 13.12v1.25l1.88 2.5 2.5 3.13c3.74 3.75 8.12 5.62 13.12 5.62 10 0 17.5-3.33 22.5-10a18.34 18.34 0 0 0-4.37-.63 5.54 5.54 0 0 0-2.5-.62c-1.25 0-4.59 1.04-10 3.13l-7.5-3.13c-2.92-1.67-4.38-3.75-4.38-6.25 0-4.58 2.3-7.92 6.88-10v-1.88c-3.34-1.25-5.63-1.87-6.88-1.87-4.58 0-8.33 1.88-11.25 5.63a12.06 12.06 0 0 0-1.87 6.25c0 1.66.62 3.95 1.87 6.87m-22.5-18.13v5c.42 2.5.63 5 .63 7.5.41 2.09 1.87 4.38 4.37 6.88l-2.5-7.5-.62-5-1.88-6.88m298.75 3.75-5.62 5.63c-4.59 3.33-8.34 5.42-11.25 6.25l-2.5 1.88c13.33-.84 20-4.38 20-10.63l-.63-3.13m-116.25 11.25-111.88-1.87c-.83.42-2.7.63-5.62.63s-6.88-.63-11.88-1.88c2.5 3.75 5.42 5.63 8.75 5.63h94.38l27.5 1.87h4.37l2.5-.63 2.5.63.63.63 2.5-.63 6.87-.63c2.92 0 4.37-.41 4.38-1.25 0-1.25-.21-2.08-.63-2.5h-24.37M253.06 579.8c0 6.67 6.45 10 19.37 10 17.08 0 29.8-3.54 38.13-10.63l-8.75 2.5c-5 .84-9.38 1.67-13.13 2.5-3.75.42-6.67.63-8.75.63h-5.62c-2.09-.42-4.59-.83-7.5-1.25-4.17-2.5-6.26-4.8-6.25-6.88 0-1.66 2.29-2.5 6.87-2.5l2.5.63c0-3.75-1.46-5.63-4.37-5.63-3.76 0-6.88 1.46-9.38 4.38-2.08 2.5-3.13 4.58-3.12 6.25m118.12-6.88-1.25 1.25 3.75 4.38 2.5 2.5 2.5 4.38-1.25 4.37v1.88l-4.38 2.5.63 2.5c2.5 1.25 4.58 1.87 6.25 1.87 5.83 0 8.33-3.54 7.5-10.63l-.63-4.37 5 1.88-.62-10.63-1.88-2.5c-2.5-2.92-4.17-3.96-5-3.13l-2.5 1.88c-1.67.42-5.2 1.04-10.62 1.88m179.38 1.25-.63 3.75c0 1.66 1.04 3.54 3.13 5.62l1.87 1.88 5 3.75 6.88 2.5c3.33-2.5 5-4.38 5-5.63 0-.83-.63-1.25-1.88-1.25h-1.25 2.5a38.84 38.84 0 0 1-13.12-5l-1.25-1.88-2.5-3.75v-1.25c0-1.25-.42-1.87-1.25-1.87h-1.25l-1.25 3.13m-228.12-.63c-3.76 1.25-6.26 3.13-7.5 5.63l7.5-5.63m27.5 9.38.62 3.75c.83 5.83-2.5 8.75-10 8.75-6.25 0-9.8-3.55-10.62-10.63-2.92.42-4.38 1.46-4.38 3.13 0 7.91 4.58 11.87 13.75 11.87 6.67 0 11.25-1.67 13.75-5l.63-1.88v-11.87c0-1.67 1.04-2.5 3.12-2.5 1.67 0 3.54 1.25 5.63 3.75l.62 1.25c1.67-.42 2.5-1.25 2.5-2.5 0-5-2.92-7.5-8.75-7.5-4.17 0-6.46 3.13-6.87 9.38m50-5-1.88 1.87 3.13 3.13c1.66 1.25 3.54 2.7 5.62 4.37 1.25 1.25 1.87 3.13 1.88 5.63v6.25l5.62-2.5.63-1.25v-1.25c0-3.75-2.5-7.3-7.5-10.63l-5-3.13-1.88-1.25-.62-1.25m-233.12 9.38.62 3.13 1.25 3.12h1.25c0-5 2.5-7.5 7.5-7.5 2.08 0 5.42.63 10 1.88l15.63 5a142 142 0 0 0 20 3.75l-1.25-1.25-6.25-1.25-5.63-1.88c-2.08-.83-4.38-1.67-6.87-2.5l-6.25-3.75c-7.92-4.17-14.38-6.67-19.38-7.5h-.62c-1.67 0-4.17 1.67-7.5 5l-2.5 3.75m380.62-1.88c-1.25 3.75-2.92 6.67-5 8.75l-5 6.25 13.12.63 3.13-3.75 3.12-2.5-2.5-2.5-1.87-1.88-1.88-1.87-3.12-3.13M328.06 158.53l-3.75.63 1.25 3.12h3.75l1.87-2.5-3.12-1.25m11.87 5-5 3.13-1.25-4.38 6.25 1.25m3.13 7.5-1.88 2.5-2.5-3.75.63-2.5 6.25 1.25-2.5 2.5m3.75.63 6.87 1.25-5.62 5-3.13-2.5 1.88-3.75m13.75 9.37-7.5 3.13-1.88 1.25c-.83-1.25-.2-2.92 1.88-5l1.25-1.25 6.25 1.87m0 3.75-3.75.63-1.88 5.62 5.63-1.87c.41 0 .62-.2.62-.63.42-.83 1.25-1.25 2.5-1.25l-3.12-2.5m-140 2.5 3.75 11.25v11.25l-3.13-5 .63-4.37-.63-6.25-3.12-12.5 2.5 5.62m-18.13 2.5 1.88.63 1.25 1.87-1.25 3.13-4.38-1.25 2.5-4.38m6.88 6.88 1.87 3.75-5 1.87c.83-.41 1.04-.62.63-.62-.42-.42-.63-.2-.63.62 0-2.91-.42-3.95-1.25-3.12a7.25 7.25 0 0 0 1.88-1.25l2.5-1.25m.62 6.87 1.25 3.75-3.75 2.5-.62-3.12 3.12-3.13m-1.25 9.38h3.13l1.87.62a8.7 8.7 0 0 1-.62 3.75c-.42-.41-1.88-.41-4.38 0v-4.37m3.75 8.75 4.38 2.5-5 3.12.62-5.62m28.75 5.62 2.5-1.87 1.88 1.25-.63 3.75-3.75-.63v-2.5m-6.25 6.25c-.42 2.92-2.08 4.17-5 3.75-3.75-1.25-4.8-2.08-3.12-2.5h3.75l1.87-1.25h2.5m-20-.62 1.25 1.87 1.88-1.25 3.12 6.25a71.8 71.8 0 0 0 6.88 11.88l5 6.87.62 1.88 8.13 8.75 3.75 3.12 1.87 3.75c1.67.84 3.12 1.88 4.38 3.13 1.66.83 3.54 1.67 5.62 2.5l6.25 4.37-1.87 1.88-4.38-3.13-3.12-1.25-3.13-2.5-4.37-3.12-1.25-1.25-10-9.38-3.75-5a98.76 98.76 0 0 0-3.13-4.37 24.87 24.87 0 0 0-3.75-6.25l-10-15.63v-3.12m30.63 1.87-1.88 1.88c-2.5-.42-3.75-.2-3.75.62 0-1.25 1.04-2.29 3.13-3.12l2.5.62m-16.25 7.5 2.5-1.25h.62c2.08 0 3.12.21 3.13.63 0 1.25-1.05 1.88-3.13 1.87h-1.25a7.33 7.33 0 0 0-1.87-1.25m-23.75 5.63-.63 1.87-3.75-1.25-1.25-1.87-3.12-2.5-1.88-1.88-1.25-1.25 1.25-1.25c.42 0 2.08 1.25 5 3.75s4.8 3.96 5.63 4.38m35-6.25 2.5-.63.62 1.25-.62 2.5-3.13 1.25.63-4.37m-50.63-.63c.83.84 1.25 1.46 1.25 1.88l1.25 1.25c.83 2.08 4.37 5.2 10.63 9.37l1.87 1.88h-3.75l-1.87-.63-1.88-1.25-3.12-3.12-6.88-8.13 2.5-.62v-.63m43.75 6.25 2.5.63 1.25-1.25c0 .83-.42 1.67-1.25 2.5-2.08.83-3.33.42-3.75-1.25l1.25-.63m1.25 6.25 1.88 1.88 3.12-1.88-1.87-1.25-3.13 1.25m8.13-3.75 6.25 11.25c1.25 3.34 3.12 5.84 5.62 7.5l3.13 5.63 3.75 3.12 4.37 3.75-6.25-1.87-6.87-7.5-3.13-5-3.75-6.88-4.37-6.87v-.63c0-1.25.62-1.87 1.87-1.87.42.42.63.83.63 1.25l1.25 1.25-2.5-3.13m-10 21.88a91.08 91.08 0 0 1 1.25 6.87c0 1.67-2.09 3.13-6.25 4.38l-.63-1.88c2.5-.41 3.75-1.66 3.75-3.75 0-2.08-.2-3.54-.62-4.37l2.5-1.25m3.12 12.5-2.5 1.25 1.25-1.88 2.5-2.5 1.25-3.12v-.63c1.67 0 2.5 1.05 2.5 3.13l-1.25 1.25c-.83.42-2.08 1.25-3.75 2.5m7.5-2.5h1.25c2.08 0 3.12 1.67 3.13 5 0-.42-2.09-.42-6.25 0l1.87-5m-34.37 9.37-5-1.87 6.25-1.88-1.25 3.75m8.12-3.12 2.5-.63.63 1.88-.63 3.12h-3.75l-1.25-2.5 2.5-1.87m46.25 10.62-28.12-6.25-10-1.25v-1.25c.41-.41 1.66-.62 3.75-.62 10.83 0 22.29 3.13 34.37 9.37m291.25 33.75 3.75 1.25v13.75-.62l1.25-.63h-1.25a33.96 33.96 0 0 1-1.87-4.37 44.52 44.52 0 0 0-1.88-5.63v-3.75m-180 14.38h4.38c-7.09 4.58-13.34 6.88-18.75 6.87-2.5 0-4.38-.2-5.63-.62l5-2.5 3.13-.63c2.5 0 6.45-1.04 11.87-3.12m159.38 31.25c-2.5 4.17-4.8 6.67-6.87 7.5l-5 1.25 1.87.62h-4.37l-11.25 2.5.62 6.88-1.87 2.5v-1.25h-6.88l-13.12 2.5 4.37-.63h-4.37l-7.5-2.5 2.5 1.25h-1.88l.63 1.88c-.84.83-1.67 1.25-2.5 1.25h-.63 1.88l-11.88 1.87 4.38 1.25-10 1.88-3.13 3.75 4.38-.63-.63 3.13h-1.87l-5 1.87h1.25l-3.75-.62c5.83-14.17 15-20.83 27.5-20h.62l15 1.87 8.75-.62-1.25-6.25h-1.87c.83-2.08 1.87-3.12 3.12-3.13l2.5.63h4.38c7.5 0 12.5-1.46 15-4.38 2.91-3.33 4.79-5 5.62-5l1.25.63m0 15.62a29.51 29.51 0 0 1-8.12 15l-.63-2.5 3.75-5 3.13-8.75 1.87 1.25m-18.12 10 1.25-2.5h-3.75l-4.38 1.88c0 2.5.42 3.75 1.25 3.75h1.88l3.12-.63.63-2.5m-107.5 9.38 3.75 2.5 1.87 1.87c0 .84-.42 1.25-1.25 1.25-.83 0-2.3-1.66-4.37-5v-.62m111.88 20c0-2.08-1.05-2.5-3.13-1.25l-4.38 2.5-4.37 1.87-4.37 1.88c0-.42.62-.42 1.87 0 2.92 0 4.8-.2 5.63-.63l4.37-2.5 4.38-1.87m9.37-1.88c-.42 3.34-5.42 7.3-15 11.88l-3.13 3.12-6.87 1.25 25-16.25m76.88 5.63-4.38 1.87c-1.25-1.25-1.88-2.5-1.88-3.75l.63-3.12h2.5l1.25.62 1.25 1.25c.42 0 .83.21 1.25.63l-.63 2.5m-155.61 0c2.5-.42 4.58.2 6.25 1.87 2.08 1.67 2.7 2.5 1.87 2.5l1.25 1.88-1.25.62a11.42 11.42 0 0 0-8.12-5v-1.87m156.25 6.87c1.66 3.34 1.66 5.21 0 5.63-1.25.42-1.46.83-.63 1.25l-2.5-1.88-1.25-4.37 1.25-1.25 3.13.62m-141.25 8.75c.83 4.17 1.25 6.05 1.25 5.63 0 .83-2.09 4.58-6.25 11.25v-3.75c2.08-3.33 3.12-6.04 3.12-8.13l-.62-5h2.5m143.12 3.75-3.13 4.38 2.5 3.12 2.5-2.5-1.88-5m-93.12 10-4.38-3.12 2.5 6.87-3.74 18.13 1.25 6.87 1.87-8.12c.42-.83.63-2.7.63-5.63 0-2.91.83-5.41 2.5-7.5.41-.41.62-1.87.62-4.37-.42-.42-.63-.83-.63-1.25 0-.83-.2-1.46-.62-1.88m-9.38 4.38c3.75.83 4.8 3.33 3.13 7.5l-1.87 3.75c-.84 1.67-1.88 3.96-3.13 6.87l-.62-1.25.62-3.75 1.25-4.37 1.25-5.63-.62-3.12M383.7 489.78l5.62 1.88-10 1.25 4.38-3.13m8.75 6.25h2.5l-5 1.88 3.75-1.25-3.75 1.25-3.75.62-8.75.63.62.62-2.5-1.25v-1.25l8.75-.62 8.13-.63m124.38 66.25 1.87.63-.63 1.88-6.87 2.5-2.5 2.5h-1.25c-.83 0-1.25-.42-1.25-1.25l2.5-1.25c2.08-1.25 4.8-2.92 8.13-5m53.12.62 2.5 6.88 2.5 2.5h1.25l-7.5-1.88c-1.25-1.67-1.88-3.13-1.88-4.38s.21-2.08.63-2.5l2.5-.62m-169.38 1.25 5 1.25 1.88 1.88h-8.75l-3.75-3.13h5.62m166.25 7.5a5.7 5.7 0 0 0 3.75 4.38l-2.5.62c-2.92 0-4.38-1.46-4.38-4.38 0-.83.42-1.25 1.25-1.25l1.88.63m-111.88 6.88 1.88 5.62 8.75-1.25-5.63-.63-.62-1.87c-2.92-2.92-4.38-3.54-4.38-1.88" transform="translate(-146.86 -119.79)"/>
</svg>
