<svg xmlns="http://www.w3.org/2000/svg" viewBox="0 0 500 500">
    <path d="M146.86 619.79v-500h500v500h-500m7.5-7.5h485v-485h-485v485m7.5-7.5V135.41h469.38v469.38H161.86m110.62-338.75c1.67-3.75 3.96-5.62 6.88-5.63 7.5 0 11.25 3.76 11.25 11.25 0 13.34-11.67 23.55-35 30.63 27.5-5 41.25-15.83 41.25-32.5 0-11.67-4.59-17.5-13.75-17.5-5.42 0-8.96 4.58-10.63 13.75m279.38 205v-.63l1.25-2.5c0-1.66-.42-2.5-1.25-2.5-1.25 0-2.08.63-2.5 1.88v.62c0 2.09.83 3.13 2.5 3.13m-33.75-28.13c2.5.84 3.54 1.25 3.13 1.25.83 0 1.45-.2 1.87-.62 0-1.25-.63-1.87-1.88-1.88.42 0-.62.42-3.12 1.25m26.25 21.88h.63c1.25 0 1.87-.63 1.87-1.88s-.63-1.87-1.88-1.87-1.87.42-1.87 1.25c0 .83.42 1.67 1.25 2.5m-53.75-21.88c1.25 0 1.87-.62 1.88-1.87 0-2.5-.63-3.75-1.88-3.75-1.67 0-2.5 1.04-2.5 3.12 0 1.67.83 2.5 2.5 2.5m6.25 8.13h.63c1.66 0 2.5-.42 2.5-1.25 0-2.08-.84-3.12-2.5-3.13-2.09 0-3.13.84-3.13 2.5 0 1.25.83 1.88 2.5 1.88m11.25 0c1.25 0 1.87-1.04 1.88-3.13 0-1.25-.63-1.87-1.88-1.87s-1.88.62-1.88 1.87c0 2.09.63 3.13 1.88 3.13m10 3.12c2.08 0 3.12-.83 3.13-2.5 0-1.66-1.05-2.5-3.13-2.5s-3.13.63-3.13 1.88 1.05 2.3 3.13 3.12m7.5-14.37c2.08 0 3.12-1.04 3.13-3.13 0-1.25-.63-1.87-1.88-1.87s-1.88 1.04-1.88 3.12c0 .84.21 1.46.63 1.88m1.88 8.12h.62c1.67 0 2.5-.41 2.5-1.25 0-1.66-.63-2.5-1.88-2.5-1.66 0-2.5.63-2.5 1.88 0 .42.42 1.04 1.25 1.87m8.13-8.75c1.25 0 1.87-.62 1.88-1.87 0-1.67-.63-2.5-1.88-2.5s-1.88.83-1.88 2.5c0 1.25.63 1.88 1.88 1.87m0 7.5 1.88-1.87v-.63c0-.83-.42-1.25-1.25-1.25-1.67 0-2.5.42-2.5 1.25 0 1.25.62 2.09 1.87 2.5m-46.88-12.5c2.09 0 3.13-.83 3.13-2.5 0-2.91-1.04-4.37-3.13-4.37-2.5 0-3.75 1.25-3.75 3.75 0 2.08 1.25 3.13 3.75 3.12m-7.5 13.75c.42-.41.84-.62 1.25-.62.42-.42.84-1.04 1.25-1.88v-.62c0-1.67-.62-2.5-1.87-2.5-.83 0-1.46.62-1.88 1.87l-.62.63c0 2.08.63 3.13 1.88 3.12m55.62-106.25h.63c2.08 0 3.12-.83 3.12-2.5 0-2.5-1.04-3.74-3.13-3.75-2.08 0-3.12.84-3.12 2.5 0 2.09.83 3.34 2.5 3.75m17.5 206.88c0 1.25.42 1.88 1.25 1.88 2.08 0 3.12-.83 3.13-2.5 0-1.25-.63-1.88-1.88-1.88-1.67 0-2.5.84-2.5 2.5m-5.63 6.25c1.67 0 2.5-.62 2.5-1.87s-.83-1.88-2.5-1.88c-1.66 0-2.5.63-2.5 1.88s.84 1.88 2.5 1.88m6.25-13.13c1.67 0 2.5-.63 2.5-1.88 0-.83-.62-1.66-1.87-2.5-1.67 0-2.5.84-2.5 2.5 0 1.25.63 1.88 1.88 1.88m-1.25-206.88h.62c2.08 0 3.12-.63 3.13-1.88 0-2.5-1.05-3.74-3.13-3.75-1.67 0-2.5.84-2.5 2.5 0 1.67.63 2.71 1.88 3.13m-11.88-1.88.63.63c2.91 0 4.37-1.04 4.37-3.13 0-2.91-1.25-4.37-3.75-4.37s-3.75 1.04-3.75 3.12c0 2.09.83 3.34 2.5 3.75m25-45.62c2.5 0 3.75-1.46 3.75-4.38 0-1.66-.63-2.5-1.88-2.5-2.5 0-3.75 1.46-3.75 4.38 0 1.25.63 2.08 1.88 2.5m10-6.88c1.67 0 2.5-1.04 2.5-3.12 0-1.25-.42-1.87-1.25-1.88-1.25 0-2.3 1.05-3.13 3.13 0 1.25.63 1.88 1.88 1.87m-23.13 6.88c-1.66.42-2.5.83-2.5 1.25l3.13 1.25 3.13-1.25-3.75-1.25m5-5c1.66 0 2.5-.83 2.5-2.5s-.84-2.5-2.5-2.5c-1.67 0-2.5.83-2.5 2.5s.83 2.5 2.5 2.5M321.86 573.54c1.25 0 1.87-1.04 1.87-3.13.83-2.08.2-3.12-1.88-3.12-1.66 0-2.5 1.25-2.5 3.75 0 1.67.84 2.5 2.5 2.5m-10.62 1.88c2.5 0 3.75-1.25 3.75-3.75 0-1.67-.63-2.5-1.88-2.5-2.08 0-3.33.83-3.75 2.5v.62c0 1.67.63 2.7 1.88 3.13m-3.75-10c1.67 0 2.7-.84 3.13-2.5v-1.25c0-2.09-.63-3.13-1.88-3.13-1.67 0-2.7.83-3.13 2.5v.63c0 2.5.63 3.75 1.88 3.75M238.1 441.03c.84-.84 1.26-1.67 1.26-2.5 0-2.09-1.05-3.13-3.13-3.13-.83 0-1.25.83-1.25 2.5 0 2.08 1.04 3.13 3.13 3.12m20 25.63v-3.13c0-1.25-.42-1.87-1.25-1.87a4.24 4.24 0 0 0-1.25 3.12l2.5 1.88m-7.5-15.63 4.37 6.88 2.5-4.38-6.88-2.5m5.63-5c1.67 0 2.5-1.04 2.5-3.12s-.42-3.12-1.25-3.13c-1.67 0-2.7.84-3.13 2.5v.63c0 2.08.63 3.13 1.88 3.12m5.63-10c2.5-.41 3.74-1.66 3.75-3.75l-.63-.62a4.24 4.24 0 0 0-3.13-1.25h-.62c-2.92 1.25-4.38 2.7-4.38 4.37 0 1.25 1.25 1.88 3.75 1.88l1.25-.63m11.25-3.75c2.92 0 4.38-1.45 4.38-4.37 0-1.67-.63-2.5-1.88-2.5-3.75 0-5.62 1.67-5.62 5 0 1.25 1.04 1.88 3.13 1.87m-7.5-6.25c2.5 0 3.74-1.45 3.75-4.37 0-2.5-1.25-3.75-3.75-3.75-2.92 0-4.38 1.46-4.38 4.37 0 2.5 1.46 3.76 4.38 3.75m-13.13 2.5c3.33 0 5-1.45 5-4.37 0-2.5-1.67-3.75-5-3.75-2.92 0-4.38 1.46-4.37 4.37 0 2.5 1.45 3.76 4.37 3.75m-10.62 5.63c2.5 0 3.74-1.46 3.75-4.38 0-2.91-1.05-4.37-3.13-4.37-2.92 0-4.38 1.46-4.37 4.37 0 2.92 1.25 4.38 3.75 4.38m15-16.25c2.91 0 4.37-1.25 4.37-3.75 0-2.92-1.46-4.37-4.38-4.38-3.33 0-5 1.25-5 3.75 0 2.92 1.67 4.38 5 4.38m-14.37 3.12c2.92 0 4.37-1.45 4.38-4.37 0-2.92-1.05-4.37-3.13-4.38-2.92 0-4.38 1.46-4.37 4.38 0 2.08 1.04 3.54 3.12 4.37m85-268.12c1.67 0 2.5-.62 2.5-1.87s-.83-1.87-2.5-1.88c-1.67 0-2.5.63-2.5 1.88s.83 1.88 2.5 1.87m4.38-7.5c.83 0 1.66-.41 2.5-1.25 0-1.66-1.25-2.5-3.75-2.5-.84.84-1.25 1.67-1.25 2.5.83.84 1.66 1.25 2.5 1.25m10.62 3.13c1.25 0 1.87-.63 1.88-1.88 0-1.66-.84-2.5-2.5-2.5-1.67 0-2.5.63-2.5 1.88 0 1.67 1.04 2.5 3.12 2.5m-123.12 80c2.08 0 3.12-1.04 3.13-3.13 0-2.08-1.05-3.12-3.13-3.12s-3.13 1.04-3.13 3.12c0 2.09 1.05 3.13 3.13 3.13m.63-10.63c2.5 0 3.74-1.04 3.75-3.12 0-2.5-1.05-3.75-3.13-3.75-2.5 0-3.75 1.04-3.75 3.12 0 2.5 1.04 3.76 3.13 3.75m12.5.63c1.66 0 2.5-.83 2.5-2.5 0-2.08-1.05-3.12-3.13-3.13-2.08 0-3.13 1.05-3.13 3.13 0 1.67 1.26 2.5 3.76 2.5m121.25 125.62c6.24 10.83 9.37 19.8 9.37 26.87v6.88c0 3.33-.2 5.63-.63 6.87l2.5 1.25c.42-2.91.63-5.62.63-8.12.42-2.5.63-5.2.63-8.13 0-6.24-3.55-14.79-10.63-25.62h-1.88m-13.75 25 18.13-6.25-1.88-1.88-16.87 5.63.63 2.5m7.5 10c8.33 12.08 15.83 18.12 22.5 18.12 1.66 0 2.91-1.87 3.75-5.62-1.25.42-2.71.62-4.38.62h-1.88c-5.41 0-12.08-4.37-20-13.12m11.25-46.88c3.34-2.08 5.42-3.12 6.25-3.12 4.59 0 6.88 3.13 6.88 9.37 0 4.17-2.08 8.96-6.25 14.38l1.25 2.5c5-6.67 7.5-12.08 7.5-16.25 0-9.17-3.33-13.75-10-13.75-2.08 0-5.2 2.08-9.38 6.25l3.75.62m-16.87 14.38c4.58-4.58 8.54-6.87 11.88-6.88 2.5 0 5 1.67 7.5 5v-3.12c.41-3.75-1.88-5.62-6.88-5.63-4.58 0-8.75 3.55-12.5 10.63m225.62-109.38c1.67 1.67 3.12 2.5 4.38 2.5 1.25 0 1.87-1.04 1.87-3.13 0-4.16-1.67-6.24-5-6.25-2.92 0-4.38.84-4.38 2.5.84.42 1.88.84 3.13 1.25 1.25 0 2.3.42 3.13 1.25-.42.42-1.46 1.05-3.13 1.88m-98.13-75.63c24.59-11.66 43.75-17.5 57.5-17.5s32.92 5.84 57.5 17.5h7.5c-29.58-13.75-51.25-20.62-65-20.62-14.16 0-35.62 6.88-64.37 20.62h6.88m120-6.25c7.5 3.76 14.58 5.63 21.25 5.63 8.74 0 13.12-2.08 13.12-6.25 0-2.5-2.3-6.04-6.88-10.63 1.25 3.34 1.88 5.63 1.88 6.88 0 5-4.17 7.5-12.5 7.5-4.17 0-9.8-1.04-16.88-3.13m-129.38 1.88c8.75-4.17 13.13-8.33 13.13-12.5v-.63l-3.75-2.5-1.88 1.88 1.88 1.25.63.62c0 3.76-3.34 7.71-10 11.88m-6.88 4.37c0-14.16-6.04-21.25-18.13-21.25-10 0-15 3.96-15 11.88 0 5 1.67 7.5 5 7.5.42 0 2.3-.42 5.63-1.25h-2.5c-4.17.42-6.25-1.87-6.25-6.88 0-6.66 3.75-10 11.25-10 7.92 0 13.54 6.67 16.88 20h3.12m-109.38 2.5c-1.25-7.08-4.38-12.5-9.38-16.25v1.25c0 5.84 3.13 10.84 9.38 15m175-15c2.5.84 4.58 1.46 6.25 1.88 2.08.42 3.96.83 5.63 1.25 4.58 2.08 6.87 5.42 6.87 10h-.63c4.17-1.25 6.25-2.7 6.25-4.38l-1.25-1.25c0-.41-.2-.83-.62-1.25-5.42-4.16-12.92-6.24-22.5-6.25m-225.62 3.13c-5.83-1.25-10.83-1.87-15-1.88-8.33 0-12.5 2.09-12.5 6.25 0 2.92 1.46 4.38 4.38 4.38.83-4.58 2.08-7.3 3.75-8.13 1.66-1.25 5.83-1.66 12.5-1.25l6.87.63m-76.88-7.5-24.37 9.37c-4.58 1.25-7.92 1.88-10 1.88-2.5 0-5.42-2.3-8.75-6.88v.63c-.83 6.25 1.87 9.38 8.13 9.37 3.74 0 12.08-3.33 25-10a7.93 7.93 0 0 1 3.75-1.87l6.25-2.5m173.12 429.38v4.38c-2.09 8.33-8.13 12.5-18.13 12.5-9.17 0-18.33-5.84-27.5-17.5l-11.25-1.88c5 11.67 13.75 19.58 26.25 23.75-.83-.83-1.25-1.67-1.25-2.5.42-.42.83-.63 1.25-.63.42.42 1.25.63 2.5.63l11.88 3.75 2.5.63c9.58 0 14.37-5 14.37-15 0-4.17-.2-6.88-.63-8.13m-207.5-402.5-6.87 3.75-5-1.25h-.62c-.84 0-1.25.62-1.25 1.87 0 2.92 1.45 4.38 4.37 4.38s6.04-2.92 9.38-8.75m43.12 68.12c2.08-5.41 3.12-8.95 3.13-10.62 0-.42-.21-1.25-.63-2.5 0-1.25-.2-2.92-.62-5 0 5.83-.63 11.87-1.88 18.12m79.38 341.88c4.16 1.25 6.04 3.34 5.62 6.25v5c-.83 3.75 2.08 5.63 8.75 5.63 5.42 0 9.58-3.33 12.5-10 1.25-2.5 1.87-4.17 1.88-5l-.63-.63a30.83 30.83 0 0 0-1.88-3.12c-3.33 10-7.08 15-11.24 15-3.76 0-5.84-1.88-6.25-5.63l-.63-5.62c-.42-1.67-1.67-2.5-3.75-2.5s-3.54.2-4.38.63m84.38 13.75c5-1.67 8.75-3.55 11.25-5.63 13.33-8.33 21.25-12.5 23.75-12.5 7.92 0 11.88 2.92 11.88 8.75 0 3.33-2.09 5-6.25 5h-3.75a8.11 8.11 0 0 0 7.5 4.38c5.83 0 8.74-4.17 8.75-12.5 0-7.92-5.42-11.88-16.25-11.88-11.67 0-23.96 8.13-36.88 24.38m-180-151.88 3.75.62 23.75-33.13c6.67-8.74 17.3-13.12 31.88-13.12 11.25 0 25.2 4.58 41.87 13.75l3.75-2.5c-17.92-10.42-33.13-15.63-45.63-15.63-23.33 0-43.12 16.67-59.37 50m-4.37 1.88c7.91-10.42 11.87-21.46 11.87-33.13 0-5-1.04-7.5-3.12-7.5l-2.5 1.25c-.84 0-1.67.42-2.5 1.25 2.5 4.59 3.74 8.34 3.75 11.25 0 7.5-2.5 16.46-7.5 26.88m-21.25 19.37c2.91-15 7.29-22.5 13.12-22.5 1.67 0 2.92.21 3.75.63v-1.25c0-2.92-1.04-4.37-3.12-4.38-5.84 0-9.59 4.38-11.25 13.13a82.17 82.17 0 0 0-1.25 6.25c0 2.08-.42 4.8-1.25 8.12m7.5 54.38 8.12-15h7.5l-2.5-8.13c-.83-.83-2.3-1.25-4.37-1.25-7.09 0-10.63 3.96-10.63 11.88 0 2.92.63 7.08 1.88 12.5m157.5-118.12-2.5-3.13c-7.5-5.41-11.25-11.45-11.25-18.12 0-5.83 1.04-13.33 3.12-22.5l-1.88-.63-.62.63c-2.5 8.33-3.75 15.83-3.75 22.5 0 15 4.17 22.08 12.5 21.25h4.38m-149.38 162.5c-6.26-7.5-11.25-11.25-15-11.25-2.09 0-5.84 1.46-11.25 4.38 4.16-1.25 7.5-1.88 10-1.88 3.74 0 9.16 2.92 16.25 8.75m74.37-12.5c-14.17.42-21.25 5-21.25 13.75 0 3.33 1.04 5.2 3.13 5.63 2.5.41 5.2.83 8.12 1.25 0-.42-.2-.84-.62-1.25-2.92-4.17-4.38-6.67-4.38-7.5 0-5.42 5-9.38 15-11.88m61.25-16.25c-13.33 14.58-20 24.17-20 28.75 0 1.25.2 2.08.63 2.5.41-.42.83-.63 1.25-.63l1.25-1.25c3.33-4.58 6.24-9.16 8.75-13.75 2.91-5 5.62-10.2 8.12-15.62m6.88-63.13c-2.92-1.66-5.42-2.5-7.5-2.5-1.67 0-3.76 3.13-6.25 9.38-.84 2.92-2.5 5-5 6.25 0 .42-.21.83-.63 1.25h1.88c2.08 0 3.12 1.04 3.12 3.12 0 1.25-1.88 1.88-5.62 1.88-4.17 0-8.96 2.08-14.38 6.25 7.5 8.33 14.38 12.5 20.63 12.5 4.58 0 9.79-1.25 15.62-3.75l1.88-.63-1.25-1.87-4.38-1.88c-1.25-.41-1.88-1.25-1.87-2.5 0-.83.62-1.66 1.87-2.5l5.63-1.25 10.62-11.87a74.83 74.83 0 0 0-5.62-2.5c-2.09-.83-4.38-1.67-6.88-2.5l-5-.63c-.42 0-.62-.62-.62-1.87v-.63c0-1.66 1.25-2.91 3.75-3.75m16.87 46.25-11.25 8.75-11.87 20.63 4.37.63c1.25 0 4.37-6.46 9.38-19.38 2.08-4.17 5.2-7.7 9.37-10.63m6.25-33.12c-7.08 13.75-12.3 22.5-15.62 26.25-5.42 5.42-12.92 10.83-22.5 16.25l-.63 5c28.75-16.25 43.13-29.8 43.13-40.63 0-1.66-1.46-3.95-4.38-6.87m-40-36.88-3.75 5-6.25 1.25c-.83.84-1.25 1.46-1.25 1.88 0 2.08 1.25 3.13 3.75 3.12 4.17 0 6.67-3.74 7.5-11.25m169.38 80c7.08 2.09 12.08 3.13 15 3.13 7.92 0 11.88-3.12 11.88-9.38 0-4.16-1.25-6.24-3.75-6.25v1.88c.41 7.5-4.38 11.25-14.38 11.25-4.58 0-7.5-.2-8.75-.63m42.5-19.37 6.25-.63c5-.41 8.33 1.46 10 5.63 1.67-1.67 2.5-3.33 2.5-5 0-3.33-1.88-5-5.63-5-2.91 0-7.29 1.67-13.12 5m-104.38-20.63c0 1.25.42 2.92 1.25 5a43.78 43.78 0 0 1 3.13 6.25 99.36 99.36 0 0 1 3.12 4.38l1.25 1.25c0 .42-.42 1.04-1.25 1.87l-2.5 2.5c-.42.42-.83 1.46-1.25 3.13v2.5c0 2.92.83 5.2 2.5 6.88l4.38 4.37c2.91 2.92 4.37 6.67 4.37 11.25v.63l-3.12 5h-.63l1.25 1.25c5 0 8.12-2.71 9.38-8.13 0-.83.2-1.46.62-1.88l1.25.63 1.88.63v-2.5c0-2.92-1.88-6.67-5.63-11.25-3.75-4.59-5.63-8.13-5.62-10.63 0-2.08 1.04-3.12 3.12-3.13 1.25 0 3.54 1.88 6.88 5.63 3.74 5 6.24 8.13 7.5 9.38 1.25.83 3.12 1.25 5.62 1.25l1.88-.63 5.62-1.25v-2.5l1.25-1.25 1.25-.63c1.67 0 2.92.21 3.75.63l1.88.63c2.5 0 3.74-1.05 3.75-3.13v-1.88c-.42-.83-.84-1.25-1.25-1.25v-.62c-3.34 2.08-5.84 3.13-7.5 3.13-4.59 0-8.96-2.5-13.13-7.5-6.25-6.25-10.42-9.38-12.5-9.38h-1.25l-2.5 3.12h-1.25c-5 0-8.75-4.79-11.25-14.37-2.5.83-3.54 1.25-3.12 1.25-1.67 0-2.71-.2-3.13-.63m37.5 52.5c16.25 8.75 24.38 18.34 24.38 28.75 0 6.67-2.09 12.3-6.25 16.88a20.24 20.24 0 0 1-15.63 6.88c-8.33 0-12.5-3.55-12.5-10.63 0-4.17 1.46-6.25 4.38-6.25 1.66 0 3.12 1.46 4.37 4.38 1.67 4.16 2.92 6.66 3.75 7.5.83.83 2.5 1.25 5 1.25 2.92 0 5-1.88 6.25-5.63l-5 1.25c-2.5 0-3.96-.83-4.37-2.5l-.63-5c-.83-3.75-3.33-5.63-7.5-5.63-7.08 0-10.62 3.55-10.62 10.63 0 10.83 6.04 16.25 18.12 16.25 2.92 0 5.42-.63 7.5-1.88l10.63-6.87h.62c1.67 0 2.92 2.3 3.75 6.88 6.67-9.17 10-16.88 10-23.13 0-12.92-12.08-23.96-36.25-33.13m101.88-43.75a17.51 17.51 0 0 0 2.5-8.75c0-3.33-1.46-5-4.38-5-2.5 0-3.75.84-3.75 2.5 0 .42.84 1.05 2.5 1.88 2.09.83 3.13 2.5 3.13 5v4.37m-28.75 46.88 2.5 1.25 5.63 1.25-4.38-2.5h-3.75m-63.13-3.75c10.42 4.58 18.55 7.08 24.38 7.5l5 1.25 15 1.88c9.58 1.25 14.38 5 14.38 11.25 0 4.58-2.92 6.87-8.75 6.87 2.08 2.08 3.54 3.13 4.37 3.13 6.67 0 10-3.55 10-10.63 0-9.17-7.92-14.17-23.75-15a694.3 694.3 0 0 1-17.5-1.88 218.4 218.4 0 0 1-23.13-4.37m134.39 56.88c5-1.67 7.5-4.8 7.5-9.38 0-5.42-3.96-9.58-11.88-12.5-1.25-.42-1.88-1.04-1.88-1.88 0-.41.42-1.25 1.25-2.5 1.25-1.66 1.88-2.7 1.88-3.12-2.92-.83-7.92-1.88-15-3.13l-9.38 3.13-11.25 7.5c-.41.42-1.25.63-2.5.63s-1.87-.84-1.87-2.5c0-2.09 5-5.63 15-10.63 8.75-4.17 13.13-9.8 13.13-16.88V532.3l-1.88 1.25-4.38-1.88c.42-1.66.63-2.91.63-3.75.42-1.25.63-2.29.63-3.12 0-7.5-3.76-11.25-11.25-11.25-1.67 0-2.5.63-2.5 1.88 0 .41.41 1.45 1.25 3.12a6 6 0 0 1 1.87 4.38c0 5.83-4.58 13.33-13.75 22.5l-11.25 9.37c-2.08 2.08-3.96 5.2-5.63 9.38v4.37l-1.25 1.88-4.37.62c-2.5.83-3.75 2.7-3.75 5.63 0 6.66 3.12 10 9.38 10 1.66 0 3.74-.63 6.25-1.88l3.75 3.13c3.33 3.33 6.66 5 10 5 .41 0 2.29-.42 5.62-1.25l15-5c4.17-.84 6.67-1.25 7.5-1.25 8.75 0 13.13 2.91 13.13 8.75v2.5m-75-16.88c-4.59 2.5-8.34 3.75-11.25 3.75-12.09.42-18.55 1.04-19.38 1.88l-1.25 1.87c2.5 3.33 6.04 5 10.63 5 2.08 0 5-.42 8.75-1.25 4.16-.83 9.58-2.08 16.25-3.75l-3.75-7.5m73.75-31.25c6.24 2.08 9.37 5 9.37 8.75 0 2.08-1.46 4.38-4.38 6.88 5 0 7.5-2.3 7.5-6.88 0-5.83-3.75-8.75-11.25-8.75h-1.25m-7.5-10.63c12.92-27.08 19.38-48.75 19.38-65 0-4.58-.42-10-1.25-16.25a443.67 443.67 0 0 0-3.75-23.75l-6.88 2.5c3.34 17.92 5 29.17 5 33.75 0 12.09-4.79 31.25-14.37 57.5l1.88 11.25M453.73 459.8l-1.25 8.12 1.87 16.88c0 3.75-2.5 5.2-7.5 4.37h-1.25c1.67 2.92 3.54 4.38 5.63 4.38 5.83 0 8.74-3.96 8.75-11.88 0-6.24-2.09-13.54-6.25-21.87m136.25 28.12c1.66-4.58 2.91-8.54 3.75-11.87a55.4 55.4 0 0 0 2.5-8.13c2.08-15.83 4.79-23.75 8.12-23.75 1.67 0 3.33.84 5 2.5.42-.41.63-1.45.63-3.12 0-2.92-2.3-4.37-6.88-4.38h-1.25c-5.42 1.67-8.33 5.84-8.75 12.5v18.13l-3.13 18.12m10.63 39.38c6.25-15.42 9.37-28.54 9.38-39.38 0-8.33-2.71-12.5-8.13-12.5-4.17 0-6.25 1.67-6.25 5 0 .42.42 1.05 1.25 1.88l3.75-.63c5 0 7.5 5.63 7.5 16.88 0 7.5-2.7 16.67-8.13 27.5l.63 1.25m-41.88-116.25c16.25 17.08 24.38 34.37 24.38 51.87 0 19.59-6.46 36.46-19.38 50.63-13.33 14.58-28.12 21.88-44.37 21.88h-6.25c-2.5 0-4.38-.21-5.63-.63-20-3.75-30.62-5.62-31.87-5.63-.42 0-1.46.21-3.13.63-1.25 0-2.91.2-5 .63 19.59 6.66 36.88 10 51.88 10 19.17 0 35.63-7.5 49.38-22.5 13.75-15.42 20.62-33.75 20.62-55 0-16.67-1.46-27.71-4.38-33.13-4.58-8.75-13.33-15-26.25-18.75m-86.25 79.37-.62-3.12c0-1.25.42-2.3 1.25-3.13l4.38 3.13a22.18 22.18 0 0 0 10 2.5c10 0 15-4.17 15-12.5l-1.88-1.25-.63-2.5 5-3.13c0-3.33 2.09-7.08 6.25-11.25.42-.41.84-.62 1.25-.62l1.25-1.25c-3.33-1.67-6.25-2.5-8.75-2.5h-1.25c-.83 0-2.7.62-5.62 1.87s-5 1.88-6.25 1.88-2.3-1.04-3.13-3.13c-.41-2.5-1.25-3.74-2.5-3.75-.41 0-1.87.42-4.37 1.25l-6.88 4.38a12.06 12.06 0 0 1-6.25 1.87c-5 0-8.12-2.08-9.37-6.25l-1.88-3.12-.62 1.87 2.5 5v2.5l-1.25.63 1.25 1.87 9.38 5 8.12 2.5-1.88 2.5c-.41 0-.83.21-1.25.63-1.66 0-6.66-2.3-15-6.88a7.51 7.51 0 0 0 5 5l4.38.63c.83.83 1.25 1.46 1.25 1.87 0 .84-.42 1.25-1.25 1.25l-5-.62-1.25 1.25c.42 0 .83.2 1.25.62l4.38 1.88 1.87.62-.63 1.25 1.25 1.25c.42 0 .84.21 1.25.63l-1.87 3.75v.62c0 1.25 1.04 2.92 3.13 5m85.62-15c-5.42 15.42-12.08 23.13-20 23.13-1.67 0-2.5-.63-2.5-1.88 0-.83.42-1.66 1.25-2.5l5.63-3.75c3.74-2.5 5.62-8.12 5.62-16.87 0-2.08-.42-3.54-1.25-4.38-.42 0-1.46.63-3.13 1.88-1.66.83-2.91 1.25-3.75 1.25-.83 0-1.25-.63-1.25-1.88s.21-2.29.63-3.12v-1.88c0-2.5-2.3-6.66-6.88-12.5l-1.25-1.25c-.41 0-1.04.42-1.87 1.25l-6.25 6.25-4.38 7.5-.62 9.38c0 2.08-.83 3.13-2.5 3.12-.42 0-1.04-.83-1.88-2.5-.83-1.66-1.45-2.5-1.87-2.5l-1.25 1.25-2.5 2.5a9.74 9.74 0 0 0-1.88 2.5l-5 8.75c-3.33 5.84-8.12 8.76-14.37 8.75-3.75 0-6.25-.2-7.5-.62 3.33 4.58 7.08 6.88 11.25 6.87 2.5 0 5.42-1.04 8.75-3.12l7.5-6.25h.63c.83 0 1.25.2 1.25.62 0 4.17-3.55 7.3-10.63 9.38l-3.13.62 3.13 1.25 2.5.63c10 0 17.92-7.5 23.75-22.5 2.08-5.83 3.54-8.75 4.38-8.75a4.24 4.24 0 0 1 1.25 3.12c0 9.59-7.5 18.96-22.5 28.13l3.75 1.25 10.62-8.13c.42-.41 1.04-.62 1.88-.62.41 0 .62.2.62.62 0 2.92-2.08 5.63-6.25 8.13l3.13-.63 6.87-6.87c.83-.83 1.46-1.25 1.88-1.25.41.42.62 1.04.62 1.87 0 1.67-.83 3.34-2.5 5 11.25-2.08 18.75-5.2 22.5-9.37 4.17-4.17 6.67-11.46 7.5-21.88m8.13-48.75v.63c0 2.08-.63 3.13-1.88 3.12-.42 0-3.75-4.79-10-14.37-6.67 5.42-10 10.62-10 15.62 0 1.67.2 2.71.63 3.13l2.5 5v1.25c0 .83-.63 1.25-1.88 1.25h-1.88a7.9 7.9 0 0 0-1.87 3.75v2.5c0 3.33.83 5.83 2.5 7.5l10.63 8.75c3.74 3.33 5.62 7.7 5.62 13.12 0 5-.2 8.13-.63 9.38 2.5-6.67 3.75-11.25 3.75-13.75v-1.88l-3.75-5c-.41-.41-.62-1.25-.62-2.5 0-.41.2-.62.63-.62 2.08 0 4.16 3.54 6.25 10.62l.62-4.37c0-2.08-.83-4.37-2.5-6.88-1.25-2.5-1.88-3.95-1.88-4.37 0-.83.42-1.25 1.25-1.25 2.5 0 4.38 2.92 5.63 8.75v-1.88c0-2.91-.83-5.62-2.5-8.12a23.65 23.65 0 0 0-5-7.5 28.33 28.33 0 0 0-5-5c-1.25-1.67-1.88-2.92-1.88-3.75 0-.83.21-1.46.63-1.88 2.92 0 8.12 6.46 15.63 19.38v-3.13c0-2.08-1.05-4.37-3.13-6.87-1.67-2.5-2.5-3.96-2.5-4.38 0-.41.42-1.04 1.25-1.87 1.25 0 2.92 1.67 5 5a35.1 35.1 0 0 0-5.63-19.38m-232.5 90.63c-2.5-.83-3.95-1.67-4.37-2.5l-1.25-.63c-.42 0-.63.21-.63.63 0 1.67 1.46 2.5 4.38 2.5h1.88m-69.38-113.75c6.25 2.08 9.37 5.83 9.38 11.25v2.5c3.33 0 5-1.87 5-5.63 0-5.83-3.76-8.54-11.25-8.12h-3.13m209.38 5.62 3.75 1.88c7.5-8.75 15.2-13.33 23.13-13.75 1.25 0 1.87.2 1.87.62s-.42 1.05-1.25 1.88l-3.75 1.87-5.63 6.88.63 1.87 4.38-1.25c.83.84 1.25 2.09 1.25 3.75 0-.41-.21 0-.63 1.25 0 .84-.2 2.3-.63 4.38l.63 23.75.63.62 20.62-7.5 6.25-9.37 1.88-1.88c.41 0 1.66 2.5 3.75 7.5l8.12-5 3.13-11.25c1.25-4.16 5-6.66 11.25-7.5l3.75-.62 6.87.62-3.13-1.87-5.62-.63c-.42-.41-.63-.83-.63-1.25v-.62c0-.83.63-1.25 1.88-1.25h.63l-4.38-.63-9.38 3.75h-.62c-.83 0-1.25-.2-1.25-.62 0-3.33 3.33-5.2 10-5.63l-3.13-1.25-8.12 3.13c-.83 0-1.25-.42-1.25-1.25 0-.83.2-1.25.63-1.25l5.62-2.5-2.5-.63c-5.83 0-10.83 2.71-15 8.13l-5 6.87c-.83 1.25-1.88 1.88-3.13 1.88-.83-.83-1.25-1.67-1.25-2.5 0-1.25 2.09-3.54 6.25-6.88l12.5-10c-.41-.41-1.25-.62-2.5-.62s-2.08.2-2.5.62l-6.87 5.63-1.25.62c-.83 0-1.25-.62-1.25-1.87v-1.25l4.38-3.13v-.62l-6.25 3.75c-.42.42-1.05.62-1.88.62-.83-.83-1.25-1.45-1.25-1.87 0-1.25.83-2.5 2.5-3.75-5.42 0-10 .42-13.75 1.25-3.75.42-7.3 1.25-10.63 2.5a46.4 46.4 0 0 0-9.37 5.62 187 187 0 0 0-12.5 8.75m146.88 16.25c.83-.83 1.25-1.66 1.25-2.5 0-1.66-.83-2.5-2.5-2.5h-.63l-6.25 4.38-5.62 1.87c-.83.84-1.25 1.67-1.25 2.5.83.84 1.67 1.25 2.5 1.25 4.17 0 6.46-.2 6.88-.62l5.62-4.38m-75-36.25c1.25-3.74 5.2-5.62 11.88-5.62 5.83 0 11.87 4.17 18.12 12.5 4.58 6.67 8.96 13.12 13.13 19.37 4.16 5.84 9.37 8.76 15.62 8.75 10.42 0 15.63-5.62 15.63-16.87 0-8.75-3.96-18.96-11.88-30.63-3.75-5.41-5.63-10.41-5.63-15 0-6.24 2.09-9.37 6.25-9.37 3.75 0 5.63 1.88 5.63 5.62 0 .84-.42 1.67-1.25 2.5l-3.75 3.13 2.5 2.5c4.17 0 6.25-3.33 6.25-10 0-7.08-3.96-10.63-11.88-10.63-7.08 0-11.87 4.38-14.37 13.13-.42 1.67-.83 2.5-1.25 2.5 0 0-.42-.2-1.25-.63a14.59 14.59 0 0 0-3.75-2.5c-.83-.83-2.5-1.66-5-2.5-1.25 4.59-1.88 8.34-1.88 11.25 0 5.84 2.3 10.42 6.88 13.75l15.63 11.88c2.5 2.5 3.74 5.2 3.75 8.12 0 2.92-.63 4.38-1.88 4.38-4.17 0-5.83-2.5-5-7.5v-1.88l-15-11.87-7.5-8.13c-3.33-3.74-7.08-5.62-11.25-5.62-.83 0-1.88.2-3.13.62a27 27 0 0 0-5 .63c1.67.42 2.5 1.46 2.5 3.12 0 1.25-.62 1.88-1.87 1.88h-3.13c-6.66-.42-10 1.67-10 6.25 0 1.67.63 3.96 1.88 6.87m-36.25-100.62c-5-4.16-7.5-7.7-7.5-10.62v-3.13c-2.5 0-3.75 1.25-3.75 3.75 0 4.17 3.75 7.5 11.25 10m106.25-8.75c-13.33 14.59-20 26.46-20 35.63 0 14.58 5.2 21.87 15.63 21.87 8.74 0 13.12-3.74 13.12-11.25 0-1.25-1.25-2.91-3.75-5-2.5 5-5.63 7.5-9.38 7.5-6.25 0-9.37-4.58-9.37-13.75 0-7.91 4.58-19.58 13.75-35m-39.38 75.63c-5.83-7.08-8.75-12.7-8.75-16.88 0-9.58 4.38-14.37 13.13-14.37 6.25 0 9.37 2.92 9.38 8.75 0 2.5-.84 4.58-2.5 6.25 4.16-2.92 6.24-5.83 6.25-8.75 0-7.92-4.8-11.88-14.38-11.88-10.83 0-16.25 6.05-16.25 18.13 0 7.08 4.37 13.33 13.13 18.75m-14.38-3.13a27.22 27.22 0 0 1-7.5-8.12c-2.5-5-4.58-7.5-6.25-7.5-1.25 0-1.88.83-1.88 2.5v.62c1.25 5.84 6.46 10 15.63 12.5m-22.5 17.5a312 312 0 0 0-15.63-1.87 67.81 67.81 0 0 0-11.87-1.25c-12.92 0-19.38 4.38-19.38 13.12 0 5.84 3.96 8.76 11.88 8.75 7.5 0 11.25-3.12 11.25-9.37v-1.25c-1.67 4.17-3.96 6.25-6.88 6.25-3.75 0-5.62-1.67-5.62-5 0-7.08 7.92-10.63 23.75-10.63 2.08 0 4.17.21 6.25.63 2.08 0 4.17.2 6.25.62m15.63-4.37c-18.75-5-33.34-7.5-43.75-7.5-34.17 0-61.46 21.25-81.88 63.75l6.25-3.13c17.5-37.5 43.13-56.25 76.88-56.25 10.83 0 23.75 2.09 38.75 6.25l3.75-3.12m-86.88 16.87c-4.17 5.42-6.25 10.84-6.25 16.25 0 5 2.3 7.5 6.88 7.5 3.33 0 5.83-2.7 7.5-8.12-3.34 2.08-5.42 3.13-6.25 3.12-3.76 0-5.63-2.5-5.63-7.5 0-2.5 1.25-6.24 3.75-11.25m12.5-21.87-5 1.25c-2.92.83-7.5 2.08-13.75 3.75-8.75 2.5-14.8 3.75-18.13 3.75-7.08 0-10.62-3.75-10.62-11.25 0-2.92 2.5-6.04 7.5-9.38-9.17.42-13.75 4.8-13.75 13.13 0 8.75 4.8 13.12 14.38 13.12 5 0 18.12-4.79 39.37-14.37m28.75-29.38c-2.5-4.16-3.75-7.08-3.75-8.75 0-1.25.42-2.5 1.25-3.75l1.88-2.5c-.84-.83-1.46-1.25-1.88-1.25-3.33 0-5 1.88-5 5.63 0 3.33 2.5 6.88 7.5 10.62m-.63 14.38c-3.33-1.67-7.5-2.5-12.5-2.5s-7.5 2.5-7.5 7.5c0 2.08.84 3.13 2.5 3.12.42 0 1.05-.62 1.88-1.87 2.5-4.17 7.7-6.25 15.63-6.25m16.87-36.88c-5-5-9.38-7.5-13.13-7.5-6.66 0-10 2.09-10 6.25 0 .84.21 1.25.63 1.25.42 0 1.67-.62 3.75-1.87 4.17-2.92 10.42-2.3 18.75 1.87m-55 11.88c2.92 2.08 10.42 6.25 22.5 12.5 12.5 5.83 29.58 13.96 51.25 24.37l18.75 8.75h9.38l-27.5-15.62-38.13-16.25-33.75-18.13-2.5 4.38m12.5 11.87a43.6 43.6 0 0 1-6.25-3.12 24.48 24.48 0 0 0-5.63-3.13c-3.33 2.09-5.41 3.13-6.25 3.13-1.66 0-2.5-1.04-2.5-3.13 0-2.91 1.88-6.24 5.63-10l5.63-6.25c.83-.83 1.66-1.25 2.5-1.25 1.66 0 2.5 1.25 2.5 3.75l-.63 3.13c2.08 2.5 6.04 4.58 11.88 6.25 2.5-6.25 3.74-11.25 3.75-15 0-9.58-3.13-14.38-9.38-14.38-11.25 0-21.25 6.26-30 18.75-5.42 7.92-8.13 16.05-8.13 24.38 0 8.75 4.38 13.12 13.13 13.12 6.25 0 14.17-5.41 23.75-16.25m-39.38 5v-4.37c0-9.58 3.55-18.33 10.63-26.25a52.24 52.24 0 0 1 26.88-16.88 17.07 17.07 0 0 0-3.75-.62 5.57 5.57 0 0 0-2.5-.63c-3.76 0-8.76 2.5-15 7.5-12.5 10-18.75 20.42-18.75 31.25 0 3.34.83 6.67 2.5 10m1.87-33.12c-3.75-4.17-7.3-6.25-10.63-6.25-7.08 0-10.62 3.33-10.62 10 0 1.25.2 2.08.63 2.5l4.37 5.62.63-1.87-1.25-5.63c0-4.16 2.7-6.24 8.12-6.25 2.5 0 5.42.63 8.75 1.88m157.5-52.5-5 1.87-.63 1.25c0 1.25.63 1.88 1.88 1.88 3.33 0 6.04-1.67 8.13-5l3.75-5.63c-1.25 0-2.09.21-2.5.63l-5.63 5m-123.75 28.12c-4.58-7.91-7.08-14.16-7.5-18.75-3.33-13.33-8.75-20-16.25-20-7.92 0-11.88 4.17-11.88 12.5 0 2.92 2.71 6.26 8.13 10-1.67-2.91-2.5-5.2-2.5-6.87 0-5.42 2.5-8.12 7.5-8.13 4.17 0 7.3 3.13 9.38 9.38a89.7 89.7 0 0 0 13.12 21.87m-21.88 12.5c-1.25-4.16-1.87-7.5-1.87-10 0-4.58 1.67-6.87 5-6.87 2.5 0 4.58.83 6.25 2.5-1.67-4.17-3.75-6.25-6.25-6.25-5.42 0-8.13 2.92-8.13 8.75 0 3.33 1.67 7.3 5 11.87m25-44.37c3.34-3.75 5.42-6.46 6.25-8.13.84-2.08 2.09-3.12 3.75-3.12 2.92 0 4.38 1.88 4.38 5.62 2.08-2.08 3.12-3.74 3.13-5 0-4.58-2.09-6.87-6.25-6.87-6.26 0-10 5.83-11.25 17.5m-45 5c1.66-22.92 7.29-34.38 16.87-34.38 6.67 0 10 3.13 10 9.38 0 .83-.2 1.88-.63 3.12 0 .84-.2 2.09-.62 3.75 5-1.66 7.5-5 7.5-10 0-9.58-4.58-14.37-13.75-14.37-5.42 0-10.2 2.92-14.38 8.75-3.75 5.42-5.62 12.5-5.62 21.25v6.25c0 2.92.2 5 .63 6.25m38.75-26.25c6.24-9.17 9.37-16.25 9.37-21.25s-2.92-7.5-8.75-7.5c-2.92 0-5 2.3-6.25 6.87.42-2.5 1.67-3.74 3.75-3.75 4.58 0 6.87 2.3 6.88 6.88l-1.25 5a881.2 881.2 0 0 0-3.75 13.75m23.75-15c-17.5 4.58-26.25 17.5-26.25 38.75s12.91 37.3 38.75 48.12l-3.13-6.25c-20-9.16-30-23.54-30-43.12 0-13.75 6.46-23.96 19.38-30.63l1.25-6.87m70.62 63.12-1.25-5c0-1.25.63-1.87 1.88-1.87.83 0 2.29.2 4.37.62 2.5.42 4.37.63 5.63.63 6.24 0 9.16-3.96 8.75-11.88v-1.25l.62-2.5 1.25-.62c.42-.42.63-.83.63-1.25 0-2.5-1.25-3.75-3.75-3.75l-.63.62v2.5c.83 4.59-1.46 6.88-6.88 6.88-5.83 0-10.62-4.17-14.37-12.5-2.92-7.92-5.83-12.92-8.75-15s-7.3-3.12-13.13-3.13c-14.16 0-21.25 7.5-21.25 22.5 0 6.26 2.71 12.09 8.13 17.5 6.67 6.67 10 11.67 10 15 0 0-.2.42-.63 1.25 0 .84-.2 2.09-.62 3.75.42 1.25.83 1.88 1.25 1.88 2.08 0 4.58-2.08 7.5-6.25l.63-3.75 1.87-3.13c0-4.16-3.33-7.7-10-10.62-6.25-2.92-10-6.87-11.25-11.88l-.63-1.25c0-1.66.63-2.5 1.88-2.5 2.08 0 3.12 1.67 3.13 5v1.25c3.33 3.34 7.7 6.26 13.12 8.75-.83-6.24-1.04-9.58-.63-10 1.25-6.66 1.88-10.41 1.88-11.25l-1.88-3.75v-1.25c0-1.66.42-2.5 1.25-2.5 2.5 0 3.75 1.46 3.75 4.38 0-1.67-.2-1.46-.62.62 0 1.67-.2 5.21-.63 10.63l-.62 5c-.42 11.67 6.25 17.7 20 18.12m-14.38-50.62h3.13l5.63-3.75.62-.63c1.25 0 1.87.63 1.88 1.88 0 .83-1.46 2.08-4.38 3.75-.83.42-1.46.83-1.88 1.25a4.23 4.23 0 0 0 3.13 1.25c1.25 0 2.92-.42 5-1.25 2.5-1.25 4.8-2.5 6.88-3.75a68.22 68.22 0 0 0 5.62-5c1.67-1.67 2.5-3.12 2.5-4.38 0-.83-.42-1.25-1.25-1.25l-3.75-.62-13.13-5.63c-.41-.41-1.45-.62-3.12-.62-3.33 0-7.3 1.67-11.88 5-4.16 3.33-6.25 6.67-6.25 10 0 1.25.84 1.88 2.5 1.87l1.25-3.12 2.5.62-.62 2.5h1.25l3.75-3.75h.63c1.25 0 1.87.63 1.87 1.88s-.63 2.5-1.88 3.75m-37.5 26.25c-1.66 2.92-3.33 4.38-5 4.37-.41 0-.62-.41-.62-1.25 0-1.66 1.25-3.54 3.75-5.62 2.5-2.5 3.75-4.37 3.75-5.63l-.63-.62c0-.42-.2-.83-.62-1.25-.83 2.08-1.88 3.13-3.13 3.12-.41 0-1.04-.41-1.87-1.25.42-.41.63-.83.63-1.25a7.27 7.27 0 0 1 1.87-1.25h-.63c-10.83 0-16.25 5-16.25 15l3.13 8.75 1.88 6.25 2.5 1.25 9.37-6.87 5-5.63v-3.12h-3.13v-5m8.75-22.5c.42-.42.63-1.25.63-2.5l-1.25-3.75-2.5-3.75-.63-.63c0-1.25.42-1.87 1.25-1.87.84 0 1.46.2 1.88.62l3.75 7.5 1.88 1.88v-3.13c.41-1.25 1.04-1.87 1.87-1.87.42 0 1.04.62 1.88 1.87.83.84 1.45 1.25 1.87 1.25 2.5 0 3.75-1.87 3.75-5.62 0-5-2.7-9.58-8.13-13.75a29.01 29.01 0 0 0-18.12-6.25h-5.63c-2.5 0-4.37.2-5.62.62 1.25 2.5 1.87 4.17 1.88 5 0 1.25-.42 3.55-1.25 6.88a27.97 27.97 0 0 0-1.25 7.5c0 7.92 1.87 12.5 5.62 13.75l10 3.12-.63-3.75c.42 0 1.05.42 1.88 1.25 1.25.84 2.3 1.25 3.13 1.25.41 0 .62-.62.62-1.87v-5c.42.42.83.62 1.25.62.83 0 1.46.21 1.88.63m81.25-49.38-.63 2.5 9.38 29.38c1.66 3.33 2.5 7.7 2.5 13.12 0 19.59-7.09 37.09-21.25 52.5-13.75 15.42-29.59 23.13-47.5 23.13-12.5 0-20-3.12-22.5-9.38l-3.75-10.62-1.88-1.25-4.38 13.12c0 .42-.62 1.25-1.87 2.5l-1.25 1.88c0 3.33 2.5 6.25 7.5 8.75 5.42 2.5 9.8 3.75 13.13 3.75 3.74 0 8.54-1.46 14.37-4.38a25.18 25.18 0 0 1 10-1.87c5 0 7.5.83 7.5 2.5 0 1.25-.83 1.88-2.5 1.87l-16.25 1.88-13.75 2.5-5-.63c-5-.41-7.5.84-7.5 3.75v3.13c0 .83-1.04 1.67-3.13 2.5-4.16.42-6.25 3.13-6.25 8.12 0 2.5 1.05 4.17 3.13 5 .83 0 1.46-.2 1.88-.62l5-5c2.5-2.5 7.08-4.37 13.75-5.63 58.75-11.25 88.12-42.91 88.12-95 0-13.33-5.63-29.16-16.88-47.5m-167.5 17.5h-5c-7.08 20.42-10.62 35.42-10.62 45 0 17.5 7.5 37.09 22.5 58.75l3.75-4.37c-12.92-20.42-19.38-40-19.38-58.75 0-11.67 2.92-25.2 8.75-40.63M364.99 419.8c2.09.84 3.55 1.46 4.38 1.88h1.88l.62-.63-1.25-3.12-1.88-3.13-3.75-7.5-3.12-5-3.13-5-3.12-3.12c-2.92-4.58-5.83-7.92-8.75-10-2.92-2.5-5.42-4.8-7.5-6.88v6.88c1.67 1.25 3.75 3.33 6.25 6.25 2.5 2.5 5 5.63 7.5 9.37 2.5 3.34 4.8 6.88 6.88 10.63a69.78 69.78 0 0 1 5 9.37m-107.5-106.25 3.75-.62 5 .62 5 .63c5.83.83 8.74 4.38 8.75 10.62 0 2.92-1.88 5.21-5.63 6.88l3.13.62c7.08 0 10.62-3.74 10.62-11.25 0-1.66-.2-2.7-.63-3.12l-1.87-3.13c-.83-2.08-3.13-3.54-6.88-4.37l-3.75-.63c-.83 0-2.5.42-5 1.25-2.08.42-6.04.84-11.87 1.25l-11.25.63 3.13.62h7.5m73.75-28.12c5 0 7.5-2.5 7.5-7.5 0-5.83-3.55-8.75-10.63-8.75-5.42 0-10.2 3.33-14.38 10a32.78 32.78 0 0 1-3.12 5 24.83 24.83 0 0 0-3.13 3.75l-5.62 5.62 5-3.75c.83-.83 1.25-1.45 1.25-1.87l1.25-1.25 3.13-3.75c3.74-5.42 8.12-8.12 13.12-8.13 5 0 7.5 2.3 7.5 6.88 0 .83-.63 2.08-1.88 3.75m43.75 6.25.63-1.25c0-1.67-.83-3.33-2.5-5-.83-.83-1.46-1.25-1.88-1.25-2.5 0-4.58 1.88-6.25 5.62l-4.37 8.13 1.88-2.5 3.75-2.5 2.5-1.25c1.66-.42 2.7-.83 3.12-1.25.42.42.83.62 1.25.62.83 0 1.46.21 1.88.63M258.1 370.42l4.37-.63c1.25-.41 3.12-.62 5.63-.62h3.75c8.33 0 15.83 1.67 22.5 5 6.66 3.33 10 7.08 10 11.25 0 2.92-1.67 5.63-5 8.12 1.66 1.25 3.12 1.88 4.37 1.88 6.25 0 9.37-4.17 9.38-12.5v-1.25l-2.5-3.75c-4.17-6.67-13.55-10-28.13-10-7.92 0-16.04.83-24.38 2.5m-3.75 20.62h2.5c.84 0 2.3-.2 4.38-.62 2.5-.83 4.37-1.25 5.63-1.25l5 .62c8.74.84 13.12-2.5 13.12-10 0-3.74-2.3-5.62-6.88-5.62-.83 0-1.66.42-2.5 1.25.42.42.63.83.63 1.25l.63.62.62 1.25c0 3.34-2.3 6.05-6.88 8.13l-5.62 1.87-10.63 2.5m-21.24-16.25 6.25-1.87 6.87-3.13c9.17-3.74 21.25-5.62 36.25-5.62 12.92 0 27.92 3.96 45 11.87v-6.25a89.97 89.97 0 0 0-41.88-10c-16.25 0-33.75 5-52.5 15m-11.87-1.25 7.5-4.37 8.75-6.25c2.08-.83 5.62-2.08 10.63-3.75 5-2.08 11.66-4.58 20-7.5l23.12-7.5c-2.5-4.17-4.17-6.25-5-6.25-.83 0-5.2 1.67-13.13 5l-15.62 7.5a142.54 142.54 0 0 0-18.75 10.62 227.48 227.48 0 0 0-17.5 12.5m6.25-67.5c9.17 2.5 16.46 3.76 21.88 3.75 30.41 0 49.79-13.12 58.12-39.37-12.08 24.17-29.8 35.83-53.13 35l-14.37-.63-12.5 1.25m120.62-7.5a9.85 9.85 0 0 1 3.75 2.5c14.17-13.75 21.25-35.2 21.25-64.37 0-2.08-.63-7.92-1.88-17.5-1.25-7.08-1.45-11.88-.62-14.38l1.88-7.5-3.13 1.25c-3.33 1.25-5 4.8-5 10.63v5c.42 2.5.83 6.46 1.25 11.87.42 1.25.63 3.34.63 6.25v6.25c0 17.92-6.05 37.92-18.13 60m10-58.75 1.88 5 1.87 12.5 1.25-28.75c.42-21.66-6.67-32.5-21.25-32.5-7.5 0-11.25 2.71-11.25 8.13 0 2.08.63 4.58 1.88 7.5 2.08-5.83 5-8.75 8.75-8.75 12.08 0 17.91 9.58 17.5 28.75l-.63 8.12m-15.63 18.75c.42-.41.63-1.45.63-3.12 0-1.67-2.3-3.54-6.88-5.63-4.58-2.5-6.87-5-6.87-7.5 0-5.41 2.5-8.12 7.5-8.12 10.42-.42 15.63 7.3 15.63 23.12 0 14.17-6.88 29.59-20.63 46.25l1.25 1.88 5.63-4.38 4.37-1.25c4.58-2.08 8.33-8.54 11.25-19.37 3.33-10.83 5-18.96 5-24.38 0-15.41-5.83-25.2-17.5-29.37l-7.5-2.5c-.42-.42-1.04-.63-1.88-.63-1.25 0-1.87.42-1.87 1.25v3.13l-1.25.62-2.5 1.88-3.13 4.37a8.48 8.48 0 0 0-2.5 6.25c0 7.5 7.09 13.34 21.25 17.5m-13.75 192.5c-5.41 26.67-18.12 40-38.12 40l-2.5-.62-15-3.75c-2.5 0-3.75 1.25-3.75 3.75 0 3.75 5 5.63 15 5.62 12.92 0 23.75-3.95 32.5-11.87 9.17-8.33 14.38-18.96 15.63-31.88l-3.75-1.25m-94.38 98.13-1.25-1.88a5.94 5.94 0 0 0-5-2.5c-5.42 0-8.33 3.34-8.75 10-.83 2.09-1.46 3.13-1.87 3.13l-1.88-.63a6.95 6.95 0 0 0-3.12-.62c-.42 0-.63.2-.63.63 0 4.58 1.87 8.95 5.63 13.12a27.29 27.29 0 0 0 14.37 6.88c9.17 1.25 13.75 3.54 13.75 6.87 0 1.67-1.67 2.5-5 2.5-5 0-8.96-1.25-11.87-3.75l-8.75-6.25c-8.34-6.25-18.13-9.38-29.38-9.38-5 0-7.5.84-7.5 2.5 4.17 2.5 6.25 4.59 6.25 6.25 0 1.25-.62 1.88-1.87 1.88h-3.75c-5 0-8.13 2.7-9.38 8.13v1.87c0 7.92 3.12 11.46 9.38 10.63h1.25l5.62-.63-5.62-3.13c-1.25-.41-1.88-1.87-1.88-4.37 0-5 3.96-7.5 11.88-7.5 5.41 0 12.7 1.46 21.87 4.38 16.67 5 30.83 7.5 42.5 7.5 2.5 0 5.83-.84 10-2.5 4.17-1.67 6.25-3.55 6.25-5.63 0-1.25-1.88-2.3-5.63-3.13l-13.12-2.5c-4.17-1.25-10.2-5-18.13-11.25-6.66-4.16-10-8.75-10-13.75 0-1.66.42-2.91 1.26-3.75l4.37-3.12m82.5-259.38c.83 3.75.42 6.46-1.25 8.12l-4.38 8.13-8.75 10.62a19.71 19.71 0 0 0-3.12 10.63c0 10.42 5.83 15.62 17.5 15.62 11.25 0 24.17-6.66 38.75-20 6.67-6.66 11.88-10.83 15.63-12.5 2.08-1.25 3.12-2.08 3.12-2.5 0-2.5-3.33-3.74-10-3.75-2.92 0-7.3 2.92-13.13 8.75-1.66 1.67-2.7 2.5-3.12 2.5-.83-.83-1.25-2.5-1.25-5v-1.25c0-3.33-.63-5-1.88-5-.83 0-1.66.42-2.5 1.25l-10 5.63a24.83 24.83 0 0 0-3.12 3.75c-.42.83-1.25 3.33-2.5 7.5-2.08 6.25-5.63 9.38-10.63 9.37-3.33 0-5-1.45-5-4.37 0-1.25 2.3-2.92 6.88-5 6.25-2.92 9.37-7.92 9.38-15v-1.25l-3.13-.63c-.83-.83-1.46-3.54-1.88-8.12 0-2.5-1.87-5-5.62-7.5m-33.13-51.25c2.92-1.25 5.42-1.87 7.5-1.88 7.92 0 14.17 5.63 18.75 16.88 1.25 3.33 1.67 5.63 1.25 6.87v1.25l-1.25 14.38 5.63-13.75c.42-.42.63-1.25.63-2.5 0-9.17-2.71-16.46-8.13-21.88l-3.13-3.12 2.5-.63 7.5 8.13c-4.16-19.17-13.95-28.75-29.37-28.75-2.92 0-7.92 1.04-15 3.12l-6.25 2.5 1.88-3.12c1.66-4.17 7.91-6.25 18.75-6.25 12.08 0 22.29 8.13 30.62 24.37l1.25-5-1.25-5-2.5-6.25 3.13-.62-1.25-5.63-2.5-1.87 2.5-3.13c-2.09-1.25-4.17-4.58-6.25-10-2.92.84-4.8 2.3-5.63 4.38-.42 2.08-.83 3.33-1.25 3.75-.42 0-3.33-1.25-8.75-3.75-5.83-2.92-11.46-4.37-16.88-4.38-10 0-16.45 2.71-19.37 8.13 1.67.42 2.5 1.25 2.5 2.5 0-.42-2.3.42-6.88 2.5-6.66 2.5-10.2 11.46-10.62 26.87-.42 1.67-.83 3.55-1.25 5.63 0 1.67-.42 3.96-1.25 6.87h3.13c2.08.42 5.2-.41 9.37-2.5l6.25-5 1.25 3.75 1.25 3.13c5 0 9.17-2.5 12.5-7.5 4.17-8.33 7.08-13.33 8.75-15l5.63-.63-1.25 1.88-3.13 4.37.63 6.88m-53.13 91.87.63-1.87c.41-.42 1.66-.83 3.75-1.25l3.75-1.25c5.41 0 8.54 2.3 9.37 6.87v1.25c0 5-2.5 10-7.5 15l-14.37 12.5-11.25 11.25 6.87-5 5.63-3.75 6.25-5 8.75-6.87c8.74-6.25 13.12-12.92 13.12-20 0-7.92-5.2-11.88-15.62-11.88-5 0-8.13 3.34-9.38 10m-53.75 43.75c-5.83 2.09-8.75 5.21-8.75 9.38 0 4.17 2.08 6.25 6.25 6.25 8.33 0 12.5-5 12.5-15 0-5.42-1.67-9.37-5-11.88-4.58-3.33-6.88-5.83-6.87-7.5 0-3.74 1.45-5.62 4.37-5.62 3.75 0 7.08 2.08 10 6.25 3.33 4.17 5 7.92 5 11.25 0 7.5-3.13 18.33-9.37 32.5-10 23.33-15 45.62-15 66.87 0 38.34 12.7 70.84 38.12 97.5l-3.12-11.87c-17.92-27.92-26.88-51.88-26.88-71.88 0-23.33 5.2-43.95 15.63-61.87 10.83-18.33 23.12-27.5 36.87-27.5 2.08 0 3.33.2 3.75.62l6.25 4.38c.83-.83 1.67-2.08 2.5-3.75v-1.88c0-3.33-1.25-5.2-3.75-5.62a88.55 88.55 0 0 0-6.25-1.88c-1.67-1.66-1.46-2.5.63-2.5H223.1c-5.42.42-9.8 3.34-13.12 8.75l-7.5 10.63c-2.09 2.5-3.55 3.75-4.38 3.75-1.25 0-1.88-.83-1.87-2.5 0-.83.2-1.46.62-1.88l10.63-15.62c1.66-1.67 2.5-5 2.5-10 0-2.92-1.67-9.8-5-20.63-1.25 4.59-2.71 6.88-4.38 6.88s-2.5-.83-2.5-2.5c0-.83.63-1.87 1.88-3.13-5.84-7.08-11.46-10.62-16.88-10.62-7.5 0-11.25 3.54-11.25 10.62 0 3.76 2.7 8.96 8.13 15.63 2.08 3.33 3.12 6.25 3.12 8.75 0 4.58-1.88 6.88-5.62 6.87-2.5 0-3.76-1.45-3.75-4.37 0-1.25 1.04-3.54 3.12-6.88m151.88 190a38.23 38.23 0 0 0 20 5.63l5.63-.63 40-3.12h25.62c6.67.83 12.7 1.46 18.13 1.88 5.41.41 10.41.62 15 .62 15.41 0 23.12-2.08 23.12-6.25l-3.75-5.63c0 5.42-6.46 7.92-19.38 7.5h-4.37l-26.88-1.87H398.1l-49.37 2.5-20-.63m-42.5-153.75c-2.5 2.09-3.75 4.17-3.75 6.25v1.25c.42 7.5 0 11.88-1.25 13.13l-7.5 10-5-4.38c-.83 0-1.67 1.05-2.5 3.13-4.17 6.67-6.25 11.87-6.25 15.62l.63 1.88 5 18.75c0 3.33-1.05 5-3.13 5-2.5 0-4.58-1.46-6.25-4.38l-11.88-21.87-15-11.25.63 2.5-1.87 1.87 1.87 1.25c0 2.09-1.67 3.13-5 3.13-2.08-.83-5-1.46-8.75-1.88-2.5 0-4.38.21-5.62.63-3.76 1.67-6.46 2.5-8.13 2.5l-10 8.12 3.13 1.88c3.74 2.5 6.45 5.2 8.12 8.12 2.5 5 4.17 7.92 5 8.75l5.63 5.63c0 .42-1.05 1.46-3.13 3.12-2.08 1.25-3.13 2.3-3.12 3.13l.62.62c.42 0 .83.21 1.25.63l11.25 4.37c7.08 3.34 11.88 4.59 14.38 3.75l18.75-5.62 1.87-.63c2.5 0 3.75.63 3.75 1.88 0 3.75-6.04 6.25-18.13 7.5l-6.24.62-13.13.63-12.5 6.25 5.63 5v3.75l-8.75 5-3.13 8.13c5.42.41 9.37 1.04 11.88 1.87 9.58 2.08 14.58 2.92 15 2.5 1.25-.42 3.33-.63 6.25-.63 2.08 0 3.12.84 3.12 2.5l-.62 3.75 11.25.63c4.58 0 8.33-1.46 11.25-4.38a53.2 53.2 0 0 0 6.25-5l2.5-2.5 3.75-23.12c.83-3.33 1.87-5 3.12-5 2.92 0 4.37 3.13 4.38 9.37 0 .84-.42 2.92-1.25 6.25-4.59 12.92-6.88 20.21-6.88 21.88 0 2.08.42 3.13 1.25 3.13.42 0 1.25-.42 2.5-1.25 1.67-1.25 2.92-1.88 3.75-1.88 1.25 0 2.08 1.46 2.5 4.38.83 7.91 1.67 13.12 2.5 15.62 1.25 2.5 4.8 5.42 10.63 8.75l2.5-8.13 10.62-20.62.63-6.25c.41-1.25 1.45-1.87 3.12-1.88.83 0 2.3 1.05 4.38 3.13l-1.88-1.25 1.88 1.88 1.25-4.38a24.81 24.81 0 0 0 2.5-11.25c0-6.25-2.09-10.63-6.25-13.13l-11.88-6.87-1.25-3.75c-.42-.42-1.04-.63-1.88-.63-2.91 0-4.37 1.05-4.37 3.13l.63 1.87c3.33 13.34 5 20.42 5 21.25 0 2.09-.84 3.13-2.5 3.13-1.67 0-2.3-2.7-1.88-8.13v-3.75c0-7.91-1.67-12.29-5-13.12l-5.63-.63h-5l-1.25 1.88-2.5.62-4.37-1.25 3.75-2.5c-8.33-.83-12.5-4.58-12.5-11.25 0-4.58 2.92-6.87 8.75-6.87h1.88l16.87 4.37 2.5.63c7.08 0 15.42-6.67 25-20l-16.25 4.37-6.88 7.5c-1.25 1.67-2.7 2.5-4.37 2.5-1.25 0-1.88-.83-1.88-2.5 0-1.66.84-3.33 2.5-5l11.25-10.62 6.25-16.88v-7.5l-2.5 1.88c-2.5.83-3.54 1.25-3.12 1.25-.83 0-1.25-1.46-1.25-4.38-.42-9.16-6.25-18.33-17.5-27.5M387.48 162.3c2.5-2.91 3.75-5.62 3.75-8.12 0-9.17-5.63-13.75-16.88-13.75-15.41 0-23.12 7.7-23.12 23.12 0 7.09 3.96 15.21 11.88 24.38-6.26-9.17-9.38-17.3-9.38-24.38 0-11.66 6.04-17.5 18.13-17.5 9.58 0 14.79 5.42 15.62 16.25m-200 15c-13.33 19.59-20 38.75-20 57.5 0 27.09 9.8 49.8 29.38 68.13 8.33 8.33 12.5 14.8 12.5 19.37 0 10.42-3.13 15.63-9.38 15.63-6.25 0-9.58-4.37-10-13.13l-1.25-18.12c0-5.42-2.92-8.12-8.75-8.13-2.08 0-4.58.63-7.5 1.88 7.5.42 10.83 4.17 10 11.25l-.62 11.87c-.84 12.5 5 18.75 17.5 18.75 13.33 0 20-9.79 20-29.37l2.5-.63h3.12l-1.87-5-1.25-3.12-3.75-2.5-8.75-6.88-11.88-6.87c-.83-.83-1.25-1.67-1.25-2.5 0-1.25.83-1.87 2.5-1.88.83 0 1.46.21 1.88.63l7.5 6.87 6.87 2.5 7.5 6.25c1.67 1.67 6.25 2.5 13.75 2.5 7.92 0 13.33-1.45 16.25-4.37l5-3.75-2.5-2.5 1.25-3.13 5-6.87c2.5-2.92 3.75-6.67 3.75-11.25 0-10-4.8-15-14.38-15-3.75 0-8.95 3.33-15.62 10-4.58 4.58-8.33 6.88-11.25 6.87-4.58 0-6.88-2.7-6.87-8.12 0-3.75 1.04-5.62 3.12-5.63h5l2.5-6.87a9.84 9.84 0 0 1 1.88-2.5c.83-1.25 1.66-2.7 2.5-4.38-4.17.42-7.09 1.05-8.75 1.88-1.25.83-2.09 1.25-2.5 1.25-.84 0-1.25-.63-1.25-1.88l-1.25-4.37-6.88-4.38a55.38 55.38 0 0 1-2.5 8.13c-.83 2.92-1.25 5-1.25 6.25s1.04 2.3 3.13 3.12h3.12v2.5c-.42.84-.62 2.3-.62 4.38 0 8.75 3.54 13.12 10.62 13.12 3.75 0 9.37-3.95 16.88-11.87 2.91-3.75 6.45-5.62 10.62-5.63 4.17 0 6.25 2.5 6.25 7.5 0 5.84-3.13 10.84-9.38 15-5.83 4.17-12.7 6.26-20.62 6.25-14.17 0-26.46-6.45-36.87-19.37-10.84-13.33-16.25-28.33-16.25-45 0-9.17 1.45-16.46 4.37-21.88 2.5-4.58 4.37-8.33 5.63-11.25a89.41 89.41 0 0 1 2.5-6.25l.62-5m14.38-15.62 8.75.62c19.16-11.66 38.12-17.5 56.87-17.5 42.08 0 73.13 18.96 93.13 56.88l1.87-5c-22.08-37.08-53.96-55.63-95.63-55.63-24.58 0-46.25 6.88-65 20.63m151.89 248.12c-5.42-2.08-9.17-3.12-11.25-3.13-10.42 0-20.84 3.13-31.25 9.38-.42.42-1.05.83-1.88 1.25-.42.42-1.67.83-3.75 1.25 6.67 5.42 13.13 8.96 19.38 10.62l5.62.63h.63c.83 0 1.25.42 1.25 1.25l-1.25 1.25c-.42 0-.84.2-1.25.62-5.84 1.25-8.76 3.34-8.75 6.25 0 .84 1.66 2.3 5 4.38l9.37 5.62h1.88c-.84-.83-1.25-1.45-1.25-1.87 0-.42.41-.63 1.25-.63l7.5.63 6.25-.63h2.5c-.84 1.25-2.71 2.5-5.63 3.75 1.25.42 3.12.63 5.63.63 2.08 0 4.16-.63 6.25-1.88l8.75-5.62c.41-.42 1.04-.63 1.87-.63 2.5 0 3.75 1.25 3.75 3.75v.63l-8.75 13.75 3.75 23.12 3.75-1.25c2.08-.41 3.54-1.45 4.38-3.12l1.25-3.13c.83-.83 1.45-1.25 1.87-1.25.42 0 1.04.63 1.88 1.88l1.25 6.87a76 76 0 0 0 5.62 6.25 59.57 59.57 0 0 1 6.25 7.5 32.77 32.77 0 0 0 3.13 5 32.86 32.86 0 0 1 3.12 5 20.5 20.5 0 0 0 2.5-3.12 32.78 32.78 0 0 1 3.13-5c7.08-7.08 11.87-14.17 14.37-21.25.42-1.67.83-2.5 1.25-2.5-1.25 0 1.04 2.3 6.88 6.87.41.42 1.25.63 2.5.63.83 0 1.66-1.25 2.5-3.75l3.12-12.5-1.88-13.13-5-7.5c-1.25-1.25-1.87-2.5-1.87-3.75s1.04-1.87 3.13-1.87c.41 0 4.58 1.67 12.5 5a25.17 25.17 0 0 0 10 1.87l3.75-.62c6.66-.42 11.45-2.08 14.37-5l5-5-6.25-3.13c-.42-.41-.63-1.04-.63-1.87 0-.42.42-1.04 1.25-1.88l10.63-3.75c2.92-1.25 6.04-4.37 9.38-9.37a138.1 138.1 0 0 1-7.5-1.25 43.19 43.19 0 0 1-5-1.25c-5-.83-10.21-2.08-15.63-3.75l-1.25-2.5-7.5-.63-7.5.63 4.38 3.75c.83.83 1.25 2.08 1.25 3.75 0 2.92.83 4.38 2.5 4.37 2.5 0 4.16-.2 5-.62l3.12-.63c1.67 0 2.5.63 2.5 1.88 0 2.08-1.25 2.7-3.75 1.87h-3.75c-3.33-.41-6.46.84-9.38 3.75l-5 4.38c-4.58.83-9.16 2.5-13.75 5v1.87l-2.5 3.13-1.87 1.25c-.42-.42-.63-1.25-.63-2.5s.42-2.3 1.25-3.13a139.4 139.4 0 0 1-11.87 1.88c-3.75 0-7.5.2-11.25.62-1.25 4.59-1.88 8.55-1.88 11.88v5l.63 4.37c0 2.5-.63 3.76-1.88 3.75-1.25 0-1.87-1.04-1.87-3.12l-.63-16.25-1.25-5c-9.58-.83-17.7-1.67-24.37-2.5-6.25-1.25-11.04-2.7-14.38-4.38-5.83-2.5-9.58-7.08-11.25-13.75h-7.5c-2.5.84-3.75.42-3.75-1.25 0-1.66 3.13-2.29 9.38-1.87h3.13c.41-1.25 2.08-3.33 5-6.25m3.75.62-1.88 1.25c-2.92 2.92-4.38 5.21-4.38 6.88 0 5 4.59 9.17 13.75 12.5 9.59 3.33 21.05 5 34.38 5 14.58 0 26.88-1.67 36.88-5 10-3.75 15-8.33 15-13.75 0-5-1.88-7.5-5.63-7.5-.83 0-1.46 1.25-1.88 3.75-1.66 11.67-16.87 17.5-45.62 17.5-26.25 0-39.38-4.37-39.38-13.13v-4.37l-1.25-3.13M186.24 239.8c.42 2.92 1.05 4.38 1.88 4.38 3.75 0 6.87-4.58 9.38-13.75 3.74-14.58 10-24.58 18.75-30 8.74-5.42 22.7-8.12 41.87-8.13l91.88.63c-1.67-2.92-3.96-4.37-6.88-4.38h-73.75c-24.58 0-42.5 2.71-53.75 8.13-6.25 2.92-10.83 6.67-13.75 11.25a42.87 42.87 0 0 0-4.38 8.75l-3.74 10a42.75 42.75 0 0 1-3.13 8.75c-1.25 2.5-2.7 3.96-4.38 4.37m181.89-50.62 1.25 3.12h3.12c0-1.66-1.46-2.7-4.38-3.12m-175-21.88c0 7.92-.2 12.3-.62 13.13-.83 5-3.54 16.04-8.13 33.12-.41 2.09-.83 3.96-1.25 5.63v3.75c0 8.75 1.25 13.12 3.75 13.12.84-.83 1.67-2.08 2.5-3.75 0-2.08.84-5.41 2.5-10 5.84-25 27.71-37.29 65.63-36.87h88.13c-10.84-12.08-18.75-17.92-23.75-17.5h-.63l-128.12-.63m407.5.63v13.12l5.63 16.25 2.5 10 1.25 20c.83 7.09-1.25 11.25-6.25 12.5.83 2.09 2.08 3.13 3.75 3.13 4.58 0 6.87-5 6.87-15 0-13.33-1.46-24.17-4.38-32.5l-6.25-16.88V170.42l-3.12-2.5M422.5 489.8l-3.75 6.25v5.62c0 17.5 3.33 28.96 10 34.38a249.06 249.06 0 0 1-5-18.13c-1.25-5.83-1.67-11.45-1.25-16.87V489.8m-4.38-65.63 4.38-.62v-11.88l-1.25-196.88c0-5.41 1.46-12.7 4.38-21.87 7.91-.42 15.41-.63 22.5-.63h51.25c14.58 0 27.7.21 39.37.63 12.08.42 22.7 1.04 31.88 1.87-11.25-3.74-25.84-5.62-43.75-5.62l-58.75-1.25-46.25 1.25c-3.34 13.33-5 23.33-5 30l.62 11.87.63 193.12m-2.5 73.75a433.07 433.07 0 0 1-6.88 10.63c-2.5 3.33-4.8 6.67-6.88 10a948.2 948.2 0 0 1-5.62-10 124.4 124.4 0 0 0-8.13-12.5l-6.87-6.88v8.75c.42 35-14.8 53.55-45.63 55.63-6.25.83-9.37 2.3-9.37 4.38 0 3.33 3.54 4.58 10.63 3.75h1.87l69.38-3.13c2.08 0 5.2.2 9.37.63 4.58 0 9.37.2 14.38.62 5 .42 9.58.83 13.75 1.25h10c10 0 15-1.25 15-3.75 0-1.25-1.67-2.3-5-3.13L445 550.41c-19.58-4.58-29.38-22.08-29.38-52.5m-56.25-330 2.5 6.25c1.25 4.59 3.13 8.34 5.63 11.25l6.25.63c3.75 9.58 5.62 21.04 5.63 34.37V424.8l9.37.63c3.33.42 6.04.83 8.13 1.25a40283.82 40283.82 0 0 0 10.62 0c2.08-.42 4.58-.83 7.5-1.25l-.63-97.5v-51.25c0-6.25-.2-12.3-.62-18.13v-35c0-14.16 1.87-26.66 5.63-37.5l8.75-.62 53.12-.63c19.17 0 34.17.21 45 .63 10.83 0 17.5.2 20 .62 30 3.34 46.88 13.34 50.63 30l1.87 10c2.08 7.09 3.75 10.63 5 10.63 2.92 0 4.17-3.33 3.75-10l-.63-3.13c-.83-11.66-2.08-19.79-3.75-24.37l-6.25-15c-.41-.83-.62-2.92-.62-6.25v-3.75c0-2.92.2-5.42.63-7.5l-237.5 1.25m-22.5 173.75c-3.34 2.08-5 3.96-5 5.62 0 3.76 2.5 5.63 7.5 5.63 4.16 0 7.91-.83 11.25-2.5l-1.25-1.25a91.05 91.05 0 0 1-6.88 1.25c-4.58 0-6.88-1.46-6.88-4.38 0 .42.42-1.04 1.25-4.37m-90.62 103.75c2.08 0 3.12-1.25 3.13-3.75 0-2.08-1.25-3.12-3.75-3.13-2.5 0-3.76.84-3.75 2.5 0 2.92 1.45 4.38 4.37 4.38m315.62-176.88c-3.75-3.75-5.63-9.58-5.63-17.5 0 1.25.42 2.5 1.25 3.75a6 6 0 0 1 1.88 4.37l2.5 9.38m6.25-13.75c5 5 10.83 7.5 17.5 7.5-6.67 0-12.5-2.5-17.5-7.5m-45.63 41.25c2.5.83 5 1.88 7.5 3.12 2.5.84 5 2.09 7.5 3.75-.83.42-2.91.63-6.25.63-3.33 0-6.25-2.5-8.75-7.5m56.25 1.87c.84.84 4.8-.83 11.88-5 7.08-3.74 10.63-5.41 10.63-5a127.73 127.73 0 0 0-10.63 7.5c-3.75 2.5-7.7 5.21-11.88 8.13v-5.63m5.63 68.75c1.67 1.67 4.58 6.67 8.75 15-5.42-3.33-8.33-8.33-8.75-15m16.88 46.25c1.66-.41 5.2-3.12 10.62-8.12.42-.42 1.04-.63 1.88-.63.83 0 .2 1.67-1.88 5-1.67 3.34-3.13 5-4.38 5l-2.5-.62a4.13 4.13 0 0 0-3.75-.63m-97.5 18.13a31.3 31.3 0 0 0 3.13-4.38 18.54 18.54 0 0 1 1.88-2.5c1.25-3.33 2.7-5 4.37-5 2.08 0 3.12-.2 3.13-.62 0 1.25-.84 2.7-2.5 4.37l-5 3.75-5 4.38m3.75 5.62 8.75-6.87c-1.25 4.58-4.17 6.88-8.75 6.87m-24.38 31.88 5.63-1.88 6.25-1.25 7.5-4.37c-3.34 5.83-7.92 8.75-13.75 8.75.41 0-1.46-.42-5.63-1.25m46.88 1.25c-2.09-1.25-2.71-2.3-1.88-3.13 0-1.25.83-3.33 2.5-6.25l1.25 5-1.88 1.88c-.83.83-.83 1.67 0 2.5m22.5-38.75c-1.66-1.67-2.5-2.92-2.5-3.75 0-1.67.21-2.5.63-2.5 2.92.83 3.75 1.88 2.5 3.12-.42.42-.63 1.46-.63 3.13m10.63 130.62c1.67-5 5-8.33 10-10a38.02 38.02 0 0 1-10 10m21.25-8.75 8.13-11.88c0 6.25-2.71 10.21-8.13 11.88m-1.25 23.75c3.33-4.58 6.04-6.88 8.13-6.88-.42 0 1.45.42 5.62 1.25a91.24 91.24 0 0 0-6.88 3.13c-2.08.83-4.37 1.67-6.87 2.5m-15.63 5.63c-4.16-2.09-6.45-5.63-6.87-10.63 3.33 3.33 5.62 6.88 6.88 10.63M460 511.03a40.9 40.9 0 0 1 4.37 3.74 47.02 47.02 0 0 1 5 4.38c-4.58-.83-7.7-3.54-9.38-8.13M231.88 299.15c2.92-1.66 5.63-2.5 8.13-2.5h.63a24.2 24.2 0 0 1 3.12-1.25c2.5-.41 4.37-.41 5.63 0-5.84 2.92-9.8 4.38-11.88 4.38-2.5 0-4.38-.2-5.63-.63m275-45c.42.84 1.25 0 2.5-2.5 1.25-2.91 1.88-4.16 1.88-3.75-1.25 3.76-2.5 8.13-3.75 13.13a6.81 6.81 0 0 0-1.25-2.5v-1.25c0-1.67.2-2.7.63-3.13m1.25-40c.41-2.08.62-3.74.62-5l.63-1.87.62 5c.83 2.92 1.67 7.5 2.5 13.75 0-1.25-.42-2.3-1.25-3.13-.83-.83-1.25-1.45-1.25-1.87l-1.88-6.88m37.5 20a8.72 8.72 0 0 1 3.75-.62c1.67 0 2.71-.2 3.13-.63-.42-.41-.83-.62-1.25-.62-.42 0-.83-.2-1.25-.63-1.67 0-2.7.21-3.13.63l-1.25.62c.84.84.84 1.25 0 1.25m-15 6.25-.62 1.25c-1.67 2.92-2.5 4.59-2.5 5 .83-.83 2.3-1.66 4.38-2.5.41-1.66 0-2.91-1.25-3.75m7.5-5.62 1.87 9.37a930.5 930.5 0 0 1 5 15.63l-1.25-1.88c-.42-1.66-1.46-3.95-3.13-6.87-2.5-5.42-3.75-7.92-3.75-7.5 0-2.5.42-5.42 1.25-8.75M192.5 391.66a114.5 114.5 0 0 1-1.87 8.75 38.64 38.64 0 0 1-3.13 10l-1.25 3.75c-.41 1.25-.83 2.7-1.25 4.37l-1.87 3.13-5.63 13.12 5.63-20 9.38-23.12m69.37-171.88c-.42 1.67-2.92 5.63-7.5 11.87a32.77 32.77 0 0 1-3.13 5c-1.25 1.67-2.7 3.55-4.37 5.63 2.92-9.17 7.92-16.67 15-22.5m79.38 92.5c0-.83-2.71 2.08-8.13 8.75 1.67-4.58 2.92-7.08 3.75-7.5 1.25-.42 2.7-.83 4.38-1.25m38.12 131.88a43.62 43.62 0 0 1-6.25-3.13 24.47 24.47 0 0 0-5.63-3.12l.63.62c.83 0 1.87.21 3.13.63 5.41.42 8.12 2.08 8.12 5m-38.13-34.38-6.25 1.25c-2.08 0-4.16.21-6.25.63 1.25 1.67 4.59 1.67 10 0 .42-.42.84-.63 1.25-.63l1.25-1.25m-3.12 12.5c-2.5 2.09-10 .84-22.5-3.75 6.25.84 13.75 2.09 22.5 3.75m37.5 29.38-4.38 12.5c0 7.92.21 12.3.63 13.12-1.67-2.91-2.5-7.7-2.5-14.37 0-.83 2.08-4.58 6.25-11.25m104.38-31.25c-2.08 0-1.67-.2 1.25-.63 3.33-.83 4.58-1.25 3.75-1.25l-20.63-3.12c-.41 0 1.88.83 6.88 2.5 5.42 1.67 8.33 2.5 8.75 2.5m-9.38 17.5c-5.83 2.5-11.04 3.75-15.62 3.75-2.08 0-4.8-1.04-8.13-3.13.84.42 4.59.63 11.25.63h6.25l6.25-1.25m-41.25 13.12c3.34 4.59 5 8.34 5 11.25 0 3.34-.83 8.13-2.5 14.38l.63-11.88c0-2.91-1.04-7.5-3.13-13.75m-27.5 45c-2.91-4.16-3.54-8.74-1.87-13.75.42-1.25.83-3.12 1.25-5.62.42-2.5.83-5.83 1.25-10v13.12c1.25 4.59 1.04 10-.63 16.25m-71.25-9.37c9.17.83 15.63.42 19.38-1.25-1.67 1.25-6.25 2.5-13.75 3.75l-5.63-2.5m-31.25-21.88c.42-1.25 1.05-2.7 1.88-4.37 3.33-4.58 5.2-8.75 5.63-12.5.41-.42.62-1.04.62-1.88-.83 12.09-3.54 18.34-8.13 18.75m5 11.25c2.92-2.91 5.84-4.37 8.75-4.37h1.25c-.83.42-2.29 1.04-4.37 1.87a21.28 21.28 0 0 0-5.63 2.5m-13.12-25c0-3.74-.2-6.45-.63-8.12a29.63 29.63 0 0 1-.62-6.88c0-9.58.2-13.75.63-12.5 2.08 8.34 3.12 13.34 3.12 15 0 3.76-.83 7.92-2.5 12.5m-13.75 25 2.5-3.75 7.5-13.12c.42-1.25 1.04-1.87 1.88-1.88.41 0 .62.21.62.63 0 6.25-4.17 12.3-12.5 18.12m18.75 84.38c1.25.42 2.3-1.25 3.13-5a27 27 0 0 0-.63-5v-7.5c0-2.5-.2-4.8-.63-6.88v-5c-2.5 19.17-3.12 28.96-1.87 29.38m-47.5-87.5c2.08.42 3.54 3.96 4.38 10.62 0 2.09 1.04 3.55 3.12 4.38-3.75-.42-5.63-2.08-5.63-5 0-.83.21-2.08.63-3.75.42-1.67.63-2.7.63-3.13 0-2.08-1.05-3.12-3.13-3.12m-3.13-1.88-28.12-6.25-13.75-5.62c7.5 1.25 15.2 2.7 23.13 4.37 7.91 1.67 14.16 4.17 18.75 7.5m-22.5 19.38c10 3.33 15.41 4.8 16.25 4.37-.42.42-.84.63-1.25.63-2.09.42-3.76.83-5 1.25h-2.5c-.42 0-1.46-.83-3.13-2.5a12.4 12.4 0 0 0-4.38-3.75m21.25 34.37 15.63-9.37 8.75-13.75-6.25 15.62-18.13 7.5m-28.12 3.13c9.17-2.08 14.58-2.92 16.25-2.5h7.5c-7.5 2.08-12.5 3.13-15 3.13h-3.75c-2.08 0-3.75-.21-5-.63m40 56.25c1.25.83 2.3 1.67 3.13 2.5l1.87 1.88c-.42-.42-.63.2-.63 1.87-.41-.42-1.87-.2-4.37.63 1.25-1.25 1.87-2.3 1.88-3.13 0-.42-.63-1.67-1.88-3.75m-6.88 6.25c.42 0 .63-2.08.63-6.25a4.78 4.78 0 0 1 1.88-.63l.62-.62a7.86 7.86 0 0 0 1.88 3.13c0 .83-1.67 2.29-5 4.37m-30-8.75-5-2.5a59.54 59.54 0 0 1-8.75-5.63l5 2.5a59.57 59.57 0 0 1 8.75 5.63m6.25-12.5a237.73 237.73 0 0 0-6.88-2.5c-.83-.83-1.46-2.3-1.88-4.38.84 1.25 3.75 3.55 8.75 6.88m79.38-248.12c7.5-3.33 10.42-7.08 8.75-11.25 0-.83-.2-1.25-.63-1.25l-2.5 5.62c-1.66 3.76-3.54 6.05-5.62 6.88m2.5 6.87c4.17 4.17 8.12 7.09 11.88 8.75l-5-1.25c-4.17 0-6.46-2.5-6.88-7.5m-101.88 35.63c.42.83.63 3.75.63 8.75 0 5.42-.21 8.75-.63 10-.42-2.08-.83-3.96-1.25-5.63a14242.06 14242.06 0 0 1 0-7.5c.42-1.66.83-3.54 1.25-5.62m-15-75 .63-7.5c0-1.67 2.08-2.5 6.25-2.5-.84.83-1.88 2.08-3.13 3.75-.83 1.25-2.08 3.33-3.75 6.25" transform="translate(-146.86 -119.79)"/>
</svg>
