<svg xmlns="http://www.w3.org/2000/svg" viewBox="0 0 500 500">
  <path class="letter" d="M 196.25 44.37 L 266.25 46.25 L 265 46.25 C 271.532 46.776 278.013 47.82 284.38 49.37 C 292.012 51.206 299.526 53.503 306.88 56.25 L 296.25 80 C 270 65 240.42 57.5 207.5 57.5 C 191.67 57.5 181.04 58.12 175.63 59.37 C 163.55 62.3 157.08 69.17 156.25 80 L 155 92.5 L 153.75 124.37 L 149.38 121.25 C 137.3 115.83 129.17 112.71 125 111.87 L 118.75 110.62 L 119.38 101.25 L 117.5 95 L 116.25 89.37 C 115 83.95 112.92 79.58 110 76.25 L 108.13 72.5 L 97.5 61.87 L 91.88 59.37 L 85.63 55.62 L 79.03 53.222 C 78.868 53.204 78.773 53.17 78.75 53.12 L 56.88 49.37 L 55.63 48.12 L 55.63 46.87 C 55.62 43.96 57.71 42.5 61.87 42.5 L 123.75 45.62 Z M 205.63 63.75 C 202.29 63.75 191.67 65.63 173.75 69.37 L 169.38 69.37 L 168.13 71.87 L 165.63 73.75 L 165 77.5 L 163.13 81.25 L 160.63 130.62 L 156.88 125 C 156.45 124.58 156.25 123.75 156.25 122.5 L 158.12 90 L 159.37 86.25 L 161.87 70.62 C 161.87 69.79 162.29 68.96 163.12 68.12 C 173.54 62.7 187.5 60 205 60 C 240.42 60 270.42 67.29 295 81.87 L 295 83.75 C 271.67 70.42 241.88 63.75 205.63 63.75 Z M 325 62.51 L 333.12 67.51 C 356.46 82.51 368.12 105.01 368.12 135.01 C 368.12 156.26 363.96 173.56 355.62 186.89 C 347.29 200.22 331.87 213.14 309.37 225.64 L 308.12 226.89 L 308.12 228.76 C 308.12 230.02 309.17 231.68 311.25 233.76 C 316.67 233.77 321.25 234.39 325 235.64 C 331.25 237.31 336.25 238.97 340 240.64 C 347.5 243.56 353.54 247.31 358.12 251.89 C 359.438 252.846 360.69 253.888 361.87 255.01 L 363.75 256.89 C 367.5 259.81 369.58 261.68 370 262.51 C 370.83 262.93 371.67 264.18 372.5 266.26 C 368.75 265.84 365.21 265.64 361.88 265.64 C 358.95 265.22 356.25 265.01 353.75 265.01 C 350 265.01 344.79 265.85 338.13 267.51 C 331.46 268.76 326.88 269.39 324.38 269.39 L 323.13 269.39 C 322.29 268.97 318.54 266.47 311.88 261.89 C 293.13 249.39 260 242.93 212.5 242.51 L 154.37 242.51 L 154.37 373.75 L 156.87 395.63 C 158.12 405.63 162.5 413.34 170 418.75 C 174.334 420.335 178.712 421.796 183.13 423.13 C 187.29 423.96 191.46 424.59 195.63 425 L 199.38 441.88 L 136.88 439.38 L 134.38 439.38 C 128.54 438.55 120.21 439.17 109.38 441.25 L 88.75 444.38 L 84.38 444.38 C 76.46 444.8 72.5 442.92 72.5 438.76 C 72.5 437.92 72.71 437.3 73.13 436.88 L 96.88 426.88 C 99.79 425.63 103.54 421.88 108.12 415.63 C 109.349 412.802 110.814 410.082 112.5 407.5 C 114.608 404.093 115.892 400.241 116.25 396.25 L 119.37 373.75 L 120 189.37 L 120 180 L 119.37 172.5 L 120 143.12 L 120 123.75 C 122.08 123.75 124.17 124.79 126.25 126.87 C 128.079 127.622 129.957 128.25 131.87 128.75 C 133.54 129.17 134.79 129.58 135.62 130 L 140.62 131.87 L 146.87 136.25 C 152.3 140 155 144.79 155 150.62 C 155 153.13 154.79 156.87 154.38 161.87 C 153.95 166.88 153.75 170.42 153.75 172.5 C 153.695 174.189 153.904 175.876 154.37 177.5 L 154.37 183.75 L 155 226.25 L 241.87 226.25 C 246.46 226.25 257.29 225 274.37 222.5 L 282.5 221.25 C 285.522 220.527 288.456 219.478 291.25 218.12 C 294.17 216.88 296.46 215.83 298.12 215 L 303.12 211.25 L 307.5 208.12 L 313.12 203.12 C 327.7 187.3 335 168.75 335 147.5 C 335 140.42 333.33 131.87 330 121.87 L 320 105 L 314.37 97.5 C 314.792 93.305 315.419 89.133 316.25 85 C 317.581 80.583 319.038 76.204 320.62 71.87 L 325 62.5 Z M 365 95.64 L 373.13 114.39 C 373.897 116.639 374.525 118.934 375.01 121.26 L 376.26 126.26 L 376.26 133.76 C 376.25 142.51 375.21 151.27 373.13 160.01 C 371.499 168.655 368.77 177.056 365.01 185.01 C 361.25 192.51 356.88 199.39 351.88 205.64 C 346.88 211.47 341.46 215.85 335.63 218.76 L 317.51 228.14 L 314.38 231.26 L 310.63 229.39 L 311.88 226.26 L 318.13 223.76 L 328.13 216.89 L 333.13 214.39 C 335.21 212.72 337.09 211.26 338.75 210.01 C 340.365 208.693 342.033 207.442 343.75 206.26 L 351.25 197.51 C 364.17 178.35 370.63 157.31 370.63 134.39 C 370.63 127.72 369.38 119.6 366.88 110.01 C 365.21 103.35 363.34 98.76 361.26 96.26 L 355.01 86.89 L 344.38 73.76 C 354.8 80.44 361.67 87.72 365 95.64 Z M 161.86 155.64 L 161.86 223.14 L 158.11 223.76 L 158.11 214.39 L 157.48 208.76 L 157.48 147.51 C 160.4 149.18 161.86 151.89 161.86 155.64 Z M 222.48 245 L 242.48 246.88 L 245.6 246.25 C 246.02 245.84 247.89 246.05 251.23 246.88 C 254.56 247.71 256.64 248.13 257.48 248.13 L 278.1 251.88 C 283.93 252.71 287.48 253.55 288.73 254.38 L 294.35 256.88 L 301.23 258.75 L 314.98 266.25 L 308.1 263.75 L 303.73 261.88 C 300.81 260.63 292.89 258.55 279.98 255.63 L 273.73 254.38 C 261.65 251.46 246.02 250 226.85 250 L 174.35 250 L 161.23 251.25 L 161.85 265.63 L 161.85 330.63 L 164.35 395.01 L 168.73 415.01 L 165.6 410.01 C 164.857 408.5 164.022 407.037 163.1 405.63 C 162.295 404.037 161.668 402.36 161.23 400.63 L 158.73 384.38 L 157.48 357.5 L 158.1 331.25 L 157.48 316.88 L 158.1 298.13 L 157.48 251.25 L 158.1 246.88 L 170.6 245 Z M 364.96 280.63 C 368.587 280.606 372.189 281.24 375.59 282.5 L 376.84 282.5 C 382.26 282.09 386.63 287.09 389.96 297.5 C 393.71 307.93 395.59 320.63 395.59 335.63 C 395.59 364.38 382.67 388.75 356.84 408.75 C 331.42 428.75 299.13 439.38 259.97 440.63 L 258.09 429.38 L 258.09 427.51 C 258.09 426.26 259.76 425.63 263.09 425.63 L 265.59 425.63 C 291.42 425.63 314.97 416.25 336.22 397.5 L 347.47 381.88 C 348.72 379.38 349.97 377.09 351.22 375 C 352.33 373.166 353.371 371.292 354.34 369.38 L 355.59 363.13 L 357.47 355.63 C 357.89 353.55 358.09 351.67 358.09 350 C 358.51 347.92 358.72 345.84 358.72 343.75 L 358.09 333.13 C 358.09 318.13 353.09 303.34 343.09 288.75 L 340.59 286.25 L 336.84 281.88 L 347.47 281.25 L 348.72 281.25 L 352.47 280.63 Z M 403.72 333.13 C 403.72 361.05 391.64 386.46 367.47 409.38 C 344.14 431.88 317.05 444.17 286.22 446.25 L 270.6 446.88 L 263.1 446.88 C 262.26 446.88 261.64 445.63 261.22 443.13 L 269.97 443.13 L 296.22 439.38 L 307.47 436.26 C 307.89 435.84 309.76 435.21 313.1 434.38 C 316.49 433.531 319.829 432.489 323.1 431.26 C 330.18 428.34 334.35 426.88 335.6 426.88 L 343.72 421.88 L 348.72 419.38 C 350.883 417.541 353.183 415.869 355.6 414.38 C 357.68 412.71 359.55 411.26 361.22 410.01 L 368.09 403.13 L 373.72 396.88 L 376.84 393.13 L 381.22 387.5 L 383.72 381.88 C 393.72 367.71 398.72 350.21 398.72 329.38 C 398.72 319.8 396.01 307.71 390.6 293.13 L 387.47 285 C 398.3 288.33 403.72 304.38 403.72 333.13 Z M 136.23 442.5 L 201.23 446.88 L 171.23 447.5 C 167.06 447.5 161.44 447.71 154.36 448.13 C 147.27 448.13 138.52 448.34 128.11 448.75 C 118.93 449.17 110.81 449.59 103.73 450 L 84.98 450 C 80.81 450 76.44 448.34 71.86 445 C 76.44 446.67 81.44 447.5 86.86 447.5 C 94.77 447.5 105.4 446.25 118.73 443.75 C 127.48 442.5 133.31 442.09 136.23 442.5 Z M 110 83.75 C 97.92 71.67 82.71 61.67 64.37 53.75 C 87.7 56.25 102.92 66.25 110 83.75 Z"></path>
  <path d="M146.86 619.79v-500h500v500h-500m7.5-7.5h485v-485h-485v485m7.5-7.5V135.41h469.38v469.38H161.86m434.38-460-1.88 3.12h.63l-1.25 5.63 1.88 3.75v1.25c0 1.25-.84 1.88-2.5 1.87l-5-1.25 1.25.63h-1.25v5l3.75 6.25 3.12 2.5 5.63 7.5 7.5 11.25 3.12 5 2.5 3.12 1.88 5 2.5 6.88 1.87 13.75 1.25 4.37-1.88 18.75.63 6.25c-.83 3.34-2.08 5-3.75 5-1.25-.41-1.88-1.25-1.88-2.5v-1.25c.42-1.25.84-2.91 1.25-5l.63-2.5a45 45 0 0 0-3.13-16.25c-3.75-9.58-7.7-15.2-11.87-16.87l-4.38-1.88-6.25-3.75-.62 1.25 1.88 7.5h-3.75l-3.75-6.87-10.63-2.5-6.25-6.88c-2.5 2.09-4.38 5.21-5.63 9.38 1.67 11.25 6.67 19.17 15 23.75v2.5l-6.87-.63c.83 7.09 2.5 11.67 5 13.75 5.83 3.34 11.88 7.92 18.13 13.75 6.24 5.42 9.37 13.55 9.37 24.38 0 2.5-1.25 7.7-3.75 15.62l-4.38 3.13c-.83-3.33-1.25-4.37-1.25-3.13.42-1.25 1.46-2.91 3.13-5 2.08-2.5 3.12-6.04 3.13-10.62l-.63-1.88 1.88-1.25c-2.5-6.66-5.63-11.87-9.38-15.62v6.87l-1.88.63c-2.5-5.42-4.79-8.54-6.87-9.38l-6.25-.62-5-3.13-1.25 10.63 1.88 4.37a18.15 18.15 0 0 0 6.87 6.88l-.63 3.12-2.5-.62h1.25l-6.25-2.5-1.87.62c0 6.26.63 11.46 1.88 15.63 2.08 10.42 3.12 16.04 3.12 16.87 0 3.34-1.88 7.3-5.63 11.88-3.75 4.58-7.08 7.5-10 8.75l-29.37 13.12-3.75 2.5h8.13l14.37-6.87 5.63-1.25a7.23 7.23 0 0 1 1.87-1.25c.83-.83 2.08-1.87 3.75-3.13l10-8.75c1.25-.83 2.5-2.7 3.75-5.62 1.67-3.33 2.92-5 3.75-5h1.88l-10 15.62c9.58-5.41 15.41-16.45 17.5-33.12l.62-1.25c2.08 0 3.12.62 3.13 1.87 0 4.59-2.92 12.3-8.75 23.13a9.8 9.8 0 0 1 2.5-1.88 9.8 9.8 0 0 0 1.87-2.5c1.67-2.08 2.7-3.74 3.13-5a18.55 18.55 0 0 1 1.87-2.5l.63-.62c.83 0 1.25.42 1.25 1.25 0-.42-.42 1.04-1.25 4.37 5.41-4.16 9.16-8.95 11.25-14.37l6.25-13.13.62-10 .63-10c.41-4.58-.63-8.95-3.13-13.12-2.08-4.17-3.13-6.67-3.13-7.5.42-1.25 1.05-1.87 1.88-1.88 1.67 0 3.12 2.3 4.38 6.88l2.5 8.75.62 13.12-1.88 12.5-3.75 11.25 3.75-5.62 1.88-5.63 3.13-7.5-.63-1.25c-.42-1.25-.63-3.12-.63-5.62 0-2.92.63-4.37 1.88-4.38 1.25 0 1.87.84 1.88 2.5v1.88l-.63 2.5c5.42-11.25 8.12-25 8.13-41.25 0-23.75-2.71-41.67-8.13-53.75-4.58-10.83-7.7-19.8-9.38-26.88-.83-3.33-1.25-5.41-1.25-6.25 0-1.25 1.05-3.54 3.13-6.87l8.75-1.25v.62c0 3.34-2.08 6.26-6.25 8.75v1.25c-.83 3.34-1.25 4.8-1.25 4.38 0 2.08.2 3.54.63 4.37l1.25 3.13 1.25 2.5 7.5 1.87.62-1.87c-2.5-2.92-3.75-4.8-3.75-5.63v-1.25l.63-.62 2.5-4.38 1.87-5 1.88-.62h-2.5l1.87-5v-.63c0-1.66-.83-2.7-2.5-3.12l2.5-.63h-1.88c-4.16-5.41-8.95-8.12-14.37-8.12-5.83 0-10 2.5-12.5 7.5m-196.88 6.87c-.42 4.17-3.13 6.26-8.13 6.25-8.75 0-13.54-1.66-14.37-5 3.75 1.25 6.67 1.88 8.75 1.88 5 0 7.5-2.08 7.5-6.25 0-.83-.63-1.67-1.88-2.5-2.08 3.33-3.54 5-4.37 5-1.25 0-3.33-.63-6.25-1.88-2.08-4.58-4.58-6.87-7.5-6.87-2.5 0-3.96 1.88-4.38 5.62.84 7.09 5 10.84 12.5 11.25l15 1.25c5 .42 7.71-.83 8.13-3.75l.63-1.25-1.25-8.75c-.84-3.74.62-5.62 4.37-5.62 1.67 0 4.58 1.46 8.75 4.37 1.25 4.17 2.92 6.26 5 6.25.83-.83 1.25-1.45 1.25-1.87 0-2.08-.2-3.54-.63-4.38l-2.5-3.12-6.87-3.13-8.75-.62c-5.42.42-8.13 1.88-8.13 4.37 0-.41 1.05 2.5 3.13 8.75m-98.13-13.12-5 2.5-7.5 12.5a5.94 5.94 0 0 1-5 2.5h-.62c-2.5 0-3.75-.63-3.75-1.88v-10.62c0-2.92-3.54-4.37-10.63-4.38-12.5 0-18.33 5.42-17.5 16.25v3.75h3.13c1.67-11.66 6.04-17.5 13.13-17.5.83 0 2.91 1.05 6.25 3.13l.62 2.5-1.25 5c0 5.42 2.92 8.13 8.75 8.12 2.92 0 5-.83 6.25-2.5l11.25-14.37c.42-1.67 2.08-2.5 5-2.5 2.08 0 4.37 1.25 6.88 3.75l-1.25 4.37 1.87 3.13c.42.42.63.83.63 1.25 0 .42-1.05 2.3-3.13 5.62.42.42 1.46.63 3.13.63 2.91 0 4.37-1.67 4.37-5v-.63l-1.88-3.75v-3.12l5.63 2.5h1.25c2.5 0 4.17-1.67 5-5v-1.25l-5.63.62-3.75-3.12-1.25 1.25h-2.5c-2.91-2.92-5.83-4.37-8.75-4.38l-3.75.63m220.63 1.25-33.13 8.12-10.63 6.88-5 3.12c-7.08 4.59-13.75 13.13-20 25.63-5.41 12.5-8.54 24.17-9.37 35l6.88-1.88-1.88 7.5c-3.33 4.59-5 7.71-5 9.38 0 2.92 2.7 4.58 8.13 5l-.63 5.62 6.88 3.75c-3.76-10.41-5.63-18.95-5.63-25.62 0-20.83 7.7-38.96 23.13-54.38 15.41-15.83 32.7-23.54 51.87-23.12h4.38l6.87.62c9.58 0 19.17 2.09 28.75 6.25l6.88 3.13 10.62 6.25 2.5-5.63a14.6 14.6 0 0 0-3.75-2.5 16.7 16.7 0 0 0-4.38-3.12l-20.62-7.5c-7.08-3.33-14.8-4.58-23.13-3.75h-3.75l-10 1.25m-315-.63c-9.58 2.09-17.91 7.09-25 15-7.08 7.5-10.62 15.63-10.62 24.38 0 10 5.2 15 15.63 15 .41 0 2.29-.42 5.62-1.25l16.88-5h1.87c7.5 0 11.25 2.92 11.25 8.75 0 3.75-1.88 7.7-5.62 11.87-3.34 3.76-6.88 5.63-10.63 5.63-2.5 0-4.17-1.04-5-3.13l-3.12-11.87c0-1.25-.84-1.87-2.5-1.88l-8.13 3.13 6.25 3.12 5 12.5c.42 1.67 2.5 2.5 6.25 2.5 5 0 9.58-2.29 13.75-6.87s6.25-9.8 6.25-15.63c0-8.74-4.17-13.12-12.5-13.12-1.25 0-2.08.2-2.5.62l-20.62 6.25h-1.88c-7.08 0-10.62-4.37-10.62-13.12s3.95-16.46 11.87-23.13c7.92-7.08 16.88-10.62 26.88-10.62 12.5 0 21.45 4.58 26.87 13.75.83 2.08 1.87 3.13 3.13 3.12l2.5-.62c-5.84-13.33-15.84-19.8-30-19.38h-11.25m234.38.63h-.63c-3.33-.83-5 .2-5 3.12 0 4.17 1.87 6.26 5.63 6.25 3.74 0 5.62-1.66 5.62-5 0-2.91-1.88-4.37-5.63-4.37m146.25.62-4.37 1.88.63 6.25 6.87 6.25c-2.08-5.42-3.13-9.58-3.13-12.5v-1.88m-418.12.63c-2.5 2.5-3.75 4.8-3.75 6.87 0 3.34 2.71 5 8.13 5a6 6 0 0 0 4.38-1.87c1.66-1.67 2.7-2.5 3.12-2.5 2.5-.42 3.75-1.04 3.75-1.88l-.63-1.25c-3.75 2.5-6.66 3.76-8.75 3.75.42 0-1.04-.41-4.37-1.25l-1.88-6.87m281.88 5.62 5 3.13c1.25 0 2.71-1.46 4.38-4.38-2.08-3.33-3.96-5-5.63-5-2.5 0-3.75 1.05-3.75 3.13v3.12m-21.87-2.5c-1.67 0-2.5 1.05-2.5 3.13 0 2.92 1.25 4.38 3.75 4.37 2.5 0 3.75-1.25 3.75-3.75 0-2.91-1.46-4.16-4.38-3.75h-.62m-231.88 24.38c-3.33-2.08-5-3.96-5-5.63 0-1.25.63-2.5 1.88-3.75 5-7.5 12.5-11.25 22.5-11.25 6.66 0 11.45 1.46 14.37 4.38l6.25 4.37.63-.62c-5.84-7.08-12.71-10.63-20.63-10.63-20.42 0-30.63 6.67-30.63 20 0 4.59 1.67 6.88 5 6.88 1.67 0 3.55-1.25 5.63-3.75m334.38-21.88-29.38 8.75-1.25 3.13-1.87.62-.63 2.5-2.5 3.75-2.5 7.5h7.5l-1.25 2.5-.62 1.88c-.42.83-.83 2.5-1.25 5-.42 2.08-1.04 4.8-1.88 8.12l1.88-.62c3.33 7.08 8.12 10.62 14.38 10.62 3.33 0 6.45-.83 9.37-2.5l-2.5-5 7.5-.62c2.08-.83 3.12-2.7 3.13-5.63 0-.41-.21-1.25-.63-2.5 0-1.25-.2-2.91-.63-5-.41.42-2.29 1.88-5.62 4.38h-2.5c-8.33.83-12.5-3.54-12.5-13.13 0-4.16 2.3-7.91 6.88-11.25 6.66-5.41 14.79-8.12 24.37-8.12 2.08 0 4.8.42 8.13 1.25l12.5 2.5 5.62-.63c0-2.08-3.96-3.74-11.88-5l-16.25-1.87-5.62-.63m-189.38 3.13c-1.67.42-2.5 1.25-2.5 2.5 0 1.67 1.04 2.5 3.13 2.5 1.66 0 2.5-.83 2.5-2.5l-.63-.63-2.5-1.87m-8.75 1.25c-1.67 1.25-2.5 2.5-2.5 3.75 0 2.08 1.04 3.13 3.13 3.12 1.66 0 2.5-.83 2.5-2.5v-1.25l-3.13-3.12m-9.38 1.25c-1.25 0-2.08.62-2.5 1.87l-.62 1.25c0 2.09 1.25 3.13 3.75 3.13 2.08 0 3.12-1.25 3.13-3.75 0-1.67-1.25-2.5-3.75-2.5m151.25 0c-5 1.25-9.17 1.88-12.5 1.87h-5.63c-2.5 0-4.38-.2-5.63-.62l-5-1.25c.84 2.92 1.46 4.58 1.88 5l5.63 1.25 5 .62 1.87-1.25 8.13-1.25 6.25-4.37m-37.5 0c-2.92 0-4.38 1.46-4.38 4.37 0 2.5 1.25 3.76 3.75 3.75 2.92 0 4.37-1.66 4.38-5 0-2.08-1.25-3.12-3.75-3.12m-12.5 2.5c-2.09 0-3.34 1.25-3.75 3.75 0 2.92 1.45 4.38 4.37 4.37 2.92 0 4.37-1.25 4.38-3.75-.42-2.91-2.09-4.37-5-4.37m60 7.5c-4.17 2.92-6.05 5.83-5.63 8.75v5.62l.63 1.25 5 .63-.63-9.38 8.75-12.5-4.38 1.88-3.75 3.75m74.38 0 2.5 2.5.63 2.5a29.06 29.06 0 0 0-5.63-.63 18.42 18.42 0 0 0-4.38-.62c-2.91 0-4.79.2-5.62.62l-5 2.5-3.13 4.38-2.5 1.25-3.12 4.37a7.77 7.77 0 0 0 5.63 2.5c2.5 0 4.16-.2 5-.62v1.87-.62l-5 5.62c-1.25 2.5-1.88 4.38-1.88 5.63v3.12c2.92 7.92 7.5 11.88 13.75 11.88 3.75 0 6.04-1.25 6.88-3.75-4.59-3.33-6.88-6.25-6.88-8.75 0-9.17 6.46-13.75 19.38-13.75 11.25 0 22.08 6.46 32.5 19.37l1.25 1.88 3.75 6.25 5.62 14.37 3.13 9.38c.41-1.25.62-3.33.62-6.25 0-11.25-2.5-19.8-7.5-25.63l-5-6.87 1.25-1.88a32.7 32.7 0 0 1-5-3.12 40.91 40.91 0 0 0-4.38-3.75c.42-.42 1.46-1.04 3.13-1.88a17.05 17.05 0 0 0-7.5-4.37 11.39 11.39 0 0 0-6.25-8.13l1.25-1.25c-1.67-9.16-8.96-13.75-21.88-13.75-4.58 0-6.87.63-6.87 1.88v1.25c.42.42.83 1.25 1.25 2.5m-114.38-1.25c-2.08 0-3.13.83-3.13 2.5 0 2.92 1.46 4.38 4.38 4.37 2.92 0 4.37-1.04 4.38-3.12v-1.25l-5.63-2.5m-201.25 20.62 10.63 10.63 1.87 3.75c2.92 3.33 5 7.7 6.25 13.12l1.25 5.63 1.88 6.25-.63 9.37 6.25 1.25c4.17.84 12.3 3.96 24.38 9.38l4.37 3.12 1.25-31.87 1.25-12.5c.83-10.83 7.3-17.7 19.38-20.63 5.41-1.25 16.04-1.87 31.87-1.87 32.92 0 62.5 7.5 88.75 22.5l10.63-23.75a193.97 193.97 0 0 0-22.5-6.88 124 124 0 0 0-19.38-3.12h1.25l-70-1.88-72.5 1.25-61.88-3.12c-4.16 0-6.25 1.46-6.24 4.37v1.25l1.25 1.25 21.87 3.75 6.88 2.5 6.25 3.75 5.62 2.5m-33.13-8.12c18.34 7.92 33.55 17.92 45.63 30-7.08-17.5-22.3-27.5-45.63-30m251.26 15.62-2.5 6.25-2.5 6.25-1.88 13.13c-.42 1.25-.63 3.54-.63 6.87v6.25c0 2.09.42 3.55 1.25 4.38l1.25.62 2.5 5c.84 2.09 2.3 3.13 4.38 3.13 1.25 0 2.5-1.46 3.75-4.38-7.08-8.33-10.63-14.79-10.63-19.37 0-9.17 1.88-17.5 5.63-25l6.88-15.63-7.5 12.5m-20.63 14.38v-1.88c-24.58-14.58-54.58-21.87-90-21.87-17.5 0-31.46 2.7-41.88 8.12-.83.84-1.25 1.67-1.25 2.5l-2.5 15.63-1.25 3.75-1.87 32.5c0 1.25.2 2.08.63 2.5l3.75 5.62 2.5-49.37 1.87-3.75.63-3.75 2.5-1.88 1.25-2.5h4.37c17.92-3.74 28.54-5.62 31.88-5.62 36.25 0 66.04 6.67 89.37 20m30-21.25-4.38 9.37a241.68 241.68 0 0 0-4.37 13.13 128.7 128.7 0 0 0-1.88 12.5l5.63 7.5 10 16.87c3.33 10 5 18.55 5 25.63 0 21.25-7.3 39.8-21.88 55.62l-5.62 5-4.38 3.13-5 3.75c-1.66.83-3.95 1.88-6.87 3.12a42.79 42.79 0 0 1-8.75 3.13l-8.13 1.25c-17.08 2.5-27.91 3.75-32.5 3.75h-86.87l-.63-42.5v-6.25a16.24 16.24 0 0 1-.62-5c0-2.08.2-5.62.63-10.63.41-5 .62-8.74.62-11.25 0-5.83-2.7-10.62-8.13-14.37l-6.25-4.38-5-1.87c-.83-.42-2.08-.83-3.75-1.25a43.96 43.96 0 0 1-5.62-1.88c-2.08-2.08-4.17-3.12-6.25-3.12v19.37l-.63 29.38.63 7.5v9.37l-.63 184.38-3.12 22.5a25.76 25.76 0 0 1-3.75 11.25 54.9 54.9 0 0 0-4.38 8.13c-4.58 6.25-8.33 10-11.24 11.25l-23.75 10c-.42.42-.63 1.04-.63 1.88 0 4.16 3.96 6.04 11.88 5.62h4.37l20.63-3.13c10.83-2.08 19.16-2.7 25-1.87h2.5l62.5 2.5-3.75-16.88c-4.17-.41-8.34-1.04-12.5-1.87a241.8 241.8 0 0 1-13.13-4.38c-7.5-5.41-11.88-13.12-13.13-23.12l-2.5-21.88V362.3h58.13c47.5.42 80.63 6.88 99.38 19.38 6.66 4.58 10.41 7.08 11.25 7.5h1.25c2.5 0 7.08-.63 13.75-1.88 6.66-1.66 11.87-2.5 15.62-2.5 2.5 0 5.2.21 8.13.63 3.33 0 6.87.2 10.62.62-.83-2.08-1.67-3.33-2.5-3.75-.42-.83-2.5-2.7-6.25-5.62l-1.88-1.88a36.82 36.82 0 0 0-3.75-3.12c-4.58-4.58-10.62-8.33-18.12-11.25-3.75-1.67-8.75-3.33-15-5-3.75-1.25-8.33-1.87-13.75-1.88-2.08-2.08-3.13-3.74-3.13-5v-1.87l1.25-1.25c22.5-12.5 37.92-25.42 46.25-38.75 8.34-13.33 12.5-30.63 12.5-51.88 0-30-11.66-52.5-35-67.5l-8.12-5m-107.5 10-1.25 6.88.63 8.12 3.12 4.38a32.2 32.2 0 0 0 6.88 6.25l-5.63-15 .63-.63 6.87 9.38v-5c.83-4.58-2.92-9.37-11.25-14.38m126.88 1.25 10.63 13.13 6.25 9.37c2.08 2.5 3.95 7.09 5.62 13.75 2.5 9.59 3.75 17.71 3.75 24.38 0 22.92-6.46 43.96-19.38 63.12l-7.5 8.75a77.02 77.02 0 0 0-5 3.75c-1.66 1.25-3.54 2.71-5.62 4.38l-5 2.5-10 6.87-6.25 2.5-1.25 3.13 3.75 1.87 3.13-3.12 18.12-9.38c5.83-2.91 11.25-7.29 16.25-13.12 5-6.25 9.37-13.13 13.13-20.63a103.33 103.33 0 0 0 8.12-25c2.08-8.74 3.12-17.5 3.13-26.25v-7.5l-1.25-5a58.02 58.02 0 0 0-1.88-6.87l-8.13-18.75c-3.33-7.92-10.2-15.2-20.62-21.88M376.86 229.8c2.5-7.91 3.96-11.87 4.38-11.87 1.25 0 1.87.62 1.87 1.87s-.63 2.71-1.88 4.38l3.75.62c.84-3.33 2.09-5 3.75-5l-.62 5.63 1.88.62 3.12-6.25c.42-.41.83-.62 1.25-.62 1.25 0 1.87.62 1.88 1.87v.63l-3.13 6.25 2.5 1.25 1.88-4.38 5-8.75c1.66-2.91 3.12-5 4.37-6.25h2.5l-4.38 26.25 3.75-5 1.25-6.25c.42-.41.84-.62 1.25-.62l.63-.63c1.25 0 1.87.84 1.88 2.5 0 1.25-.63 2.92-1.88 5-1.25 1.67-1.88 2.92-1.88 3.75 0 1.25.63 2.09 1.88 2.5l.63 8.13c10.41-6.67 15.62-16.46 15.62-29.38 0-2.08-.63-3.12-1.88-3.12-2.91 0-5.2 1.88-6.87 5.62l-2.5-.62c1.67-5.42 2.5-9.17 2.5-11.25 0-6.25-1.46-9.58-4.38-10l-3.75-.63-9.37 4.38-10 3.12c-.83.84-1.25 1.46-1.25 1.88l-.63.62-1.87 6.88-5.63-4.38c-2.08 0-4.16 2.92-6.25 8.75-.41 1.25-.62 3.55-.62 6.88 0-.42.42 1.46 1.25 5.62m-148.75-24.37h1.25c5 0 7.5 1.25 7.5 3.75v.62c-.42 2.92-2.5 6.46-6.25 10.63-5.42 6.67-9.17 10.83-11.25 12.5-2.08 1.25-3.13 2.92-3.13 5l5-4.38 3.76-2.5 5-5.62 6.87-6.88c2.5-2.91 3.75-6.04 3.75-9.37 0-6.67-2.7-10-8.13-10-2.5 0-3.95 2.08-4.37 6.25m20-3.75-2.5 6.25-2.5 6.25-16.88 19.37 3.76-1.25a9.75 9.75 0 0 0 2.5-1.87l2.5-2.5c10.83-14.58 16.25-21.46 16.25-20.63v-1.87l-3.13-3.75m-72.5 3.12c-7.08 4.59-10.63 9.17-10.63 13.75 0 4.17.63 6.88 1.88 8.13l8.13 8.75 2.5 5.62c1.66-2.91 2.5-5.41 2.5-7.5v-1.25a36.6 36.6 0 0 0-3.75-3.12 389.05 389.05 0 0 0-6.88-5c-.42-.42-.63-1.04-.63-1.88 0-5 2.09-7.5 6.26-7.5 1.66 0 3.95.84 6.87 2.5 3.33 5.42 4.8 9.59 4.38 12.5v4.38a46.52 46.52 0 0 1-7.5 18.12l-5 7.5c-3.34 5-5.21 10.21-5.63 15.63-.42.42-.63 2.3-.63 5.62.42 15 5.42 22.5 15 22.5 3.34 0 6.67-.83 10-2.5 13.34-17.08 24.59-25.62 33.76-25.62 6.24 0 9.37 2.5 9.37 7.5l-.63.62-5 5.63 5 1.25h.63c5 0 7.5-3.33 7.5-10 0-3.33-1.46-6.25-4.38-8.75-4.58-3.75-8.33-5.62-11.24-5.63h-3.13c-2.08 0-3.75.21-5 .63 1.67-1.67 2.5-3.33 2.5-5 0-1.25-.63-1.87-1.88-1.88l-3.12.63-10 1.25-4.38 3.75-3.74 3.75-4.38 6.25-2.5 6.25-3.75 6.87c-1.25 2.5-2.7 3.76-4.38 3.75-3.33 0-5-2.08-5-6.25 0-.41.21-.83.63-1.25 15-11.25 22.5-22.5 22.5-33.75 0-2.5-.2-3.95-.63-4.37l-1.87-5-4.38 6.25-1.24.62c-1.67 0-2.5-.62-2.5-1.87 0-1.67 1.25-4.17 3.75-7.5 1.25-1.67 1.87-5 1.87-10 0-14.58-7.08-22.7-21.25-24.38m170 1.88-.63 3.12v1.25c.42.84.84 2.3 1.25 4.38a29.05 29.05 0 0 0-5.62-.63 18.42 18.42 0 0 0-4.38-.62c-.41 0-2.29.42-5.62 1.25l-8.13 3.12-5.62-1.25c-1.25 4.59-1.88 7.92-1.88 10v3.13c.42 1.25.84 2.92 1.25 5l2.5 3.75c1.67 2.08 4.59 4.17 8.75 6.25v1.87c-6.66.42-10 1.67-10 3.75 0 .84.84 2.09 2.5 3.75 2.09 1.25 3.75 2.3 5 3.13l1.25.62 3.75-.62-.62 1.87c1.67.42 3.75.63 6.25.63h8.75l6.25-1.25c-1.25-2.5-2.7-3.75-4.38-3.75-2.5 0-4.16.2-5 .62l-1.25-1.87.63-1.25h6.25l3.75.62c.42 0 1.67-1.04 3.75-3.12l-10.63-3.75h2.5c1.67 0 3.96.42 6.88 1.25 3.33.83 5.62 1.25 6.88 1.25v-1.25l-26.88-13.75 1.25-.63 6.88.63 10-.63c2.91 0 6.87.84 11.87 2.5l-.63-3.12-6.25-3.75c.42-1.25.84-1.87 1.25-1.88l2.5.63c1.67 2.5 3.34 3.96 5 4.37 1.25 0 1.88-.62 1.88-1.87 0-1.67-1.67-3.75-5-6.25v-1.88h3.13l3.75 5 5 3.13c-4.59-14.17-9.8-21.46-15.63-21.88l-9.38-.62-3.12-1.25m206.25 19.37h-2.5l-5-5.62-10-3.13-4.38-2.5c-2.91 0-4.37 3.34-4.37 10 0 10.42 5.62 17.09 16.88 20v3.75l-6.88-1.87h5c-6.25.83-9.38 2.08-9.38 3.75v2.5c.42.83.84 2.08 1.25 3.75l.63 2.5 2.5 4.37c2.92 2.92 4.37 5.84 4.38 8.75 0 4.17-3.76 9.38-11.25 15.63 12.5-4.58 18.33-10.42 17.5-17.5v-.63l-1.25-9.37 2.5 1.25c.41.42.62 1.88.62 4.37 0 5.84-1.46 10.84-4.38 15 6.25-1.66 9.38-8.33 9.38-20 0-4.16-1.25-10-3.75-17.5l2.5-.62c1.25 0 2.08 2.08 2.5 6.25l1.88 8.75v2.5c0 2.92-1.25 7.7-3.75 14.37 5-4.16 7.5-10 7.5-17.5 0-3.74-.63-8.12-1.88-13.12h2.5l1.88 13.12 1.25 1.25a40.02 40.02 0 0 0 2.5-13.75c0-2.91-.21-4.58-.63-5l-6.25-19.37-1.25-6.25c-.83-.83-1.67-1.25-2.5-1.25-3.33 0-4.58 3.54-3.75 10.62v2.5m-299.38-8.12c.42.83.63 2.08.63 3.75 0 2.5-2.09 4.58-6.25 6.25h3.75c6.24 0 9.37-2.3 9.37-6.88 0-2.91-1.46-4.37-4.38-4.37l-1.24.62-1.88.63m151.88 0c-4.17 7.92-6.25 12.3-6.25 13.12 0 1.67.63 3.96 1.88 6.88 3.33-6.67 4.79-11.67 4.37-15v-5m22.5 16.25a22.75 22.75 0 0 1 10-7.5l.63 1.87a17.04 17.04 0 0 0-9.38 10c10.42-2.91 16.67-9.16 18.75-18.75l-1.25.63a65.5 65.5 0 0 0-10.63 3.75c-3.75 1.25-6.45 4.58-8.12 10m-221.88-9.38c3.33 3.34 5 5.21 5 5.63v2.5l-.62.62c-3.34 4.59-4.8 7.09-4.38 7.5l1.88 2.5.62-1.87 5.63-5.63c1.25-1.25 1.87-3.54 1.87-6.87 0-4.17-1.88-6.25-5.62-6.25-.84 0-1.46.2-1.88.62l-2.5 1.25m178.12 2.5-3.13 3.75c-1.66 1.67-3.12 2.5-4.37 2.5-1.67 0-3.75-.62-6.25-1.87-1.67 1.67-2.5 4.17-2.5 7.5 0 5.83 4.37 10 13.13 12.5l-.63-6.88c2.5 5 4.8 7.5 6.88 7.5.83 0 1.25-.62 1.25-1.87l-2.5-8.75h2.5l.62 2.5c.42 1.25 1.04 3.54 1.88 6.87l1.25-.62-.63-11.25 2.5.62 1.88 5.63.62-1.88.63-5-2.5-5-3.75-4.37-5-1.25-1.88-.63m-176.88 28.13 6.25-2.5 15-8.75c7.92-3.33 15.63-5 23.13-5 18.33 0 32.91 4.38 43.75 13.12l5 4.38 6.25 6.25 2.5 3.75 2.5 3.75c2.91-2.5 4.37-4.37 4.37-5.63v-2.5c-16.25-20-37.5-30-63.75-30-7.5 0-14.37 1.05-20.62 3.13l-8.75 4.37-7.5 3.13c-5.42 1.67-8.13 5-8.13 10v2.5m140-19.38c.83.84 2.7 2.3 5.63 4.38 2.91 1.67 7.08 4.17 12.5 7.5l-1.25-4.38v-3.12c.41-2.5-5.21-3.96-16.88-4.38m87.5 3.75c-7.08 2.09-12.92 4.8-17.5 8.13v1.25h7.5c0 1.67.2 2.5.63 2.5l-1.88 6.87 3.75-1.87.63 1.87h3.12c2.92 1.25 8.54 2.3 16.88 3.13l.62 1.87c-8.75 4.59-15.42 6.67-20 6.25h-5.63l3.13 4.38 1.25 5c0 1.25-2.3 2.3-6.88 3.12v1.88c5.84 2.92 11.05 4.38 15.63 4.37 5.42 0 10.83-1.45 16.25-4.37.83-.83 1.25-1.67 1.25-2.5 0-2.08-1.67-4.17-5-6.25l.63-2.5c2.91 1.25 5.2 1.88 6.87 1.87 7.5 0 13.75-4.79 18.75-14.37l-9.38-2.5-4.37-4.38c-2.08-3.74-4.17-5.83-6.25-6.25h-2.5l-6.25.63 3.75-7.5h-1.88l-5-1.25h-3.12l-3.13-.63-1.87 1.25m-26.25 0c-6.67 1.67-10 5.63-10 11.88 0 .83.2 1.46.63 1.87.83-3.33 2.29-5 4.37-5 .83 0 1.25.63 1.25 1.88l-4.38 5v1.25l1.26 1.25 4.37-5h2.5l-5 8.75h1.25c1.67-2.92 3.54-4.37 5.63-4.38.83 0 1.45.21 1.87.63l-5 4.37 2.5.63c8.33 0 12.5-3.96 12.5-11.88l-10-1.25-3.75-10m-193.12 14.38-1.25 1.87 6.25-2.5 11.25-4.37c3.33-.83 5.42-1.25 6.25-1.25 5 0 9.58 1.46 13.75 4.37 4.17 2.92 6.25 6.05 6.25 9.38 0 5-2.3 7.5-6.88 7.5-3.33 0-5.41-.2-6.24-.63.41 2.92 2.7 4.38 6.87 4.38 7.92 0 11.88-4.58 11.88-13.75 0-9.58-6.46-14.38-19.38-14.38-7.5 0-17.08 3.13-28.75 9.38m140.62 6.25.63 5.62-3.75 7.5c0 2.09 2.5 3.13 7.5 3.13 4.16 0 7.91-1.67 11.25-5l-6.25 1.25.62-1.88c4.17-.41 6.25-1.87 6.25-4.37-.83-.83-2.7-1.25-5.63-1.25l-1.87-1.25 10.63-5-10 1.87 1.25-2.5c3.74-.41 6.24-1.66 7.5-3.75a12.06 12.06 0 0 0-6.25-1.87c-8.76 0-13.13 1.67-13.13 5v.62c.42.42.83 1.05 1.25 1.88m31.88-5.63-1.25 1.88 4.37 2.5.63-2.5c0-1.25-1.25-1.87-3.75-1.88m-11.25 6.88 3.75 1.25c2.08 0 3.12-1.04 3.12-3.13 0-2.08-.83-3.12-2.5-3.12h-2.5l-1.88 5m18.13-2.5c-.42.42-.63 1.25-.63 2.5 0 1.67.63 2.5 1.88 2.5 1.25-.42 1.87-1.25 1.88-2.5 0-.83-.42-1.67-1.25-2.5h-1.88m27.5 6.87c2.08.42 4.58.63 7.5.63h4.38c1.66 0 4.16-.63 7.5-1.88-3.76-1.25-9.38-2.5-16.88-3.75-1.25 0-2.08 1.25-2.5 3.75v1.25m-33.75-3.75c-1.25 0-1.88.42-1.88 1.25 0 2.5 1.05 3.76 3.13 3.75 1.67 0 2.5-.83 2.5-2.5 0-2.5-1.04-3.33-3.13-2.5h-.62m-47.5 3.75h-6.88l-6.24 2.5h-2.5l6.87-4.37-5-1.25c-5 0-8.33 1.88-10 5.62l-.63 1.25c0 1.67 1.67 2.5 5 2.5 5 0 11.46-2.08 19.38-6.25m-35.63 1.25v61.25l.63 5.63v9.37l3.75-.62v-67.5c0-3.75-1.46-6.46-4.38-8.13m73.76-.62c-1.25.83-1.88 1.88-1.88 3.12 0 2.09 1.04 3.13 3.13 3.13 2.08 0 3.12-1.04 3.12-3.13 0-2.08-1.25-3.12-3.75-3.12h-.63m18.13.62c-1.25 0-1.88.63-1.88 1.88s.84 1.88 2.5 1.87c1.26 0 1.88-.83 1.88-2.5 0-.83-.83-1.25-2.5-1.25m5.63 5 2.5 1.25c1.25.42 2.29.84 3.12 1.25l.63 1.25c-.84.84-1.46 1.25-1.88 1.25h-2.5a43.58 43.58 0 0 0-5-1.25l-1.25-.62c-1.67 0-2.5.62-2.5 1.87 0 3.34 2.92 7.5 8.75 12.5l8.75.63 2.5-8.13 8.13-3.75c-3.76-7.5-7.71-11.25-11.88-11.25-5 0-8.13 1.67-9.38 5m-77.5 9.38-3.12 5.62 5 1.25c1.25 0 2.7-.83 4.38-2.5l2.5 1.25c-2.09 3.34-3.13 5.63-3.13 6.88v3.12c.42 1.25.83 2.92 1.25 5v9.38l-3.13 12.5c1.26.42 3.96.62 8.13.62 4.17 0 7.5-1.87 10-5.62 2.5-4.17 3.96-6.25 4.38-6.25h3.12l-2.5 8.12.63 5c12.91-3.74 20.2-10.62 21.87-20.62l.63-6.25h-1.88c.42.42.63 1.25.63 2.5 0 2.5-.84 4.58-2.5 6.25h-2.5l2.5-7.5v-6.88l-2.5 8.75-2.5 5-2.5-.62c1.66-2.92 2.5-5 2.5-6.25a8.7 8.7 0 0 0-.63-3.75l-4.38 6.25c-1.66 0-2.5-.42-2.5-1.25 0-2.5 1.46-4.58 4.38-6.25-7.08 2.08-12.08 5.83-15 11.25l-3.13-.63 1.88-6.25 4.38-7.5 4.37-9.37-8.13 6.25-1.24-1.25-.63-.63.63-.62 7.5-6.25-2.5-.63c-.42 0-1.46.84-3.13 2.5-1.67 1.67-2.92 2.5-3.75 2.5-.83 0-1.67-.41-2.5-1.25l7.5-5.62-1.88-3.75-5 3.75h-2.5v-2.5l13.76-6.88h-5l-11.25 3.75c-2.5.42-6.67 3.55-12.5 9.38m62.5-10.63c-.42 0-.63.63-.63 1.88-.83 2.08.2 3.13 3.13 3.12 1.25 0 1.87-.83 1.87-2.5 0-2.08-1.04-3.12-3.13-3.12l-1.24.62m85 0c-2.5 1.25-3.76 2.5-3.75 3.75 0 .84 1.04 1.88 3.12 3.13l5 3.12 1.25-5c-.42-2.5-2.3-4.16-5.63-5m-159.37.63c.41 2.08.83 3.96 1.25 5.62.41 1.67.83 2.92 1.25 3.75 2.5 8.76 3.74 15.21 3.75 19.38 0 4.58-1.46 10.42-4.38 17.5l-.62 19.37a24.8 24.8 0 0 1 3.12-3.75 32.83 32.83 0 0 0 3.13-5v-3.75l3.75-12.5c.41-.41.62-1.45.62-3.12 0-2.5.2-4.37.63-5.63v-7.5c.83-2.5.41-3.95-1.25-4.37l-5-3.75 3.75-10.63c0-3.33-3.34-5.2-10-5.62m223.75 1.25-4.38 3.12-6.25 3.13-1.88 8.12c7.09-2.91 11.67-6.66 13.75-11.25l-1.25-3.12m-76.87 5.62 5 13.75c-1.67 5.42-5 8.55-10 9.38 2.5 3.75 4.8 5.63 6.88 5.62 6.24 0 9.37-4.16 9.37-12.5 0-.83-.42-2.91-1.25-6.25l-2.5-5-4.37-6.25-3.13 1.25m-81.87 1.25-4.38 3.13c-.42-.42-.62-1.04-.62-1.88 0-1.66.2-2.7.62-3.12-2.92 2.92-4.38 6.04-4.37 9.37 0 2.92.2 4.8.62 5.63v1.87c1.25-.41 3.12-.62 5.63-.62 2.5 0 5.41 1.25 8.75 3.75l2.5 5c4.58-4.58 6.87-8.96 6.87-13.13 0-3.74-1.46-7.08-4.37-10l3.12 8.75-3.12.63a13.97 13.97 0 0 0-1.88-5l-2.5-5v7.5l-2.5-5h-1.87l-1.88 2.5-1.87-2.5 1.25-1.88m143.75 15.63 8.12-.63 6.25-1.25c1.25-.41 3.33-.62 6.25-.62 11.67 0 17.5 3.33 17.5 10 0 5-2.08 7.5-6.25 7.5-1.67 0-3.54-1.67-5.63-5-2.08 3.33-3.12 5.2-3.12 5.62 0 5 3.33 7.5 10 7.5 7.92 0 11.88-4.16 11.88-12.5 0-6.66-2.71-10.2-8.13-10.62v-1.88c3.75-.41 5.62-1.45 5.63-3.12 0-4.58-4.17-6.87-12.5-6.88-3.34 0-7.3 1.25-11.88 3.75-4.17 2.09-7.3 3.13-9.38 3.13-1.25.42-2.91.62-5 .62h-1.25c-1.25.42-2.08 1.88-2.5 4.38m-170 0v2.5l12.5-6.88-.62-7.5c-3.75 1.67-7.7 5.63-11.87 11.88m65-9.38-.63 6.88c-4.17.83-6.04 1.25-5.62 1.25-2.09 0-3.55-.2-4.38-.63l2.5 7.5c.83 2.5 1.67 5.21 2.5 8.13l3.75 5c.42.42.63.83.63 1.25 0 .83-.42 1.25-1.25 1.25-5.42 0-10.21-3.12-14.38-9.38l-5.62-8.12v3.75l5 10.62-8.75-10.62c-2.09 2.08-3.13 3.54-3.13 4.37 0 .84.63 2.5 1.88 5h-2.5a47.12 47.12 0 0 0-3.13-8.12c-.83-2.5-2.08-4.8-3.75-6.88-.42 2.09-.83 3.96-1.25 5.63v3.12c0 4.17 3.33 11.46 10 21.88 3.33-3.33 5-7.3 5-11.88l2.5.63 4.38 5.62 11.25 3.13 4.37 3.12a34.49 34.49 0 0 1 1.88 4.38l1.87 1.87c3.33 0 5-4.16 5-12.5 0-4.16-.83-7.91-2.5-11.25l2.5-1.25c.83 1.67 2.7 2.71 5.63 3.13 0-10-4.59-18.96-13.75-26.88m-20.63 6.25v1.88c0 1.67.2 2.7.63 3.12l3.75 6.88 9.37 7.5-2.5-5.63-1.87-5c-1.25-5-2.71-7.7-4.38-8.12l-4.37-2.5-.63 1.87m31.88.63 5.62 1.87c3.75 2.5 5.83 3.76 6.25 3.75l1.25.63c0 1.25-.62 1.88-1.87 1.87-.42 0-1.67-.83-3.75-2.5-2.09-1.66-3.96-2.7-5.63-3.12 2.92 7.08 9.8 10.83 20.63 11.25-1.67-2.08-2.71-3.96-3.13-5.63-4.58-7.5-9.8-11.25-15.62-11.25-1.25 0-1.88.21-1.88.63l-1.87 2.5m-211.25-1.25c.41 2.08.62 3.96.62 5.62.42 1.25.63 2.3.63 3.13 0 3.33-1.25 7.7-3.75 13.12l-1.25 2.5c0 .84-.42 2.09-1.25 3.75-2.92 9.17-4.38 13.34-4.38 12.5 0-1.25 1.46 2.3 4.38 10.63-1.67 0-3.96-.83-6.88-2.5l.63 6.25c5.83 10.83 15 16.04 27.5 15.62h.62l5-.62h6.88c.83 2.5 1.25 3.54 1.25 3.12 0 1.67-1.05 2.5-3.13 2.5-2.92 0-5.83-.62-8.75-1.87l-13.12-1.88c-2.92-.83-4.17-1.25-3.75-1.25-2.5 0-6.46 1.25-11.88 3.75l7.5 5 1.25 2.5c-7.08 3.34-10.62 6.88-10.62 10.63 0 1.67.83 3.96 2.5 6.87 3.33-5 6.66-7.91 10-8.75l30-1.87 8.12-1.88 4.38-1.25c2.08-.83 3.12-2.08 3.12-3.75 0-2.08-.2-3.33-.62-3.75l-8.13 1.88-6.87.62.62-1.87 15-3.75v-7.5h-12.5l-6.87-1.88-6.25-5.62 1.87-1.88c5.83 4.59 11.88 6.88 18.13 6.88h5.62v-3.75h-2.5c-2.5 0-5.2-1.25-8.12-3.75-2.5-2.92-3.76-5.62-3.75-8.13 0-1.66.83-2.5 2.5-2.5.83 0 1.25.84 1.25 2.5v1.88c2.5 5 6.04 7.5 10.62 7.5v-5c0-2.08-.62-5.42-1.87-10 1.25-2.5 1.87-4.37 1.87-5.63 0-1.66-.2-2.91-.62-3.75-1.25 2.09-2.5 3.13-3.75 3.13s-1.88-.63-1.88-1.88c0-.41.63-1.87 1.88-4.37s1.87-4.58 1.87-6.25c0-6.25-2.7-9.58-8.12-10a27.77 27.77 0 0 0-2.5 5 74.74 74.74 0 0 0-2.5 5.62v1.25c0-.41.41 1.46 1.25 5.63-.42.42-1.25.62-2.5.62-.84 0-1.88-.62-3.13-1.87-1.67 2.92-2.5 5.2-2.5 6.87s.63 3.96 1.88 6.88l-2.5.62-2.5-10 2.5-11.87-3.13-6.88a46.95 46.95 0 0 0-4.37 5 16.68 16.68 0 0 1-4.38 3.13l-1.25-2.5c2.92-4.17 4.37-7.3 4.38-9.38 0-7.08-4.59-11.45-13.75-13.12m-47.5 5c-.84 4.17-1.25 6.04-1.25 5.62 0 5.84 3.54 8.76 10.62 8.75 1.25 0 3.54-1.66 6.88-5l-8.13-1.25-2.5-1.25-5.62-6.87m363.12 11.25-1.25 1.25a26.85 26.85 0 0 0-5-.63c-1.25-.41-2.3-.62-3.13-.62-9.58 0-14.38 5.63-14.38 16.87 0 4.17 3.55 6.67 10.63 7.5-3.33-3.33-5-5.62-5-6.87 0-4.58 2.5-6.87 7.5-6.88.83 0 1.67.21 2.5.63 1.25 0 2.7.2 4.38.62l3.75 4.38c-.84 10-6.88 17.3-18.13 21.87l-18.75 6.88-6.25 3.12c1.67 1.25 3.12 1.88 4.38 1.88h.62c2.5 0 10.2-2.92 23.13-8.75l10.62-5c10.83-5 16.25-12.5 16.25-22.5 0-2.92-1.04-6.04-3.13-9.38l-5-6.87-1.87-3.75-.63-.63c-1.66 0-2.5 1.05-2.5 3.13l1.25 3.75m75.63 4.37-5 3.75-13.13 11.88c-10.41 9.17-19.16 15.2-26.25 18.12l-11.25 5-7.5 4.38 6.88-1.88 10.63-5 5.62-1.87 48.13-32.5 3.12-.63 6.88 1.88-.63-7.5c0-2.5-1.88-3.75-5.63-3.75-1.25 0-3.54.83-6.87 2.5-2.92 1.67-4.58 2.92-5 3.75v1.87m-279.38-7.5-1.87 6.88-5 16.87c-.42.84-.63 2.3-.63 4.38 0 5.42 2.5 8.13 7.5 8.12 4.58 0 7.08-2.08 7.5-6.25-2.5 1.25-4.58 1.88-6.25 1.88-2.92 0-4.38-2.92-4.37-8.75v-1.88l3.75-15.62-.63-5.63m-140 8.13c-5 4.17-8.33 9.17-10 15l-1.25 5 .63 8.12 1.87 13.13 1.25 1.25-.62-12.5v-5l2.5-9.38v-3.12l3.75-2.5 5.62-4.38 7.5 3.75v1.25c.83 2.5 0 3.96-2.5 4.38.83.83 1.67 1.25 2.5 1.25 3.75 0 5.62-2.92 5.63-8.75 0-2.92-1.88-6.04-5.63-9.38-2.5-.83-3.54-1.25-3.12-1.25h-2.5l-5.63 3.13m-20-.63-1.25 6.25c-.42 3.34-.83 6.26-1.25 8.75V336.67a71.6 71.6 0 0 1 1.25 6.87c.42 2.5.83 5.42 1.25 8.75 2.08 12.5 7.08 25.21 15 38.13l5 6.25 6.25 6.25a24.85 24.85 0 0 0 6.25 3.75l11.25 6.87c2.5 1.67 3.96 2.71 4.38 3.13.83.42 2.5 1.04 5 1.87l3.12-5c0-1.25-3.33-2.7-10-4.37-10.83-3.33-20.62-12.5-29.37-27.5-8.34-15.83-12.5-31.46-12.5-46.88 0-2.91.62-7.5 1.87-13.75.42-.83.63-2.29.63-4.37s-2.3-3.54-6.88-4.38m196.25 25c9.17-2.91 13.75-8.74 13.75-17.5 0-1.66-.62-2.5-1.87-2.5-1.67 0-2.71 2.71-3.13 8.13-.83 1.25-1.46 1.88-1.87 1.87h-1.25l3.12-9.37-.62-3.13-4.38 6.25-1.25 9.38-2.5 6.87m62.5-1.87c5.42-.42 8.12-1.46 8.13-3.13 0-8.33-1.25-12.91-3.75-13.75l-2.5-.62-1.88 17.5m141.88-9.38a76.64 76.64 0 0 1-5 3.75l-2.5 1.25c-.83.42-2.7 1.46-5.63 3.13-2.5 1.25-6.04 3.13-10.62 5.62a62.46 62.46 0 0 0-7.5 3.75c2.08 2.09 3.54 3.13 4.38 3.13 1.25 0 3.74-1.25 7.5-3.75l12.5-7.5c2.5-1.25 4.79-4.37 6.87-9.38m25.63 18.13 3.75 1.87c4.16-7.91 9.37-11.87 15.62-11.87 5.42 0 8.12 3.33 8.13 10v1.25l-1.88 6.87-.63 3.13-4.37 4.37 3.13 5.63c5.41-5.42 8.12-12.7 8.12-21.88 0-10-4.38-15-13.13-15-7.5 0-13.75 5.21-18.75 15.63m11.88-1.88-2.5 4.38c2.08 2.08 3.12 3.75 3.13 5 0 3.75-1.88 6.46-5.63 8.12-3.33 1.25-5 3.55-5 6.88 10.83-2.08 16.25-7.5 16.25-16.25 0-4.17-2.08-6.87-6.25-8.13m-71.25 3.13h-3.13l-.62 1.87c-3.33 0-6.67 1.05-10 3.13-.83.42-7.08 2.7-18.75 6.87l-3.75 1.25-2.5 1.25 5 3.13c2.5 0 10-3.12 22.5-9.38l2.5-1.25c1.25-.41 2.7-.83 4.38-1.25l4.37-5.62m-348.12 29.37 5 9.38 3.75 3.75c8.75 10 17.92 16.67 27.5 20v-1.25c-22.92-10-34.37-23.75-34.37-41.25 0-8.75 2.91-13.13 8.75-13.13 2.91 0 4.37 1.25 4.37 3.75 0 1.67-.83 3.34-2.5 5 3.75-1.66 5.62-3.33 5.63-5 0-6.66-3.34-10-10-10-7.92 0-11.88 5.42-11.88 16.25 0 4.17 1.25 8.34 3.75 12.5m395.62-8.75c-8.75 0-13.13-2.5-13.13-7.5 0-4.58 5.21-6.87 15.63-6.87-1.25 0 3.54 1.67 14.38 5 .41-1.25.62-2.08.62-2.5l.63-1.25c0-3.75-5.84-5.62-17.5-5.63-13.75 0-20.63 4.17-20.63 12.5 0 6.26 5.42 9.8 16.25 10.63 2.5 0 3.75-.83 3.75-2.5v-1.88m-39.38-11.87v.62l-5 1.88 5-.63v-1.87m45 1.87-1.25 5.63v8.75l-.62 2.5.63.62c.41 0 .83.21 1.25.63.83 0 2.08-3.33 3.75-10l1.25-5c0-1.25-1.67-2.3-5-3.13m-83.75 10c1.66 1.25 3.12 1.88 4.37 1.88.42 0 2.3-.83 5.63-2.5 3.74-1.67 7.29-2.5 10.62-2.5 6.25 0 13.54 2.3 21.88 6.87l8.12.63-.63-2.5c-8.33-5.83-16.66-8.75-25-8.75-6.66 0-15 2.3-25 6.87m84.38 21.25c4.17 14.17 10.63 21.25 19.38 21.25 9.16 0 13.75-6.24 13.75-18.75 0-6.66-2.09-13.33-6.25-20-2.09-3.74-3.34-5.62-3.75-5.62l-1.25-.63h-.63c-1.67 0-2.5 1.05-2.5 3.13 0 .42 1.46 3.13 4.38 8.12 3.33 4.59 5 9.59 5 15 0 8.76-3.34 13.13-10 13.13-4.59 0-7.92-2.92-10-8.75-1.25-4.58-3.34-6.87-6.25-6.88h-1.88m-271.25-22.5-12.5 1.88-.62 4.37.62 46.88-.62 18.75.62 14.37-.62 26.25 1.25 26.88 2.5 16.25a24.3 24.3 0 0 0 1.87 5 41 41 0 0 1 2.5 4.38l3.13 5-4.38-20-2.5-64.38v-65l-.62-14.38 13.12-1.25h52.5c19.17 0 34.8 1.46 46.88 4.38l6.25 1.25c12.91 2.92 20.83 5 23.75 6.25l4.37 1.87 6.88 2.5-13.75-7.5-6.88-1.87-5.62-2.5c-1.25-.83-4.8-1.67-10.63-2.5l-20.62-3.75c-.84 0-2.92-.42-6.25-1.25-3.34-.83-5.21-1.04-5.63-.63l-3.12.63-20-1.88h-51.88m288.12 6.88a41.74 41.74 0 0 1-23.13 6.87h-5.62c-2.08 0-3.75-.2-5-.62l-31.25-4.38c-1.25-.41-3.75-.62-7.5-.62h-4.38c-2.5 0-4.37.2-5.62.62l-6.88 1.25 3.13 3.75h21.25l41.88 5c2.5 0 7.29-.62 14.37-1.87 7.08-2.08 10.63-3.96 10.63-5.63 0-.83-.63-2.29-1.88-4.37m-243.75 6.25.63 1.25-1.88 1.25c-4.58-3.75-9.58-5.62-15-5.63-7.5 0-14.17 2.5-20 7.5s-8.75 10.63-8.75 16.88c0 3.33 2.3 7.3 6.88 11.87 3.33 2.09 5.41 3.13 6.25 3.13 2.08 0 4.37-.63 6.87-1.88 7.92-4.16 13.54-6.24 16.88-6.25 7.08 0 10.62 3.96 10.62 11.88v1.87c0 5-2.5 7.5-7.5 7.5-1.67 0-2.92-.41-3.75-1.25l-5.62-6.25-1.25-1.25h-1.25l-1.88.63-2.5 2.5 6.25 2.5 5 9.37c.42.42 1.67.63 3.75.63 3.75 0 7.08-1.87 10-5.63 3.33-3.74 5-7.91 5-12.5 0-5-3.75-9.16-11.25-12.5l4.38-4.37c-2.92-2.92-5.84-4.37-8.75-4.38-3.34 0-6.46 1.25-9.38 3.75l-7.5 6.25c-2.08 2.09-4.17 3.13-6.25 3.13-5.83 0-8.75-3.12-8.75-9.38 0-10.83 7.08-16.25 21.25-16.25 6.67 0 13.33 2.71 20 8.13l4.38 5.62 3.12 6.25.63-.62-.63 1.25c1.25 6.25 1.87 10.83 1.88 13.75v4.37l-3.75 10-2.5 9.38-1.88 3.75c0 .42 1.04 2.3 3.13 5.62l8.75 8.75 2.5 3.13c1.25-2.92 3.33-7.08 6.25-12.5l9.37-12.5 4.38-7.5 2.5-7.5 1.25-11.88h-5l1.87-3.12c.42-.42.63-1.25.63-2.5 0-2.5-.63-4.37-1.88-5.63l-1.25-1.87-1.25-3.75c-5.42 1.67-8.13 4.8-8.12 9.37l-3.75.63v-10.63l-1.25-3.12-5-7.5-6.88-5-1.25-1.25-8.12-1.88-.63 4.38m28.13 8.12 3.12 3.13 3.13-4.38a4.24 4.24 0 0 1 3.12-1.25c4.58 0 7.7 3.96 9.38 11.88l-1.88 10h1.25c3.75-4.17 5.62-8.75 5.63-13.75 0-10.83-5-16.25-15-16.25-5.84 0-8.76 3.54-8.75 10.62m32.5-6.25c-2.5 12.09-7.09 22.09-13.75 30l13.75-13.12v-2.5c3.74-3.75 6.04-7.92 6.87-12.5l-6.87-1.88m-15 40 1.25.63c1.66-3.75 3.54-6.25 5.62-7.5 0 0 .42-.2 1.25-.63.83-.83 2.08-1.66 3.75-2.5l10-7.5 4.38-2.5 11.87-8.12 6.25-3.13c-5.42-2.91-8.75-4.37-10-4.37-2.5 0-5.83 2.3-10 6.87-3.75 4.59-9.8 10.21-18.12 16.88-3.76 3.75-5.84 7.7-6.25 11.87m128.12-33.12h-7.5l.62 1.25 27.5 3.12a90.9 90.9 0 0 0 6.88 1.25c4.16 0 6.24-.83 6.25-2.5l-.63-.62c0-.42-.2-1.04-.63-1.88l-.62 1.88-31.88-2.5m-302.5 26.25.63 1.87a20.3 20.3 0 0 0-10.62 5.63c5 5.83 11.45 8.75 19.37 8.75 5.42 0 11.67-.63 18.75-1.88l.63-15-7.5-.62c-12.92-1.25-19.38-5.2-19.38-11.88 0-1.66 1.04-3.54 3.13-5.62.41.42 1.45.62 3.12.62 1.25 0 1.87-.62 1.88-1.87 0-2.5-2.09-3.75-6.25-3.75-3.76 0-6.88 2.08-9.38 6.25-.83 3.33-1.25 5.42-1.25 6.25 0 4.17 2.3 7.92 6.88 11.25m261.88-22.5c-39.59 3.33-66.46 13.33-80.63 30l6.25-2.5 21.25-10c3.33-1.67 14.17-4.37 32.5-8.13 5.83-.83 11.25-1.45 16.25-1.87 5-.83 9.58-1.25 13.75-1.25a105.3 105.3 0 0 1 48.75 11.87l6.88-9.37a10.08 10.08 0 0 0-4.38-1.25c-1.25-.42-2.3-.83-3.13-1.25-5.41-1.67-10-2.92-13.75-3.75l-7.5-1.88-7.5-.62-5.62-.63-15.63-.62-7.5 1.25m-328.74 7.5c2.91-1.25 5.41-1.87 7.5-1.88a6 6 0 0 1 4.37 1.88l12.5 9.37 10 6.25 3.13 3.13c1.66 1.67 5 3.33 10 5l6.25 1.87a4.88 4.88 0 0 0-4.38-4.37c-2.5-.42-4.38-1.25-5.62-2.5l-8.75-6.88-10.63-6.87-9.37-10c-1.67-1.67-3.96-2.5-6.88-2.5-3.75 0-6.46 2.5-8.12 7.5m333.12 2.5-3.75.62h-1.25l-10.63.63 3.75 4.37 2.5 2.5c10 14.59 15 29.38 15 44.38l.63 10.62c0 2.09-.21 4.17-.63 6.25 0 1.67-.2 3.55-.62 5.63l-1.88 7.5-1.25 6.25a85.62 85.62 0 0 1-3.12 5.62c-1.25 2.09-2.5 4.38-3.75 6.88l-11.25 15.62c-21.25 18.75-44.8 28.13-70.63 28.13h-2.5c-3.33 0-5 .63-5 1.88v1.87l1.88 11.25c39.16-1.25 71.45-11.88 96.87-31.88 25.83-20 38.75-44.37 38.75-73.12 0-15-1.88-27.7-5.63-38.13-3.33-10.41-7.7-15.41-13.12-15h-1.25a30.02 30.02 0 0 0-10.63-1.87h-12.5m62.5 20c.42-7.08 3.96-13.54 10.63-19.38h-1.88c-9.58 0-14.37 4.59-14.37 13.75 0 3.34 1.87 5.21 5.63 5.63m1.87 2.5a37.08 37.08 0 0 0 13.75 16.25l8.13 6.87 4.37 8.13c2.92 4.17 4.37 7.92 4.38 11.25 0 5.83-2.09 8.75-6.25 8.75-2.5 0-3.76-1.46-3.75-4.38l1.25-15.62-2.5-3.13-1.88-4.37-2.5-3.13c-4.17-2.91-7.92-4.37-11.25-4.37-8.75 0-13.13 4.38-13.13 13.12 0 3.34 1.46 6.46 4.38 9.38-.42-.83-.63-2.7-.63-5.63 0-6.66 3.55-10 10.63-10 6.67 0 10 3.96 10 11.88v14.37c.83 3.76 2.7 7.09 5.63 10a6.76 6.76 0 0 0 5 1.88c10 0 15-5.42 15-16.25 0-.83-.63-2.92-1.88-6.25-3.33-1.25-5-2.7-5-4.38l.63-.62 1.25-1.25c.41 0 1.45.83 3.12 2.5 2.08 1.67 3.75 2.5 5 2.5.83 0 1.25-1.87 1.25-5.63 0-10-4.8-17.91-14.38-23.75l-6.87-3.75c-1.25-.41-1.88-1.45-1.88-3.12 0-2.5 1.05-3.75 3.13-3.75 1.25 0 2.5.62 3.75 1.87l3.13 4.38c6.24 6.67 13.12 10 20.62 10h1.88l-1.25-6.88-1.25-4.37 5-1.25c3.74-1.25 5.62-5.83 5.62-13.75 0-1.67-1.04-3.54-3.13-5.63l-1.87 5-4.38 4.38-1.25 1.87-5 1.25a22.13 22.13 0 0 1-6.25-1.87 115.6 115.6 0 0 0-8.75-5.63c-6.25-5-11.45-7.5-15.62-7.5-10.42 0-15.83 6.88-16.25 20.63m-383.12-16.25-.62-.63c-2.09-1.25-3.55-1.87-4.38-1.87-2.08 0-3.13 1.04-3.12 3.12 0 2.5 1.25 3.76 3.75 3.75.83 0 1.66-.41 2.5-1.25l1.87-3.12m353.75-1.88 3.13 8.13c5.41 14.58 8.12 26.67 8.12 36.25 0 20.83-5 38.33-15 52.5l-2.5 5.62-4.38 5.63-3.12 3.75-5.63 6.25-6.87 6.88c-1.67 1.25-3.54 2.7-5.62 4.37a55.88 55.88 0 0 0-6.88 5l-5 2.5-8.12 5c-1.25 0-5.42 1.46-12.5 4.38a92.12 92.12 0 0 1-10 3.12c-3.34.83-5.21 1.46-5.63 1.88l-11.25 3.12-26.25 3.75h-8.75c.42 2.5 1.04 3.75 1.88 3.75h7.5l15.62-.63c30.83-2.08 57.92-14.37 81.25-36.87 24.17-22.92 36.25-48.33 36.25-76.25 0-28.75-5.42-44.8-16.25-48.13m-77.5 1.25c-5.83.84-13.12 3.34-21.87 7.5l8.12-.62 10-3.13c.42-.41 1.67-.62 3.75-.62 11.25 0 16.88 2.92 16.88 8.75 0 2.08-.63 3.13-1.88 3.12a8.3 8.3 0 0 1-5-1.87l-.62 3.75c1.66 2.92 3.54 4.38 5.62 4.37l4.38-.62c3.74-2.5 5.62-5 5.62-7.5 0-9.17-6.67-13.75-20-13.75l-5 .62m-290 3.13-.62.62c-.42.42-.63.84-.63 1.25 0 .42.42 1.05 1.25 1.88l1.25.62c1.25 0 1.87-.62 1.88-1.87 0-1.67-.84-2.5-2.5-2.5h-.63m18.75.62c-1.25 0-2.3 1.05-3.12 3.13l-.63 1.25c0 3.33 1.67 5 5 5 2.5 0 3.75-1.46 3.75-4.38 0-3.33-1.67-5-5-5m160.62 24.38a309.64 309.64 0 0 0-16.25-10c-3.33-2.08-5.42-3.54-6.25-4.38l-7.5-8.75v5.63c0 1.67 3.12 4.38 9.38 8.12a103.6 103.6 0 0 0 20.62 9.38m-168.12-11.88c0-4.58-1.25-6.87-3.75-6.87-2.08 0-3.13 1.25-3.12 3.75 0 2.5 1.45 3.54 4.37 3.12h2.5m16.25-3.75c-1.25 0-2.3 1.05-3.12 3.13v1.25c0 2.5 1.25 3.75 3.75 3.75 3.33 0 5-1.25 5-3.75 0-2.92-1.88-4.37-5.63-4.38m196.25 29.38c-3.33 5.83-6.88 14.8-10.62 26.87l-.63 14.38-2.5 5.62h-4.37l-1.25-7.5 1.25-3.12-4.38-6.88-4.37-4.37-4.38-4.38c-2.5 10.84-3.75 20.84-3.75 30 0 6.26.63 13.13 1.88 20.63 4.16-2.92 7.29-4.37 9.37-4.38 2.08 0 3.33 1.46 3.75 4.38l6.88 9.38 3.12-6.25 5.63-5.63v-6.88l2.5-13.75 5-16.87c2.08-7.92 6.66-14.58 13.75-20 7.08-5.42 14.37-8.12 21.87-8.13 6.67 0 12.5 2.5 17.5 7.5.42.84.63 2.71.63 5.63l-1.25 5c-2.92 2.92-5.84 4.38-8.75 4.37h-2.5l-20-8.12h-1.88c-8.75 0-13.12 5-13.12 15 0 3.33 2.08 7.08 6.25 11.25l-1.88 5 3.13 4.37v6.88c4.16-2.5 6.24-5 6.25-7.5 0-2.92-.84-5.83-2.5-8.75l3.75-.63 3.12 1.25h1.88c3.33 0 5.41-1.25 6.25-3.75v-3.75h-6.25l-6.88-2.5-4.37 4.38h-.63c-2.5 0-3.75-1.67-3.75-5 0-7.5 3.12-11.25 9.38-11.25 2.08 0 4.16.62 6.25 1.87l15.62 11.88c1.67 1.25 4.17 1.88 7.5 1.87 10.83 0 16.25-5.2 16.25-15.62l1.88-1.25c2.5 2.5 4.37 3.75 5.62 3.75s3.12-.63 5.63-1.88c-2.09-9.16-2.92-14.37-2.5-15.62v-.63l1.25-15c0-2.91-1.67-4.37-5-4.37h-5.63l4.38-4.38c.41-.41.62-1.04.62-1.87 0-3.33-4.8-6.04-14.37-8.13l-6.88-1.87c-.83-.42-3.33-.63-7.5-.63-15 0-30.42 9.8-46.25 29.38m-223.12-27.5c-1.25.83-1.88 1.67-1.87 2.5 0 1.25.2 2.08.62 2.5 1.67-.42 2.5-1.04 2.5-1.88 0 .42-.42-.62-1.25-3.12m147.5 2.5-.62 16.25c4.16.83 7.08 1.67 8.75 2.5 1.66.42 3.95 1.25 6.87 2.5l8.75 3.12c9.58 3.76 19.38 10.63 29.38 20.63.41.42.83 1.04 1.25 1.87l2.5 2.5 2.5 4.38h1.25c.41-2.08.62-3.75.62-5 .42-1.67.63-2.92.63-3.75 0-2.92-1.67-6.25-5-10-3.34-3.75-7.92-7.7-13.75-11.88a119.2 119.2 0 0 0-19.38-11.87 207.74 207.74 0 0 0-23.75-11.25m-133.75 6.87c.42.42 1.46.63 3.13.63 1.66 0 2.5-1.04 2.5-3.13 0-2.5-1.05-3.74-3.13-3.75-1.67 0-2.5 1.25-2.5 3.75v2.5m-5.62-2.5-4.38 1.88 4.38-1.88m46.87 1.88-.62-.63h-.63l-16.87 5-.63-.62-9.37-2.5c-2.09 0-3.13 1.04-3.13 3.12 0 2.5 3.12 3.76 9.38 3.75 7.91 0 15.2-2.7 21.87-8.12m266.88 0-1.87 4.37c.83.84 1.25 1.46 1.25 1.88-.84.83-1.46 1.25-1.88 1.25l-6.25-1.25c-4.58 0-6.88 3.96-6.87 11.87 0 2.92 1.66 5.42 5 7.5v-3.75c-.42-5.41 1.04-8.12 4.37-8.12 2.5 0 4.8 1.67 6.88 5v4.37c.83 5-.42 9.17-3.75 12.5l-15.63 20.63c-2.5 2.5-4.8 6.67-6.87 12.5l4.37-5 4.38-5.63 17.5-17.5c6.24-5.41 9.37-12.29 9.37-20.62 0-8.33-3.33-15-10-20m-230 1.25c-6.25 2.08-11.04 2.7-14.37 1.87a17.07 17.07 0 0 0-3.75-.62 5.54 5.54 0 0 0-2.5-.63c-1.25 0-2.5 1.46-3.75 4.38-1.25.42-3.13 1.46-5.63 3.12-2.5 1.67-3.96 2.5-4.37 2.5-.84 0-1.25-.62-1.25-1.87 0 .42 3.54-1.87 10.62-6.88-.83-1.25-1.67-1.87-2.5-1.87-7.08 0-11.25 5-12.5 15l5.63 2.5c-8.34 5.83-12.5 11.87-12.5 18.12 0 3.76 1.87 7.71 5.62 11.88.42-3.75 1.04-5.62 1.88-5.63 1.25 0 2.08.21 2.5.63 1.66 7.5 5.41 11.25 11.25 11.25 2.08 0 4.79-.63 8.12-1.88 4.17-1.66 6.67-4.16 7.5-7.5v-3.12l-4.37-12.5-.63-1.25c0-5.83 2.08-8.75 6.25-8.75 2.08 0 3.96.83 5.63 2.5l.62 3.12-2.5 5 .63 5c4.16-5.41 6.24-9.58 6.25-12.5 0-4.58-2.71-6.87-8.13-6.87-2.5 0-5.42 1.25-8.75 3.75s-5 5-5 7.5c0 2.08.83 5.2 2.5 9.37l2.5 5.63c0 2.08-1.67 4.17-5 6.25-.83.83-2.08 1.25-3.75 1.25-6.25 0-9.38-4.17-9.37-12.5 0-3.33 1.45-7.08 4.37-11.25s5.83-6.87 8.75-8.13l21.88-6.87.62-5 .63-3.75c0-.83-1.05-1.25-3.13-1.25m-92.5 3.12v3.75c.42.42 1.25.63 2.5.63 1.67 0 2.5-.83 2.5-2.5 0-.83-.62-1.67-1.87-2.5h-1.25l-1.88.62m11.25 0-.62 3.13 2.5-1.25-1.88-1.88m6.25 4.38c-1.67.42-2.5 1.46-2.5 3.12 0 2.09 1.25 3.13 3.75 3.13 2.92 0 4.37-1.04 4.38-3.13 0-2.5-1.46-3.74-4.38-3.75l-1.25.63m-14.37 6.25c-2.92 1.67-4.38 3.75-4.38 6.25 0 5.83 4.37 8.75 13.13 8.75 4.16 0 7.08-.83 8.75-2.5l18.75-12.5 9.37-3.75c0-.83-.2-1.25-.62-1.25l-4.38 1.87-9.37 3.13-12.5 6.87a17.5 17.5 0 0 1-8.75 2.5c-4.17 0-7.5-3.12-10-9.37m-2.5 92.5.62 1.25c4.17-.42 6.25-1.67 6.25-3.75l-3.12-13.75v-6.25c0-12.92 3.54-25.63 10.62-38.13 7.5-12.5 16.25-20.83 26.25-25 4.17-1.66 6.25-3.33 6.25-5 0-1.25-.62-1.87-1.87-1.87-5.84 0-11.67 3.54-17.5 10.62-4.59 5.84-7.5 8.96-8.75 9.38l-2.5 1.25c-2.09 1.25-4.59 5-7.5 11.25l-5 9.37c-4.17 7.92-6.26 16.05-6.25 24.38v2.5c.41 2.08.83 5.2 1.25 9.38.41 3.75.83 8.54 1.25 14.37m445-92.5c2.5 6.25 5.2 9.38 8.12 9.37 2.92 0 4.8-2.91 5.63-8.75-4.17.84-6.05 1.25-5.63 1.25-1.67 0-4.38-.62-8.13-1.87m-288.75 33.75c-3.75-2.92-5.62-5.62-5.62-8.13 0-1.66 1.25-4.79 3.75-9.37 1.67.42 2.92.83 3.75 1.25h1.88c.83-.42 2.08-.83 3.75-1.25 2.08-.83 4.79-1.67 8.12-2.5.42-.42 1.67-.63 3.75-.63l6.25 1.25c-2.08-4.58-5.83-7.5-11.25-8.75l-5.62-.62-4.38-1.25-.62-.63c-9.17 0-13.75 2.5-13.75 7.5v.63l3.75 2.5-3.75 4.37c-.84.84-1.25 2.09-1.25 3.75 0 9.17 2.91 13.34 8.75 12.5l2.5-.62m-110.63-26.25c-25 15.83-37.5 34.17-37.5 55v5l3.13 8.75.63 3.75 8.75 10c2.08 2.08 3.54 3.13 4.37 3.13 1.67 0 2.5-1.05 2.5-3.13 0-2.5-.83-4.58-2.5-6.25 8.33-.83 12.5-4.58 12.5-11.25 0-3.33-1.04-5.62-3.12-6.88l-7.5-5-2.5-5c-1.67 1.25-2.5 2.3-2.5 3.13 0 1.25.2 1.88.62 1.87l8.75 6.25c1.25.84 1.87 1.88 1.88 3.13 0 2.92-1.25 4.38-3.75 4.38l-5-1.25c-5.84-4.59-8.76-10.21-8.75-16.88 0-15.83 8.54-30.42 25.62-43.75 1.25-.42 2.92-1.67 5-3.75l-.62-1.25m138.12 5.62v3.13c9.16 5.83 16.66 12.7 22.5 20.62-3.34-7.91-10.84-15.83-22.5-23.75m261.88 1.25.62 2.5c0 2.09-1.25 3.34-3.75 3.75l5 15.63c2.5 8.33 3.75 15 3.75 20 0 8.33-1.88 18.96-5.63 31.87a64.61 64.61 0 0 0-2.5 8.13 77.85 77.85 0 0 1-3.75 10c-1.25 2.92-5.2 8.33-11.87 16.25l-3.75 1.88-10 6.87-5.63 2.5-3.12 1.88-5.63 1.25-5.62 2.5-11.88 1.25-10.62 1.25c-5.42.83-11.25-.84-17.5-5l-6.88-5c-1.66-2.92-2.5-5.42-2.5-7.5 0-4.17 2.3-6.25 6.88-6.25 5.42 0 8.12 2.08 8.13 6.25v1.25l.62 1.25 4.38 2.5a48.27 48.27 0 0 1-2.5-6.25 68.81 68.81 0 0 0-3.75-8.75c-2.5-4.17-6.67-6.25-12.5-6.25-8.76 0-13.75 5.83-15 17.5h-2.5a6.02 6.02 0 0 0-4.38-5c-1.25 3.33-1.88 6.04-1.88 8.12v1.25c.42.83.84 2.08 1.26 3.75l1.87 2.5 5 5c3.33 3.75 8.75 6.67 16.25 8.75v2.5c-6.25-.83-12.08-3.54-17.5-8.13l-5.63-5.62c-7.5-8.33-15.2-12.5-23.12-12.5h-9.38l3.76 4.38c0 1.66-.84 2.5-2.5 2.5v-.63c-.84 0-2.71-.83-5.63-2.5a15.4 15.4 0 0 0-8.75-2.5c-6.25 0-11.67 1.88-16.25 5.63-4.58 3.33-6.88 7.5-6.88 12.5 0 7.08 4.38 10.62 13.13 10.62 2.92 0 6.25-1.25 10-3.75.42-2.5 2.7-3.75 6.88-3.75 2.91 0 5.41 1.88 7.5 5.63 2.08-3.34 3.12-5.42 3.12-6.25 0-3.34-3.33-5-10-5-2.92 0-4.58.2-5 .62l-12.5 7.5h-1.25c-4.17 0-6.25-1.88-6.25-5.63 0-5.41 5.42-8.12 16.25-8.12 5 0 9.17.63 12.5 1.88l33.75 12.5 15.63 3.12c2.08.42 3.74.83 5 1.25h3.12c2.5 0 5.62-3.13 9.38-9.38 1.66.42 2.5 1.25 2.5 2.5v.63l-.63 2.5c0 3.75 3.12 5.63 9.38 5.63 3.33 0 5.41-.21 6.25-.63.83-.42 4.58-.83 11.25-1.25 6.66-.83 12.29-3.13 16.87-6.88 16.67-3.75 30.2-13.75 40.63-30 10.83-16.66 16.25-36.25 16.25-58.75 0-16.25-4.17-31.66-12.5-46.25m-58.75 9.38-1.88 5.62c10.83 5.84 16.25 12.92 16.25 21.25l-1.25 3.75-5.63 8.75a9.57 9.57 0 0 1-6.87 4.38 65.72 65.72 0 0 0-8.75 1.87c-2.5.84-5.2 1.67-8.13 2.5-.41.42-.62 1.25-.62 2.5 0 2.5.83 5.21 2.5 8.13l2.5 2.5c.42.42.63 1.04.63 1.88 0 .41-.63.62-1.88.62-5.83.42-10.2 2.5-13.13 6.25-2.5 3.33-3.75 5.83-3.75 7.5 0 2.92.84 5.83 2.5 8.75 2.92-1.25 5.42-1.88 7.5-1.88.84 0 2.92.42 6.25 1.25l11.88 6.88c2.5 1.25 6.25 1.88 11.25 1.88 10.83 0 17.3-3.55 19.38-10.63.83-3.33 1.66-5 2.5-5h1.87c1.25 4.58 3.33 6.88 6.25 6.88 2.5 0 5.2-.84 8.13-2.5-2.92-5.42-4.38-10-4.38-13.75l-.63-25.63c0-2.92-1.87-7.3-5.62-13.13.42.84.63 2.92.63 6.25 0 2.92-.63 4.38-1.88 4.38v-.63l-1.88-1.25 1.25-6.87-1.25-3.13-1.25-4.37-5-5c2.5 7.08 3.75 11.87 3.75 14.37 0 16.67-4.16 25.63-12.5 26.88l3.13-6.25c4.58-10.83 6.87-20.2 6.88-28.13 0-3.33-.21-5.83-.63-7.5 0-2.08.42-3.54 1.25-4.37 0-.42-1.04-1.04-3.13-1.88-2.5-.41-6.87-2.7-13.12-6.87l3.75 5 4.38 8.75c1.25 2.08 1.87 3.33 1.87 3.75 0 .83-.63 1.46-1.88 1.87l-1.25-1.25-3.12-7.5c-2.5-6.24-8.13-11.87-16.88-16.87m53.13 1.25 3.13 13.12c.41 2.09.62 3.96.62 5.63.42 1.67.63 3.13.63 4.37 0 2.09-1.05 5.84-3.13 11.25l-8.75 4.38 1.25 2.5c2.5 4.58 4.8 6.88 6.88 6.87 5 0 7.5-5.2 7.5-15.62 0-12.5-2.71-23.33-8.13-32.5m-149.38 58.75 9.38-5 2.5-13.13a21.78 21.78 0 0 1 6.25-11.25l3.75-3.75 4.37-3.75 9.38-3.75c3.33-.83 5.2-4.79 5.62-11.87h1.25v-1.88c0-1.66-.42-2.5-1.25-2.5-4.17 0-9.58 3.34-16.25 10-9.58 8.76-16.25 16.25-20 22.5-3.33 5.84-5 13.96-5 24.38m-128.12-40.63c2.5-2.91 4.8-4.37 6.88-4.37 5.83 0 9.79 4.17 11.87 12.5l3.13 15.62 1.87 4.38c-.42-2.92-.83-6.25-1.25-10-.42-3.75-.83-7.92-1.25-12.5l.63-5.63c0-4.16-2.3-7.91-6.88-11.25-2.5-.83-4.17-1.25-5-1.25-7.08 0-10.63 3.13-10.63 9.38l.63 3.12m222.5-11.25-1.88 6.88c7.09 2.5 11.67 8.13 13.75 16.87l-.62-9.37-5-6.25 2.5-1.88c-3.33-3.33-6.25-5.41-8.75-6.25m-314.38 11.88c-1.67.42-3.54.83-5.62 1.25a98.32 98.32 0 0 0-7.5 1.87l-4.38 3.13c-2.5 2.08-4.38 3.13-5.62 3.12-.84 0-1.67-.41-2.5-1.25.41-.41.62-.83.62-1.25a7.29 7.29 0 0 1 1.88-1.25h-8.13a17.06 17.06 0 0 0-3.75-.62 5.54 5.54 0 0 0-2.5-.63c-2.08 0-3.13 1.25-3.12 3.75 0 4.59 2.91 6.88 8.75 6.88 2.91 0 4.79-.2 5.62-.63l.63 3.13c-2.92 2.92-4.38 5.42-4.38 7.5 0-.83.2 0 .63 2.5.41 2.5 1.04 6.67 1.87 12.5-.42 5.42-2.5 9.58-6.25 12.5 3.33 2.08 5.42 3.13 6.25 3.13 9.17 0 14.38-5.42 15.63-16.25l2.5-1.25 1.87 3.75c3.33 3.33 6.04 5 8.13 5 7.91 0 12.7-3.96 14.37-11.88-.83.42-2.7.63-5.62.63-7.5 0-11.25-4.59-11.25-13.75 0-9.59 8.33-15.63 25-18.13v-2.5c.41-1.67-1.05-2.5-4.38-2.5-14.17 0-22.7 3.33-25.62 10l-5 11.25c-.42.42-1.05.62-1.88.62-1.25 0-1.88-.83-1.87-2.5l.62-1.25 1.25-2.5 4.38-6.87 4.37-3.75 5-3.75m10.63 9.37h11.25l.62-2.5-1.87-.62-10 3.12m140.62 15-.63 1.88 3.13-1.25c.41-6.25 1.87-8.96 4.37-8.13h5c0-6.66-1.67-10-5-10-4.17 0-6.46 5.84-6.87 17.5m28.75-16.25c2.5 2.5 6.04 3.96 10.62 4.38l-10.62-4.38m11.25 3.13c.41 1.25 1.66 1.88 3.75 1.87h1.87c.83 0 2.5.63 5 1.88l2.5 6.87c.83.84 1.46 1.25 1.88 1.25 1.66 0 2.5-1.66 2.5-5 0-5.83-3.55-8.33-10.63-7.5h-.62l-6.25.63m41.25 21.25 2.5-3.75a65.96 65.96 0 0 0 3.75-5.63 92.17 92.17 0 0 1 7.5-1.87v-1.25c.41-2.5-.84-3.75-3.75-3.75-4.17 0-7.5 5.42-10 16.25m-35-13.13a9.83 9.83 0 0 0-2.5 3.75c0 2.09 1.25 3.13 3.75 3.13s3.74-1.25 3.75-3.75c0-2.08-1.25-3.12-3.75-3.13h-1.25m16.87 1.25c-1.25 0-2.08.84-2.5 2.5 0 1.67.83 2.5 2.5 2.5 1.67-.83 2.7-1.45 3.13-1.87 0-2.08-1.05-3.12-3.13-3.13m-130 16.88 11.25-3.13c5.42 3.76 9.17 7.92 11.25 12.5l1.88 5 8.12 25c0 1.25 1.04 4.59 3.13 10a64.65 64.65 0 0 1-4.38-12.5l-1.25-6.87-1.25-3.75v-.63c0-1.25.63-1.87 1.88-1.87.83 0 1.45.2 1.87.63l3.13 18.12a74.84 74.84 0 0 1 2.5 5.63c1.25 1.66 2.7 3.75 4.37 6.25l.63 1.87-2.5.63-5-7.5c6.24 15.41 14.58 23.12 25 23.12 17.08 0 25.62-6.04 25.62-18.13 0-.83-2.3-7.7-6.87-20.62-1.67-2.92-2.5-6.67-2.5-11.25 0-4.17.83-7.08 2.5-8.75l1.87-3.13 1.88-3.75c1.66-2.91 5.83-4.37 12.5-4.37 2.5 0 5.41 1.25 8.75 3.75-.42-11.67-5.63-17.5-15.63-17.5-5 0-8.13 2.08-9.37 6.25h-1.25c.41.83.62 2.7.62 5.63 0 2.5-.83 3.75-2.5 3.75h-1.25c-.42-.42-.62-.84-.62-1.25l.62-8.75-1.25-.63-2.5-3.75c-1.67 0-3.96 1.46-6.87 4.38-2.5 2.91-3.96 4.79-4.38 5.62-2.92 2.92-4.38 7.92-4.37 15v6.88c.41 2.5.83 5.2 1.25 8.12.41-12.92 1.45-19.38 3.12-19.38.42.42 1.25.63 2.5.63-2.08 8.33-3.13 13.13-3.12 14.38 0 3.33.83 6.87 2.5 10.62l-3.13.63c.83 3.75 2.92 7.29 6.25 10.62 1.25 2.5 1.87 4.17 1.88 5-.42.42-1.88 1.04-4.38 1.88l-3.12-3.13-3.13-11.25-3.12-8.75a63.51 63.51 0 0 1-1.25-12.5v-11.25c-2.09-6.25-5.42-11.04-10-14.38-4.17 1.67-6.26 5.63-6.25 11.88h-2.5c-1.25 0-2.09-1.46-2.5-4.38-2.5-9.58-8.13-14.37-16.88-14.37-7.5 0-12.08 4.58-13.75 13.75m121.25-9.38c-2.08 0-3.13.84-3.12 2.5 0 2.5 1.25 3.76 3.75 3.75 2.08 0 3.12-1.04 3.12-3.12 0-2.92-1.04-3.96-3.12-3.13h-.63m-8.12 1.88c-.42-.42-1.25-.63-2.5-.63-2.5 0-3.76 1.05-3.75 3.13 0 2.5 1.04 3.75 3.12 3.75 1.67 0 2.7-2.08 3.13-6.25m16.87 9.38c-.83-1.25-1.67-1.88-2.5-1.88-2.08 0-3.13 1.25-3.12 3.75 0 2.08.83 3.13 2.5 3.13 1.25 0 2.29-1.67 3.12-5m-14.37-.63c-1.67 0-2.5.63-2.5 1.88 0 1.66 1.04 2.5 3.12 2.5 1.25 0 2.3-.63 3.13-1.88v-.63c0-1.25-1.05-1.87-3.13-1.87h-.62m185.62 9.38-5 14.37c-5.42 13.33-13.55 26.04-24.38 38.13-1.67 1.66-2.5 2.91-2.5 3.75v1.25l5 6.87c2.08-1.25 3.12-2.5 3.13-3.75v-3.13l1.87-1.25 1.88 5 2.5 1.25 1.87 2.5c.83.84 1.67 1.25 2.5 1.25 7.92 0 11.88-3.54 11.88-10.62 0-2.92-.21-4.8-.63-5.63-1.67 5.42-4.17 8.13-7.5 8.13-2.5 0-4.38-1.46-5.63-4.38-1.25-2.91-1.87-5.2-1.87-6.87 0-2.08.63-4.17 1.88-6.25l7.5-11.25 3.12-7.5 2.5-10c.83-3.75 1.46-7.7 1.88-11.88m-448.13 4.38-8.12 8.13c4.17-3.75 7.5-5.63 10-5.63l4.38.63-.63-1.88-5.62-1.25m-6.88 53.75c2.5 2.5 5.62 3.96 9.38 4.38 4.16-2.92 6.24-5.42 6.25-7.5 0-2.92-.21-4.8-.63-5.63.42-.42 1.04-.63 1.88-.63.83 0 2.29.63 4.37 1.88v-3.13c0-4.16-1.25-8.12-3.75-11.87l-6.87-6.25v-.63c0-2.5 1.04-3.75 3.12-3.75 1.25 0 2.7.84 4.38 2.5l6.87 16.25c4.17 6.25 11.67 10.42 22.5 12.5l-.62-6.25 13.75 1.25c3.33 0 5.83-3.33 7.5-10l-1.88-.62c-3.75 2.5-7.08 3.75-10 3.75-7.92 0-14.58-3.33-20-10l-16.87-20.63c-1.67-2.91-4.8-4.37-9.38-4.37-7.08 0-10.62 3.75-10.62 11.25 0 2.92.2 5 .62 6.25l5 23.75c0 1.67-1.67 4.17-5 7.5m316.25-21.25c-1.67-2.92-2.5-5.63-2.5-8.13 0-2.91 2.3-4.79 6.88-5.62-2.09-2.08-3.76-3.13-5-3.13-4.17 0-6.26 2.09-6.25 6.25 0 2.5 2.29 6.05 6.87 10.63m-13.12-11.88c-3.34.84-5 1.67-5 2.5 0 2.09 1.45 3.13 4.37 3.13h3.13l-2.5-5.63m-253.12 3.75c4.58 3.34 8.95 5 13.12 5h18.75c7.08-.41 15.2-.83 24.38-1.25 10.41-.41 19.16-.62 26.25-.62 7.08-.42 12.7-.63 16.87-.63l30-.62-65-4.38c-2.92-.41-8.75 0-17.5 1.25-13.33 2.5-23.96 3.75-31.87 3.75-5.42 0-10.42-.83-15-2.5m355 11.25-4.38-.62c-9.58-.83-14.58-2.5-15-5l-.63-1.88.63-4.37c-.83-.83-2.08-1.25-3.75-1.25h-.63c-3.75-.42-5.62 1.25-5.62 5 0 7.92 5.2 11.88 15.63 11.88 3.33 0 7.91-1.25 13.75-3.75m-321.88 5.62c2.08-4.58 4.37-6.88 6.87-6.88 4.17 0 6.25 1.67 6.25 5 0 7.92-5.83 11.88-17.5 11.88H239.34l-5.63-1.25c-1.25.83-1.88 1.46-1.87 1.88.83.83 2.7 1.25 5.62 1.25l14.38 1.25c5.41 0 10.2-1.46 14.37-4.38 4.17-3.33 6.25-7.08 6.25-11.25 0-5.83-4.38-8.75-13.12-8.75-6.26 0-9.38 1.67-9.38 5 0 1.67.63 3.75 1.88 6.25M221.2 592.3l-1.25 4.37a78.88 78.88 0 0 0 26.25 4.38c26.67 0 46.67-10 60-30l-5-.63h-5.62c-1.25-.42-4.38 3.54-9.38 11.88-5.83 10-18.54 15-38.12 15-6.67 0-15.63-1.67-26.88-5m57.5 6.25-.62 1.25c10-.84 20.2-4.59 30.62-11.25 6.25-3.75 10.63-5.63 13.13-5.63 2.91 0 5.83.83 8.75 2.5l3.12 3.75c.83 3.33 1.25 4.8 1.25 4.38 0 3.33-1.67 5-5 5l-3.75-1.25-7.5-6.25-5.62 2.5 8.75 3.75 6.25 3.75c3.33.83 5.2 1.25 5.62 1.25 7.08 0 10.63-3.34 10.63-10 0-3.34-2.92-6.25-8.75-8.75v-1.88c4.16 0 6.66-1.67 7.5-5l-6.25-.63-4.38-1.87c-.83-.42-4.17-.63-10-.63-2.5 0-5.2.84-8.12 2.5a32.3 32.3 0 0 0-7.5 4.38 68.12 68.12 0 0 0-5.63 5l-2.5 1.88c-.83.83-2.5 1.87-5 3.12-2.08 1.25-5.2 2.92-9.37 5-1.67.42-3.55 1.46-5.63 3.13m-81.87-10a74.76 74.76 0 0 1 2.5 5.62 22.35 22.35 0 0 1 1.87 5.63c3.75-1.25 5.62-2.92 5.63-5 0-.84-1.88-1.88-5.63-3.13-1.25-.42-2.7-1.46-4.37-3.13m187.5 11.88 20-1.25-3.13-3.13-9.37 3.75-7.5.63m180.62-426.88 6.25-.63c6.66 0 6.45 1.05-.63 3.13-4.58 1.67-7.7 2.5-9.38 2.5 1.25 0 3.55-.63 6.88-1.88s6.04-1.87 8.13-1.87c-2.92 0-5.42.62-7.5 1.87-1.67 1.25-2.71 1.88-3.13 1.88l-2.5 1.25c-2.08 0-6.25 1.88-12.5 5.62.83-.83 1.46-2.5 1.88-5 .83-2.91 2.29-3.95 4.37-3.12l8.13-3.75m33.75 52.5 6.87 5c5.42 5.42 8.12 9.17 8.13 11.25a7.87 7.87 0 0 0-3.13-1.88c0 1.25-.42 1.88-1.25 1.88-1.25 0-2.5-2.08-3.75-6.25-.42-2.08-1.88-4.37-4.38-6.88l-2.5-3.12m-20 1.87 1.88 6.25 1.88-3.12-3.75-3.13m-33.75 16.25-4.38-6.25v-.62c0-.42.42-1.04 1.25-1.88v.63l3.13 8.12m45-13.12 1.25 1.25a9.84 9.84 0 0 1 2.5 1.87c-.84 3.34-2.3 5.21-4.38 5.63-2.08.42-2.7 1.25-1.88 2.5v-6.25l2.5-5m-39.37.62-5 17.5c2.08-4.58 2.5-6.87 1.25-6.87v-3.75a10.2 10.2 0 0 1-.63-2.5c1.67-2.5 3.13-3.96 4.38-4.38l-3.75 7.5 3.75-7.5m46.25 9.38h1.88l-3.13 10-3.75-7.5 5-2.5m3.13 5.62-.63 1.25 1.25-.62-.63 2.5.63.62-.63-3.75m-404.38 6.88-1.87 6.25-1.87 5-1.25 5h-.63c-1.67 0-2.5-.63-2.5-1.88v-.62l5-13.13 2.5-1.25.63.63m425 16.25-2.5-3.75-1.25 1.25h-1.25l-1.25-1.25-.63-2.5 4.38 2.5v-1.88l2.5 5.63m0 6.87-7.5-5.62 4.37-2.5 3.13 8.12M171.83 289.8l-1.25-5 1.25 7.5 10 8.75 7.5-6.88c-1.25.84-3.34 1.46-6.25 1.88-.84 0-2.71-.83-5.63-2.5-4.58-5.42-6.46-6.67-5.62-3.75m415.62 14.37v-3.75h-1.88l1.88 3.75m7.5 15 3.12-8.12c-.83 2.08-1.67 3.13-2.5 3.12-.42 1.25-.63 2.5-.63 3.75v1.25m-364.38 11.88-8.12 7.5-.62-11.88h1.87l-3.12-1.25 10 5.63m-6.88 3.12c1.67 0 2.5-2.5 2.5-7.5 0 2.5 1.46 3.96 4.38 4.38l-8.13 7.5 1.25-4.38m7.5 7.5.63-6.87 1.87 6.25-2.5.62m0 1.25 2.5 3.13c-.83 1.25-2.3 1.88-4.37 1.87h-.63l2.5-5m19.38 25-2.5.63-1.88-.63 2.5-.62-1.87-5 1.87-.63 1.88 6.25m4.37-5.62.63 3.12-5.63 1.25 3.75-5 1.25.63m140.62 48.12-1.87 5v8.75l-2.5 8.13-1.25 4.37-1.25.63h-5a15.9 15.9 0 0 0 3.75-3.75c1.66-2.08 2.91-5 3.75-8.75l1.25-11.88-.63-2.5h3.75m183.75 4.38h14.38l-16.25-1.25-1.88 1.87c.83-2.08 2.7-3.12 5.63-3.12l-5.63 3.12 3.75-.62m8.75-1.88-6.87-.62 14.37 3.12c.83 0 1.46-.2 1.88-.62 0-.42-2.3-1.04-6.88-1.88-4.17-.83-7.3-1.04-9.37-.62l4.37.62 3.13 1.88c6.66 1.25 10.41 1.46 11.25.62.83-.41-.63-1.25-4.38-2.5a28.32 28.32 0 0 0-10-1.87c-5.42 0-8.75 1.46-10 4.37l8.75-3.12-10 1.87a111.5 111.5 0 0 1 6.88-1.87c.41 0 1.04.2 1.87.62h5m-201.88 3.13-4.37 14.37 4.37-14.37m-155 5.62 17.5 5-2.5-1.25h-10.62l-4.38-3.75m350 11.25c7.92 7.92 13.13 11.88 15.63 11.88.41 0 .62-.42.62-1.25-6.25-3.75-8.75-5.62-7.5-5.63a8 8 0 0 0 5 3.13l2.5 2.5-8.75-7.5-15-10.63 7.5 7.5m-143.75 5.63 10.63-5-1.88 10-8.75-2.5h-3.12c-1.25 0-2.5.2-3.75.62h-4.38l-.62-1.25 1.25-1.25 1.87-.62h8.75m11.88 18.12v-.62a45.02 45.02 0 0 0-5.63-6.88c-1.67-2.5-5.83-3.54-12.5-3.12l-6.25.62-3.12-1.25c2.91-1.66 5.41-2.5 7.5-2.5 6.66 0 13.33 4.59 20 13.75m-78.75 40h6.87l-.62.63c0 .42-.42 1.04-1.25 1.87v.63c-.42.42-1.05.62-1.88.62-1.67 0-3.33-.83-5-2.5l1.88-1.25m6.25 5.63-5 4.37.62-.62h-1.25c-.83 0-1.67-.42-2.5-1.25v-1.25c0-.83.2-1.25.63-1.25h7.5m-8.13 5 3.13 2.5h-3.13v-2.5m193.75 5.62 1.25 2.5c-9.17 3.34-12.7 5-10.62 5v-1.87l9.37-5.63m-5.62 11.88 10-5.63-.63 6.25-2.5-2.5c-.83 3.34-2.3 5-4.37 5-.84 0-1.67-1.04-2.5-3.12m8.75 8.75h5.62l-3.12 3.75-2.5-1.25v-2.5m-6.25.63 3.75 5.62h-2.5c-1.25 0-2.09-.2-2.5-.63 0-1.66.62-2.5 1.87-2.5l-.62-2.5m-171.25 10-1.88 8.75c.42 2.09.63 3.75.63 5 .41.84.62 1.67.62 2.5l-1.25 1.25c-2.08 0-2.7-1.66-1.87-5v-2.5l.62-8.75 1.25-1.25h1.88m186.88 3.13.62 1.88-3.75 1.87 1.25-1.25c0-.42-2.08 0-6.25 1.25-4.17.83-7.3 1.67-9.37 2.5.41.42 1.04.63 1.87.63.42 0 .83.2 1.25.62v-2.5c7.08 0 11.25-.83 12.5-2.5.83-.83.83-1.88 0-3.13l1.88.63m-391.25 9.38-8.75 2.5c.41-.42.62-1.46.62-3.13s.2-2.92.63-3.75l5 1.25 2.5 3.13m175.62 2.5 4.37 1.25 3.13 13.75-2.5.62-1.88-5-3.12-10.63M196.8 574.8l4.37 10.63 1.25-.63-5-5.63c-1.67-1.66-2.5-2.7-2.5-3.12l.63-1.25h1.25m286.25 5.63-6.25 3.75 1.87-3.13 1.88-1.25-5.63-1.88-6.25-1.25.63-1.87 13.75 5.63m17.5.62 8.75 3.13 2.5 3.12c.41.42.62.83.62 1.25 0 .83.2 1.46.63 1.88 0 .83-1.25 1.25-3.75 1.25.41 0-2.09-2.09-7.5-6.25a36.78 36.78 0 0 0-3.75-3.13c-1.25-1.25-1.88-2.08-1.88-2.5.42-1.25 1.04-1.88 1.88-1.88.83 0 1.66 1.05 2.5 3.13m-108.75 0 2.5 3.13-9.38 4.37 1.25-4.38 5.63-3.12m-1.25 8.75 6.25-3.13a95.38 95.38 0 0 0-1.88 5v1.88c3.33-.83 2.5-1.25-2.5-1.25-1.25 0-1.88-.42-1.87-1.25v-1.25m138.12.63c2.08 2.08 3.12 3.33 3.12 3.75v1.25c0 .83-.2 1.87-.62 3.12l-2.5-8.13m5.62 1.25c3.33 0 5.2.84 5.63 2.5a6.06 6.06 0 0 0 2.5 3.75c-.84.84-2.92 1.25-6.25 1.25l-1.88-.62v-6.88m6.88 0 1.25 1.88 5.62 3.13-6.25 1.25-.62-6.25" transform="translate(-146.86 -119.79)"/>
</svg>
