<svg xmlns="http://www.w3.org/2000/svg" viewBox="0 0 500 500">
  <path class="letter" d="M 115.01 52.5 C 120.84 52.08 125.43 51.67 128.76 51.25 C 130.01 50.83 131.89 50.62 134.39 50.62 C 139.39 50.63 141.89 52.08 141.89 55 C 141.89 56.67 137.93 59.58 130.01 63.75 C 122.09 68.33 117.93 73.96 117.51 80.62 L 116.89 90 L 107.51 95 C 102.51 97.5 100.01 101.67 100.01 107.5 C 100.01 109.58 101.05 113.33 103.14 118.75 L 106.88 121.87 L 117.51 121.25 L 121.88 123.75 L 127.51 123.12 L 155.64 193.75 C 158.14 197.08 159.39 199.37 159.39 200.62 C 159.39 201.46 158.97 202.29 158.14 203.12 L 141.89 213.12 L 135.64 215.62 L 131.26 217.5 C 130.43 218.33 129.59 218.75 128.76 218.75 C 127.09 218.75 126.05 217.5 125.64 215 L 108.14 172.5 L 81.89 103.12 L 71.89 83.75 L 67.51 79.37 L 53.76 67.5 L 34.39 60.62 C 30.22 58.95 28.13 56.67 28.13 53.75 C 28.55 52.08 31.05 51.25 35.63 51.25 L 40.01 51.87 L 59.38 52.5 Z M 389.38 68.75 C 386.87 67.08 384.58 66.04 382.5 65.62 C 380.42 64.79 378.54 64.17 376.87 63.75 C 364.37 61.25 358.12 58.54 358.12 55.62 C 358.12 52.7 361.67 51.67 368.75 52.5 L 400.62 55 L 465.62 53.75 L 466.87 55 L 466.87 56.25 C 466.87 57.08 466.46 57.92 465.62 58.75 L 443.12 67.5 C 434.79 70.83 428.54 76.25 424.37 83.75 C 419.79 90.83 413.54 105.21 405.62 126.87 L 404.37 129.37 C 404.37 130.21 403.96 131.46 403.12 133.12 C 399.79 132.29 397.29 130.21 395.62 126.87 L 391.87 120 C 391.04 116.67 390.62 115.21 390.62 115.62 C 390.62 113.12 391.87 108.75 394.37 102.5 C 396.87 96.25 398.12 91.46 398.12 88.12 C 398.12 84.79 396.87 80.21 394.37 74.37 L 389.37 68.75 Z M 147.5 58.12 C 147.5 61.04 145.83 63.54 142.5 65.62 L 132.5 70.62 L 131.25 71.87 C 130.83 71.87 130.41 72.29 130 73.12 C 125.41 77.71 123.54 81.46 124.37 84.37 L 124.37 88.75 L 119.37 88.75 C 120.62 77.92 125.41 69.58 133.75 63.75 C 137.49 63.33 140.83 61.25 143.75 57.5 L 145 54.37 C 146.66 55.62 147.5 56.87 147.5 58.12 Z M 471.87 61.87 C 471.86 64.38 470.62 65.83 468.12 66.25 L 444.99 75 C 443.32 75.83 441.87 76.87 440.62 78.12 C 437.7 81.45 435.41 84.17 433.74 86.25 L 429.99 90 L 428.12 93.75 L 423.12 102.5 L 420.62 109.37 L 411.87 131.25 L 409.99 137.5 L 406.24 134.37 L 413.11 115 L 418.11 100.62 L 421.24 95 L 428.74 83.12 L 429.36 81.87 C 432.28 76.45 438.53 72.08 448.11 68.75 C 450.473 68.123 452.775 67.286 454.99 66.25 C 456.897 65.495 458.772 64.661 460.61 63.75 L 466.86 60.62 L 467.49 58.75 L 469.37 55 C 471.03 57.92 471.87 60.21 471.87 61.87 Z M 383.12 68.75 C 387.28 71.25 389.37 73.12 389.37 74.37 L 389.37 75 L 380.62 71.87 L 367.49 68.75 C 362.49 67.5 358.74 64.17 356.24 58.75 Z M 36.87 64.37 L 45.62 67.5 C 51.041 69.169 55.833 72.435 59.37 76.87 C 58.11 76.46 57.07 76.04 56.24 75.62 L 53.74 74.37 C 44.99 71.46 30.41 64.38 28.74 60.62 Z M 133.75 118.12 L 137.5 126.87 L 140 135 L 165 196.25 L 161.25 198.75 L 150.62 176.25 L 129.99 123.12 L 132.49 119.37 L 133.74 118.12 Z M 289.99 346.88 C 289.57 346.05 289.36 344.38 289.36 341.88 C 289.36 340.21 290.61 337.09 293.11 332.5 C 313.11 300.83 339.57 243.54 372.49 160.62 C 375.41 161.04 377.91 161.46 379.99 161.87 C 382.344 162.248 384.651 162.878 386.87 163.75 L 390.62 165 L 373.12 209.37 L 363.12 232.5 C 357.317 244.907 351.273 257.199 344.99 269.37 C 339.99 279.79 335.82 288.54 332.49 295.62 L 306.87 349.37 L 303.12 357.5 L 302.49 358.12 C 300.41 358.13 297.91 356.04 294.99 351.87 L 289.99 346.87 Z M 393.11 166.88 L 394.36 165.63 L 395.61 165.01 L 396.24 165.63 C 396.66 165.63 397.07 165.84 397.49 166.26 L 397.49 167.51 C 397.49 167.09 397.07 168.13 396.24 170.63 C 392.07 181.05 388.11 190.84 384.37 200.01 C 381.175 208.812 377.841 217.563 374.37 226.26 C 371.775 231.42 369.274 236.628 366.87 241.88 C 365.447 245.533 363.777 249.085 361.87 252.51 L 338.12 302.51 L 329.99 317.51 L 326.87 325.63 C 323.911 331.962 320.783 338.215 317.49 344.38 C 314.99 349.8 312.7 354.39 310.62 358.13 C 309.78 360.22 308.95 361.26 308.12 361.26 C 306.45 361.26 305.41 361.05 304.99 360.63 L 373.74 215.63 Z M 170.01 212.5 L 223.14 324.38 L 258.14 391.26 L 259.39 391.88 L 257.51 396.26 L 254.39 392.51 L 245.01 375.01 L 243.76 373.76 L 239.39 365.01 C 237.71 361.68 236.26 358.97 235.01 356.88 C 234.416 354.909 233.576 353.021 232.51 351.26 L 227.51 342.51 L 224.39 335.63 L 221.89 331.88 L 215.64 318.76 L 211.89 311.88 L 205.01 298.13 L 193.14 273.13 L 192.51 270.63 L 190.64 266.88 L 187.51 260.63 L 181.89 248.76 C 181.516 246.808 180.884 244.915 180.01 243.13 L 177.51 238.13 L 170.63 221.88 L 169.38 218.76 C 168.55 216.26 168.13 215.22 168.13 215.63 C 168.13 214.81 168.76 213.76 170.01 212.51 Z M 185.63 264.37 L 202.51 298.75 L 211.26 316.87 L 240.01 373.13 L 250.01 390.63 L 253.76 398.13 C 254.444 398.447 255.075 398.869 255.63 399.38 L 258.13 400.63 C 258.97 400.2 260.22 399.17 261.88 397.5 C 263.97 394.58 267.72 387.5 273.13 376.25 C 274.052 374.843 274.887 373.38 275.63 371.87 L 278.13 365.62 L 286.26 373.12 L 291.26 376.25 L 292.51 378.75 L 255.01 443.12 C 250.43 450.21 247.3 453.75 245.63 453.75 C 243.97 453.75 242.3 451.67 240.63 447.5 L 186.88 346.88 L 188.13 344.38 L 191.88 345.63 C 193.13 348.13 194.18 349.38 195.01 349.38 L 197.51 348.75 C 201.26 344.59 203.14 341.05 203.14 338.13 C 203.13 336.88 202.09 333.55 200.01 328.13 C 198.174 327.016 196.296 325.972 194.38 325 C 193.13 323.76 191.88 322.71 190.63 321.88 C 190.63 321.05 191.26 318.76 192.51 315 C 194.18 310.84 195.01 307.5 195.01 305 C 195.01 296.68 193.55 289.8 190.64 284.38 L 187.51 278.75 L 185.01 275.63 C 182.51 272.71 180.64 271.25 179.39 271.25 C 178.14 271.25 176.89 272.92 175.64 276.25 C 175.047 278.224 174.207 280.116 173.14 281.88 L 172.51 283.75 C 172.09 283.76 169.8 284.38 165.64 285.63 C 161.89 286.46 159.8 286.88 159.39 286.88 C 157.72 286.88 156.05 285.01 154.39 281.25 L 146.26 263.13 L 143.14 255 C 141.05 250 139.18 245.84 137.51 242.5 C 136.128 239.628 134.453 236.907 132.51 234.38 C 138.177 231.549 143.801 228.632 149.38 225.63 C 154.81 222.71 160.01 219.59 165.01 216.25 Z M 297.51 380.63 L 298.14 383.13 L 297.52 384.38 C 297.52 384.8 297.31 385.63 296.89 386.88 L 275.64 422.51 L 266.89 438.14 L 263.14 443.14 C 256.89 453.14 253.14 458.14 251.89 458.14 C 251.06 458.14 249.81 457.51 248.14 456.26 L 255.01 448.13 L 288.14 393.13 L 295.64 380.01 Z M 131.25 111.25 C 129.16 110.42 128.12 109.58 128.12 108.75 L 128.12 106.87 L 131.87 111.25 Z"></path>
  <path d="M146.86 619.79v-500h500v500h-500m7.5-7.5h485v-485h-485v485m7.5-7.5V135.41h469.38v469.38H161.86m153.75-455 .63 2.5a46.81 46.81 0 0 0 4.37 5 58.35 58.35 0 0 0 7.5 5v-2.5c-.42-.42-1.88-1.67-4.38-3.75s-3.75-4.37-3.75-6.88c0-3.74 1.88-5.62 5.63-5.62-.42 0 1.46.42 5.63 1.25v-.63c0-4.16-2.71-6.24-8.13-6.25-6.25 0-8.96 2.92-8.13 8.75l.63 3.13m69.38-10.63h-.63c-2.92 0-4.38.84-4.38 2.5 0 1.67 2.09 2.5 6.25 2.5 3.34 0 5-.62 5-1.87v-1.25l-1.25-1.25-5-.63m-198.75 9.38-18.74-2.5 3.75 6.87 8.12 3.13-3.13 5.62c0 .84 1.26 1.25 3.76 1.25 7.5 0 13.95-2.7 19.37-8.12l5-3.13 2.5.63v1.87l-6.25 3.13-5 4.37-3.75 1.88c-.83.83-1.25 1.67-1.25 2.5 0 .83.83 1.25 2.5 1.25 2.08 0 5.2-2.08 9.38-6.25.83-.83 6.45-3.75 16.87-8.75l7.5-3.75h1.88l4.37.62v1.88h-3.13l-4.37 1.25-7.5 3.12v1.25c3.75 0 5.62.63 5.63 1.88l-.63.62c0 .42-.2 1.05-.63 1.88l.63.62-.63 2.5c0 2.5 2.92 3.76 8.76 3.75h1.87a6.97 6.97 0 0 1 3.13-.62c1.66 0 2.7-.2 3.12-.63l11.88-3.75h6.87c-3.33-2.08-5.63-3.12-6.88-3.12-1.24 0-3.33.62-6.24 1.87-2.5.84-4.17 1.25-5 1.25-2.92-.41-4.38-1.66-4.38-3.75 0-5.83 8.54-8.74 25.63-8.75 16.66 0 31.04 3.55 43.12 10.63l9.38 5.62 5.62 3.13c2.08-2.08 3.12-3.54 3.13-4.38-1.67-1.66-2.92-2.7-3.75-3.12l-11.88-7.5-9.38-5c-18.33-6.67-33.95-10-46.87-10h-5c-2.92.42-5.42.62-7.5.62h-5.63c-3.33 0-5.2.21-5.62.63l-22.5 6.25a33.63 33.63 0 0 1-10.63 1.87l-7.5-.62m294.38-2.5c2.09-.42 4.8 0 8.13 1.25v4.37l-4.38 8.13c.84-.83 2.09-1.67 3.75-2.5 1.67-1.25 3.55-2.7 5.63-4.38a7.77 7.77 0 0 0 2.5-5.62c0-5-2.5-7.5-7.5-7.5s-7.7 2.08-8.13 6.25m-43.75 1.25c3.75-.42 5.63-1.67 5.63-3.75s-1.46-3.12-4.38-3.13c-2.08 0-3.12.84-3.12 2.5 0 1.25.63 2.71 1.88 4.38m-26.88-5c0 2.5 1.25 3.75 3.75 3.75 3.33 0 5-1.46 5-4.38 0-1.25-1.04-1.87-3.13-1.87-3.75 0-5.62.83-5.62 2.5m-55.63.62c0 2.92 1.46 4.38 4.38 4.38 2.5 0 3.75-1.25 3.75-3.75 0-1.67-1.67-2.5-5-2.5-1.67 0-2.7.62-3.13 1.87m45-1.87c-2.5 0-3.75 1.25-3.75 3.75 0 4.58 1.88 6.88 5.63 6.87 3.33 0 5-1.87 5-5.62 0-3.33-2.3-5-6.88-5m130 2.5-7.5 1.87-8.12 3.13-5.63 1.87c-3.33.84-6.66 2.5-10 5-3.33 2.5-7.08 5.42-11.25 8.75-.83.84-2.29 2.5-4.37 5-2.08 2.09-4.58 4.8-7.5 8.13a115.92 115.92 0 0 0-5 7.5c-.83 2.08-1.88 4.8-3.13 8.12l6.88 1.25c11.67-28.75 34.58-42.7 68.75-41.87h3.75c-.42-.42-.63-1.67-.63-3.75s1.25-3.12 3.75-3.13c2.5 0 3.75 1.25 3.75 3.75 0 1.67-1.66 3.13-5 4.38 12.92 1.67 19.38 4.38 19.38 8.12 0 3.34-1.88 5-5.63 5-.41 0-5.2-2.29-14.37-6.87a15.57 15.57 0 0 0-6.88-1.88c-5.41 0-8.12 2.5-8.12 7.5v.63c4.17-2.5 7.5-3.75 10-3.75 1.67 0 2.7.2 3.13.62l13.12 5.63c1.67 1.25 3.96 1.88 6.88 1.87 5.83 0 9.16-2.91 10-8.75l5.62 1.25c-1.25-4.16-2.92-7.08-5-8.75-2.08-1.66-3.54-2.5-4.38-2.5-5-1.25-7.5-2.5-7.5-3.75 0-.41.42-.62 1.25-.62-1.66 0 1.88 1.25 10.63 3.75l1.88.62c7.08 5.84 12.5 8.76 16.25 8.75 7.91 0 11.87-1.04 11.87-3.12 0-.83-.42-1.67-1.25-2.5 7.08-.42 12.3-3.54 15.63-9.38l-.63-1.25c-7.5 2.5-13.13 3.76-16.88 3.75-5.41 0-13.95-1.25-25.62-3.75-10.83-2.5-20-3.33-27.5-2.5l-20.63 1.88m-161.88 6.25c.84 3.33 2.09 5 3.75 5 4.59 0 6.88-2.3 6.88-6.88 0-3.74-1.88-5.62-5.63-5.62-2.91 0-4.58 2.5-5 7.5m104.38-7.5-5 3.12h-9.37c-4.58 0-10.2 2.71-16.88 8.13-8.75 6.25-13.12 12.7-13.12 19.37 0 3.34-1.25 5.21-3.75 5.63l-3.13-5.63-1.87-5.62c-.42-1.67-1.25-2.5-2.5-2.5h-.63a14.69 14.69 0 0 0-5 3.12l-1.87 3.75c-3.33 4.17-5.42 10.42-6.25 18.75 0 2.5-.2 4.38-.63 5.63l.63 11.87 3.13 19.38c.41 2.08.62 4.17.62 6.25.42 2.08.63 4.58.63 7.5 0 9.17-1.67 13.75-5 13.75-2.09 0-3.34-3.75-3.75-11.25l-.63-11.25 1.25-3.13v-1.25l-.63-5.62v-16.88L395 186.04l-3.75-8.75-1.88-3.75c0-1.25-.41-2.3-1.25-3.13-.41-1.25-1.66-2.7-3.75-4.37a94.06 94.06 0 0 0-8.12-6.88l-3.13 8.75H370l.63-.62c0-.42-1.05-2.3-3.13-5.63l-3.13-5c-1.66-1.25-5.83-3.54-12.5-6.87l-8.12-5.63a8.48 8.48 0 0 0-2.5 6.25c0 1.25.63 3.13 1.88 5.63a19.46 19.46 0 0 1 2.5 6.87c-10 0-17.92 4.17-23.75 12.5l-2.5 5.63-4.38 11.87c-2.5 7.09-7.08 10.63-13.75 10.63-3.33 0-5-1.25-5-3.75l1.25-3.75c-.42-.42-.83-.63-1.25-.63l-.63-.62c-2.91 0-4.37 2.5-4.37 7.5 0 5.83 3.54 8.75 10.63 8.75 5.41 0 9.58-2.7 12.5-8.13l11.25-19.37c3.74-5.83 9.79-8.75 18.12-8.75 4.58 0 9.17 1.67 13.75 5l3.13 3.75 3.12 5.62 1.25 5.63 1.25 2.5 1.25 6.25c1.25 7.08 1.87 12.5 1.88 16.25V230.41c0 1.67-.21 3.55-.63 5.63v6.25l.63 15 1.25 5 1.87 2.5 3.13 5c7.5 7.92 14.37 11.87 20.62 11.87 10.83 0 20-4.79 27.5-14.37 7.5-9.58 11.46-21.88 11.88-36.88l1.25-28.12c0-2.5.83-5.42 2.5-8.75a56.91 56.91 0 0 1 5.62-10c2.5-3.33 5.2-6.04 8.13-8.13 2.91-2.08 5.62-3.12 8.12-3.12h11.88l3.75-5 1.87-5.63-6.88-3.75c-.41-.41 0-2.29 1.25-5.62s1.88-5.42 1.88-6.25c0-1.67-1.04-2.92-3.13-3.75m-47.5 16.25 5-.63c1.67-2.91 2.5-5.62 2.5-8.12 0-3.33-1.87-5-5.62-5-2.08 0-3.13.62-3.13 1.87 0-.41.42 1.05 1.25 4.38v7.5m-38.12-8.75c-3.33 0-5 1.04-5 3.12 0 4.17 1.87 6.26 5.63 6.25 4.16 0 6.24-1.87 6.25-5.62 0-2.92-1.88-4.17-5.63-3.75h-1.25m28.75 1.87a8.11 8.11 0 0 0-7.5 4.38v1.25c0 2.08 2.08 3.13 6.25 3.12 4.58 0 6.87-1.87 6.88-5.62 0-2.08-1.88-3.12-5.63-3.13m-133.75 5-8.13 4.38-.62 1.25c0 2.92 1.46 4.38 4.38 4.37h1.25c.41-.41.62-.83.62-1.25l1.88-2.5a4.24 4.24 0 0 1 3.12-1.25c5.42 0 16.04 4.17 31.88 12.5-5-5-15-10.2-30-15.62a33.98 33.98 0 0 1-4.38-1.88m118.75 2.5v-.62h-1.88c-3.75-.42-5.62 1.46-5.62 5.62 0 4.17 2.08 6.26 6.25 6.25 4.58 0 6.87-2.08 6.88-6.25 0-2.5-1.88-4.16-5.63-5m96.88 10c1.25 0 3.54-.2 6.87-.62 3.33-.83 5.42-1.25 6.25-1.25l8.13.62c.41 0 .62-.62.62-1.87.42-1.67-1.04-2.5-4.38-2.5-2.5 0-5 .62-7.5 1.87l-5 1.88-5 1.87m103.75-4.37c-1.66 0-2.5.42-2.5 1.25 0 2.08 1.25 3.13 3.75 3.12.84 0 1.67-.41 2.5-1.25l.63-1.25c0-1.25-1.46-1.87-4.38-1.87m-394.38 7.5-19.37-.63-4.38-.62c-4.58 0-7.08.83-7.5 2.5 0 2.92 2.09 5.2 6.26 6.87l19.37 6.88 13.75 11.87 4.38 4.38 10 19.37 26.25 69.38 17.5 42.5c.41 2.5 1.45 3.75 3.12 3.75.83 0 1.67-.42 2.5-1.25l4.38-1.88 6.25-2.5 16.25-10c.83-.83 1.25-1.66 1.25-2.5 0-1.25-1.25-3.54-3.75-6.87l-28.13-70.63-5.63.63-4.37-2.5-10.63.62-3.74-3.12c-2.09-5.42-3.13-9.17-3.13-11.25 0-5.83 2.5-10 7.5-12.5l9.38-5 .62-9.38c.42-6.66 4.58-12.29 12.5-16.87 7.92-4.17 11.88-7.08 11.88-8.75 0-2.92-2.5-4.37-7.5-4.38-2.5 0-4.38.21-5.63.63-3.33.42-7.92.83-13.75 1.25H206.23m330 16.25 5 5.62c2.5 5.84 3.75 10.42 3.75 13.75 0 3.34-1.25 8.13-3.75 14.38s-3.75 10.62-3.75 13.12c0-.41.42 1.05 1.25 4.38l3.75 6.87c1.67 3.34 4.17 5.42 7.5 6.25.84-1.66 1.25-2.91 1.25-3.75l1.25-2.5c7.92-21.66 14.17-36.04 18.75-43.12 4.17-7.5 10.42-12.92 18.75-16.25l22.5-8.75c.84-.83 1.25-1.67 1.25-2.5v-1.25l-1.25-1.25-65 1.25-31.87-2.5c-7.08-.83-10.63.2-10.63 3.12s6.25 5.63 18.75 8.13c1.67.42 3.55 1.04 5.63 1.87 2.08.42 4.37 1.46 6.88 3.13m-244.38-14.38-1.25 3.13c-2.92 3.75-6.26 5.83-10 6.25-8.34 5.83-13.13 14.17-14.38 25h5v-4.38c-.83-2.91 1.04-6.66 5.63-11.25.41-.83.83-1.25 1.25-1.25l1.25-1.25 10-5c3.33-2.08 5-4.58 5-7.5 0-1.25-.84-2.5-2.5-3.75m105.62 5.63 2.5 1.25v-1.88c.41-2.91-.21-4.37-1.88-4.37-.83 0-1.25.83-1.25 2.5 0 1.25.2 2.08.63 2.5m218.75-5-1.88 3.75-.63 1.87-6.25 3.13a74.15 74.15 0 0 1-5.62 2.5 41.15 41.15 0 0 1-6.88 2.5c-9.58 3.33-15.83 7.7-18.75 13.12l-.62 1.25-7.5 11.88-3.13 5.62-5 14.38-6.87 19.37 3.75 3.13 1.88-6.25 8.75-21.88 2.5-6.87 5-8.75 1.87-3.75 3.75-3.75c1.67-2.08 3.96-4.8 6.88-8.13 1.25-1.25 2.7-2.29 4.37-3.12l23.13-8.75c2.5-.42 3.74-1.87 3.75-4.38 0-1.66-.84-3.95-2.5-6.87m-126.25 1.25-1.88 2.5-2.5 4.37.63 6.25-.63 2.5-1.88 3.75c-2.08 2.09-5.2 2.92-9.37 2.5l-13.13-1.25-3.75 1.25-6.87 2.5c-3.75 1.25-5.63 5.63-5.63 13.13 0 4.17 1.88 6.46 5.63 6.87l-1.25-6.25c0-7.08 4.58-10.62 13.75-10.62l20 .62c2.92 0 5.42-2.08 7.5-6.25 2.5-4.16 3.75-7.91 3.75-11.25 0-2.91-1.46-6.45-4.38-10.62m13.13 2.5c2.5 5.42 6.25 8.75 11.25 10l13.13 3.12 8.75 3.13v-.63c0-1.25-2.09-3.12-6.25-5.62l-26.88-10m-327.5 1.87c1.67 3.76 3.96 6.26 6.88 7.5 3.33 1.25 9.37 3.34 18.12 6.25l2.5 1.25c.83.42 1.87.84 3.13 1.25a28.2 28.2 0 0 0-13.75-9.37l-8.75-3.13-8.13-3.75m161.88 11.88 3.13 6.87 1.25 3.13 2.5 6.87 1.25 3.13a75.5 75.5 0 0 1 3.12 16.87c.83 5.84 1.46 12.09 1.88 18.75-.42 1.25-.84 2.3-1.25 3.13v.62c0 .84 1.45 1.25 4.37 1.25h1.88l.62-10c.42-17.91-4.17-36.66-13.75-56.25-2.08-3.74-3.96-5.62-5.63-5.62-2.5 0-3.75 1.04-3.75 3.12 0 2.5 1.46 5.21 4.38 8.13m276.25-.63.63 7.5v3.75c.41 1.67.83 4.17 1.25 7.5.41 1.25.62 3.13.62 5.63 0 2.92-1.25 9.58-3.75 20-.83 3.33-1.46 5.63-1.88 6.87 2.5 3.34 4.17 5 5 5 2.5 0 4.8-6.24 6.88-18.75.42-2.08.63-4.16.63-6.25.41-2.5.62-5 .62-7.5 0-5-.42-9.16-1.25-12.5-1.25-5.41-1.88-8.74-1.88-10v-.62c0-2.08-.62-3.12-1.87-3.13-.83 0-1.46.21-1.88.63l-3.12 1.87m-445 18.75v3.13l-1.25 6.25v8.75c0 2.92.2 5.42.63 7.5l-.63-2.5 1.88 13.12 1.25 5 2.5 8.13c1.66 1.67 2.5 3.13 2.5 4.37 0 .42-.42 1.05-1.25 1.88-2.09 1.25-3.13 2.7-3.13 4.37 0 2.92 1.67 6.67 5 11.25 5.42 5.42 8.12 10.42 8.13 15 0 .42-.42 1.05-1.25 1.88l-3.13 3.75-9.37-.63-4.38-5v8.13c4.17 4.17 8.33 6.25 12.5 6.25 4.58 0 7.5-1.25 8.75-3.75l3.75-10 3.13 1.25.62 1.25c.42 1.67 1.25 2.5 2.5 2.5 1.67 0 2.5-1.87 2.5-5.63 0-5-2.08-9.37-6.25-13.12l-1.87-1.25c-3.76-2.92-5.63-5.83-5.63-8.75 0-1.67 1.04-2.5 3.13-2.5 2.08 0 4.37.62 6.87 1.87l5 4.38 3.13 2.5c4.16 4.17 9.37 6.04 15.62 5.62h6.25l1.88-4.37 5-1.88c4.16-1.66 6.24-5.62 6.25-11.87 0-9.58-4.59-14.38-13.75-14.38h-1.88c4.58 3.34 6.87 7.3 6.88 11.88l-.63 3.12c-3.33 2.5-5.83 3.76-7.5 3.75h-3.75a43.58 43.58 0 0 0-5-1.25l-8.75-6.25-4.37-5.62-3.75-3.13-6.88-1.25c-1.25 3.34-2.5 5-3.75 5h-1.87l-1.25-.62c-7.09-9.58-10.63-20.2-10.63-31.88 0-10.41 1.25-18.33 3.75-23.75 2.5-5.83 3.75-9.16 3.75-10 0-2.08-1.04-3.12-3.12-3.12l-1.25 1.25c-5.42 5.83-7.71 12.3-6.88 19.37m433.12 16.25a29 29 0 0 1-18.13 6.25c-2.5-1.66-3.75-3.33-3.75-5 0-1.25.21-2.08.63-2.5 2.08-4.58 4.37-7.08 6.88-7.5l8.12-3.75c2.92-1.25 4.37-2.91 4.38-5l-1.25-7.5-4.38 7.5-5 3.75c-5 2.09-9.38 5.21-13.13 9.38a37.3 37.3 0 0 0-1.87 11.87c-3.33 3.34-4.8 6.26-4.38 8.75v4.38l6.25-3.13c1.67-.83 2.92-1.25 3.75-1.25l2.5-1.25 14.38-2.5c10.42-1.66 15.63-12.29 15.63-31.87 0-1.25-.42-3.54-1.25-6.88l-3.13-6.25-1.25 1.88 2.5 8.12v2.5c0 7.09-2.5 13.75-7.5 20m-416.25-32.5-3.12 12.5-.63 5c.42 9.17 2.92 17.09 7.5 23.75 5 6.26 10.63 9.38 16.88 9.38 2.08 0 5.41-.63 10-1.88v-5l5-6.87v-1.88l.62-1.87c0-2.5-1.25-5.42-3.75-8.75-2.08-3.33-4.38-5-6.87-5-2.09 0-4.38.62-6.88 1.87 6.25 2.09 9.37 4.8 9.38 8.13 0 6.25-2.92 8.96-8.75 8.12h-3.75l-6.25-3.75c-6.26-6.24-9.38-13.12-9.38-20.62 0-2.08.2-3.54.63-4.38l1.25-6.87-1.88-1.88m306.88 11.88-5 3.12-4.38 5.63 11.88 3.75 3.13 5.62c1.25 3.34 1.87 5.63 1.87 6.88 0 .83-.2 2.08-.63 3.75 0 1.67-.2 3.54-.62 5.62v9.38l4.38 6.87 2.5 5-3.13 1.88c-2.92 1.67-4.38 5.63-4.38 11.87 0 2.92.21 5 .63 6.25l1.88 4.38 1.87.62c4.17-6.66 10.2-10 18.13-10h2.5l12.5 4.38 9.37 1.25v-1.25l-4.38-1.88.63-4.37c7.92 5.42 15.63 8.13 23.13 8.12 2.91 0 4.58-.83 5-2.5-3.34-.41-6.46-.83-9.38-1.25a33.1 33.1 0 0 1-6.88-1.87l-8.12-3.13-5.63-2.5-10.62-8.75-1.88-3.75 2.5-.62 13.13 10.62c6.67 5.42 17.7 8.13 33.13 8.13 10.41 0 18.33-2.7 23.75-8.13l-4.38.63-5 1.87c-3.33.84-5.83 1.25-7.5 1.25-6.67 0-14.58-1.45-23.75-4.37l-9.38-4.38-8.75-7.5-.62-1.25c-6.25-7.91-9.38-17.7-9.38-29.37 0-4.17.63-7.3 1.88-9.38 3.33-5.83 5-9.16 5-10 0-1.25-1.46-1.87-4.38-1.87-2.5 0-5.2.83-8.12 2.5-2.92 2.92-4.38 5.63-4.38 8.12v2.5c.42.42.63 1.25.63 2.5s.2 2.5.63 3.75h-1.25v-1.87l-1.88 2.5c-.42-.42-.63-1.25-.63-2.5 0-.83-.2-1.46-.62-1.88-1.25-6.24-3.75-10.62-7.5-13.12-3.33-2.5-6.46-3.75-9.38-3.75-1.66 0-2.7.2-3.12.62l-5 1.88m-172.5 3.75.63 1.87c-2.5.42-4.8 4.38-6.88 11.88v3.75c3.33 5.83 5.83 8.75 7.5 8.75 2.08 0 4.37-.63 6.88-1.88-6.26-1.66-9.38-5.2-9.38-10.62 0-5.42 2.92-8.12 8.75-8.13 2.5 0 5.83 2.09 10 6.25a54.36 54.36 0 0 1 3.75 13.13c1.25 5 2.08 10.42 2.5 16.25 1.25-3.75 1.87-6.67 1.88-8.75 0-25-7.5-37.5-22.5-37.5-2.92 0-4.38.62-4.38 1.87 0-.41.42.63 1.25 3.13m147.5-1.25h-4.38 1.88l-3.13.62c-2.08 5.42-3.12 10-3.12 13.75 0 6.67.83 13.13 2.5 19.38 3.75-1.25 5.42-3.33 5-6.25v-13.13l.63-6.87.62-7.5m-192.5 3.12-3.75.63-11.88 4.37c-5 4.59-7.5 9.17-7.5 13.75 0 4.59 1.67 6.88 5 6.88h1.25l3.13-3.13h3.13c3.33 3.34 5.83 5 7.5 5 1.25 0 2.7-1.45 4.37-4.37l-3.13-1.25-1.25-2.5c-.83-2.5-1.25-3.54-1.25-3.13 0-4.58 3.13-6.87 9.38-6.87 4.17 0 8.33 2.08 12.5 6.25l3.75 4.37 1.25 4.38 1.88 10.62-3.13 16.25v3.75l2.5 5.63h1.25c2.92-5.83 4.37-10.42 4.38-13.75 0-2.08-.63-4.58-1.88-7.5-.83-2.92-1.25-5.2-1.25-6.88 0-1.25 1.67-2.29 5-3.12-4.17-18.75-14.58-28.54-31.25-29.38m3.75 19.38-3.75-4.38v1.88c0 .83 1.04 1.67 3.13 2.5h.62m208.75-3.13-6.88 8.13-4.37 2.5a18.8 18.8 0 0 1-8.13 5c-2.5.83-6.25 2.5-11.25 5l-4.37 1.25c-7.08 2.08-12.92 5.42-17.5 10l15.63-5-.63 1.25-8.13 5 7.5 1.25c2.92.83 5.42 1.46 7.5 1.87l6.88 3.13c.42.42 1.87.62 4.38.62 3.74 0 8.54-3.12 14.37-9.37 2.92-2.92 4.37-5 4.38-6.25a4.24 4.24 0 0 0-3.13-1.25l-3.13.62v-1.87c5.42-5.42 8.13-10 8.13-13.75 0-.83-.2-1.87-.63-3.13 0-1.25-.2-2.91-.62-5m-46.88 10 6.25-1.25c2.5 0 4.8 1.67 6.88 5l1.88 3.13c1.25-.42 1.87-1.25 1.87-2.5 0-5-2.3-8.75-6.88-11.25-.83-.83-2.29-1.25-4.37-1.25-3.33 0-5.2 2.7-5.63 8.12m-160 0-1.25 1.25-2.5 3.75 20.63 53.13 10.63 22.5 3.75-2.5-25-61.25-2.5-8.13-3.75-8.75m315.62 5.63c-8.34 2.08-13.13 6.88-14.38 14.37h4.38c2.08-5.83 6.04-8.74 11.87-8.75 6.25 0 11.25 3.13 15 9.38l.63 1.87 3.75 15.63a28.37 28.37 0 0 1-5 14.37l-.63 2.5 3.75 3.13c4.17-7.92 6.25-15.2 6.25-21.88 0-9.16-2.5-16.66-7.5-22.5l-2.5-2.5-6.88-4.37-8.75-1.25m-289.38 2.5.63 6.25c3.75 6.25 7.5 10 11.25 11.25l1.25 1.25-7.5 3.75c-2.5 1.25-3.75 2.5-3.75 3.75 0 2.92 3.96 4.38 11.88 4.37 2.91 0 5.41-.62 7.5-1.87l16.25-7.5c.41-.42 2.7-.63 6.87-.63l14.38.63c-.84-1.25-1.88-1.87-3.13-1.88h-1.88l-8.12-3.75 10 1.88.63-1.88c0-.83-2.92-2.08-8.75-3.75-5.84-2.08-10.63-3.12-14.38-3.12h-6.88l-15.62-3.75-10.63-5m235 6.25 1.25 1.87c.84 2.09 2.5 4.17 5 6.25 10.42 6.67 20.84 10 31.25 10 1.67 0 10-2.29 25-6.87a7.91 7.91 0 0 0 3.75-1.88c0-3.74-1.04-6.04-3.12-6.87l-.63-.63c-2.5 0-5 1.25-7.5 3.75a269.94 269.94 0 0 1-16.25 4.38l-5.62 1.25h-6.88c-11.25-1.67-20-5.42-26.25-11.25m-57.5 26.25 1.88 3.12c.42 2.92 1.67 4.38 3.75 4.38h1.25c-3.75-7.92-5.63-13.13-5.63-15.63 0-3.74 2.92-6.04 8.76-6.87l.62-1.88-3.75-1.25c-6.25 0-9.38 2.92-9.38 8.75 0 2.92.84 6.05 2.5 9.38m-41.87-13.13-5.63.63v3.12l-7.5-.62-.62 2.5 13.13 3.12.62 2.5-9.38-1.87-3.12-.63h-6.25v1.88h.63c3.33-.83 5 0 5 2.5 0 .83-.84 1.25-2.5 1.25l-1.88-.63c1.67 2.92 2.7 5.42 3.13 7.5l1.87 3.75 3.13 13.75 1.87 1.25 2.5 4.38c1.25 2.08 5.2 3.13 11.88 3.12 8.33 0 12.5-2.29 12.5-6.87 0-.42-.42-2.3-1.25-5.63 3.33.42 5.83.84 7.5 1.25h4.37c9.58 0 15.42-3.54 17.5-10.62-7.5 0-15.2-2.5-23.13-7.5l-3.74-2.5-2.5-3.13.62-1.87c2.08-1.25 3.12-2.3 3.13-3.13a14.6 14.6 0 0 0-3.75-2.5l-6.25-3.12h-2.5l-9.38-1.88m136.88 17.5c-5.83 2.09-8.75 5-8.75 8.75 0 4.17 2.92 6.26 8.75 6.25 3.33 0 5-.62 5-1.87 0-.83-.83-1.87-2.5-3.13-1.25-1.25-1.88-2.5-1.88-3.75s.63-2.29 1.88-3.12l13.75-8.13 5-3.12c2.08-2.08 3.12-3.33 3.13-3.75v-1.88l-6.25 4.38c-3.76 2.92-9.8 6.04-18.13 9.37M473.1 271.04l-3.13.62 3.13 8.13 1.25 2.5c2.08 2.08 5.2 3.54 9.38 4.37a30.86 30.86 0 0 0-1.88-3.12 44.52 44.52 0 0 0-1.88-5.63l-3.75-6.87-2.5-1.88-.62 1.88m-135 3.75c-3.33 1.25-5.83 3.13-7.5 5.62l3.13 2.5 2.5.63 1.25 1.25-1.88 3.12-6.25.63-5.63 1.25c-3.33.83-5.41 1.25-6.25 1.25-4.16 0-6.87-.2-8.12-.63l.63 2.5c2.08 2.92 5.62 5.84 10.62 8.75 5 2.5 10 3.76 15 3.75h8.75v3.13l-2.5 5 5 1.25h1.25c4.58 0 8.12-3.12 10.63-9.38l5.62-13.75c.83-2.5 4.17-6.04 10-10.62l-1.88-1.25c-3.75.42-9.79 3.54-18.12 9.37l-2.5-1.87 5.63-4.38 3.75-1.87 5-2.5 7.5-1.88-1.88-2.5a48.7 48.7 0 0 0-19.38-3.75c-4.16 0-8.95 1.46-14.37 4.38m79.38 9.37v1.25l-.63 3.13c-2.08-1.25-3.75-3.54-5-6.88l-1.25.63.63 4.37v1.88l.62 4.37h-.63c-1.66-4.16-3.12-6.87-4.37-8.12h-.63a7.29 7.29 0 0 0-1.87-1.25v3.12c.42.84.83 2.3 1.25 4.38a48.65 48.65 0 0 1 2.5 6.25v10c0 1.67-.2 3.54-.63 5.62l-.62.63-1.88-.63-1.25-.62v-9.38c.42-5-.62-10.41-3.12-16.25l-3.13-2.5c.42 1.25.63 3.34.63 6.25v6.25l-1.88-.62a21.8 21.8 0 0 0-6.25-11.25l4.38-.63-6.25-.62-5-.63c-.42-.41-1.46-.62-3.13-.62-7.5 0-11.25 7.08-11.25 21.25l1.88 5.62c1.25 1.25 2.08 1.88 2.5 1.88l1.88-1.25c1.66-1.25 2.91-1.87 3.75-1.88 1.25 0 1.87.42 1.87 1.25 0-.41-.42 1.05-1.25 4.38l1.88 7.5 2.5 2.5 8.75 5 3.75 4.37 1.25.63 1.25 3.12 1.25 5.63c13.33-3.33 20-11.46 20-24.38 0-1.66-.21-2.91-.63-3.75l-1.25-8.12 3.75 3.12 1.88 1.88 3.12 2.5c1.25-2.92 1.87-5.42 1.88-7.5v-.63c-.84-10-3.34-17.7-7.5-23.12-2.09-2.08-3.34-3.12-3.75-3.13-1.25 0-1.88.63-1.88 1.88 0 .83.63 1.88 1.88 3.12m19.37 182.5 5 5c2.92 4.17 5.42 6.26 7.5 6.25l.63-.62 3.75-8.13 25.62-53.75c3.33-7.08 7.5-15.83 12.5-26.25a1052.3 1052.3 0 0 0 18.13-36.87l10-23.13 17.5-44.37-3.75-1.25a33.23 33.23 0 0 0-6.88-1.88c-2.08-.41-4.58-.83-7.5-1.25-32.92 82.92-59.38 140.21-79.38 171.88-2.5 4.59-3.75 7.71-3.75 9.38 0 2.5.21 4.17.63 5m157.5-180.62 6.25 7.5 2.5 3.12 5.63 5.63 1.87 3.12c3.75 6.26 5.62 11.67 5.63 16.25 0 7.09-2.71 12.09-8.13 15l-3.13.63-6.87.62-.63.63c-.83.83-1.25 1.67-1.25 2.5 0 1.67 1.67 2.5 5 2.5h3.75c4.17 0 7.71-2.08 10.63-6.25 3.33-4.58 5-9.8 5-15.63 0-9.16-3.75-17.91-11.25-26.25l-3.75-4.37c-5-5.42-7.7-8.12-8.13-8.13-1.25 0-2.29 1.05-3.12 3.13m-73.75 49.37-68.75 145c.42.42 1.46.63 3.13.63.83 0 1.66-1.04 2.5-3.13 2.08-3.74 4.37-8.33 6.87-13.75a392.72 392.72 0 0 0 9.38-18.75l3.12-8.12 8.13-15 23.75-50a86.09 86.09 0 0 0 5-10.63 473.2 473.2 0 0 1 7.5-15.62 888.46 888.46 0 0 0 10-26.25c3.74-9.17 7.7-18.96 11.87-29.38.83-2.5 1.25-3.54 1.25-3.12v-1.25c-.42-.42-.83-.63-1.25-.63l-.63-.62-1.25.62-1.25 1.25-19.37 48.75m-314.38-46.87c10.83 7.08 23.54 10.62 38.13 10.62h2.5c1.66 0 3.12-.2 4.37-.62l-1.25-5.63h-7.5c-3.33.84-6.88.84-10.62 0-4.59-1.66-8.13-2.5-10.63-2.5h-6.25c-.83-.41-2.08-.83-3.75-1.25-1.25-.41-2.7-.83-4.37-1.25l-.63.63m288.75 3.75.63 4.37 7.5 6.25 1.25 1.88c.41-.83.62-1.46.62-1.88l.63-.62a47.08 47.08 0 0 0-5-4.38l-5.63-5.62m60 45.62 15 18.75 5.63 6.88 4.37 6.87 1.25 2.5 1.88 4.38.62-5.63c-1.25-5.41-4.17-11.04-8.75-16.87l-1.88-1.88a9.83 9.83 0 0 0-1.87-2.5l-9.38-11.87a19.63 19.63 0 0 0-3.75-5 33.54 33.54 0 0 1-9.37-23.75c0-5.83 3.54-8.75 10.63-8.75 5 0 10 2.5 15 7.5 1.66-1.67 2.5-3.12 2.5-4.38 0-.83-1.46-2.08-4.38-3.75-5.83-3.33-10.63-5-14.38-5-10 0-15 5.21-15 15.63v1.25l1.88 10.62 10 15m-346.25-42.5 3.75 3.13 16.88 8.12c5.41 2.5 8.12 7.92 8.12 16.25 0 10.84-4.38 15.84-13.12 15l-4.38-.62-1.87 1.87c5 2.09 7.7 3.13 8.12 3.13 10 0 15-6.25 15-18.75 0-8.33-2.3-14.38-6.87-18.13-1.25-.83-3.55-1.87-6.88-3.12-2.92-1.67-7.08-3.33-12.5-5-1.25-.83-3.33-1.46-6.25-1.88m283.75 1.88c-3.33 2.5-5 4.17-5 5 0 2.08 3.12 5.2 9.38 9.37 1.66 1.25 2.91 1.88 3.75 1.88h.62c1.25-2.92 1.87-4.58 1.88-5 0-1.67-1.46-3.33-4.38-5a7.29 7.29 0 0 0-1.88-1.25l-3.12-3.13-1.25-1.87m86.88 7.5c-1.67 3.33-2.5 7.92-2.5 13.75 0 3.75.2 5.83.62 6.25l.63.62c.41.84.62 1.67.62 2.5.42.84 1.04 1.88 1.88 3.13l2.5 1.87 3.75-1.87-4.38-10.63v-6.25c0-5 3.54-8.54 10.63-10.62l3.12-1.88c-3.33-2.08-5.63-3.12-6.88-3.12-2.91 0-6.25 2.08-10 6.25m9.38 3.12-1.25 5c12.5-.41 18.75-2.7 18.75-6.87 0-2.08-.83-3.12-2.5-3.13h-1.25c-.83.42-2.5 1.46-5 3.13a14.31 14.31 0 0 1-7.5 1.87h-1.25m-123.75 1.88-2.5 3.12-5.63 3.13v5.62l.63 1.25-5 1.25.63 3.75c4.16 10.42 14.79 15.63 31.87 15.63 2.08 0 3.12-.63 3.13-1.88 0-1.25-2.92-2.29-8.75-3.12-3.76 0-7.5-1.67-11.25-5-3.34-3.75-5-7.5-5-11.25 0-6.67 3.54-10 10.62-10 .42 0 3.33 1.04 8.75 3.12 1.67 2.92 2.5 5.21 2.5 6.88l-.63 3.75c3.34-2.5 5-5 5-7.5 0-8.75-5.62-12.92-16.87-12.5l-4.38.62-3.12 3.13m-140-.63-3.13 3.75-5 5a88.84 88.84 0 0 1-11.87 10 71.09 71.09 0 0 1-11.88 7.5c-1.66.42-3.75 1.46-6.24 3.13l-14.38 6.25c-15.83 7.5-28.96 16.25-39.38 26.25l-5 4.37a62.3 62.3 0 0 0-3.74 7.5 14.53 14.53 0 0 1-2.5 3.75c-5 7.5-8.55 14.8-10.63 21.88l5 1.25 3.13-6.25c7.5-16.25 14.79-27.3 21.87-33.13l8.13-6.25c5-4.58 8.33-7.08 10-7.5l18.12-6.25c26.25-10 44.38-23.33 54.38-40l-6.88-1.25m-115.62 1.25-1.25 1.25c0 .42-.2.84-.62 1.25l-.63 1.25c0 3.34 1.67 5 5 5 2.5 0 3.75-1.04 3.75-3.12 0-3.75-1.88-5.62-5.62-5.63h-.63m389.38 3.75v4.38c0 2.92-1.25 6.46-3.75 10.62-4.58 5-8.33 7.5-11.25 7.5-5.42 0-10.63-3.12-15.63-9.37l-5.62-9.38v5c-.42 2.92.2 5.84 1.88 8.75 4.16 6.67 10 10 17.5 10s13.75-4.16 18.75-12.5c2.08-5 3.12-8.33 3.12-10 0-3.74-.83-5.62-2.5-5.62l-2.5.62m-395 5-3.75-3.12-.62-.63h-1.25c-2.92 0-4.38 1.67-4.38 5 0 3.76 1.25 5.63 3.75 5.63 1.67 0 3.75-2.3 6.25-6.88m-36.25 3.13c-1.25 2.5-1.88 4.58-1.87 6.25 0 1.67.62 2.5 1.87 2.5h1.25-1.87l2.5.62 1.87-6.25c.42-1.25 2.08-1.87 5-1.87s5 1.88 6.25 5.62l2.5 6.25v3.75a37.6 37.6 0 0 1-4.37 18.13l-1.25 4.37c3.33 0 5.2-2.08 5.62-6.25l3.75-14.37.63-3.13c0-13.33-4.8-20-14.38-20-2.08 0-4.58 1.46-7.5 4.38m269.38-3.13v1.88c0 4.58-1.67 8.13-5 10.62a69.78 69.78 0 0 1-9.38 5.63c-2.5 2.5-4.16 6.04-5 10.62l-.62 1.88c0 1.25.63 2.5 1.88 3.75 1.66 2.5 4.16 3.96 7.5 4.37l-2.5 6.25 2.5.63 6.25 1.25c2.08 0 4.16-.63 6.25-1.88l7.5-6.87a6 6 0 0 1 4.37-1.88c2.92 0 4.37 1.46 4.38 4.38 0 2.92-3.13 5.2-9.38 6.87a15.38 15.38 0 0 0-7.5 9.38l3.75.62c-1.25 4.59-1.88 7.5-1.88 8.75 0 6.26 3.75 9.59 11.25 10-2.5-4.16-3.75-7.29-3.75-9.37 0-5.42 2.71-9.58 8.13-12.5l9.38-6.88c1.25-.41 1.87-1.66 1.87-3.75v-5.62l16.88-4.38 1.87-5-16.25 1.88-8.75 1.25c1.25-1.67 1.87-3.12 1.88-4.38 0-2.91-2.3-4.37-6.88-4.37-2.92 0-6.67 1.67-11.25 5-5.42 4.17-9.38 6.25-11.88 6.25-5.83 0-8.75-2.7-8.75-8.13 0-4.16 1.88-6.87 5.63-8.12l8.75-1.88c3.33-.83 5-3.95 5-9.37 0-2.08-2.08-4.37-6.25-6.88m-103.12 8.75c.83 4.17 4.58 7.71 11.25 10.63l1.88.62 1.87-.62 1.25-1.25 6.25-5 5.63-6.25 5-2.5c-.84-.83-1.46-1.25-1.88-1.25-2.5 0-3.96.62-4.38 1.87l-5 4.38c-1.25 1.67-3.95 2.5-8.12 2.5-2.5 0-4.17-.42-5-1.25l-4.38-6.88h-.62c-1.67 0-2.92 1.67-3.75 5m-115-3.75c.83 4.59 2.08 6.88 3.75 6.88s2.5-1.04 2.5-3.13c0-3.33-1.88-5-5.63-5l-.62 1.25m28.75 5c.42-.41 1.67-.62 3.75-.62 1.25 0 2.92 1.04 5 3.12l.63 1.88c0 6.25-3.76 12.5-11.25 18.75l-5 3.75-4.38 4.37c2.08-1.66 3.96-2.7 5.63-3.12 14.16-9.17 21.25-17.7 21.25-25.63 0-5.83-2.92-8.74-8.75-8.75-3.34 0-5.63 2.09-6.88 6.25m121.88-6.25c.42 1.25.63 3.13.63 5.63s-.21 4.17-.63 5a16.7 16.7 0 0 1-3.13 4.37l-3.75 3.75c-5.83 2.92-12.5 4.38-20 4.38h-5.62l-7.5.62 6.88 16.88c1.66 2.08 4.79 3.33 9.37 3.75 2.08.83 5.2 2.5 9.38 5l1.87.62 5.63 7.5 3.12 5v3.13c.83 4.58-.63 6.88-4.38 6.87-4.16 0-6.87-4.16-8.12-12.5l-1.25-1.25 1.25 5-.63 5 .63 6.25c.42 3.76 2.7 5.63 6.88 5.63 3.74 0 6.24-.83 7.5-2.5l.62-1.25v-11.25l5.63.62c.83 0 1.25-.62 1.25-1.87l-.63-3.13-.63-5.62-5-5.63-.62-1.25h6.25c-2.92-8.74-8.33-12.91-16.25-12.5h-2.5a86.02 86.02 0 0 1-8.13 1.88l-.62.62c-2.08 0-3.13-1.25-3.13-3.75 0-4.16 2.5-6.04 7.5-5.62l14.38 3.12h2.5c2.08 0 4.58-.83 7.5-2.5 3.33-1.66 5-3.33 5-5 0-1.25-2.7-1.87-8.13-1.87v-1.88c3.75-3.74 5.63-7.29 5.63-10.62 0-4.58-2.92-8.12-8.75-10.63m-160 1.25c-3.33 0-5 1.88-5 5.63 0 3.33 1.87 5 5.63 5 3.33 0 5-1.46 5-4.38 0-4.16-1.88-6.24-5.63-6.25m322.5 5.63c-1.25 2.5-1.88 4.38-1.88 5.62 0-.41 3.34 2.09 10 7.5l6.25 5 4.38 4.38 4.38 3.75 4.37 4.37 6.25 6.25 7.5 9.38 1.88 3.12 1.25.63c.83 3.33 1.87 5 3.12 5 1.67 0 2.5-.63 2.5-1.88v-1.25a7.22 7.22 0 0 1-1.25-1.87 30.86 30.86 0 0 0-1.88-3.13c0 1.25-.41.21-1.25-3.12a81.84 81.84 0 0 0-11.87-15l-4.38-4.38-9.37-8.75-2.5-1.87-9.38-8.13-8.12-5.62m-333.12 2.5c-1.67.42-2.5 1.46-2.5 3.12 0 3.34 1.25 5 3.75 5 2.08 0 3.12-1.04 3.13-3.12 0-.42-.21-.83-.63-1.25l-3.75-3.75m118.12 0c-1.25 1.25-1.88 2.3-1.88 3.12 0-.41.42.63 1.25 3.13l1.25 3.12 6.88 16.25 2.5 5a22.36 22.36 0 0 1 1.88 5.63l5.62 11.87 3.13 6.25 1.87 3.75.63 2.5 11.87 25 6.88 13.75 3.75 6.88 6.25 13.12 2.5 3.75 3.12 6.88 5 8.75a24.53 24.53 0 0 1 2.5 5.62c1.25 2.09 2.7 4.8 4.38 8.13l4.37 8.75 1.25 1.25 9.38 17.5 3.12 3.75 1.88-4.38-1.25-.62-35-66.88-53.13-111.88m-5 3.75c-5 3.34-10.2 6.46-15.63 9.38a627.27 627.27 0 0 1-16.87 8.75 46.16 46.16 0 0 1 5 8.12c1.67 3.34 3.54 7.5 5.63 12.5l3.12 8.13 8.13 18.12c1.66 3.76 3.33 5.63 5 5.63.41 0 2.5-.42 6.25-1.25 4.16-1.25 6.45-1.87 6.87-1.88l.63-1.87a24.53 24.53 0 0 0 2.5-5.63c1.25-3.33 2.5-5 3.75-5s3.12 1.46 5.62 4.38l2.5 3.12 3.13 5.63c2.91 5.42 4.37 12.3 4.37 20.62 0 2.5-.83 5.84-2.5 10-1.25 3.76-1.88 6.05-1.88 6.88 1.25.83 2.5 1.88 3.75 3.12a84.9 84.9 0 0 1 5.63 3.13c2.08 5.42 3.12 8.75 3.13 10 0 2.92-1.88 6.46-5.63 10.62l-2.5.63c-.83 0-1.88-1.25-3.13-3.75l-3.75-1.25-1.25 2.5 53.75 100.62c1.67 4.17 3.34 6.25 5 6.25 1.67 0 4.8-3.54 9.38-10.63l37.5-64.37-1.25-2.5-5-3.13-8.13-7.5-2.5 6.25a41.08 41.08 0 0 1-2.5 4.38c-5.41 11.25-9.16 18.33-11.25 21.25-1.66 1.67-2.91 2.7-3.75 3.13l-2.5-1.25a7.29 7.29 0 0 0-1.87-1.25l-3.75-7.5-10-17.5-28.75-56.26-8.75-18.12-16.88-34.38-20.62-48.12m-145.62 16.87v5c-.42 3.76.63 6.88 3.13 9.38l8.75 8.12 3.12 5c1.25 3.34 1.87 5.84 1.88 7.5l-.63 1.25c0 .84-.2 2.09-.63 3.75v4.38l-3.75 10v4.37c2.09-.83 3.75-3.12 5-6.87l3.13-8.75c.42-1.67.63-3.33.63-5 .41-1.67.62-3.54.62-5.63v-5.62c0-4.58-2.08-8.12-6.25-10.63a27.3 27.3 0 0 1-9.38-11.25l.63-6.25 8.13-5.62-.63-7.5h-1.88c-3.75 0-6.87 3.33-9.37 10-.42.42-1.25 1.88-2.5 4.37m44.38-13.12c-2.92.42-4.38 1.88-4.38 4.37 0 2.92 1.46 4.38 4.38 4.38 2.5 0 3.74-1.67 3.75-5 0-2.92-1.05-4.37-3.13-4.38l-.63.63m-17.5 2.5-2.5 11.87.63 1.88.63 1.25 3.12 10.62-1.25 20.63-3.75 16.87-1.25 6.25-3.13 15.63-3.75 33.12v14.38l5-4.38v6.25c0 12.09 1.88 22.09 5.63 30l1.88 5-3.75.63H190l.63 2.5 3.12 6.88 7.5 10.62a57.11 57.11 0 0 1 8.13 10c2.5 2.92 6.04 4.38 10.62 4.38.42 0 6.67 5 18.75 15l5 5.62c5.42 6.25 13.13 9.8 23.13 10.63 3.33.41 5.41 2.08 6.25 5l.62-.63c-2.08 1.25-3.96 1.88-5.63 1.88.42 0-1.45-.42-5.62-1.25l-3.13-1.25-6.25-3.13-7.5-4.38-6.87-6.87-3.13-4.38-8.75-8.12-1.87-2.5-7.5-3.75c-1.25 0-3.54-.2-6.88-.63-2.91-.83-5.2-1.25-6.87-1.25.42 0-1.04.42-4.38 1.25 2.5 3.34 3.96 6.67 4.38 10l-4.38-1.87c-7.5-2.5-12.5-3.75-15-3.75-7.5 0-12.5 2.08-15 6.25v.63c2.09 2.08 3.96 5 5.63 8.75-3.33 2.08-5.2 4.58-5.63 7.5l-1.25 4.37v3.75c2.5.83 3.75 1.88 3.75 3.13v1.25c-.41 1.25-.83 2.29-1.25 3.12v.63c0 .41 3.34 2.7 10 6.87h6.25c2.92.83 5.42.2 7.5-1.88l13.13-8.12c1.67-1.25 3.96-1.88 6.88-1.88 5 0 10.41 1.25 16.25 3.75v1.25c-.42.84-1.25 1.88-2.5 3.13l-10.63-1.88-5 2.5 6.88.63 7.5 3.13h7.5c2.5-.42 3.74-1.67 3.75-3.75 0-2.92-2.92-5.63-8.75-8.13-7.5-2.5-13.75-3.75-18.75-3.75-1.25 0-2.71.42-4.38 1.25-1.67.83-5.2 2.3-10.63 4.38l-2.5 1.25h-8.75c-2.91-1.67-3.95-3.75-3.12-6.25v-3.13c.83-1.25 1.87-2.3 3.13-3.13a32.84 32.84 0 0 1 5-3.12l7.5-1.88c3.33-.83 5.2-1.25 5.62-1.25h1.25l8.13 3.75 6.87 2.5 16.88 7.5 19.37 6.25c5.42 1.67 12.7 2.5 21.88 2.5h1.87l28.75-1.87c1.25-.42 1.87 0 1.88 1.25l-.63 3.13 6.88-2.5 5-3.13c1.25-.83 6.45-2.08 15.62-3.75 5.42-1.25 10-1.88 13.75-1.88h5c6.67.42 11.25.84 13.75 1.25h7.5c-5-7.91-11.25-11.87-18.75-11.87-1.67 0-4.17 1.04-7.5 3.13l-.63.62 16.88 1.25.63 1.88-11.25.62a38.78 38.78 0 0 0-7.5-.63h-5.63c-4.17 0-9.58.63-16.25 1.88l.63-1.88c27.08-5.41 40.41-15.62 40-30.62v-5.63c-1.67-7.91-5.42-11.87-11.25-11.87-10.84 0-16.25 3.96-16.25 11.88 0 1.66.2 2.7.62 3.12 1.67-4.17 4.17-6.25 7.5-6.25 7.08 0 10.63 2.92 10.63 8.75 0 1.67-.84 3.96-2.5 6.88-6.26 7.08-12.3 11.87-18.13 14.37l-2.5.63-6.25 2.5c-.42.41-1.46.62-3.13.62-1.66 0-2.5-.63-2.5-1.88 0-.83 2.09-2.08 6.25-3.75 2.92-1.25 4.38-3.33 4.38-6.25 0-2.91-2.08-4.16-6.25-3.75h-4.38l-2.5.63c-1.25 7.5-4.58 11.46-10 11.88-2.08-.84-3.12-1.46-3.12-1.88l.63-.63c.41-.83 1.04-1.87 1.87-3.12h-19.38l-1.25-2.5 12.5-.63 6.25-1.25c13.34-2.5 20-7.08 20-13.75 0-3.33-3.12-6.04-9.37-8.12l-10.63-3.75-1.87-1.25-6.25-2.5-8.13-3.75-4.37-3.75c-3.75-5.42-5.63-10.63-5.63-15.63 0-7.5 3.13-11.25 9.38-11.25.42 0 1.25.21 2.5.63 1.25 0 2.92.2 5 .62 2.5 3.76 3.75 6.67 3.75 8.75-.42 2.92-2.08 5.42-5 7.5v1.88c9.17-3.75 13.75-9.58 13.75-17.5 0-3.75-2.3-7.08-6.88-10-4.16-3.33-8.33-5-12.5-5-1.25 0-4.58 1.04-10 3.12-4.58 5.84-6.87 9.8-6.87 11.88l.63 5-3.13 1.25-9.38-4.38v11.25l1.88 5.63 3.13 6.25 1.87 1.88-.63 1.87c-1.25-.42-3.12-.63-5.62-.63-.83 0-1.25.21-1.25.63.42.83.63 1.67.63 2.5a9.75 9.75 0 0 0 1.87 2.5l.63 1.88c5.83 7.08 11.66 10.41 17.5 10h.62l10.63-1.88h3.12c2.5-.42 3.75.42 3.75 2.5 0 2.5-1.88 3.96-5.63 4.38a66.2 66.2 0 0 1-7.5.62h-4.37l-5.63-1.88-6.25-.62-6.87-2.5-13.75-6.88-5-3.75-11.25-10c-9.58-15.83-14.38-28.95-14.38-39.37 0-9.58 2.71-17.5 8.13-23.75 5.42-6.67 11.88-10 19.38-10 2.91 0 5 .2 6.25.62 3.74 3.34 5.62 6.26 5.62 8.75 0 .84-1.04 2.92-3.13 6.25l-3.75 5.63-10.62 3.12-3.75 3.75-4.38 5.63c-2.08 5-3.12 8.13-3.12 9.37v4.38c0 1.67.2 3.13.63 4.37l.62 2.5c3.33 8.34 8.75 12.71 16.25 13.13 5.42-2.92 8.12-6.04 8.13-9.38 0-2.5-1.46-4.58-4.38-6.25.42.84.63 2.09.63 3.75 0 .84-.42 1.88-1.25 3.13-.84 1.25-2.3 1.88-4.38 1.88-5.42-1.67-8.13-5.42-8.13-11.25 0-10 3.34-14.8 10-14.38h10c4.59 0 7.5-3.33 8.75-10l5-1.25v3.75c1.67-.42 2.92-2.3 3.75-5.63l.63-8.75c.42-4.16-1.67-8.54-6.25-13.12l-5.63-4.38v-2.5c3.75-2.5 5.63-5.62 5.63-9.37v-.63l-9.38-.62-6.87-2.5c-.42-.42-1.04-.63-1.88-.63h-.62c-3.75 0-5.83.21-6.25.63a33.37 33.37 0 0 1-8.75 6.25l-.63-.63c.42-1.25.63-3.12.63-5.62v-3.75c0-5.83-1.25-9.17-3.75-10l-7.5 4.37c-6.25 5.84-11.25 17.71-15 35.63l-1.88 8.75c-2.08 7.08-4.16 10.62-6.25 10.62l-3.75-1.25v-6.25l10-23.75c2.92-5.83 4.38-14.37 4.38-25.62l-.63-3.13a19.39 19.39 0 0 0-1.25-4.37v-1.25h-1.25a12.15 12.15 0 0 0-4.37 8.12c-.42 2.92-1.25 4.38-2.5 4.38-1.67 0-2.7-.2-3.13-.63-.41-1.25-.62-3.12-.62-5.62 0-.42.42-2.3 1.25-5.63l11.88-20.62 1.87-6.88a41.35 41.35 0 0 0 1.88-11.87c0-5-1.88-10.63-5.63-16.88-1.25 5.42-2.92 8.13-5 8.13h-.63c-1.66-.42-2.5-1.04-2.5-1.88l-4.37-15-5.63-6.87m203.13 3.75 2.5 65.62c0 1.67 1.66 2.5 5 2.5 2.08 0 3.12-.2 3.12-.62v-67.5l-1.88-.63-4.37 1.88-4.38-1.25m129.38-.63-1.25 3.13 20.63 9.37h1.25l-8.75-6.87-1.88-.63-4.37-2.5-5.63-2.5m-304.38 1.88h-.62l-.63 1.25c0 4.58 1.67 6.88 5 6.87 2.5 0 3.75-1.87 3.75-5.62 0-1.67-2.5-2.5-7.5-2.5m393.13 146.25c-2.5 3.75-3.76 6.46-3.75 8.12.41.42.62 1.05.62 1.88 0 .83.2 1.46.63 1.87l3.75-5 6.87-12.5c1.25-1.66 1.87-2.91 1.88-3.75 0-1.66-1.05-2.5-3.13-2.5-4.17 0-6.46 3.96-6.88 11.88m0-133.75c.42 1.25.63 3.33.63 6.25 0 2.5-.83 5.63-2.5 9.37-2.92 8.34-4.38 16.05-4.38 23.13 0 2.92.63 6.46 1.88 10.62l3.75 6.25c2.5 2.5 4.58 3.76 6.25 3.75 4.58 0 6.87-3.33 6.88-10 0-2.5-.21-3.95-.63-4.37l-1.88-3.75-2.5-6.88-1.25 5.63.63 3.12c1.25 2.09 1.87 3.76 1.88 5 0 1.25-.63 2.09-1.88 2.5l-1.25.63c-5.83-.83-8.75-5.2-8.75-13.13v-5.62l1.25-6.25c1.25-2.92 4.37-11.04 9.38-24.38.41-.41.62-1.25.62-2.5 0-3.74-2.3-7.29-6.88-10.62l-12.5.62a16.71 16.71 0 0 1-3.12 4.38 24.82 24.82 0 0 0-3.13 3.75l-3.75-1.25-1.25-.63-.62 1.25c-2.5 3.34-3.75 7.5-3.75 12.5v5c.42 1.67.83 3.55 1.25 5.63l1.88 7.5-3.13.62-1.88-1.25c-3.33 4.59-5 9.8-5 15.63 0 5.42 1.25 11.46 3.75 18.12l1.88 3.75 3.75 7.5 1.88 3.13v2.5c2.91 2.92 4.37 7.3 4.37 13.12-1.67 5.42-4.17 8.13-7.5 8.13-1.25 0-1.88-.63-1.88-1.88l.63-12.5-3.13-6.25a21.78 21.78 0 0 0-6.87-8.12 134.7 134.7 0 0 1-8.75-8.13l-5-7.5-1.88 1.25c-1.25 2.5-1.87 4.59-1.87 6.25l.63 4.38c-.84 1.25-1.46 1.88-1.88 1.87a7.87 7.87 0 0 0-3.13-1.87l-3.75-1.25-1.25-.63-4.37-.62 1.88 4.37c1.66 5.42 2.5 10.21 2.5 14.38v10l5.62 5.62a490.9 490.9 0 0 1 8.75 7.5l2.5 3.13c3.33 7.92 5 14.17 5 18.75 0 7.08-2.3 14.17-6.88 21.25l-11.87 16.87-16.25 12.5-6.88 3.13a124.13 124.13 0 0 0-8.12 4.38 44.54 44.54 0 0 1-5.63 1.87l-12.5 3.13c-4.58 1.25-7.7 1.87-9.37 1.87-2.08 0-3.13-1.67-3.13-5a10.08 10.08 0 0 1 4.38-1.25 19.4 19.4 0 0 0 3.75-1.25c10.83-2.08 16.88-4.8 18.13-8.13l2.5-6.87-2.5 1.25-5.63 1.25v-1.88c4.58-5.83 7.5-11.45 8.75-16.87l-.63-6.88c-.41-.83-1.45-2.08-3.12-3.75-1.25 0-2.7 1.46-4.38 4.38l-8.75-5a19.8 19.8 0 0 0-10-2.5c-2.5 0-5.83 1.46-10 4.37-2.91 4.17-4.37 7.5-4.37 10 0 5.42 3.33 8.34 10 8.75-2.08-4.16-3.33-6.45-3.75-6.87 0-6.67 3.12-10 9.38-10 .83 0 3.74 1.04 8.75 3.12l1.87 6.25c-.83 5-3.54 9.8-8.13 14.38h-1.25a9.84 9.84 0 0 1-2.5 1.88c-.83 0-1.66.2-2.5.62a78.89 78.89 0 0 1-7.5 2.5c-2.5.83-5.2 1.46-8.12 1.88a38.44 38.44 0 0 0-8.13 6.25c-2.5 2.5-3.54 4.79-3.12 6.87v5.63c2.92 6.25 8.54 9.37 16.88 9.37.83 0 3.33-.42 7.5-1.25l5-1.25 8.12-.63v1.25l-8.75 5-7.5 1.25-.63 5.63h-4.37l-6.25-1.25-1.25-3.75v-3.75l-5.63-1.88-1.25-1.87-2.5-1.25h-1.25c-2.5 0-3.33 1.88-2.5 5.63v4.37l1.25.63c-.41-.84-.62-2.5-.62-5 0-1.25 1.67-2.3 5-3.13l-1.88 10.63h-6.87l-10.63-3.13-5-3.75-2.5-3.75c-2.91-4.17-4.37-7.3-4.37-9.38 0-4.58 1.87-6.87 5.63-6.87 2.08 0 4.79 1.04 8.12 3.13l1.25 6.87c2.5-1.67 3.75-3.33 3.75-5 0-10.42-4.38-15.63-13.13-15.63-10 0-15 5.42-15 16.25 0 16.67 13.55 26.05 40.63 28.13h3.13c2.08 0 3.74.2 5 .63l.62 1.87h-3.13l-13.12-.63-5.63-1.25c0 .42-3.95.84-11.87 1.25l-6.88.63c3.34-2.5 6.67-3.96 10-4.38l-6.25-2.5c-7.91.42-14.37 4.38-19.37 11.88l18.75-.63c15-.41 29.38 2.92 43.13 10l1.25-5.62 30.62-1.88c2.08-.41 3.54-.62 4.38-.62a10.2 10.2 0 0 1 2.5-.63 108.2 108.2 0 0 0 12.5-2.5l7.5-1.87 19.37-7.5a60.14 60.14 0 0 1 23.13-4.38c5.83 0 12.29 1.46 19.37 4.38 2.5 3.33 3.75 5.83 3.75 7.5 0 3.33-2.92 5-8.75 5-1.67 0-3.75-.63-6.25-1.88l-3.13-1.87-1.87-1.25c-3.33-4.58-6.25-6.88-8.75-6.88.42 0-1.46.42-5.63 1.25l4.38 6.88c9.17 7.92 16.25 11.88 21.25 11.88 3.33 0 7.92-1.88 13.75-5.63.42-3.33 1.87-5.83 4.38-7.5l6.25 5h1.87c.42-1.25.63-3.13.63-5.63 0-2.08-1.05-5-3.13-8.75s-5-6.87-8.75-9.37v-.63l.63-2.5 3.12-1.87c2.5-1.67 3.75-2.92 3.75-3.75 0-.83-1.46-2.08-4.38-3.75l-9.37-5h-5c.42 0-1.04.42-4.38 1.25l-6.25 1.88-4.37 3.12-1.88-.63v-3.12c0-1.67-.2-2.92-.62-3.75-3.33-.83-4.8-1.25-4.38-1.25-1.25 0-2.91.2-5 .63-1.66.41-2.5 1.87-2.5 4.37l3.75 1.25-.62 1.88-6.25 1.87 1.88.63-3.75 1.87-5.63-1.88c-2.92 2.92-4.58 4.8-5 5.63-9.58 7.08-16.46 10.63-20.63 10.63-2.5 0-3.75-1.05-3.75-3.13 0-1.67 10.42-7.92 31.25-18.75.84-.42 1.88-1.46 3.13-3.13l5-5a28.25 28.25 0 0 1 5-5c2.08-1.66 3.75-2.5 5-2.5.42.42 1.25.63 2.5.63l-5 6.88h3.13l6.87-7.5 6.25-8.75a89.76 89.76 0 0 0 16.88-38.75l.62-4.38 1.25-11.88 1.25-5.62v-3.75c0-15-2.08-29.58-6.25-43.75l-6.88-25a47.68 47.68 0 0 1-1.87-13.75c0-14.58 3.54-21.88 10.63-21.88 1.25 0 2.91.63 5 1.88m-69.38 8.12 3.75 1.88 9.38 6.87 5 5.63 9.37 12.5v1.25a9.8 9.8 0 0 0 2.5 1.87c.83.42 1.46.84 1.88 1.25.83-.83 1.25-2.5 1.25-5l-.63-3.12-12.5-16.25-8.13-6.88a280.11 280.11 0 0 0-9.37-5.62l-8.75-5-5-1.88-3.75-2.5c-2.5-1.25-4.38-1.87-5.63-1.87-2.5 0-3.75 1.46-3.75 4.37 0 1.67 4.59 3.96 13.75 6.88 2.92.83 6.46 2.7 10.63 5.62m-307.5 14.38c-3.75 2.5-6.67 6.67-8.75 12.5l-7.5 18.12c-1.67 3.34-2.5 6.05-2.5 8.13 0 1.25.42 1.88 1.25 1.87 1.25 0 2.3-.62 3.13-1.87l3.75-2.5c-.42-.42-.63-1.25-.63-2.5 0-2.08 1.25-5.42 3.75-10l6.88-10c3.33-5 6.45-9.17 9.37-12.5a51.92 51.92 0 0 1 8.75-8.13 37.31 37.31 0 0 1 10.63-5.62c4.16-1.25 9.16-2.5 15-3.75-1.25-5.83-3.13-8.75-5.63-8.75-.83 0-2.5.62-5 1.87l-8.13 3.13c-9.58 4.17-17.7 10.83-24.37 20m151.25-25v.62c0 5-1.88 7.5-5.63 7.5-2.08 0-4.58-.83-7.5-2.5 1.25 3.76 3.13 6.67 5.63 8.75a8.7 8.7 0 0 0 3.75.63c5 0 7.5-2.7 7.5-8.13 0-2.08-1.25-4.37-3.75-6.87m-155 5-6.25 6.87 3.13-2.5 3.75-3.75-.63-.62m176.88 8.75c1.25 3.75 2.92 5.63 5 5.62 1.67 0 4.17-.62 7.5-1.87l2.5-3.75-9.38.62c-1.25 0-2.08-1.25-2.5-3.75 0-2.5-.41-3.74-1.25-3.75l-.62.63-1.25 6.25m62.5-2.5-3.75 3.12c-3.75 2.09-6.88 6.88-9.38 14.38h1.25c3.75 0 7.3-4.17 10.63-12.5l1.25-5M510 381.66l-.63 2.5 5.63 1.25-1.25 6.88 1.87 3.75c3.75 5 8.12 7.5 13.13 7.5.83 0 3.74-1.25 8.75-3.75 4.16-.83 7.29-1.25 9.37-1.25 3.33 0 6.04 1.25 8.13 3.75 0 7.5-2.5 11.25-7.5 11.25H545c1.25 2.08 2.91 3.13 5 3.12 7.91 0 11.87-3.54 11.87-10.62 0-8.75-4.58-13.13-13.75-13.13-1.67 0-4.8.84-9.38 2.5-4.16 1.25-7.29 1.88-9.37 1.88-5.42 0-8.13-3.12-8.13-9.38 0-5.83 4.59-8.74 13.75-8.75 7.09 0 15.42 3.55 25 10.63l3.75 4.37 1.25 1.88 2.5 3.12 3.75 5 2.5 4.38 3.75 3.75a12 12 0 0 0-3.75-8.75c-9.16-16.67-19.16-26.88-30-30.63-5.41-2.08-10-3.12-13.75-3.12-4.16 0-8.33 1.04-12.5 3.12-3.75 2.09-6.25 5-7.5 8.75m-76.87-10-5.63 6.25-1.25 1.25a38 38 0 0 0-2.5 3.13c-3.33 4.17-5.41 7.7-6.25 10.62l-5 19.38h3.75c1.67 0 2.5-.83 2.5-2.5v-1.88c0-2.08.84-4.79 2.5-8.12l3.75-8.75 8.13-12.5v-6.88m-171.25 8.13c-5 2.08-10 5.2-15 9.37l-5 6.25-7.5 11.25-4.38 9.38a10.2 10.2 0 0 1 2.5-.63l1.25-.62 1.25-3.75c2.92-6.25 8.75-13.13 17.5-20.63 4.17-4.16 8.75-6.24 13.75-6.25 2.92 0 6.05.84 9.38 2.5 2.92 4.17 4.37 7.5 4.38 10 0 5.84-3.13 8.96-9.38 9.38l-18.13.62c-5 0-7.08 2.5-6.25 7.5v5c.42 1.67 2.3 3.13 5.63 4.38l-.63-3.75c-.41-5.42 2.5-8.54 8.75-9.38l16.88-1.25c9.17-.41 13.75-5.62 13.75-15.62 0-7.92-3.75-13.13-11.25-15.63l-6.25-2.5-1.88.63-9.37 3.75m-90-3.13c-2.5 7.09-3.75 13.34-3.75 18.75 2.08 8.76 3.75 16.05 5 21.88a218.4 218.4 0 0 0 3.13 13.12c.41 1.25.62 3.13.62 5.63 0 3.33-1.88 5.2-5.63 5.62l-1.25.63-1.25-1.25c0-.42-.2-.83-.62-1.25l-.63-4.38.63-2.5L170 422.3l-1.88.62-.63 3.13-1.25 5v5l-.62-1.88v4.38l.63 5c1.25 4.17 3.12 6.25 5.62 6.25 5 0 7.5-4.8 7.5-14.38 0-2.91-.2-4.79-.63-5.62l-6.25-23.75a35.38 35.38 0 0 1-1.87-11.25c0-5 1.25-10.63 3.75-16.88l-2.5-1.25m206.88 6.25v8.75l2.5 4.38 2.5 5 2.5 7.5c1.25 2.08 3.54 3.33 6.88 3.75-.84-10.83-5.63-20.63-14.38-29.38m33.75 6.88-1.25 3.75 3.13-2.5-1.88-1.25m-20.63 1.25c-.83 0-1.25.62-1.25 1.87s.84 1.88 2.5 1.88c1.25 0 1.88-.63 1.88-1.88s-.83-1.87-2.5-1.87h-.63m36.25 4.37c-1.25 2.5-1.87 4.38-1.87 5.63 0 .83.42 2.08 1.25 3.75a10.08 10.08 0 0 1 1.25 4.37c0 1.67-1.46 3.34-4.38 5-4.58 2.5-10.41 3.76-17.5 3.75-5 0-7.91-.2-8.75-.62l-10-1.88-3.75-1.25-3.12-3.12-1.88-1.25c-.83-.42-1.45-1.67-1.87-3.75 0-.83.2-1.87.63-3.13.83-1.66 1.25-2.7 1.25-3.12 0-1.25-.63-1.87-1.88-1.88-1.25 0-2.08.21-2.5.63a18.28 18.28 0 0 0-3.75 11.25c5.42 8.75 15.42 13.12 30 13.12 25 0 37.5-5.41 37.5-16.25 0-4.16-3.54-7.91-10.63-11.25M327.5 397.3c-3.33 6.25-8.12 10.42-14.37 12.5-5 0-9.8 2.3-14.38 6.87l-1.87 4.38.63-.63-8.13-1.87a28.93 28.93 0 0 0-5.63-.63c-1.25-.41-2.29-.62-3.12-.62-5 0-7.5 1.46-7.5 4.37 0 1.25 1.46 2.5 4.38 3.75l3.12 8.75 1.25 6.88.63 11.87c0 3.76 1.04 6.67 3.12 8.75l3.75-1.25v4.38c0 2.08 1.04 4.8 3.13 8.12l1.87 1.25-1.88-6.87 3.75-.63 1.88 5.63c.83 2.92 2.08 5.2 3.75 6.87l.63 2.5 5.62 4.38c-5.42-10.83-8.13-19.17-8.13-25 0-4.17 1.25-8.12 3.75-11.88l1.88 2.5-2.5 10.63c.42 2.5 1.04 5.42 1.88 8.75 1.25 2.92 2.7 6.04 4.37 9.37 2.08 2.92 4.17 5.63 6.25 8.13a16.58 16.58 0 0 0 8.75 3.75l11.25 2.5 2.5.62 5-1.87c-.42-1.67-1.25-2.5-2.5-2.5h-3.75c-1.25.83-3.75.2-7.5-1.88l-3.75-1.25-8.13-5.62-2.5-3.75h2.51c.41.42 2.5 1.88 6.25 4.37 1.66 1.67 6.66 3.13 15 4.38l-1.88-5.63-6.25-1.87-4.38-4.38a90.04 90.04 0 0 1-1.25-6.87c0-5.42 2.92-8.12 8.75-8.13 2.09 0 4.8.63 8.13 1.88 2.5-.42 3.75-1.67 3.75-3.75 0-3.75-3.13-7.92-9.38-12.5h-.62l-8.13 1.87h1.88-3.13v-1.87c0-.42 1.25-1.67 3.75-3.75 5-3.75 7.5-10.42 7.5-20 0-8.75-3.33-17.08-10-25m123.13 3.75 1.25 6.25c0 2.08-.84 4.58-2.5 7.5l-9.38 4.37c1.67.42 2.92.84 3.75 1.25h3.13c3.33 0 5.83-1.87 7.5-5.62 1.66-3.75 2.5-6.46 2.5-8.13 0-2.5-2.09-4.37-6.25-5.62m59.37.62-8.75 1.25c-2.92 2.92-4.38 5.63-4.38 8.13 0-.42.42 1.04 1.25 4.37l1.25 3.13-1.87 1.25 1.25-.63c-2.5 2.09-4.38 3.34-5.63 3.75-5.41 2.92-8.12 7.71-8.12 14.38 0 2.92.83 6.04 2.5 9.37l3.75 4.38a8.48 8.48 0 0 0 6.25 2.5c2.5 0 4.37-.2 5.63-.63-2.92-5.83-4.38-10.41-4.38-13.75 0-11.66 6.04-17.5 18.13-17.5 3.33 0 7.29 1.25 11.87 3.75l3.13 3.75c3.74 5.84 5.62 11.67 5.62 17.5 0 3.34-1.88 8.76-5.63 16.25l-3.12 5.63v.62c0 2.5.83 3.76 2.5 3.75 2.92 0 5.62-2.5 8.13-7.5 4.58-10.41 6.87-18.12 6.87-23.12 0-11.67-3.75-21.04-11.25-28.13l-8.13-5.62-8.75-5-6.87-1.25-1.25-.63m-128.12 21.88 1.88 4.37-3.75 4.38c-.84 2.08-1.67 2.7-2.5 1.87l-2.5-.62-3.75-5-1.25-1.25v6.87c2.5 4.59 5.2 6.88 8.12 6.88 3.75 0 5.62-3.33 5.63-10v-5.63c0-.41-.63-1.04-1.88-1.87m43.13 20 1.25 1.25c2.91 2.92 5.41 4.38 7.5 4.37 4.58 0 6.87-1.87 6.87-5.62 0-2.08-.2-3.54-.63-4.38-2.5 2.5-4.58 3.76-6.25 3.75-5 0-7.7-2.5-8.12-7.5-.83-7.5-1.67-11.25-2.5-11.25-1.25 0-1.88 1.67-1.88 5 0 3.34.42 6.26 1.25 8.75a74.09 74.09 0 0 0 2.5 5.63m-35.62-17.5-1.25 19.37a269.07 269.07 0 0 0-3.75 8.75l-.63 2.5.63 3.75 1.25 1.25 1.25.63 3.13-5.63c3.33-9.16 5-17.5 5-25 0-4.16-.84-6.04-2.5-5.62h-3.13m25.63 0h-1.25c-1.25 0-1.88.62-1.88 1.87v5.63c.42 2.08.83 4.8 1.25 8.12.42 5 4.17 13.13 11.25 24.38v.62l3.13 4.38v.62l5.62 6.88 2.5 3.12c11.67 10.42 26.46 15.63 44.38 15.63 6.66 0 15.41-1.25 26.25-3.75l10.62-6.25c-2.08-3.33-3.75-5-5-5H510l-3.75 2.5c-9.58 4.17-18.54 6.25-26.87 6.25-8.33 0-18.13-2.5-29.38-7.5l-1.87-.63-5.63-5-1.87-1.25-3.13-2.5a100.1 100.1 0 0 0-3.12-4.37 56.96 56.96 0 0 0-4.38-6.25l-3.12-3.75a31.13 31.13 0 0 1-7.5-18.75l-1.25-8.75-.63-6.25H415m-13.12.62-.63 68.13 5.63 8.12.63-4.37-.63-71.25-5-.63m121.88 0-1.88 1.25 3.13-1.25c-10 4.59-15.83 11.46-17.5 20.63l7.5-1.25 1.25 1.87-.63-1.87c.42.42.63 1.04.63 1.87 0 .84-.83 1.88-2.5 3.13-4.17 4.17-6.25 8.75-6.25 13.75 0 3.75.83 7.08 2.5 10l5 5.62 6.88 3.75c0-2.5.41-3.74 1.25-3.75l2.5.63 8.75 3.75 13.75-7.5 6.87 1.25c1.67 1.67 2.5 3.13 2.5 4.37l-.63 3.13-1.25 2.5-3.75 3.75-5 3.75a68.06 68.06 0 0 0-5.62 5l-5 5c-4.17 4.17-6.25 8.75-6.25 13.75s1.87 7.5 5.63 7.5c2.08 0 4.58-.83 7.5-2.5-5.84-1.25-8.76-3.75-8.75-7.5 0-3.75 1.66-6.67 5-8.75l17.5-11.88c4.16-2.91 6.66-7.7 7.5-14.37v-1.25c0-.83-1.05-3.75-3.13-8.75l-3.75-3.13a18.34 18.34 0 0 0-4.38-.62 5.55 5.55 0 0 0-2.5-.63c-.41 0-2.29 1.05-5.62 3.13l-2.5 3.75c-3.33 2.08-6.46 3.13-9.38 3.12l-8.12-5.62c-2.92-4.17-4.38-7.3-4.38-9.38 0-5.83 3.96-10.2 11.88-13.12l.63-6.25c.41-5.42-2.09-10.42-7.5-15l-1.88-1.88m95 11.25 3.13.63.62-1.88c0-.83-.63-1.25-1.88-1.25h-.62l-1.25 2.5m2.5 11.88c-1.67 0-2.5 1.25-2.5 3.75 0 1.67.83 2.5 2.5 2.5 2.08 0 3.12-.83 3.13-2.5l-.63-1.25c-.42-1.67-1.25-2.5-2.5-2.5m-205 8.12 3.13 10.63 1.87 3.12 8.13 11.25 5.62 6.25 9.38 6.25 9.37 6.88 4.38 3.75c4.16 4.17 6.04 8.33 5.62 12.5v4.38l-5 5c-5.83-.84-8.75-3.55-8.75-8.13l.63-3.75-4.38 2.5a19.48 19.48 0 0 1-1.25 3.75v2.5c0 1.67 1.46 4.38 4.38 8.13 2.91 3.33 5.62 5 8.12 5 5 0 9.17-4.17 12.5-12.5l3.13 1.25 1.25 1.25c.41-2.09.62-3.75.62-5 .42-1.25.63-2.09.63-2.5 0-3.75-1.46-7.71-4.38-11.88l-11.88-10-10-5.63-7.5-3.75-6.87-5-.63-1.25-18.12-25m73.75 1.25-5 2.5-4.38 1.88-1.25.62-1.87.63c-2.08 0-3.75-1.87-5-5.63-2.08 2.09-3.13 4.17-3.13 6.25v1.25c1.25 2.5 2.71 3.96 4.38 4.38l5.63-.63 3.75-2.5c2.5-.83 3.95-1.25 4.37-1.25 5 0 7.5 1.67 7.5 5 0 1.67-1.25 3.96-3.75 6.88-5.83 3.33-10.2 5-13.13 5-.83 0-6.45-1.04-16.87-3.13l-.63 3.13c8.34 1.67 15 2.5 20 2.5 15 0 22.5-5.62 22.5-16.88 0-1.66-1.04-3.74-3.12-6.25-2.08-2.91-4.17-4.37-6.25-4.37l-3.75.62m130.62 7.5c-1.67 1.25-2.5 2.5-2.5 3.75 0 2.09.83 3.76 2.5 5h1.25c2.5 0 3.75-2.08 3.75-6.25l-.63-1.25-4.37-1.25m-444.38 4.38a18.59 18.59 0 0 0-2.5 9.37v3.13c.42 1.25.83 2.92 1.25 5l-6.25 3.75c-2.08 3.33-3.13 5.63-3.13 6.87v4.38l2.5 5.62 10 16.88v3.13c0 4.58-1.66 6.87-5 6.87-.41 0-2.29-.42-5.62-1.25l-.63 1.25c0 2.92 2.09 4.38 6.25 4.38 5 0 7.5-2.09 7.5-6.25v-1.88c0-1.67-.2-3.12-.62-4.38l-.63-5.62c0-.83-.41-2.08-1.25-3.75a24.45 24.45 0 0 0-3.12-5.63 84.89 84.89 0 0 1-3.13-5.62c-.83-1.67-1.25-2.7-1.25-3.13 0-.41.42-1.04 1.25-1.87l1.25-.63c2.09.42 4.17 2.3 6.25 5.63l2.5 7.5 5.63 10.63c3.33 5.83 7.5 10 12.5 12.5l-3.75-5a197.68 197.68 0 0 1-8.75-13.75c-2.5-5.42-4.8-11.67-6.88-18.75-2.08-7.09-3.12-11.05-3.12-11.88l.63-1.25v-10.63c0-2.5-.63-4.37-1.88-5.62m6.25 5v12.5l1.25 6.87 2.5 8.13 1.25 4.37 2.5 1.88a19.37 19.37 0 0 0-1.25-3.75v-2.5l-2.5-10-2.5-10-1.25-7.5M510 496.66c1.67 0 3.96-.41 6.88-1.25 3.33-.83 5.83-1.25 7.5-1.25-.42 0 1.04.42 4.37 1.25l.63 1.25c.41.84.62 2.09.62 3.75 0-1.25-.42-.2-1.25 3.13 5.42-.42 8.12-2.7 8.13-6.88 0-5.41-3.13-8.12-9.38-8.12-5 0-10.83 2.7-17.5 8.12m-168.75 22.5c-2.92 2.92-5.83 4.38-8.75 4.38-5.83 0-8.75-2.5-8.75-7.5 0-7.92 6.87-13.13 20.63-15.63l.62-1.87h-3.75c-5 .42-10.42 2.08-16.25 5s-8.75 7.3-8.75 13.12c0 9.59 4.58 14.38 13.75 14.38 6.25 0 10-3.96 11.25-11.88M442.5 499.8l-7.5 13.12-33.13 55-6.87 8.13c1.67 1.25 2.92 1.88 3.75 1.88 1.25 0 5-5 11.25-15l3.75-5 8.75-15.63 21.25-35.63c.42-1.25.63-2.08.63-2.5l.62-1.25-.63-2.5-1.87-.62m166.88 14.37-1.88 1.25-21.25 29.38 7.5-6.25 9.38-10.63c3.33-3.33 5.83-5 7.5-5 1.25 0 2.5.84 3.75 2.5 1.67 1.67 2.5 2.92 2.5 3.75 0 2.5-1.67 5.42-5 8.75v1.88c8.75-2.92 12.7-8.96 11.88-18.13v-3.12c-2.09-4.58-4.38-6.87-6.88-6.88l-2.5.63-5 1.88M397.5 582.91l-.63 3.75a5.6 5.6 0 0 1-3.75 3.12l-10.62 3.13c-.83.83-1.25 1.66-1.25 2.5 0 2.5 2.08 3.75 6.25 3.75h1.88l6.87-3.75a4.78 4.78 0 0 1 1.88-.63l.62-.63 3.13-6.87c1.25-1.67 1.87-2.92 1.87-3.75l-1.88-1.88-1.25-.62c-1.66 0-2.7.63-3.12 1.88m134.38 7.5-6.88 1.87v1.25a20.46 20.46 0 0 0 15 6.25c4.59 0 7.71-.83 9.38-2.5 7.08-4.58 11.25-6.46 12.5-5.63l5 2.5v3.75h1.25c1.67 0 2.5-1.25 2.5-3.75 0-4.58-3.54-6.87-10.63-6.87-2.5 0-5.83 1.04-10 3.13-4.16 2.08-6.87 3.12-8.12 3.12-1.25 0-2.5-.63-3.75-1.88s-2.3-1.87-3.13-1.87c-.41.42-1.45.63-3.12.63m-270-445.63a6.95 6.95 0 0 0-.63 3.13v.62c-2.5 0-3.75-1.04-3.75-3.12v-1.88l4.38 1.25m8.75 1.25-2.5 1.88a11.14 11.14 0 0 1-3.13-3.13c0-.83.63-1.25 1.88-1.25 2.08 0 3.33.84 3.75 2.5m-23.75-1.25c.42-.41 1.67-.62 3.75-.62 1.67 0 2.5.83 2.5 2.5 0 1.25-.63 1.88-1.88 1.87 1.25 0 .42-.62-2.5-1.87l-1.87-1.88m-2.5 3.75L240 152.3l-2.5-2.5 1.25-2.5c0-1.25.63-1.87 1.88-1.87l3.75 3.12m313.75-2.5v.63c.42.42.83 1.04 1.25 1.87 0 .84-1.04 1.25-3.13 1.25-1.25 0-1.87-.62-1.87-1.87 0-1.67.63-2.5 1.88-2.5l1.87.62m-22.5.63h.63c1.25 0 1.87.42 1.87 1.25 0 1.25-.42 1.88-1.25 1.87l-1.88-.62.63-2.5m6.25 0h3.13v3.12h-3.75l.62-3.12m-78.13 3.12c-1.25 1.67-4.16 2.92-8.75 3.75l-7.5 1.25c1.67-3.74 4.8-5.62 9.38-5.62h.63l1.87.62h4.38m-280 10v-1.25a5.56 5.56 0 0 1 2.5-.62l3.75-1.88c.41 0 1.04-.2 1.87-.62.42-.42.83-.63 1.25-.63.42 0 .63.21.63.63 0 2.5-3.34 3.96-10 4.37m200 14.38 3.12.62 1.88 3.75.62 2.5 1.88 3.13 3.75 13.75 1.25 14.37v1.25a5.57 5.57 0 0 0-2.5-.62l-.63-.63v-7.5l-1.88-8.75-4.37-15.62-3.13-6.25m28.75 0-3.12 8.12-1.88 8.13 3.13-5.63 2.5.63v6.87l-.63 6.25 1.25 5 2.5 16.25-3.75-10.62a78.21 78.21 0 0 1-2.5-7.5 80.32 80.32 0 0 1-1.87-10.63v17.5l.63 1.88.62 2.5h-2.5l-3.13-5.63.63-6.25-.63-11.87c0-5.42 2.92-10.42 8.75-15m99.38 66.25-1.88-2.5 2.5-3.13 1.25-.62 1.88 1.25v4.37l-3.75.63M425 234.17l.63 9.37h1.88v-6.25l1.87-.62c.42 1.25.63 3.33.63 6.25 0 5.83-2.71 13.33-8.13 22.5-1.25-.42-1.88-1.25-1.88-2.5 0-.42.84-2.08 2.5-5 1.67-2.92 2.71-5.2 3.13-6.88l.63-5-1.25.63c0 5.83-1.88 9.38-5.63 10.62-.42-.41-.63-1.25-.63-2.5 0-.41.63-2.29 1.88-5.62a24.78 24.78 0 0 0 1.88-12.5l2.5-2.5m93.75 8.75 3.12.62c.42 1.67.2 2.92-.63 3.75-1.25.84-3.33.63-6.25-.62l1.25-3.75h2.5m-143.75-5 .63 10.62 1.88 5 11.25 17.5L375 259.17c-2.5-6.25-3.76-11.67-3.75-16.25 0-3.33.62-5 1.87-5h1.88m145.62 14.37c1.66.84 2.7 1.46 3.12 1.88H525c0-.42.2-.42.63 0l-.63 2.5-1.88 1.25h-1.25c-.41-.42-.83-.63-1.25-.63H520c0-.41-.42-.83-1.25-1.25v-1.87c0-1.67.63-2.3 1.88-1.88m-121.25 11.25-1.88-.62c-1.25-.42-1.88-1.25-1.88-2.5 0-.83.21-1.46.63-1.88l8.13 1.25 7.5-4.37v2.5c0 4.58-2.92 6.46-8.75 5.62h-3.75m11.87 2.5c2.5.84.2 2.3-6.88 4.38-3.33 2.08-5.41 1.25-6.25-2.5l-1.87-1.88 8.75 1.25 3.13-1.25h3.12m-214.38 3.13-6.88-1.25h-3.12l-3.13 5-1.87 1.87h1.88c-1.67-.41-2.5-1.25-2.5-2.5s1.25-3.12 3.75-5.62c.83-.83 1.45-1.25 1.87-1.25l10 3.75m145 81.87v1.88l-.63 2.5c0 4.17.21 6.25.63 6.25-3.33 0-5-1.67-5-5 0-3.75 1.04-5.62 3.13-5.63h1.87m113.75 3.13 2.5 1.87c.42.84.63 3.34.63 7.5 0-7.5 1.04-10.2 3.12-8.12-3.75-3.75-7.5-4.8-11.25-3.13l5 1.88m-87.5 11.25-2.5.62-3.13.63c-2.08-1.25-3.33-1.87-3.75-1.88h-3.12l-7.5-.62c0-1.25 3.12-1.87 9.38-1.88l10.62 3.13m-158.75 22.5c1.25-2.92 1.87-5 1.88-6.25v-4.38c0-5 .41-7.5 1.25-7.5 1.25 0 1.87 1.67 1.87 5v1.88l-.63 6.25c0 3.33-1.45 5-4.37 5m378.75 13.12c1.25 0 2.08.21 2.5.63l.63 3.75c0 .42.41 1.88 1.25 4.37l9.37 12.5a74.48 74.48 0 0 1-10-9.37c-2.5-3.33-3.75-7.3-3.75-11.88m-3.75 8.75 3.75 4.38 3.13 7.5.62 1.87 5.63 6.88 6.25 11.25c-1.25 5.83-2.09 8.75-2.5 8.75-.42-.42-.63-3.33-.63-8.75a18.82 18.82 0 0 0-1.88-2.5l-.62-1.25-2.5-2.5-1.25-1.88v-1.87l-2.5-2.5c-.83-1.67-2.08-3.96-3.75-6.88l-2.5-6.25-1.25-6.25m-260.62 8.75 2.5 3.13-3.75 4.37v-3.12l1.25-4.38m-128.75 10 6.25 1.25a6.97 6.97 0 0 1 3.13-.62c2.5 0 3.74.2 3.75.62.83 1.25-.84 2.71-5 4.38-.42.42-2.5-.42-6.25-2.5l-1.88-3.13m125.62.63-1.25 5.62-3.13-4.37 4.38-1.25m-4.38 5c-.41 1.25-.62 2.7-.62 4.37v1.25c-2.5 0-3.75-1.45-3.75-4.37 0-1.25.63-1.87 1.88-1.88l2.5.63m199.38 4.37 3.75-4.37 4.37-1.25-2.5 5-5.63.62m-314.38 0 6.25-2.5c-.83 3.34-1.87 5-3.12 5-1.67.42-2.92.84-3.75 1.25h-1.25l-2.5-3.12c-.83 0-1.25-1.25-1.25-3.75l5.63 3.12m106.88 2.5h.62c1.67 0 2.5.63 2.5 1.88 0 2.92-.2 4.38-.63 4.37-1.66 0-2.91-1.66-3.75-5l1.25-1.25m-82.5-12.5c.42.42-.41 5.63-2.5 15.63l-1.87 3.75a93.74 93.74 0 0 1-2.5 6.25v-6.88c.42-4.16.83-6.24 1.25-6.25l5.63-12.5M570 450.42l1.87 3.12-.63 1.88-3.75-.63 1.88 2.5 2.5 3.13c-.83 1.25-1.46 1.88-1.88 1.87-1.25 0-2.7-1.25-4.37-3.75l-1.25-1.25-3.13-2.5-4.37-3.12 1.25-1.25 3.13.62 10 3.75-3.13-.62-5-3.75-1.25-1.25c0-4.17-.2-6.46-.63-6.88 4.59 5.84 7.5 8.55 8.75 8.13m-330-.63 11.25-1.25c.42-.41-2.29-.62-8.12-.62-4.58 0-8.96 1.88-13.13 5.62-1.25.84-2.7 2.3-4.37 4.38a68.22 68.22 0 0 1-5 5.62H220l-4.37 6.25 5.63-1.25 3.12-5.62 3.13-5.63c0 1.25 4.16-1.25 12.5-7.5m360 6.88c2.08-.83 1.04 2.5-3.13 10-.42.42-1.88.62-4.38.62-1.25 0-2.7-.62-4.37-1.87l-1.88-2.5 4.38.62c2.08 0 4.58-2.08 7.5-6.25l1.88-.62m1.87 11.87c0 .84-.83 2.09-2.5 3.75l-5 1.25-2.5-3.12 10-1.88m0 7.5L600 477.3c-2.08 2.09-3.54 3.13-4.37 3.13H595a7.29 7.29 0 0 0-1.87-1.25c2.5-2.5 4.58-3.75 6.25-3.75.42.42 1.25.62 2.5.62m-403.12 5 .63 1.25c.83.84 1.66 1.25 2.5 1.25h2.5l1.87-2.5v-1.87l2.5.62c.42 0 .63.42.63 1.25 0 4.17-2.5 6.26-7.5 6.25-3.76 0-5.63-1.66-5.63-5 0-.83.2-1.25.63-1.25h1.87m11.88 9.38.62 1.87-2.5 2.5-2.5 1.25h-4.38l-.62-.62-3.13-3.75 1.88-1.25 4.38 1.25h2.5l3.75-1.25m367.5 7.5-6.25 11.87-5 6.88-3.75 3.75-6.25 8.75-3.13-.63c9.17-10 14.58-17.08 16.25-21.25l2.5-6.25 3.13-6.25 1.25-12.5 1.25 15.63m-384.38-1.88H195l.62 2.5 1.25 2.5 1.88 1.88v3.12l2.5 10.63c-5.42-5.42-7.92-11.88-7.5-19.38v-1.25m380.62 17.5v1.25c-2.92 7.92-5.84 11.88-8.75 11.88.41 0 .62-.63.62-1.88l1.88-2.5.62-3.12 3.13-6.88 2.5 1.25m-346.88 6.88 1.25 3.13h.62l2.5 3.12 2.5 1.88c1.25.83 2.3 1.87 3.13 3.12l-5-.63-4.38-5 3.13 4.38-.63 1.88-.63.62-2.5-3.75-4.37-3.13a4.78 4.78 0 0 1 1.88-.62l.62-.63c.42 0 1.04.63 1.88 1.88v-2.5c-1.67-.42-2.5-.83-2.5-1.25 0-1.67.2-2.5.62-2.5h1.88m79.37 24.38 2.5 3.75c-2.5 3.33-3.96 4.79-4.38 4.37-.83 0-.83-1.04 0-3.13v-1.87c0-2.08.42-3.13 1.25-3.13h.63m15 .63h1.88c1.25.83 1.87 1.67 1.87 2.5a7.25 7.25 0 0 0-1.25 1.88c-.42.41-1.04 1.25-1.88 2.5v1.25l-.62-8.13m148.12 0 .63 6.88 1.25 1.25.62 2.5-3.13-.63 1.88.63-3.13-1.25-1.25-6.25c0-2.09.84-3.13 2.5-3.13h.63m-153.12 0 2.5-.63-.63 5.63v1.88c-.41-.42-1.04-.63-1.87-.63h1.88l-1.88-.63v-5.62m171.88 1.25 1.25 4.38-1.25 2.5.63-1.25-4.38-1.88v-1.25l-.63-.63c0-1.25.84-1.87 2.5-1.87h1.88m-11.88 1.25-.62 3.75 1.25 3.13-.63-.63-3.75-.63-.62-2.5c0-2.5.63-3.75 1.88-3.75l2.5.63m-262.5 4.38c5.83 1.66 11.87 5.2 18.12 10.62l-3.75 1.88-1.25-.63-2.5-1.88 1.25 7.5-4.38-4.37c-4.58-2.08-6.87-3.96-6.87-5.63.42-.41.63-.83.63-1.25l1.25-1.25c-2.09-1.25-3.13-2.29-3.13-3.12l.63-1.88M190 558.54l-10.63-.62c.42-2.5 2.09-3.75 5-3.75 4.17 0 6.25 1.04 6.25 3.13-.41.41-.62.83-.62 1.25h-1.88H190m136.25 3.75c3.75.83 5.62 2.08 5.63 3.75 0 1.25-1.05 1.87-3.13 1.87-.42 0-1.04-1.04-1.88-3.13l-.62-2.5m201.25 7.5 1.25 5c0 .84-.2 1.25-.63 1.25l-3.12-.62-.63-3.75.63-.63h1.88l.62-.62v-.63m-6.88 3.13.63 3.75 1.25 1.25v.63c-3.33-.84-5-1.67-5-2.5l.63-1.88 2.5-1.25M277.5 583.55l.63-3.13 2.5-.63h1.88l1.25 1.25c0 2.5-.63 3.75-1.88 3.75l-.63 1.88h-3.12l-.63-3.13m8.75 0 2.5 1.88-5 4.38 2.5-6.25" transform="translate(-146.86 -119.79)"/>
</svg>
