<svg xmlns="http://www.w3.org/2000/svg" viewBox="0 0 500 500">
  <path class="letter" d="M 231.86 187.28 L 244.99 202.28 L 250.61 209.16 L 253.74 212.28 L 256.86 216.66 L 271.86 234.78 L 296.24 263.53 L 299.36 267.91 L 307.49 277.91 L 308.74 279.78 L 319.36 292.91 L 328.74 303.53 L 334.36 309.16 L 346.24 324.78 L 358.74 340.41 L 366.86 350.41 C 371.03 354.58 374.16 358.74 376.24 362.91 L 376.24 364.16 C 375.312 364.646 374.468 365.277 373.74 366.03 C 373.251 366.959 372.616 367.803 371.86 368.53 L 335.61 410.41 L 334.36 411.03 L 333.11 413.53 L 332.48 416.03 C 336.23 419.79 338.11 426.03 338.11 434.78 L 374.36 395.41 L 379.36 388.53 C 381.86 384.79 385.4 381.24 389.99 377.91 L 393.11 381.66 L 391.86 379.78 L 393.74 382.28 L 398.74 389.78 L 401.86 393.53 L 403.74 395.41 L 405.61 396.66 L 407.49 391.03 L 416.24 367.28 L 419.36 361.03 L 419.36 359.16 C 418.385 357.304 417.119 355.616 415.61 354.16 L 412.48 350.41 L 434.36 322.91 L 473.11 279.16 C 475.61 276.24 476.86 274.36 476.86 273.53 C 476.86 272.7 476.23 271.87 474.98 271.03 L 471.86 269.16 L 463.73 262.28 L 454.98 271.66 L 429.36 302.28 L 421.23 310.41 C 410.4 323.74 404.36 330.61 403.11 331.03 L 401.23 332.91 C 400.82 332.91 400.4 333.11 399.98 333.53 L 297.48 211.03 C 292.48 203.53 289.98 198.53 289.98 196.03 C 289.98 188.12 292.07 183.33 296.23 181.66 L 307.48 176.03 C 308.32 175.2 308.73 174.58 308.73 174.16 C 308.73 171.66 306.86 170.41 303.11 170.41 L 299.98 170.41 C 297.9 170.41 296.03 170.61 294.36 171.03 L 250.61 172.28 L 234.36 171.66 L 222.48 171.66 C 221.24 171.66 219.78 171.46 218.11 171.03 L 216.23 171.03 C 209.98 171.03 206.44 172.08 205.61 174.16 C 205.61 176.24 207.28 177.7 210.61 178.53 L 224.99 182.91 L 231.86 187.28 M 551.86 171.03 L 554.99 171.03 L 513.74 171.66 L 500.6 171.66 L 497.47 171.03 C 493.31 171.03 491.22 172.08 491.22 174.16 L 491.85 174.78 L 491.85 175.41 C 492.27 176.66 492.89 177.29 493.73 177.28 L 506.23 182.28 L 513.73 187.28 C 516.23 189.78 517.47 192.28 517.48 194.78 C 517.48 198.12 515.39 202.49 511.23 207.91 L 498.1 225.41 L 481.85 242.28 L 473.1 253.53 L 488.1 262.28 L 541.23 201.03 L 549.98 192.28 C 554.56 187.28 558.1 184.37 560.6 183.53 C 568.1 180.62 571.85 177.49 571.85 174.16 C 571.85 171.24 569.55 169.79 564.97 169.78 L 561.22 169.78 C 559.14 169.78 557.06 169.99 554.97 170.41 L 551.85 171.03 M 310.6 172.91 L 311.23 175.41 C 309.56 178.33 306.43 180.41 301.85 181.66 C 296.02 184.16 293.1 188.33 293.1 194.16 C 293.1 195.41 294.14 198.74 296.23 204.16 L 306.23 217.91 L 308.73 221.03 L 310.6 222.28 L 316.23 229.16 L 320.6 236.03 L 324.98 240.41 L 327.48 243.53 L 342.48 261.66 C 344.225 263.462 345.893 265.337 347.48 267.28 C 349.56 269.78 352.06 272.91 354.98 276.66 L 367.48 292.28 L 388.1 315.41 L 400.6 331.03 C 402.27 331.03 403.1 329.99 403.1 327.91 L 401.22 324.16 L 399.97 321.66 L 394.97 315.41 L 391.85 311.03 L 384.97 302.91 L 355.6 270.41 L 341.85 252.91 L 311.85 216.03 C 310.891 214.712 309.846 213.459 308.72 212.28 C 307.967 211.552 307.335 210.708 306.85 209.78 C 301.02 202.7 298.1 197.91 298.1 195.41 C 298.1 191.66 299.14 189.16 301.23 187.91 L 310.6 183.53 L 314.35 176.03 C 313.642 174.472 312.261 173.322 310.6 172.91 M 574.35 172.28 L 574.35 174.16 C 574.77 177.08 573.31 179.16 569.97 180.41 L 561.85 184.16 L 561.85 184.78 L 551.22 194.16 L 548.72 197.28 L 518.72 230.41 L 514.97 235.41 L 498.1 254.16 C 496.02 257.08 494.35 259.16 493.1 260.41 L 491.22 262.28 C 491.64 263.53 492.68 264.16 494.35 264.16 C 496.85 264.16 499.15 262.91 501.23 260.41 L 553.1 199.16 L 561.85 191.03 L 571.85 186.03 C 576.85 183.53 579.35 180.41 579.35 176.66 C 579.35 174.99 577.68 173.54 574.35 172.28 M 204.98 178.53 C 207.06 183.12 210.18 186.03 214.35 187.28 L 229.98 191.03 L 229.98 189.16 C 229.98 186.66 226.64 184.79 219.98 183.53 L 216.23 182.28 L 211.85 181.03 L 204.97 178.53 M 491.22 178.53 C 493.767 183.162 497.701 186.879 502.47 189.16 L 506.22 191.66 C 507.627 192.583 509.09 193.418 510.6 194.16 L 511.85 196.03 L 513.73 199.16 L 514.35 194.78 C 514.35 192.28 512.89 189.78 509.97 187.28 L 504.35 183.53 L 501.22 182.28 L 494.97 179.16 L 491.22 178.53 M 479.34 274.16 L 459.34 297.28 L 448.71 308.53 L 414.96 349.16 L 417.46 352.91 L 481.21 281.66 C 483.3 279.58 484.34 278.12 484.34 277.28 C 484.34 276.03 482.67 274.99 479.34 274.16 M 433.11 362.91 L 431.86 367.91 L 431.86 368.53 C 432.28 368.95 432.69 369.58 433.11 370.41 L 444.36 384.78 L 449.36 391.03 L 454.36 397.28 C 456.12 399.466 457.999 401.552 459.99 403.53 L 466.86 411.66 L 469.99 414.78 L 478.74 425.41 L 498.74 450.41 L 504.99 456.66 L 506.86 459.16 L 514.99 469.16 L 521.86 477.91 L 523.74 479.78 L 527.49 484.16 L 530.61 487.91 L 533.74 491.66 L 536.86 496.03 L 538.74 497.28 L 539.36 497.91 L 543.74 503.53 L 546.86 506.66 L 554.36 515.41 L 560.61 523.54 L 570.61 536.66 L 573.11 539.16 C 574.598 540.163 576.059 541.207 577.49 542.29 C 579.99 545.2 582.07 546.66 583.74 546.66 L 587.49 546.03 L 584.99 544.78 L 581.24 540.41 L 558.11 513.53 L 523.11 472.28 L 518.11 464.78 L 514.98 461.66 L 513.11 459.78 C 511.928 458.063 510.677 456.395 509.36 454.78 C 508.849 454.225 508.427 453.595 508.11 452.91 C 507.621 451.982 506.986 451.138 506.23 450.41 L 499.98 443.53 L 433.11 362.91 M 430.61 371.66 L 416.23 411.03 L 418.11 412.91 L 426.86 422.91 L 431.24 427.91 L 455.61 457.28 L 478.74 486.03 L 481.24 489.16 L 489.36 498.53 L 507.49 519.78 L 516.86 532.28 C 519.36 535.62 520.61 538.33 520.61 540.41 C 520.61 544.99 516.03 548.54 506.86 551.04 C 498.11 553.54 493.32 556.66 492.48 560.41 L 501.23 561.66 C 502.48 562.08 504.15 562.29 506.23 562.29 L 509.36 562.29 L 562.49 561.04 L 568.74 562.29 C 572.9 563.54 577.9 564.16 583.74 564.16 C 599.15 564.16 606.86 562.7 606.86 559.78 C 606.86 558.53 606.23 557.28 604.98 556.03 L 603.73 555.41 L 598.73 553.53 L 591.86 552.28 L 585.61 551.03 L 579.98 547.91 L 574.98 543.53 L 571.86 541.66 C 571.13 540.538 570.293 539.49 569.36 538.53 L 567.48 536.66 L 562.48 529.78 L 430.6 371.66 M 355.62 418.54 L 341.87 434.79 C 340.62 435.62 339.99 436.25 339.99 436.66 C 339.99 437.91 340.19 438.75 340.62 439.16 L 341.24 443.54 L 389.37 388.54 L 390.62 386.04 C 391.03 385.21 391.45 384.17 391.87 382.91 C 390.62 381.66 389.78 381.04 389.37 381.04 C 387.709 381.452 386.328 382.602 385.62 384.16 C 383.855 386.38 382.186 388.676 380.62 391.04 C 378.766 393.348 376.889 395.639 374.99 397.91 L 359.99 414.16 L 355.61 418.54 M 310 439.8 L 245 514.17 C 232.92 528.76 222.92 539.38 215 546.05 L 210 549.8 L 197.5 552.3 L 190.63 556.68 C 188.96 557.09 188.13 557.93 188.13 559.18 C 188.13 561.26 190.63 562.3 195.63 562.3 L 200.01 562.93 L 242.51 560.43 C 245.84 560.43 250.42 560.84 256.26 561.68 C 262.5 562.51 266.88 562.93 269.38 562.93 C 276.05 562.93 279.38 561.26 279.38 557.93 C 279.38 556.26 276.05 554.8 269.38 553.55 L 259.38 549.17 L 255.63 547.3 L 254.38 544.8 C 254.063 543.11 253.646 541.44 253.13 539.8 L 253.13 537.3 C 253.13 534.38 256.25 529.38 262.51 522.3 L 265.01 519.8 C 265.84 518.55 266.88 517.1 268.13 515.42 L 281.88 500.42 C 283.058 498.903 284.309 497.445 285.63 496.05 C 286.615 495.138 287.458 494.083 288.13 492.92 L 321.26 453.55 L 321.88 452.92 C 321.88 450.01 319.8 447.09 315.63 444.17 L 310 439.8 M 323.13 456.05 L 285.63 499.8 L 278.13 509.17 L 259.38 531.05 C 257.3 534.38 256.26 536.88 256.26 538.55 C 256.26 541.05 256.46 542.93 256.89 544.18 L 258.76 543.55 L 258.76 536.67 C 282.51 506.67 302.51 484.17 318.76 469.17 C 322.09 465.84 323.76 463.13 323.76 461.05 C 323.76 458.97 323.56 457.3 323.13 456.05 M 188.12 562.93 L 187.5 565.43 C 187.5 567.93 190 569.18 195 569.18 L 249.38 568.55 C 250.21 568.55 251.67 568.75 253.75 569.18 C 255.83 569.18 258.95 569.38 263.13 569.8 C 263.96 570.22 265.83 570.43 268.75 570.43 C 277.5 570.43 281.88 568.34 281.88 564.18 C 281.88 562.09 281.04 561.05 279.38 561.05 L 279.38 561.68 L 275 564.8 L 242.5 563.55 L 200.62 565.43 C 198.54 565.43 194.37 564.59 188.12 562.93 M 608.12 560.43 L 606.87 562.93 C 605.62 563.76 604.58 564.38 603.75 564.8 L 603.12 565.43 L 598.12 565.43 L 585 566.05 L 539.37 564.17 L 508.75 565.42 C 505 565.42 500 564.59 493.75 562.92 L 491.87 562.92 C 492.71 567.51 499.79 569.8 513.12 569.8 L 513.75 569.8 L 560.63 568.55 L 591.25 571.68 C 604.58 572.51 611.25 569.8 611.25 563.55 C 611.25 562.3 610.21 561.25 608.12 560.42" transform="translate(-146.86 -119.79)"/>
  <path d="M146.86 619.79v-500h500v500h-500m7.5-7.5h485v-485h-485v485m7.5-7.5V135.41h469.38v469.38H161.86m6.25-439.38-.63 6.25 3.13-.63c1.25-2.91 1.87-5.2 1.88-6.87 0-1.25-.63-3.33-1.88-6.25-.83-2.92-1.25-5.2-1.25-6.88 0-2.91 1.67-4.37 5-4.37 4.58 0 6.46 2.3 5.63 6.87v4.38c0 3.75-.63 7.08-1.88 10l-3.13 9.37a38.8 38.8 0 0 0-2.5 7.5 175.5 175.5 0 0 1-3.74 12.5l-1.88 42.5.63 3.75.62 5 1.25 6.25 2.5 8.75 1.88 5 5 10.63 2.5 4.37 3.75 6.25 9.37 11.25 10.63 10.63c22.08 17.08 40 25.62 53.75 25.62 2.08 0 3.74-.2 5-.62-2.92-3.75-5-5.83-6.25-6.25-1.25-.83-3.96-1.67-8.13-2.5-.83-.42-2.5-1.04-5-1.88l-10-5-5-3.12-21.88-17.5c-14.16-16.67-21.24-35-21.24-55 0-26.67 13.95-40.83 41.87-42.5-2.5-5-7.08-7.5-13.75-7.5l-9.38 1.87v-6.87c-2.5.83-6.87 3.54-13.12 8.12l-5 5-1.25.63-5.63 9.37-2.5 11.88.63 4.37c.42.42.63 1.25.63 2.5 0 .84-.84 1.25-2.5 1.25l1.87-.62c-3.75 0-5.2-1.67-4.38-5v-1.88l.63-6.25 6.88-21.87 3.75-6.25a43.7 43.7 0 0 1 3.12-6.25c1.25-2.5 2.7-5.2 4.38-8.13l4.37-3.75c.42-.41.63-1.45.63-3.12 0-2.5-.63-5.42-1.88-8.75l-1.25-.63c-.42 1.25-2.08 3.34-5 6.25-.83-3.33-1.25-5.41-1.25-6.25v-6.87c.83-9.58-2.5-14.38-10-14.38-7.92 0-11.88 3.76-11.88 11.25 0 2.09.21 4.59.63 7.5.83 2.92 1.25 5.21 1.25 6.88m28.13-21.88v1.25c4.16 0 6.87 2.09 8.12 6.25l-.63 3.75-3.12 5.63v3.12l7.5-9.37c.83-2.5 1.25-4.37 1.25-5.63 0-5.41-2.7-8.12-8.13-8.12h-.62l-.63.62-3.74 2.5m68.75-2.5-12.5 1.88c-18.34 2.5-33.96 10.83-46.88 25l10-.63 15-10c4.58-2.08 12.3-4.58 23.13-7.5 2.5-.41 5-.62 7.5-.62 2.5-.42 5-.63 7.5-.63 17.5 0 33.95 5.21 49.37 15.63l1.88 2.5-1.25 8.12 2.5 5 1.25 1.88 3.12 3.12 2.5 3.13 3.13 5a19.8 19.8 0 0 1 2.5 10c0 3.75-2.09 5.63-6.25 5.62-6.26 0-9.38-4.37-9.38-13.12-3.33 3.33-5 5.83-5 7.5v2.5c.42 1.25.83 2.92 1.25 5l.63 1.25c3.74 6.67 8.74 10 15 10 7.91 0 13.54-4.37 16.87-13.13l1.88.63c0 2.5.83 3.96 2.5 4.37 3.74-4.16 5.62-8.54 5.62-13.12 0-3.33-.83-6.04-2.5-8.13a27.34 27.34 0 0 0-5.63-6.25 28.33 28.33 0 0 0-5-5c-1.66-1.25-2.5-2.5-2.5-3.75 0-2.5 1.25-3.74 3.75-3.75 1.25 0 3.34.84 6.25 2.5l3.13 4.38c3.33 4.58 9.17 6.88 17.5 6.87h2.5v-3.75c0-.83-1.04-2.91-3.13-6.25 10.84-4.58 16.25-10.83 16.25-18.75 0-12.08-6.04-18.12-18.12-18.12-2.08 0-5.42 1.67-10 5 10.42.42 15.63 3.54 15.63 9.37 0 2.92-1.05 4.8-3.13 5.63l-5 1.25h2.5l-5 .62c-2.5 0-5.42-.83-8.75-2.5l-1.88-1.25-10-7.5c-3.33-1.25-5.62-1.87-6.87-1.87s-3.54 1.04-6.88 3.12l-1.25 5-6.25-1.87-5-3.75c-.83-.83-3.12-1.87-6.87-3.13l-15.63-5c-.41-.41-1.25-.62-2.5-.62s-2.5-.2-3.75-.63v-.62l-22.5-1.25-1.25.62m130.63 21.88 1.25 3.75 1.87 1.87c6.25 5 11.88 7.92 16.88 8.75-.84 2.09-2.3 3.13-4.38 3.13l-10 5c4.17 6.25 10.83 9.38 20 9.37 4.17 0 7.7-.83 10.63-2.5h.62c5.42 0 10.42-2.29 15-6.87l9.38-10.63 6.25-3.75-2.5 5.63-2.5 5.62c-.84 3.34-1.25 5.21-1.25 5.63 0 4.58.83 9.17 2.5 13.75l3.75 5.62 3.12 4.38 5 1.87 3.13-7.5 5.62 4.38a8.3 8.3 0 0 0 5 1.87c7.92 0 12.08-3.95 12.5-11.87v-.63l-2.5-3.75-2.5 1.88-6.25 1.25-2.5-.63c-5-4.16-7.5-8.74-7.5-13.75 0-10 5.42-18.54 16.25-25.62 10.83-7.5 23.54-11.25 38.13-11.25 12.91 0 27.29 4.38 43.12 13.12l17.5 13.13c-.42-2.08-.83-3.96-1.25-5.63-.42-1.66-.83-3.54-1.25-5.62a18.84 18.84 0 0 0-2.5-1.88c-.83-.83-2.3-2.08-4.38-3.75l-16.25-9.37c-7.5-4.17-18.54-6.67-33.12-7.5H520.6c-14.58-.83-31.45 3.75-50.62 13.75l-25 12.5c-7.92 4.17-14.38 6.25-19.38 6.25-2.91 0-6.87-1.25-11.87-3.75-4.58-2.5-6.88-5.62-6.88-9.38 0-6.24 1.88-9.37 5.63-9.37 2.08 0 3.54.2 4.38.62v6.88c0 4.58 4.37 6.88 13.12 6.87 11.25 0 17.08-5.2 17.5-15.62 0-2.08-.83-3.75-2.5-5-2.08 10.83-6.88 16.25-14.38 16.25-3.75 0-5.62-1.25-5.62-3.75v-.63l1.25-7.5c0-5.83-3.96-8.74-11.88-8.75-13.33 0-20 5.21-20 15.63 0 .83.42 3.33 1.25 7.5m191.88-22.5c-2.91 2.92-4.37 5.63-4.37 8.12 0 1.67 1.25 3.76 3.75 6.25l3.13 5 1.87-1.25c-3.33-4.58-5-7.5-5-8.75 0-3.33 1.46-5 4.38-5 2.08 0 4.79.63 8.12 1.88-.42-5.42-3.33-8.12-8.75-8.13l-1.25.63-1.88 1.25m26.25 3.12c-3.33 0-5.62 1.05-6.87 3.13l-1.88 4.37v10.63l-7.5-3.75c-2.08 0-3.12 2.5-3.12 7.5 0 3.75.2 6.25.63 7.5l4.37 8.75 2.5 3.75c4.17 1.67 7.7 5 10.63 10 1.25 3.33 1.87 5.63 1.87 6.87v3.75c-1.67-1.25-3.13-3.74-4.38-7.5-.83-4.16-3.54-8.12-8.12-11.87-2.5-2.5-6.46-4.17-11.88-5l-5-.63v6.25h-1.25l-.62.63-3.75 1.25-1.88 1.87.63 9.38h1.25c3.75-2.5 6.46-3.75 8.13-3.75 5 0 10 3.33 15 10l3.12 5c3.33 8.75 5 19.17 5 31.25 0 5.42-1.04 11.67-3.13 18.75l-6.25 18.12c-.41.42-.62 2.5-.62 6.25v2.5c.42 1.25.83 2.92 1.25 5v2.5c2.92-2.91 5.83-6.87 8.75-11.87 2.92-5 5.42-10 7.5-15a60.79 60.79 0 0 0 5-16.25c1.25-5.42 1.67-10 1.25-13.75l-1.25-29.38-5-21.87-4.38-22.5a40.1 40.1 0 0 0-1.25-5.63v-3.12c0-2.08 1.67-3.12 5-3.13h.63l3.13 1.25c.83 2.09 1.45 3.13 1.87 3.13 1.25 0 1.87-1.04 1.88-3.13 0-4.16-.42-6.66-1.25-7.5l-3.13-3.12-1.88-1.25h-5v.62m-366.25 10-1.24 2.5c6.66-1.25 11.45-1.87 14.37-1.87 11.67 0 18.33 2.7 20 8.12l-3.75 2.5h-5.63l4.38 2.5c2.5.84 4.17 1.25 5 1.25 8.75 0 13.13-2.29 13.13-6.87 0-1.25-1.25-3.12-3.75-5.63l-1.88-.62c-8.33-3.33-13.75-4.8-16.25-4.38h-1.88l-22.5 2.5m275.63-3.12c-8.76 4.58-13.13 7.92-13.13 10 0 5 5 7.5 15 7.5h2.5l14.38-3.13a8.72 8.72 0 0 1 3.75-.62c.83 0 2.08.42 3.75 1.25 2.08.42 3.54.62 4.37.62.83 0 1.25-.41 1.25-1.25 0-.83-.42-1.66-1.25-2.5l-3.75-.62-20 1.87c-2.92.42-4.38-.83-4.38-3.75 0-2.91 3.34-4.37 10-4.37 11.25 0 20.42 2.3 27.5 6.87 4.17 2.92 7.3 4.38 9.38 4.38l11.25 8.12 5.63 3.13.62-1.88c0-1.25-.83-2.08-2.5-2.5-3.33-2.91-7.7-5.83-13.13-8.75-5-2.91-11.25-6.04-18.75-9.37-10.41-3.75-17.7-5.42-21.87-5H523.1m-283.12 15.62c1.67-.41 3.55-.83 5.63-1.25 2.5-.41 5.42-.83 8.75-1.25h3.13l8.75.63a45.56 45.56 0 0 0-15.63-2.5c-4.58 0-8.13 1.46-10.63 4.37m-8.12 21.25 13.13 15 5.62 6.88 3.13 3.12 3.12 4.38 15 18.12 24.38 28.75 3.12 4.38 8.13 10 1.25 1.87 10.62 13.13 9.38 10.62 5.62 5.63 11.88 15.62 12.5 15.63 8.12 10c4.17 4.17 7.3 8.33 9.38 12.5v1.25a9.82 9.82 0 0 0-2.5 1.87 9.8 9.8 0 0 1-1.88 2.5l-36.25 41.88-1.25.62-1.25 2.5-.63 2.5c3.75 3.76 5.63 10 5.63 18.75l36.25-39.37 5-6.88c2.5-3.74 6.04-7.29 10.63-10.62l3.12 3.75-1.25-1.88 1.88 2.5 5 7.5 3.12 3.75 1.88 1.88 1.87 1.25 1.88-5.63 8.75-23.75 3.12-6.25v-1.87a19.63 19.63 0 0 0-3.75-5l-3.13-3.75 21.88-27.5 38.75-43.75c2.5-2.92 3.75-4.8 3.75-5.63 0-.83-.63-1.66-1.88-2.5l-3.12-1.87-8.13-6.88-8.75 9.38-25.62 30.62-8.13 8.13c-10.83 13.33-16.87 20.2-18.12 20.62l-1.88 1.88c-.41 0-.83.2-1.25.62l-102.5-122.5c-5-7.5-7.5-12.5-7.5-15 0-7.91 2.09-12.7 6.25-14.37l11.25-5.63c.84-.83 1.25-1.45 1.25-1.87 0-2.5-1.87-3.75-5.62-3.75h-3.13c-2.08 0-3.95.2-5.62.62l-43.75 1.25-16.25-.62H222.48c-1.24 0-2.7-.2-4.37-.63h-1.88c-6.25 0-9.79 1.05-10.62 3.13 0 2.08 1.67 3.54 5 4.37l14.38 4.38 6.87 4.37m320-16.25h3.13l-41.25.63H500.6l-3.13-.63c-4.16 0-6.25 1.05-6.25 3.13l.63.62v.63c.42 1.25 1.04 1.88 1.88 1.87l12.5 5 7.5 5c2.5 2.5 3.74 5 3.75 7.5 0 3.34-2.09 7.71-6.25 13.13l-13.13 17.5-16.25 16.87-8.75 11.25 15 8.75 53.13-61.25 8.75-8.75c4.58-5 8.12-7.91 10.62-8.75 7.5-2.91 11.25-6.04 11.25-9.37 0-2.92-2.3-4.37-6.88-4.38h-3.75c-2.08 0-4.16.21-6.25.63l-3.12.62m-241.25 1.88.63 2.5c-1.67 2.92-4.8 5-9.38 6.25-5.83 2.5-8.75 6.67-8.75 12.5 0 1.25 1.04 4.58 3.13 10l10 13.75 2.5 3.12 1.87 1.25 5.63 6.88 4.37 6.87 4.38 4.38 2.5 3.12 15 18.13a89.15 89.15 0 0 1 5 5.62c2.08 2.5 4.58 5.63 7.5 9.38l12.5 15.62 20.62 23.13 12.5 15.62c1.67 0 2.5-1.04 2.5-3.12l-1.88-3.75-1.25-2.5-5-6.25-3.12-4.38-6.88-8.12-29.37-32.5-13.75-17.5-30-36.88a36.67 36.67 0 0 0-3.13-3.75 9.76 9.76 0 0 1-1.87-2.5c-5.83-7.08-8.75-11.87-8.75-14.37 0-3.75 1.04-6.25 3.13-7.5l9.37-4.38 3.75-7.5a5.6 5.6 0 0 0-3.75-3.12m263.75-.63v1.88c.42 2.92-1.04 5-4.38 6.25l-8.12 3.75v.62l-10.63 9.38-2.5 3.12-30 33.13-3.75 5-16.87 18.75c-2.08 2.92-3.75 5-5 6.25l-1.88 1.87c.42 1.25 1.46 1.88 3.13 1.88 2.5 0 4.8-1.25 6.88-3.75l51.87-61.25 8.75-8.13 10-5c5-2.5 7.5-5.62 7.5-9.37 0-1.67-1.67-3.12-5-4.38m-377.5 5-5 3.75 1.88-1.25-3.13 5.63-1.25 2.5 8.13-5.63-.63-5m8.13 1.25c2.08 4.59 5.2 7.5 9.37 8.75l15.63 3.75v-1.87c0-2.5-3.34-4.37-10-5.63l-3.75-1.25-4.38-1.25-6.88-2.5m286.25 0a25.29 25.29 0 0 0 11.25 10.63l3.75 2.5a40.6 40.6 0 0 0 4.38 2.5l1.25 1.87 1.88 3.13.62-4.38c0-2.5-1.46-5-4.38-7.5l-5.62-3.75-3.13-1.25-6.25-3.12-3.75-.63m-114.38 29.38-1.25 2.5-1.87 5.62a22.18 22.18 0 0 0-2.5 10c0 2.92.83 6.26 2.5 10l1.88 3.75c0-8.33.2-12.91.62-13.75l2.5-5c1.25-2.91 2.92-6.66 5-11.25l-2.5-.62-1.25-1.25 3.13-4.38 1.25-5.62 2.5-.63c.41.84.62 2.3.62 4.38 0 1.67-.83 3.33-2.5 5 2.08 0 3.12.62 3.13 1.87 0 1.67-1.46 3.96-4.38 6.88-3.75 5.83-5.42 11.87-5 18.12v4.38a9.46 9.46 0 0 0 6.25 6.87l-3.75-8.75 1.88-1.25-1.25-5.62 2.5-.63.62-6.25 3.75-.62v-4.38l2.5-.62c1.25 1.25 1.87 3.54 1.88 6.87.41 1.25.83 1.88 1.25 1.88h1.25l-.63-5.63.63-1.25 2.5 3.75 3.12 6.25c-.42-.41-.63-1.66-.63-3.75 0-1.25.42-1.87 1.25-1.87 1.67 0 2.5 1.25 2.5 3.75l.63 1.25 1.88-.63v-8.75l1.25-9.37c0-6.25-2.3-9.8-6.88-10.63l-1.25 6.25-1.88-.62 1.88-.63h-1.88c-3.75-13.75-7.7-20.62-11.87-20.62-.83 0-1.46 1.46-1.88 4.37l-1.25 6.88-3.12 6.25a337.8 337.8 0 0 1-3.13 7.5m71.88-16.25c-2.92 7.5-7.5 10.83-13.75 10l-5.63-.63c1.67 2.92 3.96 4.38 6.88 4.38 6.67 0 11.04-2.5 13.13-7.5l1.87-4.38c.83-3.33 1.25-4.37 1.25-3.12-.83-.83-1.46-1.25-1.88-1.25l-1.25.62-.62 1.88m-83.75 3.12c2.08 3.34 3.12 6.05 3.13 8.13 0 1.25-2.71 2.5-8.13 3.75-.42.42-.63 1.25-.63 2.5 0 1.67 1.88 2.5 5.63 2.5 4.17 0 6.25-3.33 6.25-10 0-3.33-2.08-5.62-6.25-6.88m196.25 2.5c-1.25 6.67-3.33 11.46-6.25 14.38-4.17 3.75-6.67 6.88-7.5 9.37a15.34 15.34 0 0 0-1.25 5.63c0 1.25 1.04 2.92 3.13 5h-3.13l-5.63-1.25-6.87 1.87c-2.92 2.92-4.38 5.84-4.38 8.75v1.25c2.92.84 5.63 1.67 8.13 2.5a6.02 6.02 0 0 1 5 4.38l1.88 8.12-3.13 6.88v3.12l-3.13 3.75c-6.25 5-11.66 7.92-16.25 8.75v1.25c15.84-2.91 24.8-8.54 26.88-16.87 1.25-4.17 2.3-6.25 3.13-6.25 1.25 0 1.87.62 1.87 1.87 0-2.91-1.67.21-5 9.38l-5 5.62-1.25 1.25-2.5 1.88c14.17-5 22.7-16.88 25.63-35.63h.62c1.67 0 2.5.63 2.5 1.88l-.63 1.87-3.12 10c-.42 1.25-.83 2.3-1.25 3.13v.62l-3.75 4.38-1.25 3.75-2.5 2.5-1.25 1.87 1.88.63c1.25 0 3.33-1.87 6.25-5.63 3.33-4.16 5.2-6.87 5.62-8.12 1.67-5.42 3.12-8.12 4.38-8.13l1.25 1.25v1.25l-3.13 5.63-.63 5c10.84-6.67 17.92-16.67 21.25-30a61.75 61.75 0 0 1 3.13-9.38l3.75-10h-3.13c-2.91-.41-5 .63-6.25 3.13h-1.25c-1.25 0-2.7 1.46-4.37 4.37l-2.5 3.13v-.63c-1.67 0-2.5-.2-2.5-.62l-.63-4.38v-3.75c0-3.74-2.29-7.91-6.87-12.5l-3.13-2.5-6.87-3.75m-106.88 4.38c-.42 1.25-.63 2.7-.63 4.37 0 1.25-.2 2.09-.62 2.5-1.25 5.84-1.88 9.38-1.88 10.63v1.25c0 7.92 2.3 17.08 6.88 27.5l1.25 1.87 1.88 3.75 8.75 10c13.33 10.84 25.62 16.25 36.87 16.25 8.33 0 16.46-2.08 24.38-6.25 3.74-2.08 5.83-3.95 6.25-5.62l.62-3.13-5 2.5v-3.12c.42-.42 2.08-1.25 5-2.5 2.92-1.67 4.37-3.96 4.38-6.88 0-1.25-.63-2.29-1.88-3.12l-.63 3.12-5.62 6.25-8.13 5-6.25 4.38c-1.66 1.67-5.41 2.5-11.25 2.5-3.75 0-6.25-.2-7.5-.63a46.27 46.27 0 0 0 8.13-1.87c2.5-.83 5.2-1.67 8.13-2.5l5-3.75 5-5c.83-.83 1.25-2.3 1.25-4.38 0-5.83-2.09-8.74-6.25-8.75-1.67 0-3.76 1.25-6.25 3.75l-.63 3.13c3.75 0 5.83 1.46 6.25 4.37-4.58 7.5-12.5 11.25-23.75 11.25-3.33 0-6.67-.83-10-2.5l-3.75-1.87-6.88-4.38-3.75-2.5c-11.66-10.41-17.29-22.7-16.87-36.87v-.63l1.25-11.87-3.75-6.25m-223.75 22.5v3.75l1.25 5 1.25 3.75 4.38 6.87v1.25l2.5.63-3.75-8.13c2.5-.83 3.54-1.25 3.12-1.25.83 0 1.25 1.46 1.25 4.38l.63 1.87 1.25 1.25 1.87 6.88c-6.25.83-9.38 3.13-9.37 6.87l.62 2.5 1.88 5 1.25 3.13 3.75 4.37 2.5 1.88 8.75 7.5c8.74 7.08 19.16 10.2 31.25 9.37h2.5l13.12-.62c5.42-.42 8.12-1.25 8.13-2.5 0-3.75-1.67-5.62-5-5.63-1.25 0-4.59.63-10 1.88-1.25.42-3.34.62-6.25.62-3.76 0-11.67-1.66-23.75-5l-7.5-3.75-5-3.12a88.67 88.67 0 0 1-5.63-5c-.83-1.67-2.3-4.17-4.37-7.5l11.87 3.75v1.25h-3.12c-.84 0-1.25.2-1.25.62 0 1.25 3.74 3.34 11.25 6.25 3.33 1.67 6.24 2.5 8.75 2.5 1.25 0 1.87-.62 1.87-1.87l.63-4.38 1.87-6.25h-2.5l-16.25.63-1.25-1.88c-3.75-.41-5.63-1.66-5.62-3.75v-1.87c7.91 1.25 12.91 1.88 15 1.87 10.41 0 15.62-1.66 15.62-5-.83-2.5-1.25-3.54-1.25-3.12l-3.75-2.5-3.13-5.63h-3.12c-5 5.84-9.8 8.76-14.38 8.75-4.16 0-6.25-1.04-6.24-3.12.41-.42.62-.83.62-1.25l1.25-1.25 8.75-3.13c4.17-1.25 6.25-4.58 6.25-10 0-.41-.63-1.04-1.88-1.87l-5-5h-3.12l-1.25 1.25c0 .42-.2.83-.62 1.25l-3.13 3.75-1.87 6.25v.62c0 2.5-.63 3.76-1.88 3.75-1.25 0-1.88-.62-1.87-1.87 0-2.92.41-6.04 1.25-9.38l3.75-10c.41-.41.62-1.45.62-3.12 0-.83-.2-1.46-.62-1.88l-5-3.75-6.88-5c-2.08 0-3.75 6.05-5 18.13m180.62-3.75-.63 11.25 1.26.62 1.87.63c-.83-3.33-1.25-5.2-1.25-5.63 0-.41 1.04-1.04 3.13-1.87l.62 6.87c2.5-5.41 4.58-8.12 6.25-8.12l5 1.25c.83-.42 1.67-2.08 2.5-5 .83-3.33 4.8-6.04 11.88-8.13l-.63 2.5a11.38 11.38 0 0 0-8.13 6.25c-1.24 2.92-1.87 5.21-1.87 6.88l.63 3.12-.63 1.25-7.5-3.75c-2.92 2.92-4.38 6.26-4.38 10 0 2.5.63 5.63 1.88 9.38l1.88 3.12c1.25 2.5 1.87 4.38 1.87 5.63 0 .83-1.25 1.46-3.75 1.87l2.5-.62-3.75.62-.63-1.25c-1.66-6.66-6.66-15.62-15-26.87l-.62 3.75h-1.88 1.88l-12.5-7.5-4.38-1.25-.62 13.12a8.4 8.4 0 0 0 2.5 7.5l1.25 3.75h-3.13l-2.5-1.25-.62 4.38 5 6.25 4.38 4.37 3.75 2.5c2.5 3.76 3.74 6.26 3.75 7.5 0 1.25-1.67 1.88-5 1.88l-4.38-5-4.38-8.13-4.37-5.62c-2.08-2.08-5-3.33-8.75-3.75l-1.25 4.37-6.25-.62h-2.5c-1.67.42-2.5 0-2.5-1.25 0-.83.2-1.25.63-1.25h6.25l3.75-5 9.37 1.87.63-4.37c-3.34-2.5-6.05-3.75-8.13-3.75l-5.63.62.63 5-4.38 1.25c-3.33.42-5.83 1.88-7.5 4.38-1.24 2.08-1.87 3.33-1.87 3.75.42.83 1.67 1.67 3.75 2.5 2.5.83 5.42 2.5 8.75 5l1.88 1.87 8.12 8.13 1.25 2.5 1.88 1.87 3.12 3.13c5.83 7.08 12.08 10.62 18.75 10.62 3.75 0 6.25-1.25 7.5-3.75l2.5-5 5 3.13 1.88 1.87 1.87 3.13 1.88 3.12 1.25 4.38c3.33-2.5 5-5.2 5-8.13 0-4.16-1.88-10.62-5.63-19.37l6.25 1.25c2.08 2.08 3.54 3.13 4.38 3.12 3.74 0 6.87-1.87 9.37-5.62a17.19 17.19 0 0 0 3.75-12.5l-.63-3.75-2.5-16.25-.62-12.5c0-1.67.42-4.17 1.25-7.5.83-3.75 1.25-6.46 1.25-8.13 0-1.66-2.08-2.5-6.25-2.5-2.92 0-5.83.84-8.75 2.5a12.58 12.58 0 0 1-6.88 3.75l-.62-8.75c-6.25.84-10.42 5.63-12.5 14.38m-201.25-1.88 1.25 6.25v1.88a32.82 32.82 0 0 1 3.75 5.62l3.75 3.75 4.38 5 5 3.75-5.63-11.25 5.63 1.25-.63 2.5 3.75 3.75v2.5h-2.5v3.75a35.44 35.44 0 0 1-6.25-1.87l-5-2.5-6.25-6.25c-3.33-5-6.25-8.33-8.75-10l-3.12-.63c-.42.84-.84 1.88-1.25 3.13 0 1.25-.21 2.3-.63 3.12l-1.87 11.88c1.25 7.08 10.62 10.62 28.12 10.62 3.33 0 5.42-.62 6.25-1.87l2.5-4.38 2.5-2.5-8.12-15.62-1.88-18.13-4.37-1.87-5.63 3.12-5.62-1.25c-.42.42-.84.63-1.25.63l-.63.62v1.25c0 2.09.83 3.34 2.5 3.75m252.5-6.25c-.42 2.09-.83 3.96-1.25 5.63v3.75c0 5.83 2.92 11.04 8.75 15.62h5c5.83.84 8.75-1.87 8.75-8.12 0-2.08-.83-3.75-2.5-5-1.67 2.92-3.75 4.38-6.25 4.37-5 0-8.33-3.33-10-10l-1.25-2.5c0-.83-.42-2.08-1.25-3.75m-108.12 5-1.25 2.5h-3.13l-5 31.25c1.25 2.92 2.92 4.38 5 4.38 4.17-8.33 6.25-17.92 6.25-28.75v-3.75c0-2.5-.2-4.37-.62-5.63h-1.25m-21.25 11.88h-1.25v5l1.25 1.87c3.33 2.09 5.62 3.13 6.88 3.13 4.16 0 6.24-3.75 6.25-11.25l-.63-1.88-1.88.63.63 3.75c0 1.25-1.04 1.88-3.13 1.87-2.08 0-4.79-1.04-8.12-3.12m-104.38 26.25v.62l-5.62 1.25c-7.09 1.67-12.09 2.5-15 2.5h-.63l-10-.62c-1.67 0-2.5.62-2.5 1.87.42.84.83 1.46 1.25 1.88l1.25 1.25 1.25 1.87 1.25 5c3.33 3.34 6.04 5 8.13 5 10.41 0 17.91-4.79 22.5-14.37l-3.75.62-.63 1.25-4.37-1.25 10.62-5-3.75-1.87m53.75 5c-4.17 2.5-6.25 5.83-6.25 10l.63 3.12c3.74 5 8.12 7.5 13.12 7.5h5l6.25-1.25v-3.12c-1.25.42-3.75.62-7.5.62-6.67 0-10-2.5-10-7.5 0-2.5 1.87-3.54 5.63-3.12h1.25c-.42-2.92-3.13-5-8.13-6.25m319.38-1.25c-7.08 5.83-10.42 12.92-10 21.25v5.62l.63 5.63.62 4.37c1.25 7.5 2.7 11.25 4.38 11.25 2.5 0 3.74-1.45 3.75-4.37 0-1.25-.84-3.75-2.5-7.5-1.25-4.17-1.88-7.5-1.88-10 0-5.83 1.46-11.88 4.38-18.13l1.87-5.62-1.25-2.5m-365 13.12c0 2.92-1.04 5-3.12 6.25l-1.25-3.75 1.25-6.25c0-.83-.42-1.25-1.25-1.25a84.6 84.6 0 0 1-3.13 5.63 84.6 84.6 0 0 1-3.12 5.62 9.74 9.74 0 0 1-2.5 1.88c-.84.42-1.46.83-1.88 1.25l-11.87 4.37v2.5l3.12 1.88 5.63 3.75h1.25c6.24 0 11.66-3.12 16.25-9.38.83-3.33 1.25-5.2 1.25-5.62 0-3.33-.21-5.62-.63-6.88m338.12-3.12-1.88.62-8.12 2.5-18.75 6.88c-9.58 3.75-17.08 5.42-22.5 5l-10-1.25v1.25c5 1.67 9.8 2.5 14.38 2.5 2.08 0 9.16-1.67 21.25-5a39.6 39.6 0 0 1 11.25-1.88c2.5 0 6.45 2.09 11.87 6.25 2.08 2.92 2.92 5 2.5 6.25v2.5c-1.25 2.92-3.33 5-6.25 6.25h-5c1.25 2.92 3.33 4.38 6.25 4.38 9.58 0 14.38-5 14.38-15 0-2.08-1.25-5.42-3.75-10h3.12c1.67 0 2.5-.63 2.5-1.88 0-2.08-1.46-4.58-4.38-7.5l-6.87-1.87m45 3.12c-1.67 2.92-2.5 5.42-2.5 7.5v.63l1.88 9.37v6.88l.62 4.37c0 6.26-1.04 11.46-3.13 15.63-1.66 4.17-2.5 6.67-2.5 7.5 0 1.25.84 3.33 2.5 6.25 5.84-9.58 8.75-21.25 8.75-35 0-9.17-1.87-16.88-5.62-23.13m-140.62 1.88-20 23.12-10.63 11.25-33.75 40.63 2.5 3.75 63.75-71.25c2.09-2.08 3.13-3.54 3.13-4.38 0-1.25-1.67-2.29-5-3.12m-311.25 7.5-2.5 1.87-.62 4.38 1.25 7.5.62 1.87 11.25 10-.62-5-4.38-5a4.24 4.24 0 0 1-1.25-3.12c0-1.67.83-2.5 2.5-2.5s3.96 1.46 6.88 4.37c3.74 10.42 12.5 18.75 26.25 25v-1.87c-9.59-7.5-16.88-14.8-21.88-21.88-5-7.5-8.33-11.66-10-12.5-1.25-1.25-3.75-2.29-7.5-3.12m76.88-.63 1.25 4.38c1.25 3.33 2.5 5 3.75 5 2.5 0 4.58-.83 6.25-2.5l-11.25-6.88m271.88 31.25c-2.09-2.08-3.13-4.37-3.13-6.87v-.63c-2.92.42-4.38 1.88-4.38 4.38 0 6.25 3.34 9.38 10 9.37 5.84 0 9.17-1.66 10-5 0-2.08.21-3.12.63-3.12l-1.25-12.5c0-3.75 2.3-5.62 6.88-5.63.41 0 2.91.63 7.5 1.88 2.08 3.33 3.12 5.63 3.12 6.87v2.5l-3.13 7.5-3.75 4.38c-3.75 3.75-9.37 7.08-16.87 10a64.68 64.68 0 0 1-12.5 4.38c-2.08.83-3.13 1.66-3.13 2.5 0 .83.21 1.24.63 1.24l1.88-.62 5-1.88 27.5-10c9.58-3.74 14.37-10.62 14.37-20.62 0-8.33-5.42-12.5-16.25-12.5-9.17 0-14.17 3.54-15 10.62l-1.88 11.25-6.25 2.5m-19.37-22.5-3.75 3.13a14.54 14.54 0 0 1-1.88 3.12l-2.5-.62-1.87-1.25c-3.33-.83-5.2-1.25-5.63-1.25-2.5 0-4.16.2-5 .62-5 3.34-7.91 6.26-8.75 8.75l-.62 5 .63 6.25c0 2.92-1.05 4.38-3.13 4.38a9.14 9.14 0 0 1-5.63-1.88v1.25c1.25 4.59 3.13 6.88 5.63 6.88 5.83 0 8.54-3.33 8.13-10v-.63l-.63-5c0-3.33 2.08-5 6.25-5 1.25 0 2.92.63 5 1.88l2.5 1.87 1.88 5c-2.09 8.76-5.21 14.59-9.38 17.5l-11.88 7.5-2.5 1.88-1.87 1.87c-.83.42-2.08 1.46-3.75 3.13-2.92 5.83-4.38 10.42-4.38 13.75v3.12c.42.84.84 2.09 1.25 3.75l-8.75 6.25.63 3.13 3.75 4.37.63 1.25h2.5c2.08-3.33 4.37-5.2 6.87-5.62l2.5 8.12c3.33 2.09 5.83 3.13 7.5 3.13 2.5 0 5-.63 7.5-1.88l22.5-10h1.88c3.33 0 7.08 1.46 11.25 4.38l.62 1.25 1.25 8.75c7.92-1.67 11.88-6.67 11.88-15 0-2.08-.84-4.58-2.5-7.5l1.25-2.5h-6.88l-8.75-1.25-.63-1.25a40.75 40.75 0 0 1 2.5-4.38 22.34 22.34 0 0 0 1.88-5.62l-1.88-.63-1.87-.62-5.63-.63c-4.58 0-8.95 1.25-13.12 3.75l-5.63 3.13-2.5.62-5 8.13h-5.62l-1.25-1.25v-2.5c-.83-2.92 0-4.58 2.5-5l10.63-3.13c10-2.91 16.25-12.29 18.75-28.12l-2.5-1.25-3.13 1.87h-3.13c3.75-6.24 6.05-12.29 6.88-18.12l-5-16.88m-188.75 3.13-6.88 3.75c-3.33 5.83-5 9.8-5 11.87l.63 4.38 1.88 6.87c4.58 5.84 9.37 8.76 14.37 8.75 10 0 15-4.79 15-14.37 0-1.67-1.25-4.37-3.75-8.13-3.33-2.08-6.04-3.12-8.13-3.12-2.08 0-3.95 1.46-5.62 4.37l7.5 3.13c.83 3.33 1.25 4.8 1.25 4.37 0 3.76-2.08 5.42-6.25 5h-5l-2.5-2.5c-2.92-2.91-4.38-5.83-4.38-8.75 0-3.33 1.46-6.24 4.38-8.75l6.88-6.25-1.25-1.87-3.13 1.25m-80.63 16.25 1.26 3.12 10 6.88c1.25.83 1.87 1.46 1.87 1.87h.63c2.91 1.67 6.66 2.5 11.25 2.5h1.87a6.02 6.02 0 0 0-4.37-5c-9.59-3.33-14.38-7.7-14.38-13.12 0-4.17 2.5-6.25 7.5-6.25 2.5 0 6.67 2.3 12.5 6.87-2.08-8.74-7.08-13.12-15-13.12-9.58 0-14.17 3.96-13.75 11.87l.63 4.38m48.75-15.63 1.87.63c-7.92 1.25-11.67 4.58-11.25 10l.63 5 1.25 1.87c2.08 1.25 3.33 2.71 3.75 4.38-9.17 0-13.75 2.08-13.75 6.25 0 1.67.62 3.75 1.87 6.25 2.5 3.75 6.25 6.25 11.25 7.5v-1.88l-3.75-2.5 18.75 6.25-3.13.63c-2.91 0-6.04-.83-9.37-2.5v1.25l.63 1.25c.41.83 1.66 1.46 3.75 1.87l11.87 1.88 14.38 1.87 8.12 3.75c.42.42.63 1.25.63 2.5s-.84 2.09-2.5 2.5l.62.63-9.38-1.25-5-2.5-6.87-1.88c-5-1.25-9.58-1.87-13.75-1.87-1.67 0-6.67 1.04-15 3.12-7.92 2.5-13.54 5.42-16.88 8.75l-5.62 6.88-3.12 2.5v2.5l7.5 1.87.62 2.5c-1.25 3.34-1.88 5.63-1.87 6.88 0 2.5.2 4.17.62 5l.63 3.75c4.58 7.08 11.66 10.62 21.25 10.62 8.74 0 14.16-4.16 16.25-12.5l-1.25-1.87-1.25 3.12c-2.09 2.5-3.76 3.76-5 3.75-1.67 0-4.38-.62-8.13-1.87-2.5-2.92-3.75-5.62-3.75-8.13 0-6.24 3.75-11.45 11.25-15.62s17.08-6.25 28.75-6.25c8.75 0 19.17 2.7 31.25 8.12l20 14.38c6.67-6.67 10-10.83 10-12.5 0-1.25-1.88-3.75-5.63-7.5a76.28 76.28 0 0 1-5-3.75 34.22 34.22 0 0 0-6.87-6.25l-1.88-1.25-11.87-8.13a56.53 56.53 0 0 0-13.13-6.87 125.43 125.43 0 0 0-15-5.63l-8.12-4.37-5.63-3.13-8.75-8.12-1.87-11.25 6.25-6.88c0-3.33-2.3-4.58-6.88-3.75h-2.5m108.13 3.13c2.08 2.5 5 4.17 8.75 5v1.87c0 4.59 1.04 7.5 3.12 8.75h1.25l1.88-5c.83-.83 1.66-1.25 2.5-1.25 2.91 0 5.83 1.46 8.75 4.38l1.25 1.87.62 1.25 1.25-4.37c-3.75-5.42-8.33-9.37-13.75-11.88v-1.87l-3.75.62-12.5-1.87.63 2.5m199.38 5-5.63 5-7.5 5.62c-1.25.42-2.3.84-3.13 1.25l-2.5 1.25a114.43 114.43 0 0 0-7.5 5l-1.87 1.25c-1.67.42-5.63 1.67-11.88 3.75l-40 13.75-1.87 3.75v1.88l6.88-.63 15-5 25-7.5c12.91-3.74 26.25-10.62 40-20.62 1.66-1.67 2.5-3.12 2.5-4.38l-.63-2.5c-.83-3.74-1.67-5.62-2.5-5.62l-4.38 3.75m22.5 5.62-5.62 1.88-4.38 2.5-3.75 6.87-1.87 2.5v1.88l-1.25 1.25v2.5l-2.5 1.87v3.75l-1.88 4.38-.62 4.37h5c4.17-18.75 9.8-28.12 16.88-28.12l7.5 1.25 1.25-3.75-1.88-.63-6.88-2.5m-431.88 17.5-.62-4.37.63-4.38-6.88-2.5-1.87 5c-.42.42-.63 1.46-.63 3.13 0 2.08 1.25 3.13 3.75 3.12h5.63m5 .63c2.5 2.92 4.58 4.38 6.25 4.37 3.74 0 5.62-2.5 5.62-7.5 0-3.33-1.88-5-5.62-5-4.59 0-6.88 1.67-6.88 5l.63 3.13m424.38-6.25-1.88 3.12 1.88 2.5 1.25 4.38 2.5 5.62v1.25l3.12 7.5c.42 2.92 1.25 4.38 2.5 4.38 2.5 0 3.75-1.46 3.75-4.38 0-1.25-.2-2.08-.63-2.5l-1.87-3.75-5-11.87-2.5-4.38-.63-3.12c-.41 0-.83-.2-1.25-.63l-.62.63-.63 1.25m-398.75 9.37-2.5-2.5c-6.25 0-9.37 1.46-9.37 4.38 0 3.33 2.08 5 6.25 5 5.83 0 8.75-1.25 8.75-3.75 0-.83-.2-1.46-.62-1.88l-2.5-1.25m418.12-3.75a45.28 45.28 0 0 0-3.75 15.63c-.42 5.42-2.09 9.8-5 13.12-2.92 1.67-5.42 2.5-7.5 2.5-1.25 0-3.13-.62-5.63-1.87-2.5-1.67-4.17-2.5-5-2.5-1.67 0-2.5.83-2.5 2.5v.62c.42 2.92 2.3 4.38 5.63 4.38l3.12 1.87c2.5.84 4.37 1.25 5.63 1.25 11.66 0 17.5-10.62 17.5-31.87 0 .42-.42-1.46-1.25-5.63h-1.25M433.1 352.91l1.88 1.87v1.25c.42.42.83.63 1.25.63 2.08 0 3.33-2.08 3.75-6.25 2.08-10 5.83-15.2 11.25-15.63h-1.25l3.13 4.38.62 3.75c3.75-1.67 5.62-4.17 5.63-7.5 0-5.42-3.13-8.12-9.38-8.13-3.33 0-6.04 1.67-8.13 5-3.75 6.26-5.62 10.63-5.62 13.13v1.87l.63 3.13c0 1.67-.42 2.5-1.25 2.5h-2.5m-261.88-23.13c-2.92.42-4.38 1.25-4.38 2.5 0-.41.42 1.05 1.25 4.38 2.92 2.5 5.2 3.75 6.88 3.75 2.5 0 3.74-.63 3.75-1.88v-7.5h-5.63l-1.87-1.25m392.5 3.13v1.87c2.91-1.25 5.41-1.87 7.5-1.87 2.91 0 5.83.83 8.75 2.5l1.87 1.25a7.82 7.82 0 0 1 1.88-3.13c0-4.16-4.38-6.24-13.13-6.25-4.17 0-6.46 1.88-6.88 5.63m-225 8.75 6.25 6.87 1.88 1.88 3.75 3.12 9.38 8.13 1.87 2.5 5 5c.42-.42.63-1.25.63-2.5 0-1.67-4.59-6.46-13.75-14.38l-2.5-2.5c-5.84-4.58-8.76-8.33-8.75-11.25 0-1.66.62-2.5 1.87-2.5.83 0 2.3.63 4.38 1.88-2.09-5.83-4.8-8.75-8.13-8.75-3.33 0-5 1.67-5 5 0 1.67 1.04 4.17 3.13 7.5m-150-6.88-1.88.63-3.12 1.25c-1.25 2.08-1.88 3.54-1.88 4.37v2.5l.63 1.25c.41.42 1.45.63 3.12.63 4.17 0 6.25-2.5 6.25-7.5 0 .42-.42-.63-1.25-3.13h-1.87m69.37 8.13c-4.58-.83-8.96-1.46-13.13-1.88a49.1 49.1 0 0 0-10.62-1.25c-1.25 0-3.13.21-5.62.63-2.5.42-5.21.83-8.13 1.25-2.92.42-5.63.83-8.12 1.25-2.09.42-3.55.62-4.38.62-2.5-.41-4.58-.62-6.25-.62a17.16 17.16 0 0 0-3.75-.63c-1.25 0-1.88.42-1.87 1.25 0 3.34 3.95 4.8 11.87 4.38l5-.63 21.88-3.12h8.12l8.13-.63 3.75.63 3.12-1.25m341.25-1.88c-5.42 2.92-10.63 4.38-15.63 4.38-4.16 0-11.25-1.46-21.25-4.38-8.33-2.08-14.37-3.12-18.12-3.12l-15.63 3.12-9.37 1.88h1.25-1.88l-1.87 2.5 3.13 1.25v2.5l20.62-4.38 6.88 1.25h9.37l23.13 5h6.25l10.62-1.87.63-.63c.41 0 .83-.2 1.25-.62l2.5-2.5 3.12-1.25c1.67-.42 2.5-1.67 2.5-3.75 0-1.67-.83-2.5-2.5-2.5l-.63.62-4.37 2.5m-416.88 8.13c-3.33-3.33-6.25-5-8.75-5-2.08 0-3.13 1.46-3.12 4.37 0 4.59 2.5 6.88 7.5 6.88 2.5 0 3.95-2.08 4.37-6.25m249.38-6.25-1.25 3.12-3.75 2.5-2.5 7.5-24.38 68.75-3.12 21.25v4.38l5-6.25 6.25-25 16.25-40 5.63-19.38c1.66-4.58 2.5-8.54 2.5-11.87l-.63-5m-245 11.87c2.08 2.09 3.96 3.13 5.63 3.13 3.74 0 5.62-1.67 5.62-5 0-2.92-1.46-4.37-4.37-4.38-4.59 0-6.88 1.46-6.88 4.38v1.87m60.63-6.25c-14.17 2.5-29.38 9.59-45.63 21.25l-3.12 1.88c-5.84 4.58-11.46 13.12-16.88 25.62a62.22 62.22 0 0 1-3.75 7.5l-3.75 12.5c-2.5 14.59-3.54 25.63-3.12 33.13v6.25c0 5.83 2.7 15.42 8.12 28.75l1.88 4.37 2.5 5c-3.76.84-6.05 3.55-6.88 8.13.83 2.5 1.87 4.17 3.13 5l1.87 3.75 3.75 5.62c2.92 5.84 4.37 10.84 4.38 15 0 2.09-1.67 4.17-5 6.25h-3.13c-5.83-2.08-8.75-5-8.75-8.75 0-1.66.42-4.16 1.25-7.5 1.25-3.74 1.87-6.66 1.88-8.75 0-5-1.88-7.5-5.63-7.5l-1.25 1.25v2.5c.42.84.83 2.09 1.25 3.75v6.25l-1.87 8.13c.41 12.92 5.2 19.38 14.37 19.38 10.83 0 16.04-5.21 15.63-15.63v-3.13c4.58 3.34 8.74 5 12.5 5v-6.87c-.84-5.42-2.09-8.96-3.75-10.63l-8.13-6.25c-2.5-1.66-3.75-3.54-3.75-5.62 0-3.75 1.87-5.62 5.63-5.63 2.91 0 5.83 1.46 8.75 4.38 7.08 7.08 13.95 10.62 20.62 10.62 6.25 0 11.04-2.29 14.38-6.87l-1.88-1.25-2.5-.63h-3.12l.62-3.12c15.42-1.67 23.13-7.3 23.13-16.88 0-.83-.21-1.87-.63-3.12 0-1.67-.2-3.54-.63-5.63l-1.87 1.25c-1.67 5-6.04 9.17-13.13 12.5a22.19 22.19 0 0 1-10 2.5l-6.87-.62h-8.12l-3.13-1.88-5-3.12c-5.42-4.17-9.38-6.25-11.87-6.25-2.92 0-5.21 3.33-6.88 10l-1.87-.63c-4.59-6.24-7.09-10.62-7.5-13.12l-4.38-17.5-1.87-5.63a23.2 23.2 0 0 1-.63-5.62v-1.88l1.25-13.75 1.25-11.25.63-1.25 3.12-9.37 12.5-25c4.58-9.17 12.5-15.83 23.75-20l18.13-7.5c2.08-.42 5.41-3.54 10-9.38m281.25 3.75h-9.38l-.63 5 6.25.63h12.5c10 0 20 2.5 30 7.5 1.25.42 2.3.83 3.13 1.25 1.25.42 2.3.83 3.13 1.25l5 3.12v-5.62c0-1.67-1.05-3.12-3.13-4.38-8.33-3.33-15.2-5.62-20.63-6.87l-11.25-2.5h-14.37l-.63.62m53.75 2.5v20l3.13 16.25.63 4.38c2.08 3.33 7.7 8.75 16.87 16.25l-1.88-6.88-6.87-5.62c-2.5-2.08-4.8-10.63-6.88-25.63a19.47 19.47 0 0 0-1.25-4.37 2077.87 2077.87 0 0 1 0-3.13c.42-1.25.84-2.91 1.25-5v-3.75c0-2.5-1.04-3.74-3.12-3.75h-.63l-1.25 1.25m-398.12 20c-2.5 3.34-4.58 5-6.24 5l-3.75-.62c-2.92-2.5-4.38-4.8-4.38-6.88 0-6.24 3.96-9.37 11.88-9.37-2.09-2.08-3.55-3.12-4.38-3.13-7.08 0-10.62 5.42-10.62 16.25 0 6.26.83 11.05 2.5 14.38l.62 5-2.5 5.62 1.88-1.87a13.97 13.97 0 0 0 7.5-6.25c10.83-16.25 21.25-27.5 31.25-33.75l-.63-1.25-.62.62-8.13 3.75c-4.17 1.67-8.96 5.84-14.37 12.5m351.88-14.37-8.13.62c1.25 2.5 3.12 3.76 5.63 3.75h2.5l3.75-.62c5-.42 11.45 2.3 19.37 8.12 2.08 3.34 3.12 5.84 3.13 7.5 0 4.59-2.71 6.88-8.13 6.88-.83 0-2.92-1.04-6.25-3.13l-3.75-4.37-1.88-6.88-2.5 1.25c-.41.42-.62 1.25-.62 2.5v1.25c0 2.92.2 5 .63 6.25 4.16 7.92 10 11.88 17.5 11.88 2.91 0 5.83-.83 8.75-2.5l1.25 11.87c2.91 3.76 5.62 5.63 8.12 5.63 2.5 0 5.42-.83 8.75-2.5-4.17-1.67-6.46-3.96-6.88-6.88l-1.87-19.37a28.36 28.36 0 0 0-2.5-3.75 61.5 61.5 0 0 0-3.75-6.25l-2.5-2.5a24.51 24.51 0 0 0-5-1.88 41.04 41.04 0 0 0-4.38-2.5l-1.25-.62-20-3.75m83.13 1.87c-1.25.84-1.88 1.67-1.88 2.5v.63c.42 1.67.84 4.17 1.25 7.5a35.16 35.16 0 0 1 1.25 8.12c0 .42-.2 1.25-.62 2.5 0 1.25-.2 3.34-.63 6.25l-.62 2.5-.63 3.13 3.75 6.87c2.5-9.16 3.75-16.45 3.75-21.87v-3.75c0-2.5-.2-4.37-.62-5.63-1.67-6.66-2.7-10-3.13-10h-1.25l-.62 1.25m-186.25.63-1.25 5v.62c.42.42.83 1.05 1.25 1.88l11.25 14.37 5 6.25 5 6.25a75.86 75.86 0 0 0 5.63 6.25l6.87 8.13 3.13 3.12 8.75 10.63 20 25 6.25 6.25 1.87 2.5 8.13 10 6.87 8.75 1.88 1.87 3.75 4.38 3.12 3.75 3.13 3.75 3.12 4.37 1.88 1.25.62.63 4.38 5.62 3.12 3.13 7.5 8.75 6.25 8.13 10 13.12 2.5 2.5a98.7 98.7 0 0 1 4.38 3.13c2.5 2.91 4.58 4.37 6.25 4.37l3.75-.63-2.5-1.25-3.75-4.37-23.13-26.88-35-41.25-5-7.5-3.13-3.12-1.87-1.88a77.2 77.2 0 0 0-3.75-5 7.25 7.25 0 0 1-1.25-1.87 9.83 9.83 0 0 0-1.88-2.5l-6.25-6.88-66.87-80.62m-128.75 1.87c-5.42.84-10.83 4.59-16.25 11.25l-1.25 6.25c0 2.09.2 3.55.63 4.38l1.25 5c6.66 7.5 11.87 12.08 15.62 13.75l17.5 8.75c.83.83 1.87 1.88 3.13 3.12a47.02 47.02 0 0 1 5 4.38l1.25 3.12c.41-.41.62-1.25.62-2.5l-1.25-1.25a30.85 30.85 0 0 0-1.88-3.12l-2.5-3.13a26.57 26.57 0 0 0-3.75-2.5c-1.66-1.66-4.58-3.95-8.75-6.87-10.41-7.5-15.62-15.42-15.62-23.75 0-6.67 3.12-10 9.38-10 7.08 0 10.62 2.3 10.62 6.87 0 2.92-.2 4.8-.63 5.63l-1.25 2.5c-2.5 2.08-3.54 3.96-3.12 5.62v3.75l.63 2.5 1.25.63c.41 3.75 3.33 5.63 8.75 5.62 2.08 0 3.95-.83 5.62-2.5l.63-1.25h-5l-2.5-2.5-1.88-1.25c-.83-.83-1.25-2.08-1.25-3.75 0-1.25.2-2.08.63-2.5l3.75-12.5.62-1.25c0-7.08-3.75-11.04-11.25-11.87l-8.75-.63m126.25 6.88-14.38 39.37 1.88 1.88 8.75 10 4.38 5 24.37 29.37 23.13 28.75 2.5 3.13 8.12 9.37 18.13 21.25 9.37 12.5c2.5 3.34 3.75 6.05 3.75 8.13 0 4.58-4.58 8.13-13.75 10.63-8.75 2.5-13.54 5.62-14.38 9.37l8.75 1.25c1.25.42 2.92.63 5 .63h3.13l53.13-1.25 6.25 1.25c4.16 1.25 9.16 1.87 15 1.87 15.41 0 23.12-1.46 23.12-4.38 0-1.25-.63-2.5-1.88-3.75l-1.25-.62-5-1.88-6.87-1.25-6.25-1.25-5.63-3.12-5-4.38-3.12-1.87a20.58 20.58 0 0 0-2.5-3.13l-1.88-1.87-5-6.88L430.6 371.66m161.25 8.75 8.13 8.75 8.13 11.25 1.87 2.5 2.5 5.63 1.25 3.12c4.17 10.42 6.04 21.88 5.63 34.38l-.63 3.75-3.75 20.62.63 5h-5.63a28.94 28.94 0 0 0-5.63-.62c-1.25-.42-2.29-.63-3.12-.63-3.75 0-7.92.84-12.5 2.5l-1.88 1.88c0 .42-.2.83-.62 1.25 0 1.25.63 1.88 1.88 1.87.83 0 2.5-.41 5-1.25 2.5-1.25 4.58-1.87 6.25-1.87 3.74 0 7.7 1.46 11.87 4.37l1.25-.62 4.38 5 4.37 3.75v1.25l.63 2.5c.83 4.17 1.25 7.3 1.25 9.37 0 3.34-.84 6.67-2.5 10l-1.88 1.88c-1.67 1.67-2.5 2.92-2.5 3.75 0 .42.42 1.04 1.25 1.88h.63c.83 0 2.29-1.05 4.37-3.13 2.92-4.17 4.8-8.33 5.63-12.5l.62-4.38-1.88-11.25-2.5-6.25-1.87-5.62c3.33-15.42 5-27.3 5-35.63 0-19.58-5.83-37.08-17.5-52.5l-2.5-2.5-2.5-3.75-3.13-3.75-1.87-1.87a9.83 9.83 0 0 0-1.88-2.5l-3.75-3.75-3.12-.63.63 8.75m-260-3.75c-2.92 1.67-4.38 3.55-4.38 5.63s.83 4.58 2.5 7.5h3.13c.41-5 1.66-7.5 3.75-7.5 2.08 0 4.79.62 8.12 1.87l3.13 3.13 2.5.62v-.62c0-3.33-2.09-5.83-6.25-7.5l-6.88-3.13-5-.62-.63.62m-115.62 8.75c-2.5 3.76-3.75 7.5-3.74 11.25v3.75c0 1.67.2 3.13.62 4.38l.63 1.87a35.5 35.5 0 0 1 5.62 5.63l-5 6.87c-1.67 2.92-2.5 5-2.5 6.25v.63l1.25 10.62v6.25l.63 3.13c0 4.17-1.05 8.75-3.13 13.75l-3.13 5-6.87 5.62v.63c0 2.08 1.46 3.96 4.38 5.62a38.48 38.48 0 0 0 16.25 3.75c6.24 0 12.7-2.5 19.37-7.5 7.08-5 11.25-10.62 12.5-16.87 1.67-6.67 2.7-10.42 3.13-11.25.83-1.25 2.7-2.92 5.62-5l1.25 2.5a24.54 24.54 0 0 1-2.5 5.62l-.63 1.88c0 8.33 6.05 12.5 18.13 12.5 3.33 0 6.25-1.67 8.75-5s3.75-5.2 3.75-5.63c0-1.25-1.46-2.7-4.38-4.37-2.5-1.67-3.75-3.12-3.75-4.38 0-4.58 2.09-8.54 6.25-11.87 4.17-3.33 8.96-5 14.38-5 6.67 0 13.54 2.3 20.63 6.87l5.62 3.13c-5-7.5-13.54-12.3-25.63-14.38l2.5-1.87c.84.42 2.3.62 4.38.62.42 0 1.04-1.04 1.88-3.12l-4.38-1.88-1.88-.62-3.12-1.25c-5.42-1.67-10.2-2.5-14.38-2.5l-6.25.62h2.5-4.37c-2.08 0-4.38.42-6.88 1.25l-4.37 2.5-4.38 1.25-5.62 3.13-1.25 1.87-5.63 5a7.94 7.94 0 0 0-1.87 3.75c-1.25 3.34-3.13 5.21-5.63 5.63l2.5-1.25-3.12.62c2.08-7.5 7.08-13.75 15-18.75a45.48 45.48 0 0 1 26.25-8.12c16.67 0 30 5.42 40 16.25l3.13 3.12 1.25 1.25 3.75 5c-1.25-8.74-8.13-16.45-20.63-23.12l-2.5-1.25h-2.5c-8.33-4.17-18.13-6.25-29.38-6.25h-1.87c-10.83 1.25-16.88 1.88-18.13 1.87-5 0-9.16-.83-12.5-2.5l-2.5-.62-3.12-1.25-7.5-4.38c-3.75-3.74-5.83-6.45-6.25-8.12-1.25-6.25-2.08-9.58-2.5-10 0-.42-.2-.63-.63-.63h-.62l-6.88 7.5m139.39 33.13-13.75 16.25c-1.25.83-1.88 1.46-1.88 1.87 0 1.25.2 2.09.63 2.5l.62 4.38 48.13-55 1.25-2.5c.41-.83.83-1.87 1.25-3.13-1.25-1.25-2.09-1.87-2.5-1.87a5.6 5.6 0 0 0-3.75 3.12 98.17 98.17 0 0 0-5 6.88 449.2 449.2 0 0 1-5.63 6.87l-15 16.25-4.38 4.38m125-31.88.63 5-1.25 4.38c-4.58 2.5-7.5 5.42-8.75 8.75l2.5.62 5-2.5 5.63-3.12c2.5-1.25 3.74-3.96 3.75-8.13 0-3.74-1.67-5.62-5-5.62l-1.25.62h-1.25m-91.25 10.63-.63 5c.83-.42 2.7-.63 5.63-.63 2.91 0 4.16 3.34 3.75 10l-2.5 13.75v8.75a75.98 75.98 0 0 0 6.25-30.62c0-6.67-2.3-10-6.88-10h-1.25l-.63.62-3.75 3.13m103.13 1.87-15.63 8.13c0 2.92 1.04 5 3.13 6.25l3.75-1.88 17.5-8.75c2.91-1.66 8.95-2.5 18.12-2.5 12.5 0 23.33 3.34 32.5 10l5 4.38 3.13 6.25a31.27 31.27 0 0 1 3.12 7.5l1.88 8.75h5c.41-1.67.62-2.92.62-3.75.42-.83.63-1.67.63-2.5 0-9.17-5.63-18.13-16.88-26.88-12.08-7.5-23.33-11.25-33.75-11.25-10.83 0-20.2 2.09-28.13 6.25M374.37 412.3l1.88 3.75c2.92 3.33 4.58 7.5 5 12.5l1.88 5.62 8.75 11.88v-10c0-5.42-1.46-13.75-4.38-25-2.08-6.25-3.75-9.37-5-9.38l-8.13 10.63m-183.75-8.13-1.25 3.13-3.75 11.25-1.25 15-.62 11.25c0 3.33 1.25 6.67 3.75 10s4.8 5 6.88 5c7.91 0 11.87-4.8 11.87-14.38 0-3.74-.2-6.24-.63-7.5h-1.25l-1.25-6.87c-1.25-5.42-1.87-9.17-1.87-11.25 0-3.75.83-7.5 2.5-11.25-4.58 3.33-6.88 6.46-6.88 9.37 0 2.5.84 6.26 2.5 11.25 1.67 4.59 2.5 8.13 2.5 10.63 0 .83-.41 1.67-1.25 2.5l-1.25 1.25-2.5 3.12c-.41.42-.83.63-1.25.63-5.41 0-8.12-8.12-8.12-24.38 0-2.5.2-4.79.63-6.87.83-2.08 2.08-5.42 3.75-10l-1.25-1.88m301.88 5.63c-1.25.42-3.55 2.3-6.88 5.62l-2.5.63.63 2.5h3.12l9.38-5h5.62c5.42-.42 11.04 1.25 16.88 5v1.25c2.08 3.33 3.12 5.42 3.12 6.25 0 6.67-3.54 10-10.63 10a17.03 17.03 0 0 1-10-9.38c-2.08 0-3.12 1.05-3.12 3.13 0 2.92 1.87 6.88 5.63 11.87 4.58 3.34 7.91 5 10 5 3.33 0 6.45-.83 9.37-2.5 1.25-.41 2.3-2.29 3.13-5.62 1.25-3.33 2.7-5 4.37-5l-2.5-14.38 8.75.63v-1.88c0-.83-1.88-3.54-5.63-8.12a75.02 75.02 0 0 0-5.62-2.5 33.58 33.58 0 0 0-8.13-1.88l1.88-.62h-5c-3.75-.42-11.04 1.25-21.88 5m112.5-5.63 2.5 8.75 1.25 5c2.5 10.84 3.75 16.88 3.75 18.13 0 12.08-2.29 18.12-6.87 18.12-1.67 0-2.92-.41-3.75-1.25v-1.87l2.5-18.75c.83-7.08-1.88-10.63-8.13-10.63l-5 1.25c5.84 5.84 8.75 11.25 8.75 16.25 0 .84-.41 2.92-1.25 6.25l-5.62 9.38 1.25 6.87c2.08 2.09 3.75 3.13 5 3.13 10.83 0 16.25-8.75 16.25-26.25 0-.83-.2-1.87-.63-3.13 0-1.25-.2-2.91-.62-5l-.63-6.25a47.51 47.51 0 0 0-8.75-20M413.75 417.3a59.3 59.3 0 0 0-1.25 4.37 96.73 96.73 0 0 1-1.87 5l-1.88 6.25-1.25 5 8.75-3.12 1.25-5 2.5-8.75-4.37-4.38-1.88.63m139.38 3.12v.63c-5 .42-9.58 3.13-13.75 8.12a19.47 19.47 0 0 1-1.25 3.75v1.25a8.3 8.3 0 0 0 1.88 5c6.67 8.76 15.83 13.13 27.5 13.13 15.42 0 23.13-4.58 23.13-13.75 0-5.42-2.92-9.8-8.75-13.13-3.34-2.08-5.84-3.12-7.5-3.12-1.25 0-1.88.83-1.88 2.5a6 6 0 0 0 1.88 4.37l3.12 5 .63 1.25.62 1.25c0 1.67-.83 2.71-2.5 3.13l-3.75 1.25 1.88.62c-1.25.42-3.34.63-6.25.63H565a19.4 19.4 0 0 0-3.75-1.25c-3.33-2.5-5-4.58-5-6.25v-1.25l3.75-4.38-1.25-4.37-.63-3.13c-.83-.83-2.08-1.25-3.75-1.25h-1.25m-256.88 10 12.5 3.13 4.38 2.5 3.13 2.5 3.12 2.5 6.25 8.75v1.87a36.35 36.35 0 0 1 4.38 17.5c0 8.34-1.88 15.84-5.63 22.5-1.67 4.59-3.54 7.92-5.63 10a68.26 68.26 0 0 1-5 5.63l-5.62 5.62-5.63 5.63a84.65 84.65 0 0 0-5.62 3.13 56.83 56.83 0 0 0-6.25 4.37c-4.58 1.25-7.08 1.88-7.5 1.88l-.63 1.25-13.75 2.5-1.87 2.5-1.25 1.25c0 .41-.2.83-.63 1.25 0 1.25.42 1.87 1.25 1.87H270l14.38-2.5c.83-.42 1.87-1.04 3.13-1.88 1.66-.83 3.95-2.08 6.87-3.75l13.75-8.12c20-12.5 30-32.3 30-59.38 0-6.24-2.3-12.29-6.88-18.12l-6.25-8.13-5.62-3.12-.63-.63-6.25-3.12-6.25-.63-6.87-.62-3.13 1.87m64.38-.62c-8.75 1.25-13.13 8.33-13.13 21.25 0 4.17 2.5 7.7 7.5 10.62a9.14 9.14 0 0 0 5.63 1.88c1.25 0 2.5-1.04 3.75-3.13-6.25-1.66-9.38-4.79-9.38-9.37 0-3.33 2.09-5 6.25-5 5.42 0 8.96 2.08 10.63 6.25l2.5 7.5.63 13.12c.41 11.25 1.04 18.75 1.87 22.5 1.25 8.34 1.87 13.34 1.88 15v1.25c0 3.34 1.87 5.84 5.62 7.5l5 5 1.88 4.38c.41 2.5 1.45 3.75 3.12 3.75.83 0 2.3-1.25 4.38-3.75l3.75-5.63-1.25-24.37c-.42-6.67 2.7-15.83 9.37-27.5 4.17-7.5 10-11.25 17.5-11.25 2.08 0 4.58.83 7.5 2.5 2.92 1.25 4.58 1.88 5 1.87.83 0 1.25-1.45 1.25-4.37 0-6.25-3.13-10.63-9.38-13.13l-9.37 2.5-1.25-.62-.63-1.88c2.09-3.33 3.13-5.62 3.13-6.87s-1.04-1.87-3.13-1.88c-2.91 0-7.91 2.3-15 6.88l-3.75 5a50.11 50.11 0 0 0-7.5 21.25l-1.25 21.87c0 2.09-.83 3.76-2.5 5l-1.87-1.25c1.25-12.91 1.87-23.12 1.88-30.62 0-12.5-3.34-22.08-10-28.75l-1.25 4.37-3.13-.62c-1.67-7.92-5.42-11.88-11.25-11.88l-5 .63m-50.63 10-65 74.37c-12.08 14.59-22.08 25.21-30 31.88l-5 3.75-12.5 2.5-6.87 4.38c-1.67.41-2.5 1.25-2.5 2.5 0 2.08 2.5 3.12 7.5 3.12l4.38.63 42.5-2.5c3.33 0 7.91.41 13.75 1.25 6.24.83 10.62 1.25 13.12 1.25 6.67 0 10-1.67 10-5 0-1.67-3.33-3.13-10-4.38l-10-4.38-3.75-1.87-1.25-2.5a43.24 43.24 0 0 0-1.25-5v-2.5c0-2.92 3.12-7.92 9.38-15l2.5-2.5c.83-1.25 1.87-2.7 3.12-4.38l13.75-15a58.84 58.84 0 0 1 3.75-4.37 13.41 13.41 0 0 0 2.5-3.13l33.13-39.37.62-.63c0-2.91-2.08-5.83-6.25-8.75l-5.63-4.37m226.88-.63 1.88 5 4.38 7.5c10.41 4.59 18.75 6.88 25 6.88 15.41 0 22.91-3.96 22.5-11.88l-.63-3.75c-.83 3.76-2.5 6.05-5 6.88-3.75 2.5-7.08 3.75-10 3.75h-1.25l-11.88.62-14.37-3.75-1.88-2.5-2.5-1.87-6.25-6.88m-16.25 16.25v6.88c2.92 4.17 5.42 6.25 7.5 6.25 1.25 0 2.71-.83 4.38-2.5-4.17-1.25-6.25-2.7-6.25-4.38 0-3.33 1.67-5 5-5 1.67 0 3.75.63 6.25 1.88l3.75-1.88c-5.83-3.74-10.42-5.62-13.75-5.62-2.92 0-5.2 1.46-6.88 4.37m-197.5.63-37.5 43.75-7.5 9.37-18.75 21.88c-2.08 3.33-3.12 5.83-3.12 7.5 0 2.5.2 4.38.63 5.63l1.87-.63v-6.88c23.75-30 43.75-52.5 60-67.5 3.33-3.33 5-6.04 5-8.12 0-2.08-.2-3.75-.63-5m125.63 0-.63 16.25 2.5 10.62 3.13 10.63 4.37 5.62 3.13 5.63v.62l1.25 1.25 1.25 2.5 2.5 3.13 5 6.25 2.5 3.13 2.5 1.87c5.41 5 14.79 8.75 28.12 11.25l8.13 1.88.62-3.13-3.13-3.13-1.25-1.25-25-8.12-2.5-2.5-12.5-13.13v-.62c-7.5-9.58-11.66-17.3-12.5-23.13l-1.87-20-5.63-5.62m101.25 2.5-6.25 10a17.5 17.5 0 0 0-2.5 8.75c0 1.67.63 4.58 1.88 8.75l2.5 3.75c2.08 3.33 4.8 5.2 8.13 5.62l5 1.25c3.33.84 5.2 1.05 5.62.63l6.25-1.88 2.5.63v1.25c-.42 2.92 1.25 4.38 5 4.37 4.17 0 6.87-1.04 8.13-3.12l2.5-3.13c2.08-3.33 6.04-5.2 11.87-5.62l-1.25-.63h1.88l-.63-1.87c-1.25-.42-2.7-.63-4.38-.63-1.25 0-2.08-.2-2.5-.62h-4.37l-4.38 1.25-2.5.62-1.87 1.88-2.5.62c3.33-9.16 5-14.79 5-16.87 0-2.08-.83-3.12-2.5-3.13-.83 0-1.67 1.46-2.5 4.38-.42 2.5-2.7 4.58-6.88 6.25-3.75 1.25-5.62 3.54-5.62 6.87v1.25l3.75 1.88-3.13 1.25c-.83.42-2.5.62-5 .62-4.16 0-8.33-2.5-12.5-7.5a18.58 18.58 0 0 1-2.5-9.37c0-2.08.42-4.17 1.25-6.25 1.25-2.08 2.92-5.42 5-10l-2.5-1.25m1.88 18.12.63 1.88c1.66 2.5 3.74 3.75 6.25 3.75 4.16 0 6.24-1.67 6.25-5 0-.83-1.88-1.67-5.63-2.5l-1.88-5.63 3.13-5.62c0-1.25-.63-1.87-1.88-1.88a7.25 7.25 0 0 0-1.25 1.88l-1.87 1.87-3.75 5v6.25m-210.62 4.38-12.5 27.5 3.13-3.13c1.25-1.66 2.7-3.54 4.37-5.62l7.5-11.88c2.5-3.74 5.83-5.62 10-5.62 1.25 0 3.54 1.04 6.88 3.12.41 1.25.62 2.3.62 3.13l.63.62c0 .42-.63 1.25-1.88 2.5-1.25 3.34-3.96 5.63-8.13 6.88a7.77 7.77 0 0 0 5.63 2.5c3.33 0 6.46-1.46 9.38-4.38 2.91-2.91 4.37-5.83 4.37-8.75 0-3.74-1.67-7.29-5-10.62-2.92-3.33-6.25-5-10-5-4.17 0-9.17 2.92-15 8.75m85.63-7.5-7.5 1.87c-4.17 1.67-7.3 6.46-9.38 14.38v1.25c.42 8.75 4.8 13.12 13.13 13.12 2.91 0 5.62-2.5 8.12-7.5l-9.38 1.88c-2.91-2.92-4.37-5.2-4.37-6.88 0-5 3.12-7.5 9.38-7.5 4.16 0 9.58 3.34 16.25 10l5.62 8.75 1.88 1.88.62 2.5 5 5.62 8.13 5-3.75-6.25-6.88-9.37-11.25-20.63-1.25-1.25c0-.41-.42-.83-1.25-1.25l-5-3.75a7.77 7.77 0 0 0-5.63-2.5l-2.5.63m-116.25 13.75-3.12 1.87c-4.17 2.09-7.08 5-8.75 8.75-1.25 3.34-2.7 6.88-4.38 10.63h.63c1.67 0 3.12-1.46 4.38-4.38 1.66-6.24 4.16-9.37 7.5-9.37.83 0 1.66.83 2.5 2.5.83 1.25 1.25 2.3 1.25 3.12 0 1.25-.63 2.71-1.88 4.38l-2.5 3.12-5.63 5.63c-4.58 3.33-7.91 5.2-10 5.63-3.33 2.08-5 3.33-5 3.75v1.87c21.25-7.92 31.88-18.75 31.88-32.5 0-4.17-1.67-5.83-5-5h-1.88m298.13-.63-5 8.13-7.5 7.5-9.38 5.62c-8.33 1.25-11.67 1.88-10 1.88h-2.5a19.4 19.4 0 0 0-3.75-1.25c-5.83-3.75-8.13-5.62-6.88-5.63-1.25 0-1.87 1.05-1.87 3.13v2.5c.42 1.25.83 2.92 1.25 5 4.58 3.33 8.75 5.42 12.5 6.25l-1.88 4.38c2.92 1.25 5.21 1.87 6.88 1.87a6 6 0 0 0 4.38-1.88l10.62-8.75c.42-.41 1.04-.62 1.88-.62.83 0 1.25.42 1.25 1.25 0 .83-.42 1.67-1.25 2.5l-10 11.25-1.88 9.38 1.25 1.25 3.75 3.12 1.88 1.25 1.87-6.25c.83-2.5 1.46-4.58 1.88-6.25.83-2.08 1.66-3.54 2.5-4.38l2.5-3.75 2.5-6.25c.41-.83 1.45-2.7 3.12-5.62 1.67-2.92 3.96-6.67 6.88-11.25.41-1.67 1.66-4.17 3.75-7.5l-.63-3.75-5-3.75h-3.13v.62m-140 2.5-1.87 1.25 3.13 11.25 3.12 5 6.25 6.88a31.7 31.7 0 0 0 15 9.38c2.92 1.66 5.42 2.5 7.5 2.5.42 0 1.04-.42 1.88-1.25l-5.63-2.5-4.38-1.25-4.37-2.5-5-3.75-3.75-3.75c-4.17-4.17-6.25-7.92-6.25-11.26 0-1.25.42-1.87 1.25-1.87 1.25 0 2.7.83 4.38 2.5l3.12 3.75c2.08 2.08 3.54 3.13 4.38 3.12h2.5l-7.5-9.37c-3.34-6.25-7.5-9.37-12.5-9.38l-.63.63-.63.62m-28.12 17.5h-5l-10.63 5v.63c-5.83 2.08-10.62 5-14.37 8.75l-3.75 4.38-2.5 3.75c-4.58 6.25-7.08 12.08-7.5 17.5v4.37c0 1.67-.2 3.13-.63 4.38-.41.41-1.25.62-2.5.62-.83 0-1.25-1.04-1.25-3.13 0-5-.83-11.04-2.5-18.12l-5-8.13-3.12-3.12-8.13-6.25h-1.87l-.63-.63-14.37-6.25c-1.67-1.66-3.13-2.5-4.38-2.5a7.92 7.92 0 0 0-1.87 3.75c-1.25 5-1.88 7.92-1.88 8.75 0 1.67 1.25 5 3.75 10l1.88 5-2.5-1.25-3.75-6.25c-1.25-3.33-3.33-5.62-6.25-6.87l-4.38-3.13a26.85 26.85 0 0 0-5-.62 10.2 10.2 0 0 0-2.5-.63c-2.5 0-5.2.63-8.12 1.88-11.25 6.25-16.88 13.96-16.88 23.13v15l-2.5 5-5 3.75h-6.25l.63 3.75c.42 1.66 2.3 3.12 5.63 4.37.41.42 1.66.63 3.75.63 5 0 7.91-2.5 8.75-7.5l.62-16.88c.83-8.33 5-12.5 12.5-12.5.83 0 4.17 1.25 10 3.75l1.25.63 4.38 5.62 2.5 3.13.62.62 1.25 3.75.63 1.88.62 1.25.63 3.12 1.87 5 1.25 3.75c6.67 12.92 14.58 19.38 23.75 19.38 5.42 0 10.83-2.71 16.25-8.13l2.5 1.88c-.83 3.75-2.5 7.7-5 11.87-1.67 1.25-2.5 2.3-2.5 3.13 0 2.08 1.67 3.12 5 3.12 4.58 0 7.3-.83 8.13-2.5 1.25-1.67 2.08-2.5 2.5-2.5l4.37-9.38 3.75-1.87c.83 4.58 3.12 6.88 6.88 6.88 2.08 0 4.16-.63 6.25-1.88 9.58-3.75 15.83-8.96 18.75-15.63l15.62-28.75c3.75-6.66 11.25-11.87 22.5-15.62l-3.75-3.13a27.5 27.5 0 0 0-9.38-4.37c-3.33-.83-5.83-1.25-7.5-1.25-.83 0-3.95 1.04-9.37 3.13l-8.13 3.12.63-6.25 1.25-5v-9.38M212.5 512.3l1.25 8.13 1.88 2.5 1.87 2.5c5 2.5 7.08 3.75 6.25 3.75 4.17 0 6.25-1.67 6.25-5-.42-.84-1.67-1.46-3.75-1.88-1.67-.83-5-3.54-10-8.13l-3.75-1.87m71.25 11.25-4.38 1.88-6.25 1.87 11.25-1.25-.62-2.5m322.5-1.88h6.25c-5 0-7.5 1.05-7.5 3.13 0 4.17 1.25 6.46 3.75 6.88 2.92 0 4.37-1.67 4.38-5 0-2.92-.84-4.59-2.5-5h-4.38m13.13 2.5 1.87.62c-2.5.83-3.75 2.08-3.75 3.75 0 2.92 1.46 4.38 4.38 4.38 3.33 0 5-1.67 5-5 0-1.67-.21-2.92-.63-3.75h-6.88m-398.12 10.62v-3.13h-.62l-3.75-1.87-.63 2.5a9.5 9.5 0 0 0 5 2.5m378.13 6.25c.41 1.25 1.04 1.88 1.87 1.88 2.08 0 3.12-1.25 3.13-3.75 0-2.92-.21-4.8-.63-5.63-2.92 0-4.38 2.5-4.38 7.5m11.25-7.5 1.25.63c-2.5 0-3.75 1.45-3.75 4.37 0 4.17 1.88 6.25 5.63 6.25 3.33 0 5-1.25 5-3.75 0-1.67-.63-3.33-1.88-5-.83-1.67-1.87-2.5-3.12-2.5h-3.13m13.75 2.5c-.41.83-.62 2.5-.62 5 0 1.25.42 2.3 1.25 3.13 2.08 0 3.12-1.46 3.13-4.38a4.2 4.2 0 0 0-1.88-3.75h-1.88m-361.25 6.88c1.25.41 2.09.83 2.5 1.25h2.5c2.09 0 4.17-.21 6.25-.63h4.38c2.5-.42 7.7.2 15.63 1.88.83.83 3.12 1.45 6.87 1.87v-3.13c.42-2.91-1.67-4.37-6.25-4.37l-6.25-.63-4.38.63-13.75 1.25h-6.87c-.42.42-.63 1.04-.63 1.88m183.75 36.87-3.12 8.75-5 6.25-1.25.63.63 2.5c9.16-1.67 15.41-5.84 18.75-12.5l2.5-.63 2.5 5.63 3.75 5c4.58 3.33 9.37 5 14.37 5 8.33 0 14.8-2.5 19.38-7.5l8.75-10.63c2.08-2.08 5-3.13 8.75-3.13 4.16 0 6.24 1.67 6.25 5 0 2.09-2.09 3.75-6.25 5-2.09 2.09-3.13 3.96-3.13 5.63 0 4.17 3.96 6.25 11.88 6.25 3.33 0 6.04-.63 8.12-1.88l13.75-9.37a15.77 15.77 0 0 1 10.63-3.75l2.5 1.25c.83 0 1.66.42 2.5 1.25l.62 3.75c0 .42-1.04 1.67-3.13 3.75l-1.87 1.25c.42 1.67 1.46 2.5 3.13 2.5 6.66 0 10-2.92 10-8.75l-1.25-5c-3.34-4.58-6.67-6.88-10-6.88-2.5 0-5.21.84-8.13 2.5l-5 3.13-11.88 9.38-3.75 1.25h-5l-1.87-4.38c7.08-2.5 10.63-5.42 10.63-8.75 0-4.58-4.8-6.88-14.38-6.88-2.08 0-3.75.21-5 .63H510l-7.5 2.5c-.42.42-2.3 1.88-5.63 4.38-5.41 2.91-10.62 4.37-15.62 4.37h-3.75l-3.13-1.88-1.25-.62-5.62-5.63-1.88-7.5a43 43 0 0 1 13.13-20.62c6.25-5.83 12.92-8.75 20-8.75H500l9.38.63c3.74 0 5.62-.84 5.62-2.5 0-2.5-1.67-3.34-5-2.5h-1.88l-14.37 1.25h-5l-6.88 1.25-6.25 1.25c-12.08 2.91-19.79 9.79-23.12 20.62l-3.13 10.63-2.5 6.87m-130-34.38c-2.08 5-3.12 7.71-3.12 8.13 0 1.67.83 2.7 2.5 3.13l3.13 5.62c1.66 1.67 2.5 4.38 2.5 8.13 0 2.08-.21 4.16-.63 6.25 0 2.08-.2 4.16-.63 6.25l-1.87 3.75-3.75 3.75-1.88.62c-3.33 2.08-6.04 3.13-8.12 3.13-5.83 0-10.2-1.46-13.13-4.38l-12.5-11.25a6 6 0 0 0-4.37-1.88c-7.08 0-11.04 3.55-11.88 10.63.84 2.5 2.09 4.58 3.75 6.25.84-7.08 3.75-10.63 8.75-10.63 1.67 0 2.71.21 3.13.63l15.63 13.13a24.44 24.44 0 0 0 14.37 4.37c6.25 0 11.46-1.67 15.63-5l6.25-5.63c1.25 0 2.08.21 2.5.63 7.08 4.58 12.29 6.88 15.62 6.88 2.5 0 4.37-.21 5.63-.63l.62-1.25-1.88-1.88-5.62-4.37c-4.58-5.83-7.3-9.8-8.13-11.88l-2.5-9.37a44.5 44.5 0 0 0-8.12-13.75l-3.13-3.13-1.25-1.25-2.5-2.5-5-2.5M605 544.8l-.63 4.38a7.77 7.77 0 0 0 5.63 2.5c1.66 0 2.5-.84 2.5-2.5 0-.42-.63-1.05-1.88-1.88l-5.63-2.5m11.25 5c0 2.08.63 3.13 1.88 3.13 3.33 0 5-1.25 5-3.75 0-2.09-1.04-3.13-3.13-3.13-2.08 0-3.12.63-3.12 1.88l-.63 1.87m-131.88 20h1.25c-4.16-.42-6.25-2.3-6.25-5.63 0-.41 2.3-4.79 6.88-13.12l-1.25-.63v.63l-6.25 4.38c-3.33 2.08-5 6.25-5 12.5 0 5 2.08 7.5 6.25 7.5 5 0 7.5-.84 7.5-2.5l-3.13-3.13m136.88-12.5c-1.25.83-1.87 1.88-1.87 3.13 0 2.5 1.04 3.75 3.13 3.75 2.91 0 4.37-1.25 4.37-3.75s-1.46-3.75-4.38-3.75l-1.25.62m-433.12 5.63-.62 2.5c0 2.5 2.5 3.75 7.5 3.75l54.38-.63c.83 0 2.29.2 4.37.63 2.08 0 5.2.2 9.38.62.83.42 2.7.63 5.62.63 8.75 0 13.13-2.09 13.13-6.25 0-2.09-.84-3.13-2.5-3.13v.63l-4.38 3.12-32.5-1.25-41.88 1.88c-2.08 0-6.25-.84-12.5-2.5m420-2.5-1.25 2.5c-1.25.83-2.29 1.45-3.12 1.87l-.63.63h-5l-13.12.62-45.63-1.88-30.62 1.25c-3.75 0-8.75-.83-15-2.5h-1.88c.84 4.59 7.92 6.88 21.25 6.88h.63l46.88-1.25 30.62 3.13c13.33.83 20-1.88 20-8.13 0-1.25-1.04-2.3-3.13-3.13m-432.5 3.75H175c-4.17 0-6.25 2.71-6.25 8.13 0 2.5 1.46 3.75 4.38 3.75 4.58 0 6.87-2.7 6.87-8.13 0-2.08-1.46-3.33-4.38-3.75m52.5 10c-3.33 2.5-5 4.38-5 5.63 0 .83.63 3.33 1.88 7.5h.63c-6.67 2.08-12.09 5.2-16.25 9.38.41 0 2.91.41 7.5 1.25 4.58.83 7.08 1.04 7.5.62l5-4.38 10 3.13h1.87c8.75 0 13.13-5.42 13.13-16.25 0-4.17-1.25-6.25-3.75-6.25-1.67 0-2.71.2-3.13.63 1.67 2.91 2.5 5.41 2.5 7.5 0 6.66-3.54 9.58-10.63 8.75h-3.75l-2.5-3.13a5.6 5.6 0 0 0 3.13-3.75c-.42-.42-.83-.63-1.25-.63l-1.25-1.25c-3.75-1.66-5.63-4.58-5.63-8.75m-45 7.5 9.38-3.12 4.38-.63 11.25 2.5 4.37-2.5c0-.41-.83-.83-2.5-1.25-4.58-1.25-8.33-1.87-11.25-1.87h-1.25c-9.17-.42-13.75 1.04-13.75 4.38l-.63 2.5m436.25-8.13c.84 3.33 1.25 5.2 1.25 5.63 0 1.66-1.25 3.54-3.75 5.62s-4.37 3.33-5.62 3.75c-6.25 0-10.83-1.88-13.75-5.63l-3.13-6.25-11.87-1.87c-.83-.42-2.92-.63-6.25-.63-2.5 0-3.75.84-3.75 2.5 0 2.09 1.25 5 3.75 8.75l1.25 1.88 1.25 1.88 2.5 1.87 1.88-4.38 3.75-2.5 2.5 9.38 1.25 1.25 1.25.63.62 1.87c1.25 1.25 2.3 1.88 3.13 1.88.41 0 .83-.21 1.25-.63l3.12-5c4.58 3.33 8.75 5 12.5 5 10.42 0 15.62-4.38 15.63-13.13 0-1.66-1.25-4.16-3.75-7.5-.42-2.5-2.09-3.95-5-4.37m-425.63 9.38c-3.33 2.08-5 3.95-5 5.62 0 2.5 1.25 3.75 3.75 3.75 4.17 0 6.25-2.08 6.25-6.25l-.62-.63-4.38-2.5m-21.25 1.25c-2.08 2.09-3.12 3.75-3.12 5 0 3.34 1.87 5 5.63 5 3.33 0 5-1.66 5-5 0-4.16-1.46-6.25-4.38-6.25-.42 0-.83.21-1.25.63l-1.88.63m7.5 11.87-1.87 4.38c1.67 0 2.92-1.05 3.75-3.13l1.25-.63h4.38l-7.5-.62m314.38-446.88-2.5 3.75-1.25-3.13 3.75-.62m-5.63 3.75-3.75 3.75c-1.25 0-2.08-1.25-2.5-3.75.42-1.25 1.46-1.87 3.13-1.88l3.12 1.88m-139.38 5 1.25 1.87-.63-.62-1.25 1.87c-.83-.83-3.95-2.5-9.37-5 0-1.25.83-1.87 2.5-1.87l7.5 3.75m125.62.62c.42-2.5 1.04-3.74 1.88-3.75 2.08 0 3.12 1.05 3.12 3.13 0 1.25-.83 1.88-2.5 1.87-.83 0-1.67-.41-2.5-1.25m-2.5 5c0 1.67-1.04 3.55-3.13 5.63l-3.75-3.75 1.25-2.5.63-1.25h1.88l3.12 1.87m-143.12 8.13h1.88l-2.5-1.25c1.66-5 3.54-7.5 5.62-7.5 1.25.83 1.87 1.67 1.88 2.5 0 .83-2.3 2.92-6.88 6.25m53.13-7.5c-1.25 3.75-4.38 5.63-9.38 5.62 1.25-.41 2.3-.83 3.13-1.25l2.5-1.25c.41-1.66.83-2.7 1.25-3.12h2.5m-36.88 3.75-.63-1.25v1.87a15.38 15.38 0 0 0-7.5 9.38h-4.37c2.5-8.33 5.83-12.5 10-12.5 1.25 0 2.08.83 2.5 2.5m251.88-3.13 5.63 10.63 1.87 3.75-3.13-1.25c-2.91-4.17-4.37-8.54-4.37-13.13m-155.62 20.63c-4.17 2.5-9.17 4.17-15 5l-1.25-2.5c7.08-1.67 10.42-2.5 10-2.5l6.88-5-.63 5m-90 7.5c2.08 3.33 3.12 5.42 3.13 6.25l-1.25.62c-.42 0-1.05.21-1.88.63l-1.88-5.63-1.25-1.25.63-1.87 2.5 1.25m-6.25 6.87 2.5 1.25h-1.88l-3.12-6.87.63-1.25h-.63 1.88c.41 0 1.04.62 1.87 1.87l1.88 5h-3.13m222.5 22.5 1.25 5-3.13-.62 1.88-4.38m-321.88 18.75c6.67-4.16 8.75-6.24 6.25-6.25.42 0 .63.42.63 1.25 0 3.34-2.3 5-6.88 5m320.62-7.5-1.25 1.25c0 .42-.2.84-.63 1.25-.41 0-.62-.41-.62-1.25v-.62l1.25-1.25 1.25.62m-392.5 5.63h1.88l1.25 2.5-.63 1.25h-2.5l-1.25-1.88 1.25-1.87m0 6.87c2.08 2.09 3.33 3.55 3.75 4.38h-1.25l-2.5-.63v-3.75m41.88 1.25c3.33.84 5.83 1.67 7.5 2.5l3.12.63c0 1.25-.63 1.88-1.88 1.87-.83 0-2.29-.2-4.37-.62l-3.75-1.88-.63-2.5m225 1.25h1.25c1.25 5.84 1.88 9.8 1.88 11.88 0 1.67-.2 2.92-.63 3.75l-3.12 1.87 1.88-11.25-1.25-6.25m-178.13 3.75c-.41 1.67-2.08 2.5-5 2.5-2.5 0-4.16-.2-5-.62h-1.25c-2.08 0-3.12-.42-3.12-1.25 0-1.25.2-1.87.63-1.88l13.75 1.25m-20.63.63.63 1.87-1.88 3.13h-2.5c-1.25 0-1.88-.63-1.88-1.88 0-2.5 1.25-3.74 3.75-3.75l1.88.63m196.25 8.12a27.67 27.67 0 0 1-1.25-8.75c0 .84.42 1.25 1.25 1.25.83 0 1.25.84 1.25 2.5l-1.25 5m-32.5-4.37 4.38 7.5 7.5 3.75 2.5 5-4.38-1.25s-.63-.2-1.88-.63c-.83-.41-2.08-1.66-3.75-3.75l-5-6.25-3.12-5.62-2.5-8.13 6.25 9.38m25-1.88 1.88 4.38c0 .83-1.05 2.3-3.13 4.37l-3.75.63h-2.5l-3.75-1.88 5-1.25 3.75-.62 1.25-2.5 1.25-3.13m-25.63 18.13v1.87c0 3.34-1.66 5.63-5 6.88l-3.75-1.25c3.34-1.25 5.63-3.33 6.88-6.25l1.88-1.25m3.75 8.75 1.87-3.75c.42.42.63 1.46.63 3.12 0 3.34-1.46 5.21-4.38 5.63l-5-.63 4.38-1.87 1.25-1.88 1.25-.62m-133.75 46.25 6.25 2.5 1.25-.63v1.88l-7.5-2.5v-1.25m200.62 11.25-1.88.62-4.38 1.88-1.87 1.25-5.63 5.62-1.25 3.75h-1.87l2.5-5.62 1.88-3.75c1.25-.42 2.7-1.46 4.37-3.13l5.63-3.12c1.25-.83 2.29-1.46 3.12-1.88l2.5-1.25c1.67 1.25 2.3 2.09 1.88 2.5a14.68 14.68 0 0 0-5 3.13m-157.5 3.12 5 3.75c.83 4.17 1.25 6.05 1.25 5.63 0 2.92-2.3 4.8-6.88 5.62l-1.25-3.12a28.25 28.25 0 0 1 3.75-2.5l1.25-1.25c0-1.25-.83-3.33-2.5-6.25l-.63-1.88m145.63 9.38 5.62-5 .63.62-3.13 3.75-3.13.63m-135-2.5 3.13 1.25c.83 3.33 1.25 4.8 1.25 4.37 0 2.5-2.3 3.76-6.88 3.75v.63l-.62-1.25c2.5-1.67 3.75-3.12 3.75-4.38 0 .42-.42-.62-1.25-3.12l.63-1.25m7.5 4.37h.62c.83 0 1.67.63 2.5 1.88 0 2.92-.83 4.38-2.5 4.37l-1.25.63.63-6.88m163.75 0 2.5-.62-6.25.62-3.13 3.75 6.88-3.75m-225-1.25 1.25 3.75-1.88 1.25-8.75 5-4.38.63 13.75-10.63m11.88 6.88a33.56 33.56 0 0 0-8.13 1.87 74.3 74.3 0 0 0-5.62 2.5l-8.75 6.25-1.25-1.25c3.75-5.41 8.96-8.74 15.63-10l6.87-1.25 4.38-3.12v3.75c0 .83-.63 1.25-1.88 1.25h-1.25m55.63 5.62-1.25-1.25c0-3.33.62-5 1.87-5 1.67 0 2.5.84 2.5 2.5v1.88l-3.13 1.87m123.75-5.62 2.5 6.25 1.25.62v1.25l5-.62v4.37-1.87l.63 1.87h-8.13l-.62 1.25c-3.33-.41-5.2-2.91-5.63-7.5l.63.63 1.25-.63.63 2.5.62 1.25 1.88-.62-1.25-5 1.25-3.75m101.88 17.5 3.12 1.25 2.5 6.25-2.5-3.75-3.13-3.75m-352.5 24.37h.63c1.67 0 2.5.42 2.5 1.25v1.88l5.63 3.12-.63 1.25v1.25c-4.58-1.25-7.3-4.16-8.13-8.75m3.13 25c-1.25 3.34-1.88 5.63-1.88 6.88 0 3.33.21 5.2.63 5.62l1.88 3.75-1.25 11.25-1.25-6.25-.63-3.75-2.5-6.87c-.42-.83-.63-2.3-.63-4.38l.63-1.87 2.5-5 2.5.62m3.75 1.25.63 4.38-.63 3.12 1.25 6.88-3.13-4.38-.62-.62v-1.88l1.25-7.5h1.25m15.63 13.13c1.25 0 2.29 1.25 3.12 3.75l-.63-2.5.63 3.75-4.38.62c-1.66-.83-2.08-1.66-1.25-2.5a13.41 13.41 0 0 0 2.5-3.12m13.13 7.5c0 10.42-3.75 17.08-11.25 20l1.25-3.75-.63.62c0-.41 1.25-1.66 3.75-3.75 2.92-2.08 4.38-4.79 4.38-8.12 0-3.33.83-5 2.5-5m-17.5 1.25a9.81 9.81 0 0 1 1.88 2.5l.62.62c0 .42-1.04 1.25-3.13 2.5-2.5-.41-3.75-1.04-3.75-1.87 0-.83.63-2.3 1.88-4.38l2.5.63m34.38 3.75-.63.62 7.5.63-8.13 2.5-2.5-5 3.75 1.25m-40 5 1.25-1.25c0-1.25.42-.2 1.25 3.12.84.84.63 1.25-.62 1.25l-3.75 1.25-3.13-2.5 5-1.87m-29.37 33.12 2.5.63-.63 1.25-4.37 1.87-.63 1.25-2.5 1.88c-1.25 0-1.87.83-1.87 2.5l-.63 5.62h-2.5c0-8.74 1.67-13.12 5-13.12l5.63-1.88m192.5 13.13 3.75.62-1.25 3.13h-3.13l-1.25-1.88v-1.87h1.88m-171.88.62 11.25 4.38h-1.88l-10-3.13.63-1.25m381.25 3.75 2.5 1.88h-1.88l-.62 1.25-2.5-3.13h2.5m-208.12 2.5c.42.42.63 1.67.63 3.75 0 .84-.84 1.25-2.5 1.25-1.25 0-1.88-.62-1.88-1.87 0-.42.42-1.04 1.25-1.88l2.5-1.25m-204.38 4.38 6.88 6.88-2.5 4.37-4.38-11.25m186.88 6.25 1.88 3.13 5 4.37.62 1.88 1.88 1.87 1.87 3.75h-3.75l-1.25-3.13-1.88-2.5-3.75-3.75-3.12-2.5-2.5-1.25-5-2.5.63.63-.63-2.5 10 2.5m211.88-2.5c-.42 1.67-1.88 2.7-4.38 3.13l.63.62h-3.75l7.5-3.75m-163.12 3.13-6.25 3.12h3.13l-4.38 1.88.63-1.25-7.5 10c-.84 1.25-1.46 1.87-1.88 1.87-.42 0-1.04-.42-1.88-1.25.42-.42.63-.83.63-1.25 0-.42.2-.83.63-1.25l3.12-6.25 3.13-3.13 4.37-2.5 5.63-1.87.62 1.88m-51.88 7.5 2.5 1.87 5 6.25-.62-.63-3.13 1.88-3.12-5.63-5-3.75.63-1.25 3.75 1.25m-26.25 27.5 5.62 6.25 2.5 3.13v-1.25l2.5 6.25 2.5 2.5 1.25.63c1.25.83 2.3 1.66 3.13 2.5 1.25.83 2.29 1.66 3.12 2.5l-6.88-1.25a164.95 164.95 0 0 0-10-10.63 15.77 15.77 0 0 1-3.75-10.63m95 3.75c-.83 5.84-3.12 10.42-6.87 13.75l-4.38 5-3.75 2.5a41 41 0 0 1-4.37 2.5c-.83 0-1.67-.41-2.5-1.25a9.84 9.84 0 0 0 2.5-1.87l3.75-2.5c5.42-5 8.96-8.96 10.63-11.88l3.12-5.62 1.25 1.88.63-2.5m-11.88 3.75.63 3.12c0 1.67-.84 3.33-2.5 5-2.5 3.33-4.8 5-6.88 5-1.67 0-2.5-.63-2.5-1.88l9.38-10 1.87-.62v-.63m20 20.63 1.25-1.88-1.25.63a8.31 8.31 0 0 0 1.88-5v-1.25c0-2.08.41-3.13 1.25-3.13.83 0 1.25.63 1.25 1.88 0 1.67-1.46 4.58-4.38 8.75m-113.75-9.38 3.13 5.63 1.25 1.25 1.87-1.25-1.88 3.13-1.25.62.63-.63h-1.25l-1.88-3.12c-1.66-1.25-2.5-2.3-2.5-3.13.42-.41.63-.83.63-1.25l1.25-1.25m283.12 17.5v1.25l-5 1.25c-.83 0-1.88-.62-3.13-1.87l8.13-.63" transform="translate(-146.86 -119.79)"/>
</svg>
