<svg xmlns="http://www.w3.org/2000/svg" viewBox="0 0 500 500">
    <path d="M146.86 619.79v-500h500v500h-500m7.5-7.5h485v-485h-485v485m7.5-7.5V135.41h469.38v469.38H161.86m213.12-341.88-2.5-1.25a7.33 7.33 0 0 0-1.88-1.25c-1.66 0-2.5.42-2.5 1.25 0 .83 1.05 1.67 3.13 2.5l.63.62c2.08 0 3.12-.62 3.12-1.87m-2.5 5.62c-1.67 0-2.5 1.05-2.5 3.13 0 2.5 1.25 3.75 3.75 3.75s3.75-1.04 3.75-3.13c0-2.5-1.67-3.74-5-3.75m-1.88 10c-4.58 0-6.87 1.46-6.87 4.38 0 2.08 2.08 3.13 6.25 3.12 3.75 0 5.62-1.45 5.63-4.37 0-2.08-1.67-3.12-5-3.13m10 .63c-1.25 0-1.88.62-1.88 1.87 0 1.67.83 2.5 2.5 2.5 1.25 0 1.87-.62 1.88-1.87 0-2.08-.84-2.92-2.5-2.5m3.75 5.62c-2.5 0-3.76 1.25-3.75 3.75 0 2.09 1.45 3.13 4.37 3.13 2.5 0 3.75-1.04 3.75-3.13 0-2.5-1.46-3.74-4.38-3.75m-10 3.75c-5.83 0-8.75 2.5-8.75 7.5 0 2.5 1.67 3.76 5 3.75 5.42 0 8.13-2.5 8.13-7.5 0-2.5-1.46-3.74-4.38-3.75m17.5 4.38c-1.25.83-1.87 1.88-1.87 3.12l.63 1.25c1.25 1.67 2.29 2.5 3.12 2.5.42 0 .63-.62.63-1.87v-1.25c-.84-2.5-1.67-3.75-2.5-3.75m-6.88 3.12c-5.42 0-8.13 2.92-8.13 8.75 0 2.5 1.05 3.76 3.13 3.75 5.42 0 8.12-2.7 8.13-8.12 0-2.92-1.05-4.37-3.13-4.38m-16.88 6.88c-2.08.83-3.12 2.7-3.12 5.62s1.87 4.38 5.63 4.38c2.5 0 3.74-1.46 3.75-4.38 0-3.74-1.88-5.62-5.63-5.62h-.63m26.25 1.25c-5 0-7.5 2.3-7.5 6.87 0 4.59 2.09 6.88 6.25 6.88 4.59 0 6.88-2.3 6.88-6.88s-1.88-6.87-5.63-6.87m-15 8.12-3.75 2.5c-2.5 1.25-3.75 2.5-3.75 3.75 0 3.34 2.71 5 8.13 5 3.75 0 5.62-1.45 5.63-4.37 0-4.58-2.09-6.87-6.25-6.88m-30.63 10.63c-5 0-7.5 1.67-7.5 5 0 2.92 1.87 3.96 5.63 3.12h1.25c3.74 0 5.62-1.66 5.62-5 0-2.08-1.67-3.12-5-3.12m15.63 0c-4.17 0-6.26 1.04-6.25 3.12 0 2.5 1.87 3.76 5.62 3.75 3.75 0 5.62-1.25 5.63-3.75 0-2.08-1.67-3.12-5-3.12m11.87 3.75c-3.75 0-5.63 1.25-5.63 3.75 0 1.67 1.25 2.5 3.75 2.5h1.25c2.92-1.25 4.8-2.3 5.63-3.13 0-2.08-1.67-3.12-5-3.12m15-5c-4.17.42-6.25 2.3-6.25 5.62 0 1.67 1.46 2.5 4.38 2.5h1.87c4.17-1.66 6.25-3.33 6.25-5 0-2.08-2.08-3.12-6.25-3.12m42.5-56.25c-4.17 0-6.25 1.04-6.25 3.12 0 2.5 2.08 3.76 6.25 3.75 4.58 0 6.87-1.25 6.88-3.75 0-2.08-2.3-3.12-6.88-3.12m13.75 1.25c-2.08 0-3.13.62-3.13 1.87 0 2.5 1.46 3.76 4.38 3.75 1.25 0 1.87-1.04 1.88-3.12 0-1.67-1.05-2.5-3.13-2.5m1.88 14.37c0-5.41-2.09-8.12-6.25-8.12h-.63c-1.67.42-2.5 1.46-2.5 3.12 0 3.76 2.92 5.63 8.75 5.63.42 0 .63-.2.63-.63m-19.38-6.25c-4.17 0-6.25 1.67-6.25 5 0 2.5 1.04 3.76 3.13 3.75 5 0 7.5-1.87 7.5-5.62 0-2.08-1.46-3.12-4.38-3.13m8.13 6.88c-3.76 0-5.63 1.88-5.63 5.62 0 2.92 2.3 4.38 6.88 4.38 3.33 0 5-1.25 5-3.75 0-4.17-2.09-6.25-6.25-6.25m-16.88 6.25c-3.75 0-5.63 1.67-5.63 5s2.09 5 6.25 5c3.75 0 5.63-2.08 5.63-6.25 0-2.92-2.08-4.17-6.25-3.75m16.25 6.87c-4.58 0-6.88 1.46-6.88 4.38 0 4.58 2.09 6.88 6.25 6.87 4.17 0 6.25-2.29 6.25-6.87 0-2.92-1.87-4.37-5.62-4.38m-28.13 1.25c-4.16 0-6.25 2.5-6.25 7.5 0 3.76 1.88 5.63 5.63 5.63 4.17 0 6.25-2.08 6.25-6.25 0-4.58-1.88-6.87-5.63-6.88m14.38 5c-4.17 0-6.25 1.88-6.25 5.63 0 3.33 1.67 5 5 5 4.17 0 6.25-2.08 6.25-6.25 0-2.92-1.67-4.37-5-4.38m11.88 8.13c-1.25.83-1.88 1.88-1.88 3.12 0 4.17 2.7 6.26 8.13 6.25 1.66 0 2.5-.83 2.5-2.5 0-5-2.3-7.5-6.88-7.5l-1.88.63m-25 3.12c-5 .84-7.5 2.09-7.5 3.75 0 2.92 2.5 4.38 7.5 4.38 4.17 0 6.25-1.87 6.25-5.63 0-1.66-2.08-2.5-6.25-2.5m16.88 1.88c-.83 0-1.25.62-1.25 1.87 0 2.92 1.67 4.38 5 4.38.83 0 1.25-.63 1.25-1.88 0-3.33-1.46-5-4.38-5l-.62.63m-20 9.37c-4.58 0-6.88 1.46-6.88 4.38 0 3.33 2.3 5 6.88 5 3.33 0 5-1.67 5-5 0-2.92-1.67-4.37-5-4.38m14.38-2.5c-3.76 0-5.63 1.88-5.63 5.63s1.87 5.63 5.63 5.62c4.16 0 6.24-2.08 6.25-6.25 0-3.74-2.09-5.41-6.25-5m16.25.63c-4.59.83-6.88 2.92-6.88 6.25 0 2.5 2.08 3.75 6.25 3.75h.63c4.16-.42 6.24-2.5 6.25-6.25 0-2.5-1.88-3.75-5.63-3.75h-.63m-11.87 17.5-1.88 4.37c0 1.67 1.88 2.5 5.63 2.5 6.25 0 9.37-2.5 9.38-7.5 0-2.91-2.09-4.37-6.25-4.37-2.5 0-4.8 1.67-6.88 5m17.5-5c-.83 0-1.25.83-1.25 2.5s.42 2.5 1.25 2.5c1.25 0 1.87-.83 1.88-2.5 0-1.67-.63-2.5-1.88-2.5m1.88 7.5c-2.09 0-3.13.83-3.13 2.5 0 2.92 1.87 4.38 5.63 4.37.83 0 1.25-1.04 1.25-3.12 0-2.5-1.25-3.75-3.75-3.75m-20 7.5c-2.92 0-4.38 1.25-4.38 3.75 0 2.08 1.67 3.13 5 3.12 3.33 0 5-1.25 5-3.75s-1.88-3.54-5.63-3.12m-4.37 9.37c-3.33 0-5 .84-5 2.5 0 1.25 1.04 1.88 3.13 1.88h1.25a7.29 7.29 0 0 0 1.87-1.25l2.5-1.25c0-1.25-1.25-1.87-3.75-1.88m-100-208.75c-3.33 0-5 1.88-5 5.63 0 2.92 1.67 4.38 5 4.37 3.33 0 5-1.66 5-5 0-3.33-1.67-5-5-5m11.25-5.62c-2.92 0-4.38 1.67-4.38 5 0 2.92 1.46 4.38 4.38 4.37 2.92 0 4.37-1.45 4.38-4.37 0-3.33-1.46-5-4.38-5m1.25 13.12c-2.5 0-3.75 1.67-3.75 5 0 2.5 1.46 3.76 4.38 3.75 2.5 0 3.74-1.45 3.75-4.37 0-2.92-1.46-4.37-4.38-4.38m267.5 5.63c-1.25.83-1.88 1.67-1.88 2.5 0 2.5 1.46 3.75 4.38 3.75 2.08 0 3.12-.83 3.13-2.5 0-2.5-1.88-3.75-5.63-3.75m-2.5 8.75c-2.92 0-4.38 1.46-4.38 4.37 0 2.09 1.46 3.13 4.38 3.13 2.08 0 3.12-1.46 3.13-4.38 0-2.08-1.05-3.12-3.13-3.12m-10-2.5c-2.08.83-3.13 2.08-3.13 3.75l.63.62c.42 1.25 1.25 1.88 2.5 1.88 2.5 0 3.75-1.04 3.75-3.13 0-2.08-1.25-3.12-3.75-3.12m-35 135.62c-2.5 0-3.75 1.46-3.75 4.38 0 2.5 1.04 3.75 3.13 3.74 3.33 0 5-1.45 5-4.37 0-2.5-1.46-3.75-4.38-3.75m11.25 0c-3.33 0-5 1.88-5 5.63 0 3.33 1.67 5 5 5s5-1.67 5-5c0-3.75-1.67-5.63-5-5.63m-.63 13.13c-2.08.83-3.12 2.29-3.12 4.37s1.25 3.13 3.75 3.13 3.75-1.26 3.75-3.76-1.25-3.74-3.75-3.75h-.63M333.1 222.28a317.58 317.58 0 0 1-22.5 14.37c-8.75 5-19.16 11.05-31.25 18.13l-3.75 6.25a109.72 109.72 0 0 0 15.63-6.88 97.65 97.65 0 0 0 11.88-8.75l16.87-13.75a56.96 56.96 0 0 1 10-5.62l3.13-3.75m-2.5 5.62c-22.09 13.75-38.13 32.5-48.13 56.25l-10.63 24.38c-2.08 5.42-5.41 11.04-10 16.88a360.86 360.86 0 0 1-15 19.37l-.62 4.38c13.33-11.26 22.5-22.92 27.5-35l12.5-28.13c5-12.92 14.58-26.67 28.75-41.25l15.63-16.88m-39.38 34.38c-4.58 5-9.58 11.67-15 20-5.83 10-10.42 15-13.75 15-2.5 0-3.96-1.25-4.38-3.75-1.25 2.5-1.87 4.38-1.87 5.63 0 3.75 1.67 5.62 5 5.62 4.58 0 10.42-6.87 17.5-20.63a55.7 55.7 0 0 0 3.13-5.62c1.66-2.92 3.74-6.46 6.25-10.63l3.12-5.62m-21.25 64.38c-6.67 5.41-10 11.66-10 18.74 0 3.76 1.04 5.63 3.13 5.63 5 0 7.5-1.87 7.5-5.63v-1.87c-2.09 2.08-3.55 3.13-4.38 3.13-1.67 0-2.5-1.26-2.5-3.76s2.08-7.91 6.25-16.25m26.88-40.62c-2.92 3.75-5 9.8-6.25 18.13l-2.5 16.87c-1.67 11.67-4.59 17.5-8.75 17.5-1.67 0-2.71-.2-3.13-.63l.63 2.5c.83 2.09 2.29 3.13 4.37 3.13 5.42 0 9.17-5 11.25-15 .42-3.75.63-7.5.63-11.25.41-3.75.83-7.3 1.25-10.63.41-2.08.62-4.79.62-8.12.42-3.75 1.04-7.92 1.88-12.5m13.75 141.88c2.08.42 3.74.62 5 .62h8.75c17.91 0 26.87-5.2 26.87-15.62 0-7.92-3.75-11.88-11.25-11.88-2.5 0-5.2 1.25-8.13 3.75h2.5c5.84-.83 8.75 2.09 8.75 8.75 0 5.42-3.95 8.76-11.87 10l-11.25 1.88-9.38 2.5m43.75-23.13a86.28 86.28 0 0 0 18.13 10c6.67 2.09 10 5 10 8.75 0 3.76-2.3 5.63-6.88 5.63h-1.87c3.33 2.08 5.83 3.13 7.5 3.12 6.25 0 9.37-2.7 9.38-8.12 0-3.33-1.25-5.62-3.75-6.88-2.5-1.66-9.59-4.37-21.25-8.12a95.25 95.25 0 0 1-5-1.88 48.65 48.65 0 0 0-6.25-2.5m34.37 29.38c1.67.42 3.12.62 4.38.62H404.98c31.67 0 47.5-6.24 47.5-18.75 0-6.66-3.13-10-9.38-10-1.25 0-4.16 1.67-8.75 5l3.13-.62c5.42 0 8.12 2.5 8.13 7.5 0 7.08-9.59 11.46-28.75 13.12-4.59.42-9.38.84-14.38 1.25-4.58.42-9.17 1.05-13.75 1.88m81.25-13.75 10-5c11.67-10.42 17.5-19.58 17.5-27.5 0-8.75-3.75-13.13-11.25-13.13-7.08 0-10.63 3.55-10.63 10.63 0 4.17 1.67 6.25 5 6.25.42-.42 1.46-.63 3.13-.63-2.5-1.66-3.75-3.74-3.75-6.25 0-3.33 1.87-5 5.63-5 4.58 0 6.87 3.55 6.87 10.63 0 7.08-7.5 17.08-22.5 30m28.75-20.63c16.67-16.66 25-36.25 25-58.75 0-.83-.42-2.91-1.25-6.25l-5-16.25-1.88-8.75c-2.5 3.34-3.75 5.63-3.75 6.88v1.25l1.25 3.75.63 1.25c0 1.25-.83 1.88-2.5 1.87h-1.88c-7.5-.41-11.25 2.71-11.25 9.38 0 6.25 2.71 9.38 8.13 9.37 2.08 0 3.75-1.87 5-5.62-1.67 1.67-2.92 2.5-3.75 2.5-3.75 0-5.63-1.67-5.63-5s1.88-5 5.63-5c7.08 0 10.63 5 10.63 15 0 14.17-3.13 26.46-9.38 36.87l-4.38 7.5-5.62 10m-76.25 106.88 5.63 8.13 8.75 13.13c2.91 5 6.87 7.5 11.87 7.5 4.58 0 6.87-2.3 6.88-6.88 0-2.92-2.5-4.8-7.5-5.63 2.08 2.09 3.12 3.76 3.12 5 0 2.5-1.46 3.76-4.38 3.75-2.91-.41-5.41-2.08-7.5-5l-8.75-12.5-8.12-7.5m-6.25 9.38c4.17 8.75 6.25 15.42 6.25 20 0 1.67-.63 3.96-1.88 6.88 4.59-.84 6.88-2.71 6.88-5.63s-3.75-10-11.25-21.25m-5.63 20.63v6.87h2.5a19.37 19.37 0 0 0-1.25-3.75c-.41-1.25-.83-2.3-1.25-3.13m-77.5-82.5-1.87 3.75c13.75 5 25 10.21 33.75 15.63 9.17 5.42 16.46 11.46 21.88 18.12a48.96 48.96 0 0 1 11.87 22.5c2.5 8.34 3.75 18.13 3.75 29.38l5 1.25v-8.75c.83-38.33-23.96-65.63-74.38-81.88m-4.37 6.25 15.63 8.13c12.5 7.08 18.75 13.54 18.75 19.37 0 5.84-2.92 8.76-8.75 8.75-5.42 0-8.34-3.12-8.75-9.37-1.25 2.08-1.88 3.54-1.88 4.37 0 6.26 3.33 9.59 10 10l1.88.63c9.58.83 14.37-3.96 14.37-14.38 0-10.83-13.75-20-41.25-27.5m-9.38 53.13a46.92 46.92 0 0 1 5-4.38 32.82 32.82 0 0 1 5-3.12c6.67-5.42 10-11.04 10-16.88 0-8.33-3.54-12.5-10.62-12.5-5 0-7.92 1.67-8.75 5 .83-.41 2.7-.62 5.63-.62 5.41 0 8.12 2.92 8.12 8.75 0 3.75-4.8 11.67-14.38 23.75m2.5 2.5 3.13 1.88c6.67-5.42 13.13-8.13 19.38-8.13 13.33 0 20 5.42 20 16.25 0 3.75-2.3 6.67-6.88 8.75 2.08 2.08 3.96 3.13 5.63 3.13.83 0 1.87-.21 3.12-.63 1.67-.42 2.7-.63 3.13-.63.41 0 1.45.84 3.12 2.5a14.07 14.07 0 0 0 5 2.5 22.29 22.29 0 0 1 1.88-5.62l2.5-5 2.5-1.25 2.5-1.88-6.25-4.37-6.25-6.88c-7.09-7.5-16.46-11.25-28.13-11.25-7.92 0-16.04 3.55-24.38 10.63m22.5 13.13c3.75 0 5.63-1.67 5.63-5 0-5.84-3.54-8.75-10.63-8.75-7.08 0-10.62 1.87-10.62 5.62 0 .83.63 1.25 1.88 1.25.41 0 1.25-.42 2.5-1.25s2.5-1.25 3.75-1.25c4.16 0 6.66 3.13 7.5 9.38m38.75-38.13c3.74 9.58 5.62 15 5.62 16.25 0 4.58-1.88 6.88-5.63 6.87-1.66 0-2.7-.2-3.12-.62 1.67 3.75 3.75 5.63 6.25 5.63 4.17 0 6.25-3.13 6.25-9.38 0-4.17-3.13-10.42-9.38-18.75m-173.75-237.5c-5.41-4.17-10.83-6.25-16.24-6.25-12.09 0-18.13 5.42-18.13 16.25s4.58 16.25 13.75 16.25c1.67 0 4.8-1.67 9.38-5-1.25.42-3.34.62-6.25.62-8.34 0-12.5-3.95-12.5-11.87 0-8.33 5-12.5 15-12.5 5 0 10 .83 15 2.5m-15.63 101.88.63-3.75c-10.84-6.25-16.25-14.8-16.25-25.63 0-5.83 2.08-10.62 6.25-14.37a20.46 20.46 0 0 1 15-6.25c12.5 0 18.75 5.42 18.75 16.25 0 6.67-3.55 10-10.63 10-4.17 0-7.5-2.7-10-8.13-.42.84-.62 2.5-.62 5 0 6.26 3.95 9.38 11.87 9.38 2.5 0 4.8-.63 6.88-1.88l3.75-2.5c1.25 0 2.29 1.05 3.12 3.13 3.33-4.58 5-8.33 5-11.25 0-6.67-2.92-12.5-8.75-17.5-5.83-5.42-12.3-8.12-19.37-8.13-16.67 0-25 9.17-25 27.5 0 12.09 6.45 21.46 19.37 28.13m12.5-43.75c-2.08 5-3.33 9.38-3.75 13.12 2.5 1.25 4.37 1.88 5.63 1.88 3.74 0 5.62-1.87 5.62-5.63 0-2.91-2.5-6.04-7.5-9.37m-11.25 36.87v-1.87c-3.33-2.5-5-5.42-5-8.75 0-1.25.63-3.54 1.88-6.88-3.76 3.34-5.63 6.05-5.63 8.13 0 3.75 2.92 6.88 8.75 9.37m-20.62-35.62c.83-1.25 1.66-2.3 2.5-3.13.83-1.25 1.66-2.29 2.5-3.12a7.94 7.94 0 0 1 1.87-3.75c4.58-7.08 6.87-10.83 6.88-11.25 0-4.58-2.5-6.67-7.5-6.25h-1.88c3.33 2.08 5 3.96 5 5.62 0 2.09-.83 3.96-2.5 5.63-2.92 3.75-5.2 9.17-6.87 16.25m20 46.25-5.63-.63c-5 0-9.38 1.88-13.12 5.63-3.76 3.33-5.63 7.3-5.63 11.87 0 10 5 15 15 15 2.08 0 5.42-1.66 10-5-.83.42-2.5.63-5 .63-8.75 0-13.12-3.54-13.12-10.63 0-7.5 5.62-12.29 16.87-14.37l.63-2.5m1.25 229.38c6.66 6.25 13.54 9.38 20.62 9.38 3.33 0 5-.63 5-1.88 0 .42-2.3-1.67-6.87-6.25-.84-.42-1.46-1.67-1.88-3.75-5.42 2.08-8.96 3.13-10.62 3.13-2.92 0-5-.21-6.25-.63m96.25 8.13c-3.34-5.84-5-8.96-5-9.38 0-5 2.7-7.5 8.12-7.5 2.08 0 4.8.63 8.13 1.88l16.25 8.75c9.58 5.83 18.54 8.33 26.87 7.5l9.38-.63c-17.92-.42-33.75-6.67-47.5-18.75-6.67-5.42-11.67-8.13-15-8.13-8.76 0-13.13 3.96-13.13 11.88 0 5.83 3.96 10.63 11.88 14.38m15-43.75c4.58 28.33 21.04 42.5 49.37 42.5 12.5 0 24.8-5 36.88-15l.62-3.75h-3.75c-8.75 9.16-20.2 13.75-34.38 13.75-22.5 0-36.87-11.67-43.12-35l-5.63-2.5m22.5 24.37c-.41-.83-.62-2.5-.62-5 0-2.92 1.87-4.38 5.63-4.38-2.09-3.75-4.17-5.62-6.25-5.62-3.34 0-5 1.67-5 5 0 3.75 2.08 7.08 6.25 10m22.5-6.88c-2.09 2.09-3.13 3.75-3.13 5 0 7.5 4.8 11.25 14.38 11.25 9.16 0 16.87-3.33 23.12-10h-2.5c-6.67 4.17-12.3 6.25-16.88 6.25-7.91 0-12.91-4.16-15-12.5m46.88 6.88c-3.33 7.5-5 11.88-5 13.13 0 4.16 2.7 6.45 8.13 6.87-2.09-5-3.13-8.13-3.13-9.38s1.04-4.58 3.13-10l-3.13-.62m3.75 4.38a16.24 16.24 0 0 0-.63 5v3.12c0 4.58 1.05 6.88 3.13 6.88.42-.42.63-1.05.63-1.88 0-.83-.42-2.7-1.25-5.63a97.58 97.58 0 0 1-1.88-7.5m3.13-3.75v5.01c.41 1.25.83 2.91 1.25 5 1.25 7.08 3.33 10.62 6.25 10.62h.62l1.88-1.25h3.12l4.38.63 2.5.62c4.16 0 7.7-1.25 10.62-3.75 3.33-2.5 5-5.2 5-8.13 0-5.83-3.33-8.54-10-8.12h-.63c2.92 2.92 4.38 5.42 4.38 7.5 0 5.83-3.33 8.75-10 8.75s-12.08-5.83-16.25-17.5l-3.13.63m66.25-6.25c11.67 8.75 23.55 13.12 35.63 13.12 11.67 0 17.5-5.42 17.5-16.25 0-5.83-4.17-9.17-12.5-10l-4.38 2.5h1.88c5.42 0 8.12 2.3 8.13 6.88 0 8.75-5.42 13.12-16.25 13.12-5.84 0-15-3.13-27.5-9.38h-2.5m117.5-243.12c9.16 1.67 14.37 5.21 15.62 10.63l3.13-3.13c0-5.41-5.21-7.91-15.63-7.5h-3.13m35.63-116.25c-4.58 8.34-11.88 16.25-21.88 23.75-10.83 7.5-16.25 15.21-16.25 23.13 0 10.42 5.42 17.3 16.25 20.62 0-2.08.42-3.12 1.25-3.12l6.88.62c9.58.84 14.38-4.37 14.38-15.62 0-2.92-2.5-6.04-7.5-9.38 1.25 3.34 1.87 6.05 1.87 8.13 0 7.5-4.38 11.25-13.13 11.25-9.58 0-14.37-4.17-14.37-12.5 0-5.83 3.96-11.88 11.88-18.13 10.83-8.74 17.7-18.33 20.62-28.75M496.23 453.55c-1.25 0-1.88.84-1.88 2.5 0 .84.84 1.25 2.5 1.25.84 0 1.25-.62 1.25-1.87v-.63c-.83-.83-1.45-1.25-1.87-1.25m-1.88-7.5c-1.25 0-1.87.84-1.87 2.5 0 1.67.83 2.5 2.5 2.5s2.5-.62 2.5-1.87c0-2.08-1.04-3.12-3.13-3.13m10 3.13c-1.66.42-2.5 1.67-2.5 3.75 0 2.5 1.25 3.75 3.75 3.75 2.09 0 3.13-1.46 3.13-4.38 0-2.08-1.46-3.12-4.38-3.12m-3.75-10.63c-1.66 0-2.5 1.25-2.5 3.75s.84 3.76 2.5 3.75c1.25 0 1.88-1.25 1.88-3.75s-.63-3.74-1.88-3.75m8.13 1.25c-1.67 0-2.5 1.05-2.5 3.13v.62c.42 1.25 1.25 1.88 2.5 1.88s1.87-1.04 1.88-3.13c0-1.66-.63-2.5-1.88-2.5m-329.38 130c-1.25 0-1.88.84-1.87 2.5 0 1.67.83 2.5 2.5 2.5 1.25 0 1.87-.62 1.87-1.87 0-2.08-.83-3.13-2.5-3.13m5.63 6.25c-1.25.84-1.88 1.88-1.88 3.13.42 1.25 1.25 1.88 2.5 1.88 1.67 0 2.5-.84 2.5-2.5 0-1.67-1.04-2.5-3.12-2.5m10 2.5c-2.09 0-3.13 1.04-3.13 3.12 0 2.5 1.04 3.75 3.13 3.75 2.08 0 3.12-1.04 3.12-3.13 0-2.5-1.04-3.75-3.12-3.75m10.62 0c-2.08.84-3.13 1.88-3.12 3.13 0 2.08 1.04 3.13 3.12 3.13 2.92 0 4.37-1.25 4.38-3.75 0-1.67-1.46-2.5-4.38-2.5m7.5-5.63c-1.25 0-1.88.63-1.87 1.88 0 1.25.62 1.87 1.87 1.87 1.67 0 2.5-.63 2.5-1.88 0-1.66-.83-2.29-2.5-1.87m3.75-7.5-1.87 1.88c.83.83 1.45 1.25 1.87 1.25 1.25 0 1.87-.63 1.88-1.88-.84-.83-1.46-1.25-1.88-1.25m51.25-5.63c-2.92 0-4.38 1.88-4.38 5.63 0 2.5 1.46 3.75 4.38 3.75 2.5 0 3.75-1.46 3.75-4.38 0-3.33-1.25-5-3.75-5m9.38-4.37c-2.5 0-3.76 1.46-3.75 4.38 0 2.91 1.25 4.37 3.75 4.37 2.91 0 4.37-1.46 4.37-4.38 0-2.91-1.46-4.37-4.38-4.37m10-1.25c-1.66.42-2.5 1.67-2.5 3.75s.84 3.13 2.5 3.13c2.5 0 3.75-1.25 3.75-3.75 0-2.09-1.25-3.13-3.75-3.13m10.63 1.88c-2.08 0-3.13 1.04-3.13 3.12 0 1.67 1.05 2.5 3.13 2.5 2.5 0 3.75-1.04 3.75-3.13 0-1.66-1.25-2.5-3.75-2.5m296.88-411.88 8.13 3.75 5 2.5c2.91 1.67 5.62 2.5 8.12 2.5 5.42 0 8.12-2.29 8.13-6.87 0-.42-.63-1.67-1.88-3.75-2.08 3.75-4.58 5.63-7.5 5.62-2.08 0-5.63-.41-10.63-1.25-4.58-1.25-7.7-2.08-9.37-2.5m-23.13 9.38c9.17 4.58 14.59 7.5 16.25 8.75l3.75 3.75c.84.83 1.67 1.25 2.5 1.25 1.67 0 2.5-.83 2.5-2.5-.41-1.67-1.87-3.12-4.37-4.38l-10-6.25-10.63-.62m-42.5 30.62 1.88.63c8.75-15.42 19.17-23.13 31.25-23.13 8.75 0 13.13 3.55 13.13 10.63 0 5.42-2.71 7.92-8.13 7.5h-3.13c4.17 2.5 7.5 3.75 10 3.75 5.84 0 8.75-3.54 8.75-10.63 0-10.41-6.45-15.62-19.37-15.62-12.92 0-24.38 8.96-34.38 26.87m3.75 1.25 1.88 1.25c1.67-6.24 4.8-9.37 9.38-9.37 5.41 0 8.33 2.7 8.75 8.12 2.08-2.08 3.12-3.74 3.12-5 0-5-2.7-7.5-8.13-7.5-5.41 0-10.41 4.17-15 12.5m41.88 3.75c1.25 2.09 1.87 3.76 1.88 5 2.91-1.25 5-1.87 6.25-1.87 5 0 7.5 2.7 7.5 8.12 0 2.92-2.3 5.42-6.88 7.5 2.92 1.25 5.42 1.88 7.5 1.88 7.08 0 10.63-3.96 10.63-11.88 0-5.83-3.55-10.62-10.63-14.37l-1.88 1.87h-7.5l-6.87 3.75m23.13 21.88c-1.67 1.67-2.5 3.13-2.5 4.37 0 3.34 2.08 5 6.25 5 3.33 0 6.87-2.7 10.62-8.12-3.75 2.5-6.67 3.75-8.75 3.75-2.5 0-4.38-1.67-5.63-5m-66.25-51.88c6.67-6.66 10-11.25 10-13.75 0-2.91-1.45-4.37-4.37-4.37-1.67 0-3.33.83-5 2.5v2.5c1.67-1.67 3.12-2.5 4.38-2.5.83.83 1.25 1.67 1.25 2.5 0 2.5-2.09 5.83-6.25 10v3.12m-13.75 20 1.87 1.25 2.5-6.87 3.13-6.88c1.66-2.91 2.5-6.45 2.5-10.62 0-10.83-6.05-16.25-18.13-16.25-8.33 0-15.83 3.33-22.5 10 2.5.83 3.96 1.46 4.38 1.87 0 .42-.21 1.46-.63 3.13-.42 1.25-.63 2.3-.63 3.12 0 8.34 4.17 12.5 12.5 12.5 1.67 0 4.17-1.04 7.5-3.12l-3.75.62c-5.83.84-8.75-2.29-8.75-9.37 0-8.75 4.38-13.13 13.13-13.13 8.33 0 12.5 4.38 12.5 13.13 0 3.75-1.88 10.62-5.63 20.62m-83.75-18.12 10.63 1.25c.83-10.83 4.8-16.25 11.88-16.25 6.24 0 9.37 2.92 9.37 8.75 0 2.5-.2 4.17-.63 5 5-2.5 7.5-5.42 7.5-8.75 0-7.92-4.79-11.88-14.37-11.88-5.42 0-9.8 1.67-13.13 5-1.25 1.25-2.08 1.88-2.5 1.88-.41 0-1.04-.63-1.87-1.88-.83-1.25-1.67-1.87-2.5-1.87-1.25 0-2.3 1.04-3.13 3.12a33.04 33.04 0 0 0-1.87 6.88v1.25c-.42.42-.2 2.92.63 7.5m-75.63 3.75 8.13-1.88c.41-12.5 4.79-18.75 13.12-18.75 7.08 0 10.63 2.92 10.63 8.75 0 1.67-.63 3.96-1.88 6.88 5-1.67 7.5-4.58 7.5-8.75 0-7.92-5.83-11.88-17.5-11.88-14.17 0-20.83 7.3-20 21.88v3.75m-65.63-1.88c5.42 5.42 12.09 8.13 20 8.13 9.59 0 14.38-2.08 14.38-6.25 0-1.67-1.46-2.5-4.38-2.5-.83 0-3.12.83-6.87 2.5-3.75 1.25-6.67 1.88-8.75 1.87-4.17 0-8.96-1.25-14.38-3.75m-35.62-11.25.63 3.75c3.33-.41 6.04-.62 8.12-.62 2.08-.42 3.54-.63 4.38-.63 6.24 0 9.37 1.25 9.37 3.75l-1.25 5.63c0 .83 1.25 2.5 3.75 5s3.75 5.2 3.75 8.12c0 1.67-1.25 3.76-3.75 6.25 5.83-1.25 8.75-5.2 8.75-11.87 0-2.92-.42-4.8-1.25-5.63l-3.13-4.37c-.41-.42-.62-1.25-.62-2.5 0-.42.42-.63 1.25-.63h1.88l4.37 1.25c.42.42 1.67.63 3.75.63 7.08 0 10.63-2.92 10.63-8.75 0-2.5-.21-4.17-.63-5-1.25 4.17-4.17 6.25-8.75 6.25-2.5 0-4.17-.2-5-.63-3.33-1.25-5.2-1.87-5.63-1.87h-2.5c-1.25 0-2.08.2-2.5.62l-1.87 1.88-3.75-.63c-3.33-.83-5.83-1.25-7.5-1.25-.83 0-2.3.21-4.38.63-2.08 0-4.79.2-8.12.62m-16.88-3.75c4.59 0 6.88-1.87 6.88-5.62 0-.83-.42-1.67-1.25-2.5l-3.12-.63v4.38l-2.5 4.37m17.5 17.5c7.5.84 11.25 3.34 11.25 7.5 0 2.92-1.88 5-5.63 6.25l5 3.13c3.75-2.92 5.62-5.62 5.63-8.13 0-6.24-3.55-9.37-10.63-9.37-2.92 0-4.8.2-5.63.62m-31.25 84.38c-3.33-14.17-5-19.17-5-15 0-5.83 2.71-8.75 8.13-8.75 3.75 0 6.25 2.92 7.5 8.75.83-3.33 1.25-4.8 1.25-4.38 0-5.41-3.33-8.12-10-8.12-7.08 0-10.62 3.96-10.62 11.87 0 4.59 2.91 9.8 8.75 15.63m-55-21.88-.63-3.75c0-4.16 2.08-6.24 6.25-6.25 4.17 0 9.17 4.8 15 14.38 5.42 9.58 15.42 18.54 30 26.87l.63-1.25c-12.92-7.91-22.5-18.54-28.75-31.87-5.42-10.42-11.25-15.63-17.5-15.63-6.26 0-9.38 3.34-9.38 10 0 2.09 1.46 4.59 4.38 7.5m286.25 310c3.33-.83 5.62-3.74 6.87-8.75.42-1.66 1.04-2.5 1.88-2.5l1.87 1.25 1.88-1.25c-.84-4.58-2.92-8.12-6.25-10.62-3.34-2.92-5-5.2-5-6.88 0-1.66 1.04-2.5 3.12-2.5 1.25 0 2.3.63 3.13 1.88l3.75 6.25c1.66 2.5 3.74 3.75 6.25 3.75 1.66 0 4.79-3.54 9.37-10.63 5-8.74 7.5-12.5 7.5-11.25 0-3.74-2.3-5.62-6.88-5.62h-6.87c-3.75-.42-5.63-2.08-5.63-5 0-1.25 1.05-1.87 3.13-1.88l1.88 1.25c1.25.42 3.33 1.05 6.25 1.88.83.42 2.5.62 5 .62 1.66 0 3.12-1.04 4.37-3.12l-1.25-1.25 1.25-1.25c3.75-2.92 5.62-5.2 5.63-6.88a7.82 7.82 0 0 1-1.88-3.12c-3.33 3.33-6.67 5-10 5s-7.7-.83-13.13-2.5l-6.25-1.25c-2.5 0-5.62 1.25-9.37 3.75 1.67.42 2.5 1.25 2.5 2.5 0 .42-.2.62-.63.62h-3.75l-1.25 2.5a34.4 34.4 0 0 0 4.38 1.88c-.42.42-1.88 1.25-4.38 2.5l1.88 2.5 3.13 1.87c.41.42.62 1.05.62 1.88 0 .83-.63 1.25-1.88 1.25h-.62l-3.13-1.25-4.37.62c1.25 2.09 1.87 3.55 1.88 4.38 0 .42-.21.62-.63.62-.83 0-2.3-1.04-4.38-3.12-1.25.83-1.87 1.67-1.87 2.5l.63 1.25c1.66.42 2.5 1.25 2.5 2.5s-.42 1.88-1.25 1.87c-.42-.41-1.05-.62-1.88-.62-.42 0-.83-.2-1.25-.63.42 4.17 2.5 8.34 6.25 12.5 6.25 7.09 9.37 12.3 9.38 15.63 0 1.67-.84 3.96-2.5 6.88m26.87-21.25 2.5 3.75 3.75.62c2.08.83 3.12 2.92 3.13 6.25l3.75-1.88v-1.25c.41-1.66-3.96-4.16-13.13-7.5m4.38-6.25-1.25 3.13a59.21 59.21 0 0 0 17.5 2.5c18.33 0 27.5-10 27.5-30 0-5.42-.84-8.96-2.5-10.63l-14.38-10.62-1.25-1.25 1.88-1.88c1.66-1.66 2.5-3.12 2.5-4.37l-.63-3.75a16.24 16.24 0 0 1-.63-5v-2.5c0-2.08.21-3.75.63-5-5 3.33-7.5 6.88-7.5 10.62v1.25c.42.42.63 1.88.63 4.38 0 2.08-.84 3.13-2.5 3.12-.84 0-2.3-.2-4.38-.62a26.85 26.85 0 0 0-5-.63c-4.58 0-7.7 1.88-9.38 5.63l5-.63c1.67 0 3.55.63 5.63 1.88 2.5 1.25 3.96 1.88 4.38 1.87.41 0 1.25-.41 2.5-1.25s2.08-1.25 2.5-1.25a9.84 9.84 0 0 1 2.5 1.88c1.25.83 2.7 1.67 4.37 2.5 8.75 4.58 13.13 10.83 13.13 18.75 0 6.67-2.5 12.5-7.5 17.5-5 4.58-11.05 6.88-18.13 6.87-5.83 0-11.04-.83-15.63-2.5m1.88-2.5c2.08.42 3.96.84 5.63 1.25h4.37c11.67 0 17.5-4.79 17.5-14.37 0-8.33-4.17-12.5-12.5-12.5-2.08 0-4.8 1.67-8.13 5l5-.63c6.25 0 9.38 2.71 9.38 8.13 0 7.92-4.38 11.46-13.13 10.62h-6.87l-1.25 2.5m43.75-10 4.38-8.75 3.75-15.62c1.25-5.83 5.2-9.58 11.87-11.25h-2.5c-6.25 0-10.2 2.08-11.88 6.25-.41.83-.83 2.5-1.25 5-.41 2.5-.83 5.83-1.25 10a81.4 81.4 0 0 0-1.25 6.25c-.41 2.08-1.04 4.8-1.87 8.12m55 69.38v3.75c7.5-4.17 11.25-6.88 11.25-8.13v-1.25l-1.25-1.25c0-.41.2-1.04.63-1.87.41-1.25.62-2.08.62-2.5 0 .42-.42-.63-1.25-3.13-2.08 5-5.42 9.8-10 14.38m-.63-7.5.63 4.38c4.17-4.17 6.25-8.34 6.25-12.5 0-7.5-3.54-11.25-10.63-11.25-3.33 0-5.2 2.08-5.62 6.25 2.08-2.09 3.75-3.13 5-3.13 4.58 0 6.87 2.7 6.88 8.13 0 2.5-.84 5.2-2.5 8.12m18.75 5 3.12 1.25c2.92-2.5 5.42-3.75 7.5-3.75s3.54 1.25 4.38 3.75l.62 1.88c0 1.25-1.04 2.91-3.13 5h2.5c2.92.41 4.38-1.25 4.38-5 0-6.25-3.33-9.38-10-9.38-2.5 0-5.63 2.08-9.38 6.25m-26.25-110c2.09 3.33 3.13 6.46 3.13 9.37 0 3.34-1.25 4.59-3.75 3.75h-1.88c1.25 3.76 2.92 5.63 5 5.63 4.17 0 6.25-2.5 6.25-7.5 0-4.17-2.91-7.92-8.75-11.25m39.38-6.25-10 1.87-5.63 5h4.38c0 1.67-1.46 2.71-4.38 3.13v3.75c2.5-1.25 4.59-1.87 6.25-1.88 2.5 0 4.8 1.67 6.88 5 .83-.83 1.87-2.7 3.13-5.62 1.25 0 3.12-.63 5.62-1.88l-3.13-3.12-4.37-1.88c-.42-.41-.63-1.04-.63-1.87 0-.83.63-1.67 1.88-2.5m-48.75-54.38-1.88-1.87c-5 8.33-7.5 15.83-7.5 22.5 0 10.83 2.71 20.2 8.13 28.12 5.83 7.5 12.7 11.25 20.63 11.25 12.91 0 19.37-6.45 19.37-19.37 0-9.58-6.67-19.17-20-28.75l-1.25 2.5c11.67 8.75 17.5 16.87 17.5 24.37 0 11.67-5.42 17.5-16.25 17.5-6.25 0-11.88-3.74-16.88-11.25-5-7.5-7.5-16.04-7.5-25.62 0-5.42 1.88-11.88 5.63-19.38m25-3.12c-13.33 9.58-20 18.75-20 27.5 0 11.67 4.17 17.5 12.5 17.5 3.75 0 7.92-2.5 12.5-7.5l-2.5-2.5c-2.92 4.17-5.83 6.25-8.75 6.25-6.67 0-10-4.58-10-13.75 0-7.92 5.83-16.25 17.5-25l-1.25-2.5m-.63-9.38c5.42 9.17 8.13 16.46 8.13 21.88 0 3.75-.2 6.25-.63 7.5l3.13 3.75c.42-2.08.63-3.96.63-5.63.41-2.08.62-3.74.62-5 0-6.24-3.13-14.16-9.38-23.75l-2.5 1.25m-26.87-10c.42 10.42 3.75 18.96 10 25.63l2.5-1.88c-5.42-6.66-8.75-14.58-10-23.75h-2.5m10.63 11.88 7.5-3.13 12.5-5.62 7.5-2.5-1.25-2.5c-8.34 2.08-17.5 5.83-27.5 11.25l1.25 2.5m8.12-13.75c-10-3.33-16.67-5-20-5-10.42 0-15.63 4.17-15.63 12.5 0 5.83 2.3 8.75 6.88 8.75 2.08 0 3.54-.2 4.38-.63-5-2.5-7.5-5.83-7.5-10 0-5 4.37-7.5 13.12-7.5 3.33 0 8.54 1.25 15.63 3.75l3.12-1.87m-18.75-10h3.13c3.74-10 9.58-15 17.5-15 5.83 0 10.83 2.3 15 6.87 4.16 4.17 6.24 9.38 6.25 15.63 0 5-1.46 10.2-4.38 15.62l1.88 3.13c4.16-6.67 6.24-12.7 6.25-18.13 0-17.91-7.92-26.87-23.75-26.87-11.67 0-18.96 6.25-21.88 18.75m14.38-40.63 10-1.25h13.75c13.75-.83 20.2-7.29 19.37-19.37v-1.25c-.83-6.25-2.5-10.42-5-12.5l-3.13-3.13c-.41-.41-.83-.62-1.25-.62l-.62-.63-1.25 2.5c-.42 1.25-1.04 1.88-1.88 1.88-1.66 0-2.7-.2-3.12-.63l-3.13-.62c-8.75 0-13.12 4.38-13.12 13.12 0 6.67 2.3 9.59 6.88 8.75h3.75c-2.92-2.5-4.38-5-4.38-7.5 0-6.24 3.12-9.37 9.38-9.37 7.5 0 11.25 3.96 11.25 11.87 0 7.5-7.92 12.5-23.75 15-4.17.42-8.76 1.67-13.75 3.75m-197.5-122.5c9.16 2.09 17.29 3.34 24.37 3.75 8.33.84 15 1.46 20 1.88 5 .42 8.12.83 9.38 1.25a96.2 96.2 0 0 0 9.37 2.5c3.75.83 8.12 2.08 13.13 3.75a198.1 198.1 0 0 0-23.75-7.5 172.5 172.5 0 0 0-26.88-4.38l-16.88-1.87-8.75.62m161.88 96.88c.42-1.25.63-3.12.63-5.63 0-2.5.2-4.16.63-5 .41-10 2.5-15 6.25-15 1.25 0 2.7.84 4.37 2.5 0-5.41-2.08-8.12-6.25-8.12-5 0-7.5 3.96-7.5 11.87 0 2.92.63 9.38 1.88 19.38m-27.5-112.5 5.62 2.5c10.42-22.5 26.25-33.75 47.5-33.75 12.5 0 23.13 4.17 31.88 12.5 8.74 7.92 13.12 18.12 13.12 30.62 0 11.67-3.13 21.05-9.38 28.13-6.25 7.08-14.58 10.42-25 10h-5l1.25 5.62c30-.41 45-15 45-43.75 0-14.58-5-26.45-15-35.62-10-9.17-22.7-13.75-38.12-13.75-22.08 0-39.38 12.5-51.88 37.5m-297.5 75 2.5-3.75c-16.66-15.42-25-28.33-25-38.75 0-7.92 2.71-13.96 8.13-18.13 2.5-.83 3.54-1.25 3.13-1.25.41 0 1.25.63 2.5 1.88 1.66.83 2.91 1.25 3.75 1.25 1.66 0 2.5-.83 2.5-2.5 0-3.33-2.5-7.3-7.5-11.88-3.34-2.08-5.21-3.12-5.63-3.12-2.08 0-3.13.83-3.13 2.5v.62l1.26 3.13v1.25c0 1.25-.21 2.08-.63 2.5-6.25 7.08-9.38 14.17-9.38 21.25 0 17.92 9.17 32.92 27.5 45m-23.12-68.13 2.5-2.5a8.7 8.7 0 0 1-.63-3.75c0-3.33 1.88-5 5.63-5 3.33 0 6.67 2.09 10 6.25 3.75 3.76 5.62 7.5 5.63 11.25 0 3.76-1.67 5.63-5 5.63a9.14 9.14 0 0 1-5.63-1.88l-3.75 2.5c4.58 3.34 8.12 5 10.63 5 5.83 0 8.74-3.33 8.75-10 0-5-1.88-9.37-5.63-13.12-6.67-6.67-13.13-10-19.38-10-4.58 0-6.87 2.3-6.87 6.87 0 2.09 1.25 5 3.75 8.75m-3.13 5-.62-3.75-1.25.63c-2.5 0-3.75-.63-3.75-1.88.83-.83 2.3-1.25 4.38-1.25l-2.5-2.5-5-1.25c-2.5 0-5 1.46-7.5 4.38 5 2.5 10.41 4.38 16.25 5.62m-4.38-15.62c-2.5-.42-3.75-1.46-3.75-3.13 0-.41.2-.62.63-.62l3.75 1.25c.41-.42.62-1.04.62-1.88 0-.83-.42-1.66-1.25-2.5l-3.13-3.12-4.37-5.63c-.83-.83-4.58-1.66-11.25-2.5 2.5 3.76 4.17 7.09 5 10 2.5 7.09 6.46 10.63 11.88 10.63.41-.42.62-.83.62-1.25l1.25-1.25m6.25-9.38c-2.08-2.08-3.13-3.74-3.13-5 0-1.25.42-1.87 1.26-1.87.41 0 1.04.62 1.87 1.87l3.75 4.38 4.38.62a19.4 19.4 0 0 0-1.25-3.75v-3.12c0-4.58 2.7-8.75 8.12-12.5l-2.5-1.88 1.25-3.12-1.88-3.13-6.24 3.75-10.63 3.75c-3.33 1.25-5 4.17-5 8.75 0 7.5 3.33 11.25 10 11.25m11.88-3.12c1.25-2.08 2.7-3.12 4.37-3.13.42 0 .63.21.63.63 0 .83-.21 1.46-.63 1.87l-1.25 2.5-.63 1.25c0 1.25 1.67 2.5 5 3.75.42-2.91 1.26-4.37 2.5-4.37.84.83 1.26 1.46 1.26 1.87l-1.25 3.75 5.62 1.25 3.13-2.5 1.25-.62c.83 0 1.25.42 1.25 1.25 0 1.25-.21 2.08-.63 2.5l-3.13 2.5v5l2.5-.63c2.09 0 3.13.42 3.13 1.25 0 1.67-1.46 2.5-4.38 2.5l3.76 3.75c2.91-1.66 5.2-2.5 6.87-2.5.42 0 .63.21.63.63 0 2.08-1.25 3.33-3.75 3.75h2.5c10.83 0 16.25-4.8 16.25-14.38 0-3.33-.21-5.41-.63-6.25-.42.42-1.25.63-2.5.63-.83 0-1.67-.42-2.5-1.25 0-.42.63-1.46 1.88-3.13 1.25-2.08 1.87-3.95 1.87-5.62 0-2.08-.63-5.42-1.88-10-1.66.42-3.12.83-4.37 1.25h-7.5c-7.08-1.25-11.46-1.87-13.13-1.88-11.24 0-16.87 3.55-16.87 10.63 0 1.67.2 2.92.63 3.75m21.87 30v3.12c1.25 1.67 3.12 2.5 5.63 2.5 2.08 0 3.95.42 5.62 1.25-.83.84-2.08 1.25-3.75 1.25-.42 0-2.3-.41-5.63-1.25 2.92 5 7.09 7.5 12.5 7.5 10.42 0 18.13-6.87 23.13-20.62-3.75-.42-6.67 0-8.75 1.25a10.06 10.06 0 0 1-4.38 1.25c-1.66 0-2.7-.2-3.12-.63-5.83 3.34-10.2 5-13.13 5h-3.74c-1.67 0-3.13-.2-4.38-.62m10.63 16.87-4.38-.62-2.5-.63-.63 2.5-1.24-1.25-2.5-3.75-2.5-3.12c-1.25 2.5-1.88 4.38-1.88 5.62 0 2.5 1.04 4.38 3.13 5.63a363.8 363.8 0 0 1 10.62 5.62 25.18 25.18 0 0 0 1.88-10m-20-2.5h-4.38v.63c0 .83-.2 1.25-.63 1.25-.41 0-.62-.42-.62-1.25v-.63l-5.63-1.25c.42 2.5 2.92 6.26 7.5 11.25 2.92-2.5 4.38-4.79 4.38-6.87l-.63-3.13m232.5 232.5c13.34 0 26.46-3.33 39.38-10 17.92-8.33 29.58-12.5 35-12.5 12.92 0 19.38 5 19.38 15s-4.8 15-14.38 15c-.42 0-3.13-1.04-8.13-3.12 2.5 6.67 6.67 10 12.5 10 2.5 0 4.59-.63 6.25-1.88 2.09-1.66 3.34-2.5 3.75-2.5.84 0 2.3.63 4.38 1.88 4.58-8.33 6.87-14.17 6.88-17.5 0-1.25-.42-2.7-1.25-4.38-.84-2.08-1.25-3.33-1.25-3.75 0-.83 1.04-1.66 3.12-2.5-6.25-9.58-14.17-14.37-23.75-14.37-11.25 0-21.46 2.7-30.63 8.12l-33.12 16.88-18.13 5.62m-71.87 5c7.5.84 13.96 1.67 19.38 2.5 5.83.42 10.62.63 14.37.63h11.25c2.92 0 6.46-.2 10.63-.63h2.5c15-.41 22.5 3.55 22.5 11.88 0 5-2.3 7.5-6.88 7.5h-4.38c2.92 1.67 5.63 2.5 8.13 2.5 5.83 0 8.75-3.33 8.75-10 0-10.83-8.96-16.04-26.88-15.63h-3.75l-36.25 2.5-19.37-1.25m-70-6.25 1.88 1.88a610.62 610.62 0 0 1 29.37 3.75c7.92.83 15.42 2.5 22.5 5s14.8 5.83 23.13 10c8.33 4.17 19.16 10 32.5 17.5l5.62-1.25c-27.5-15.42-46.67-24.8-57.5-28.13-5.83-2.08-13.54-3.74-23.13-5-9.58-1.66-21.04-2.91-34.37-3.75m101.88 54.38c3.33-2.08 5.83-3.12 7.5-3.13 1.67 0 4.17.63 7.5 1.88 3.75 1.25 6.67 1.88 8.75 1.87 7.08 0 10.63-3.74 10.63-11.25 0-5.41-2.5-10-7.5-13.75-6.26-5.41-9.38-9.37-9.38-11.87l1.25-5c-5 3.33-7.5 6.67-7.5 10s1.04 6.46 3.13 9.37c2.5 2.92 4.79 5.21 6.87 6.88a26.62 26.62 0 0 1 3.75 2.5c0 .42-.63.62-1.88.62-2.5 0-4.37-.2-5.62-.62l-3.13-.63c-9.16 0-13.95 4.38-14.37 13.13m-51.25-88.75 13.75 3.12c15-4.16 21.67-6.24 20-6.25h.63c0 .84-4.8 3.13-14.38 6.88l8.13 1.25c4.58-2.08 8.54-3.96 11.87-5.63 3.33-1.66 5.83-3.33 7.5-5l5.63-5.62c.83-.83 1.66-1.25 2.5-1.25.41 0 .62.42.62 1.25 0 2.08-1.88 4.38-5.63 6.87l-8.12 5.63-7.5 4.37h7.5a32.79 32.79 0 0 1 5.63-3.75 14.53 14.53 0 0 0 3.75-2.5l.62.63c0 1.67-.83 3.13-2.5 4.37l5 .63a114.35 114.35 0 0 0 22.5-19.38c7.92-9.16 11.88-15.83 11.88-20 0-.83-.21-1.87-.63-3.12 0-1.67-.2-3.54-.63-5.63-1.66 1.67-3.12 2.5-4.37 2.5-.83-.83-1.25-1.45-1.25-1.87l-1.88-8.13-5.62-7.5c-7.5 8.34-11.25 14.17-11.25 17.5 0 2.09-.2 3.13-.63 3.13-.41 0-1.25-.42-2.5-1.25-1.25-.83-2.08-1.25-2.5-1.25-2.5 0-4.37 1.88-5.62 5.62l-5.63 14.38c-4.16 11.25-19.79 17.92-46.87 20m66.25.62c8.75-3.33 15.42-6.45 20-9.37 7.5-11.25 11.67-19.17 12.5-23.75l1.25-10.63c.42-1.66.83-2.5 1.25-2.5.83 0 1.25 1.05 1.25 3.13s-.2 3.54-.63 4.37l-4.37 16.88-5 8.75a40.8 40.8 0 0 0 4.38-2.5 12.41 12.41 0 0 0 3.75-4.38l5-15 .62-13.12c0-2.08.42-3.12 1.25-3.13 1.25 0 1.87 2.3 1.88 6.88 0 .42-.42 2.3-1.25 5.62l-1.88 13.13 4.38-3.75c4.16-12.92 6.24-22.08 6.25-27.5l-.63-3.75-1.88-19.38c-.41-1.25-.2-2.29.63-3.12 2.92 0 4.37 5.2 4.38 15.62v8.13l-3.75 22.5c11.25-15.42 16.87-34.38 16.87-56.88 0-3.74-.83-9.37-2.5-16.87-1.25-7.5-1.88-12.92-1.88-16.25v-2.5c.42-1.25.84-2.92 1.25-5-2.08.42-3.75 1.67-5 3.75s-2.29 3.13-3.12 3.12c-.42-.41-.83-.62-1.25-.62l-1.25-1.25-3.13-3.75-1.87-1.88a36.82 36.82 0 0 0-3.75-3.12c-5-5-8.54-10.2-10.63-15.63-7.5 7.09-11.25 13.75-11.25 20 0 1.25.42 3.55 1.25 6.88l3.13 8.12v1.88c0 1.25-.2 2.08-.63 2.5-.83 0-1.45-.2-1.87-.63l-6.25-2.5c-1.67 5-2.5 10-2.5 15 0 5.42 1.25 10.21 3.75 14.38l4.38 7.5c.41.42.62 1.46.62 3.12 0 .84-.2 1.25-.63 1.25-1.66 0-3.95-1.25-6.87-3.75l1.88 10 8.12 13.13c1.67 2.92 2.5 7.3 2.5 13.12 0 15.42-9.58 30-28.75 43.75m171.88 156.25 4.38-3.75-.63-8.75-1.88-6.25-.62-1.87c0-.83.2-1.25.63-1.25 2.08 0 3.54 2.3 4.37 6.88l1.25 7.5 2.5-3.75-1.25-6.25-2.5-5v-1.88c0-.42.2-.63.63-.63 1.66 0 2.91 2.3 3.75 6.88.41.42.62 1.04.62 1.88 0 1.25.2 2.08.63 2.5v-10a37.1 37.1 0 0 0-4.38-20c-2.5-3.75-3.75-6.67-3.75-8.75 0-.84.42-1.67 1.25-2.5.83.41 1.46.83 1.88 1.24l1.25 1.25c2.5 4.17 4.16 9.38 5 15.63.41 1.25.62 3.13.62 5.63.42 2.08 1.04 4.79 1.88 8.12l3.12-10c-2.92-8.33-4.38-11.67-4.38-10 0-1.25.42-1.87 1.25-1.88 1.25 0 2.5 1.88 3.75 5.63l.63-6.25-1.25-3.75-2.5-5c-.42-.42-.63-1.46-.63-3.13 0-.41.42-.62 1.25-.62 1.67 0 2.92 1.88 3.75 5.62.42-1.25.63-3.74.63-7.5 0-3.33-1.25-11.04-3.75-23.12l-3.75 3.75a24.81 24.81 0 0 0-3.13 3.75c-1.66 0-2.7-2.08-3.12-6.25-.83-2.08-2.5-5.2-5-9.38-2.08-5-3.13-8.33-3.13-10v-2.5c.42-1.25.84-2.91 1.25-5l-5 3.75v6.88c.42 1.25.21 1.88-.62 1.87-.83 0-1.25-.62-1.25-1.87l-.63-3.75-3.75 9.37-1.25 11.88-1.25 1.25c-.83 0-1.45-.2-1.87-.63l-2.5-2.5-4.38 13.13 3.75 10.62v1.25c0 1.25-.62 1.88-1.87 1.88l-3.13-2.5c-.41 2.08-.83 3.96-1.25 5.62v4.38c0 3.75.84 6.46 2.5 8.13l15 15.62c5 5.83 7.5 11.25 7.5 16.25 0 4.17-.2 6.88-.62 8.13M168.74 454.8c1.25 3.34 3.12 5 5.63 5 7.91 0 11.87-5.41 11.87-16.25 0-5.83-3.54-12.91-10.63-21.25-2.91-2.91-4.37-5.41-4.37-7.5 0-2.91 1.87-4.37 5.63-4.37 4.16 0 7.7 2.7 10.62 8.12 2.92 5.42 4.37 11.88 4.38 19.38 0 6.25-1.67 16.04-5 29.37l-9.38 30c-2.92 8.76-4.38 19.38-4.38 31.88 0 30.42 8.75 45.63 26.25 45.63 8.34 0 12.3-3.96 11.88-11.88l-.63-20.63a24.55 24.55 0 0 1 5-16.87c3.75-5.42 7.92-8.12 12.5-8.13 10 0 15 4.8 15 14.38 0 4.17-1.45 7.08-4.37 8.75l-11.25 8.75c-2.5 2.08-3.75 5.63-3.75 10.63 0 12.5 5.83 18.75 17.5 18.75.83 0 2.08-.21 3.75-.63 2.08-.83 3.54-1.25 4.38-1.25.41 0 1.25.63 2.5 1.88s2.5 1.87 3.75 1.87l.62-.63 5-1.25h1.25c3.75 0 5.62 2.09 5.63 6.25 0 1.67-1.05 3.55-3.13 5.63 5.83-.83 8.75-3.54 8.75-8.13 0-6.25-4.38-10-13.13-11.25-2.08-.83-3.12-1.45-3.12-1.87v-1.88l1.88-5c1.25-2.5 1.87-4.79 1.87-6.87 0-2.92-2.08-5.83-6.25-8.75l1.25 6.25c0 1.25-1.88 3.33-5.63 6.25-3.33 2.5-5 4.8-5 6.88 0 .83.42 1.87 1.25 3.12s1.25 2.08 1.25 2.5c0 1.67-1.87 2.5-5.62 2.5-9.58 0-14.38-4.17-14.38-12.5 0-3.33 2.92-6.67 8.75-10l12.5-6.25c4.59-2.08 6.88-6.87 6.88-14.38 0-5.41-2.3-11.04-6.88-16.87-1.25-1.67-5.41-4.17-12.5-7.5-.83 0-1.25-.42-1.25-1.25l.63-2.5 1.25-3.13-5-.62c-10.42 0-19.58 4.58-27.5 13.75-7.5 9.17-10.83 20-10 32.5v8.75c.42 4.17-.2 6.25-1.88 6.25-2.91 0-4.37-2.92-4.37-8.75 0-10 2.7-20.2 8.13-30.63 5.41-10.41 7.91-19.37 7.5-26.87v-8.75l-5 1.87-5.63 5c-1.25 1.25-2.3 1.88-3.13 1.88-.41-.42-.62-.83-.62-1.25 0-1.25 2.5-4.17 7.5-8.75 6.67-4.17 10-15.2 10-33.13 0-9.58-2.3-17.29-6.88-23.12-.41 2.92-1.25 4.38-2.5 4.37-.83-.83-1.25-1.66-1.25-2.5-3.33-16.25-9.79-24.37-19.37-24.37-6.67 0-10 2.92-10 8.75 0 4.17 2.08 9.17 6.25 15 4.58 5.42 6.87 10.62 6.88 15.62 0 7.09-2.71 10.42-8.13 10h-3.75m40.63 46.88c17.5-23.33 37.7-35 60.62-35 9.17 0 16.88 1.88 23.13 5.62 6.66 3.76 10 8.34 10 13.75v4.38c0 1.67-.21 3.13-.63 4.37 3.75-.83 6.04-2.29 6.88-4.37l2.5-6.25c0-.83.62-1.25 1.87-1.25h1.88a32.06 32.06 0 0 0-7.5-11.88c-13.75-1.25-20.63-3.54-20.63-6.87l1.25-1.25c1.25 0 2.3.42 3.13 1.25l3.12 1.87c1.67 1.25 4.17 1.88 7.5 1.88h3.13c1.66-.42 3.54-.83 5.62-1.25-2.08-1.25-3.13-2.5-3.13-3.75.84-.83 1.67-1.25 2.5-1.25h2.5c3.34 0 7.92-2.3 13.75-6.88l-11.25-5-6.87-8.75c-4.58-5.83-6.88-7.7-6.88-5.62l1.25-1.25 3.75-1.88c-7.5-3.74-13.54-5.62-18.12-5.62-.42 0-2.3.42-5.63 1.25l-9.37 3.12-1.88.63c-2.08 0-3.12-.63-3.12-1.88 0-2.91 4.17-4.79 12.5-5.62 12.92-1.25 21.88-4.37 26.88-9.38 5-5.41 8.12-14.79 9.37-28.12l-7.5 3.75c-.42-.42-.63-1.04-.63-1.88v-5.62c0-4.58-2.5-9.8-7.5-15.63-4.58-5.83-9.37-9.16-14.37-10-3.33-.41-5.2-1.04-5.63-1.87l-4.37-4.38-3.13-1.25v5c-9.16 4.17-13.75 9.59-13.75 16.25 0 2.5.63 5.21 1.88 8.13 1.67 2.92 3.33 5.63 5 8.12 2.08 2.5 3.96 5 5.63 7.5 1.66 2.09 2.5 3.76 2.5 5 0 6.67-2.92 10-8.75 10-4.17 0-6.26-2.08-6.25-6.25 0-3.74 1.45-5.62 4.37-5.62 1.67 0 2.7.2 3.13.62-1.67-2.91-3.76-4.37-6.25-4.37-5.84 0-8.76 2.92-8.75 8.75 0 6.67 3.95 10 11.87 10 10 0 15-4.58 15-13.75 0-4.17-1.88-8.96-5.63-14.38-3.75-5.83-5.62-9.58-5.62-11.25 0-6.66 3.96-10 11.88-10 10 0 15 6.46 15 19.38 0 14.58-7.3 25.42-21.88 32.5l-19.38 10c-25.41 12.92-39.79 25.83-43.12 38.75l2.5-1.88h1.25c.83 0 1.25.21 1.25.63 0 1.25-2.5 4.38-7.5 9.37l-2.5 5.63 3.13 2.5c14.16-14.17 25-22.7 32.5-25.63l21.25-8.12c3.74-1.25 6.87-1.87 9.37-1.88 3.33 0 5 .63 5 1.88 0 2.08-4.38 3.33-13.13 3.75-15.83 1.67-34.16 12.92-55 33.75v5c4.17-4.17 6.67-6.25 7.5-6.25.42 0 .63.2.63.62 0 .84-2.7 3.96-8.13 9.38v8.75m88.13-187.5 1.88 13.75c5.83 7.92 10.83 12.7 15 14.37l7.5 3.13c.83.42 1.25.83 1.25 1.25l1.25 1.25c-.84.83-1.67 1.25-2.5 1.25a7.77 7.77 0 0 1-5.63-2.5l-8.75-6.88-7.5-6.87 1.88 9.37 10 7.5 9.37 4.38c1.67.42 2.5 1.25 2.5 2.5-.42.42-1.25.62-2.5.62-2.92 0-5.83-1.04-8.75-3.12-2.5-2.5-5.42-5-8.75-7.5l5 10.62c15.42 8.34 25.42 12.3 30 11.88l3.13-.63c2.5 0 5-.2 7.5-.62 2.91-.42 4.58-.63 5-.63 2.5 0 3.74.63 3.75 1.88 0 2.5-3.96 3.75-11.88 3.75h-3.75c-1.67-.42-3.54-.83-5.63-1.25l-13.12-3.13-13.75-7.5 3.75 7.5c5 2.92 8.96 4.8 11.88 5.63 5.83 1.25 9.16 2.08 10 2.5 1.25 0 1.87.42 1.87 1.25 0 1.25-1.04 1.88-3.13 1.87 3.34 0-1.66-1.66-15-5l7.5 7.5 10.63 2.5h10c.83 0 1.67.42 2.5 1.25 0 1.67-1.46 2.5-4.38 2.5l-3.12-.62c-.83-.42-2.5-.63-5-.63s-4.8-.2-6.88-.62l7.5 5 5 .62h3.75c2.5 0 3.75.63 3.75 1.88s-1.25 1.88-3.75 1.87h-2.5c7.92 5.42 15.84 7.92 23.75 7.5h3.13l-1.25-1.25c0-.41-.2-.83-.63-1.25.42-.41 1.46-.62 3.13-.62h5.63c6.24.42 13.12-1.67 20.62-6.25l-8.75 1.25c-2.5.42-5.42 1.04-8.75 1.87-.83.42-2.92.63-6.25.63-7.5 0-11.25-1.67-11.25-5 0-1.67 1.25-2.5 3.75-2.5h.63l9.37 1.25c4.58 0 12.92-5.42 25-16.25-3.33-.83-5-1.46-5-1.88 0-1.25.83-2.5 2.5-3.75l9.38-6.87c2.5-1.25 5.41-6.67 8.75-16.25.41-.83.83-2.3 1.25-4.38a62.24 62.24 0 0 1 3.75-7.5c-5.84 1.25-10.63 1.88-14.38 1.88h-5.63a10.8 10.8 0 0 0-6.25.62c-1.66.84-2.7 1.25-3.12 1.25-.42 0-.63-.62-.63-1.87l1.25-5-8.12 1.25c-5.83.83-9.58 1.88-11.25 3.12-1.67.84-4.17 2.5-7.5 5a7.86 7.86 0 0 0-3.13 1.88c-.41-.42-.62-1.04-.62-1.88 0-2.08.83-4.58 2.5-7.5h-8.13l-19.37 8.13c-3.33.83-5.2 1.25-5.63 1.25-13.33 0-25.2-9.58-35.62-28.75m140.62 234.38 8.75 16.88 11.88 13.12c2.91 2.92 4.37 6.25 4.37 10s-1.88 5.63-5.63 5.63l-4.37-.63c3.33 3.33 6.04 5 8.13 5 5.41 0 8.12-2.7 8.12-8.13 0-3.75-1.46-7.08-4.38-10l-13.75-13.12-13.12-18.75m40-328.75-11.25-5a64.94 64.94 0 0 0-20 5.62 8.7 8.7 0 0 1-3.75.63c0-3.33 3.12-5.42 9.38-6.25 2.08 0 5.41-.63 10-1.88l-5.63-2.5c-2.92.42-5.42.84-7.5 1.25-1.67.42-2.92.84-3.75 1.25-.83 0-4.58 2.09-11.25 6.25-1.67.84-2.7 1.46-3.13 1.88l-.62-.63c0-4.16 6.87-7.91 20.63-11.25l-10-1.87c-12.09 6.25-19.59 11.25-22.5 15-5 6.25-8.13 9.38-9.38 9.37-.42 0-.63-.41-.63-1.25 0-2.08 2.3-5.41 6.88-10l10-8.75 10-5.62-4.38-1.25c-1.66.83-4.79 2.92-9.37 6.25-4.17 3.33-6.88 5-8.13 5-.41 0-.62-.2-.62-.63 0-2.08 2.08-4.37 6.25-6.87a9.76 9.76 0 0 0 2.5-1.88c.83-.83 2.08-1.66 3.75-2.5h-6.88l-5.62 3.75-.63-1.87 1.88-1.88-11.25-.62c-12.5 0-30.2 4.8-53.13 14.37a358.8 358.8 0 0 0-5.62 8.75 102.8 102.8 0 0 0-6.25 11.88l-1.25 8.12-1.25 2.5v.63c-1.25-.42-1.88-1.87-1.88-4.38 0-2.91 3.13-10.62 9.38-23.12-2.5 2.08-5 4.38-7.5 6.87-2.5 2.09-4.8 4.17-6.88 6.25-3.33 9.17-5 15.63-5 19.38 0 5 .84 8.96 2.5 11.87l4.38 11.25.63 1.88c0 .83-.42 1.25-1.25 1.25-1.25 0-2.5-1.87-3.75-5.63l-4.38-11.25c-.83-4.16-1.25-6.66-1.25-7.5 0-2.08 1.04-7.29 3.13-15.62a28.3 28.3 0 0 0-8.13 10v6.87l.63 3.75v.63c0 1.25-.21 2.08-.63 2.5-2.08 0-3.13-2.92-3.13-8.75l.63-1.25a18.65 18.65 0 0 0-5 9.37l.63 3.75 1.25 3.75.62 2.5-.63.63c-2.5 0-3.75-2.3-3.75-6.88l-2.5 6.88c.84 3.33 1.25 5.2 1.25 5.62 0 2.09-.41 3.13-1.25 3.13-.41 0-1.04-.42-1.87-1.25-2.92 9.17-4.38 15.83-4.38 20 0 2.92 1.25 6.88 3.75 11.87l.63-5.62 3.75 15 5.63 6.25c-3.76-11.67-5.63-20-5.63-25 0-6.67.83-10 2.5-10 2.08 0 3.54 1.25 4.38 3.75l5.62 15.62c1.67 5.42 5.42 8.13 11.25 8.13l1.88-.63 7.5-1.87-.63-3.13v-1.25c0-1.66.42-2.5 1.25-2.5l3.75 1.25c7.5 3.34 12.08 5 13.75 5h5.63c2.08 0 3.74-.2 5-.62-5-7.08-7.3-13.13-6.88-18.13v-5c.42-2.08.63-3.74.63-5v-4.37c0-2.5-1.46-6.46-4.38-11.88-.83-2.5-1.25-3.54-1.25-3.12 0-.42.63-.63 1.88-.63 1.66 0 4.16 1.05 7.5 3.13.41-2.08.62-3.54.62-4.38.42-1.25.63-2.08.63-2.5 0-1.25-.84-2.91-2.5-5-1.67-2.5-3.55-5.2-5.63-8.12a192.56 192.56 0 0 0-5-9.38 28.3 28.3 0 0 1-1.88-10c0-9.16 4.8-15.41 14.38-18.75-7.5 5.42-11.46 12.71-11.88 21.88 12.92-17.5 24.8-26.25 35.63-26.25 2.5 0 3.75.83 3.75 2.5 0 2.08-2.08 3.75-6.25 5s-8.13 4.58-11.88 10c-3.33 5.83-5 10.62-5 14.37 0 1.25 1.05 5.42 3.13 12.5 2.92-2.91 5-4.37 6.25-4.37a4.24 4.24 0 0 1 1.25 3.12l-.63 1.25v6.25c-.41.42-.62 1.25-.62 2.5v.63c0 3.75 1.87 7.7 5.63 11.87l10 12.5 5 9.38 8.75-8.75 11.25-9.38c2.91-2.5 4.37-6.45 4.37-11.87 0-1.67-.2-3.33-.63-5 0-2.08-.2-4.17-.62-6.25l-.63-2.5c0-.83.21-1.25.63-1.25.42.42.83.62 1.25.62.42 0 .83.21 1.25.63l4.38 3.75 5.62 3.12c2.08-3.33 3.12-5.2 3.13-5.62l.62-5.63v-6.25c-.42-16.66 8.96-25 28.13-25h5c2.5 0 4.37.21 5.62.63M311.86 431.06l-1.88 5 30 2.5 58.13 6.25c1.25.42 4.17.62 8.75.62 37.5 0 68.33-12.08 92.5-36.25 25.42-24.16 38.13-53.54 38.13-88.12 0-33.33-11.88-61.04-35.63-83.13-12.08-11.25-22.5-16.87-31.25-16.87-4.17 0-10.83 1.67-20 5 11.67.42 22.3 3.13 31.88 8.12a70.63 70.63 0 0 1 25 18.75c7.08 7.92 12.5 17.5 16.25 28.75 4.16 10.84 6.24 22.71 6.25 35.63 0 35.83-11.25 65-33.75 87.5s-51.88 33.75-88.13 33.75a292 292 0 0 1-30.63-1.88l-36.25-4.37a23.21 23.21 0 0 0-5.62-.63 49133.58 49133.58 0 0 1-14.38 0c-2.91 0-6.04-.2-9.37-.62m193.12-22.5a290 290 0 0 0 20-24.38c5.42-7.5 9.8-15 13.13-22.5a101.37 101.37 0 0 0 6.87-24.37c1.67-8.75 2.5-18.54 2.5-29.38 0-23.33-7.08-51.25-21.25-83.75l-8.13-4.37c15.42 38.33 23.13 68.75 23.13 91.25 0 37.08-12.08 69.58-36.25 97.5m-50.63 30.62c24.59-8.74 42.5-17.5 53.75-26.25 10.84-9.16 21.46-23.12 31.88-41.87 11.25-19.58 19.58-31.88 25-36.88 7.08-5.83 15.83-8.74 26.25-8.75 8.75 0 16.25 2.71 22.5 8.13 6.67 5 10 10.83 10 17.5 0 3.33-1.67 7.92-5 13.75l1.25 3.75c5-7.5 7.5-13.54 7.5-18.13 0-7.5-3.75-14.16-11.25-20-7.08-5.83-15.42-8.74-25-8.75-11.25 0-20.42 3.13-27.5 9.38-7.08 5.83-14.8 17.08-23.13 33.75-10 19.17-21.04 34.17-33.12 45-11.67 10.42-29.38 20.2-53.13 29.37m83.13-144.38-2.5-18.75c-7.08-15.41-14.17-27.29-21.25-35.62-3.75-4.58-9.38-10-16.88-16.25-7.5-6.67-17.08-14.17-28.75-22.5l-5.62-1.25c12.92 9.58 23.54 18.33 31.88 26.25 8.33 7.5 14.79 14.17 19.37 20 4.58 5.42 8.75 12.08 12.5 20 4.17 7.92 7.92 17.3 11.25 28.12m8.75 50 4.38-11.87 5.62-10.63 1.25-3.75c0-.83-.42-1.25-1.25-1.25-5 0-7.7 3.76-8.13 11.25 0 4.17-.62 9.59-1.87 16.25m.63 19.38c5.83-7.08 10.41-10.63 13.75-10.63 1.66 0 2.7.84 3.12 2.5 1.25-1.66 1.87-2.91 1.88-3.75 0-2.08-1.46-3.12-4.38-3.12-5.83 0-10.63 5-14.38 15m-20-49.38a79.4 79.4 0 0 0-3.12-22.5c-1.67-7.5-4.17-13.95-7.5-19.37-3.33-5.42-7.08-9.8-11.25-13.13s-8.54-5-13.13-5c-7.08 0-10.62 2.92-10.62 8.75 0 1.25 1.25 3.13 3.75 5.63 1.25-5 3.75-7.5 7.5-7.5 15 0 26.46 17.7 34.38 53.12M320.6 446.68l8.75 4.38c24.58 5.42 42.91 13.12 55 23.12 12.5 9.59 27.5 28.34 45 56.25 16.25 27.09 31.45 45.21 45.62 54.38 14.17 9.17 33.75 13.75 58.75 13.75 16.25 0 35.42-2.92 57.5-8.75 5-1.67 10.83-2.5 17.5-2.5 9.58 0 14.17 2.7 13.75 8.13v1.87c2.92-2.92 4.37-5.63 4.38-8.13 0-6.25-3.96-9.37-11.88-9.37-1.67 0-2.92-.42-3.75-1.25 0-.42 1.25-1.67 3.75-3.75-2.92-2.92-6.25-4.38-10-4.38-6.25 0-12.7 2.71-19.38 8.13-10.41 9.17-18.95 13.75-25.62 13.75-3.75 0-5.63-.63-5.63-1.88 0-.83.84-1.45 2.5-1.87 1.67-.42 5.21-1.04 10.63-1.88 11.67-1.66 17.5-8.33 17.5-20v-3.12c0-2.08-.2-3.75-.63-5l-5.62.63c-2.92-14.17-10.42-21.26-22.5-21.26-12.92 0-19.38 5.42-19.38 16.25 0 7.5 3.55 11.25 10.63 11.25 2.5 0 5.62-2.08 9.38-6.25l-3.75.63c-4.17 0-6.26-1.67-6.25-5 0-5.83 2.91-8.75 8.75-8.75 9.16 0 13.75 5.2 13.75 15.63 0 8.33-4.8 15.2-14.38 20.62-9.17 5.42-20.42 8.13-33.75 8.13-21.67 0-38.13-4.38-49.38-13.13-10-7.5-25.2-27.92-45.62-61.25-25.42-41.67-60.63-64.8-105.62-69.38m-52.5 25c-8.75 1.25-19.38 4.8-31.88 10.63 25 30 50.63 51.46 76.88 64.37 25.83 12.92 58.13 19.38 96.88 19.38h12.5c5.41-.42 11.66-.83 18.75-1.25a139.32 139.32 0 0 0-5-8.13l-5-8.75h-16.25c-30.84.84-56.05-3.95-75.63-14.37-18.75-10-42.5-30.63-71.25-61.88m174.38 95.63c-7.08.42-13.54.83-19.38 1.25h-13.75c-30.41 0-66.45-8.54-108.12-25.63 40.42 20 75.21 30 104.38 30 11.25 0 24.8-.62 40.63-1.87l-3.75-3.75m8.13-22.5c2.08 2.92 3.95 5.83 5.62 8.75 2.08 2.5 4.17 5.2 6.25 8.13 26.67-7.09 45.2-13.34 55.63-18.76a126.8 126.8 0 0 0 18.12-11.25c6.67-4.58 13.96-9.79 21.88-15.62l13.12-60.63c0-1.66-.83-3.95-2.5-6.87-13.75 32.92-27.7 55.2-41.88 66.87-13.75 11.25-39.16 21.05-76.25 29.38m121.25-95.63 1.25 6.25-.62 1.88-12.5 60.62a466.7 466.7 0 0 1-25.63 18.13 121.06 121.06 0 0 1-20 11.25 251.25 251.25 0 0 1-21.25 8.13c-7.5 2.5-17.08 5.2-28.75 8.12l3.75 4.38c25.42-7.09 42.92-12.92 52.5-17.5 5.84-2.92 12.5-6.67 20-11.26 7.5-5 15.84-11.04 25-18.12l11.88-64.38c0-2.91-1.88-5.41-5.63-7.5m-355.62-2.5a86.75 86.75 0 0 1 13.13-11.87 124 124 0 0 1 15.63-10c-8.34-30.83-12.5-53.54-12.5-68.13 0-51.25 16.66-92.91 50-125 34.58-32.08 78.75-48.12 132.5-48.12 35.41 0 66.04 6.67 91.87 20 25.83 12.92 44.17 30.83 55 53.75l10.63 22.5 3.75 5c1.25-4.17 1.87-7.5 1.87-10 0-1.67-.2-3.33-.63-5 0-1.67-.2-3.54-.62-5.63l-10-36.87c-1.25-5-1.67-13.96-1.25-26.88v-3.12c0-6.67-.83-10-2.5-10-1.25 0-2.08.62-2.5 1.87l-1.25 2.5c-1.67 2.92-4.8 4.38-9.38 4.38h-3.75c-1.66-.42-3.54-.83-5.62-1.25l-23.13-9.38c-33.33-12.91-66.66-19.37-100-19.37-53.33 0-96.45 10.42-129.38 31.25-32.5 20.42-58.54 53.54-78.12 99.37 14.17 7.5 21.25 16.25 21.25 26.25 0 5.84-1.67 11.67-5 17.5-1.25 2.09-2.3 3.13-3.13 3.13-1.25 0-2.91-1.04-5-3.13a22.18 22.18 0 0 1-10 2.5c-2.5 0-5.2-.62-8.12-1.87-.42 5.83-.83 11.04-1.25 15.62v10.63c0 24.58 5.83 51.04 17.5 79.37m31.25-23.12 3.13-1.88c-6.26-26.66-9.38-47.7-9.38-63.12 0-50 16.25-90.42 48.75-121.25 32.5-31.25 75.42-46.88 128.75-46.88 30.42 0 63.13 7.5 98.13 22.5-20.84-10.41-37.71-17.29-50.63-20.62a158 158 0 0 0-23.13-3.75 319.98 319.98 0 0 0-30-1.25c-52.91 0-95.83 15.62-128.75 46.87-32.5 30.84-48.75 71.46-48.75 121.88 0 17.09 3.96 39.59 11.88 67.5m25.63 48.75a760 760 0 0 0 8.12 10.63c3.33 3.75 7.08 7.5 11.25 11.25-3.33-4.17-6.46-8.12-9.38-11.88-2.5-3.74-4.79-7.29-6.87-10.62l-3.13.62M567.5 189.2l.63 4.38v13.12c.42 7.09 1.25 14.17 2.5 21.25a880.82 880.82 0 0 0 5.63 22.5c3.33 12.09 5 20 5 23.75 0 4.17-.84 7.92-2.5 11.25 2.5.84 3.54 1.25 3.12 1.25 2.5 0 3.75-2.7 3.75-8.12 0-8.75-3.33-25.83-10-51.25-2.5-10.42-3.54-18.54-3.13-24.38v-6.25c.42-2.91-1.25-5.41-5-7.5M455 301.07l1.88 7.5 2.5 6.25 1.88 10c-4.59-5.83-6.88-11.25-6.88-16.25 0-3.74.2-6.24.63-7.5m14.37-18.75c2.92 6.26 4.8 11.05 5.63 14.38 1.66 8.33 2.91 12.92 3.75 13.75 1.25 2.5 1.87 5.63 1.87 9.37 0-.41-.42-.62-1.25-.62-2.08 0-3.13-2.7-3.13-8.13 0-1.25-1.25-5.62-3.75-13.12-1.25-2.92-2.29-8.12-3.12-15.63m20 13.13c2.5 5.83 3.75 10.2 3.75 13.12 0 2.5-.63 5.84-1.88 10a50.08 50.08 0 0 1-1.87-14.37v-8.75m-91.25 58.75-9.38 6.87-11.25 5.63c-5.41 2.92-10 4.38-13.75 4.37-1.66 0-2.5-.62-2.5-1.87 0-2.08 5-4.17 15-6.25l5.63-1.88a688.2 688.2 0 0 1 16.25-6.87m-26.88-4.38c4.17-5 8.55-7.5 13.13-7.5h3.75l-5.63 2.5-4.37 1.88-6.88 3.12m-14.37 43.13v-2.5c0-2.92 2.08-5.62 6.25-8.13a24.85 24.85 0 0 1-6.25 10.63M532.5 594.83c6.67-.83 11.25-1.46 13.75-1.88 2.92-.83 3.54-1.25 1.88-1.25 1.66 0 2.7.84 3.12 2.5 0 1.25-2.08 1.67-6.25 1.25h-5.63c-2.5 0-4.79-.2-6.87-.62M600 479.21c.83 7.92 2.3 13.54 4.38 16.87 2.5 2.92 3.74 5.21 3.75 6.88 0 .42-.63.62-1.88.62-2.92 0-4.58-3.95-5-11.87 0-1.67-.2-3.33-.63-5 0-2.08-.2-4.58-.62-7.5m-20.63 88.75.63 3.75c.83 4.58-2.08 7.5-8.75 8.75 3.33-2.92 5.2-4.8 5.63-5.63.83-1.25 1.66-3.54 2.5-6.87m6.87-51.88c6.67 5.84 11.04 11.46 13.13 16.88-7.09-2.5-11.46-8.12-13.13-16.88m-275.62-60-9.38-1.87-8.75-2.5-8.12-1.88c-.83 0-1.67-.41-2.5-1.25 0-1.25.63-1.87 1.88-1.87l16.87 3.75 10 5.62m-53.13 5.63a22.2 22.2 0 0 1 10-2.5c11.25 0 16.88 1.25 16.88 3.75 0 .42-1.25.62-3.75.62h-2.5a19.4 19.4 0 0 0-4.38-1.25l-6.87-.62h-9.38m-17.5-17.5 5.63-6.25 6.25-3.75c2.92-1.67 4.8-2.92 5.63-3.75l1.87-.63c3.33 0 5 1.25 5 3.75 0 2.09-3.75 3.96-11.25 5.63a44.47 44.47 0 0 0-5.63 1.87c-2.08.42-4.58 1.46-7.5 3.13m-57.5 100c.42-10.42 3.13-19.38 8.13-26.88-1.25 11.67-3.96 20.63-8.13 26.88m48.13-390h5c.42 0 1.25.83 2.5 2.5a16.24 16.24 0 0 0 4.38 2.5c-.84.42-1.88.2-3.13-.63-.83-1.25-1.46-1.87-1.88-1.87-1.66 0-3.95-.83-6.87-2.5m73.75 137.5c2.08-2.08 3.54-3.12 4.38-3.13a5.6 5.6 0 0 0 3.12 3.75h-4.38c-1.66 0-2.7-.2-3.12-.62m13.75 10.62a38.25 38.25 0 0 0 3.75 6.88 79.61 79.61 0 0 1 6.25 8.75c-6.67-2.5-10-7.7-10-15.63m30.63 7.5c-11.67-7.5-17.5-15.2-17.5-23.12 0-1.25.62-1.87 1.87-1.88 1.25 0 2.92 2.5 5 7.5a18.7 18.7 0 0 1 1.88 2.5c.83 1.25 2.29 2.92 4.37 5 .42.84 1.04 2.3 1.88 4.38a74.95 74.95 0 0 1 2.5 5.62m5-25.62c2.5 3.33 3.74 5.83 3.75 7.5 0 2.92-1.05 7.5-3.13 13.75l-.63-9.38.63-6.25-.63-5.62m22.5-40-1.25-6.25.63-1.25c.83-.83 1.87-2.08 3.13-3.75 3.74-5 7.5-8.33 11.25-10-7.09 5.83-11.67 12.92-13.75 21.25m23.75 20v-11.88l1.87-7.5a7.85 7.85 0 0 0 1.88-3.12c.83-1.25 1.66-2.7 2.5-4.38h.62c1.25.84 1.87 1.67 1.88 2.5-.42 1.67-1.46 3.76-3.13 6.25a64.94 64.94 0 0 0-2.5 8.13 246.1 246.1 0 0 1-3.13 10m17.5-4.38a17.51 17.51 0 0 1 2.5 8.75c0 3.76-2.7 8.13-8.12 13.13.83-1.25 1.25-2.3 1.25-3.13l1.25-2.5 3.13-5.62.62-3.13c0-3.74-.2-6.24-.63-7.5M208.13 547.95c-1.66-5.41-2.5-9.16-2.5-11.25 0-5.83 3.34-11.87 10-18.12a52.49 52.49 0 0 0-7.5 20v9.37m-6.25-100c1.67 2.92 2.5 5.21 2.5 6.88 0 3.75-.62 6.46-1.87 8.12l-1.25-5 .63-5v-5" transform="translate(-146.86 -119.79)"/>
</svg>
