<svg xmlns="http://www.w3.org/2000/svg" viewBox="0 0 500 500">
    <path d="M146.86 619.79v-500h500v500h-500m7.5-7.5h485v-485h-485v485m7.5-7.5V135.41h469.38v469.38H161.86m80-464.38-11.88 1.87-25.62 10c-3.33 1.25-8.33 1.88-15 1.88-9.58 0-14.38-2.7-14.38-8.13 0-1.25 1.05-2.29 3.13-3.12 3.33-1.67 5.83-2.5 7.5-2.5a6 6 0 0 1 4.38 1.87 36.62 36.62 0 0 1 3.75 3.13h.62l1.25-1.25v-1.25c0-3.75-4.58-5.62-13.75-5.63-10.83 0-16.25 3.13-16.25 9.38 0 3.75 2.3 6.88 6.88 9.37 4.58 2.09 8.95 3.13 13.12 3.13h3.13l13.12-2.5 30-13.13 10-3.12m31.25-3.13-5 1.88-15 1.25c-10.42.83-24.17 7.3-41.25 19.37 2.08.42 3.75.84 5 1.25h3.75c2.08 0 3.33-.83 3.75-2.5l.63-1.87c.41-.42 2.5-1.04 6.25-1.88.83-.41 2.29-1.04 4.37-1.87 2.08-.83 4.8-2.08 8.13-3.75.83-.42 2.29-.83 4.37-1.25 2.5-.42 5.83-1.04 10-1.88l20.63-2.5 3.75-.62c17.5-.83 31.87 1.46 43.12 6.87l21.25 9.38 11.25-1.25-6.25-2.5c-8.33-4.17-15.42-7.3-21.25-9.38a236.16 236.16 0 0 0-13.13-4.37c-7.5-2.08-20.2-3.33-38.12-3.75l-6.25-.63m118.12 1.25-6.88 7.5-.62 9.38c0 2.92 1.46 4.38 4.38 4.37 2.91 0 4.79-.2 5.62-.62 1.25-10.83 6.46-16.25 15.63-16.25 1.66 0 2.91.42 3.75 1.25l1.25 1.25 2.5 1.87c.41.42.62 1.46.62 3.13v1.25c.42 4.17-1.88 6.04-6.88 5.62h-1.87c1.67 2.5 3.33 3.76 5 3.75 6.25 0 9.37-3.12 9.38-9.37 0-9.17-5-13.75-15-13.75-3.76 0-8.13 1.88-13.13 5.62v-5h-3.75m110.62 2.5-7.5 1.88c-.83.42-2.92 1.67-6.25 3.75l-15 7.5c-10.42 4.58-18.13 6.88-23.13 6.87-7.5 0-11.25-3.12-11.25-9.37 0-3.75 1.46-5.62 4.38-5.63 2.08 0 5.2 2.09 9.38 6.25a9.83 9.83 0 0 0 3.75-2.5l-3.13-2.5-1.88-4.37c-1.25-3.33-4.37-5-9.37-5-8.33 0-12.5 4.58-12.5 13.75 0 3.75 1.46 7.3 4.38 10.62a16.64 16.64 0 0 0 11.25 4.38c6.66 0 13.75-1.87 21.25-5.63l11.87-6.25 2.5-.62 11.25-8.13 4.38-1.87 5.62-3.13M368.1 157.91c-3.75-2.92-5.63-6.04-5.63-9.38 0-4.16 1.67-6.24 5-6.25 2.09 0 4.38 2.3 6.88 6.88l.63-3.75c-2.5-4.58-5.63-6.87-9.38-6.88-6.25 0-9.38 2.71-9.38 8.13 0 8.75 3.13 12.7 9.38 11.87l2.5-.62m218.12-3.75v-1.25l-8.75-5-21.25-6.88-1.88-1.87c.42 0-1.04.42-4.37 1.25h-1.88c-1.25 0-5.2-.63-11.87-1.88h-5.63c-10.41 0-23.12 3.76-38.12 11.25-9.58 5-15.83 10.21-18.75 15.63a101.34 101.34 0 0 0-4.38 7.5l-1.24 2.5 3.12 2.5c.83.42 1.46.83 1.88 1.25h.62c1.25 0 2.92-3.12 5-9.38 2.5-6.66 9.58-12.5 21.25-17.5 10.83-5.41 24.17-8.12 40-8.12 3.75 0 5.83.2 6.25.62l8.75 2.5h5l17.5 6.25 8.75.63m-1.25-6.25.63-.63v-1.25c-5.84-4.58-7.71-6.87-5.63-6.87-1.67 0-2.5.83-2.5 2.5 0 1.25 2.5 3.33 7.5 6.25m13.75.62-7.5-3.75c-.42.84-.63 3.13-.63 6.88 0 2.5 1.88 5.63 5.63 9.37 7.92 6.67 11.88 11.67 11.88 15 0 2.09-.63 3.13-1.88 3.13-1.67 0-3.33-3.33-5-10l-1.88-1.88a9.84 9.84 0 0 0-1.87-2.5c-6.67-4.58-13.13-7.29-19.38-8.12l.63 2.5c0 .83-1.67 1.25-5 1.25h-1.88c-7.91 0-11.87 2.7-11.87 8.12 0 6.67 2.7 10 8.13 10h3.75c-1.25-2.5-1.88-4.58-1.88-6.25 0-2.5 2.08-3.74 6.25-3.75 5.42 0 9.58 2.09 12.5 6.25 7.92 11.25 12.7 17.09 14.38 17.5l.62.63h1.88c9.16 0 13.95-4.58 14.37-13.75-.42-6.67-1.88-11.88-4.38-15.63l-3.75-5-1.87-7.5c1.25-5.41 3.33-8.12 6.25-8.12 2.5 0 4.8 1.67 6.88 5v-1.88c0-5-2.92-7.5-8.75-7.5-6.26 0-11.46 3.34-15.63 10m-316.25 11.25c-7.08-1.25-10.63-2.7-10.63-4.37 0-3.33 4.59-5.62 13.76-6.88h2.5c.83-.41 2.08-.83 3.75-1.25h-8.75c-14.59 0-21.88 2.71-21.88 8.13 0 4.58 4.37 6.88 13.13 6.87 2.5 0 5.2-.83 8.12-2.5m242.5 13.75c-4.58 5.84-8.54 8.76-11.88 8.75-5.83 0-8.75-3.54-8.75-10.62 0-10.83 10.63-18.75 31.88-23.75l-1.88-.63-1.87.63-12.5 1.25c-9.58 1.25-16.88 6.88-21.88 16.87a19.33 19.33 0 0 0-1.87 8.75c0 10 4.8 15 14.38 15 10.41 0 15.41-4.37 15-13.12l-.63-3.13m-219.38-17.5c2.92-1.66 5.2-2.5 6.88-2.5l5 .63h8.75l-7.5-1.88-5.63-1.25a16.3 16.3 0 0 0-5-.62h-1.87c-5.42 0-8.13 2.08-8.13 6.25 0 3.33 1.46 5 4.38 5l5.62-1.25-1.87-1.88-.63-2.5m239.38 4.38 20.63-6.88a26.99 26.99 0 0 0-5-.62c-1.25-.42-2.3-.63-3.13-.63-9.58 0-14.38 2.09-14.38 6.25l1.88 1.88m-12.5.62 3.13.63c3.33 0 5-1.46 5-4.38 0-2.08-1.46-3.12-4.38-3.12-.83 0-1.25.2-1.25.62l-2.5 6.25m-304.38 342.5c0 14.59-2.92 26.67-8.75 36.25-5.42 9.59-12.92 15-22.5 16.25l-13.75 1.88c-3.33.83-5 1.67-5 2.5 0 1.25 1.25 2.5 3.75 3.75s5.83 1.88 10 1.88l60.63-.63 109.38 3.75c27.91.42 50.2-1.46 66.87-5.63 8.75-2.08 18.13-5.2 28.13-9.37 10.41-4.58 21.66-9.8 33.75-15.63-5.84-7.5-9.8-16.66-11.88-27.5-34.17 25-70.2 37.09-108.12 36.25h-21.88l-15.62.63-41.25-2.5-10 .63c-11.25.83-16.88-6.25-16.88-21.25.42-1.25.63-3.13.63-5.63v-26.25l-.63-290c0-7.5.84-12.08 2.5-13.75 2.09-2.08 7.71-3.33 16.88-3.75l74.38-3.13 21.25.63c40.83 1.67 77.7 17.7 110.62 48.12l8.12 7.5a47.12 47.12 0 0 1 4.38 5 47.12 47.12 0 0 1 4.37 5c4.17 6.67 8.96 10 14.38 10 5.41 0 13.33-2.29 23.75-6.87 2.91-1.25 4.37-2.5 4.37-3.75l-.63-.63-11.87-15-17.5-18.75-5.63-3.75-9.37-8.12-17.5-10.63-10.63-5.62-10.62-6.25c-6.67-3.33-16.04-6.25-28.13-8.75-12.08-2.92-27.08-5.2-45-6.88h-70.62l-64.38 2.5-64.37-3.12h-8.12c-7.5.83-11.25 2.7-11.25 5.62 0 2.09 2.7 3.34 8.12 3.75 30 5.84 45 22.09 45 48.75l.63 282.5m314.38-331.88c.83-3.33 1.25-5.2 1.25-5.62 0-2.5-1.25-3.75-3.75-3.75s-3.76 1.25-3.75 3.75c0 2.5 2.08 4.38 6.25 5.62m13.12-1.87v-2.5c.42-3.75-.83-5.62-3.75-5.63-3.33 0-5 1.67-5 5 0 2.5 1.46 3.76 4.38 3.75 2.5 0 3.95-.2 4.37-.62m-381.25 1.87c1.67 4.59 3.96 7.3 6.88 8.13l20.62 6.25c.83.42 2.3 1.46 4.38 3.12 2.5 1.25 5.83 3.55 10 6.88l1.25 1.25c.83.42 2.08 1.25 3.75 2.5-6.26-11.67-16.67-19.38-31.25-23.13-2.92-.83-5.63-1.66-8.13-2.5l-7.5-2.5m358.12-.62-.63 5.62v4.38c-.83 10.83 4.59 18.54 16.25 23.12l-1.25 2.5a16.3 16.3 0 0 0-5-.62c-3.33 0-7.08 1.25-11.25 3.75 3.34 5 6.05 7.92 8.13 8.75l12.5 7.5c3.33 2.08 5 6.04 5 11.87 0 10.84-4.38 20.21-13.13 28.13 13.34-2.5 20.21-14.58 20.63-36.25h1.88v5.62c.41 3.76-1.67 11.05-6.25 21.88h1.25a43.1 43.1 0 0 0 10.62-28.75c0-2.92-.42-6.04-1.25-9.38-3.33-5.83-5-9.16-5-10 0-.41.2-.62.63-.62 5 0 7.5 6.88 7.5 20.62 0 6.67-1.46 13.13-4.38 19.38 7.5-7.08 11.04-13.96 10.63-20.63v-.62l-1.25-12.5 1.87.62.63 3.75v1.25l1.25 6.88 1.25-6.25 1.25-5.63c.41-2.91.62-5.2.62-6.87.42-1.67.63-2.7.63-3.13v-1.87l-1.88-10-.63-10c-6.66 0-10.62 2.5-11.87 7.5h-.63c-2.08 0-3.33-.83-3.75-2.5a21.85 21.85 0 0 0-13.12-8.75l-11.88-1.88-2.5-1.87c-1.25-1.25-3.54-2.92-6.87-5m-231.25 15-12.5 1.25-16.25 1.25c-2.92 0-5 3.54-6.25 10.62l.63 18.13-.63 24.37.63 8.75v40l.62 11.25-.63 225.63c.84 9.58 4.17 15 10 16.25l-2.5-5-2.5-345 95.63-4.38c20.83-.42 44.58 4.17 71.25 13.75 22.92 9.58 40.83 21.46 53.75 35.62 7.92 9.17 12.7 14.17 14.38 15 .41.42 1.87 1.25 4.37 2.5-21.25-26.66-43.54-45.41-66.88-56.25-22.91-11.25-52.29-16.45-88.12-15.62h-11.25l-43.75 1.87m-114.38 155c.42 2.09.63 3.76.63 5 .41 1.25.62 2.09.62 2.5 0 2.92-1.04 6.05-3.12 9.38-2.09 3.33-4.59 5-7.5 5-4.59 0-6.67-1.46-6.25-4.38v-.62l.62-1.25 7.5-11.25c.42-.42.63-1.67.63-3.75 0-5.42-1.67-8.12-5-8.13-2.92 0-5.84 1.25-8.75 3.75.41-.41 1.45-.62 3.12-.62 2.08 0 3.12 1.25 3.13 3.75v1.88l-5.63 13.75c0 8.75 4.58 13.12 13.75 13.12 1.25 0 2.08-.2 2.5-.63l8.13-4.37.62-1.25 5-6.88.63-8.12 7.5.63v-6.88c0-5-1.25-11.25-3.75-18.75-.84-2.92-1.67-4.8-2.5-5.63l-8.13-8.12.63-2.5 6.25-.63v-8.75c-1.25-8.74-3.34-14.58-6.25-17.5l-11.88-16.25c-1.67-1.66-2.5-4.16-2.5-7.5 0-1.66.42-2.5 1.25-2.5 2.08 0 3.54 2.5 4.38 7.5.41 1.25.62 2.3.62 3.13l.63.63 10.62 13.12 5.63 11.88 4.37 1.87 8.13 1.88 6.25 3.12c.41-1.25.62-3.33.62-6.25 0-3.75-3.54-7.92-10.62-12.5 10.41-3.75 15.62-11.46 15.62-23.13 0-6.24-3.13-11.04-9.37-14.37l-14.38-8.13c-2.08-1.25-3.13-3.54-3.12-6.87 0-7.92 3.74-11.88 11.25-11.88 3.33 0 5.41.21 6.25.63-2.92-2.92-5.84-4.37-8.75-4.38-10.42 0-15.63 5.42-15.63 16.25 0 8.76 1.67 14.38 5 16.88l15 9.37c3.33 2.09 5 4.59 5 7.5 0 1.67-.62 3.34-1.87 5-1.67.42-3.13.84-4.38 1.25h-2.5c-4.58 0-8.96-2.91-13.12-8.75a45.77 45.77 0 0 1-6.88-20c-.42-1.25-.62-3.12-.62-5.62v-6.25c0-10 1.25-17.3 3.75-21.88 4.58-8.33 6.87-13.12 6.87-14.37s-.62-1.87-1.87-1.88h-3.13l-3.75-.62-6.87 11.25-8.13 20.62a43.26 43.26 0 0 0-1.25 5 98.23 98.23 0 0 1-1.87 7.5c-1.25 11.25-1.88 18.96-1.88 23.13v12.5c0 1.67.2 3.96.63 6.88.41 1.25.62 2.91.62 5v2.5l13.75 40.62c1.25 3.75 2.5 10.2 3.75 19.38m13.75-151.25c-1.67 2.91-2.5 5.62-2.5 8.12 0 5.42 2.08 7.92 6.25 7.5l4.38-.63c-5-2.08-7.09-5.41-6.25-10v-3.75l-1.88-1.25m413.75 5-10.63 2.5-.62.63c0 4.17 2.92 6.25 8.75 6.25 8.33 0 12.5-3.12 12.5-9.38 0-2.5-1.04-3.74-3.13-3.75h-.62l-6.25 3.75m-257.5 15.63c.83-5.83 2.7-8.75 5.63-8.75h7.5l5.62-3.75c-3.75-2.5-7.08-3.75-10-3.75-8.75 0-13.12 3.33-13.12 10 0 1.67 1.45 3.75 4.37 6.25m41.88 72.5c4.16-4.17 6.66-7.08 7.5-8.75.83-2.08 1.25-6.25 1.25-12.5v-2.5l-.63-9.38v-6.87l-1.25-8.13a306.35 306.35 0 0 0-3.75-19.37l-5-11.88-3.12-6.87-5.63-1.88h-3.75l6.25 11.88 4.38 11.25 2.5 8.75c1.66 5 2.5 14.17 2.5 27.5 0 3.33-.63 7.92-1.88 13.75-.83 5.42-1.25 9.58-1.25 12.5 0 .42.63 1.25 1.88 2.5m-119.38-85 .62 6.87.63 5c0 2.5.83 5.21 2.5 8.13l6.25 14.37c0 .84 1.04 2.3 3.12 4.38 2.5 1.67 3.75 2.92 3.75 3.75-.42.42-.62.83-.62 1.25 0 .42-.21.83-.63 1.25l-7.5-1.88c.83 7.09 2.08 11.88 3.75 14.38l8.75 12.5c6.25 8.33 9.37 17.3 9.38 26.88 0 12.91-3.13 21.87-9.38 26.87l-5 4.38-7.5 6.25a9.27 9.27 0 0 1-4.37 2.5c-4.59 2.08-6.88 3.75-6.88 5 0 1.66 1.04 2.5 3.13 2.5 10.41 0 21.04-8.55 31.87-25.63l1.25 3.13-5.62 7.5-5 5-6.88 6.25-4.37 1.25h8.12c1.25 0 3.33-.84 6.25-2.5 12.5-9.17 20.63-22.09 24.38-38.75.83-4.17 1.45-7.5 1.87-10 .42-2.92.63-5 .63-6.25l-.63-1.88v-2.5l-1.87-11.88c.41-1.25.83-1.87 1.25-1.87l1.87 2.5v4.38l1.25 13.12v3.13c.42 16.25-8.54 33.33-26.87 51.25 6.24-1.67 10-2.92 11.25-3.75 1.66-1.25 3.95-3.96 6.87-8.13l3.13-3.75a32.8 32.8 0 0 1 3.12-5 43.72 43.72 0 0 0 3.13-6.25h1.25c-2.5 7.08-6.88 13.96-13.13 20.63 20.42-5.42 35.42-30.84 45-76.25l2.5-1.25c-2.5 19.58-10.2 38.95-23.12 58.12l-10 13.13 4.37-3.13a70.96 70.96 0 0 0 25-31.25l1.88.63-3.75 8.12c7.08-8.33 13.75-22.5 20-42.5a27.5 27.5 0 0 0 2.5-11.25c0-3.33-.21-5.62-.63-6.88-1.25 2.09-2.3 3.13-3.12 3.13l-1.88-.63c.42-1.25.83-4.16 1.25-8.75.42-4.58.83-6.87 1.25-6.87l-3.12-26.88-1.88-.62-.62 1.87c-9.17 4.59-14.59 11.67-16.25 21.25h-1.88c-1.25 0-2.7-1.25-4.37-3.75-3.34 7.09-4.8 11.05-4.38 11.88v2.5c1.25 5 1.87 10 1.88 15 0 9.17-1.05 13.75-3.13 13.75-1.67 0-2.5-.63-2.5-1.88l.63-1.25c.41-2.08.62-4.16.62-6.25.42-2.08.63-4.16.63-6.25 0-13.75-1.67-25.2-5-34.37-3.34-9.58-7.3-14.38-11.88-14.38-2.08 0-3.13.84-3.12 2.5l-.63 4.38c-.42 1.67-1.04 2.5-1.87 2.5a9.75 9.75 0 0 1-2.5-1.88 14.59 14.59 0 0 0-3.75-2.5c-.84-.83-2.71-1.66-5.63-2.5l-8.12-2.5c-3.34-.83-5.63-1.04-6.88-.62h-6.87l-13.75 1.25m119.38-1.88 10 31.88c1.25-4.58 1.66-7.08 1.25-7.5v-5.63l-.63-5-2.5-6.25-1.25-5.62-6.87-1.88m-14.38 9.38.63 6.25 5 13.75c.83 2.5 1.66 5.83 2.5 10 .83 4.17 1.66 9.17 2.5 15v5c0 5.42-.42 9.58-1.25 12.5-.42 2.5-.63 4.17-.63 5 0 1.25.83 2.7 2.5 4.38 1.67-5.42 2.5-12.3 2.5-20.63 0-21.25-4.58-38.33-13.75-51.25m230 2.5 1.25 6.87.63 15-.63 11.25a59.5 59.5 0 0 1-2.5 8.75l-.63 2.5c0 1.25 1.88 2.71 5.63 4.38l1.88-6.25 1.25-3.75c.41-1.67.83-4.37 1.25-8.13.41-3.74.83-8.54 1.25-14.37v-4.38c0-1.66-.21-3.12-.63-4.37l-.63-5 .63-2.5c0-1.67-.83-2.5-2.5-2.5l-1.25.62-5 1.88m-204.38 51.87-1.25 15.63 3.75-1.25 1.25-6.88 1.25-13.75c2.5-21.25 8.96-31.87 19.38-31.87 6.66 0 11.04 3.54 13.12 10.62h2.5c1.25-2.91 1.87-5.41 1.88-7.5 0-6.66-4.8-9.58-14.38-8.75h-1.87v-3.75c-.42-.41-1.05-.62-1.88-.62h-1.25l-10 3.12c-6.67 4.17-10.62 16.67-11.87 37.5l-.63 7.5m54.38 2.5c-3.34-2.08-6.67-3.12-10-3.12l-.63-1.88c-7.92 1.67-11.87 4.38-11.87 8.13 0 1.67.62 2.7 1.87 3.13h1.88l4.37-6.25c.83-.84 2.08-1.25 3.75-1.25 5.83 0 8.54 2.5 8.13 7.5v2.5l-1.88 3.75a56.47 56.47 0 0 1-4.37 6.87c-2.5 3.33-3.76 6.46-3.75 9.38 0 2.5.62 4.37 1.87 5.62l8.13 8.75-1.25 6.25 6.25-.63c17.91-.41 26.87-7.29 26.87-20.62 0-9.17-2.08-17.08-6.25-23.75l-18.12-29.38-6.88-16.87c-.42-1.67-1.25-2.5-2.5-2.5l-.62.62c0 1.67.2 2.92.62 3.75.83 5.84 2.3 10.42 4.38 13.75l14.37 25.63c3.75 7.08 5.62 13.33 5.63 18.75 0 11.67-5 17.5-15 17.5-7.5 0-11.25-2.92-11.25-8.75l.62-1.25 7.5-17.5v-3.13c0-1.25-.62-2.91-1.87-5m125-23.12c.41-7.92 3.12-11.88 8.12-11.88 6.67 0 10 4.59 10 13.75v5c0 2.09-.2 3.76-.63 5l1.88.63c2.5-5 3.75-9.37 3.75-13.13 0-12.5-5.2-18.75-15.63-18.75-8.33 0-12.5 5.21-12.5 15.63 0 3.33 1.25 4.58 3.75 3.75h1.25m-121.88-16.88c10.42 31.25 31.05 46.88 61.88 46.88 8.75 0 16.04-5.62 21.88-16.88-8.76 6.26-17.92 9.38-27.5 9.38-8.34 0-16.88-2.5-25.63-7.5s-14.8-11.04-18.12-18.13c-2.09-4.16-3.55-6.66-4.38-7.5-.83-.83-3.54-2.91-8.12-6.25M436.2 257.9c.41 1.67 1.25 2.5 2.5 2.5 4.16 0 6.24-1.46 6.25-4.38 0-.83-.21-1.45-.63-1.87l-3.12-.63-5 4.38m153.12 25 4.37-4.38 1.88-10c1.25-6.66 4.58-10 10-10 10.83 0 16.25 13.13 16.25 39.38 0 .83-.21 2.3-.63 4.38 0 2.08-.2 4.58-.63 7.5l-.62 5.62c0 .42-.42 1.46-1.25 3.13a74 74 0 0 0-2.5 5.62l-2.5 5-.63 2.5c0-.42.42 1.46 1.25 5.63 7.92-11.67 11.88-25.42 11.88-41.25 0-27.5-7.3-41.25-21.88-41.25-3.33 0-6.66 2.29-10 6.87-3.33 4.17-5 8.54-5 13.13l-.62 1.87c0 2.92.2 5 .63 6.25m-311.25-20c-1.67.42-2.5 1.88-2.5 4.38 0 3.75 1.66 5.62 5 5.62 3.33 0 5-1.67 5-5s-2.3-5-6.88-5h-.62m309.38 70 .62 4.38.63 4.37c2.91-.42 4.37-1.25 4.37-2.5 0-.42-.83-4.17-2.5-11.25a189.8 189.8 0 0 0-7.5-23.75c-2.92-8.75-7.08-18.13-12.5-28.13l-3.13-6.87-3.75-6.25-1.87-1.25 5.63 12.5c10.83 22.5 17.5 42.08 20 58.75m-27.5-70c-10.42 6.67-21.05 10-31.88 10h-3.75l3.13 6.25 4.37 8.75 5.63 10.63c.41.83.83 2.29 1.25 4.37.41 1.67 1.04 3.96 1.87 6.88.42.83.83 2.29 1.25 4.37a38.83 38.83 0 0 1 2.5 7.5c.42 2.5 1.04 5.2 1.88 8.13.83 2.5 1.66 5.2 2.5 8.12 1.66 1.25 4.37 1.88 8.12 1.88 2.08 0 6.04.41 11.88 1.25 5.83.41 10.41.62 13.75.62h5c-4.17-26.25-13.34-52.5-27.5-78.75m46.87.63a279.51 279.51 0 0 1-5.63 9.37l-6.25 10-6.25 5-1.25 1.88-3.12 2.5.63 4.37c0 2.08.83 2.92 2.5 2.5l.62-.63 3.13-3.75 3.75-1.87 3.75-6.25 4.37-3.75 4.38-6.88a28.25 28.25 0 0 0 2.5-3.75 18.55 18.55 0 0 1 1.87-2.5v-1.25c0-1.25-1.67-2.91-5-5m-152.5 9.38c0-1.25.2-2.08.63-2.5 0-2.5-1.46-3.75-4.38-3.75s-4.38 1.46-4.37 4.38c0 2.91 1.25 4.37 3.75 4.37 1.25 0 2.7-.83 4.37-2.5m-18.12-.63-.63 5c3.33 0 5.2-1.45 5.63-4.37l-3.13-5.63h-3.12l1.25 5m-148.75 0c-1.67.42-2.5 1.25-2.5 2.5l.62 3.13h2.5c10.83-.83 16.25 5.83 16.25 20 0 3.75-.83 7.3-2.5 10.63h2.5l1.25-6.25c.42-1.25.63-2.71.63-4.38v-3.75c0-15-5.63-22.5-16.88-22.5l-1.87.63m133.75 8.75c-2.09-2.09-3.55-3.13-4.38-3.13-10 0-17.5 6.46-22.5 19.38l-.62-3.75 1.87-8.13-3.12-5-3.13.63-1.25-4.38-3.75-3.13V301.65c-.83 2.08 1.04 3.96 5.63 5.63.83.41 2.7.62 5.62.62 1.67 0 4.17-1.25 7.5-3.75l1.88-1.88.62-.62 5.63-12.5c.41-.42.83-1.04 1.25-1.88.83-.83 2.08-1.66 3.75-2.5l5-3.75m-143.12-6.25c-2.09 3.34-3.13 5.21-3.13 5.63 0 2.92 1.25 4.38 3.75 4.38 2.92 0 4.37-1.46 4.38-4.38 0-1.67-1.67-3.54-5-5.63m226.88 1.25v1.88c-3.34 2.5-5 4.58-5 6.25s.83 2.7 2.5 3.13c1.66-4.17 3.54-6.25 5.62-6.25 6.67 0 10 3.95 10 11.87 0 7.08-3.13 12.5-9.38 16.25-5.83 3.75-17.08 7.08-33.74 10l-8.75 2.5c-2.5.83-5.21 1.67-8.13 2.5l10-.63 27.5-2.5c17.92-2.08 28.33-7.29 31.25-15.62l1.88-5c.41-1.67.62-2.92.62-3.75l.63-1.25c0-.42-.42-.63-1.25-.63-2.5 0-4.17.21-5 .63V287.27c.41-8.74-4.17-13.12-13.75-13.12l-5 1.88m-217.5 4.37-1.25 1.25a7.25 7.25 0 0 0-1.25 1.88l-.63 1.25c0 2.91 1.46 4.37 4.38 4.37 2.91 0 4.37-1.46 4.37-4.38 0-2.91-1.67-4.37-5-4.37h-.62m-3.13 23.13c-2.08-2.09-3.54-3.13-4.37-3.13-1.67 0-2.71.63-3.13 1.88l-.62 2.5.62 3.75-.62 6.87.62 6.88 6.25-5h2.5l-3.12 3.75-5.63 4.37v3.75l5.63-2.5-3.13 3.13-2.5 2.5-.62 1.87v2.5c6.66-2.92 10.83-5.62 12.5-8.13l2.5-3.12 7.5-8.13 1.87-4.37-2.5-.63c2.08-6.24 3.12-11.25 3.13-15 0-2.08-.21-3.33-.63-3.75l-.62-.62-2.5-1.88-13.13 12.5m-83.12-5c0 3.76 3.95 6.88 11.87 9.38l5 1.25c2.92 0 4.37-1.67 4.38-5 0 .42-.42-1.04-1.25-4.38-.42 2.92-2.3 4.38-5.63 4.38-4.17 0-8.96-1.87-14.37-5.63m393.75-1.87c-1.67 1.67-2.5 2.92-2.5 3.75 0 6.25.83 9.38 2.5 9.38l5.62 13.75 5.63 13.12 6.87 20.63c.83.83 1.46 1.25 1.88 1.25 2.08 0 3.12-.84 3.12-2.5v-.63l-20-51.25-.63-2.5-2.5-5m-149.38.63-3.12 2.5-3.75 7.5-2.5 1.87-5.62 6.25-35 18.13c-7.09 3.75-10.63 7.91-10.63 12.5 0 2.5 1.46 3.54 4.38 3.12h.62v1.88c-15 5.41-30 15-45 28.75-15 13.33-24.37 26.04-28.12 38.12l-6.25 17.5c-2.5 8.33-3.76 12.92-3.75 13.75l-.63 4.38 2.5 16.25c2.5-15 6.46-28.75 11.88-41.25 5.41-12.92 11.66-23.96 18.75-33.13 7.5-9.58 15.62-16.88 24.37-21.88a66.9 66.9 0 0 1 28.75-9.37l-.62 4.38c0 5 3.95 7.7 11.87 8.12h17.5c5 0 10.42 1.67 16.25 5 6.25 3.33 9.37 7.3 9.38 11.88 0 5.41-2.71 8.12-8.13 8.12-1.67 0-3.54-1.67-5.62-5h-1.88v3.13c-.83 5 2.5 7.5 10 7.5 11.67 0 17.5-5.84 17.5-17.5 0-7.92-4.38-14.38-13.12-19.38a28.85 28.85 0 0 0 15-5.63c-10.84-7.08-22.92-10.62-36.25-10.62-2.5 0-5 .2-7.5.63-2.5 0-5 .2-7.5.62-.42 0-1.46.2-3.13.63-1.67 0-4.17.2-7.5.62-.42.42-1.46.63-3.12.63-1.25 0-2.3.2-3.13.62l-.62-1.88c30.41-4.16 48.75-15 55-32.5l-3.75-1.25-6.88 3.13 5.63-5.63c4.16-4.16 6.24-9.37 6.25-15.62 0-2.92-.84-5.2-2.5-6.88M201.2 305.4c-.84 3.33-1.25 4.8-1.25 4.38 0 4.58 7.7 11.25 23.12 20v-7.5l-11.87-6.88c-.84-.42-2.09-1.46-3.75-3.13a71.5 71.5 0 0 0-6.25-6.87m178.12 6.88c1.66 5.41 5.2 8.12 10.62 8.12h1.25c2.92-1.67 4.37-3.54 4.38-5.63v-2.5l-7.5-1.87-5.63-2.5-.62-.63c-1.67 0-2.5 1.46-2.5 4.38v.63m160 5a121.08 121.08 0 0 1-16.25 5c-5 .83-10 1.45-15 1.87l-22.5 1.25-22.5 1.25c-8.76.83-13.75 1.88-15 3.13-.84.83-1.67 2.29-2.5 4.37l70.62-5 25-5.63-1.88-6.25M300.58 449.15h2.5c.84 0 1.67-1.87 2.5-5.62 1.67-14.58 7.3-27.92 16.88-40l14.38-19.38c3.33-4.16 5.62-7.29 6.87-9.37l2.5-3.13 28.13-27.5a55.57 55.57 0 0 0 5.62-6.87c2.08-3.33 4.58-7.7 7.5-13.13-2.92-1.66-5.42-2.5-7.5-2.5l-4.37 9.38-5 6.25-6.25 10-30.63 31.25-3.75 8.13-.62.62-2.5 1.88-4.38 6.87-10 14.38c-1.67 2.08-3.33 5.83-5 11.24a412.22 412.22 0 0 0-5.62 20.63c0 .83-.21 1.88-.63 3.13 0 .83-.2 2.08-.62 3.74M206.2 322.9c2.08 5 5 8.55 8.75 10.63l3.75 2.5 5 2.5v-2.5c0 1.25-4.17-1.67-12.5-8.75l-1.87-1.88a20.52 20.52 0 0 0-3.13-2.5m125 10.63c0 5.42 2.3 8.54 6.88 9.38-.42-.84-.63-2.5-.63-5 0-3.34 1.87-5 5.63-5 5.83 0 8.74 3.33 8.75 10 0 3.75-.84 6.45-2.5 8.12l-10 13.75-1.25 5 5-5c12.5-12.92 18.75-23.33 18.75-31.25v-1.88l-3.13-6.87-5 2.5-5-3.13-17.5 9.38m-124.38-1.25 1.25 10.63 5.63 10c3.33 5.83 5 14.58 5 26.24 0 9.59-2.71 17.5-8.13 23.75-5 6.26-11.46 9.38-19.37 9.38-11.25 0-16.88-5-16.88-15 0-7.08 3.33-10.63 10-10.63 2.92 0 4.8 1.05 5.63 3.13l5 8.13 4.37 1.24-1.25-3.75.63-5c0-3.33-1.67-6.04-5-8.12-3.34-2.5-6.67-3.75-10-3.75-10.84 0-16.25 6.04-16.25 18.13 0 5.83 2.08 12.08 6.25 18.74l-1.25 1.25c-.42 0-1.05.42-1.88 1.25.42.42.63.84.63 1.25l1.25 1.25h-1.25v1.25l8.12.63c1.25.42 4.17.63 8.75.63h6.88c2.08 0 3.74-.21 5-.63 14.58-9.58 22.7-24.17 24.37-43.75-.83-18.75-6.67-34.17-17.5-46.25m277.5 1.88 7.5.62 21.25 3.75 21.25 3.13 31.88 7.5 14.37.62 8.75-.63c10.83-.83 16.25-2.7 16.25-5.62 0-1.67-.83-2.5-2.5-2.5l-7.5 3.13c-1.67.41-4.58 1.04-8.75 1.87h-1.88l-6.25-.63-10.62-.62-17.5-2.5-13.13-3.75-8.12-1.25-10.63-2.5-9.37-1.25-4.37-1.25-7.5.63-13.13 1.24m-31.25 2.5c-2.08.42-4.38.84-6.87 1.25a98.23 98.23 0 0 0-7.5 1.88l-5 5-4.38 2.5 6.88-1.25 26.87-3.75c1.25-.42 2.7-.63 4.38-.63h3.75c30.41 0 55.41 6.05 75 18.13v-2.5c.83-4.58-2.09-8.12-8.75-10.63a93.49 93.49 0 0 0-9.38-1.87c-2.5-.83-4.8-1.67-6.88-2.5l-8.75-2.5c-2.08-.42-5.2-.83-9.37-1.25a178.2 178.2 0 0 0-15.62-2.5c-1.25-.42-3.34-.63-6.25-.63H471.82c-2.5 0-4.8.21-6.87.63l-11.88.63M301.19 370.4c-1.25 2.09-1.88 3.34-1.87 3.75 0 1.67 1.25 3.34 3.75 5a24.44 24.44 0 0 0 14.37 4.38c4.58 0 8.75-1.87 12.5-5.63 3.75-3.74 5.62-7.91 5.63-12.5 0-5.83-3.34-11.04-10-15.62a31.1 31.1 0 0 0-22.5-6.25h-1.25l-10.63.63-14.37.62c-.42.42-.63 1.04-.63 1.88 0 2.08.83 3.12 2.5 3.12l18.75-1.25c6.67-.42 12.5 1.25 17.5 5 5.42 3.33 8.12 7.3 8.13 11.88 0 6.66-4.38 10-13.13 10-3.33 0-6.25-1.67-8.75-5m130.62-19.38c1.25.42 2.92.63 5 .63h2.5l6.25-.63c4.17-.42 8.96-.63 14.38-.63l5-.62c9.16-.42 17.29 1.88 24.37 6.88 7.5 4.58 11.25 10 11.25 16.24 0 10.42-4.8 15.63-14.37 15.63-5.84 0-8.76-2.3-8.75-6.88l.62-1.25v-1.25l5.63-6.87c.41-.42.62-1.46.62-3.13 0-3.74-2.08-6.24-6.25-7.5l1.25-1.25-1.87 4.38 1.25 6.25-3.75 8.75 1.87 5.63c1.67 5.41 6.25 8.12 13.75 8.12 2.08 0 6.67-1.04 13.75-3.13.42-.41.63-1.25.63-2.5 3.74-5 5.62-9.16 5.62-12.5-.83-20-15-30-42.5-30-11.25 0-18.33.63-21.25 1.88l-8.12 1.88-6.88 1.87m68.75-1.88c2.5 2.09 5 4.38 7.5 6.88a123.1 123.1 0 0 1 9.38 7.5c1.25 1.25 2.29 1.88 3.12 1.88 2.08 0 3.12-.84 3.13-2.5 0-6.25-7.71-10.84-23.13-13.76m36.88 84.38c13.75 5.83 22.29 15.42 25.62 28.75l.63 1.25c13.33-22.5 21.45-50.83 24.37-85v-2.5c0-1.67.2-3.12.63-4.38l-.63-18.12h-16.87l-21.88-3.13v35.63c0 4.17-.62 8.96-1.87 14.38l-3.13 11.87a55.39 55.39 0 0 1-2.5 8.13c-.83 3.33-2.3 7.7-4.37 13.12m53.75-80.63-1.25 29.38c-.84 10-2.71 21.25-5.63 33.75-5.83 22.5-11.04 36.88-15.62 43.13-2.92 2.91-4.38 5.62-4.38 8.12 0-.42.42 1.46 1.25 5.63a28.3 28.3 0 0 0 2.5-3.76l1.25-1.25c.42-.41 3.12-6.04 8.13-16.87l5.62-10.63c5.42-11.66 9.17-29.79 11.25-54.37l.63-20.63-.63-12.5h-3.12m-62.5 4.38c-2.09.83-3.13 1.88-3.13 3.13 0 3.33 1.67 5 5 5 2.92 0 4.37-1.26 4.38-3.76l-.63-1.25c0-.83-.2-1.25-.62-1.25l-5-1.87m69.37 15.63c2.08 8.33 5.83 12.5 11.25 12.5 2.5 0 3.75-.84 3.75-2.5 0-.84-.42-1.67-1.25-2.5l-5-.63-1.87-1.88c-1.67-2.91-2.5-5.2-2.5-6.87 0-1.25.41-2.3 1.25-3.13l5-6.87h-2.5c-5 0-7.71 3.96-8.13 11.88m8.13 1.87 3.12 2.5c1.67-7.5 4.58-11.25 8.75-11.25 3.75 0 5.42 3.13 5 9.38l-.62 6.24c2.5-5 3.74-8.54 3.75-10.62 0-6.67-2.92-10-8.75-10-4.17 0-7.71 2.7-10.63 8.13-.42.41-.62 1.87-.62 4.37v1.25m-92.5-8.13c-.42.84-.63 2.3-.63 4.38 0 2.92 1.25 4.38 3.75 4.38s3.75-1.46 3.75-4.38c0-1.67-2.3-3.12-6.87-4.38m14.37 1.25c-2.92 0-4.38 1.25-4.37 3.75 0 3.76 1.66 5.63 5 5.63 3.33 0 5-1.67 5-5 0-2.92-1.88-4.37-5.63-4.38m89.38 49.38c.41-1.67 1.04-5.2 1.87-10.63.42-2.08.63-3.95.63-5.62.41-1.67.62-3.12.62-4.38v-9.37l-1.25-15c0-2.08-.62-3.12-1.87-3.13h-.63c-.83.84-1.25 1.46-1.25 1.88l-1.25 3.75 1.88 23.13-1.25 15 2.5 4.37m-76.25-40c-12.09 13.33-23.96 20.63-35.63 21.88l-21.87 2.5-6.25 1.24-8.13 1.25 5.63.63-14.38 1.25c-1.67.42-3.96 1.04-6.87 1.88-2.5.41-5.84 1.45-10 3.12l-2.5 1.25c-.84 0-1.88.42-3.13 1.25 9.17-1.25 16.46-1.87 21.88-1.88 3.33 0 6.87.42 10.62 1.25 4.17.42 8.96 1.05 14.38 1.88v1.88a312 312 0 0 0-15.63-1.88 67.81 67.81 0 0 0-11.87-1.25c-15.84 0-29.17 3.54-40 10.63 2.5-.84 4.79-1.46 6.87-1.88l6.25-1.25 10.63-1.88.62.63 1.25 1.25-10 .63c-12.92.83-22.3 5.62-28.12 14.37 15.41-5.83 28.54-8.75 39.37-8.75 19.17 0 37.92 7.5 56.25 22.5 3.75 3.33 6.04 6.04 6.88 8.13l3.12 5.62c2.08 3.33 3.12 5.42 3.13 6.25 0 .83-.63 1.25-1.88 1.25s-2.5-2.5-3.75-7.5c-.83-1.67-3.33-4.8-7.5-9.38-5.42-5.41-10-9.37-13.75-11.87-12.08-8.75-26.46-13.13-43.12-13.13-27.09 0-44.8 9.17-53.13 27.5 11.67-11.25 24.17-16.87 37.5-16.87 10.83 0 20.42 4.38 28.75 13.13l3.75 5.62 2.5 6.88h-2.5a30.85 30.85 0 0 0-1.87-3.13 48.29 48.29 0 0 1-2.5-6.25c-1.25-3.75-5.21-6.87-11.88-9.38-6.25-2.91-11.87-4.37-16.87-4.37-9.17 0-17.92 2.5-26.25 7.5-7.92 5-12.5 10.63-13.75 16.88 4.58-4.59 10-7.92 16.25-10-2.5 2.08-4.38 3.33-5.63 3.74-6.25 4.59-10.42 8.34-12.5 11.25-1.67 2.5-2.5 8.13-2.5 16.88 6.25-14.17 13.54-22.3 21.88-24.38l6.25-1.25 3.12-.62 5 1.88c-.42 0 1.04-.42 4.38-1.26l1.25-.62c2.5 0 5.62 2.3 9.37 6.88 3.75 4.16 5.42 8.54 5 13.12v4.38c.83 0 2.5-.21 5-.63 2.5-.83 4.37-1.25 5.63-1.25.83 0 1.25 1.25 1.25 3.75v1.88c-2.92 2.91-4.38 6.25-4.38 10 0 7.5 2.92 13.12 8.75 16.87a26.61 26.61 0 0 1 11.88-9.38c3.74-1.66 6.04-4.79 6.87-9.37h2.5c.83 2.5 1.67 4.17 2.5 5 3.75 0 5.62-4.37 5.63-13.13 0-4.16-.84-8.54-2.5-13.12.41-1.67 1.25-2.5 2.5-2.5 2.91 0 4.37 3.54 4.37 10.63 0 3.33-.2 5.41-.62 6.24l-5 17.5-.63 1.88c0 .42.42 2.7 1.25 6.88l1.88 8.12 1.87 3.13 13.13 14.37 3.75 4.38h.62c1.67 0 2.92-1.67 3.75-5l1.88-9.38 1.25-1.25c.83 0 1.87 1.88 3.12 5.63 0 1.66 1.46 3.95 4.38 6.87l4.37 5.63 5 4.37c5 3.75 9.37 5.83 13.13 6.25-.42-1.25-.63-3.13-.63-5.63v-5c0-2.91 2.3-10.62 6.88-23.12 2.91-7.92 4.79-16.46 5.62-25.63l-2.5-8.12 1.88-.63c3.33 3.34 7.29 5.21 11.87 5.63-.42-1.25-.62-3.54-.62-6.88-4.59-34.16-14.38-52.7-29.38-55.62l-15.62-3.13c-5.84-.83-8.76-2.91-8.75-6.25 0-1.25.62-1.87 1.87-1.87.83 0 3.12 1.04 6.88 3.13 3.74 1.66 6.24 2.5 7.5 2.5 6.66 0 11.25-7.3 13.75-21.88h-2.5c-2.5 2.92-4.59 4.38-6.25 4.38l-3.75-1.26c2.08-2.08 3.74-3.33 5-3.75 7.08-4.58 10.62-10.62 10.62-18.12 0-1.25-1.04-5.42-3.12-12.5m-247.5 27.5 1.25-.63-.63-.62c-1.25.42-2.3.83-3.12 1.25h-.63c-3.75 0-5.63-2.7-5.62-8.13 0-6.66 3.33-10 10-10 8.33 0 12.5 5.21 12.5 15.63 0 .83-.42 3.33-1.25 7.5l-6.25 24.38.62 6.87a58.01 58.01 0 0 1 1.88-6.88 243.4 243.4 0 0 1 3.12-10l6.88-20.62c0-14.58-5.84-21.88-17.5-21.88-10 0-15 4.38-15 13.13 0 9.17 3.74 13.75 11.25 13.75 2.5 0 3.33-1.04 2.5-3.13v-.62m87.5-21.88c-7.92 4.17-11.88 10.42-11.88 18.75.42.42.63.84.63 1.25l.62.63 3.13 1.25 2.5 1.88c2.91 0 4.58-4.59 5-13.76a219.8 219.8 0 0 0 1.87-8.75l-1.87-1.25m-33.75 9.38 6.25-1.25c1.66 0 2.5 2.08 2.5 6.25l-.63 2.5c4.58-.83 6.87-2.5 6.88-5 0-5-2.3-7.5-6.88-7.5-2.08 0-4.8 1.67-8.12 5m254.38 39.38-.63-6.88-2.5-8.13c-.42-.41-.63-1.66-.63-3.75 0-2.5 1.05-6.45 3.13-11.87 2.08-5.83 3.12-10 3.13-12.5 0-2.08-1.05-3.12-3.13-3.13-2.08 0-3.54 4.8-4.38 14.38l-1.24 23.75c-.84 3.33 1.25 6.04 6.25 8.13M388.07 390.4a7.71 7.71 0 0 0-3.75 5.63h.62l-.62 3.75c3.33 2.08 5.83 3.13 7.5 3.13 2.5 0 3.74-1.88 3.75-5.63 0-3.75-2.5-6.04-7.5-6.88m10.62 8.75 11.88 3.13c1.66-1.25 2.5-2.3 2.5-3.13 0-4.58-3.13-6.87-9.38-6.87-3.75 0-5.63.83-5.62 2.5l.62 4.38m23.75-1.88c-2.08-1.25-3.33-1.87-3.75-1.88-2.08 0-3.13 1.25-3.12 3.75l.62 1.25a18.7 18.7 0 0 1 1.88 2.5c1.25.84 1.87 1.46 1.87 1.88h1.25c.42-.42.83-.63 1.25-.63l.63-2.5 1.25-1.87-1.88-2.5m-23.12 4.38h-.63c-2.92 0-4.38 1.87-4.37 5.62 0 3.33 1.66 5 5 5 3.74 0 5.62-2.08 5.62-6.25 0-2.92-1.88-4.37-5.62-4.38m-15 21.88c5.83-2.08 8.74-5.42 8.75-10 0-6.67-2.71-10-8.13-10-3.33 0-5 1.46-5 4.38l.63 3.74c.83 2.5 2.08 6.46 3.75 11.88m220.62-21.25-1.88 16.88 6.88 26.24c.41 2.09.62 4.17.62 6.25.42 2.09.63 4.17.63 6.25 0 19.59-4.38 37.09-13.13 52.5-7.92 15.42-17.3 23.13-28.12 23.13-5 0-8.34-2.08-10-6.25l-1.25 6.25c0 7.08 4.58 10.42 13.75 10l5.62-.63-4.37 9.38c8.74 0 16.04-2.08 21.87-6.25 6.25-4.58 9.37-9.8 9.38-15.63v-5.62c.41-.42.62-.83.62-1.25a7.23 7.23 0 0 1 1.88-1.25c1.66 2.92 2.5 5 2.5 6.25l-.63 1.25c0 .42-.2 1.25-.62 2.5l-5.63 10-10 10c-2.92 2.92-4.38 8.96-4.37 18.13 0 6.66 1.66 13.95 5 21.87 3.74-2.92 5.83-5.63 6.25-8.13l1.87.63c.83 9.58 4.58 14.38 11.25 14.38 7.5 0 11.25-3.96 11.25-11.88l-1.25-1.25c0-.42-.42-.83-1.25-1.25-.83 3.75-2.3 5.63-4.37 5.63-6.26 0-8.96-5.42-8.13-16.25v-2.5c.42-1.25.63-3.13.63-5.63 1.25-6.67 1.87-10.63 1.87-11.88 1.25-4.16 2.7-9.37 4.38-15.62l5.62-22.5c1.67-8.33 2.7-15.63 3.13-21.88.83-6.66 1.25-12.08 1.25-16.25 0-31.25-7.09-56.45-21.25-75.62m-384.38 3.13a122.73 122.73 0 0 1-7.5 9.37 282.28 282.28 0 0 1-10.63 10l-13.75 6.25c-14.58 7.08-21.87 16.88-21.87 29.38 0 7.5 2.7 14.16 8.12 20 5.42 5.41 11.88 8.12 19.38 8.12 7.08 0 14.79-6.25 23.12-18.75l-1.25.63-.62-6.26c0-2.91-.42-4.79-1.25-5.62l-12.5-9.38a8.48 8.48 0 0 1-2.5-6.25c0-5.41 2.29-8.12 6.87-8.12 1.25 0 3.12.63 5.63 1.88-1.67-2.92-3.96-4.38-6.88-4.38-6.67 0-10 3.33-10 10 0 3.33 2.08 6.46 6.25 9.38l2.5 1.24 5 5c3.33 2.09 5.2 5 5.63 8.75l-.63 5c-7.92 7.92-14.8 11.88-20.62 11.88a23.36 23.36 0 0 1-16.25-6.25c-4.17-4.17-6.26-9.37-6.25-15.63 0-6.24 2.5-12.5 7.5-18.75.83-.83 1.45-1.25 1.87-1.25l1.25-1.25 14.38-7.5c16.25-9.16 24.58-18.33 25-27.5m191.88 10c3.74.84 5.62-1.25 5.62-6.25 0-2.91-1.67-4.37-5-4.37-3.75 0-5.63 1.67-5.62 5 0 3.75 1.66 5.63 5 5.63m-99.38 52.5c2.92-.42 4.8-2.71 5.63-6.88l1.87-9.38 1.25-3.12c2.08-5.42 3.96-8.96 5.63-10.63 6.66-10 15-17.7 25-23.12 2.5-.83 3.54-1.25 3.12-1.25l13.13-.63c2.08 0 3.12-1.04 3.12-3.12 0-2.5-2.08-3.75-6.25-3.75-17.92 0-33.12 11.88-45.62 35.63-4.59 10-6.88 17.08-6.88 21.24v5m58.75-38.12 3.13 3.75c2.08 2.08 3.33 3.13 3.75 3.13 1.25 0 1.87-2.71 1.87-8.13 0-11.25-2.08-16.88-6.25-16.88-3.33 0-5 3.13-5 9.38 0 4.17.83 7.08 2.5 8.75m35.63-12.5-3.13-3.75c-.42-.42-.83-.63-1.25-.63-5.83 0-8.75 2.3-8.75 6.88 0 2.92 1.87 4.38 5.63 4.38 5.41 0 8.12-1.88 8.12-5.63 0-.42-.2-.83-.62-1.25m-129.38 3.13c4.58 5.83 6.87 11.45 6.87 16.87 0 8.75-1.46 18.33-4.37 28.75 0 5.83-.21 9.38-.63 10.63-.42 4.58-.83 8.54-1.25 11.87v6.25c0 20.83 2.3 31.88 6.88 33.13l7.5 2.5 2.5 12.5h8.75l-2.5-9.38 8.12-3.13c.42-2.08.63-4.16.63-6.25.41-2.5 1.04-5.41 1.87-8.75.42-17.5 6.04-26.25 16.88-26.25 6.66 0 10 3.55 10 10.63v1.88c-.84 2.08-4.38 5-10.63 8.74-4.58 3.76-6.88 8.96-6.87 15.63 0 11.25 5.2 16.88 15.62 16.88 8.75 0 14.17-4.8 16.25-14.38-.42-1.25-.62-3.54-.62-6.88 0-6.24 1.66-9.37 5-9.37l5.62 1.25-2.5-5c-.83-.83-2.08-1.25-3.75-1.25-6.67 0-10 3.75-10 11.25v1.88c1.25 7.5 1.87 11.04 1.88 10.62 0 4.58-4.17 6.88-12.5 6.88-3.34 0-6.88-2.09-10.63-6.25l-.62-10.63 3.12-3.75a14.52 14.52 0 0 1 2.5-3.75l1.88-.63h1.25c.41 1.67 1.25 2.5 2.5 2.5h1.87c7.08-5.83 10.63-11.66 10.63-17.5 0-12.5-6.05-18.75-18.13-18.75-.83 0-2.3.21-4.37.63-1.67 0-3.76.2-6.25.63l3.12-10.63c-14.17 1.67-21.67 7.5-22.5 17.5-.42 11.67-1.25 17.5-2.5 17.5-2.5 0-3.54-1.46-3.12-4.38v-1.25c.83-2.08 1.66-4.37 2.5-6.87.83-2.5 1.66-5.2 2.5-8.13 2.91-7.5 4.37-14.58 4.37-21.25 0-1.25-1.04-5-3.12-11.25-.42.42-1.88 2.09-4.38 5-2.08 2.92-3.54 4.38-4.37 4.38-1.25 0-1.88-.83-1.88-2.5 0-.42.83-2.7 2.5-6.88a32 32 0 0 0 2.5-11.87c0-5.42-1.67-10.2-5-14.38-2.92-4.16-6.25-6.24-10-6.25-.83 0-1.46.21-1.87.63l-1.25.63m113.75 3.74c-5.84 1.25-8.76 3.34-8.75 6.25 0 1.25 1.04 1.88 3.12 1.88 5.42 0 8.12-1.46 8.13-4.38v-.62l-2.5-3.13m-71.25 41.88c2.08-.42 3.12-2.5 3.12-6.25.42-4.17 3.33-9.8 8.75-16.88 5.42-7.5 10.2-11.25 14.38-11.25 5.41 0 8.12 1.88 8.12 5.63l-1.25 5c6.25-1.67 9.37-4.37 9.38-8.13 0-5.83-3.55-8.74-10.63-8.75-7.5 0-14.58 4.17-21.25 12.5-6.25 7.92-9.8 17.3-10.62 28.13m280.62-31.25a149.95 149.95 0 0 1 1.87 21.88c0 15-5 22.5-15 22.5-6.25 0-9.38-3.34-9.37-10 0-6.67 2.5-10 7.5-10 1.66 0 4.16.62 7.5 1.87l.62-1.25-3.12-3.13a91.11 91.11 0 0 0-6.88-1.25c-5.83 0-9.8 5.42-11.87 16.25.41 10.42 5.62 15.63 15.62 15.63 13.75 0 20.2-9.17 19.38-27.5v-4.38l-1.88-16.25c-.42-2.91-1.88-4.37-4.37-4.37m-246.88 37.5.62-5c-2.08 3.75-3.96 5.63-5.62 5.63l-3.75-.63c-2.92-1.67-4.38-3.96-4.38-6.88 0-2.08 1.25-4.37 3.75-6.87 2.92-2.5 4.8-3.75 5.63-3.75l6.25.63c1.25.41 2.08.83 2.5 1.24h1.25l3.75 3.75 3.75 3.75c.41.42.62.84.62 1.25l.63.63.62 5.63.63 26.87c.83 19.17 6.24 33.33 16.25 42.5-.42-1.25-.84-2.3-1.25-3.13-.42-1.25-.84-2.29-1.25-3.12-4.59-10.83-6.46-22.92-5.63-36.25v-2.5l3.75-36.88c.42-1.25-1.67-5.41-6.25-12.5l-4.37 5.63a20.46 20.46 0 0 0-15-6.25c-13.75 0-20.63 5.83-20.63 17.5 0 9.17 3.75 13.75 11.25 13.75 2.5 0 4.8-1.67 6.88-5m-173.12-25c-2.92 2.92-4.38 6.04-4.38 9.38 0 7.91 3.54 11.87 10.63 11.87-5.42-4.17-8.13-8.12-8.13-11.88 0-2.5.63-5.62 1.88-9.37m416.88 41.88-10.63 7.5c-1.25.83-1.88 1.66-1.87 2.5 0 1.66 1.04 2.5 3.12 2.5 2.5 0 5.2-1.46 8.13-4.38 2.91-2.92 4.58-5.62 5-8.13l1.25-5-5 5m-414.38 0 3.75 3.75 13.12 3.75c4.58 1.25 6.87 3.96 6.88 8.13l-.63 1.88-.62.62-5 5c-.42.42-.63.83-.63 1.25 0 2.08 1.25 3.13 3.75 3.13 3.33 0 5.62-3.34 6.88-10l.62-3.13c0-5.42-6.04-9.17-18.12-11.25-1.25-.42-2.71-.83-4.38-1.25a44.49 44.49 0 0 1-5.62-1.88m396.25 0c-1.67.42-2.5 1.46-2.5 3.13 0 2.08 1.66 3.13 5 3.13l3.12-.63c.83-.83 1.25-1.46 1.25-1.88 0-1.66-2.3-2.91-6.87-3.75M403.68 540.4c3.33-.83 5-1.45 5-1.87 0-.83-.63-2.5-1.88-5-.83-2.5-1.25-4.37-1.25-5.63 0-13.75 6.46-20.62 19.38-20.62 9.58 0 14.37 3.96 14.37 11.88 0 4.16-3.33 7.7-10 10.62 1.25.42 3.54.63 6.88.63 7.5 0 11.25-3.96 11.25-11.88 0-10.42-6.88-16.25-20.63-17.5l1.25-4.38h-2.5l-7.5 1.25c-11.67 1.67-17.5 11.05-17.5 28.13 0 3.33 1.04 8.13 3.13 14.38m173.75-40.63c-1.67.42-2.5 1.67-2.5 3.75 0 2.5 1.45 3.75 4.37 3.75 3.33 0 5-1.46 5-4.38 0-2.08-1.67-3.12-5-3.12h-1.87m-378.75 6.25c-.42-1.67-1.46-2.5-3.13-2.5-3.33 0-5 1.46-5 4.38 0 2.91 1.67 4.37 5 4.37 2.5 0 3.54-1.87 3.13-5.63v-.62m389.38-1.25c-.84.83-1.25 2.08-1.25 3.75 0 3.33 1.25 5 3.75 5 3.33 0 5-1.46 5-4.38 0-2.91-1.88-4.37-5.63-4.37h-1.87m-413.12 14.38v-1.88l1.25-6.25h-3.13l-3.75 3.13c-.42.41-.62.83-.62 1.25 0 .83-.21 1.45-.63 1.87l-.62 1.88v.62c0 1.25.62 1.88 1.87 1.88 2.08 0 3.96-.84 5.63-2.5m7.5 3.75c3.74-1.67 6.45-4.59 8.12-8.75-2.92-1.67-5-2.5-6.25-2.5-4.17 0-6.25 1.87-6.25 5.62 0 2.08 1.46 3.96 4.38 5.63m14.37-7.5c-3.33 2.08-5 4.16-5 6.25 0 3.33 1.67 5 5 5s5-1.67 5-5c0-2.09-1.67-4.17-5-6.25m8.75 11.25h1.25c1.67.83 2.7.41 3.13-1.25l2.5-3.13.62-1.25v-.63l-.62-1.87h-.63l-.62-.63-.63-.62h-.62c-2.5 0-3.96 3.13-4.38 9.38m-31.25-2.5c-2.92 0-4.38 1.66-4.37 5 0 2.91 1.25 4.37 3.75 4.37 3.33 0 5-1.25 5-3.75 0-3.75-1.46-5.62-4.38-5.63m15.63 4.38-3.13-3.75h-.62c-3.34 0-5 2.08-5 6.25 0 2.92 1.45 4.38 4.37 4.38 3.33 0 5.62-1.25 6.88-3.75v-.63c0-.42-.84-1.25-2.5-2.5m16.87 2.5-5-1.25c-4.17 0-6.25 1.46-6.25 4.38 0 2.5 1.67 3.75 5 3.75 2.08 0 4.17-2.3 6.25-6.88m-31.25 5.63 3.13 1.87-1.25 1.88c.41.41 1.45.62 3.12.62.83 0 1.25-.2 1.25-.63v-2.5l-1.87-1.25-1.88-.62-2.5.63m16.25.62-5.62 1.88v1.87c0 .83.62 1.25 1.87 1.25 1.67 0 3.75-1.46 6.25-4.38l-2.5-.62m193.12 33.13-3.75.62-158.12-4.38-30.62 1.25c-2.5 0-6.46-.62-11.88-1.87 2.08 3.75 3.75 5.83 5 6.25h13.75l64.38.63 100 3.75c47.5.41 84.58-7.09 111.25-22.5 4.16-2.09 7.29-3.75 9.37-5a77.56 77.56 0 0 1 4.38-2.5c3.74-1.25 5.62-2.71 5.62-4.38 0-.83-.42-1.67-1.25-2.5l-1.25-.63-6.25 3.75-19.37 9.38-6.88 3.75-8.12 2.5-14.38 4.38c-14.17 4.16-31.46 6.66-51.87 7.5m-198.75 23.12-2.5 1.88c3.74 2.5 6.66 3.75 8.75 3.75 5 0 7.5-2.09 7.5-6.25 0-3.34-1.67-6.05-5-8.13l-18.13-7.5-6.87-5.63c-.42-1.25-.63-3.33-.63-6.25v-5.62c0-5.42 2.92-10.42 8.75-15h-2.5c-2.92 0-5.63 2.3-8.12 6.88-2.09 4.58-3.13 8.33-3.13 11.25 0 8.33 3.96 14.37 11.88 18.12l18.75 8.13a4.24 4.24 0 0 1 1.25 3.12c0 2.08-1.25 3.13-3.75 3.13-1.67 0-3.76-.63-6.25-1.88m371.25-46.88c-.42-.41-1.25-.62-2.5-.62-6.67 0-10 2.92-10 8.75 0 8.75 4.16 12.7 12.5 11.88h.62c7.5-.42 12.3-1.67 14.38-3.75l8.12-7.5-6.25.62-9.37 5h-3.13c-5.83 0-8.75-2.5-8.75-7.5 0-2.08 1.46-4.38 4.38-6.88m-15.63 36.88-7.5.63-16.87 3.75c-2.09.41-3.96.83-5.63 1.25h-5.62c-20 0-30-5.63-30-16.88 0-10.83 5.41-16.25 16.25-16.25 4.58 0 7.5 2.92 8.75 8.75l1.87-1.88v1.88-1.25c.42-7.5-3.54-11.25-11.87-11.25-5.42 0-10.42 2.08-15 6.25-4.17 3.75-6.26 8.13-6.25 13.13 0 13.75 10.83 20.62 32.5 20.62 10.83 0 23.95-2.92 39.37-8.75m43.75-27.5c-10 11.25-23.12 20.63-39.37 28.13-15.84 7.08-31.46 10.62-46.88 10.62-15 0-26.46-1.88-34.37-5.63-2.92 2.92-4.38 5.21-4.38 6.88 0 .83 3.96 1.88 11.88 3.13l17.5 1.87c1.25.42 4.16.63 8.75.63 11.66 0 20.62-1.25 26.87-3.75l26.25-9.38 15.63-8.75 16.87-13.13.63-3.75.62-6.87m-141.25 13.13c-4.58 2.08-6.88 4.58-6.87 7.5 0 1.25.83 3.12 2.5 5.62l2.5 3.13c0 1.25-.42 1.87-1.25 1.87h-.63l-9.37-5c-4.59-.42-9.59-1.04-15-1.88l1.25 3.75h-6.88c-6.25-.83-8.96.84-8.12 5v.63l-6.88 4.38 1.88 5 3.12-5c2.08-2.92 6.87-3.96 14.38-3.13 2.08.42 4.79.83 8.12 1.25 3.33 0 7.7.42 13.13 1.25h2.5c8.74 0 13.12-3.96 13.12-11.88 0-1.25-.2-2.08-.62-2.5l-3.13-5.62.63-3.75-4.38-.63m-15.62 4.38-9.38 1.88 17.5 5-8.12-6.88m148.12 25.63c-3.34-2.5-5-4.59-5-6.25 0-3.34 3.95-8.34 11.87-15l.63-5h-1.88l-8.12 6.25-5.63 5.62c-2.08 2.08-3.13 4.38-3.12 6.88 0 4.58 3.74 7.08 11.25 7.5m-361.25-.63 1.25-1.88c-5.42-1.66-8.13-3.95-8.13-6.87 0-6.67 3.12-10 9.38-10 5.41 0 10 1.88 13.75 5.63l13.12 11.87c2.92 2.92 6.87 4.38 11.88 4.38 10.41 0 15.62-3.55 15.62-10.63 0-.42-.2-.83-.62-1.25l-3.75-6.88 6.25-1.87h1.25c8.74 0 13.95.83 15.62 2.5l25 15.63 1.25.62 1.25.63c1.25 0 2.7-.84 4.38-2.5l-6.25-2.5-21.88-13.75c-5.83-3.34-13.33-5-22.5-5-8.75 0-13.12 2.7-13.12 8.12l.62 1.25 3.75 3.13c.42.41.63 1.04.63 1.87 0 4.17-3.34 6.25-10 6.25-3.76 0-7.09-1.46-10-4.38l-10.63-12.5c-2.5-2.5-7.7-3.75-15.62-3.75-8.76 0-13.13 3.96-13.13 11.88 0 5.42 3.54 8.75 10.63 10m91.25-20c4.16 9.58 10.41 14.8 18.75 15.63l-3.75-5.63-3.75-3.13-4.38-6.25-6.87-.62m100 1.25h-8.13l-6.25-1.25h-8.75c-20 0-30 5-30 15 0 2.5 2.3 5 6.88 7.5.41.42 1.25.63 2.5.63h.62l8.75-3.13-6.87-1.88c-1.67-.41-2.5-1.66-2.5-3.75 0-7.08 4.79-10.62 14.37-10.62l23.13.63 6.25-3.13m45.62 10-3.75 4.38v1.25c0 2.08.83 3.12 2.5 3.12 6.67 0 10-4.38 10-13.13 0-2.91-1.46-4.37-4.37-4.37-1.25 0-2.09.63-2.5 1.88l-1.88 6.87m-161.88 6.88c-2.5-1.67-3.75-3.34-3.75-5 0-2.09 1.67-3.13 5-3.13 2.92 0 4.8.2 5.63.63-2.92-2.92-6.26-4.38-10-4.38-5 0-7.5 1.88-7.5 5.63 0 5 1.66 7.5 5 7.5.41 0 2.29-.42 5.62-1.25m299.38-428.13a18.04 18.04 0 0 0 5.63 5.63c6.24 4.58 9.37 8.13 9.37 10.62l-3.75-1.87a62.12 62.12 0 0 0-5-4.38l-3.75-5-5.62-5 .62-.62 2.5.62m21.88 11.88 2.5 5-4.38.62v-2.5l1.88-3.12m-61.88 10v3.12c-1.25-.41-1.88-1.04-1.87-1.87 0-.83.2-1.25.62-1.25h1.25m12.5 12.5-3.12-.63-4.38-3.75-.62-2.5 8.12 6.88m-3.12-.63c0-.41.41-.62 1.25-.62l-1.25.62m-275.62 5c2.5.84 4.16 3.55 5 8.13a59.62 59.62 0 0 1 6.25 7.5c2.5 2.92 5.2 6.04 8.12 9.37l-13.75-8.12-5.62-16.88m54.37 3.13c2.5 4.17 4.17 9.17 5 15 .42.42.63 1.46.63 3.12 0 1.25.2 2.5.62 3.75l-2.5 1.25-3.75-23.12m39.38 1.87 2.5 9.38-2.5 3.75c-.42-1.25-.63-2.7-.63-4.38v-4.37c0-2.08.2-3.54.63-4.38m-57.5 15-12.5-8.75h.62l11.88 8.75m13.12-8.75c2.08.84 3.54 3.13 4.38 6.88l.62 5.62-2.5 1.25-2.5-13.75m-15.62 12.5c0-.83-1.25-1.25-3.75-1.25-.42 0-1.05-.41-1.88-1.25 0-1.66.83-2.5 2.5-2.5l3.13 5m-140-1.87a3.76 3.76 0 0 1 2.5 2.5c.41 1.25.41 1.88 0 1.87h-2.5a3.75 3.75 0 0 1-2.5-2.5l2.5-1.87m140 3.75h.62c1.67 0 2.5.83 2.5 2.5.42.42.42.62 0 .62-2.92 0-4.38-.41-4.37-1.25l.62-.62c0-.42.2-.83.63-1.25m-137.5 4.37-1.25 3.13a7.33 7.33 0 0 0-1.88-1.25l-1.87-1.88c.83-.83 1.45-1.25 1.87-1.25l3.13 1.25m192.5 2.5-3.75-1.87-.63-1.25 4.38 3.12m-191.88 2.5-.63 3.75-5-1.25 1.88-2.5h3.75m.62 7.5c-.42.42-.83.63-1.25.63.42 1.25.42 1.88 0 1.87h-.62a7.33 7.33 0 0 0-1.88-1.25c-.83-.83-1.67-.83-2.5 0l-.62-1.25c.41-1.66 2.5-2.5 6.25-2.5v.63c0 .42.2 1.04.62 1.87m143.12-2.5h.63c1.66 0 2.91 1.05 3.75 3.13h-3.75c-.84 0-1.25-.2-1.25-.63 0-1.25.2-2.08.62-2.5m18.13 16.88 2.5 1.25c.83.42 1.45.83 1.87 1.25h.63l-.63 1.25c-2.5 0-3.75.2-3.75.62-.42-.41-.62-1.25-.62-2.5v-1.87m.62 11.87 2.5-.62 2.5 1.25 1.25 1.25-1.25 1.25-5-3.13m-156.25 6.88c4.17 3.33 6.67 8.33 7.5 15l-.62 1.87-6.88-16.87m158.12 1.25 3.13 1.25.62 1.87-3.75-.62c.42 0 .42-.83 0-2.5m-2.5 6.87 4.38 1.25c0 .84-.42 1.25-1.25 1.25h-.63l-1.25-.62-1.25-1.88m-3.12 5.63 2.5 1.87 1.87 1.88-5.62-1.25 1.25-2.5m-145 26.87a9.8 9.8 0 0 0 1.87 2.5c.83.84 1.67 2.09 2.5 3.75l-1.87 1.88-2.5-8.13m-3.75 1.25 3.75 7.5-.63.63v1.25l-3.12-4.38-1.25-3.75.62-1.25h.63m228.12 11.25 8.12-3.75-7.5 6.25-.62-2.5m13.12-.62c-.83.83-5.42 3.96-13.75 9.37v-1.25c1.25 0 3.54-1.04 6.88-3.12 3.74-2.5 5.62-4.37 5.62-5.63l1.25.63m-54.37 28.12-1.88 1.25-.62-2.5 2.5 1.25m48.75 3.13 2.5 1.25 1.25 1.87-3.13-1.25-4.37-.62.62-1.25h3.13m8.75 8.75 3.12 3.12c-7.92-3.33-13.33-5-16.25-5l-6.87.63c-2.09 0-3.13-.63-3.13-1.88 0-1.66.63-2.29 1.88-1.87h.62l7.5.62 8.13 1.88 5 2.5m73.75 27.5 18.75-5.63a38 38 0 0 1-3.13 2.5c-1.25.84-3.33 2.09-6.25 3.75l-9.37-.62m4.37 8.75 1.25 1.87-1.87-1.87h.62m-5 10 1.88.62a7.77 7.77 0 0 0-2.5 5.63l5.62 6.87-6.25-3.12-1.87-3.75c0-.83 1.04-2.92 3.12-6.25m-8.75 6.87 1.88-5.62 1.25.62-.63 7.5v.63c-.42-.42-.83-.63-1.25-.63l-1.25-1.25v-1.25m-2.5-4.37.63 6.87-3.13-1.25-.62-.62.62-1.88 1.88-3.12h.62m46.88 22.5c2.5 0 5.2 3.33 8.12 10 .42 1.25.83 2.7 1.25 4.37.42 1.25.83 2.71 1.25 4.38-1.25 0-2.5-2.5-3.75-7.5-.83-.83-2.5-3.12-5-6.88-1.67-2.5-2.3-3.95-1.87-4.37m3.12 18.75c-.42-2.08-1.67-4.37-3.75-6.88-1.67-2.5-2.5-3.95-2.5-4.37 0-.83.2-1.25.63-1.25 1.25 0 2.29 1.04 3.12 3.12l2.5 5c-1.25-1.66-2.08-2.5-2.5-2.5 0 1.25.2 2.09.63 2.5 1.25 2.09 1.87 2.09 1.87 0 .42 2.92.42 4.38 0 4.38m-65-6.25-3.75 1.25-6.25 3.75 4.38-5h5.62m-70.62 3.75.62 1.87a120.15 120.15 0 0 0-10.62 16.25c-4.17 8.34-6.26 15.63-6.25 21.88v13.75a67.36 67.36 0 0 0 5.62 24.38c-3.33 1.25-5.63 1.87-6.87 1.87-3.34 0-5.84-3.75-7.5-11.25l-1.88-8.13c-.42-.41-.62-1.45-.62-3.12 0-2.08-.21-3.75-.63-5l-1.25-16.88c0-4.58 2.08-10.2 6.25-16.87 0 3.75-.2 5.83-.62 6.25-1.67 6.25-2.5 10.62-2.5 13.12s.2 4.38.62 5.63l2.5-1.88-.62-6.25 1.25-8.75 3.75-13.12c.41-1.67 3.12-4.17 8.12-7.5a273.91 273.91 0 0 0-6.25 15 110.3 110.3 0 0 0-3.75 16.87h1.88c1.66-13.75 5.83-25.2 12.5-34.37l6.25-3.75m62.5 5.62c1.66-3.74 3.74-5.62 6.25-5.62l6.87 1.87-8.12 1.25-2.5 3.13-2.5-.63m-173.75-3.75-.63 7.5-1.87 8.75c-.84 3.34-1.46 5-1.88 5-1.25 0-1.88-.2-1.87-.62v-.63l2.5-5.62 2.5-14.38h1.25m-8.75 11.25 3.75-6.25c0 3.34-.84 5.84-2.5 7.5l-1.25-1.25m200.62-5.62c-7.09.42-11.05 2.3-11.88 5.62h-1.87c0-5 2.08-7.5 6.25-7.5 3.74 0 6.24.63 7.5 1.88m-27.5 3.12c.83.84 1.25 1.67 1.25 2.5 0 .42-.21.63-.63.63 1.67 0 2.5-.42 2.5-1.25l-5-.63 1.25-1.25h.63m53.12 5.63a40.9 40.9 0 0 1 4.38 2.5c1.25.83 2.7 1.67 4.37 2.5-2.08 0-3.54-.2-4.37-.63a26.85 26.85 0 0 0-5-.62c-.84-.42-1.05-.63-.63-.63-1.67 0-2.5-.62-2.5-1.87l1.25-1.25h2.5m-47.5 4.37h-3.12l-1.25 1.88c-.84 0-1.25-.42-1.25-1.25 0-.83.2-1.46.62-1.88l5 1.25m-150 4.38-11.87 14.37c-.42-.41-.63-1.25-.63-2.5 0-.83.2-1.45.63-1.87l2.5-3.13 4.37-6.25 5-.62m201.25 1.87 6.25 3.75a20.28 20.28 0 0 1-9.37-3.75c0-.83.41-1.25 1.25-1.25l1.87 1.25m1.88 8.13 5.62 3.75-5-.63c-1.25 0-2.08-.2-2.5-.62l.63-2.5h1.25m85.62 1.87c.83-.83 1.67-1.25 2.5-1.25 5 0 7.5.63 7.5 1.88s-1.67 1.88-5 1.87c-1.67 0-3.33-.83-5-2.5m-110.62 26.88-6.25-.63c-2.5 0-3.96-5.62-4.37-16.87-.42-1.67-.21-3.75.62-6.25l1.88-2.5.62 1.25-1.25 6.25-.62 1.87c0 1.25 3.12 6.88 9.37 16.88m111.25-21.88 4.38 1.25 3.75 2.5h-5l-5-1.87 1.87-1.88m-316.25 5.63v-1.25h5.63a4.78 4.78 0 0 1 1.87-.63l.63-.62c.41.42.62 1.25.62 2.5-1.25.42-2.3.83-3.12 1.25h-.63l-5-1.25m235-1.25-4.37-.63c1.25 0 1.87.63 1.87 1.88s-.62 1.88-1.87 1.87c-.84 0-1.25-.62-1.25-1.87 0 1.25 1.87.83 5.62-1.25m90 4.37-5.62.63-6.25-1.88v-.62h.62v-.63h.63l-.63-.62 5 1.25 6.25 1.87m-313.75 5-9.37-1.25-.63-2.5 3.13.63 3.75-1.25 3.12 4.38m308.12 2.5c-2.08-2.09-5.2-3.13-9.37-3.13 1.25-1.25 2.5-1.87 3.75-1.88 6.24 0 9.37.84 9.37 2.5l-3.75 2.5m-313.12-.62 5 2.5h-8.12c-.84 0-1.88-.63-3.13-1.88l6.25-.62m231.88-.63c-.83-.41-2.08.21-3.75 1.88 0 .83-.42 1.25-1.25 1.25-1.25 0-2.08-.63-2.5-1.88l7.5-1.25m-.62 10 5.62 3.13h-7.5v-3.13h1.88m56.25 16.25-.63-1.25 6.25-4.37 7.5-4.38-3.12 3.13c0 .83-3.34 3.13-10 6.88m8.75 9.37.62 4.38-1.87 9.37 2.5 4.38-4.38.62v-5c0-1.67 1.04-6.25 3.13-13.75m4.37 4.38 1.25 2.5 1.25 5.62-3.12 1.25c-1.25-2.5-1.88-4.17-1.88-5v-.63l.63-2.5.62-.62h.63l.62-.63m-157.5 21.25c2.92.42 4.37 1.88 4.38 4.38l-4.38-4.38" transform="translate(-146.86 -119.79)"/>
</svg>
