<svg xmlns="http://www.w3.org/2000/svg" viewBox="0 0 500 500">
    <path d="M146.86 619.79v-500h500v500h-500m7.5-7.5h485v-485h-485v485m7.5-7.5V135.41h469.38v469.38H161.86m15-467.5-.63 1.25c-3.33.83-5.83 2.92-7.5 6.25l-1.87 10.62 1.25-.62v1.25c0 1.67 1.46 3.33 4.38 5-1.25-2.92-1.88-5.42-1.88-7.5 0-7.08 3.12-10.63 9.38-10.63 2.08 0 4.79 1.05 8.12 3.13l3.13 5v3.12c0 1.25-.21 2.92-.63 5 0 1.67-.2 3.55-.63 5.63-7.91 14.17-11.87 27.7-11.87 40.62v4.38c0 2.5.2 4.38.63 5.62 1.66-17.5 4.79-31.04 9.37-40.62 5.83-13.75 8.75-21.04 8.75-21.88 0-2.5-1.25-6.04-3.75-10.62-1.25-2.08-3.33-3.33-6.25-3.75l-10-1.25m59.38 1.87-9.38 3.13-5 3.12-3.75 2.5-6.25 3.75-7.5 5.63c-3.33 3.33-5.83 6.46-7.5 9.37-3.33 4.59-5 8.55-5 11.88-2.92 2.92-5 7.5-6.25 13.75l-1.25 8.12-1.25 6.25.63 11.25c2.08-.41 3.54-2.5 4.37-6.25 5-25.83 12.5-43.75 22.5-53.75 10-10.41 25-15.62 45-15.62 15 0 26.67 2.3 35 6.87l12.5 6.88 6.88 3.75-1.25 2.5c2.5 1.25 4.58 1.88 6.25 1.87 2.08 0 3.12-.83 3.12-2.5l-1.88-1.87a9.84 9.84 0 0 0-1.87-2.5 57.05 57.05 0 0 0-6.25-4.38 57.05 57.05 0 0 0-6.25-4.37l-.63-.63c-5.41-2.91-10-5-13.75-6.25a78.76 78.76 0 0 0-8.75-2.5l-14.37-1.87-10.63-.63-17.5 2.5m61.26 1.25c9.16 2.5 14.58 4.38 16.25 5.63l26.25 13.12c2.91 1.67 6.87 2.5 11.87 2.5 12.08 0 18.13-4.16 18.13-12.5 0-3.33-2.71-6.45-8.13-9.37l-1.25-.63c-1.25-.41-3.75-.62-7.5-.62-2.08 0-4.58.83-7.5 2.5l-10.63 2.5 3.13 3.12c3.75 0 6.04-.2 6.88-.62 5-1.67 8.74-2.5 11.25-2.5 1.66 0 3.95 1.46 6.87 4.37l.63 1.25c-2.09 5.84-5.42 8.76-10 8.75-5.84 0-12.71-1.66-20.63-5l-26.88-12.5-9.37-1.87.63 1.87m139.38 13.13c3.33 5.83 7.91 8.75 13.75 8.75 6.66 0 16.66-3.12 30-9.38l.62 1.25 14.38-10.62c-5 1.67-8.34 2.92-10 3.75l-17.5 8.12a43.44 43.44 0 0 1-15.63 3.13c-8.33 0-12.5-3.33-12.5-10 0-4.17 1.67-6.25 5-6.25 1.25 0 2.3.62 3.13 1.87 1.25.84 3.54 1.88 6.87 3.13-2.08-5.83-5-8.75-8.75-8.75-7.5 0-11.25 3.54-11.25 10.62 0 1.25.63 2.71 1.88 4.38m51.87 1.25-7.5 4.37-1.88 1.88-4.37 3.75c-.42 1.25-2.08 3.33-5 6.25l-5 9.37-2.5 11.25-7.5-2.5h-1.25c-3.33 0-6.67 2.92-10 8.75-2.92 5.42-4.58 11.88-5 19.38l-1.25 26.25-1.88 5.62c-2.08 7.5-4.16 11.88-6.25 13.13-1.66 1.25-2.5 2.08-2.5 2.5 0 1.25 1.05 1.88 3.13 1.87 2.92 0 5.62-2.08 8.13-6.25.83-2.08 1.66-3.12 2.5-3.12 1.25 0 2.5.62 3.75 1.87 3.33-4.58 5-7.7 5-9.37 0-1.67-.84-4.37-2.5-8.13-1.67-4.16-2.5-7.08-2.5-8.75 0-2.08.2-3.54.62-4.37h1.88l1.25 10.62 1.25.63 1.25 1.87 1.25.63 1.87-3.13 5 3.75 5 5c0-3.33.2-5.62.63-6.87v-3.13c.41-3.33-.42-5.83-2.5-7.5l-2.5-2.5c0-1.66.83-2.5 2.5-2.5 1.25 0 2.08.21 2.5.63-.42-5-2.71-9.17-6.88-12.5-2.5-1.67-3.75-3.12-3.75-4.38v-2.5l1.88-.62c1.66 4.17 3.95 7.3 6.87 9.37l3.13 1.88 1.25 6.87-.63 5 2.5 4.38 4.38 6.87 4.37 5 3.75 1.25 3.75 3.75c2.08 2.5 6.67 4.8 13.75 6.88 5.42.83 9.58 1.67 12.5 2.5 3.33.42 5.62.62 6.88.62 4.58 0 10.62-1.45 18.12-4.37 7.92-2.92 12.92-6.25 15-10l1.88-2.5 5-7.5-1.25-8.13-1.88-4.37 5 .62v4.38l1.88.62c.41-1.66.62-2.91.62-3.75.42-1.25.63-2.29.63-3.12 0-3.75-2.09-7.7-6.25-11.88l-5.63-2.5a60.7 60.7 0 0 0-4.38 1.25 2216.31 2216.31 0 0 1-6.25 0 43.6 43.6 0 0 0-5-1.25l-5.62-1.25-11.25 1.25-8.13-.62-5 3.12H505l-2.5-.62 3.75-3.75-6.25-3.75-6.25 12.5c-.83 3.33-1.25 4.8-1.25 4.37 0 1.25.42 1.88 1.25 1.88h1.25l10.63-5.63 5-1.25-1.25 4.38-2.5 3.12c2.91 1.67 5.2 2.5 6.87 2.5 7.08 0 12.7-2.08 16.88-6.25h1.87v2.5c-2.08 2.09-3.13 3.55-3.13 4.38 0-.42.42 1.04 1.25 4.37 3.34-2.08 5.63-3.12 6.88-3.12 5 0 7.5 2.92 7.5 8.75 0 2.08-.83 4.58-2.5 7.5-7.5 8.33-16.67 12.5-27.5 12.5-6.25 0-12.5-1.04-18.75-3.13a55.58 55.58 0 0 1-15.63-10A67.4 67.4 0 0 1 470 227.91c-2.5-5-3.75-10.41-3.75-16.25 0-21.25 6.04-37.7 18.13-49.37 12.5-12.08 29.37-18.13 50.62-18.13 8.33 0 22.08 3.55 41.25 10.63l6.25 1.87v-1.25c0-3.74-2.08-6.24-6.25-7.5-.83-.83-3.13-2.08-6.88-3.75-7.91-3.33-19.16-5-33.75-5-17.5 0-31.45 3.96-41.87 11.88l-5 3.75m96.25-11.25-.63 3.12c0 2.09 1.25 3.13 3.75 3.13 1.25-3.33 2.5-5 3.75-5l5 3.12c-.83-5.83-2.7-8.74-5.62-8.75-3.75 0-5.83 1.46-6.25 4.38m20.63 0v.62c-2.09 3.34-3.13 6.67-3.13 10v1.88l-.63 1.87v-2.5c-.83 1.25-1.45 1.88-1.87 1.88h-1.25l-6.25-3.75-1.25-.63h-1.88c-1.66 0-2.5 1.05-2.5 3.13 0 1.67.84 3.96 2.5 6.87v1.25l1.88-1.25 13.13 17.5-1.25-1.25 1.87 1.88 3.13 11.87h-4.38a44.54 44.54 0 0 0-1.88-5.62 78.16 78.16 0 0 1-2.5-7.5L590 168.54c-2.5-3.75-5-5.62-7.5-5.63-2.5 0-6.46.63-11.88 1.88v1.25c0 1.25 1.05 2.5 3.13 3.75-2.08.83-3.13 1.46-3.13 1.87v1.88l-1.25-1.25-4.37 2.5v1.87l-2.5 5.63-.63 1.87c0 2.09 1.25 4.59 3.75 7.5h3.13c8.75 0 13.13 2.71 13.13 8.13 0 2.08-2.3 4.17-6.88 6.25.83.42 2.92.62 6.25.62 4.17 0 6.25-2.91 6.25-8.75 0-5.41-2.92-8.12-8.75-8.12H570.61l-1.25-5c0-2.92 2.09-4.37 6.25-4.38 3.75 0 8.55 2.5 14.38 7.5a73.9 73.9 0 0 0 2.5 5.63 75.07 75.07 0 0 1 2.5 5.62l1.88 5.63 1.25 6.87c3.74 3.34 7.08 5.42 10 6.25l6.25 5.63c2.08-7.5 3.12-12.5 3.12-15v-1.88c0-4.58-.42-9.79-1.25-15.62a154.49 154.49 0 0 0-3.13-21.25l-1.25-6.25v-5.63c0-5.41 1.25-8.12 3.75-8.12l5 1.25-1.25 6.25c4.17-.42 6.25-2.3 6.25-5.63 0-2.91-.83-5.83-2.5-8.75-2.91-2.91-5.41-4.37-7.5-4.37l-1.87.62h-1.25l-6.88 4.38M400 142.91h-1.87c-1.25 0-2.3 1.05-3.13 3.13v1.87c0 3.34 1.67 5 5 5 2.92 0 4.38-1.87 4.38-5.62 0-2.92-1.46-4.37-4.38-4.38m-175 11.25c5.42-.83 9.38-1.45 11.88-1.87l3.75-1.25h1.88l1.25.62c.83 0 2.29.21 4.37.63l-1.88 5.62c7.09-.83 10.63-2.7 10.63-5.62 0-3.75-3.13-5.62-9.38-5.63h-.62l-5 .63-4.38.62c-3.33.42-7.5 2.5-12.5 6.25m327.5-6.87c-5.41.42-9.37 3.33-11.87 8.75 0 4.17 2.3 6.88 6.88 8.12a7.77 7.77 0 0 1-2.5-5.62c0-5 3.54-7.5 10.62-7.5-2.5 0 2.92 1.25 16.25 3.75-4.17-2.08-6.46-3.33-6.88-3.75-.83-.42-2.29-.83-4.37-1.25a65.09 65.09 0 0 0-8.13-2.5m-255.62 9.37c.42.84.63 2.3.63 4.38 0 4.17-1.67 5.83-5 5l-3.13-.63c2.5 3.34 4.8 5 6.88 5 4.17 0 6.25-1.87 6.25-5.62 0-2.92-1.88-5.62-5.63-8.13m-17.5 7.5-.62 1.88-2.5-.63a7.77 7.77 0 0 0 2.5-5.62c0-1.67-1.04-2.5-3.13-2.5-3.75 0-5.62 2.08-5.62 6.25 0 5 2.92 7.5 8.75 7.5 3.75 0 5.62-2.08 5.63-6.25 0-2.08-.84-3.12-2.5-3.13-1.25 0-2.09.84-2.5 2.5m-45.63 8.75c-2.08 4.17-4.58 7.09-7.5 8.75-2.92 1.25-6.04 2.71-9.38 4.38 1.67 2.5 3.75 3.75 6.25 3.75l3.75-.63 1.25 3.13c4.17-1.67 7.5-6.46 10-14.38 2.5-7.91 7.3-11.87 14.38-11.87 1.67 0 2.5.62 2.5 1.87l-.63 1.88c-3.33.83-7.7 3.96-13.12 9.37-1.25 2.5-1.88 4.17-1.88 5 .42.42.63 1.05.63 1.88 0 .83.2 1.46.63 1.87h3.12l.63 3.13c-2.5 5-3.76 9.58-3.75 13.75v3.12c0 1.67 1.45 2.5 4.37 2.5 3.33 0 6.25-1.04 8.75-3.12 2.92-2.5 4.58-3.75 5-3.75 1.67 0 2.7.2 3.13.62l1.25 1.25c1.25-.41 3.74-2.29 7.5-5.62l5.62-13.13c.42-.41.83-.62 1.25-.62 1.67 0 2.5.62 2.5 1.87s-.42 2.3-1.25 3.13L275 201.66c-4.58 2.5-6.88 5.21-6.88 8.13 0 2.08.63 5 1.88 8.75 2.08.42 3.54.83 4.38 1.25h1.25l4.37 2.5h.63c1.66-.42 2.5-.83 2.5-1.25l-1.25-11.88 5.62-15c.42-.41.63-1.66.63-3.75 0-8.33-3.76-13.54-11.25-15.62h-1.25c-2.5 0-4.59.83-6.25 2.5-.42 1.67-.84 2.5-1.25 2.5-.84 0-1.67-.42-2.5-1.25.41-1.67.62-2.92.62-3.75.42-.83.63-1.67.63-2.5 0-7.5-4.38-11.25-13.13-11.25-6.67 0-13.33 3.96-20 11.87m256.25-10-10.63 10.63-3.12 5-2.5 5 .63 6.87-.63 1.25 3.13 2.5c.41.42 1.04.63 1.87.63 2.92 0 4.58-2.7 5-8.13l-3.13 1.25a8.48 8.48 0 0 1-2.5-6.25c0-2.5 2.5-6.66 7.5-12.5l2.5-2.5c.84-.83 1.88-2.08 3.13-3.75H490m-167.5 1.25-6.88 3.75v.63c0 2.08 1.25 3.33 3.75 3.75l23.13 5.62 5.63 2.5c5.83 1.67 10.41 4.17 13.75 7.5l6.25 9.38.62 1.25 2.5 7.5.63 3.12 1.25 16.88-.63 65.62v46.88l-.63 78.12c7.5 1.25 13.55 1.88 18.13 1.88h6.25c2.92-.42 6.67-.83 11.25-1.25l-.63-38.75.63-155c0-12.08 2.3-22.3 6.88-30.63 5-8.74 11.25-13.54 18.75-14.37l27.5-4.38c2.91-.41 4.37-1.87 4.37-4.37s-4.17-3.75-12.5-3.75h-4.38l-63.75 1.87-61.87-3.75m189.38 3.13-6.88 2.5-3.75 3.75-5 1.87-1.25 3.13c-.83.83-1.66 2.08-2.5 3.75-.83 1.25-1.87 2.92-3.12 5l-3.13 5-1.25 9.37c.42 7.92 2.09 14.38 5 19.38 1.25-5.42 2.5-9.17 3.75-11.25l2.5-5c.42-5.42 1.25-8.12 2.5-8.13.42.42.84.63 1.25.63l2.5 3.75 1.88-.63 3.75-16.87 2.5-4.38c2.5-3.33 5.2-5 8.13-5 1.25 0 1.87.21 1.87.63 0 1.25-1.25 2.5-3.75 3.75-3.75 2.08-5.83 6.25-6.25 12.5l2.5.62-3.75 13.13 11.25.62c3.75.42 6.46-.83 8.13-3.75 2.08-3.33 3.33-5 3.75-5-.42 0 .62.42 3.12 1.25l-2.5 7.5c1.25.42 2.7.63 4.38.63h3.75c12.08.83 18.75 2.5 20 5l3.12 5.62-.63-9.37-5.62-5.63c-1.25 0-1.88-.41-1.88-1.25 0-.83.42-1.25 1.25-1.25.84 0 2.92 1.25 6.25 3.75-.83-7.08-4.79-10.62-11.87-10.62-.42 0-.83.62-1.25 1.87l-1.25-1.87-3.75-1.25 1.25-1.88.63-.62c2.5 0 6.66 1.46 12.5 4.37-1.25-4.58-3.13-6.87-5.63-6.87-1.67 0-2.7.2-3.13.62l1.25-1.87a29.06 29.06 0 0 0-5.62-.63c-1.25-.41-2.3-.62-3.13-.62-.83 0-3.75 1.04-8.75 3.12-.41.42-1.45.63-3.12.63l-1.25-1.25c0-3.33 5.2-5 15.63-5 1.66 0 4.16.62 7.5 1.87-2.5-4.16-6.05-6.66-10.63-7.5l-.63-1.25v-1.25c0-.83-1.66-2.29-5-4.37l-6.25-2.5H518.13l-6.25 1.25m-303.75 9.37c-2.08-1.25-3.33-1.87-3.75-1.87-1.67 0-2.5 1.88-2.5 5.62 0 5.42 5 8.96 15 10.63l-3.75-5.63 1.88-13.12v-1.88l-1.25-.62-3.13-1.88-2.5 8.75m109.38-2.5 4.38 5 21.25 6.25 16.25 6.88c0-2.92-2.3-5.42-6.88-7.5-.42-.42-2.3-1.25-5.63-2.5l-8.75-3.13-9.37-2.5-11.25-2.5m-25 13.75c1.67 7.92 5.83 11.88 12.5 11.88 2.08 0 4.8-1.04 8.13-3.13l3.75-3.75c.41 0 1.04-3.12 1.87-9.37-3.33 8.75-7.92 13.12-13.75 13.12-6.25 0-9.38-3.33-9.38-10 0-3.33 1.25-5 3.75-5l5 1.25 2.5 1.25v-1.25c0-4.58-1.87-6.87-5.62-6.87-5.42 0-8.33 3.96-8.75 11.87m138.75-5-5.63 1.25-1.25 2.5c-6.66 5-11.04 11.67-13.12 20-.42 1.25-.63 4.38-.63 9.38v116.87l-.62 83.13h4.38l1.25-203.12c0-5 1.87-10.42 5.62-16.25s7.92-9.37 12.5-10.63l20.63-3.75 6.87-5.62c-6.25 0-16.25 2.08-30 6.25m-106.88 13.12-.63 8.13c0 4.17-.41 7.5-1.25 10l-2.5 4.37-5 9.38c-5.83 12.08-16.66 18.12-32.5 18.12-20.83 0-31.87-10.83-33.12-32.5l-3.75.63.63 5.62v6.25c0 1.25 1.04 3.55 3.12 6.88 7.92 12.5 20.2 18.75 36.88 18.75 5.83 0 10.41-1.25 13.75-3.75l4.37-3.13 6.25-3.75c3.75-1.66 7.7-6.45 11.88-14.37a72.27 72.27 0 0 0 7.5-25.63v-3.75l-1.25-5.62v-3.75l-5-2.5.62 10.62m-158.12-6.25-.63 1.88 6.88 1.87 2.5 21.25V195.42c0-5-1.46-7.7-4.38-8.13v-.62h-1.25c-1.66 0-2.7.62-3.12 1.87v1.25m166.88-2.5v6.88c2.5 7.08 5.83 10.62 10 10.62 1.25 0 2.92-1.04 5-3.12-5-1.25-8.54-3.75-10.63-7.5l-2.5-6.25-1.87-.63m-139.38 14.38c-1.25 3.33-1.88 5.42-1.88 6.25v1.25c.42.42.84 1.25 1.25 2.5 3.34-9.58 7.09-14.38 11.25-14.38 2.09 0 4.38 1.46 6.88 4.38v6.87c3.33-2.5 5-4.79 5-6.87s-1.46-4.58-4.38-7.5h-.62c-2.5-1.25-4.58-1.87-6.25-1.88-4.58 0-8.33 3.13-11.25 9.38m29.38 4.37 6.87 1.25c-2.5 5-3.75 10-3.75 15l14.38-3.12.62 7.5c1.25-.42 1.87-1.04 1.88-1.88v-3.12l-1.25-6.25-1.25-.63-3.13-2.5-3.13 2.5 3.13-7.5c0-1.25-.63-1.87-1.88-1.87h-.62l-1.25-5.63v-5.62h-.63l-.62.62-7.5 2.5-1.88 8.75m63.75 15-5 4.38 6.25 1.25c2.5 0 4.38-2.5 5.63-7.5h1.25l1.25 3.12-3.13 3.75c8.34-3.33 12.5-6.24 12.5-8.75 0-.83-.62-1.66-1.87-2.5-1.25-.83-1.88-1.45-1.88-1.87 0-1.25.63-2.92 1.88-5-.42-.42-1.25-.63-2.5-.63l-1.25.63-1.88.62-4.37 1.88-3.75-1.88c-1.67 0-2.5 1.46-2.5 4.38l.63 5c0-.42-.42.62-1.25 3.12m53.12-12.5c-1.25.84-2.5 2.09-3.75 3.75 0 2.09.83 3.13 2.5 3.13 3.75 0 5.62-1.67 5.63-5 0-1.25-1.05-1.87-3.13-1.88h-1.25m-85.63 12.5c4.17-2.5 7.3-6.24 9.38-11.25l-5-1.25c-3.33 0-4.8 3.34-4.38 10v2.5m76.88-6.25c-.83 0-1.46 1.25-1.88 3.75l-.62 2.5c0 .84.63 1.25 1.88 1.25 1.66 0 2.5-2.29 2.5-6.87 0-.83-.42-1.25-1.25-1.25l-.63.62m13.75 2.5c11.25.84 16.88 5.84 16.88 15 0 7.92-3.55 15.42-10.63 22.5.83.84 1.46 1.25 1.88 1.25a5.6 5.6 0 0 0 3.75-3.12l5-6.25c2.5-2.92 3.74-7.08 3.75-12.5 0-13.33-5.21-20-15.63-20-2.5 0-4.17 1.04-5 3.12m-148.12 1.25-5.63-1.87a18.76 18.76 0 0 0-4.37 10.62l1.25 7.5 1.88 3.75 1.24 3.75-1.25 2.5-1.87.63c-2.92 0-4.38-2.08-4.38-6.25v-5c.42-2.08.63-3.54.63-4.38.42-.83.63-1.45.63-1.87 0-.42-.63-1.67-1.88-3.75l-3.75-3.75-5-1.25c-1.25 0-2.7.83-4.38 2.5l-2.5 4.37 5.63 1.88 3.75 3.75c.42 2.08.63 3.96.63 5.62.41 1.25.62 2.3.62 3.13v3.75c-.83 5.83 2.5 8.75 10 8.75 3.33 0 6.46-1.25 9.38-3.75 3.33-2.92 5-6.04 5-9.38v-1.87l-5-9.38v-1.25c0-3.33 3.12-6.04 9.37-8.12-1.67-2.92-3.75-4.37-6.25-4.38l-1.25.63-2.5 3.12m410 8.75.63 1.25 5 7.5 1.87 5.63a22.2 22.2 0 0 1 2.5 10v1.25a86.2 86.2 0 0 1-3.13 15.62l-2.5 8.13c0 .83.42 1.67 1.25 2.5 5.42-6.67 8.13-14.58 8.13-23.75 0-10.42-2.92-19.58-8.75-27.5-5.83-8.33-12.3-12.5-19.38-12.5-5 0-9.37 2.08-13.12 6.25-3.33 3.75-5 8.33-5 13.75v1.25l.63 3.75 1.87 10c.42-.42.83-.63 1.25-.63l1.25-1.25v-1.25l-.63-15.62c0-7.92 4.59-11.88 13.75-11.88 3.75 0 8.55 2.5 14.38 7.5m-270-6.87c-1.67 1.25-2.5 2.3-2.5 3.12 0 2.5 1.46 3.76 4.38 3.75 2.91 0 4.37-1.66 4.37-5v-1.87l-1.25-1.25-3.75-.63-1.25 1.88m136.25 1.87c6.25 18.75 19.38 28.13 39.38 28.13 9.58 0 14.37-3.75 14.37-11.25s-3.54-11.25-10.63-11.25c-4.16 0-7.08 2.7-8.75 8.12a8.48 8.48 0 0 1 6.25-2.5c1.67 0 3.34.84 5 2.5.42 1.25.63 2.3.63 3.13l.63.62c0 4.59-3.96 6.88-11.88 6.88-10.42 0-20.83-6.46-31.25-19.38l-3.75-5m-125 .63-3.13 5.62c.42.42 1.46.63 3.13.63s2.5-.83 2.5-2.5c0-1.25-.83-2.5-2.5-3.75m-15 10-.63-1.88c-.83-3.33-1.66-5-2.5-5-2.91 0-4.37 1.67-4.37 5 0 4.17 1.25 6.26 3.75 6.25 2.5 0 3.75-1.45 3.75-4.37m266.25-6.25c-2.92 11.25-6.25 19.17-10 23.75l-4.38 4.37-5 6.25c-.83.84-5.83 4.59-15 11.25l-3.75 2.5-10 4.38-4.37 3.12-4.38.63-3.75 1.87-16.87 5c-.42 0-4.58 1.67-12.5 5l-14.38 5.63-9.37 6.25-6.25 3.75-.63 5.62 23.75-12.5 53.75-18.75c16.25-5.83 31.46-16.45 45.63-31.87 5.42-5.42 8.12-9.8 8.13-13.13 0-2.5-2.3-6.04-6.88-10.62l-3.75-2.5m-260 3.75c-1.25 0-2.5.83-3.75 2.5v1.25c0 2.08 1.04 3.13 3.13 3.12 2.91 0 4.37-1.25 4.37-3.75s-1.25-3.54-3.75-3.12m245 2.5-1.88 5c3.34.83 5 2.08 5 3.75 0-.83-2.08 2.92-6.25 11.25l3.75-3.13 3.75-6.87 3.13-2.5v-3.13c.83-4.58-.63-6.87-4.38-6.87-1.66 0-2.7.83-3.12 2.5m-365 23.75a60.16 60.16 0 0 0-1.25-4.38v-3.75c0-5.83 3.75-8.74 11.25-8.75 6.25 0 10.83.84 13.75 2.5l16.25 8.75 8.13 1.88-5.63-3.13-8.75-5.62c-2.08-.83-4.8-1.87-8.13-3.13-3.33-1.66-7.29-3.54-11.87-5.62-3.33-1.67-6.46-2.5-9.38-2.5-9.58 0-14.37 4.38-14.37 13.12 0 4.17 3.33 7.71 10 10.63m97.5-18.13c-7.5 7.09-11.25 12.3-11.25 15.63 0 4.58 1.46 6.88 4.38 6.87h.62l4.38-1.87-4.38-4.38v-.62c0-2.92 2.08-7.7 6.25-14.38v-1.25m196.25 48.75 5.63-1.25c2.08 0 3.54-1.25 4.37-3.75.42-.41.63-1.66.63-3.75 0-6.24-2.92-10.62-8.75-13.12l-28.75-10-17.5-13.75-.63 1.25c0 1.67 1.04 3.54 3.13 5.62l6.87 5.63a29 29 0 0 0 5.63 4.37l6.25 2.5c15.41 5 23.75 8.76 25 11.25l1.87 3.13 1.25 3.75v.62l-5 7.5m-198.12-9.37a14.52 14.52 0 0 1-2.5 3.75c-.83.42-1.46.83-1.88 1.25-7.5 8.75-11.25 17.08-11.25 25 0 5.83 1.46 10.2 4.38 13.12l3.13 5c2.08 2.09 4.16 3.34 6.25 3.75.41-.41.62-1.25.62-2.5 0-.83-1.25-1.87-3.75-3.12-5-2.92-7.5-8.75-7.5-17.5 0-2.92 1.25-7.3 3.75-13.13 1.25-2.91 2.3-4.79 3.13-5.62l3.75-2.5 1.87-2.5h3.13c.41 4.17 1.66 6.25 3.75 6.25l3.12-1.25c2.08-.83 5.42-2.08 10-3.75l8.75 4.37 3.75 6.25 5.63-8.75c0-2.08-1.05-3.54-3.13-4.37a10.08 10.08 0 0 0-4.38-1.25c-2.5 0-5.2.83-8.12 2.5-1.67-.42-2.5-.83-2.5-1.25 0-1.67.42-2.5 1.25-2.5l8.13-1.25c3.33-.83 5-3.12 5-6.88h-1.25c-1.25 0-1.88-.41-1.88-1.25 0-1.25.83-2.5 2.5-3.75 1.67-1.66 2.5-2.7 2.5-3.12 0-2.08-1.04-3.12-3.13-3.13h-3.12l-1.25-1.25a7.23 7.23 0 0 1-1.25-1.87l-6.25 2.5-1.88.62c-2.08 3.34-4.79 5.21-8.12 5.63l-.63-3.75c6.67-3.33 10.21-8.12 10.63-14.38h-3.75l-1.88-2.5c-.41-1.66-1.66-2.5-3.75-2.5-.41.42-.83.63-1.25.63l-.62.62c.83.84 1.46 2.92 1.88 6.25v1.88c0 1.25-.63 2.7-1.88 4.37l-10.63 11.25c-1.66 1.67-2.5 3.96-2.5 6.88 0 1.67 1.05 2.92 3.13 3.75m153.75-26.25c-1.25 3.33-1.88 5.63-1.88 6.87 0 1.25.42 1.88 1.25 1.88 2.09 0 3.13-1.25 3.13-3.75l-1.25-2.5c0-.83-.42-1.67-1.25-2.5m-273.75 1.25-3.13 1.87 1.88 3.13 1.87 5 3.75 4.37c14.59 21.67 33.34 33.96 56.25 36.88l-3.12-2.5v-2.5c-2.5-.42-6.04-1.67-10.63-3.75l-8.75-3.75-8.12-5-16.25-14.38-4.38-5-1.87-4.37-1.88-6.25c-.83-2.5-2.7-3.75-5.62-3.75m34.37 18.12c.84 13.34 8.55 20.84 23.13 22.5l-10.63-6.87c-3.75-5.42-5.62-10.2-5.62-14.38 0-7.91 3.75-11.87 11.25-11.87 3.33 0 7.92 2.3 13.75 6.87-1.25-9.58-6.25-14.37-15-14.37-9.17 0-14.8 6.04-16.88 18.12m230-16.87c-1.66 0-2.7.83-3.12 2.5v.62c.83 2.92 1.46 4.59 1.88 5h.62c2.92 0 4.37-1.25 4.38-3.75 0-2.91-1.25-4.37-3.75-4.37m89.37 1.87c4.58 2.09 6.87 5 6.88 8.75 0 4.59-2.71 8.13-8.13 10.63l-11.25 5-5 3.75c20.42-5 30.63-12.08 30.63-21.25 0-5.83-3.55-8.75-10.63-8.75-1.25 0-1.88.2-1.88.62l-.62 1.25m52.5 3.13c3.75.83 6.25 2.7 7.5 5.62 2.5-1.25 3.75-2.91 3.75-5 0-3.33-1.88-5-5.63-5-2.5 0-4.37 1.46-5.62 4.38m-314.38-3.13c-8.75 1.25-13.75 6.88-15 16.88l-5.63-.63c-1.25 0-1.87.84-1.87 2.5 0 7.92 3.12 13.34 9.38 16.25l.62-1.25-6.25 3.13v.62c-.83-.41-2.3-.62-4.38-.62-4.16 0-6.25.83-6.25 2.5l-.62 1.25 2.5 3.12 4.38 5c1.66 2.5 8.95 4.8 21.87 6.88 1.25.42 2.7.83 4.38 1.25 2.08 0 4.16.42 6.25 1.25a19.38 19.38 0 0 0-1.25-3.75 10070.93 10070.93 0 0 1 0-5.63c.41-1.25.83-2.91 1.25-5l-5-5c-6.26-5.41-9.38-11.25-9.38-17.5 0-4.58 1.87-7.91 5.63-10 1.66-1.25 2.91-1.87 3.75-1.87 1.25 0 2.08.2 2.5.62l4.37 4.38v-1.25c.42-.83.63-2.5.63-5 0-4.17-3.96-6.87-11.88-8.13m192.5 5.63-3.75-2.5-1.25 1.25c0 .42-.2.83-.63 1.25v1.25c0 1.67 1.05 2.5 3.13 2.5s3.12-1.04 3.13-3.13l-.63-.62m-12.5 1.87c-1.67 0-2.7.84-3.13 2.5v1.25c0 2.5 1.46 3.76 4.38 3.75 2.08 0 3.12-1.04 3.13-3.12 0-2.92-1.46-4.37-4.38-4.38m128.12 6.88 4.38 5c11.66 11.67 17.08 21.87 16.25 30.62v2.5c0 2.09 1.04 3.55 3.12 4.38l.63-6.25c.41-13.75-5.21-25-16.88-33.75l-6.25-4.38-1.25 1.88m-101.25 17.5-2.5 5-4.38 4.37-3.75 5.63c11.25-4.17 16.88-9.8 16.88-16.88 0-3.33-1.46-6.66-4.38-10-2.91-3.74-6.04-5.62-9.37-5.62-6.25 0-9.38 3.96-9.38 11.87 0 .84.21 1.46.63 1.88.42 0 1.25-1.04 2.5-3.13 1.67-2.08 2.7-3.12 3.13-3.12h.62l5 1.25c3.33.83 5 3.33 5 7.5v1.25m-50 23.75c-3.75 2.5-6.67 3.75-8.75 3.75-4.58 0-6.88-2.3-6.88-6.88 0-2.08 1.25-4.58 3.75-7.5 2.5-3.33 3.75-5.2 3.75-5.62v-.63a16.28 16.28 0 0 0-2.5-4.37c-.83-2.08-1.66-3.12-2.5-3.13h-3.75a8.48 8.48 0 0 1 2.5 6.25c0-.41-.41 1.46-1.25 5.63-3.33 4.58-5 8.33-5 11.25 0 8.33 3.75 12.5 11.25 12.5 2.92 0 6.05-1.25 9.38-3.75 3.75-2.92 5.62-5.83 5.63-8.75v-1.25c-1.67-3.75-2.5-8.96-2.5-15.63 0-9.16 3.12-13.75 9.37-13.75h.63c1.66.84 3.33 2.71 5 5.63a17.51 17.51 0 0 1 2.5 8.75c0 3.33-1.67 7.92-5 13.75L450 321.67l-2.5 3.75c-8.75 8.33-13.13 15.42-13.13 21.25l1.25 6.25 1.25 3.12 1.25 1.88c5.42 4.17 10.42 6.25 15 6.25 2.09 0 4.8-1.04 8.13-3.13l29.38-20c2.91-2.5 7.08-3.74 12.5-3.75 10.41 0 15.62 3.96 15.62 11.88.42.42 1.04.62 1.88.62 2.08 0 3.12-2.5 3.12-7.5 0-6.66-4.38-11.25-13.13-13.75l-10 1.25 5-11.25a26.99 26.99 0 0 0-5-.62c-1.25-.42-2.29-.63-3.12-.63-7.08 0-13.54 2.3-19.38 6.88l-11.25 8.12-.62 1.88-5 4.37-6.88 10-6.87 1.88c-.42-.83-.63-2.3-.63-4.38 0-.41 3.75-3.54 11.25-9.37l5-5 8.13-10 3.13-8.75c.83-3.33 1.25-4.8 1.25-4.38 0-.83-.42-1.66-1.25-2.5-.84 1.25-1.67 1.88-2.5 1.88-1.25 0-1.88-.2-1.88-.63l1.88-6.87.62-5.63.63-8.12c0-2.5-2.92-6.25-8.75-11.25a17.51 17.51 0 0 0-8.75-2.5c-10 0-14.59 5-13.75 15l.62 3.75 3.13 11.87-1.88 8.13m-265.62-32.5c1.25 2.92 2.7 4.38 4.38 4.37 2.91 0 4.37-1.66 4.37-5 0-3.33-1.67-5-5-5-2.5 0-3.75 1.46-3.75 4.38v1.25m-11.25-3.13v2.5c0 2.5 1.04 3.76 3.13 3.75 2.91 0 4.37-1.45 4.37-4.37s-1.46-4.37-4.38-4.38c-.41.42-1.04.63-1.87.63l-1.25 1.87m37.5 18.75c.83-3.33 2.3-5 4.38-5l1.24.63c1.25 0 2.92.42 5 1.25l5 3.12 6.25 1.88-19.37-11.88c-.83-.83-1.67-1.25-2.5-1.25-3.33 0-5 1.46-5 4.38 0 2.08 1.67 4.38 5 6.87m287.5 19.38 5.63-1.25 27.5-8.75 47.5-4.38 18.75-5 8.12-3.75c3.33-1.25 5-2.5 5-3.75s-.83-1.87-2.5-1.87a30.6 30.6 0 0 0-3.13 1.87c-1.25.84-2.91 1.88-5 3.13-.83.83-2.5 1.67-5 2.5-2.08.42-4.79 1.04-8.12 1.87-2.92.42-6.04.84-9.38 1.25-2.91.42-5.41.84-7.5 1.25l-24.37 2.5c-21.25 1.67-37.08 6.46-47.5 14.38m-305-7.5c-.83-2.5-1.88-3.75-3.13-3.75l-3.75.62-1.87-1.87-1.25-2.5-1.88-1.25 1.88-8.75a14.44 14.44 0 0 0-1.88-3.13h-1.25c-2.91 0-4.37 2.5-4.37 7.5 0 10 4.17 14.59 12.5 13.75l5-.62m-5.63-18.75-.62.62v1.25c0 .84.2 1.46.63 1.88l1.24 1.87 1.25-5.62h-2.5m6.88 2.5c0 7.5 3.12 12.7 9.38 15.62l-.63 1.88h-3.13l.63 1.25c-5.42 1.67-8.54 5.63-9.38 11.87l4.38-3.12 8.75-3.75 2.5-5.63c1.25-1.66 4.8-2.5 10.63-2.5H230.63c3.33-.41 6.46-.83 9.38-1.25-6.26-1.66-11.46-2.5-15.63-2.5-3.33 0-5.63.21-6.88.63l-6.87.62-9.38.63a11.86 11.86 0 0 0-5-8.75l-1.87-.63-6.25-4.37m419.38 45.62.63-3.12-5-5c-1.67-1.67-3.13-5-4.38-10a19.5 19.5 0 0 0-1.25-3.75v-3.13c0-1.66.2-2.7.63-3.12l3.12-10-6.25 6.25v5l-.63 5 .63 5 1.88 5c1.66 7.08 4.58 11.04 8.75 11.87h1.87m-260 3.75 3.75 5.63 1.88 3.75 8.75 18.75a114.5 114.5 0 0 1-1.88-8.75c-.42-2.5-.83-4.58-1.25-6.25-7.08-19.17-10.63-29.8-10.63-31.88 0-7.08 2.3-10.62 6.88-10.62 1.67 0 3.54.62 5.63 1.87l-.63 2.5c0 2.92.63 4.38 1.88 4.38 3.33 0 5-2.7 5-8.13 0-6.24-3.34-9.37-10-9.37-9.59 0-14.38 6.67-14.38 20 0 3.33.42 5.42 1.25 6.25l2.5 5.62 1.25 6.25m231.88-36.87c-.83 8.33-6.67 12.3-17.5 11.87h-3.13c-1.25-.41-3.12-.62-5.62-.62h-8.75c10 2.5 17.92 3.75 23.75 3.75 10 0 15-3.54 15-10.63 0-.83-1.25-2.29-3.75-4.37m-271.88 3.75v3.12c-.83 3.34.42 6.46 3.75 9.38.42 1.67 1.87 2.92 4.38 3.75l2.5 3.12c1.25 2.5 1.87 4.38 1.87 5.63 0 1.67-2.08 2.3-6.25 1.87h-3.13l-12.5-12.5a108.78 108.78 0 0 0-9.37-3.75l-23.13-5-11.25 1.88a35.59 35.59 0 0 0-10 3.75c-2.5 1.67-3.75 2.92-3.75 3.75 0 1.67 2.92 3.13 8.75 4.37l.63 2.5c-8.33.84-12.7 3.96-13.13 9.38l-.62 6.25 1.87 3.75c6.67-8.75 16.88-13.13 30.63-13.13 8.33 0 14.17.84 17.5 2.5l4.38 1.88 6.25 1.87 3.12 2.5 10 4.38 5.63 4.37 5 4.38c15 12.08 26.04 29.8 33.12 53.12l4.38 3.75 9.37 2.5-3.75-28.12c-2.08-13.33-8.54-27.92-19.38-43.75-10.83-16.25-23.12-28.75-36.87-37.5m-115.62 27.5c-4.17 4.17-9.8 11.25-16.88 21.25l-1.25 3.12-4.37 10c-3.33 10.42-4.8 19.38-4.38 26.88l.63 11.87.62-.62v7.5c-.41 1.25.42 5 2.5 11.25 4.17-1.67 6.25-3.33 6.25-5l-3.12-9.38c-1.25-2.91-1.88-8.33-1.88-16.25 0-25.83 11.05-46.87 33.13-63.12 12.92-10 25-15 36.25-15l10-5 5.62-2.5h-3.12l-1.88-.63h-3.12c-17.08 0-35.42 8.55-55 25.63m412.5-20.63-.63 4.38c5.84 0 10.84 2.08 15 6.25 2.09 3.33 3.13 5.2 3.13 5.62 0 1.67-.63 3.76-1.88 6.25l-.62 3.75h1.25c2.92 0 4.37-2.91 4.38-8.75 0-9.58-6.88-15.41-20.63-17.5m-34.38 13.13c-15.41-7.92-29.79-11.25-43.12-10h-3.13l-8.75 1.25c-4.16.42-6.25 1.46-6.25 3.12 0 2.09 1.25 3.13 3.75 3.13h.63c2.5 0 6.67-.63 12.5-1.88l3.13-.62c.83 0 1.87.2 3.12.62a27 27 0 0 1 5 .63l16.25 3.75 11.88 4.37h1.87c1.67 0 2.7-1.45 3.13-4.37m23.75 32.5c-4.17 2.92-7.92 4.38-11.25 4.37-9.59 0-14.38-5-14.38-15 0-3.74 1.04-6.66 3.13-8.75l6.25-8.75 3.75-5 10-6.25-1.25-2.5c-16.67 8.76-25 19.8-25 33.13 0 11.67 4.37 17.5 13.12 17.5s14.17-1.25 16.25-3.75v-1.25c0-1.67-.2-2.92-.63-3.75m-360-38.13c-17.5 4.17-30.2 11.25-38.12 21.25l-3.13 4.38-5.62 7.5-.63 3.12-2.5 5-.62 4.38-1.25 6.25 1.25 6.25 1.25 10.62 1.87 1.25 1.88 3.75c7.08 7.09 13.96 10.63 20.62 10.63 2.09 0 3.13-.63 3.13-1.88 0-.83-1.04-2.91-3.13-6.25 12.5-4.16 18.75-10.83 18.75-20 0-12.08-4.58-18.12-13.75-18.12-6.25 0-9.37 3.33-9.37 10 0 3.33 1.46 5.2 4.37 5.62l-.62-3.12c0-2.92 1.67-4.37 5-4.38 2.5 0 4.17.21 5 .63 2.08 3.33 3.12 5.2 3.12 5.62 0 2.5-.83 5.42-2.5 8.75-3.75 4.17-7.7 6.26-11.87 6.25-2.92 0-5-.2-6.25-.62l-4.38-3.13c-3.75-5.41-5.62-10.2-5.62-14.37 0-20 14.17-36.04 42.5-48.13l.62-1.25m285 5.63c2.92 1.67 5.42 2.5 7.5 2.5l5.63-.63c8.75 0 14.58 3.34 17.5 10l.63 3.13c0 3.75-2.09 5.63-6.25 5.62-2.5 0-5.42-1.66-8.75-5 1.25 7.5 5.62 11.25 13.12 11.25.83 0 1.67-.41 2.5-1.25l2.5-3.75 2.5-1.87a4.24 4.24 0 0 0 1.25-3.13c0-12.91-9.17-18.95-27.5-18.12l-4.38.62-6.25.63m-351.88-.63c-1.25 2.5-1.87 4.59-1.87 6.25 0 2.5.2 4.17.62 5l.63-.62 1.87 3.12 3.13 1.88c5.42-.83 9.17-2.3 11.25-4.38l3.12-2.5 4.38-3.75 4.37-5-14.37 8.75-3.75.63c-4.58 0-7.7-3.12-9.38-9.38m448.75 1.25-6.87 16.25 3.13 2.5c2.08-3.33 3.95-8.54 5.62-15.62.83-.83.2-1.87-1.88-3.13m-397.5 16.88-.62-6.25 6.87-5.63-1.25-.62-4.37 1.87-5 3.75c-1.67 1.25-2.5 3.13-2.5 5.63 0 4.58 2.08 6.88 6.25 6.87 1.67 0 2.5-.62 2.5-1.87s-.63-2.5-1.88-3.75m14.38 8.75 2.5 3.12-1.25 1.25c-2.08-1.25-3.96-3.33-5.63-6.25.42 11.25 5.42 16.88 15 16.88 6.25 0 10.21-2.08 11.88-6.25l4.37-11.25c.84-2.08 2.5-3.12 5-3.13.42 0 2.3.42 5.63 1.25l-1.25 7.5 3.13.63c2.5 0 3.74-1.46 3.75-4.38 0-7.08-3.34-10.62-10-10.62-6.67 0-10.84 1.46-12.5 4.37l-3.76 4.38-3.75 1.87-8.75-1.87-3.12-6.88 1.25-10-6.25 8.75v1.88c0 2.92 1.25 5.83 3.75 8.75m348.75-20c-1.67 1.67-2.5 3.13-2.5 4.37l5.63 5.63a76.37 76.37 0 0 1 6.25 5.62l2.5 2.5 5.62 6.88 1.25 3.75c3.75 8.33 5.62 13.54 5.63 15.62 0 3.76-.63 8.96-1.88 15.63-4.58 5-7.92 7.5-10 7.5-2.92 0-4.8-.2-5.63-.63.42 5 1.67 7.5 3.75 7.5h2.5c1.25-.41 2.92-.83 5-1.25l-.62 2.5-.63 6.88 7.5-4.38 3.13-5 2.5-2.5 1.25-6.25.63-4.37v-7.5l1.87-1.25.63.62c.41 2.92.62 5.63.62 8.13.42 2.08.63 3.96.63 5.62 0 3.76-1.25 9.59-3.75 17.5a19.3 19.3 0 0 0-1.25 3.75 59.3 59.3 0 0 0-1.25 4.38l-5 11.25c-4.17 4.17-6.88 8.75-8.13 13.75l.63 4.37 6.87-3.12c1.25 0 1.87.42 1.88 1.25 0 1.67-1.05 4.17-3.13 7.5-.42.42-.63 2.5-.63 6.25v6.87c1.67 10 7.5 15.42 17.5 16.25a30.68 30.68 0 0 1-9.37-22.5 30 30 0 0 1 1.88-10.62l8.12-23.13 3.13-19.37v-.63c0-2.08-.21-4.16-.63-6.25-1.67-34.16-15.83-58.54-42.5-73.12m-283.75 31.87a10.89 10.89 0 0 0 5.63 3.13l-1.25-1.88-5-5c-1.25-.41-1.88-1.45-1.88-3.12 0-.42.42-2.7 1.25-6.88 2.92 0 5-.62 6.25-1.87-1.67-1.67-3.13-2.5-4.38-2.5-3.75 0-5.83.62-6.25 1.87l-1.87 9.38c0 1.67 2.5 3.96 7.5 6.87m308.75-15.62 5.63 8.12c1.66 4.17 3.95 6.26 6.87 6.25 3.33 0 4.8-1.45 4.38-4.37v-1.88c-5.84-.83-11.46-3.54-16.88-8.12m-174.38 8.12c-2.08 2.09-3.13 3.96-3.13 5.63s2.09 4.38 6.25 8.12c2.92 2.5 5.84 3.76 8.75 3.75h1.25c.84-.41 2.09-.83 3.75-1.25l1.25-4.37-10-3.75-8.12-8.13m40 3.75c3.33 1.25 5 2.92 5 5l-.63.63-10 19.37-2.5 3.13 4.38-3.13 3.75-5.62 4.38-5 2.5-5.63 1.87-1.87c.42-.42.63-1.67.63-3.75 0-3.33-2.09-5-6.25-5-1.67 0-2.71.62-3.13 1.87m7.5 15.63c-.83.83-1.88 2.08-3.13 3.75a61.9 61.9 0 0 0-4.37 5l-3.75 6.87c-1.25 2.92-2.08 4.8-2.5 5.63-.42.83-.63 2.7-.63 5.62a15.2 15.2 0 0 0-4.37 9.38c2.92-.42 4.8-1.87 5.63-4.38l3.12-12.5 5.63-5.62 3.75-6.88c1.66-3.33 7.91-7.91 18.75-13.75 5.83-3.33 11.87-5 18.12-5 16.25 0 27.7 5.21 34.38 15.63l2.5 3.75c1.25 1.25 2.5 2.7 3.75 4.37h1.87c1.25 0 1.87-.62 1.88-1.87 0-.83-.63-2.3-1.88-4.38l-3.75-5.62c-7.92-11.67-18.96-17.5-33.13-17.5l-2.5.62h-3.12c-1.25 0-2.5.21-3.75.63l-6.25.62-9.38 3.13-5.62 3.75-4.38 1.87-6.87 6.88m68.13-14.38 4.37 2.5 5 1.88 21.25 13.12c5 2.09 8.54 3.13 10.63 3.13 7.08 0 10.62-3.12 10.62-9.38 0-1.25-.83-2.7-2.5-4.37-.83 6.25-3.54 9.38-8.13 9.37-3.75 0-6.45-.62-8.12-1.87l-20-11.25-7.5-2.5-5.63-1.88v1.25m-307.5 28.75 5.63-3.12 3.75-6.25c4.58-8.33 14.38-12.5 29.38-12.5 11.66 0 21.25 4.58 28.75 13.75s11.25 20.83 11.25 35c0 11.25-.84 18.33-2.5 21.25l-5 8.75c-2.09 4.17-3.34 6.46-3.75 6.87l-13.13 11.88c-1.25.83-1.88 1.88-1.88 3.12 0 1.25.42 2.3 1.25 3.13-.41 0 4.59-4.58 15-13.75 10.84-9.58 16.25-23.33 16.25-41.25 0-21.67-8.75-37.3-26.25-46.88l-7.5-4.37-8.12-2.5h-1.25l-10.63-1.25c-1.66 0-3.95.62-6.87 1.87l-5 1.88c-10.83 4.17-17.3 12.3-19.38 24.37m85.63-17.5-3.75 3.13v6.87l5-4.37c.42-.42 1.25-.63 2.5-.63 2.5 0 6.04 2.92 10.63 8.75.41.42.83 1.05 1.25 1.88l3.12 3.12c-4.58-11.66-10.83-17.91-18.75-18.75m105.62 0-5 8.75-1.88 4.38-.62 4.37-2.5 6.88c-1.25 2.08-1.88 5.42-1.88 10l-.62 6.87 8.13-3.75 3.12-11.87 5.63-15 2.5-6.25-6.88-4.38m65 3.13-5.63 1.25-3.75 4.37-6.25 4.38-1.87 4.37c-3.33 5-5.63 9.38-6.88 13.13l-1.87 5 2.5-.63 1.25-4.37 4.38-5.63.62-4.37h1.88c.83 0 2.29-1.04 4.37-3.13 4.58-5.83 10.2-8.74 16.88-8.75 6.24 0 11.04 2.3 14.37 6.88.83 3.33 1.25 5.42 1.25 6.25 0 5-3.13 7.5-9.38 7.5-4.16 0-7.7-2.5-10.62-7.5-.42.42-.63 1.46-.63 3.12 0 5.42 4.38 8.13 13.13 8.13 9.17 0 13.75-5 13.75-15 0-4.58-1.88-8.75-5.63-12.5s-8.12-5.62-13.12-5.63l-1.25.63-7.5 2.5m-319.38-.63c-2.08 9.17-3.13 14.59-3.13 16.25l.63 5.63v-1.25 1.25l1.25 5.62 1.25 2.5c3.33 2.09 5.2 3.13 5.63 3.13 2.08 0 3.95-2.08 5.62-6.25l-6.25 1.25-3.13-3.13-2.5-10 .63-8.12v-6.88m121.88 3.75c-3.33-2.08-5.83-3.12-7.5-3.12-2.5 0-3.75 1.67-3.75 5s1.04 5.42 3.13 6.25l2.5.62v-4.37l5.62-4.38m149.38-.62c-4.58 1.67-7.92 5.42-10 11.25l-3.75 8.75c7.92-8.75 13.13-13.13 15.63-13.13 2.91 0 4.37 1.46 4.37 4.38 0 1.67-.42 2.5-1.25 2.5l-3.75 1.87 1.25 1.88.63.62c5.83 0 8.74-3.12 8.75-9.37 0-6.25-3.34-9.17-10-8.75h-1.88m125.62 3.12-4.38 5c-3.75 2.09-9.16 4.17-16.25 6.25-6.66 1.67-11.04 4.59-13.12 8.75l-2.5-.62-1.25-5.63c-13.33 5.84-20 14.17-20 25v1.25l1.88 5-.63 3.75 1.25 5.63c.42 2.5 1.67 3.75 3.75 3.75s2.92-.63 2.5-1.88v-10c.83-.83 1.67-1.25 2.5-1.25.83.84 1.25 1.46 1.25 1.88 0 0-.2.42-.63 1.25 0 .42-.2 1.25-.62 2.5l.63 6.25c2.08-.83 3.12-1.67 3.12-2.5v-2.5l2.5-.63 1.25 1.88 5.63-5 5.62-7.5 6.25-3.75v1.87c.42.84-1.04 2.92-4.38 6.25-1.66 1.67-2.91 2.71-3.75 3.13l-4.37 4.37a8.48 8.48 0 0 0-2.5 6.25c0 2.5.83 3.76 2.5 3.75 1.25 0 4.8-2.5 10.63-7.5l1.25 1.25-4.38 5.63-2.5 1.25 8.13-1.25.62 1.87c8.75-1.25 16.04-5 21.88-11.25 5.83-6.24 8.54-13.33 8.12-21.25v-3.75l-6.88 3.13 1.88-13.13c.83-3.33 1.25-5.2 1.25-5.62 0-3.75-2.08-7.7-6.25-11.88m-344.38 26.25 1.88.63c1.66 0 3.12-1.25 4.37-3.75l6.25-2.5 14.38-8.13c5.41-2.91 12.91-4.37 22.5-4.37h3.75c2.91 0 5 .2 6.25.62a20.46 20.46 0 0 0-15-6.25c-13.75 0-25.42 4.17-35 12.5l-8.75 7.5-1.88 1.25c-1.67.42-2.5 1.88-2.5 4.38 0 1.67.83 2.5 2.5 2.5 1.25 0 1.87-.63 1.88-1.88 0-1.25-.21-2.08-.63-2.5m45-15.62-13.75 3.12-8.13 3.13-18.75 11.87-5.62 7.5-3.75 5.63-2.5 5-1.88 10.62.63 6.25c1.25 6.67 7.3 10 18.13 10 2.5 0 11.45-2.91 26.87-8.75 2.92-1.25 4.8-2.29 5.63-3.12 0-1.67-3.96-4.58-11.88-8.75l-5-1.25-5 1.25-6.25-1.88v-1.25c-.42-.41-.63-1.45-.63-3.12 0-3.75 2.3-6.87 6.88-9.38l4.38-2.5 2.5-2.5c1.66-1.25 4.58-1.87 8.75-1.87 2.5 0 4.58.83 6.25 2.5v2.5c0 1.67-1.05 3.54-3.13 5.62l10 8.13 1.25 1.87 2.5 1.88h3.13c2.91-1.25 6.24-6.46 10-15.63l3.12-6.87c.42-.42.63-1.87.63-4.38 0-11.25-6.05-16.45-18.13-15.62h-6.25m161.25 13.12-1.25.63v2.5c.83 2.08.2 3.75-1.88 5-7.08 5-19.79 7.92-38.12 8.75-1.25.42-3.13.62-5.63.62-24.58 0-37.7-4.58-39.37-13.75-.42-1.25-.83-2.29-1.25-3.12-.42-1.25-.83-2.3-1.25-3.13-3.75 3.34-5.63 6.26-5.63 8.75 0 14.17 17.3 21.25 51.88 21.25 35 0 52.5-8.33 52.5-25 0-2.08-.63-3.54-1.88-4.37l-5-3.13-3.12 5m47.5 1.25v6.88l-1.25-.63h-3.75c-5.83 0-10.42.84-13.75 2.5v1.88c-2.5.83-4.58 2.7-6.25 5.62-2.08 5.42-3.13 8.55-3.13 9.38l.63.62c1.67 0 2.7-.2 3.13-.62H460c7.08 0 13.95 3.33 20.62 10l1.25 1.87c6.25 6.26 11.46 9.38 15.63 9.38 2.5 0 4.16-1.04 5-3.13h-.63c-3.33 0-5.63-1.45-6.88-4.37l4.38.62c1.67.42 2.7.84 3.13 1.25h1.87c1.67 0 2.5-.62 2.5-1.87s-.2-2.08-.63-2.5l-1.87-1.25-8.13-3.13-6.25-3.75c-1.66-1.66-2.5-3.12-2.5-4.37l3.13-.63 1.25 2.5.63.63c.83.42 1.87 1.04 3.12 1.87l5.63 3.13a8.48 8.48 0 0 0 6.25 2.5l6.25-1.25-11.25-5.63v-.62l-.63-.63c0-.83.63-1.66 1.88-2.5.41 0 2.08 1.05 5 3.13 2.91 2.08 4.79 3.13 5.62 3.12-.83-5.83-3.75-9.79-8.75-11.87l-.63-1.88 6.88 1.88c-.83-5.42-3.33-9.58-7.5-12.5l-21.25-5.63m-260 14.38 1.25-5c0-2.5-.63-3.75-1.88-3.75-.83 0-1.25.83-1.25 2.5 0 1.25.63 3.33 1.88 6.25m385-6.88-3.13 6.88-5 6.87-7.5 3.13c-1.66.42-2.5 1.46-2.5 3.12.84.84 1.67 1.25 2.5 1.25 9.17 0 14.38-7.08 15.63-21.25m-388.75 13.75c1.25-2.5 1.87-4.37 1.88-5.62 0-2.5-.84-3.75-2.5-3.75-1.25 0-1.88 1.46-1.88 4.37 0 1.67.83 3.34 2.5 5m370.62-7.5c-2.08 0-3.13 1.05-3.13 3.13s1.05 3.13 3.13 3.12c1.67 0 2.5-.83 2.5-2.5l-.63-1.25c-.41-1.66-1.04-2.5-1.87-2.5m-293.75 5c-.42 1.25-.83 2.3-1.25 3.13v1.87c-.42.42-.63 1.46-.63 3.13l1.25 5c.84-7.08 3.13-10.63 6.88-10.63 2.08 0 3.96.84 5.63 2.5.41 1.25.62 3.96.62 8.13 0 2.92-1.67 6.67-5 11.25l-10.63 11.25 10.63-8.13c6.67-5 10-12.08 10-21.25 0-7.5-2.92-11.25-8.75-11.25-1.25 0-4.17 1.67-8.75 5m-41.88-4.37c-1.66 1.67-2.5 3.13-2.5 4.37 0 1.25 3.13 3.13 9.38 5.63 1.67.83 2.92 1.67 3.75 2.5 1.25.42 2.3.83 3.13 1.25l5 4.37c8.74 7.09 13.12 17.5 13.12 31.25 0 6.26-1.04 11.05-3.13 14.38l-7.5 11.25-.62 1.87-1.25.63c-1.67 0-2.7-1.25-3.13-3.75-3.33-1.25-5.62-1.87-6.87-1.88-2.08 0-4.58 1.25-7.5 3.75-5.83 5-9.38 7.92-10.63 8.75-.83.42-2.7.63-5.62.63h-1.88c3.34 5.83 7.92 8.75 13.75 8.75 3.75 0 7.09-1.67 10-5 2.92-3.33 4.8-5 5.63-5 2.92 0 4.37 1.46 4.38 4.37v.63l-5 8.75v3.75c-.84 6.25 2.7 10.2 10.62 11.88l-.63-8.13 6.88-20-.63-1.88-5.62-1.87c-.42-.42-.63-.83-.63-1.25 0-2.5 1.46-5.2 4.38-8.13 5-5.41 7.5-13.95 7.5-25.62 0-18.75-9.38-33.13-28.13-43.13l-6.25-3.12m-76.87 3.75a24.8 24.8 0 0 0-3.75 3.12c-1.25.84-2.7 1.88-4.38 3.13-1.25 1.25-2.08 3.33-2.5 6.25l4.38 3.12 6.88-7.5 6.87-3.75.63-1.25v-1.25c0-2.5-1.25-3.74-3.75-3.75l-4.38 1.88m37.5 3.75-.63 5c0 1.67.84 3.96 2.5 6.87a90.97 90.97 0 0 0 1.25-6.87c0-1.25-1.04-2.92-3.12-5m369.38 0c-2.08 1.25-3.13 2.7-3.13 4.37 0 2.5.84 3.76 2.5 3.75 2.09 0 3.13-1.25 3.13-3.75l-.63-1.25-1.87-3.12m-228.12 3.75-1.25.62v8.75l-1.88 22.5c-.83 5-1.45 8.34-1.87 10l-2.5 5.63-1.88 5-13.75 29.37-7.5 9.38c-6.25 8.75-15.41 17.08-27.5 25l-9.37 5.63-5 4.37c17.92-1.67 35.2-13.96 51.88-36.88 3.33-4.58 6.66-9.58 10-15a172.84 172.84 0 0 0 9.37-17.5c9.17-18.33 13.75-32.29 13.75-41.87 0-.42-.42-2.3-1.25-5.63v-.62l-1.25-6.25-6.25-1.25-3.75-1.25m69.38 43.75 1.25 4.37a219 219 0 0 0 3.75 9.38c1.66 2.92 3.33 6.04 5 9.37l3.12 5 9.38 15.63c2.91-.42 4.37-1.25 4.37-2.5 0 .83-3.96-6.46-11.88-21.88-5.83-10.41-8.95-17.91-9.37-22.5l-1.88-11.25c-1.66-5.41-2.5-10-2.5-13.75v-3.75c.42-7.5-.83-11.25-3.75-11.25-2.91 0-4.37 1.67-4.37 5v.63c.42 7.08.83 13.33 1.25 18.75a78.9 78.9 0 0 0 3.75 15l1.88 3.75m-248.75-36.88c-3.34 2.5-5 5.21-5 8.13v2.5c.41 1.25.83 2.92 1.25 5l4.37 8.75 1.88 2.5 1.87 2.5 3.75 5 2.5 3.12 1.25 3.75 1.88 3.75c.83 3.34 1.25 5.21 1.25 5.63 0 1.25-.63 2.7-1.88 4.37l-1.25 3.75-.63 1.25-2.5 1.25-1.25.63h.63c-.42.42-1.25.62-2.5.62-1.67 0-2.5-.62-2.5-1.87l3.75-8.13-1.25-9.37-2.5-2.5a91.01 91.01 0 0 0-6.88-1.25c-2.5 0-5 2.08-7.5 6.25-.41.83-.62 2.5-.62 5 0 1.67 1.67 3.13 5 4.37 0-6.24 1.67-8.95 5-8.12h3.13c.83 3.33 1.25 4.8 1.25 4.37 0 1.67-.84 3.34-2.5 5l-5 8.13 1.25 1.25v2.5c2.91 1.25 5.41 1.88 7.5 1.87 7.5 0 12.08-3.95 13.75-11.87.41-2.92 1.45-5.2 3.12-6.88l1.25.63c.83 0 2.08.2 3.75.62l1.88.63c.83 0 1.45-.83 1.87-2.5v-5a22.63 22.63 0 0 0-3.75-16.25l-1.88-1.25-8.75-5.63c-4.16-1.66-6.25-3.74-6.25-6.25 0-2.5 1.67-3.74 5-3.75.84 0 1.88.63 3.13 1.88l1.25 3.75 1.88 3.75 3.75 1.87 5 3.75h.62c.83 0 2.92-.41 6.25-1.25.83-.83 1.25-1.45 1.25-1.87 0-2.08-.83-3.96-2.5-5.63 3.75-1.25 6.04-3.54 6.88-6.87l-6.88-1.88-3.13-1.87-3.75-1.88-.62-1.25-4.38-5.62-3.12-1.88-4.38-2.5c-.41-.41-1.25-.62-2.5-.62-3.33 0-7.5 1.88-12.5 5.62m235.63-3.12-2.5.62v75c0 11.67 2.7 20.84 8.12 27.5L415 529.17v-88.75c0-2.08-.83-3.33-2.5-3.75m-40.62 0v87.5c0 11.25-7.08 20.2-21.25 26.88l-13.75 2.5h-.63l-18.75 3.12c-1.25 1.25-1.87 2.3-1.87 3.13 0 4.58 7.3 6.45 21.88 5.62h1.25l61.87-2.5c3.33-.42 6.25-.42 8.75 0 2.92 0 5.83.2 8.75.63l23.13 2.5h9.37c8.33 0 12.5-1.25 12.5-3.75 0-1.67-.2-2.71-.63-3.13l-5-1.25-27.5-6.88-4.37-2.5-3.13-1.25c-10.41-5.41-15.62-13.54-15.62-24.37v-85h-23.13l-5.62-.63-6.25-.62M475 467.29c.42-1.25.63-3.33.63-6.25 0 .84-1.67-2.7-5-10.62a112.57 112.57 0 0 1-3.75-8.13 19.47 19.47 0 0 0-1.25-4.37l-.63-.63h-3.75v5c.42 5.42 5 13.75 13.75 25m115-27.5c-1.25 0-1.88.63-1.88 1.88 0 2.08 1.05 3.13 3.13 3.12 2.08 0 3.12-.83 3.13-2.5 0-2.08-1.25-2.91-3.75-2.5H590m-80 10.63-4.38 5.62-1.25 1.88-2.5 4.37-1.25 5-1.87 6.88c-.42.42-.63 1.88-.63 4.37v6.88c.42 2.5.84 5.42 1.25 8.75l4.38 15 1.25 2.5a23.53 23.53 0 0 0 5.63 9.37l1.25 2.5 7.5 10.63 3.12 2.5 3.75 3.75 7.5 6.88 3.13 5 1.87 3.75 3.75 8.75 3.75-5.63 1.25-5 3.13-2.5.62-1.25c0-1.67-2.7-5.2-8.13-10.63l-1.25-1.87-3.75-2.5-11.25-9.38-3.75-5c-5.83-9.16-8.33-16.66-7.5-22.5v-5.62c.84-4.58 1.67-6.87 2.5-6.88l2.5.63a28.9 28.9 0 0 0-2.5 11.87c0 5 1.88 11.25 5.63 18.75l3.13 3.13a23.5 23.5 0 0 0 6.87 7.5l3.13 3.13c6.66 5 13.95 7.5 21.87 7.5 8.33 0 15.42-2.92 21.25-8.75l-6.88-1.88c5.84-5 8.75-9.17 8.75-12.5 0-3.75-.83-7.3-2.5-10.63-3.75-4.16-7.08-6.24-10-6.25-2.08 0-4.58 1.25-7.5 3.75 4.17.42 7.5 2.3 10 5.63v6.25c0 2.5-1.45 5.2-4.37 8.13l-1.25 1.25c-4.17 2.91-8.33 4.37-12.5 4.37-6.67 0-11.46-1.87-14.38-5.63l-4.37-5.62-3.13-2.5c-1.25-1.25-1.87-4.58-1.87-10v-2.5c0-2.08-.2-3.75-.63-5-.83-7.08 0-10.63 2.5-10.63l10.63-18.12c.83-2.5 1.25-4.37 1.25-5.63 0-7.91-1.88-12.29-5.63-13.12l-3.12-1.25-1.88-2.5h-2.5l-10-1.25h-1.25c-.83 0-3.95 2.08-9.37 6.25m83.13 3.75c-5 0-7.71-2.5-8.13-7.5h-1.88a19.47 19.47 0 0 1-1.25 3.75v1.25c0 4.17 2.09 6.25 6.25 6.25 1.25 0 2.92-1.25 5-3.75M315 462.29l2.5-.62 14.38-6.25c1.67 0 4.37 1.25 8.13 3.75l2.5 2.5c.83 2.5 1.25 3.54 1.25 3.12 0 2.5-1.67 4.38-5 5.63-.42.42-1.46.62-3.13.62L330 469.8l.63 1.88c.42 1.67 1.25 2.5 2.5 2.5l5 .62 2.5.63c1.25 0 2.3-1.04 3.13-3.13l1.25-2.5 3.12-3.75c0-2.08.2-3.54.63-4.37v-1.88c.41-7.91-3.96-11.87-13.13-11.87-3.75 0-7.3 1.04-10.63 3.12-2.91 1.67-6.25 5.42-10 11.25m248.75-13.12-1.87 1.25v1.87l-5.63-1.25-4.37.63 3.13 1.87 1.25 1.88 1.87 1.87 5.63 4.38 1.25 2.5c3.33 3.33 5 6.04 5 8.12l-.63 2.5v-.62h-2.5a56.96 56.96 0 0 0-4.38-6.25c-1.25-2.5-2.7-4.8-4.37-6.88-2.92-2.91-6.67-5.2-11.25-6.87 0 4.58 2.08 7.7 6.25 9.37l1.25 3.13-4.38-1.25-2.5-1.88c-.83 4.17-1.25 6.05-1.25 5.63 0 2.08 2.3 4.17 6.88 6.25l.63 1.87H550l-2.5-1.87c0 2.92 1.04 5.42 3.12 7.5 1.67 3.75 4.37 6.04 8.13 6.87l13.12 3.13 7.5 3.12c.83-4.16 1.46-7.08 1.88-8.75.83-2.08 1.25-3.33 1.25-3.75 0-.41-.21-1.25-.63-2.5 0-1.25-.2-2.91-.63-5 3.75 0 5.63-1.45 5.63-4.37s-1.04-6.04-3.13-9.38c-4.58-7.08-7.91-10.62-10-10.62-.83 0-1.45.62-1.87 1.87l-8.13-4.37m-116.88 21.25c-2.08-3.33-3.12-6.04-3.12-8.13 0-4.58 2.7-6.87 8.13-6.87 2.91 0 7.91 3.13 15 9.37l2.5 2.5c.83.84 2.08 1.67 3.75 2.5-7.09-13.75-15-20.62-23.75-20.62-8.34 0-12.5 3.75-12.5 11.25 0 5 3.33 8.33 10 10m35-4.38c-.42 1.25-.63 3.55-.63 6.88l1.25 6.25 1.25 1.87.63 2.5c7.08-2.5 10.62-4.79 10.62-6.87l-.63-6.25 2.5-5.63-1.25-1.87-.62 2.5-3.13 2.5-1.25-1.88 5-7.5-6.25.63-1.25-3.75c0-.42-.41-.63-1.25-.63-5 0-7.5 2.92-7.5 8.75 0 1.25.84 2.09 2.5 2.5m110 5.63c5-2.92 7.5-6.25 7.5-10-.41-2.92-1.04-4.37-1.87-4.38-.42.42-1.04.84-1.88 1.25l-1.87 1.88-2.5 2.5.63 8.75m-347.5-13.13c-5.42 1.67-8.13 3.96-8.13 6.88 0 .83.63 1.88 1.88 3.12v-1.25c0-1.66 1.45-2.5 4.37-2.5 5.42 0 8.12 1.05 8.13 3.13 0 4.17-3.34 6.25-10 6.25-4.59 0-12.3-1.67-23.13-5 6.67 5.42 15.83 8.13 27.5 8.12 7.5 0 11.25-3.54 11.25-10.62 0-4.58-2.3-7.3-6.88-8.13h-5M210 472.3l-.63 3.13c0 2.5 2.71 4.58 8.13 6.25l6.88 2.5a80.46 80.46 0 0 0 24.37 3.75h3.75c1.67-.42 3.54-.83 5.63-1.25l12.5-2.5c3.74-.83 6.04-1.46 6.87-1.88.83-.41 1.87-2.29 3.13-5.62l-6.88.62-8.13 2.5c-2.08.42-4.79.84-8.12 1.25h-11.25c-10 0-18.13-1.45-24.38-4.37L210 472.29m384.38 5c-6.67 6.67-10 13.55-10 20.63 0 13.75 5.83 20.62 17.5 20.62-.42 0 1.46-.41 5.63-1.25 6.66-4.16 10-9.16 10-15a8.11 8.11 0 0 0-4.38-7.5v5c.42 2.09-.63 4.38-3.13 6.88-2.5 2.08-4.79 3.13-6.87 3.12-2.5 0-4.58-.62-6.25-1.87-5.83-3.33-8.75-7.7-8.75-13.13 0-1.25.2-2.08.63-2.5l1.25-4.37 1.25-4.38 7.5-9.37-1.88-.63-2.5 3.75m-145 26.88 8.13 15h3.12l-3.75-5.63-2.5-3.75c-2.5-3.74-3.75-8.95-3.75-15.62 0-8.75 3.96-13.13 11.88-13.13 6.66 0 10 2.92 10 8.75 0 3.76-2.92 6.26-8.75 7.5a8.3 8.3 0 0 0 5 1.88c5.83 0 8.74-3.12 8.75-9.38 0-3.33-1.67-6.45-5-9.37-2.92-2.92-6.05-4.37-9.38-4.38-10.83 0-16.25 5.84-16.25 17.5 0 3.34.83 6.88 2.5 10.63m92.5-26.25c-5.42 6.67-8.13 12.7-8.13 18.12 0 3.34 1.67 6.05 5 8.13l1.88.62c1.67 0 3.54-2.91 5.63-8.75l1.25-1.87 3.12-.63c.83-.83 1.25-1.45 1.25-1.87v-.63l-4.38-4.37-2.5-5.63-3.12-3.12M210 484.79c3.33 0 5.83 1.67 7.5 5a16.35 16.35 0 0 0 7.5 7.5l-1.88 5.63 3.75-1.25c1.25 0 1.88-1.25 1.88-3.75 0-4.17-.83-6.87-2.5-8.13l-11.88-5.62-3.75-1.25-.62 1.87m101.88 35 1.88-8.12-5-11.25c-.84-2.5-1.25-3.54-1.25-3.13 0-4.58 2.5-6.87 7.5-6.87 2.08 0 4.58 1.46 7.5 4.37l1.87 2.5c.42 2.09.63 3.76.63 5 .41 1.25.62 2.09.62 2.5 0 13.75-10.83 27.71-32.5 41.88 10-4.17 18.96-11.04 26.88-20.63 7.91-9.58 11.87-18.33 11.87-26.25 0-4.16-1.88-7.91-5.63-11.25-3.33-3.33-7.5-5-12.5-5-8.33 0-12.5 4.8-12.5 14.38 0 3.33.21 5.2.63 5.62l6.88 10 1.87 5.63 1.25.63m158.75-15h-1.88c-1.66 5-2.5 8.95-2.5 11.87 0 2.08.63 5 1.88 8.75l1.25 1.25-2.5.63c-4.58-3.34-8.13-5-10.63-5-1.66 0-2.5 1.25-2.5 3.75 0 1.66.63 3.95 1.88 6.87l.63 5 4.37 5.63 3.75 5c7.5 6.25 16.46 10.83 26.88 13.75 1.66.41 3.95 1.25 6.87 2.5 2.92.83 6.67 2.29 11.25 4.37l.63 2.5-3.75 1.25-1.88-1.25-1.88-.63-10.62-1.87-8.13.63h-5l-6.87 2.5-5 1.87-6.25 2.5-7.5 3.13 6.25 3.12c-2.08 3.33-3.13 5.83-3.13 7.5 0 7.08 3.96 10.63 11.88 10.63 4.17 0 7.08-1.46 8.75-4.38h-4.38c-3.75-1.67-5.62-3.54-5.62-5.63 0-8.75 9.8-13.12 29.38-13.12H500c2.91 0 5 .2 6.25.63l46.87 3.75c11.25.83 21.67-.42 31.25-3.75.83-.42 2.7-1.05 5.63-1.88a381.2 381.2 0 0 1 12.5-5c1.25-.83 3.33-1.46 6.25-1.88 2.91-2.91 4.58-5.62 5-8.12 0-2.08-1.46-3.13-4.38-3.13-2.08 0-5 1.25-8.75 3.75-3.33 2.09-5.83 3.34-7.5 3.75-.83 0-4.38.84-10.63 2.5l-7.5 1.88-6.25.63h-14.37c-3.33-.42-6.25-.84-8.75-1.25l-6.25-1.25a71.62 71.62 0 0 0-6.88-1.25l-1.87-1.25-6.25-1.25a475.12 475.12 0 0 0-15.63-7.5c-4.16-2.09-7.29-3.96-9.37-5.63l-1.88-2.5-3.75-4.38c-8.33-10.83-12.5-18.95-12.5-24.37 0-7.5 2.92-11.25 8.75-11.25 3.34 0 5 1.46 5 4.37 0 2.92-2.08 5.21-6.25 6.88l-.62 1.25c.42.42 1.46.63 3.13.63 4.16 0 6.24-2.92 6.25-8.75 0-10-5.21-15-15.63-15-3.75 0-7.5 2.08-11.25 6.24m-266.25 2.5a6.95 6.95 0 0 0-3.13-.62c-2.08 0-3.12.62-3.12 1.87s1.04 1.88 3.13 1.88c1.25 0 2.29-1.04 3.12-3.13m6.25.63c-1.67 1.25-2.5 2.3-2.5 3.12 0 2.09.83 3.13 2.5 3.13 2.5 0 3.75-1.25 3.75-3.75v-.63l-3.75-1.87m209.38 8.75a17.5 17.5 0 0 1 8.75-2.5c1.25 0 2.3.42 3.13 1.25l16.25 16.25c.41.42.83.63 1.25.63.41 0 .62-.21.62-.63 0-1.67-.2-2.7-.63-3.13l-2.5-3.12-6.87-10c-3.33-4.58-7.7-6.87-13.13-6.88-4.16 0-6.45 2.71-6.87 8.13m-228.12-6.25c-1.67 0-2.5.83-2.5 2.5.83.83 1.67 1.25 2.5 1.25h.63c1.66-.42 2.5-1.25 2.5-2.5-.84-1.25-1.67-1.87-2.5-1.88l-.63.63m8.13 3.12c-2.92.42-4.38 2.3-4.38 5.63 0 4.58 2.3 6.88 6.88 6.88 3.33 0 5-2.3 5-6.88 0-3.75-2.09-5.62-6.26-5.63h-1.25m9.38 14.38c.42 2.5 2.3 3.75 5.63 3.75l11.87.63c1.67 0 5.42-.63 11.25-1.88l10-2.5 6.25-3.75a58.46 58.46 0 0 1 7.5-5c.83-.83 1.25-1.67 1.25-2.5v-2.5l-12.5 8.75c-5.42 4.17-13.33 6.25-23.75 6.25h-8.13a541.5 541.5 0 0 0-9.37-1.25m5-10.63c-2.08.84-3.13 2.09-3.13 3.75 0 2.5 1.46 3.76 4.38 3.75 2.92 0 4.37-1.45 4.38-4.37 0-2.5-1.46-3.75-4.38-3.75l-1.25.63m-21.88 4.37-.62-3.13c-.42-.41-1.04-.62-1.88-.62-1.66 0-2.7.83-3.12 2.5v1.25c0 3.75 1.46 5.63 4.38 5.63 2.08 0 3.12-1.05 3.12-3.13l-.63-.63-1.25-1.87m142.5 7.5c-.83.42-2.7 2.08-5.62 5-2.5 2.92-4.38 5-5.63 6.25l-2.5 2.5-5 3.13-15 10.62c-.41.42-.62.83-.62 1.25 0 .83-.2 1.46-.63 1.88 2.92-1.25 8.13-4.38 15.63-9.38l5-5 9.38-7.5 14.37-11.25c3.33-.83 5.42-1.25 6.25-1.25 1.25 0 3.54 1.04 6.88 3.13v1.25c0 2.91-2.09 5-6.25 6.25 2.08 2.08 3.54 3.12 4.37 3.12 5.83 0 8.75-3.54 8.75-10.63 0-6.66-3.96-10-11.88-10-3.33 0-6.04 1.05-8.12 3.13l-3.13 2.5-6.25 5m265.63-7.5c-2.5.83-3.76 1.88-3.75 3.13 0 2.08 1.04 3.12 3.12 3.12 2.5 0 3.75-.83 3.75-2.5l-.63-1.25-2.5-2.5m10 0c-1.66 0-2.7.83-3.12 2.5v1.25c0 1.67.83 2.5 2.5 2.5 2.92 0 4.37-1.46 4.38-4.38 0-1.25-1.25-1.87-3.75-1.87m-325.63 25 5.63-3.75c6.67-4.17 10-7.92 10-11.25 0-4.17-1.88-6.25-5.63-6.25l-1.87.63-1.88 1.87 3.13 3.75c.42.42.63 1.25.63 2.5s-.42 2.3-1.25 3.13l-6.25 5.62-4.38 2.5 1.88 1.25m135-20v3.13c13.75 2.08 24.16 6.66 31.25 13.75l2.5 3.12 4.37 3.13c7.92 8.75 16.25 13.75 25 15l.63-1.25-3.75-1.88-5.63-3.13-7.5-4.37-5-3.13c-7.08-10-15.42-16.66-25-20l-7.5-3.12c-3.33-1.25-5.63-1.67-6.88-1.25h-2.5m166.88 5c0 2.5 1.25 3.75 3.75 3.75 3.75 0 5.63-2.08 5.63-6.25 0-1.25-.83-1.87-2.5-1.88-4.58 0-6.88 1.46-6.88 4.38m-383.12-1.88a17.06 17.06 0 0 0-3.75-.62c-.41-.42-.83-.63-1.25-.63-2.08 0-3.12.84-3.12 2.5 0 2.92 1.67 4.38 5 4.38.83 0 1.87-1.87 3.12-5.63m-10.62 6.25c-1.25-4.16-2.7-6.24-4.38-6.25-.83 0-1.25.63-1.25 1.88h.63c.42 2.08 2.08 3.54 5 4.38m420-6.25a6.14 6.14 0 0 0-3.13 5.62c0 2.08 1.25 3.13 3.75 3.13s3.75-1.46 3.75-4.38-1.04-4.37-3.12-4.38h-1.25m-6.25 6.88.63-.63c.41-.41.62-.83.62-1.25 0-2.91-2.08-4.37-6.25-4.37-2.5 0-3.75 1.88-3.75 5.63 0 2.5 1.67 3.75 5 3.75.42 0 .83-.21 1.25-.63l2.5-2.5M502.52 547.3l4.38 5 4.37 3.12 2.5-.63 1.25 2.5c.42.42 4.37 1.67 11.88 3.75l-19.38-13.75a7.77 7.77 0 0 1-2.5-5.62c0-2.5 1.25-3.75 3.75-3.75 2.08 0 3.54.2 4.38.63-1.25-4.17-3.55-6.25-6.88-6.25-5 0-7.5 2.29-7.5 6.87 0 2.5 1.25 5.2 3.75 8.13m-293.75-12.5-2.5 2.5c.42.41 1.46.62 3.12.62 1.25 0 2.3-1.04 3.13-3.13h-3.75m343.12 7.5a120 120 0 0 1 8.75 2.5c2.92.84 5.83 1.46 8.75 1.88h7.5l8.13-2.5 4.37-.63c1.67-.41 2.5-2.08 2.5-5-.42-.41-1.46-.62-3.13-.62-1.66 0-3.95.63-6.87 1.88-5 2.5-15 3.33-30 2.5m-283.75 5c-7.92 3.33-15.2 5-21.88 5h-15.62c-2.5 0-5.83 1.25-10 3.75l-6.25 6.87-1.88 6.88h-6.87c-.42-.42-1.88-.63-4.38-.63h-3.75c-1.25 0-2.7-.2-4.37-.63l-12.5-3.12-6.88-3.13-5.62-.62c4.58 6.67 17.5 11.46 38.75 14.38 2.92 0 5 .2 6.25.62l1.25 1.88c4.17 8.75 14.58 13.12 31.25 13.12h8.13c2.5-.42 4.79-.83 6.87-1.25l34.38-5.63c8.33-.83 16.04.42 23.12 3.75l1.88 1.88c.41.42.62 1.46.62 3.13 0 .83-.42 1.66-1.25 2.5l-.63.62-3.75-1.25-11.25-3.75a26.78 26.78 0 0 0-9.37-1.88c-6.25 0-9.58 2.5-10 7.5 4.17-2.5 7.3-3.75 9.38-3.75h1.25l13.75 5.63c3.33.83 5.62 1.25 6.87 1.25 8.75 0 13.13-3.13 13.13-9.38 0-5-2.09-9.16-6.25-12.5a21.65 21.65 0 0 0-15-5.62l-6.25.63.62-2.5 3.75-3.75v-1.25c0-1.25-1.88-1.88-5.63-1.88l-16.25-.63-10 1.88-5.62 2.5-6.25 1.88-6.25 1.25-5 1.87c-.83.42-3.33.63-7.5.63h-3.13c-1.25 0-2.5-.21-3.75-.63-.83-2.5-1.25-3.54-1.25-3.13 0-1.66.84-2.5 2.5-2.5 18.34-.41 28.55-1.04 30.63-1.87 1.67-.42 5.42-3.54 11.25-9.38v-1.25l-4.38-.62c.84-3.75 1.46-6.46 1.88-8.13l1.25-3.12-3.13-3.13-6.87 7.5m341.25-6.87c-1.67 0-2.92 1.04-3.75 3.13v1.25c0 2.5 1.25 3.75 3.75 3.75 2.92 0 4.37-1.46 4.38-4.38 0-2.5-1.46-3.75-4.38-3.75m-408.12 10.63-.63 4.37c-2.5 3.33-6.04 5-10.62 5-5 0-10.2-.63-15.63-1.88l-1.87.63 7.5 3.13c2.92 1.25 6.46 1.87 10.62 1.87 10.84 0 16.25-3.75 16.25-11.25s-3.95-11.25-11.87-11.25c-4.58 0-7.08 1.46-7.5 4.38l-1.25 5.62 7.5-4.38h1.25c2.08 0 4.17 1.25 6.25 3.75m400.62-7.5c-2.08-1.25-3.33-1.87-3.75-1.87-2.92 0-4.38 1.67-4.38 5 0 2.5 1.05 3.75 3.13 3.75s3.75-2.3 5-6.88m-42.5 6.25a8.1 8.1 0 0 0-4.38 7.5c0 6.67 4.38 10 13.13 10 12.08 0 20.42-2.5 25-7.5a61.5 61.5 0 0 1-18.13 2.5c-4.58 0-8.33-1.25-11.25-3.75l-.62-4.37 1.88-4.38-5-.62-.63.63m-93.75 13.75-.63 1.87c-7.08 2.5-12.08 3.54-15 3.13h-5c-4.58-.42-10.41-.84-17.5-1.25a915.57 915.57 0 0 1-25-1.88h-11.25c-2.5 0-4.79.2-6.87.63h-20c-2.92 0-5.42.2-7.5.62-5.42.42-10.2.83-14.38 1.25H331.9c-2.92 0-7.92-1.04-15-3.13.83 1.25 1.67 2.3 2.5 3.13l1.88 1.88c2.5 1.25 8.12 1.87 16.87 1.87l81.88-.63 31.25 2.5c12.08.84 18.12-1.04 18.12-5.62 0-.83-1.25-2.3-3.75-4.38m116.88 18.13c-5.83 3.33-8.75 6.67-8.75 10 0 5 1.67 7.5 5 7.5l5-1.25c-1.25-1.67-1.88-3.13-1.88-4.38 0-5.41 4.38-9.37 13.13-11.87l.63-.63v-1.25c2.91-.83 7.29-3.12 13.12-6.87l.63-2.5-3.75 2.5-6.25 3.13-1.88 1.25h-3.13c-.83.41-2.29 1.04-4.37 1.87a38.8 38.8 0 0 1-7.5 2.5m-411.25-10.63c3.75 3.34 8.96 6.25 15.62 8.75 6.67 2.09 11.46 3.96 14.38 5.63.83 4.17 1.25 6.04 1.25 5.63 0 2.08-2.3 3.54-6.88 4.37 1.67 2.92 3.55 4.38 5.63 4.38 5.83 0 8.75-3.13 8.75-9.38 0-6.25-4.58-10.2-13.75-11.88l-6.88-1.87c-.41 0-4.16-1.04-11.25-3.13l-3.75-1.25c-1.25-.41-2.29-.83-3.12-1.25m232.5 10a8.48 8.48 0 0 1 6.25-2.5c1.25 0 3.33.84 6.25 2.5.83 2.5 1.25 3.55 1.25 3.13 0 4.17-3.54 6.25-10.63 6.25-10 0-17.08-3.13-21.25-9.38a36.6 36.6 0 0 0-3.12-3.75 7.33 7.33 0 0 0-1.25-1.87l-.63-.63c-1.25 0-2.08.84-2.5 2.5 3.75 14.59 15.63 21.88 35.63 21.88h2.5c1.25-.42 2.92-.83 5-1.25v-3.75c4.17-4.17 6.25-7.3 6.25-9.38 0-6.66-5.2-10-15.63-10-3.75 0-6.45 2.09-8.12 6.25m-51.25 7.5v1.88c-.83 5.83 2.92 8.75 11.25 8.75 8.75 0 13.13-5 13.13-15 0-3.33-.21-5.63-.63-6.88a7.26 7.26 0 0 1-1.88-1.25c0-.41-.2-.83-.62-1.25l-.63.63-1.87 3.13v7.5c0 5.41-3.13 8.12-9.38 8.12-2.5 0-5.62-1.88-9.37-5.63m164.38 13.13 5-1.25c-4.17-1.67-6.25-3.75-6.25-6.25 0-3.75 1.46-5.63 4.38-5.63l20-.62 12.5-.63c.83 0 5.41-1.04 13.75-3.12h-6.25l-6.25 1.25-3.75.63h-3.75c-2.09 0-3.96-.21-5.63-.63l-21.25-1.88c-7.5 0-11.25 3.34-11.25 10 0 5.42 2.92 8.13 8.75 8.13m87.5-428.12a40.95 40.95 0 0 0-3.75-4.38 16.66 16.66 0 0 1-3.13-4.37c.42 0 .84.2 1.25.62.42-.41.84-.41 1.25 0 2.09 4.59 3.34 7.3 3.75 8.13.84.42 1.46.83 1.88 1.25l.63-.63c0-.41-.63-1.45-1.88-3.12a19.64 19.64 0 0 0-3.75-5 40.95 40.95 0 0 0-3.75-4.38c-1.25-1.25-2.08-1.87-2.5-1.87v1.87l.63.63 1.25.62 8.12 10.63m-.63-8.75 6.88 6.87-6.88-4.37v-2.5m-344.38 1.87 3.13 6.25-5-4.37 1.88-1.88m267.5 5c.41 0 .83-.2 1.25-.62 1.66.42 2.5 1.88 2.5 4.37l-.63.63s-.2.42-.63 1.25h-2.5v-5.63m9.38 1.88 3.75 4.37-5.63.63 1.88-5m-286.25 1.25 1.87 1.87-1.25 1.88-5 5.62-1.25-3.12 5.63-6.25m28.12 4.37 2.5.63-.62 1.87-5 1.25-1.88-.62 5-3.13m223.13 3.13v3.12-1.25c0 1.25-.21 2.09-.63 2.5-1.25 0-2.5-.83-3.75-2.5l4.38-1.87m-.63 7.5v1.25l-.63 1.87-1.25.63-3.75-3.75h5.63m-230.62 5.62-1.25 3.13c-.83 2.08-1.67 3.13-2.5 3.12-1.25 0-1.88-.41-1.88-1.25v-.62l3.13-4.38 2.5-3.12v3.12m186.88 1.88-5-.63c0-1.66.63-2.5 1.88-2.5.83 0 1.25.21 1.25.63l1.87 2.5m152.5 0c-.83 2.08-1.46 3.13-1.88 3.12-1.25 0-2.7-.83-4.37-2.5l6.25-.62m-81.88 1.25v-2.5c-.41.42-.83.62-1.25.62-.41 0-.83.21-1.25.63l-5 3.75c.42.42.63 1.04.63 1.87l6.88-4.37m17.5 3.12-.63 1.88h-3.13c-1.66 0-2.5-.42-2.5-1.25 0-1.67 1.25-2.5 3.75-2.5l2.5 1.87m-89.37-1.87 2.5 3.75c-2.5 0-4.38-.2-5.63-.63-.83 0-1.25-.41-1.25-1.25 0-1.25.63-1.87 1.88-1.87h2.5m154.38 6.25-1.25.62h-1.88l-.62-.62-1.25-1.88 2.5-.62 2.5-1.88v4.38m-161.25 0 3.75 10.62 3.75 6.88-3.13-.63c0-.41-.62-1.66-1.87-3.75l-3.13-5.62-1.25-10 1.88 2.5m158.12 4.37 3.75.63c-.42.42-1.04.62-1.88.62-.41 0-1.04-.41-1.87-1.25m-68.13 8.75v1.88l3.75 1.87c2.09.84 3.13 1.05 3.13.63 0-.42-1.25-1.87-3.75-4.38-2.08-2.91-2.92-4.37-2.5-4.37l-.63 4.37m-90.62-1.87h-5l1.88-1.88 3.12 1.88m98.13-.63-.63-1.25 1.88 1.88 3.75 1.87c0-.41-1.67-.62-5-.62v-1.88m-103.13 5 4.38-.62v2.5l-4.38-1.88m-248.12 18.75 1.88.63c.83 3.33 1.25 4.8 1.25 4.37 0 .84-.63 1.25-1.88 1.25-1.66 0-2.5-.62-2.5-1.87 0 .42.42-1.04 1.25-4.38m135.62 33.75-1.87 2.5c-.42.42-1.04.63-1.88.63-1.25 0-1.87-.63-1.87-1.88l.63-.62v-.63l3.74-1.25 1.25-3.12a44.47 44.47 0 0 1 5.63-1.88 65.63 65.63 0 0 0 4.38-1.87c-1.67.42-3.13 1.67-4.38 3.75l-1.25 1.87-4.38 2.5m-63.75 27.5c2.92 1.25 5.21 1.88 6.88 1.88 4.17 0 6.25.83 6.25 2.5 0 .83-.42 1.25-1.25 1.25-2.08 0-5.83-1.25-11.25-3.75l-1.25-.63.63-1.25m196.87 18.75c1.25 2.09 3.75.21 7.5-5.62.84 0-1.87 3.96-8.12 11.87l1.25-1.25a23.01 23.01 0 0 1-4.38 5.63c-2.08 2.08-3.75 3.33-5 3.75 0-.83-.2-1.46-.62-1.88l3.75-1.87 5.62-10.63m28.13 5-11.88 4.38c-2.5 2.5-4.16 3.75-5 3.75-.83 0-1.25-.2-1.25-.63 0-2.5 2.09-4.37 6.25-5.62 2.92-.83 5-1.87 6.25-3.13 1.25-1.66 4.8-2.29 10.63-1.87l-5 3.12m-220-.62 26.25-.63-13.75 3.13-13.75-.63 1.25-1.87m51.87 2.5c.42.42 1.05.62 1.88.62h.62c0 5.42-2.91 9.17-8.75 11.25l.63.63-3.13-.63c5.42-2.5 8.34-6.45 8.75-11.87m156.25 11.87 11.25-2.5-3.12-2.5-6.25 2.5h-1.88c-1.66 0-1.66.84 0 2.5m-193.75-6.87 14.38-1.25-14.38 2.5h-6.87l-6.88-1.25h-5.62c0-1.67.42-2.5 1.25-2.5l18.12 2.5m40.63 1.25.62 6.87-.62.63c-2.08 1.25-3.33 1.88-3.75 1.87h-.63a7.33 7.33 0 0 0-1.87-1.25 11.38 11.38 0 0 0 6.25-8.12m5.62 8.12c-2.08 2.5-3.33 3.76-3.75 3.75-1.66 0-2.7-.2-3.12-.62l6.87-3.13m5.63 2.5-.63 2.5c0 1.25-1.25 1.88-3.75 1.88h-.62a7.29 7.29 0 0 0-1.88-1.25l6.88-3.13m-3.75 7.5 8.12-5c-.83 4.59-2.5 6.88-5 6.88-.41 0-1.45-.63-3.12-1.88m105.62-3.12h3.13c0 .42 1.66 2.3 5 5.62l3.74 3.75-5-1.87c-3.75-.42-6.04-2.92-6.87-7.5m-98.75 8.75c-1.67 0-2.5-.42-2.5-1.25.83-.83 1.87-1.67 3.13-2.5l3.12-3.13c-1.67 5.42-1.67 8.13 0 8.13l-3.75-1.25m270.62 10.62c0 .84-1.25 1.25-3.75 1.25-1.25 0-1.88-.41-1.88-1.25 0-1.66.84-2.5 2.5-2.5l3.13 2.5m.63 3.75 1.25 3.75h-5.63l.63-1.87 3.75-1.88m.62 5.63.63 3.75-.63 1.87-3.75-1.87 3.75-3.75m-40.63 15.62-10 6.25-8.12.63-1.25 1.25-4.38.62c.42-1.66 1.67-2.91 3.75-3.75 1.25-.41 2.71-.62 4.38-.62s2.7-.2 3.13-.63c2.91-1.66 4.79-2.29 5.62-1.87l6.88-1.88m-6.25 15c-.42-.41-2.92 0-7.5 1.25l-2.5-.62c-2.5 0-3.76-1.04-3.75-3.13l8.12-.62c0 1.67.63 2.08 1.88 1.25l9.37-1.88-5.63 3.75m3.75 25.63-1.25 3.12-4.37 2.5-1.88-2.5c1.67-.83 3.96-3.12 6.88-6.87l4.38-5.63v1.88c-.84 2.5-1.25 3.54-1.25 3.12 0 .84-.84 2.3-2.5 4.38m40.62-2.5 1.88.62a16.27 16.27 0 0 1-2.5 4.38 32.86 32.86 0 0 1-3.75 5.62h1.25l-2.5-.62 5.62-10m-417.5 11.87-8.75 1.88-3.75 3.75-1.25-.63c.42-3.74 1.67-5.62 3.75-5.62l10 .62m-3.13 5.63-2.5 2.5c-.83.83-2.08 1.67-3.75 2.5h-1.87l1.25-3.75 3.12-3.13h1.88l1.87 1.88m348.13 6.25c.83 3.33.83 5 0 5-1.25 0-2.09-1.25-2.5-3.75-.42-1.25-1.67-2.3-3.75-3.13l-5.63-1.25-.63-1.87c.42-.42 1.67-.63 3.75-.63 3.75 0 6.67 1.88 8.75 5.63m-28.75 7.5-5 16.87v5.63c-2.08-.83-3.12-1.67-3.12-2.5 0-2.92.2-5 .63-6.25l1.25-5.63 3.75-9.37 11.25-10.63-8.75 11.88m21.87-4.38c.83.84 1.25 1.46 1.25 1.88v1.87h-2.5a34.42 34.42 0 0 1-4.38-1.87v-3.13l5.63 1.25m-10-1.25-6.25 6.88-5.63 10.62 8.13-8.75 3.75-8.75m4.38 18.13c3.33.83 4.16 1.25 2.5 1.25-4.17 0-6.05-.2-5.63-.63 0-.41.2-.83.63-1.25l2.5.63m-5 3.12 3.12 1.25-1.25 3.13h-2.5l.63-4.38m-8.75 38.75 3.75 1.25 12.5 17.5c-3.34-.83-6.26-2.91-8.75-6.25a142.7 142.7 0 0 1-6.88-10l-.63-2.5m-52.5 11.88 11.88 15-8.75-1.88-2.5-5.62-1.88-3.75.63-3.75h.63m-226.25 45.63 1.87 4.37h.62c-.41-.42-.83-.63-1.25-.63l-1.25-1.25c-2.5-2.91-3.75-5.2-3.75-6.87 0-4.17 1.25-6.25 3.75-6.25v10.63m-6.87 3.75h-1.25c-2.08-3.34-3.13-6.05-3.13-8.13 0-2.08 1.05-3.13 3.13-3.13.83 0 1.25.42 1.25 1.25v.63l-.63 4.38 2.5 3.12-1.87 1.88m50-6.88a315.1 315.1 0 0 1-11.25 1.88c.42-2.09 3.54-3.55 9.38-4.38l8.12-1.25c1.25 0 1.87.42 1.88 1.25 0 1.25-.84 1.88-2.5 1.88h-1.25l-4.38.62m237.5 4.38.63-3.75v-3.13l2.5 3.75-3.13 3.13m-295-5 3.12 6.25-3.75-.63-1.25-5 1.88-.63m300.62 0 3.75 4.38h-3.13l-.62-4.38m-251.25 6.25c0-2.5 2.3-3.75 6.88-3.75l10-.62 3.75-.63c1.66 0 2.5.63 2.5 1.88s-.63 1.88-1.88 1.88c-2.5 0-4.38-.21-5.63-.63l-1.25-.63c-1.66 0-3.75.63-6.25 1.88-2.5.83-4.37 1.25-5.62 1.25l-2.5-.63" transform="translate(-146.86 -119.79)"/>
</svg>
