<svg xmlns="http://www.w3.org/2000/svg" viewBox="0 0 500 500">
    <path d="M146.86 619.79v-500h500v500h-500m7.5-7.5h485v-485h-485v485m7.5-7.5V135.41h469.38v469.38H161.86m443.75-464.38 6.25 2.5c1.25 2.5 1.87 4.38 1.88 5.62 0 3.34-2.92 6.26-8.75 8.75l-8.75.63-23.75-6.88c-5.84-1.25-13.13-1.87-21.88-1.87-15 0-27.7 3.33-38.13 10-7.91 5-11.87 7.92-11.87 8.75 0 1.25.2 1.88.63 1.87l18.12-5.62 12.5-.63 21.25-.62c8.75 0 16.46 4.58 23.13 13.75 2.91 2.92 4.37 7.08 4.37 12.5 0 5.83-3.13 10-9.38 12.5-6.25-.42-8.95-3.75-8.12-10v-5.63c-3.75 4.59-5.63 7.92-5.63 10 0 3.34.21 5.63.63 6.88 4.58 7.08 9.58 10.62 15 10.62 6.67 0 10.83-2.08 12.5-6.25l3.75-6.87 6.25 3.12c1.25 0 1.87-2.7 1.88-8.12 0-16.25-8.13-27.3-24.38-33.13.83-2.08 1.87-3.12 3.13-3.12l13.12 3.75 13.13 6.25a17.9 17.9 0 0 0 8.12 1.87h1.88c5.83-.41 9.37-1.25 10.62-2.5 0-.83-1.88-2.91-5.63-6.25 3.75-3.74 6.05-7.91 6.88-12.5-.83-6.24-3.33-10-7.5-11.25l-5-1.25h-1.25l-.63.63-4.37 2.5m-101.25 3.75a7.78 7.78 0 0 1 2.5 5.62v1.88c-2.92 2.92-5 6.25-6.25 10l7.5-5.63c3.75-2.91 5.62-5.62 5.63-8.12 0-5.83-2.92-8.75-8.75-8.75-4.17 0-6.26 1.46-6.25 4.37.41.42 1.04.63 1.87.63h3.75m-145.62 20.62c-8.75-.41-13.13-3.54-13.13-9.37 0-7.08 3.75-10.63 11.25-10.63 4.59 0 8.55 1.67 11.88 5l9.38 10.63c2.91 3.75 6.24 5.63 10 5.62 3.74 0 8.74-1.87 15-5.62.41-1.67.62-3.54.62-5.63a35.48 35.48 0 0 1 1.88-6.25c.83-.83 2.29-1.25 4.37-1.25 0 0 5.2 2.3 15.63 6.88-1.25-6.67-3.13-10-5.63-10l-14.38-1.88c-2.5-.41-4.37.84-5.62 3.75l-3.13 10.63c-.83 1.25-2.91 1.88-6.25 1.87-1.66 0-4.16-.41-7.5-1.25l-3.12-2.5-8.13-10-3.12-1.25-8.13-3.12-1.25-.63c-13.33 0-20 5.21-20 15.63 0 9.17 3.75 13.75 11.25 13.75 2.5 0 5.21-1.46 8.13-4.38m-186.25-21.25c-2.5 1.25-3.75 3.55-3.75 6.88 0 1.25.42 3.13 1.25 5.62l3.75 7.5a68.02 68.02 0 0 0 5 5.63c1.67 1.67 3.12 2.5 4.38 2.5.41-.42.62-.83.62-1.25 0-.83-1.46-2.7-4.38-5.63-2.91-2.91-4.37-6.66-4.37-11.25 0-.41.42-1.66 1.25-3.75.83-2.5 1.25-4.16 1.25-5 0-1.25-1.04-1.87-3.13-1.87l-1.87.62m93.75 10.63-2.5 7.5-1.25 8.12-1.25.63 1.25-.63c-8.33-4.16-11.88-6.24-10.63-6.25l-1.25 1.25c-.41 0-.83.21-1.25.63l-1.87 3.12c-1.67 2.92-2.5 5.42-2.5 7.5l.63 4.38.62 8.12 2.5 5 .63.63 5.62 6.87 7.5 5c2.92 1.67 4.37 3.34 4.38 5 0-.41-.42 1.05-1.25 4.38l-6.88-.63-2.5-2.5-1.25-1.87-3.75-2.5-9.38-17.5-4.37-3.75-3.75-3.75-5-1.25c-1.25 0-1.88.62-1.88 1.87v8.75a4.24 4.24 0 0 1-3.12 1.25c-1.25 0-2.7-1.45-4.38-4.37-1.66-2.92-3.12-4.58-4.37-5a38.57 38.57 0 0 0-15-5.63c.42 2.09.63 4.17.63 6.25.41 1.67.62 2.92.62 3.75 0 2.92-.83 5.84-2.5 8.75v1.88c-.42 1.25-.63 3.96-.63 8.12 0 2.92.21 5 .63 6.25l.63 1.88 1.25 3.12.62.63v1.87l-2.5 2.5c-3.33-2.5-6.25-3.74-8.75-3.75h-1.88v5.63c-.41 6.67 3.34 11.87 11.25 15.62h2.5c-3.33-1.25-5.62-2.91-6.87-5l.63-1.25 5 1.25c1.66 2.5 4.37 3.76 8.12 3.75l2.5 2.5c-1.25.84-1.88 1.67-1.88 2.5 0 1.25 1.05 1.88 3.13 1.88l16.25-.63c3.75 0 5.62 1.05 5.63 3.13 0 2.92-2.09 4.38-6.25 4.37-2.92 0-8.96-1.04-18.13-3.12l-1.25-.63c-8.33-2.5-13.54-3.74-15.63-3.75-11.66 0-19.79 6.05-24.37 18.13l9.38 3.75 3.12.62c-.42.42-.63.84-.63 1.25 0 .84-.2 1.46-.62 1.88-6.67 4.17-10 10.2-10 18.12 0 1.25.2 2.09.63 2.5l3.12 5 1.25 3.75 5 2.5 5.63 2.5 1.25.63h.62c5.83 0 9.58-1.46 11.25-4.38l3.13-5-8.75-.62-5-2.5c-2.5-4.17-3.76-7.5-3.75-10 0-5.42 4.16-10.42 12.5-15 5-2.08 8.33-3.12 10-3.13h3.12l6.25 2.5 7.5.63v-2.5h8.75c2.08 0 6.04-.63 11.88-1.88l-.63 3.13c14.58-3.75 26.46-11.46 35.63-23.13 9.58-11.66 14.37-24.79 14.37-39.37 0-5-.83-9.17-2.5-12.5l-11.88-22.5c-.83-3.33-1.25-5.2-1.25-5.63 0-7.08 3.34-10.62 10-10.62 2.5 0 5.21 1.46 8.13 4.37l1.25 2.5.63 6.88c4.16-1.67 6.24-4.17 6.25-7.5 0-11.67-6.26-17.5-18.75-17.5-6.26 0-12.71 3.75-19.38 11.25m177.5 5v.62c0 1.67.63 2.71 1.88 3.13 3.33 3.33 6.66 5 10 5 .83 0 1.45-.2 1.87-.63l3.75-2.5c2.08-1.25 3.12-2.08 3.13-2.5l1.87-7.5c.42-1.66 2.3-2.5 5.63-2.5h4.37c2.92 4.17 4.37 7.92 4.38 11.25 0 2.92-.63 6.05-1.88 9.38-.83 2.92-1.46 5-1.88 6.25l-3.12 4.37-5 10.63-3.13 5.62c-3.33 6.26-5.2 9.8-5.62 10.63l-1.25 6.25-3.13 11.25c-.41 2.08-.83 4.8-1.25 8.12V252.91c0 2.92.21 5 .63 6.25l2.5 14.37 1.88 6.25 5.62 13.75 3.13 5c2.5 4.59 6.87 10.84 13.12 18.75l.63-5.62-11.88-18.75c-2.08-5-3.13-10.2-3.13-15.63 0-10.41 3.75-19.37 11.25-26.87l1.25 2.5.63-.63-6.88 8.13-3.12 15v6.25c0 4.17.83 6.25 2.5 6.25l3.13-3.13c-.42 1.25-.63 3.55-.63 6.88s1.25 6.46 3.75 9.37l2.5 4.38 2.5.62-1.88-6.87c-.41-.83-.62-2.7-.62-5.63v-1.87l2.5-5.63 1.25-3.75 13.13-13.75 2.5-4.37-5-.63 3.75-5 4.37-5.62c5-5.42 7.5-13.13 7.5-23.13 0-5.83-.63-8.74-1.88-8.75-.83 0-2.91 1.67-6.25 5-4.58.84-9.37 2.09-14.37 3.75-.83 2.09-1.46 3.34-1.88 3.75h-1.25c-.83 0-1.25-.41-1.25-1.25 0-.83.21-1.45.63-1.87 0 .42-.42-1.04-1.25-4.38l-.63-5-.62 1.25-5.63 4.38h-1.25c-5.41 4.17-8.12 7.3-8.12 9.37l-1.25 13.75c-.83 2.09-2.08 3.13-3.75 3.13s-2.5-1.25-2.5-3.75c0-6.67.83-10.83 2.5-12.5l10-13.13 5.63-13.12c7.5-17.5 19.79-26.25 36.87-26.25 6.25 0 12.08 2.08 17.5 6.25 2.92 4.17 4.37 7.3 4.38 9.37 0 5.84-3.13 8.76-9.38 8.75-2.08 0-3.54-.41-4.38-1.25l-9.37-8.12c-2.5-2.5-6.25-3.75-11.25-3.75-7.5 0-11.25 3.54-11.25 10.62 0 3.76 2.92 6.67 8.75 8.75-1.25-2.91-1.88-5.2-1.88-6.87 0-4.17 2.71-6.25 8.13-6.25 2.92 0 5.2.83 6.88 2.5l4.37 5.62c1.67 2.5 4.8 3.76 9.38 3.75 5 0 9.37-1.87 13.12-5.62 4.17-3.75 6.25-8.12 6.25-13.13 0-5-3.75-9.79-11.25-14.37l-.63-1.25 3.13-1.88 3.75-1.87c1.67-.42 2.5-1.25 2.5-2.5 0-.42-.83-1.04-2.5-1.88a22.37 22.37 0 0 0-5.63-1.87l-6.25-1.25a26.99 26.99 0 0 0-5-.63c-10.41 0-22.29 5.42-35.62 16.25-2.08 1.25-3.54 1.88-4.38 1.88h-1.25v-1.88l10.63-11.87c1.67-1.67 2.5-4.37 2.5-8.13 0-2.5-1.67-6.04-5-10.62l-2.5 1.25h1.88-1.88c-4.58-7.08-9.58-10.63-15-10.63-5 0-8.75 1.46-11.25 4.38l-.63 1.25-.62 8.75c-.83 3.75-3.33 5.63-7.5 5.62-2.5 0-5.83-1.45-10-4.37m-10-15.63c-1.25.42-2.3 1.46-3.13 3.13l-.62 1.87c0 4.17 2.3 6.26 6.88 6.25 2.08 0 3.12-1.25 3.12-3.75 0-5-2.08-7.5-6.25-7.5m-238.12 28.13-1.25-6.25-1.88-6.25v-1.88c0-3.33 1.88-5 5.63-5 1.25 0 3.33.84 6.25 2.5 0-6.66-2.5-10-7.5-10-7.5 0-11.25 3.96-11.25 11.88 0 7.08 3.33 12.08 10 15m253.12-25c-1.67 0-2.92 1.04-3.75 3.12l-.63 1.25c0 3.34 1.67 5 5 5 2.5 0 3.75-1.45 3.75-4.37 0-3.33-1.45-5-4.37-5m-197.5 9.37c1.25 2.92 2.92 4.38 5 4.38 2.92 0 4.37-1.46 4.38-4.38 0-4.16-2.09-6.24-6.25-6.25-2.5 0-3.76 1.25-3.75 3.75l.62 2.5m-11.88-6.25a3.76 3.76 0 0 0-2.5 2.5l-.62 1.25v.63c0 5 2.7 7.5 8.13 7.5 1.66 0 2.5-1.04 2.5-3.13 0-5.83-2.5-8.74-7.5-8.75m86.87.63a56.3 56.3 0 0 0-8.13 5.62c-2.5 2.09-5.2 4.59-8.12 7.5-2.08 2.5-4.58 7.5-7.5 15l-2.5 15 2.5.63a71.24 71.24 0 0 0-3.75 12.5h1.25a40.82 40.82 0 0 1 2.5-4.38l3.75-5c.42-.41 1.67-1.04 3.75-1.87v3.12l-3.13 4.38-1.25 1.87-4.37 9.38 1.25 1.87a27.78 27.78 0 0 0-3.75 8.75l1.88-.62a5.6 5.6 0 0 1 3.75-3.13v1.88c0 1.25 1.04 1.88 3.12 1.87 4.58 0 9.8-1.66 15.63-5 5.83-3.74 9.37-7.91 10.62-12.5 1.25-4.58 2.08-7.08 2.5-7.5v-.62c0-4.58-.2-7.08-.63-7.5-1.25 0-2.08.2-2.5.62l-8.12 5 1.25-4.37 3.13-8.75v-3.13c0-.83-.21-1.66-.63-2.5 0-1.25-.2-2.91-.63-5l-2.5-9.37.63-6.88v-6.87m-101.25.62-1.88 1.25-1.25 1.25c0 2.92 1.67 4.38 5 4.38 2.09 0 3.13-.83 3.13-2.5 0-2.92-1.46-4.37-4.38-4.38H225m-13.13 5.63c-1.66 0-2.5 1.25-2.5 3.75 0 4.17 2.3 6.25 6.88 6.25 1.67 0 2.5-1.04 2.5-3.13 0-4.58-2.3-6.87-6.88-6.87m220 1.87c-2.5 0-3.75 1.25-3.75 3.75 0 3.76 2.09 5.63 6.25 5.63 2.5 0 3.75-1.46 3.75-4.38 0-3.33-2.08-5-6.25-5m-199.38 5c-2.08.84-3.12 2.5-3.12 5 0 5 2.5 7.5 7.5 7.5 1.67 0 2.5-1.25 2.5-3.75 0-5.83-2.08-8.74-6.25-8.75h-.63m-28.12 3.75c-1.25 0-1.88.63-1.88 1.88 0 2.5 1.46 3.96 4.38 4.37l2.5.63c.83 0 1.25-.42 1.25-1.25 0-3.75-2.08-5.62-6.25-5.63m-26.88 13.75c-.83-8.74-3.75-13.12-8.74-13.12l-2.5 1.25h-.63l-1.25 4.37 6.25-.62c1.67 0 3.96 2.7 6.88 8.12m416.25-11.87 1.25 4.37 1.25 3.13c1.66 5 4.16 9.17 7.5 12.5l1.25 1.87 1.25 3.13.62 1.87.63 1.25 3.12 7.5c.42-2.08.63-3.95.63-5.62.41-2.08.62-3.96.62-5.63 0-9.16-3.96-16.25-11.88-21.25l-3.12-1.87-3.13-1.25m-374.38.62c-.83.84-1.24 2.5-1.24 5 0 2.92 1.45 4.38 4.37 4.38 2.5 0 3.75-1.25 3.75-3.75 0-3.75-2.3-5.62-6.87-5.63m163.75 21.25 1.87 1.88 1.88 2.5 1.25.62 5.62 7.5a74.41 74.41 0 0 1 1.88 8.13c.83 2.5 1.04 5 .62 7.5l-.63 7.5v22.5c-.41 1.25-.62 3.33-.62 6.25v28.12c0 2.09.2 3.76.63 5v31.25l.62 22.5-.63 150.63-4.37 28.74a70.43 70.43 0 0 0 5.63 11.25l3.75 2.5c1.66.42 3.54 1.05 5.62 1.88l3.75 3.13 1.25 1.25 1.25.62c10.42-15.42 16.67-30.63 18.75-45.63l2.5-15V412.9l-1.88-179.38c-.83-23.75 4.8-39.37 16.88-46.87 10.42-6.67 15.63-10.42 15.63-11.25 0-2.5-1.67-3.75-5-3.75-5.42 0-12.3.83-20.63 2.5-1.25.42-3.75.62-7.5.62H383.1c-9.58-.41-18.12-.83-25.62-1.25l-3.75-.62c-7.5-.42-11.25 1.04-11.25 4.37 0 1.25 1.04 2.3 3.13 3.13l25.62 5c.83 0 4.8 1.88 11.88 5.62m82.5-13.12-5.63 4.37-7.5 3.75c-3.75 2.09-7.7 6.26-11.88 12.5-3.75 5.84-5.62 10.84-5.62 15l1.25 265.63c0 7.5-2.5 19.58-7.5 36.25a100.33 100.33 0 0 1-12.5 25c-1.25 2.08-1.88 3.75-1.88 5 0 1.66.42 2.5 1.25 2.5h1.88c1.25 0 4.17-4.38 8.75-13.13l3.13-5 8.75-25.63 3.12-19.37V218.52c0-14.17 7.3-24.38 21.88-30.63 4.16-1.66 6.87-5.2 8.12-10.62l-1.25-3.75-4.38-1.25v5.62m-273.75-1.25c-1.24 0-1.87 1.46-1.87 4.38 0 2.5 1.25 3.75 3.75 3.75 2.08 0 3.12-1.25 3.13-3.75 0-2.92-1.67-4.37-5-4.38m-8.75.63c-.84.83-1.25 1.67-1.25 2.5 0 2.08 1.04 3.13 3.12 3.12 1.25 0 1.87-.62 1.88-1.87 0-2.5-1.25-3.75-3.75-3.75m160 5.62c3.74 7.09 16.87 10.84 39.37 11.25-2.5-2.5-4.58-4.16-6.25-5l-6.25-2.5-3.13-.62-23.75-3.13m257.5 43.75-4.37 2.5-5 1.25-8.75-5c-2.08 3.34-3.13 5.84-3.13 7.5 0 3.76.21 6.05.63 6.88 2.08 3.75 5 6.67 8.75 8.75l-6.25.62-5-.62c-.83 0-1.67.2-2.5.62-.83 0-2.08.21-3.75.63l-2.5 1.87-7.5 3.75-3.75 3.13-2.5 1.88-3.75 4.37-7.5 3.13-3.75 2.5h-10c-1.67.41-4.38 0-8.13-1.25v6.25l1.25 1.87 1.88 5.63 3.75 5.62 1.88 3.13 5.62 5 5.63 3.75c-4.17 4.16-6.26 8.95-6.25 14.37 0 4.17 2.29 7.92 6.87 11.25 4.58-10 11.67-15.63 21.25-16.88h5l7.5-1.87c5-2.08 8.33-3.75 10-5s4.37-3.33 8.13-6.25l-.63 1.25c0 3.33 1.04 5.83 3.13 7.5 2.5 1.67 4.58 2.5 6.25 2.5 1.66 0 2.7-.83 3.12-2.5v-7.5l14.38-18.13 5.62-13.12h-3.13l-3.12 6.25h-1.88l1.88-5 3.75-5c2.92-5.42 4.8-10.42 5.63-15 0-1.67-.21-2.92-.63-3.75l-4.38 10-3.75 1.87 3.13-8.75 1.88-5c2.5-5 3.74-10.41 3.75-16.25 0-2.91-.84-5.2-2.5-6.87l-.63 9.37c0 3.34-1.25 8.34-3.75 15l-9.38 16.88-2.5.63-6.25 8.12-11.25 8.75 1.25-.63-1.87 1.25-3.13-1.25 7.5-6.25 6.88-6.25c13.75-14.16 20.63-30.41 20.63-48.75 0-3.74-.63-8.12-1.88-13.12l-2.5 11.25-.63 1.87-1.87-.62c.83-5.83 1.25-10.2 1.25-13.13l.63-4.37c0-4.17-1.67-7.5-5-10l-2.5-1.88 1.87 11.25c.42 1.25.63 3.34.63 6.25 0 10.42-4.59 18.34-13.75 23.75m-426.88-39.37a7.94 7.94 0 0 0-1.88 3.75l-.62 1.25c0 3.75 2.08 5.63 6.25 5.62 1.66 0 2.5-1.66 2.5-5 0-3.74-2.09-5.62-6.25-5.62m13.12 1.87c-2.08-.83-3.13 0-3.12 2.5 0 4.17 2.29 6.26 6.87 6.25 1.67 0 2.5-1.25 2.5-3.75 0-3.33-2.08-5-6.25-5m173.12 36.88c-2.08 4.58-5 6.88-8.75 6.87-4.17 0-6.46-.62-6.88-1.87l-6.24-7.5-6.88-1.25 1.25 1.87 3.75 2.5 10.63 10.63c.83.83 2.29 1.25 4.37 1.25 8.75 0 13.13-5 13.13-15 0-4.17-1.05-6.67-3.13-7.5a220.8 220.8 0 0 0-10.63-3.75c-1.24-.42-1.87-1.67-1.87-3.75 0-5.83 4.8-8.75 14.38-8.75 12.91 0 19.37 7.08 19.37 21.25v1.25c-3.33 12.5-10.63 18.75-21.88 18.75l-1.24 1.25c1.25 1.67 2.29 2.5 3.12 2.5 16.67 0 25-8.33 25-25s-8.54-25-25.63-25c-8.75 0-14.37 1.46-16.87 4.37-1.25 1.25-1.88 4.59-1.88 10 0 3.76 1.05 6.05 3.13 6.88l10.63 4.37 3.12 5.63m-173.12-25.63c-2.5 1.25-3.75 2.71-3.75 4.38 0 3.75 1.67 5.63 5 5.62 2.5 0 3.75-1.45 3.75-4.37 0-1.67-1.67-3.54-5-5.63m-13.75 1.88c-2.08 0-3.13 1.46-3.12 4.37 0 3.34 2.29 5 6.87 5 1.67 0 2.5-1.04 2.5-3.12 0-4.17-2.08-6.25-6.25-6.25m375.62 1.25-11.88 11.87c-.83 1.25-2.91 2.92-6.25 5-2.91 1.67-4.37 2.71-4.37 3.13 0 1.25.42 1.88 1.25 1.87a5.56 5.56 0 0 1 2.5-.62l3.75-1.88 5.63-.62-7.5 3.75v1.25c-4.17.83-7.09 2.08-8.75 3.75l-4.38 3.75c-3.33 5.83-5 10-5 12.5 0 2.92.2 4.8.63 5.62l3.75 7.5.62-1.87h2.5l.63 2.5c.41 4.17 2.91 6.25 7.5 6.25h1.25c-4.59-7.08-6.88-12.92-6.88-17.5 0-7.92 3.12-11.88 9.38-11.88 2.91 0 4.79.21 5.62.63l1.88 1.25c2.08 2.08 3.12 4.38 3.12 6.87l-.63 3.75-1.87 3.75c5.42-.41 9.17-2.29 11.25-5.62l3.75-6.88 9.38-4.37c3.74-1.25 6.45-5.83 8.12-13.75h-3.75c-2.92 0-4.58-.2-5-.63l-6.25-3.12a81.96 81.96 0 0 0-8.75-5l-1.25-11.25m-375 17.5c0 4.58 1.67 6.88 5 6.87 2.92 0 4.37-1.25 4.38-3.75 0-1.25-.42-2.29-1.25-3.12-1.25-2.92-2.71-4.37-4.38-4.38-2.5 0-3.75 1.46-3.75 4.38m126.88 8.75-2.5 1.87c1.67.42 2.5 1.05 2.5 1.88l-.63 1.25h-3.75c.42 0-1.04.42-4.37 1.25v1.87l5 1.25-7.5 1.88 1.25 3.12 9.38 6.88-1.25 1.87 1.25.63c2.5 2.5 3.95 4.8 4.37 6.87a38.64 38.64 0 0 0-6.88-4.37 56.78 56.78 0 0 1-6.25-4.38 8.72 8.72 0 0 0-3.75-.62c-2.08 0-5 1.25-8.75 3.75l1.25 1.25-.62 3.13-4.38-3.75c-.83.83-1.25 1.45-1.25 1.87 0 .83 1.05 2.3 3.13 4.38v1.87l-1.88 1.88-3.12-5-1.88 2.5.63 1.25 2.5 3.12 1.88 2.5-2.5.63-3.75-3.75c-1.25 0-1.88 1.87-1.88 5.62 0 1.67.63 4.58 1.88 8.75l1.87 3.75 1.88 1.88c2.5 1.66 7.91 3.54 16.25 5.62l.62-10 1.88-.63 4.37 1.88c1.67 1.67 3.33 2.5 5 2.5l16.25-1.88 8.75 1.88c4.58 0 6.87-4.8 6.88-14.38 0-5.83-2.09-12.7-6.25-20.62l3.75.62c1.25 0 1.87-1.25 1.87-3.75v-1.87c-2.92-12.92-10.42-18.75-22.5-17.5h-.63l-8.12 1.25m-124.38 4.37c-.42.42-1.04.84-1.87 1.25l-1.88 1.88v1.25c0 4.17 2.08 6.25 6.25 6.25 2.08 0 3.12-1.67 3.13-5 0-3.75-1.88-5.62-5.63-5.63m173.12 10.63c-2.08.83-3.13 1.46-3.12 1.87 0 4.59 1.66 6.88 5 6.88 3.74 0 5.62-1.46 5.62-4.38 0-.83-.42-1.66-1.25-2.5l-6.25-1.87m17.5 6.87c-2.5 0-3.75 1.67-3.75 5 0 3.76 2.08 5.63 6.25 5.63 3.75 0 5.62-2.08 5.63-6.25 0-3.33-2.3-5-6.88-5l-1.25.62m-21.87 6.88.62-1.88c0-2.5-1.25-3.74-3.75-3.75-3.75 0-5.63 2.09-5.62 6.25 0 4.17 1.45 6.26 4.37 6.25 1.25 0 2.3-.41 3.13-1.25l.62-1.25.63-4.37m8.12-1.88h-1.25c-2.5 0-3.75 2.09-3.75 6.25 0 3.34 1.67 5 5 5 3.75 0 5.62-2.08 5.63-6.25 0-3.33-1.88-5-5.63-5m23.75 31.25 4.38 8.13 3.75 5.63 2.5 6.25c1.25-.42 1.87-1.25 1.87-2.5l-1.25-5-6.87-14.38c-1.25-2.92-1.88-5.2-1.88-6.88 0-3.33 2.08-5 6.25-5 1.67 0 2.5 1.05 2.5 3.13l1.25 1.88c2.08-.84 3.12-1.88 3.13-3.13 0-7.08-3.13-10.63-9.38-10.63-6.67 0-10 4.17-10 12.5 0 2.5 1.25 5.84 3.75 10m128.12-18.75-8.12 7.5-5 9.38h-2.5c-.84 0-1.25.42-1.25 1.25l.62 3.75.63 6.25 3.12 7.5 4.38 10.63c0 1.66-.21 2.91-.63 3.75-2.08.83-3.13 2.5-3.12 5l-1.25 2.5c1.66 4.58 5.41 7.7 11.25 9.37l8.75 5.63 66.25 30 12.5 9.37 6.87 6.88 2.5-1.25 4.38.62.62-9.38-1.88-1.25c-13.75-11.66-20.62-22.29-20.62-31.87 0-14.17 6.67-21.25 20-21.25 10.83 0 16.25 3.96 16.25 11.88 0 6.66-2.08 10-6.25 10-1.25 0-4.58-1.05-10-3.13-4.17.42-6.88 2.08-8.13 5l-2.5 1.25h2.5c-.83 3.33-1.25 5.42-1.25 6.25 0 2.08 1.88 4.58 5.63 7.5-.42-.83-.63-2.7-.63-5.63 0-4.16 1.67-6.24 5-6.25l1.88.63 8.75 4.38 1.25.62c8.33 0 12.5-5.42 12.5-16.25 0-.42-.2-1.25-.63-2.5 0-1.25-.2-2.92-.62-5l-3.13-5.63c2.92-.41 4.38-1.25 4.38-2.5 0-8.74-7.08-13.12-21.25-13.12h-1.88l-10.62 4.38-1.88-4.38-6.87 6.88c-7.08 8.33-10.63 16.25-10.63 23.75 0 6.66 3.34 13.33 10 20l1.25 1.25 1.88 2.5 6.88 6.25.62 1.87-10-7.5-3.75-3.13-8.75-4.37-6.88-4.38-2.5-1.25-3.12-1.87-6.88-4.38-3.12-1.25-3.75-2.5c-1.67-1.25-5-2.91-10-5l-7.5-6.25c0 1.67 1.87 4.59 5.63 8.75l1.87 2.5-1.88.63c-8.75-9.58-12.91-17.08-12.5-22.5v-3.13l3.75-17.5v-2.5c0-1.66-1.04-4.16-3.12-7.5l-6.25 6.25-2.5-.62c1.25-5 1.87-8.96 1.88-11.88 0-6.66-1.25-11.04-3.75-13.12l-5.63-4.38-1.25 2.5m-140-1.87c-2.5.83-3.75 2.92-3.75 6.25 0 2.92.83 4.38 2.5 4.38 4.58 0 6.87-2.09 6.88-6.25 0-2.92-1.67-4.38-5-4.38h-.63m-104.38 1.25-1.25 1.88a32.77 32.77 0 0 1-3.12 5c-.84 1.25-1.88 2.91-3.13 5-.42.41-.83.62-1.25.62-.83 0-1.46.2-1.87.63l6.25-12.5c-3.76.41-6.67 2.29-8.75 5.62a69.83 69.83 0 0 0-5.63 9.38l-1.87-1.25 6.25-9.38a9.58 9.58 0 0 0-7.5 5c-1.25 2.5-3.13 5-5.63 7.5-1.25 0-2.08-.2-2.5-.63l5-6.87c-11.67 7.08-20.2 17.5-25.62 31.25 3.33.83 4.79 1.25 4.37 1.25 7.92 0 12.7-2.7 14.38-8.13l3.12-1.25 1.25 3.75c-.83 3.34-1.25 5.63-1.25 6.88 0 2.92 1.04 4.38 3.13 4.38 3.33 0 7.08-1.46 11.25-4.38l-4.38-.63.63-2.5c3.74-1.66 6.45-3.12 8.12-4.37a30.28 30.28 0 0 0 3.75-4.38l2.5-2.5a4.24 4.24 0 0 1 3.13-1.25h-1.88c-1.67 4.59-5.2 9.38-10.62 14.38 10.83-4.58 16.25-11.25 16.25-20v-1.88c-.84-2.5-1.46-6.24-1.88-11.25-2.08 4.59-4.38 7.3-6.87 8.13h1.25l-1.88-.63 2.5-4.37 4.38-6.25 1.25-2.5v-1.25c0-.83-.63-1.67-1.88-2.5m78.75 1.88c-.42.41-.62 1.45-.62 3.12 0 3.75 2.29 5.63 6.87 5.63 1.25 0 1.87-.21 1.88-.63l1.25-2.5v-.63l-.63-3.75-3.75-2.5h-3.12l-1.88 1.25m36.25 33.75 3.13 6.25c.83 3.34 1.25 5.21 1.25 5.63 0 9.17-6.05 18.54-18.13 28.13-5 3.75-13.96 5.62-26.87 5.62-2.09 0-4.8-.2-8.13-.63-2.92-.83-5-1.25-6.25-1.25.42 0-1.46.42-5.62 1.25l-1.25-1.87 4.37-4.38c3.75-3.74 5.62-6.87 5.63-9.37 0-.42-.21-1.04-.63-1.88 0-1.25-.2-2.91-.62-5-3.34 3.34-5.84 5.21-7.5 5.63-6.67 2.5-10.21 3.96-10.63 4.38l-.62 1.25.62 4.37 1.88 3.75-6.25 1.25h-4.38c-3.75.42-6.67.83-8.75 1.25h-2.5l-5 .63-9.37 2.5-14.38 5.62a92.14 92.14 0 0 0-6.87 3.13c-2.5.83-5.21 2.08-8.13 3.75a13.7 13.7 0 0 0-10 5.62l-5.62 3.13a18.07 18.07 0 0 0-5.63 5.62c-1.25 1.67-5.2 4.8-11.87 9.38l-5.63 5a38.59 38.59 0 0 0-4.37 6.87c-.84 2.08-1.67 4.38-2.5 6.88v1.87l3.75-3.75 14.37-16.25c10-10.42 23.13-19.17 39.38-26.25 16.66-7.08 32.7-10.63 48.12-10.63h4.38c1.25 0 2.29.63 3.12 1.88-1.25 1.25-1.88 2.3-1.87 3.13 0 3.75 5.83 5.83 17.5 6.25-.42-2.92-2.09-5.21-5-6.88-1.67-.42-2.5-1.04-2.5-1.88 0-1.25.83-1.87 2.5-1.87.83 0 3.54.63 8.12 1.88H347.46c10 0 18.75-3.75 26.25-11.25 7.91-7.5 11.87-16.05 11.87-25.63 0-3.33-1.04-6.67-3.12-10l-6.25-9.38-15.63-13.75c-2.08-1.66-3.33-3.54-3.75-5.62a19.47 19.47 0 0 0-1.25-4.38v-1.25c-1.67 0-2.5 1.05-2.5 3.13 0 6.25 3.54 12.3 10.63 18.13l5.62 3.75 6.25 6.25m-66.25 4.37-6.87 8.13c-2.92 4.16-7.3 7.5-13.13 10l-16.87 15c9.16-2.92 20.83-11.25 35-25 12.91-12.5 22.7-18.75 29.37-18.75 2.08 0 4.8 1.04 8.13 3.12l1.25 1.25.62 2.5c.42 1.25.63 2.3.63 3.13l.62.62c0 .42-1.04 2.3-3.12 5.63-3.34 2.5-6.05 3.75-8.13 3.75l-6.25-.63c2.92 5.42 6.04 8.13 9.38 8.13 10.41 0 15.62-6.25 15.62-18.75 0-11.67-5.83-17.5-17.5-17.5-7.5 0-17.08 6.45-28.75 19.37m-5-18.75-3.75.63-.62 5-1.88 4.37-1.25 3.75-3.12 5a77.02 77.02 0 0 1-3.75 5 161.87 161.87 0 0 1-5 6.25l-1.88 1.88c-.42.83-1.46 1.66-3.12 2.5l-1.25 1.25-5 3.75-6.25 4.37c-1.25 1.25-5.63 3.54-13.13 6.88a155.64 155.64 0 0 0-21.25 13.12c-7.5 5-15.42 11.04-23.75 18.13-3.75 2.5-6.04 6.66-6.87 12.5h1.87c1.25 0 2.5-1.05 3.75-3.13 1.67-2.08 2.92-3.12 3.75-3.13l16.25-15 58.75-37.5c11.25-7.91 18.33-19.79 21.25-35.62h-3.75m156.25 4.38a230.19 230.19 0 0 0-4.37 5.62 74.07 74.07 0 0 0-2.5 5.63c-4.59 10.41-6.88 19.16-6.88 26.25 0 15.41 5 26.45 15 33.12l5 3.75c3.33 2.5 5.83 4.17 7.5 5 2.08.83 6.87 1.25 14.38 1.25l6.25.63c4.16.41 6.24-.84 6.25-3.75 0-1.67-.84-2.5-2.5-2.5l-1.88.62c-.83 0-2.3.2-4.37.63h-1.88c-22.5 0-35.2-11.88-38.12-35.63l-1.25-5.63c.83-.83 1.45-3.12 1.87-6.87l2.5-10.63c0-.83 2.5-5 7.5-12.5 0-1.66-.83-3.33-2.5-5m-196.25 11.88c1.67-1.25 3.12-1.87 4.38-1.88.41 0 2.29.42 5.62 1.25a91.06 91.06 0 0 1 1.25 6.88c0 3.33-2.5 6.46-7.5 9.38a75.98 75.98 0 0 0-16.87 15.62 74.8 74.8 0 0 1 5.62-2.5 43.66 43.66 0 0 0 6.25-3.13l5.63-5 6.87-5c5.42-2.91 8.12-7.7 8.13-14.37 0-6.67-3.13-10-9.38-10-7.08 0-10.62 2.08-10.62 6.25l.62 2.5m223.75-.63-3.75 15v3.75l3.75 2.5c1.67-3.74 2.5-7.5 2.5-11.25 0-3.33-.83-6.66-2.5-10m-158.75 40.63h8.75c22.92 0 34.38-7.08 34.38-21.25 0-7.08-3.34-10.63-10-10.63-5.42 0-8.13 2.92-8.13 8.75v1.88l5.63-2.5.62-.63c3.33 0 5 1.88 5 5.63 0 4.17-2.92 8.13-8.75 11.88-5.42 3.33-11.67 4.79-18.75 4.37h-1.87c-2.92 0-5.21.83-6.88 2.5m-123.12 5c4.17-.42 6.25-2.3 6.25-5.63 0-2.91-.83-4.58-2.5-5-4.58-2.5-6.88-5-6.87-7.5 0-7.5 3.95-11.25 11.87-11.25 10.42 0 15.63 3.96 15.63 11.88 0 7.08-5.21 15.2-15.63 24.38 15-6.67 22.5-14.8 22.5-24.38 0-11.67-6.67-17.5-20-17.5-13.75 0-20.62 5.42-20.62 16.25 0 .83.41 2.5 1.25 5l7.5 6.88.62 6.87m356.88-2.5 1.88 1.25 5 .63a38.51 38.51 0 0 0-6.25-8.13c-2.5-2.92-3.76-5-3.75-6.25 0-3.33 1.04-6.04 3.12-8.13h.63c3.74-.41 5.83-1.25 6.25-2.5 0-1.66-1.25-3.12-3.75-4.37h-1.25c-8.76 0-13.13 4.38-13.13 13.13 0 5.41 3.75 10.2 11.25 14.37m-102.5-17.5-.62 5.63c0 5.41 1.87 9.37 5.62 11.87l2.5-6.25-2.5-7.5 1.25-1.25 1.88-3.75c.41-.42 1.45-.63 3.12-.63 3.33 0 7.7 2.09 13.13 6.25l12.5 15.63c0 1.67.62 2.5 1.87 2.5 2.08 0 3.12-.83 3.13-2.5-.42-.42-.63-1.04-.63-1.88l-1.87-3.75-2.5-4.37-3.13-3.75-3.12-4.38-3.75-2.5-9.38-5.62c-2.5-.83-5.63-1.25-9.37-1.25-3.76 0-6.46 2.5-8.13 7.5m-291.25-6.88a30.98 30.98 0 0 1 3.13 9.38 88.6 88.6 0 0 1 1.87 6.25c0 2.08.2 3.54.63 4.38l3.12 20.62c.42 2.08.2 5-.62 8.75-.42 3.33-1.05 7.92-1.88 13.75a523.06 523.06 0 0 0-4.37 25c-1.25 8.33-2.3 13.96-3.13 16.88-1.67 6.25-2.5 11.04-2.5 14.37v16.25h-.62v.63a218.1 218.1 0 0 0-1.25 6.87v6.25c0 17.5 1.87 34.38 5.62 50.63 4.17 16.25 8.75 25.83 13.75 28.75l5.63 3.12 1.25 4.38 2.5 6.87 1.25 2.5 1.25 1.25 2.5 3.75c3.33 4.58 8.33 9.17 15 13.75 10.41 6.67 17.08 10 20 10 2.91 0 4.37-1.46 4.37-4.38 0-2.5-3.13-5-9.37-7.5-2.09-.41-4.59-1.66-7.5-3.75l-6.25-4.37-3.75-4.38-3.75-4.37c-2.92-2.92-4.38-7.3-4.38-13.13v-2.5c7.5-3.75 11.25-9.58 11.25-17.5v-3.75l-11.25-34.37c-.42-2.08-.83-3.96-1.25-5.63v-5.62c0-18.33 6.67-28.13 20-29.38.42-3.33.63-5.62.63-6.87.41-1.67.62-2.3.62-1.88 0-2.5-1.67-3.74-5-3.75-3.33 0-6.67.84-10 2.5l-5 5c-.83-.83-1.25-1.45-1.25-1.87l1.88-3.75a15.4 15.4 0 0 0 2.5-8.75c0 .42-.42-1.46-1.25-5.63-4.59.84-7.5 2.5-8.75 5l-1.25 2.5-5 5-1.88 3.75-1.25 1.88c-1.67 2.92-2.5 5.63-2.5 8.13v5l-1.87 16.25.62 4.37-.62-1.25v7.5-7.5l1.25 17.5 6.25 21.25c1.25 2.08 1.87 3.75 1.87 5s-.62 1.46-1.87.63h-3.75c-5.42-10.42-8.13-25.84-8.13-46.25 0-25.84 2.5-45.63 7.5-59.38l16.88-47.5c.83-3.33 1.25-5.2 1.25-5.63 0-1.25-.21-2.5-.63-3.75 0-1.66-.2-3.54-.62-5.62a12.4 12.4 0 0 0-4.38 3.75 40.8 40.8 0 0 0-3.75 4.38l-1.87-1.88c0-.42-.21-.83-.63-1.25l1.25-7.5v-1.25c.42-9.58-4.17-18.54-13.75-26.88-1.67-1.25-4.58-2.91-8.75-5m311.25 11.88-4.37 4.38-5.63 6.87-5.62 7.5c.41 1.67 1.04 2.5 1.87 2.5l1.25-.63c.42-.41.83-.62 1.25-.62l5.63-6.25 6.87-6.88.63-5.62-1.88-1.25m-96.87 5.63a23.51 23.51 0 0 0-7.5 6.87l2.5-.63 4.37-1.25h3.13c.41 0 1.04.42 1.87 1.25 1.25.84 2.08 1.25 2.5 1.25.42 0 .63-.41.63-1.25 0-4.16-1.25-6.24-3.75-6.25l-3.75-.62v.63m93.12 10.62-2.5 3.75c7.08 4.58 12.7 6.88 16.88 6.88 12.91 0 19.37-2.5 19.37-7.5 0-1.25-.62-1.88-1.87-1.88s-3.76.63-7.5 1.88c-3.76.83-6.67 1.25-8.75 1.25-5 0-10.21-1.46-15.63-4.38m-110 1.25c-4.17.42-6.25 2.08-6.25 5 0 2.08 1.46 3.13 4.38 3.13 4.16 0 6.24-1.88 6.25-5.63 0-1.67-1.25-2.5-3.75-2.5h-.63m-33.75 4.38c2.92.83 5.42 1.45 7.5 1.87 5.83.83 8.75 1.88 8.75 3.13l-1.25 8.12h5a14.67 14.67 0 0 0 3.13-5c0-4.17-1.67-6.67-5-7.5l-3.13-.63-5.62.63-5-1.25-4.38.63m51.25 9.37 2.5 4.38c.42 1.25.63 3.54.63 6.87 0 4.17-3.55 10.42-10.63 18.75l-5.62 3.75-1.25 2.5c1.66.83 2.7 1.04 3.12.63l3.13-1.88 4.37-3.75c7.5-6.25 11.25-14.17 11.25-23.75s-4.17-14.38-12.5-14.38c-4.17 0-6.25 1.46-6.25 4.38 0 1.25.42 1.88 1.25 1.88.42 0 1.04-.21 1.88-.63 1.25-.42 2.29-.63 3.12-.63.83 0 2.5.63 5 1.88m-126.25 1.88-6.87 1.87v.63a86.84 86.84 0 0 0-12.5 5.62l-10 6.25-16.25 11.25-6.88 7.5-7.5 9.38-3.12 4.37a111.9 111.9 0 0 0-7.5 13.75 48.67 48.67 0 0 0-4.38 13.13c5.42-4.17 9.17-7.92 11.25-11.25l10-16.88 7.5-8.13 10-9.37c15.42-15.42 35.83-23.13 61.25-23.13 22.92 0 43.33 7.09 61.25 21.25l1.88 1.88 1.87 1.88 5.63 8.12 1.87 2.5 2.5 6.25 1.88 5.63 1.87 6.87c.42.42.63 2.3.63 5.63 0 7.08-1.88 14.58-5.63 22.5l-1.25 1.25c-5.83 10-12.3 14.58-19.37 13.75l-3.75-.63h-7.5v1.88c-.42 6.66 3.33 10 11.25 10 2.91 0 5.83-1.46 8.75-4.38h1.87c.42 2.5 1.04 3.75 1.88 3.75 2.91 0 5.83-1.46 8.75-4.38l6.25-6.25 1.87-1.87c.42-.83.83-1.46 1.25-1.88.42-1.66.63-2.7.63-3.12l.62-1.25-.62-6.25c0-1.25.62-1.87 1.87-1.88l.63.63 5 3.75 2.5-4.38.62-2.5c.42-2.08.63-3.95.63-5.62.41-1.67.62-3.12.62-4.38 0-10-2.92-20.41-8.75-31.25l-3.12-3.12a77.19 77.19 0 0 0-3.75-5v-3.75c5.41-.42 8.12-1.87 8.12-4.38 0-1.25-2.3-3.54-6.87-6.87-1.25-.42-3.13-1.67-5.63-3.75l-3.12-3.13c-2.09-2.08-5-3.95-8.75-5.62l-6.25-2.5-2.5-1.88c-1.25-.41-3.55-1.04-6.88-1.87-2.08-.83-5-1.67-8.75-2.5-3.33-.83-7.7-1.67-13.12-2.5-7.09-.42-12.09-.63-15-.63-2.5-.41-3.34-.62-2.5-.62l-20.63 2.5a81.4 81.4 0 0 1-6.25 1.25 98.3 98.3 0 0 0-7.5 1.88m246.88 10c.42.41 1.25.62 2.5.62 1.67 0 2.5-.83 2.5-2.5l-1.25-6.25c-.83-4.58-1.88-6.87-3.13-6.88-1.66 0-2.5 1.05-2.5 3.13v2.5c.42 1.25.84 3.33 1.26 6.25l.62 3.13m5.63-11.88c.41 4.17 1.87 6.25 4.37 6.25s6.87-.63 13.13-1.88h13.12l20.63 3.75 15.62 4.38 7.5 1.25 1.25-.63-2.5-1.25c-13.33-8.74-26.46-13.12-39.38-13.12h-6.87l-8.13-.63h-1.25l-8.12.63-9.38 1.25m-57.5 19.38c0 7.08 1.67 12.91 5 17.5l6.26 8.12 5.62 3.13c1.67 1.25 2.92 1.87 3.75 1.87h1.25l10.63-.63 6.25.63c2.5 0 6.24-2.7 11.25-8.13 2.5-3.33 4.58-7.7 6.25-13.12h-1.88c-2.08 0-3.54 1.04-4.38 3.13-6.25 10-12.7 15-19.37 15-7.92 0-14.38-3.55-19.38-10.63-1.24-1.25-1.87-2.3-1.87-3.13v-1.25c-.83-.83-1.46-1.25-1.88-1.25l-1.24-5-.63-5.62-.63-2.5c0-1.67.21-2.92.63-3.75l2.5-10c.42-1.25.2-2.3-.63-3.13l-2.5-.62-1.87 4.38-2.5 5.62-.63 9.38m-90-18.13-1.87 2.5c-.83 2.5-1.25 3.54-1.25 3.13 0 2.91 1.67 4.37 5 4.37 2.5 0 3.75-1.46 3.75-4.38 0-.83-.2-1.45-.63-1.87l-1.24-3.13-3.75-.62m13.12 1.25c-1.67 0-2.5 1.25-2.5 3.75 0 3.33 1.46 5 4.38 5 3.33 0 5-1.25 5-3.75 0-3.33-2.09-5-6.25-5h-.63m234.38 7.5a17.5 17.5 0 0 0-2.5 8.75c0 2.92.2 5 .63 6.25h-3.13c-3.33 0-5 1.25-5 3.75 0 2.08.2 3.54.63 4.38l1.87 8.12 3.75 5 .63 2.5 3.75 3.13 1.25 4.37 4.37 5.63c.42.41.63 1.66.63 3.75 0 1.66-1.05 2.5-3.13 2.5l-2.5-3.13-3.13-8.13-4.37-3.12-.63 4.38c-.83-.42-2.29-.63-4.37-.63-1.25 0-2.7.83-4.38 2.5v2.5c2.5 2.5 4.59 5.63 6.25 9.38l5.63 5.62c2.92 1.25 5.2 1.88 6.88 1.88 7.91 0 11.87-5.84 11.87-17.5 0-4.17-1.46-11.88-4.38-23.13a45.41 45.41 0 0 1-1.87-13.13v-5.62l5-17.5a8.7 8.7 0 0 0-3.75-.63c-2.92 0-6.25 2.71-10 8.13m-333.12 3.13 5 .62 15.63.63c11.25.83 21.25 5.2 30 13.12 3.33 4.58 5 7.92 5 10 0 4.17-3.34 6.88-10 8.13l2.5 3.12 5 .63 2.5.62c1.66 0 3.12-1.25 4.37-3.75 1.67-2.5 2.5-5 2.5-7.5 0-12.92-13.33-22.08-40-27.5a28.93 28.93 0 0 0-5.63-.63c-1.25-.41-2.29-.62-3.12-.62l-1.88.63-11.87 2.5m192.5-1.25c-1.25 3.33-1.88 5.62-1.88 6.87 0 3.75 2.71 5.63 8.13 5.63 3.33 0 7.92-1.67 13.75-5 1.25-.42 3.12-1.67 5.63-3.75-1.67 0-4.38.62-8.13 1.87-3.75.83-6.04 1.25-6.88 1.25-3.33 0-6.87-2.3-10.62-6.88m97.5 6.88-3.13-2.5h-3.75l-3.12-2.5h-5l-4.38-.63-8.75.63-1.87-1.25-5.63.63-5-.63-9.37 1.88-3.13 1.87-8.75 1.88-8.12 3.75-12.5 5.62-6.88 5-5 3.13c-.83.83-1.25 1.45-1.25 1.87 0 2.5 1.46 3.75 4.38 3.75 1.67 0 4.17-1.46 7.5-4.38 3.33-3.33 6.04-5 8.13-5l12.5-5 7.5-3.12 24.37-3.13c1.25-.41 3.54-.62 6.88-.62 3.33 0 5.41.2 6.25.63l11.25 1.25c1.25 0 3.54-1.05 6.87-3.13m-309.38 1.25c-.42 10-2.7 17.92-6.88 23.75-2.08 3.33-5 6.88-8.74 10.63a230 230 0 0 1-4.38 5.62c-1.25 2.08-2.7 4.58-4.37 7.5l-3.13 6.25c-2.08 3.33-3.54 10.83-4.37 22.5l3.75-5c11.66-16.67 25.41-24.8 41.25-24.38h.62l11.25.63c2.5 0 3.75.63 3.75 1.88 0 .83-.63 1.25-1.88 1.25h-2.5c-.83-.42-2.29-.84-4.37-1.25h-1.88c.42 0-.2.2-1.87.62-1.67 0-4.58.2-8.75.63l-7.5 1.25-2.5.62-.62 1.25c-9.17 4.17-16.88 11.67-23.13 22.5l-1.25 5a44.5 44.5 0 0 0-1.87 5.63c0 1.66-.21 3.33-.63 5 0 2.5 1.67 4.16 5 5 1.25-15.84 9.17-23.75 23.75-23.75 2.92 0 7.92 2.29 15 6.87l1.88 6.88 1.25 3.75-.63 5.62c-2.08 3.33-5.2 6.46-9.38 9.38 2.5 2.5 4.8 3.75 6.88 3.75 12.92 0 18.96-5.42 18.13-16.25v-5h3.75l.62 3.75 3.75.62c1.67-3.75 2.5-7.3 2.5-10.63 0-4.58-1.67-7.91-5-10l-1.25-1.25c-2.5-1.25-3.75-2.5-3.75-3.75s.63-1.87 1.88-1.87 2.08.83 2.5 2.5c7.5 6.25 15.83 9.38 25 9.38 2.08 0 3.33-.21 3.75-.63l3.12-1.88-4.38-5v-.62c0-1.67 3.34-2.7 10-3.13h1.25l1.88-1.25c1.67-1.25 4.17-2.91 7.5-5l5-3.12c1.67-1.67 2.92-4.17 3.75-7.5l1.25-8.13-13.13 1.25h-2.5l-6.87-3.75-5.63-3.12c-2.5-.83-5.2-1.67-8.12-2.5-2.5-.83-5.2-1.46-8.13-1.88l-4.37-2.5c3.33-5.83 5-10.83 5-15v-1.25a27.77 27.77 0 0 1-5 2.5 44.47 44.47 0 0 0-5.63 1.88l-11.25 2.5c-2.08.42-5.41 2.3-10 5.63l-7.5 7.5c-1.25 2.08-2.29 3.12-3.12 3.12-1.67 0-2.5-.63-2.5-1.88 0-.83 1.87-3.12 5.63-6.87a11.38 11.38 0 0 0 3.75-5l1.25-10-5 2.5-1.25-1.25-5-9.38-5.63-3.12m327.5 0-3.75 1.25-5.63.63c-14.58 3.33-24.16 9.37-28.75 18.12l-3.75-5-8.12 6.88c-4.17 5.41-6.25 10.41-6.25 15v5c0 2.5.2 4.37.63 5.62l2.5 6.25 2.5 1.25.62-3.13 1.88.63-.63 6.88h1.88l1.87 2.5 1.25-4.38 1.88.63v-1.25c-.42 1.25-.63 3.12-.63 5.62l1.25 6.25 1.88.63 1.25-5 3.75-13.13 3.12-7.5h1.88v1.88l.62-1.88c-2.08 5-3.75 10-5 15-.83 5-1.46 9.8-1.88 14.38l1.25.62 3.13-7.5 2.5-.63-1.88 5.63c17.5-3.33 27.71-9.58 30.63-18.75l4.38-12.5c.41-1.67.62-2.92.62-3.75.42-.83.63-1.67.63-2.5 0-1.25-.63-2.3-1.88-3.13l-10.63 4.38-3.12 1.25 3.75-6.25 1.88-15.63c0-2.08.83-4.58 2.5-7.5l2.5-4.37c-.42-.42-.63-1.25-.63-2.5m-41.25 1.88-18.75 1.87-7.5 4.38-2.5 3.12c-2.08 3.33-3.13 5.63-3.13 6.88 0 1.66 1.25 3.75 3.75 6.25 2.5 2.08 4.59 3.12 6.25 3.12 1.67 0 3.75-1.87 6.25-5.63-4.16-1.25-6.25-3.12-6.25-5.62 0-6.25 6.46-10 19.38-11.25h4.38c1.66-.42 3.54-.83 5.62-1.25l-7.5-1.88m45 15 8.75 8.13c.42 1.67 1.04 2.5 1.88 2.5.83 0 1.25-.42 1.25-1.25l-1.88-5.63-1.25-5.62-5-3.75-1.88-1.88a7.82 7.82 0 0 1-3.12-1.87l-.63.63h-1.87c-1.25 0-1.88 1.04-1.88 3.12 0 2.5 1.88 4.38 5.63 5.63m-368.75.62-3.75 4.38-6.87 5.62-3.75 6.25-3.75 4.38 3.75-1.25c.83-.84 1.66-2.09 2.5-3.75a32.76 32.76 0 0 1 3.75-5.63c6.24-6.25 11.66-9.37 16.25-9.38 1.66 0 3.74.63 6.25 1.88l1.25 5c0 3.33-2.5 7.08-7.5 11.25 9.16-2.92 13.75-7.92 13.75-15 0-5.83-2.92-8.75-8.75-8.75-5.42 0-9.8 1.67-13.13 5m160.62 1.25h-1.88l-3.74 1.25v2.5c3.33 2.08 5.83 3.13 7.5 3.13 5 0 7.5-2.5 7.5-7.5 0-1.67-.84-2.5-2.5-2.5-1.25 0-3.55 1.04-6.88 3.12m78.13 14.38c.83.41 2.7.62 5.62.62 1.25 0 1.87-.42 1.88-1.25 0-3.33-1.46-5-4.38-5-1.67 0-2.7 1.88-3.13 5.63m-79.37-5c.42 5.41 2.92 8.12 7.5 8.12 1.25 0 2.5-1.25 3.75-3.75a74.1 74.1 0 0 1-5.63-2.5 22.36 22.36 0 0 0-5.62-1.88m123.75 0c-1.25 2.09-1.88 3.96-1.88 5.63 0 2.92.21 4.8.63 5.63l-5 1.25h.63l-3.75-3.13c-3.34-2.5-6.46-3.75-9.38-3.75h-4.38l-7.5 1.25-6.24 2.5c-.42.42-1.25.63-2.5.63-1.67 0-4.38-.63-8.13-1.88-.42 1.25-.63 3.75-.63 7.5 0 2.92.84 5.83 2.5 8.75a2043.2 2043.2 0 0 0 2.5 5c2.09 3.75 5.63 8.13 10.63 13.13 1.67.83 3.33 1.87 5 3.12 0 .42-1.46 1.04-4.38 1.88-2.5.83-3.75 1.66-3.74 2.5 0 5 5.62 9.58 16.87 13.75l10.63 3.12h.62l2.5-1.25c1.25-.42 2.7-1.04 4.38-1.88l-1.25-3.75 5.62 1.25c2.5 0 3.75-.83 3.75-2.5-.42-.41-1.04-.62-1.88-.62h-1.24l-5-4.38 6.25 3.13c1.66.42 2.91.83 3.75 1.25h1.25c2.08 0 3.95-.83 5.62-2.5l-10-4.38-10.63-10 1.88-.62 2.5 2.5v-1.25l6.88 6.25 8.75 4.38c2.91 1.25 4.58 2.08 5 2.5 2.08 0 3.12-.84 3.12-2.5 0-2.09-1.46-3.96-4.38-5.63l-3.12-1.88-3.75-2.5.63-1.87 10 6.25v-3.13c0-1.25-.63-2.91-1.88-5l2.5.63c0-4.17-1.67-7.3-5-9.38l-.63-1.25h1.25c1.67 2.5 3.13 3.76 4.38 3.75h1.25l-1.88-5.62-2.5-3.13c2.5 0 3.75-.41 3.75-1.25 0-5.83-3.75-11.66-11.25-17.5a74.95 74.95 0 0 0-5.62-2.5 22.26 22.26 0 0 0-6.25-1.87l-1.25-.63m-123.12 9.38 1.88 9.38v13.75l-1.25 6.87c-1.67 3.75-2.71 9.38-3.13 16.88-.42.41-.63 1.45-.63 3.12 0 1.25-.2 2.3-.62 3.13-1.25 7.5-1.88 12.08-1.88 13.75l.63 4.37 1.88 20 6.25 15 5.62 9.38 2.5 4.37c7.08 13.33 20.63 25.63 40.63 36.88 20.83 10.83 39.79 15.62 56.87 14.37h3.13c4.16-.42 7.29-.63 9.37-.63 2.5-.41 3.96-.62 4.38-.62 2.5 0 4.79 1.67 6.87 5 1.25.42 3.12.63 5.63.63h6.87c2.08 0 3.75-.21 5-.63l16.88-3.75c1.25-.42 2.7-.63 4.37-.63h4.38c3.33 0 8.74.63 16.25 1.88-.42-4.17-5.21-7.3-14.38-9.38l-4.38-.62c-1.66-.42-4.37 0-8.12 1.25-2.5.83-5.63 1.46-9.38 1.88-3.75 0-7.91.2-12.5.62l-1.25-.63c-.41-.41-.62-1.45-.62-3.12 0-.83.63-1.67 1.88-2.5l11.25-2.5 4.37-4.38c.83-.83 1.25-2.29 1.25-4.37 0-2.92-.83-5.2-2.5-6.88-4.58 5-10.42 7.5-17.5 7.5l-9.38 4.38c-.83 6.25-5.41 9.38-13.75 9.38h-13.75c-6.66-.84-11.87-1.46-15.62-1.88-3.75-.42-6.25-.83-7.5-1.25-2.08-.42-4.38-.83-6.88-1.25-2.08-.83-4.79-2.08-8.12-3.75l-11.88-5.63-3.12-1.87-7.5-4.38-4.38-3.12-2.5-2.5-3.12-3.75-10.63-11.25-.62-1.88-1.25-1.87-.63-.63-2.5-3.12-10.62-18.75-1.25-5.63-3.13-18.75 4.38-41.25-.63-15c-.41-7.5-1.04-11.66-1.87-12.5a9.45 9.45 0 0 0-3.75-3.12m71.25 11.25a92.47 92.47 0 0 0-2.5 21.25c0 2.92 1.04 8.96 3.13 18.13v1.87l3.12 7.5 4.38 13.75h1.25c2.91 0 5.2 1.46 6.87 4.38l1.25.62c9.17 9.17 20.42 13.75 33.75 13.75a59.2 59.2 0 0 0 17.5-2.5 63.03 63.03 0 0 0 15-7.5c4.58-2.92 8.12-6.25 10.63-10 2.91-4.17 4.37-8.33 4.37-12.5 0-2.5-1.46-5.2-4.38-8.13l-4.37-1.25-3.75 6.25-1.88-.62v-2.5c0-2.92 2.71-5.62 8.13-8.13-1.67-10.41-5.2-17.91-10.63-22.5h-1.25c-.41 1.25-.83 3.76-1.25 7.5a84.52 84.52 0 0 0-.62 8.75c0 .84.42 2.3 1.25 4.38 1.25 2.08 1.87 3.54 1.88 4.38v.62l-1.25 1.25c0 .42-.21.83-.63 1.25h-10.63c-1.25 0-4.79 1.67-10.62 5l-5 1.88c8.75 3.33 13.33 5 13.75 5h4.38l6.25-.63-1.88 10.63 2.5-1.25 3.75-5.63c.42-.42 1.04-.63 1.88-.63.41 0 .62.42.62 1.25 0 11.25-11.25 17.09-33.75 17.5h-6.25c.42 0-1.46-.41-5.63-1.25l-3.75-.62-5.62-3.75-1.88-1.25-1.87-1.25-4.38-3.13-4.37-5-2.5-3.75-5-8.12c-3.33-5.83-5-12.92-5-21.25v-6.25l-.63-7.5c0-1.25-1.45-4.58-4.37-10m173.75 6.25-1.25 1.25-3.13 2.5c-.83.42-2.91 1.25-6.25 2.5-2.91 1.25-4.37 2.08-4.37 2.5 0 1.67 1.25 2.5 3.75 2.5 1.25 0 3.12-.63 5.63-1.88l3.75-1.87 1.87-7.5m-35.63 9.38h-.62l-7.5 1.25c-2.08.83-3.96 4.16-5.63 10l5.63.62-3.13 1.25-5.62 1.88 1.25.62-1.88 3.13h3.75l-1.25 3.12c-2.91 0-4.58.63-5 1.88l-2.5 3.75 10-1.88 1.25.63v-1.88 2.5l-4.37 1.25 3.75-.63-17.5 3.13v1.88h19.38c-5.84 2.5-10.63 3.75-14.38 3.75h-3.75c1.25 2.5 2.7 3.75 4.38 3.75h3.12l.63 1.25h-4.38l5 .62h-4.38v1.88c-.83 2.5-.41 3.75 1.25 3.75l3.75-.63 1.25 1.25-4.37.63h4.38l.62-1.88-.63 1.88h-4.37l-.63 2.5 3.75 3.75c4.17 5.41 9.59 8.12 16.25 8.12.84 0 2.5-.42 5-1.25l5-1.88 6.25-2.5c1.67-1.66 2.71-2.91 3.13-3.75l2.5-3.75v-1.87c0-.83-.83-1.25-2.5-1.25h-.63l-3.12-.63v-1.25c.42-.41 3.33-1.87 8.75-4.37l1.25-1.88c.42-.41.83-.62 1.25-.62l1.25-1.25 3.13-3.13c2.5-4.16 5.41-7.29 8.75-9.37l.62-10.63c-1.25.42-3.33.63-6.25.63l-5-1.25-9.38-3.13-5.62.63v-4.38l1.25-6.25h-13.13m26.88 5v1.88c0 3.33 1.04 5 3.13 5 4.16 0 6.24-1.67 6.25-5a4.2 4.2 0 0 0-1.88-3.75l-1.25-.63-6.25 2.5m-43.75.63-5.63 1.88c-.83.41-2.5 1.04-5 1.87-2.08.42-4.79 1.25-8.12 2.5a13.15 13.15 0 0 0-7.5 8.13c1.25 2.08 2.3 3.12 3.13 3.12-2.5 0 1.45-2.3 11.87-6.88-2.08 3.76-4.17 6.05-6.25 6.88h-2.5v2.5c0 2.08.2 3.33.63 3.75 8.33 0 14.79-7.92 19.37-23.75m-201.88 6.88a44.66 44.66 0 0 1-3.75 11.25 32.31 32.31 0 0 1-4.38 7.5v1.87l-5 6.25-2.5 4.38-6.24 6.25-9.38 8.12-4.38 3.13-9.37 4.37-16.25 3.13-5.63 1.87H290.6l2.5 2.5c2.92 2.92 5 4.38 6.26 4.38h6.87c3.33-.42 7.5-.84 12.5-1.25h5.63l13.12-8.13 4.38-3.75 3.75-3.75 9.37-8.75 14.38-18.13c3.33-9.16 5-15.2 5-18.12 0-1.25-1.05-2.3-3.13-3.13m96.25 12.5-5.63-2.5c2.92 7.5 6.67 11.25 11.26 11.25 2.5 0 3.74-1.04 3.75-3.12l-.63-3.13-8.75-2.5m-220.62-1.25.63 3.75c0 4.59-2.3 7.5-6.88 8.75l-3.75.63-16.25-1.25c-4.58-.83-8.13 2.08-10.62 8.75-.42.42-.63 1.88-.63 4.38 0 5.41 1.67 9.37 5 11.87 3.75 2.5 6.46 3.75 8.13 3.75 3.33 0 6.24-2.7 8.75-8.13-5 2.09-7.3 3.13-6.88 3.13h-1.25l-.62-.63-3.13-2.5-1.87-1.25c-1.25-.41-1.88-2.5-1.88-6.25 0-5.41 3.33-8.12 10-8.12h.63l16.25 1.25c3.33 0 6.24-1.67 8.75-5a17.4 17.4 0 0 0 3.75-10.63c0-5.83-1.46-9.58-4.38-11.25h-1.25c-2.08 0-3.13 1.46-3.12 4.38 0 2.08.2 3.54.62 4.38m-8.12-3.75-1.25 3.75c-1.67 2.91-2.5 5-2.5 6.25 0 1.66.83 2.5 2.5 2.5 1.66 0 2.5-1.05 2.5-3.13v-1.88c-.42-.41-.63-1.45-.63-3.12 0-1.67-.2-3.12-.62-4.38m66.25 11.88-3.75 4.38-1.25 6.25c0 4.58 2.08 8.54 6.25 11.87 4.16 2.92 8.54 4.38 13.12 4.38 16.25 0 29.38-9.17 39.38-27.5l-4.38 1.25-9.38 11.25c-4.16 5.41-9.79 8.12-16.87 8.12-2.08 0-5.2-1.25-9.38-3.75-4.16-2.92-6.25-5.2-6.25-6.88 0-5 2.71-7.29 8.13-6.87h5c-.83-5-3.75-7.5-8.75-7.5l-1.88.63-5 1.25c-1.25 0-2.91 1.04-5 3.12m170 8.13-.62 1.87c.42.42.63.83.63 1.25.41.42 1.04.83 1.87 1.25 8.33 7.08 17.3 10.63 26.88 10.63 2.5-.84 5.2-2.92 8.12-6.25 3.33-3.75 5.62-5.63 6.88-5.63v-2.5l-3.13 1.88-7.5 3.12c-.83 2.08-1.88 3.13-3.13 3.13h-1.25l9.38-10.63-3.13-1.25-5.62 4.38-1.88 1.25h-2.5l8.13-6.88c-4.17-.83-6.04-1.25-5.63-1.25-.83 0-2.5.63-5 1.88-2.5 3.33-4.79 5-6.87 5l-1.25-.63 6.88-5.63-1.25-1.25-1.88.63h-5c-2.08.83-6.46 2.7-13.13 5.63m145.63-3.75h-1.88l.63.62-6.25 15.63-1.25 5.62-2.5 4.38-3.75 11.87-3.13 5.63a97.96 97.96 0 0 0-5 6.87 46.05 46.05 0 0 0-5 8.13l-1.25 1.87-11.25 11.25c-3.33 3.33-4.58 5.83-3.75 7.5v3.75l6.25-3.75 3.75-4.38 9.38-8.12 11.25-18.13c5.41-8.33 9.16-15.62 11.25-21.87 0-2.5.62-6.04 1.87-10.63l3.13-7.5-.63-3.12c-.42-.42-.63-1.25-.63-2.5 0-1.67-.2-2.92-.62-3.75l-.63.63m-68.12 5 3.75 3.12h-3.75l-1.25-1.25c-.83 3.33-1.25 4.8-1.25 4.38 0 1.25 1.25 2.7 3.75 4.37 2.92 2.92 7.3 4.38 13.13 4.38-3.34-12.5-6.67-18.96-10-19.38l-3.13-.63-1.25 5m-183.75-1.87-3.75 3.75-1.25 3.75-3.13 2.5v1.25l-1.24-.63-23.13 23.13c-4.58 4.58-6.88 9.17-6.88 13.75v2.5l1.26 5.63c4.16 5 8.95 7.5 14.37 7.5 9.17 0 14.8-5.63 16.88-16.88l-3.13 2.5-2.5 3.13-10 1.87c-4.17-1.67-6.25-4.38-6.25-8.13 0-5.41 2.7-10.83 8.13-16.25l15-15.62c2.5-2.92 4.37-7.5 5.62-13.75m85 .63c-1.25 13.75-5.42 20.2-12.5 19.37h-.63c0 3.75 1.26 5.63 3.76 5.63 5.41 0 9.16-6.25 11.25-18.75l-1.88-6.25m58.75 13.12c8.75-1.67 13.13-3.75 13.13-6.25 0-1.25-1.05-1.87-3.13-1.88-5 0-8.33 2.71-10 8.13m-267.5-8.13-9.37 1.25 4.37 8.75 6.25 5 2.5 2.5 17.5 8.75c1.25.84 1.87 1.67 1.88 2.5-.84.84-1.46 1.25-1.88 1.25-1.25 0-3.96-.62-8.13-1.87-3.75-1.67-6.87-2.5-9.37-2.5-3.33 0-7.7 1.04-13.12 3.13-5 1.66-8.76 4.58-11.25 8.75l-1.25 1.25v1.25c-2.09 3.33-3.13 6.25-3.13 8.75 0 3.75.2 6.04.63 6.87l2.5 8.13 3.75 5.62h1.87l1.88-5c5 5.83 10.62 8.75 16.87 8.75 6.67 0 10-1.88 10-5.63 0-2.08-1.25-3.12-3.75-3.12l-3.12.63-6.88-.63-1.87-1.88-4.38-3.12-2.5-3.75a43.24 43.24 0 0 0-1.25-5v-3.75c0-9.17 6.46-13.75 19.38-13.75 5 0 11.04 1.25 18.12 3.75l-1.25-8.75 8.75-5.63-13.75-6.87-20-15.63m31.88 11.88c2.08 3.75 6.04 6.67 11.87 8.75l5.63 1.88c3.33.83 5.2 1.25 5.62 1.25 2.5 0 5.42-1.25 8.75-3.75l-6.25-1.25-11.25-1.25-4.38-3.13-2.5-5.63 4.38-5.62c0-1.25-.83-1.87-2.5-1.88-6.67 0-9.8 2.71-9.38 8.13v2.5m186.26-5c-3.34 4.58-5 7.3-5 8.13 0 .83 1.45 1.87 4.37 3.12l5.63 1.25-2.5 6.88a22.18 22.18 0 0 0-2.5 10c0 2.5 1.04 7.91 3.12 16.25l3.13 4.37c1.25 3.33 2.7 5 4.37 5l6.25-8.13 13.75-9.37 3.75-6.25 3.13-1.25.62 8.13h1.25c3.75.41 8.12-1.88 13.13-6.88 5-5.42 7.91-11.04 8.75-16.88h-.63c-4.58 0-7.08 2.5-7.5 7.5l-2.5-.62v-6.25l-6.25 1.88-2.5 3.75-3.13-3.75-1.24-.63c-2.5 0-4.17 1.67-5 5l-1.88-.63.63-3.12c0-1.67-.63-2.5-1.88-2.5l-3.13.63-3.12 5h-.63v-.63c.42-.83.63-2.5.63-5l-2.5-1.25c-1.25-1.25-3.54-2.92-6.88-5l-7.5-5-4.37-3.13-1.88-.62m81.88 1.88-3.13 1.87-8.12 5.63c-.42.41-1.46.62-3.13.62v1.88c0 2.08 1.05 3.12 3.13 3.12 3.75 0 7.5-4.37 11.25-13.13m5 0V516.65c0 3.75 1.67 11.04 5 21.87h-1.88l1.88-.63v-1.25l-1.88 1.25-4.37-11.25-3.75-16.87-1.25 4.38a7.33 7.33 0 0 1-1.25 1.87v11.25h-1.88c0-5.42-.83-8.12-2.5-8.13-1.66 0-2.5 1.67-2.5 5 0 2.09.21 3.34.63 3.75l-1.25 1.25.63-1.87-1.88.63c0-4.17-1.25-6.88-3.75-8.13l.63-.63c-.42-.41-1.05-.62-1.88-.62-2.08 0-3.33 2.7-3.75 8.13l-1.88 9.37v2.5c0 2.92 1.46 6.46 4.38 10.63l.63 2.5 4.37 3.75 3.75-7.5 1.88-.63 1.25 3.13h-.63c1.67 5.83 4.8 10.2 9.38 13.12 6.66 5 11.87 7.5 15.62 7.5h1.25l7.5-.63v-11.87l5-15-1.88-8.75a20.74 20.74 0 0 0 8.13 1.88h3.75c-.42-6.25-2.3-11.67-5.63-16.25l-3.12-4.38-5.63-2.5-1.87-1.25-7.5-.63 3.75 9.38-4.38-2.5-1.87-3.13-1.88-1.87v-2.5l-4.37-1.88 3.75 9.38-4.38-1.25-4.37-11.88m-269.38 18.75-1.25 1.25 3.75 3.75 10.63 8.13 5 3.13 3.12 3.12a47.8 47.8 0 0 0 30.63 15l.62-1.25-1.25-.63-3.75-2.5a39.86 39.86 0 0 1-9.37-5.62l-2.5-1.25a9.8 9.8 0 0 1-2.5-1.88 14.55 14.55 0 0 0-3.75-2.5c-1.67-1.66-6.88-5.41-15.63-11.25a14.58 14.58 0 0 0-3.75-2.5 30.25 30.25 0 0 1-4.37-3.75l-5.63-1.25m167.5 8.75c-1.25 1.25-2.3 1.88-3.12 1.88-.84 0-2.3-.2-4.38-.63-1.67-.83-2.92-1.25-3.75-1.25-1.25 0-2.7.84-4.37 2.5l-1.88 1.25-2.5 5v9.38c4.17-5 7.7-7.5 10.63-7.5 1.66 0 4.16.63 7.5 1.88l2.5 1.87c1.25 3.33 1.87 5.42 1.87 6.25 0 .83-.2 1.67-.62 2.5 0 .83-.21 2.08-.63 3.75-2.92 2.92-6.25 4.38-10 4.38-5 0-12.08-2.71-21.25-8.13l-1.25-2.5a28.3 28.3 0 0 0-5-5 451.64 451.64 0 0 0-5.62-6.88l-3.75-1.87 2.5 5 2.5 1.88c.83 2.91 2.5 5.2 5 6.87l5.62 5.63c7.92 9.16 16.25 13.75 25 13.75 12.92 0 19.38-7.3 19.38-21.88 0-.83-.42-2.92-1.25-6.25l-4.38-13.13v-6.25h-1.25c-2.08 0-4.58 2.5-7.5 7.5m-56.87 16.25-1.25-1.87-7.5-12.5-3.75 8.75-1.25 1.25a59.54 59.54 0 0 1-7.5 6.25c-2.92 2.08-6.46 4.58-10.63 7.5-.42.42-1.25.63-2.5.63s-2.3.2-3.12.62c-5 1.25-8.34 1.88-10 1.88h-5c-2.5 0-4.38-.21-5.63-.63a59.83 59.83 0 0 1-26.87-10.63l-13.13-11.25-2.5-1.25-1.25-1.25-6.25-5.62c-3.33-2.08-5.42-3.12-6.25-3.13-.83 0-1.25.21-1.25.63l1.25 5 1.88 4.38c.41 1.66 1.04 3.95 1.87 6.87 1.25 2.5 2.92 5.63 5 9.38l3.75 8.75c.42.83.83 1.87 1.25 3.12l1.25 2.5c4.58 13.33 9.8 20 15.63 20h8.75c1.66 0 3.33-.2 5-.63 5.83-.41 10.41-.83 13.75-1.25 3.74-.41 6.24-.83 7.5-1.25l8.75-3.12 5.62-.63c2.5-1.25 5.2-2.5 8.13-3.75 3.33-1.66 7.08-3.33 11.25-5 11.25-5 16.87-10 16.87-15 0-2.08-.62-5-1.87-8.75m223.12-15.62-.63 1.25-7.5 14.38-.63 3.12 7.5-5.63c7.92-6.25 11.88-11.25 11.88-15 0-2.5-1.25-3.74-3.75-3.75-.42.42-.83.63-1.25.63l-.63.63-5 4.37m-342.5 18.75 5 1.25c.84-.83 1.26-1.67 1.26-2.5 0-4.17-2.3-6.25-6.88-6.25h-.62c-2.92.83-4.59 1.88-5 3.13v.62c0 2.5 1.25 3.75 3.75 3.75h2.5m-35-3.75c1.25 3.33 3.12 4.8 5.62 4.38h2.5l3.13-.63c.83 0 2.29.63 4.37 1.88l1.25 1.87 3.13 1.25 3.12 3.75c2.5 2.08 3.75 3.96 3.75 5.63 0 .41-.42 2.7-1.25 6.87l-5 3.13c-4.17 2.91-6.25 6.04-6.25 9.37 0 9.58 5.2 14.38 15.63 14.38 6.66 0 11.87-2.92 15.62-8.75a9.14 9.14 0 0 0 1.88-5.63c-.42-1.67-1.88-3.75-4.38-6.25v2.5c.83 8.33-2.92 12.5-11.25 12.5-7.5 0-11.25-2.7-11.25-8.13l.63-1.25 11.87-14.37 1.25-7.5-1.25-1.25-1.87-3.75a18.67 18.67 0 0 0-1.88-2.5l-.62-1.25-2.5-1.25-6.88-5c-1.67-1.67-7.08-2.5-16.25-2.5-1.67 0-2.7.83-3.12 2.5m261.88.63h1.25c-2.92 0-6.67 3.54-11.25 10.62-3.34 6.67-7.5 9.58-12.5 8.75l-5-.63c.83 4.59 3.12 6.46 6.87 5.63h3.13l5-3.75 8.12-9.38c1.25-1.25 3.33-1.87 6.25-1.87 3.75 0 5.62 1.88 5.63 5.63 0 10.83-12.09 16.25-36.25 16.25.83 0-4.59-1.25-16.25-3.75l-6.25-.63 7.5 3.13 13.75 3.12 4.37 1.25 2.5.63c27.92 0 41.88-7.3 41.88-21.88 0-2.08-.63-5.42-1.88-10a14.47 14.47 0 0 0-10.63-4.38l-4.37.63-1.87.63m107.5 8.75c-9.59 3.33-16.88 7.5-21.88 12.5a84.41 84.41 0 0 0-5.63 3.12 56.77 56.77 0 0 0-6.25 4.38c-2.5.83-3.75 1.66-3.75 2.5 0 .83.21 1.25.63 1.25.83 0 2.92-.63 6.25-1.88l6.88-2.5 17.5-8.13c.41-.41 2.08-.62 5-.62 7.91 0 12.7 2.08 14.37 6.25.83 3.33 1.25 4.8 1.25 4.38 0 1.25-1.04 2.91-3.13 5-1.66 1.66-2.91 2.5-3.75 2.5h-.62l-12.5-2.5c-.42-.42-1.88-.63-4.38-.63-6.25 0-9.16 2.7-8.75 8.13v3.75l2.5 3.12c.42-6.25 2.71-9.38 6.88-9.38 1.25 0 2.08.21 2.5.63l9.38 3.13 5 1.25c3.74 0 7.29-1.25 10.62-3.75 3.75-2.92 5.62-6.25 5.63-10 0-2.09-.21-3.34-.63-3.75l-5.63-10 3.13-1.25c.42-.42.63-.84.63-1.25 0-2.09-2.5-4.17-7.5-6.25-2.92-1.67-5.42-2.5-7.5-2.5l-3.75 1.25-2.5 1.25m-389.38 0c-1.25 3.33-1.88 6.04-1.88 8.12v3.75l1.25 3.13 3.13 4.37 3.75.63-3.13-5v-9.38l-3.12-5.63m180-1.87 2.5 8.13 1.25 1.87 6.25 7.5c1.25 3.33 1.87 5.42 1.87 6.25 0 8.33-3.75 12.5-11.25 12.5l-1.87-.63-13.13-4.37c-.42-.42-1.67-.63-3.75-.63-6.67 0-10 2.71-10 8.13 0 1.25 1.25 2.7 3.75 4.38.42-5.42 2.08-8.13 5-8.13h1.25l16.88 7.5c.83.42 2.5.63 5 .63 10.41 0 15.62-5.63 15.62-16.88 0-2.92-1.88-6.67-5.62-11.25l-8.75-8.75-5-6.25m-7.5 11.88c-2.09 1.66-3.96 2.7-5.63 3.12a61.2 61.2 0 0 1-6.25 3.75 6.78 6.78 0 0 0-2.5 1.25l-5 1.88-6.87 3.12-6.25 1.88c-2.92 1.25-6.46 2.5-10.63 3.75l-11.25 2.5c-3.75.41-7.08.83-10 1.25H313.09l-6.88 1.25c3.33 1.66 7.92 2.5 13.75 2.5 16.67 0 38.96-6.67 66.88-20 6.24-2.92 9.37-5.21 9.37-6.88 0-2.08-.62-3.13-1.87-3.13l-5 3.75m-221.88 6.25-1.25 2.5-.63 5.63v.63c.83 2.91 3.33 5.2 7.5 6.87l1.88-1.25c-2.09-3.33-3.13-5.42-3.13-6.25 0-4.58 2.3-6.88 6.88-6.88 2.08 0 4.58.84 7.5 2.5l24.37 17.5 5.63 1.88-6.88-5-8.12-6.88c-5.84-5-8.96-8.12-9.38-9.37-2.08-3.75-3.33-5.63-3.75-5.63h-2.5l-5-3.12c-.42-.42-1.25-.63-2.5-.63-3.33 0-6.88 2.5-10.62 7.5m382.5 2.5a22.34 22.34 0 0 0-5.63 1.88l-5 2.5c-.42 1.67-4.58 3.13-12.5 4.38h1.88c-.84 0-2.3 1.04-4.38 3.12v.63l7.5-.63 16.25-5c2.5 0 4.37-.2 5.63-.63 5.41-1.25 10.41-4.16 15-8.75h-1.88l-4.38-1.25h-1.87c-2.08 0-5.63 1.25-10.63 3.75m3.75-420.62c0 1.67-.83 2.5-2.5 2.5-.41-.41-.83-.62-1.25-.62l-.62-.63v-1.25c0-1.66.83-2.5 2.5-2.5l1.88 2.5m6.87-3.12 2.5 3.12c0 1.25-.83 1.88-2.5 1.88a6 6 0 0 1-1.88-4.38l1.88-.62m11.88 2.5-5.63 1.87-1.25-3.12 1.88 1.87c.41 0 .83.21 1.25.63l-3.75-1.88.62-.62h1.88l5 1.25m-265.63 23.12 3.13 3.75c-2.5 0-3.75-.41-3.75-1.25.42-.41.63-1.25.63-2.5m-53.75 2.5 2.5-1.25 1.25 4.38c-.42 0-1.67-1.04-3.75-3.13m53.12 3.75h.63c.41 0 1.66.63 3.75 1.88 2.08 1.25 3.12 2.08 3.12 2.5 0 .42-2.7.62-8.12.62-.42 0-1.05-.41-1.88-1.25l-.62-1.25.62-1.25.63-.62 1.87-.63m-53.12 4.38-3.13-1.88 3.75 8.13 7.5 5.62 3.13 2.5-3.75-8.12c-.84 0-2.09-1.46-3.75-4.38l-3.75-1.87m230.62 3.75-5.63 1.87c-2.08-2.08-3.13-3.33-3.12-3.75 0-.83.2-1.45.62-1.87.42 0 1.46.62 3.13 1.87 2.08.84 3.74 1.46 5 1.88m-198.12-.63 2.5 2.5 2.5 3.13c.83 3.33 1.25 4.8 1.25 4.37 0 .84-.21 1.46-.63 1.88h-1.87a95.07 95.07 0 0 1-1.88-5 24.5 24.5 0 0 0-1.87-5v-1.88m193.75 6.88-4.38.62-2.5-.62.63-1.88 6.25 1.88m-235.62 5.62 8.75 11.88-6.25-8.13 2.5 1.25-6.25-7.5 10 14.38-4.38-6.25c-3.75-5-5.83-7.5-6.25-7.5v.62c.42.84 1.87 3.55 4.38 8.13l2.5 2.5 3.75 2.5-3.13-5-6.87-9.38 1.25 2.5m225-3.12 5.62.62-5.62 3.75v-4.37m-255.63 3.12-1.24-1.87 1.87 3.12h-1.87l1.87-1.25-1.87.63c4.16 2.5 7.5 3.75 10 3.75a24.42 24.42 0 0 1-5.63-3.13 16.7 16.7 0 0 0-4.37-3.12l.62.62.63 1.25m116.88 0c-.84.84-1.88 1.67-3.13 2.5a7.86 7.86 0 0 0-3.13 1.88c-5.83 5-9.37 7.3-10.62 6.87 1.25.42 3.33.42 6.25 0l1.25.63 9.38-11.88m-105 11.25-1.25-.62.62 2.5c0 1.25-.42 1.88-1.25 1.87-2.08 0-3.13-.2-3.12-.62 0-2.92.62-4.37 1.87-4.38l3.13 1.25m43.75 5.63-1.25-1.25-1.25-.63 3.12-1.87 1.25-2.5.63-.63c.41 0 .62 1.88.62 5.63l-1.25.62c-.42 0-1.04.21-1.88.63m15.63 6.87-3.75 7.5v-5.62c0-2.92.2-5 .63-6.25l.62-3.13c.83-2.08 1.67-5.41 2.5-10 .42-2.91.83-4.37 1.25-4.37 1.25 0 1.87 3.75 1.88 11.25 0 2.08-1.05 5.63-3.13 10.62m-57.5-1.87c0-.42.63-.63 1.88-.63s1.87-1.25 1.87-3.75c0-1.25-.62-1.87-1.87-1.87-3.34 0-5 1.46-5 4.37.41.42 1.04.63 1.87.63.83 0 1.25.42 1.25 1.25m5 4.37c9.17 6.67 17.5 10 25 10 1.67 0 6.25-1.04 13.75-3.12 4.17.83 7.7 1.25 10.63 1.25-1.25 1.67-3.13 2.7-5.63 3.12-2.5.42-5.2.63-8.13.63-.83.83-2.29 1.46-4.37 1.87h1.88l-21.25-2.5-1.88-1.25-1.87-1.87-6.25-5-1.88-3.13m-14.37 8.13-3.13.62c-2.08 0-4.38-.83-6.87-2.5-2.09-1.66-3.13-2.29-3.13-1.87a40.85 40.85 0 0 0-2.5-4.38 40.91 40.91 0 0 1-2.5-4.37l11.25 9.37 10.63 3.13h-3.75m291.25 1.25-3.13 1.25c0-1.25-.42-1.25-1.25 0-.42.83-1.25 2.08-2.5 3.75a27.66 27.66 0 0 0-2.5 5c-.42 1.67-.63 2.7-.63 3.12v.63c.42 0 1.05-.63 1.88-1.88l-1.25 1.25 9.38-13.12m-271.25 17.5 2.5-1.88 25.62-3.12c-.42-1.67-1.04-2.5-1.88-2.5-1.66 0-8.95 2.08-21.87 6.25a35.46 35.46 0 0 1-6.25 1.88c-1.67 0-2.92.2-3.75.62-.83 0 .42-.2 3.75-.63 3.33-.83 7.08-1.66 11.25-2.5 4.17-.83 8.12-1.45 11.88-1.87a90.95 90.95 0 0 1 6.87-1.25l-23.75 5-1.87-1.88 1.25 1.25c-.42.42-1.67.63-3.75.63m-39.38-5-20 4.37 1.88-2.5 5.62-3.75 5-1.87 7.5 3.75m377.5 1.87h-1.88l-.62.63.63-.63-6.88 3.75-1.25.63-4.38 5-1.87-.63 3.75-4.37 3.13-2.5 5-3.13 4.37 1.25m-389.38 5.63c.42-1.25 0-1.67-1.25-1.25-.83 1.25-1.67 1.88-2.5 1.88l3.75-.63m274.38-2.5 8.13 1.25c0 .83-1.88 1.25-5.63 1.25-1.67 0-2.5-.42-2.5-1.25v-1.25m-135.62.63c2.92 4.16 4.37 6.87 4.38 8.12 0 4.58-.42 6.88-1.25 6.88-.84 0-1.25-1.05-1.25-3.13v-1.88c0-.41-.42-2.29-1.25-5.62l-.63-4.38m245 .63-2.5 6.25h-1.25l1.88-.63 5-5-3.13-.62m-108.12 3.13 5.63 1.87h-3.75l-1.88-1.88m-139.38 5 1.88 5a7.22 7.22 0 0 1-1.88-1.25 7.33 7.33 0 0 0-1.88-1.25c.42-.41.63-.83.63-1.25l1.25-1.25m190.62 16.25.63 4.38h-2.5.62l-1.88-3.75-.62-3.75-.63-2.5 1.25-1.88 3.13 7.5m16.88-3.12 18.12 5h-8.75c-1.67 0-3.96-.83-6.88-2.5l-2.5-2.5m50.63 1.25-1.88 1.25-1.87 1.25-3.13.63 4.38-3.13h2.5m-77.5 33.75 5 10 2.5 4.38c2.5 3.33 4.37 5 5.63 5h.62a7.23 7.23 0 0 1 1.88-1.25l3.75 5 3.75 5 8.12 3.75-5-.63c-2.5-1.67-4.58-2.7-6.25-3.13l-3.75-1.87a97.88 97.88 0 0 1-4.38-3.13l-5-5c-6.66-11.66-10-17.29-10-16.87a4.24 4.24 0 0 1 3.13-1.25m38.75-7.5 5.63 1.25-5.63 5.63v-6.88m-43.13 20-1.87-1.25-.63-2.5 1.25-1.88 1.25 2.5v3.13m73.13 66.25v1.88l-4.38.62-7.5 4.38-.62 1.87-2.5-.63c4.58-5.83 8.33-8.54 11.25-8.12h3.75m-6.25 6.25 3.75.63-8.13 5.62 2.5-1.88-3.12 1.25 5-5.62m-255 21.88 15.63 5 4.37 3.75-1.25.62-.63-1.88-1.25 1.25-2.5-1.25a65.03 65.03 0 0 0-12.5-4.38l-1.87-3.12m-53.13 1.25 1.88 4.38c1.67.42 2.5 1.25 2.5 2.5 0 .83-.63 1.25-1.88 1.25-2.08 0-3.54-2.3-4.37-6.88l1.88-1.25m-8.13 3.13 1.88.63 3.12 6.25h-2.5l-1.87-1.25c-.84-2.5-1.25-3.55-1.25-3.13 0-1.25.2-2.08.62-2.5m-5.62 4.38 3.75 2.5-1.25-1.25 1.87 2.5-1.87 1.25 1.25-.63h-3.13l-.62-4.38m338.75.63v3.13c0 3.33-2.09 7.08-6.25 11.25l-1.25-1.25 7.5-13.13M463.1 443.53l-.63-8.13c.42 3.75 2.92 7.3 7.5 10.63l2.5 3.75 2.5.62-4.38 1.88h3.13v-1.88l-1.25 1.25-9.38-8.13m3.76-6.25 1.87-.62c1.25 0 2.08.83 2.5 2.5 3.75 2.5 5.62 3.96 5.63 4.38v3.12c-4.17-1.67-7.5-4.8-10-9.38m-166.25 0 .62 2.5c-.42 1.67-1.25 2.5-2.5 2.5-1.67 0-2.5-.83-2.5-2.5 0-.41.42-1.04 1.25-1.87l.63-.63h2.5m318.12 0 .62.63c-.83 2.5-1.67 3.75-2.5 3.75-1.67 0-2.5-.42-2.5-1.25.42-1.25 1.87-2.3 4.38-3.13m-310.63 3.13 1.88 2.5-2.5 1.25.63-.63h-2.5l.62-2.5 2.5.63-.63-1.25m-43.74 5 1.87 2.5v-2.5c.42.83.63 2.5.63 5 0 1.67-.63 2.5-1.88 2.5-1.67 0-2.5-1.04-2.5-3.13 0-.83.63-2.29 1.88-4.37m10.62.63-1.25 6.87c-.42.42-1.04.63-1.88.63-1.24 0-1.87-.84-1.87-2.5 0-2.09 1.67-3.75 5-5m243.75 3.12 5.63 5.63c-3.76-1.25-5.63-3.13-5.63-5.63m-331.25 18.13-1.25 20h-1.25l-.62-11.88v-6.25c0-7.5.83-12.08 2.5-13.75l1.87-1.88-1.25 13.75m348.12-7.5 5 2.5c.42.42.63 1.67.63 3.75 0 .84-.84 1.25-2.5 1.25l1.25-.62c-2.5-.42-3.96-2.7-4.38-6.88m-345 3.13 3.13 1.25-1.88 11.25h-1.87l.62-12.5m421.88 4.38 4.38 1.87h-4.38v-1.88m-85 15.63h-7.5l-.63-2.5c.42-.42.84-.63 1.25-.63 3.75 0 6.05 1.05 6.88 3.13m-56.25 42.5c-2.08 3.75-2.7 6.25-1.88 7.5v4.38c-2.08-.84-3.12-1.88-3.12-3.13v-.63l.63-2.5 3.12-6.25 1.25.63m3.75-.63.63 4.38-2.5 3.75v-6.88l1.87-1.25m-280 6.25c-1.25 5.42-3.75 8.13-7.5 8.13l-2.5-.63-1.25-1.87 6.25-.63 2.5-5h2.5m2.5 12.5c-1.67 2.92-3.33 4.38-5 4.38-1.25 0-2.08-.83-2.5-2.5l5-1.88h2.5m345.62 6.88 9.38 7.5c1.25.83 1.87 1.46 1.87 1.88 0 1.25-.42 1.87-1.25 1.87-1.25 0-2.5-.83-3.75-2.5l-3.13-3.13-3.12-5.62" transform="translate(-146.86 -119.79)"/>
</svg>
