<svg xmlns="http://www.w3.org/2000/svg" viewBox="0 0 500 500">
    <path d="M146.86 619.79v-500h500v500h-500m7.5-7.5h485v-485h-485v485m7.5-7.5V135.41h469.38v469.38H161.86m356.25-456.88-8.75 1.87-23.13 10.63c-5.41 2.08-10.2 3.13-14.37 3.12-8.33 0-12.5-2.91-12.5-8.75 0-6.24 3.33-9.37 10-9.37 2.92 0 7.3 1.25 13.13 3.75-2.5-5.42-6.88-8.75-13.13-10l-.63-.63-4.37.63-3.75-.63h-.63c-8.75 0-13.12 4.38-13.12 13.13 0 11.25 7.92 16.87 23.75 16.87 7.5 0 14.17-1.66 20-5l14.38-7.5c4.58-2.08 7.29-3.33 8.12-3.75.83-.83 2.5-2.29 5-4.37m-116.25-8.13-1.25.63h-3.13c-7.5-.42-14.79 3.54-21.87 11.87-7.08 8.34-10.63 16.05-10.63 23.13 0 3.75.63 7.5 1.88 11.25l5.63 13.75 3.75 6.87c.83 2.5 1.25 3.55 1.25 3.13 0 .42-.42 1.04-1.25 1.87a7.51 7.51 0 0 1-5-5c-6.67-16.66-17.3-25-31.88-25-16.67 0-25 7.5-25 22.5 0 10.42 3.33 16.25 10 17.5l4.38 1.25-1.25-9.37c0-2.92 1.87-5.62 5.62-8.13 2.5-.83 3.96-1.25 4.38-1.25 3.33 0 7.29 1.67 11.87 5l3.13 3.75c7.5 8.34 12.91 12.5 16.25 12.5 14.16 0 21.25-8.12 21.25-24.37v-1.25l-1.25-4.38-2.5-13.75-.63-2.5c0-19.16 7.92-28.75 23.75-28.75 3.75 0 7.3 1.88 10.63 5.63l1.25 10-4.38 5-11.25 10c-2.5 2.5-3.75 6.46-3.75 11.87 0 3.34 1.04 5.42 3.13 6.25l.62-.62c.42 0 .83-.2 1.25-.63v-.62l1.88-10a4.2 4.2 0 0 1 1.87-3.75l17.5-11.25c2.08-1.25 3.12-5.83 3.13-13.75 0-7.5-5.21-13.33-15.63-17.5l-6.25-1.25-7.5-.63m-155 2.5-8.75 1.25c-4.17.84-7.7 1.67-10.63 2.5a79.07 79.07 0 0 0-7.5 2.5c-.83.42-3.12 1.46-6.87 3.13a669.87 669.87 0 0 0-14.38 7.5c-5.83 2.5-11.45 3.75-16.87 3.75l-7.5-1.88h1.25c-3.75-2.91-5.63-6.04-5.63-9.37 0-4.17 2.09-6.25 6.26-6.25 1.25 0 2.29.62 3.12 1.87l6.88 6.25c1.25 1.25 3.12 1.88 5.62 1.88 6.67 0 10-2.92 10-8.75 0-2.5-.63-3.75-1.88-3.75l-1.24.62-3.13 2.5h-2.5l-3.13.63c-1.24 0-3.54-1.04-6.87-3.13a17.51 17.51 0 0 0-8.75-2.5c-2.08 0-5 2.09-8.75 6.25a17.5 17.5 0 0 0-2.5 8.75v3.75l.63 3.13c.83 5.83 5.2 9.38 13.12 10.62l-.63 1.25-1.24 1.25-2.5 7.5h1.87c2.5.42 5.83-.41 10-2.5l5-3.75 7.5-6.87c.42-.42 1.25-.63 2.5-.63.83 0 1.25.84 1.25 2.5l-8.75 8.13c-5 5-8.33 12.08-10 21.25v3.12l-1.25 3.75 1.25 4.38 1.25 4.37 2.5 6.25a6.02 6.02 0 0 1 5-4.37c2.08 11.67 6.87 18.96 14.38 21.87l4.37 1.88 1.25.62c1.25 0 1.87-1.25 1.88-3.75l-.63-2.5c3.75 1.25 6.87 1.88 9.38 1.88 7.5 0 11.87-2.92 13.12-8.75l1.88-8.75c.41-4.17-.21-7.7-1.88-10.63l-.63-.62-3.74-4.38-2.5-2.5-16.88-5.62-4.38-4.38c-1.66.42-2.5 1.46-2.5 3.13 0 3.33 2.3 5.63 6.88 6.87l10 3.13 4.38 3.75c1.25 2.08 1.87 3.54 1.87 4.37 0 .84-.63 2.09-1.88 3.75l-.62 3.13c-3.33 2.08-5.63 3.13-6.88 3.12l-3.74-.62-6.25-1.88-1.88-1.87-3.75-3.75c-2.92-4.17-4.38-8.54-4.38-13.13 0-5.41 2.09-10.83 6.26-16.25-1.25-5-1.88-8.12-1.88-9.37 0-5.83 2.08-8.96 6.25-9.38l15.63-1.87 22.5-9.38c10-3.33 21.45-5 34.37-5 25 0 45.42 5.42 61.25 16.25l10 6.88v1.25l11.25 11.25a43.61 43.61 0 0 0-1.25-5v-2.5c0-4.17-.42-6.67-1.25-7.5l-8.13-4.38-4.37-5-13.75-6.87-5-3.75c-2.08-1.67-5.42-3.12-10-4.38-4.17-1.25-9.58-2.7-16.25-4.37l-11.25-2.5c-1.25-.42-3.13-.63-5.63-.63-2.91 0-5.41-.2-7.5-.62H264.37l-17.5 1.87m99.38 15 1.87 1.88 3.75 3.75 6.88 3.75a36.45 36.45 0 0 1-3.13-3.75 19.07 19.07 0 0 0-4.38-6.25 6.76 6.76 0 0 1-1.87-5c0-3.75 2.5-6.67 7.5-8.75-2.08-2.08-3.96-3.12-5.63-3.13-5.83 0-8.75 3.13-8.75 9.38 0 2.5 1.25 5.2 3.75 8.12m244.38-1.25-.62-8.12 5-6.25-3.13-.63c-2.5 0-4.37 1.46-5.62 4.38l-1.25 3.75c0 5 1.25 7.5 3.75 7.5.83 0 1.46-.2 1.88-.63m11.87-8.12-.63 1.87c-.41.84-.83 2.3-1.25 4.38-.41 1.67-1.04 3.96-1.87 6.87h-6.25l-.63 3.75c0 2.09 1.05 4.17 3.13 6.25l1.25 1.88 4.38 4.37c2.5 2.5 3.95 4.17 4.37 5l.63 2.5c0 4.17-1.67 6.26-5 6.25-3.76 0-6.88-5.2-9.38-15.62-2.92-2.92-5.63-4.37-8.13-4.38-2.08 0-4.58.84-7.5 2.5l1.88 5-8.13.63c-5.83 0-8.75 3.75-8.75 11.25a8.1 8.1 0 0 0 4.38 7.5c0-8.33 3.12-12.5 9.38-12.5 1.66 0 3.95.83 6.87 2.5l7.5 9.37.63 1.25 5 3.13 8.75-1.88.62 1.88 2.5 5.62c2.92 9.17 4.37 16.67 4.38 22.5 0 7.92-1.05 14.59-3.13 20l-3.13 6.88-.62 5.62c10-2.91 15-15 15-36.25 0-11.25-2.7-21.45-8.13-30.62 2.92-2.92 4.38-6.04 4.38-9.38 0-2.08-.2-3.33-.63-3.75l-5-17.5c-.41-.41-.62-1.87-.62-4.37 0-6.25 3.75-10.42 11.25-12.5-1.25-3.33-3.54-5-6.88-5-3.75 0-7.29 1.67-10.62 5m-81.25 4.37-5 1.88-8.13 6.87c-2.91 2.09-4.58 3.96-5 5.63 0 1.25 1.05 1.88 3.13 1.87 2.92 0 6.46-2.08 10.63-6.25 6.66-6.24 16.87-9.37 30.62-9.37 13.33 0 25.63 4.38 36.88 13.12l3.75 3.13 1.25-6.25c0-2.08-2.92-4.8-8.75-8.13-.84-.41-1.88-.83-3.13-1.25l-2.5-1.25-2.5-1.87c-12.08-3.33-20.42-5-25-5-7.08 0-15.83 2.3-26.25 6.87m-12.5 5-10 6.25-3.13 4.38h2.5c1.25 0 4.8-3.54 10.63-10.63m-160 19.38c-14.58-12.5-27.3-18.75-38.13-18.75-4.58 0-6.87 1.88-6.87 5.62 0 2.92 1.67 4.38 5 4.38h1.25l1.88-3.75c.83-.83 2.29-1.25 4.37-1.25 6.25 0 14.8 4.17 25.63 12.5l6.25 4.37.62-3.12m212.5-1.25v-3.13c-.83-5 1.87-7.5 8.13-7.5h1.87l6.88 3.13h2.5l-5-4.38c-3.34-2.08-6.46-3.12-9.38-3.12-7.5 0-11.25 2.7-11.25 8.12 0 2.92 2.08 5.21 6.25 6.88m-325.62 13.12 2.5 3.75.63 1.88 1.87 4.37c1.67 11.25 2.3 20 1.88 26.25v40.63l8.75-3.13 26.25-22.5c.41 0 .62-.41.62-1.25v-1.87c0-2.08-.2-3.75-.63-5v-9.38c-4.58-7.08-6.87-12.29-6.87-15.62 0-9.58 2.7-14.38 8.13-14.38v.63l1.87 3.12c2.92-7.5 7.3-12.5 13.13-15l15-6.25.62-.62v-1.25c0-1.67-1.67-2.5-5-2.5h-2.5c-.83-.42-2.08-.83-3.75-1.25-3.33-1.25-12.7-.83-28.13 1.25h-53.12c-6.67 0-10 1.46-10 4.37 0 2.92 1.87 4.59 5.63 5l19.37 5 3.75 3.75m242.5 7.5c0 3.76-4.8 10-14.38 18.75l-25.62 22.5c-2.5 2.92-6.25 6.67-11.25 11.25a826.72 826.72 0 0 1-17.5 16.88v12.5l-1.25 14.37 92.5-86.25c11.67-11.25 21.04-18.12 28.13-20.62l17.5-6.25c2.08-.83 3.12-2.5 3.12-5s-2.92-3.75-8.75-3.75h-2.5c-9.17 0-16.67.2-22.5.62-5.42 0-9.17.21-11.25.63-6.67 1.67-11.67 1.88-15 .62-2.08-.41-10.83-1.04-26.25-1.87h-2.5c-7.92 0-11.88 1.25-11.88 3.75s1.67 4.17 5 5l16.25 3.75c3.75.83 6.05 2.7 6.88 5.62a28.04 28.04 0 0 1 1.25 7.5m-166.88-23.75-.63.63a21.5 21.5 0 0 1-7.5 7.5c-5.41.83-10.41 3.33-15 7.5-4.16 3.75-6.25 7.5-6.25 11.25 0 2.92.84 4.38 2.5 4.37.84-.83 1.67-2.08 2.5-3.75.84-1.66 2.09-3.95 3.75-6.87.42-1.67 2.3-2.92 5.63-3.75 11.67-4.17 17.5-8.54 17.5-13.13 0-.83-.83-2.08-2.5-3.75m239.38.63c-.42 5.42-3.33 8.75-8.75 10H545c-9.17.42-18.13 4.38-26.88 11.87l-6.25 5-3.13 3.13a114.5 114.5 0 0 1-7.5 5l-26.87 25.62-35.63 32.5-15.62 15-10 9.38c-3.75 3.75-5.83 7.5-6.25 11.25l3.13-1.25 89.37-82.5c17.5-16.25 30.2-25.42 38.13-27.5 12.5-3.75 18.75-7.3 18.75-10.63 0-2.08-1.88-4.37-5.63-6.87m-101.25 7.5 6.88 6.25 9.37 3.12c.42.42 1.25 1.05 2.5 1.88 1.67.83 3.54 2.3 5.63 4.37l1.25.63v-6.25c0-.42-2.71-2.7-8.13-6.88l-17.5-3.12m-212.5 14.37c-2.5-4.16-4.8-6.66-6.88-7.5l-11.87-4.37-9.38-1.88c0 2.5 1.88 4.38 5.63 5.63l13.75 5 6.88 3.75 1.87-.63m201.88-10-4.38 11.25c-5.41 6.67-8.12 10.21-8.12 10.63 0 .83.63 1.46 1.88 1.87l1.25 1.25 3.12-.62 1.25 1.25-6.88 1.25-7.5-.63v4.38c0 1.25 1.46 1.88 4.38 1.87 3.75 0 6.25-.2 7.5-.62-1.67 1.67-2.5 3.13-2.5 4.37 0 1.67 1.46 2.5 4.38 2.5l5-1.25 5-3.75 7.5 1.88 1.25-5c0-4.58-2.09-6.87-6.25-6.88l-1.25.63-5.63 1.87v-4.37l3.13-5c.41-.42.62-2.08.62-5 0-4.58-1.25-8.54-3.75-11.88m-267.5 8.75-7.5-.62v5c2.08 2.08 3.54 3.13 4.38 3.12 2.91 0 6.24-2.7 10-8.12.41-.42.62-.83.62-1.25 0-.42.2-.83.63-1.25 0-.83-.63-1.25-1.88-1.25h-.63l-5.62 4.37m273.12 13.13 1.88-.63c2.5-4.58 5.2-6.87 8.12-6.87 5 0 8.12 2.92 9.38 8.75 2.08-3.33 3.12-5.62 3.12-6.88 0-4.16-2.92-6.24-8.75-6.25-6.25 0-10.83 3.96-13.75 11.88m-28.75-8.75-3.75.62.63 1.25c-2.5.84-6.46 4.38-11.88 10.63l-1.88 2.5-1.25 5.62 5-3.12-5 6.25c5.42 2.08 8.96 3.13 10.63 3.12 2.08 0 3.54-1.04 4.38-3.12l3.12-17.5v-6.25m90 18.75-4.38 5-4.37 3.75-3.75 5.62 2.5 3.13 3.13 3.12a34.89 34.89 0 0 0 19.37 10v2.5l-10-1.25-5-2.5-6.88-5-6.25-8.75-8.75 7.5c-.41 1.25-.83 2.3-1.25 3.13v.62c0 2.09.84 3.96 2.5 5.63l5 8.12.63 1.88 3.75 6.87c2.92 8.34 4.37 14.59 4.38 18.75 0 3.76-1.25 8.76-3.75 15l6.87-.62 2.5-2.5 6.25-5c.42-.42 1.04-2.7 1.88-6.88l-.63-10.62 11.25 3.12c7.92 0 14.58-2.7 20-8.12l20-19.38c1.25 0 7.08-2.7 17.5-8.12 1.67-.42 2.5-1.25 2.5-2.5 0-6.67-7.5-11.04-22.5-13.13l3.75 1.88v2.5l-6.25-.63c-.83 0-3.75 1.05-8.75 3.13h-3.75l6.25-3.75v-1.88c-2.08.42-3.96.84-5.63 1.25a60.7 60.7 0 0 0-4.37 1.25l-2.5.63-1.25-1.25v-.63l6.88-6.87c1.66-1.67 2.5-4.17 2.5-7.5 0-7.5-1.67-11.88-5-13.13l-6.25-2.5v6.25c-.42 5-3.96 9.17-10.63 12.5a14.31 14.31 0 0 1-7.5 1.88c-3.33 0-6.67-.83-10-2.5m-227.5-.63c3.75 6.67 8.54 11.05 14.38 13.13l16.25 5c.83.83 1.25 1.67 1.25 2.5 0 2.5-2.3 4.8-6.88 6.87l-3.75 3.13a24.48 24.48 0 0 1-3.13 5.62 40.82 40.82 0 0 0-3.75 4.38c-2.08 7.08-3.12 11.25-3.12 12.5 0 2.08.2 3.33.63 3.75l2.5 4.37 5-10 16.87-12.5c.83-.83 1.25-1.66 1.25-2.5v-1.87c0-1.25-.63-3.54-1.88-6.88 5.42 0 9.59 2.09 12.5 6.25 1.67 3.34 2.5 7.5 2.5 12.5 0 5.42-2.29 13.34-6.87 23.75l-5.63 9.38-1.25 1.25-10.62 8.75-15 6.25v8.75c7.5-1.25 16.04-6.04 25.63-14.38 15-13.75 22.5-30.2 22.5-49.37 0-6.25-2.09-11.88-6.25-16.88-3.76-5-8.34-7.29-13.75-6.87h-5c.41-1.67.62-2.92.62-3.75.42-1.25.63-2.3.63-3.13.41-9.16-7.09-14.16-22.5-15-3.76 0-6.26-.83-7.5-2.5l-8.13-9.37-1.25 9.37 3.75 7.5m-109.38 7.5-3.75 20v13.13l5.63 23.75 7.5-10c-.42-2.92-1.05-5-1.88-6.25a80.45 80.45 0 0 1-3.75-24.38c0-5.41.2-8.74.63-10 .41-.83.83-2.08 1.25-3.75.83-2.08 1.66-4.79 2.5-8.12.41-.42.62-1.25.62-2.5s.2-2.5.63-3.75v-6.25c.41-.42.62-1.46.62-3.13-.83-.83-1.46-1.25-1.88-1.25-.83 0-2.29 3.55-4.37 10.63-.42.42-1.67 4.38-3.75 11.87m224.38-21.25v.63c0 3.75.83 5.63 2.5 5.62.83 0 1.25-.41 1.25-1.25 0-3.33-.83-5-2.5-5h-1.25M570 223.53c-.42-.83-.63-2.7-.63-5.62 0-5.42 3.13-8.12 9.38-8.13 5.83 0 11.04 3.34 15.63 10 4.58 6.26 6.87 13.55 6.87 21.88-.42.42-.63 1.04-.63 1.87l-1.87 4.38v8.75l1.25 3.75 1.88-7.5 1.87-10.63c.42-.83.63-2.5.63-5 0-22.5-8.76-33.75-26.25-33.75-10.84 0-16.25 3.76-16.25 11.25 0 3.34 2.7 6.26 8.12 8.75m-176.88-11.25-1.25 3.13c0 1.67.42 2.5 1.25 2.5 1.25 0 1.87-.63 1.88-1.88 0-2.5-.63-3.74-1.88-3.75m-6.25 10c-2.92 1.67-4.38 3.13-4.38 4.38 0 .42.42 1.25 1.25 2.5a9.73 9.73 0 0 0 2.5 1.87c2.09 0 3.34-.83 3.75-2.5a13.97 13.97 0 0 1 1.88-5l-2.5-4.37-2.5 3.12m-207.5-.62c-2.08 7.5-3.13 12.7-3.13 15.62 0 17.5 6.25 26.25 18.75 26.25 7.09 0 10.63-3.33 10.63-10 0-2.91-1.46-5.83-4.38-8.75-2.08 4.59-5 6.88-8.75 6.88-3.33 0-6.45-1.67-9.37-5-2.92-3.75-4.17-7.7-3.75-11.88l.63-1.87.62-4.38.63-4.37v-1.25c-.42-.42-.84-.63-1.25-.63l-.63-.62m215 8.12 1.25 3.13-5.63-.63 1.25 3.75 1.25 1.25c.84 4.17 1.25 6.05 1.25 5.63 0 2.5-.2 4.17-.62 5l-1.88-2.5-1.87-6.25-3.75-2.5-1.25 3.12-1.88-.62-2.5.62-.62 1.88c-1.25 3.33-1.88 6.04-1.88 8.12 0 3.76 1.46 5.84 4.38 6.25l8.13.63 6.25 1.25 8.12-8.75 4.38-4.38c.83-2.5 1.25-4.16 1.25-5 0-9.16-3.96-13.75-11.88-13.75-2.92 0-4.38.63-4.38 1.88 0 .83.21 1.46.63 1.87m-114.38-3.75-.63 12.5 5-2.5v-3.12c.42-2.5-1.04-4.8-4.37-6.88m79.38 1.88v1.25c0 3.33 1.25 5 3.75 5h1.25c2.08 0 3.12-.63 3.12-1.88v-.62l-8.13-3.75m18.13 1.25h-1.25c-2.92 0-4.38 1.04-4.38 3.12 0 2.5 1.46 3.76 4.38 3.75 3.33 0 5-.83 5-2.5v-.62a8.19 8.19 0 0 0-3.75-3.75m-98.13 15.62a35.46 35.46 0 0 0-10.62 7.5l-2.5 2.5c-1.25 1.67-4.17 4.17-8.75 7.5l-1.25 1.88-2.5 1.25-10 5c-.42.42-1.88.62-4.38.62h-.62a6.76 6.76 0 0 1-5-1.87l-3.13-1.88h-3.12c-.42.42-.63 1.25-.63 2.5 0 4.17 3.34 6.26 10 6.25 6.25 0 14.8-4.16 25.63-12.5 12.08-10.83 20.42-16.87 25-18.12 6.67-2.08 10.42-3.33 11.25-3.75.83-.42 2.3-1.67 4.38-3.75l-.63-.63c-7.5.84-15.2 3.34-23.13 7.5m80.63-7.5-3.13 1.88-1.87-.63c-5.83 2.5-9.58 6.46-11.25 11.88l10.63-.63 13.12 1.25c3.75.42 6.46-2.7 8.13-9.37l-10 1.87 2.5-5.62-8.13-.63m219.38 10-3.13 3.75h3.13c7.08-.83 10.63 2.09 10.63 8.75 0 2.92-.21 4.8-.63 5.63l-2.5 6.87-1.25 6.25c5.83-9.58 8.75-17.08 8.75-22.5 0-7.5-2.7-11.25-8.13-11.25-.83 0-1.45.21-1.87.63l-5 1.87m-363.12 3.13-.63 3.75c0 2.92 1.88 4.38 5.63 4.37 3.75 0 5.62-2.29 5.63-6.87 0-3.75-1.88-5.62-5.63-5.63h-2.5l-2.5 1.88v2.5m67.5.62-3.13 2.5v36.88l.63 88.12 1.25 1.25c2.08 0 3.12-1.04 3.13-3.12v-50l-1.88-75.63M235 252.91c-4.17 0-6.25 1.67-6.25 5 0 2.92 1.67 4.38 5 4.37 3.33 0 5-1.87 5-5.62 0-2.5-1.25-3.75-3.75-3.75m42.5 2.5-8.75 6.87-5.63 5-3.75 3.75-5 3.13-1.87 1.87-4.38 1.88c-3.75.83-5.62 1.88-5.62 3.12v4.38l1.25 143.12a921.16 921.16 0 0 0 18.13-1.88c.83 0 6.45 1.05 16.87 3.13v-17.5l47.5-43.75c.83-.83 1.67-1.25 2.5-1.25 2.5 0 3.96 1.46 4.38 4.38l6.25 5.62 3.12 3.75 3.13 3.13 3.75 4.37 1.87 1.88 4.38 5 2.5 3.74 4.37 3.75 1.88 3.13 17.5 17.5 40 43.75c7.08-10 17.5-16.04 31.25-18.13l-17.5-18.75-7.5-8.75-1.88-1.87-2.5-2.5-7.5-7.5-1.88-1.88-1.87-2.5-2.5-1.87-3.13-3.75-5-5.63-3.12-3.75-3.13-2.5-2.5-3.75-5-5.62-19.37-20-3.13-4.38-5.62-5.62-3.13-5v-1.25c0-2.08.84-3.75 2.5-5 20.84-18.75 31.25-28.75 31.25-30l1.25-8.13 1.25-7.5 1.25-8.12-.62-4.38-25.63 25-4.37 3.13-5.63 5-56.87 53.13-16.88 16.87h-3.75c-1.25-.42-1.87-9.58-1.87-27.5l-1.25-99.38m126.25 1.25c-1.67 4.17-3.33 6.26-5 6.25l-3.13-.62c.42 1.25.63 2.7.63 4.38 0 1.66.2 2.7.63 3.12l.62 4.38v3.74c.83 10.84-1.67 26.05-7.5 45.63l-6.25 15-1.25 1.88-2.5 4.37c-1.67 1.67-2.5 3.33-2.5 5 0 .83 1.46 2.08 4.38 3.75.41.42.83.63 1.25.63 1.25 0 2.91-2.3 5-6.88l5-13.13c2.91-7.08 5.2-13.33 6.87-18.75a86.12 86.12 0 0 0 3.13-15.62c.41-.42.62-2.3.62-5.63l1.25-10.62c.83-6.25 1.04-9.58.63-10v-.63c0-3.74-.63-9.16-1.88-16.25m170.62 2.5-1.25 6.88c-7.08-2.08-11.25-3.12-12.5-3.13-3.75 0-7.08 1.25-10 3.75-3.75 4.59-5.63 7.5-5.63 8.75v1.88l.63 6.88 2.5-5a7.84 7.84 0 0 1 6.88-3.76c1.66 0 3.54.63 5.62 1.88 2.08.83 3.12 2.08 3.13 3.75v1.88c0 4.58-1.67 8.54-5 11.87l-3.75 5-3.75 2.5-1.25 1.25c-.42 0-.84.42-1.25 1.25-1.67 2.5-8.96 5.42-21.88 8.75l-19.38 5c-2.08.42-3.95.83-5.62 1.25h-16.25l-2.5 8.13 6.88.62c1.25.42 3.12.63 5.62.63h5.63l20.62-.63 7.5.63 29.38 5.62c1.25.42 3.74.63 7.5.63 4.16 0 6.87-.21 8.12-.63l6.88-1.88c3.33-.83 5-2.08 5-3.75 0-1.66-.84-2.5-2.5-2.5-.42 0-1.25.21-2.5.63-.84 0-2.3.2-4.38.63l-2.5.62c-1.67 0-4.17.2-7.5.63l-10.63.62-17.5-1.88-13.75-1.87-18.75.63-7.5-.63-6.25.63-.62-1.26 8.13-.62h30l5.62-1.88 10-.62 8.13-3.13 5-.62 11.87-6.88 15-10 21.88-21.87c1.66-1.67 3.95-2.5 6.87-2.5 1.67 0 4.17.63 7.5 1.88l1.25-6.26c0-3.74-1.88-5.62-5.63-5.62-.41 0-2.7.42-6.87 1.25l-.63-4.38-3.75-.62a32.9 32.9 0 0 0-5 3.13 77.04 77.04 0 0 0-5 3.74l-1.25 2.5-5 4.38-6.87 11.25-13.13 14.38a35.65 35.65 0 0 1-11.25 5.62v-1.25c-.41-1.25.84-2.7 3.75-4.38 10.84-5.83 16.88-15 18.13-27.5l-1.25-9.37c-.83-1.67-2.5-3.96-5-6.88m-356.88 4.38c-2.08 2.08-3.13 3.96-3.13 5.63 0 3.33 1.46 5 4.38 5s4.37-1.67 4.38-5c0-1.67-1.88-3.55-5.63-5.63m121.88 13.75-5 5.63-5.63 10-1.87 1.87-6.25 7.5-13.75 12.5-15.63 7.5h-1.87v4.38l7.5-2.5 13.13-8.13 12.5-11.88 5.62-4.37 12.5-13.75c4.17-5 9.58-7.5 16.25-7.5 1.25 0 2.92.63 5 1.88l1.25 1.24 1.25 2.5c.83 3.34 1.25 5.21 1.25 5.63 0 2.92-2.92 6.04-8.75 9.38h5c1.67.41 4.17-.63 7.5-3.13 5-2.92 7.5-6.46 7.5-10.63 0-5.41-1.88-8.54-5.63-9.37l-3.75-1.25 3.13-8.75-5.63-1.25-1.87-.63c-9.17 0-17.08 4.38-23.75 13.13m111.88-4.38c5.83.42 10.83 2.09 15 5l3.13 3.75c1.66 2.92 2.5 5.42 2.5 7.5 0 2.92-1.67 7.3-5 13.13-2.92 1.67-4.38 3.13-4.38 4.38 0 1.24.42 3.12 1.25 5.62.83 2.08 1.25 3.54 1.25 4.38 0 7.08-.83 12.08-2.5 15-1.67 2.5-2.5 3.95-2.5 4.37v1.25c13.75-1.25 20.83-6.46 21.25-15.63l.63-8.12-3.75 1.88-5 1.24v-1.87l1.87-1.88a28.3 28.3 0 0 0 5-5 38.62 38.62 0 0 0 4.38-6.87c1.66-2.5 2.5-4.8 2.5-6.88v-1.87c0-2.92-.21-5-.63-6.25h-2.5c-.42-14.17-6.25-21.25-17.5-21.25-5.83 0-10.83 2.7-15 8.13m-240 5.62c2.92 4.58 6.04 9.17 9.38 13.75a34.42 34.42 0 0 1 6.25 15.63v1.24c.41.84.83 2.3 1.25 4.38l5.62.63c-2.08-13.34-6.88-24.17-14.38-32.5-7.5-8.34-15.83-12.5-25-12.5-6.66 0-12.7 3.33-18.12 10a35.6 35.6 0 0 0-8.13 23.12c0 18.75 5.42 36.04 16.25 51.88 1.67 2.5 3.34 3.75 5 3.74 1.67 0 2.5-.83 2.5-2.5 0-.83-1.66-3.54-5-8.12-5-5.83-9.16-16.04-12.5-30.63-.41-2.08-.83-3.95-1.25-5.62v-5c0-8.33 2.09-15.63 6.25-21.88 4.59-6.66 9.59-10 15-10h1.88l5 1.25 3.75 1.88 6.25 1.25m85 5 8.75 3.13-.63.62c.42.83.63 2.5.63 5 0 5.42-5 9.58-15 12.5l-.63 3.13 6.25-2.5c12.09-4.59 18.13-10.84 18.13-18.76 0-7.08-3.13-10.62-9.38-10.62-3.75 0-6.45 2.5-8.12 7.5m-109.38-1.25c.83 4.17 2.08 7.08 3.75 8.75 7.5 7.5 13.33 11.25 17.5 11.25 5 0 7.5-1.87 7.5-5.63 0-3.33-1.46-6.45-4.38-9.37-1.25 5.83-3.95 8.75-8.12 8.75-5.42 0-10.83-4.58-16.25-13.75m-4.38 5-2.5 5-.62 1.88c0 .83 3.75 5 11.25 12.5 17.92 15.41 33.54 23.12 46.88 23.12 1.25 0 1.87-1.25 1.87-3.75l-1.25-6.25-16.25-3.75-9.38-3.75-13.12-8.13-10.63-9.37-6.25-7.5m331.88 4.38 7.5 4.37-1.25 6.25c-6.66 5.42-12.08 8.54-16.25 9.38l-16.25 1.24-.62.63-.63 2.5 25-3.13c12.5-1.25 18.75-6.45 18.75-15.62 0-6.25-3.54-9.37-10.62-9.38-2.08 0-3.96 1.25-5.63 3.75m-93.12 11.25 3.13.63c4.16-5 8.12-7.5 11.87-7.5 7.92 0 14.17 4.38 18.75 13.13l.63 1.87c.41 1.25.62 2.92.62 5v5c0 .83-.42 3.33-1.25 7.5l-3.75 8.75-1.88 4.38c7.5-5.42 11.25-13.13 11.25-23.13 0-7.92-2.29-14.38-6.87-19.38-4.58-5.41-10.2-8.12-16.88-8.12-7.5 0-12.7 3.96-15.62 11.88m181.25-6.26c0 2.09 1.04 3.13 3.13 3.13 3.74 0 5.62-1.67 5.62-5 0-2.08-1.25-3.12-3.75-3.13-3.33 0-5 1.67-5 5m12.5 14.38 2.5 3.13c2.5-3.75 3.75-6.88 3.75-9.38 0-3.33-1.46-5-4.38-5-2.91 0-4.37 1.46-4.37 4.38 0 2.91.83 5.2 2.5 6.87m-200.62-7.5-.63-.63c-2.91 0-4.37 1.46-4.37 4.38 0 3.33 1.25 5 3.75 5 2.92 0 4.37-2.08 4.38-6.25 0-.83-1.05-1.67-3.13-2.5m191.25 0-5 1.88-.63 1.87-.62 3.75v1.88c0 1.66 1.87 3.12 5.63 4.37l3.75 1.25.62-1.88 1.88-1.87v-1.88c0-3.74-1.88-6.87-5.63-9.37m-180.62 8.75c1.67 2.92 3.54 4.38 5.63 4.38 4.16 0 6.24-2.3 6.25-6.88 0-2.92-1.67-4.37-5-4.38-4.59 0-6.88 1.88-6.88 5.63v1.25m165.62-6.25c-.42.42-.63 1.67-.63 3.75 0 1.25.63 1.88 1.88 1.88 2.08 0 3.12-.84 3.13-2.5 0-2.5-1.25-3.75-3.75-3.76l-.63.63m-404.38 5.63c1.25.83 3.12 2.5 5.63 5 7.08 5.83 10.62 10.83 10.62 15 0 .41-.2 1.24-.63 2.5 0 1.24-.2 2.91-.62 5-4.17 2.5-6.25 4.58-6.25 6.24 0 2.09 2.08 3.13 6.25 3.13 7.92 0 11.88-3.96 11.88-11.88 0-5.41-4.17-11.04-12.5-16.87-1.25-.42-3.13-1.67-5.63-3.75l-3.13-3.13-6.25-5 .63 3.75m393.12-1.87c-1.67 2.92-2.5 5.63-2.5 8.13 0 3.33 1.87 5 5.63 5 3.74 0 5.62-2.5 5.62-7.5 0-3.34-1.04-5-3.13-5-2.5 0-3.95.2-4.37.62l-1.25-1.25m-139.38 8.75-15.63 5.63c-5.41 1.66-8.12 4.79-8.12 9.37 0 1.67 1.04 3.54 3.13 5.63l-.63 2.5c-10.42 1.66-18.75 5.41-25 11.24-4.58 2.5-6.88 4.8-6.88 6.88 0 1.25 1.05 2.5 3.13 3.75l4.38.63c7.91-5.42 13.54-8.55 16.87-9.38l5-1.25c2.5-1.25 4.37-1.87 5.63-1.88l.62.63c.42 0 .83.2 1.25.63-.83 3.33-1.25 5.2-1.25 5.62 0 4.17 5.2 6.25 15.63 6.25 4.16 0 6.87-.2 8.12-.63l20.63-5 8.12 1.88c2.92.42 4.37 2.08 4.38 5 0 5.83-5.42 9.38-16.25 10.63 4.16 2.91 7.7 4.37 10.62 4.37 10.83 0 16.25-5.42 16.25-16.25 0-2.08-1.04-4.8-3.13-8.13l-1.25-2.5a14.54 14.54 0 0 0 3.75-2.5l-1.25-1.25c0-.41-.41-1.04-1.25-1.87l-2.5-1.88-4.37-2.5c-5.83-2.5-9.38-3.74-10.63-3.75h-1.87a86.04 86.04 0 0 1-8.13 1.88 18.13 18.13 0 0 0-10 4.38c-3.33.83-5.2 1.45-5.62 1.87-3.33 1.25-5.83 1.88-7.5 1.88-2.92 0-4.38-1.46-4.38-4.38 0-3.75 4.17-5.62 12.5-5.63 6.25-6.66 9.38-14.16 9.38-22.5 0-3.74-.83-5.62-2.5-5.62l-11.25 6.25m-51.25-4.38-4.38 2.5c-.83.84-2.08 1.67-3.75 2.5l-5 5.63a71.81 71.81 0 0 1-10 9.38c-3.33 2.91-5.2 6.25-5.62 10l3.75 5 2.5 2.5 12.5 13.12 6.88 8.13 5.62 5 1.25 1.87 5 6.88 3.13 2.5 1.25 1.24 10 11.88 7.5 7.5 6.25 6.88 21.87 24.37 1.88 2.5 1.87.63 3.13 3.74c1.66 1.67 3.33 2.5 5 2.5l5-.62-93.13-100.62c-2.92-1.67-4.38-3.75-4.38-6.25 0-1.25.84-2.7 2.5-4.38l8.75-7.5 3.13-3.75 4.38-3.75 2.5-6.87.62-2.5m28.75 8.75.63-1.25h1.87c.83 0 1.25-.83 1.25-2.5 0-3.33-1.46-5-4.38-5-2.91 0-4.37 1.67-4.37 5 0 1.67 1.67 2.92 5 3.75m178.12-5-.63.62c-3.75 1.25-5.62 3.13-5.62 5.63 0 3.75 2.08 5.63 6.25 5.62 5 0 7.5-1.25 7.5-3.75 0-2.08-1.25-4.37-3.75-6.87l-3.75-1.25m11.25 6.87c.42 2.5 1.67 4.17 3.75 5l1.25 1.88c5.42-.42 8.12-2.92 8.13-7.5 0-4.17-1.46-6.25-4.38-6.25h-1.25l-.63.62-6.87 6.25m-294.38-3.75c-2.92.84-6.46 3.55-10.63 8.13-4.16 4.58-6.66 8.96-7.5 13.12l7.5-.62c0 6.25 2.09 9.38 6.25 9.37 3.34 0 5-1.04 5-3.12l-3.12-5a4.23 4.23 0 0 1-1.25-3.13v-1.87l2.5-3.13 1.25-3.12 6.25-3.75 5-2.5 1.88-.63 14.37-.62 1.25-1.25.63-1.25c-.42-.42-.84-.63-1.25-.63l-1.25-1.25h-3.75c-6.67-1.25-11.25-1.45-13.75-.62l-9.38 1.87M175.6 396.66c.42-16.67 7.5-27.5 21.25-32.5l12.5-4.38c10-3.33 17.5-12.29 22.5-26.87-.42-.42-1.46-.63-3.12-.63-3.34 0-5.84 3.34-7.5 10a15.68 15.68 0 0 1-3.75 6.25l-3.75 1.88-23.13 10.62c-13.33 6.26-20 17.09-20 32.5 0 11.67 1.46 17.5 4.38 17.5 2.08 0 3.12-1.45 3.12-4.37l-.62-2.5-1.88-7.5m300.62-60.63-.63 1.88c0 1.67 2.5 2.5 7.5 2.5h16.26l8.75 1.87 15 1.88 25 10c2.08.83 6.24 3.33 12.5 7.5l5 3.75 3.75 3.12 2.5 1.88 9.37 8.75 5 6.25 2.5 3.12 1.25 1.88.63.62 6.87 11.88 1.25 3.12a81.42 81.42 0 0 1 3.75 11.88c1.67 5 3.33 11.46 5 19.37v2.5c.42.84.83 2.09 1.25 3.75v6.88c0 10.83-1.25 20.2-3.75 28.12v.63l-3.13 6.25c-.83 2.08-2.08 4.8-3.75 8.12-.41 1.25-1.66 2.92-3.75 5-5.83 13.34-16.87 20-33.12 20-3.33 0-8.33-1.87-15-5.62l-1.88-1.25c-4.16-5.42-6.25-10.2-6.25-14.38 0-11.25 5.63-16.87 16.88-16.87 2.08 0 4.8 1.25 8.13 3.75l.62 1.87c-4.17 2.5-6.25 6.05-6.25 10.63 0 6.25 3.75 9.38 11.25 9.37 5.83 0 9.8-4.16 11.88-12.5l-5 3.13c-.42 0-2.3-1.04-5.63-3.13-.42-.41-.63-1.04-.63-1.87 0-1.67.21-2.7.63-3.13v-2.5c0-8.33-6.25-12.5-18.75-12.5-3.33 0-6.88 1.25-10.63 3.75l-6.25 6.88a50.36 50.36 0 0 0-5.62 16.25l-5-1.88v5l1.88 6.88 1.25 2.5h.62l1.88 2.5 2.5 1.88c2.91 2.91 6.66 4.58 11.25 5l-1.88 5.62 1.25 1.88 1.25 1.87 2.5 1.25c5.83 3.33 10.83 5 15 5 5.42 0 8.54-.42 9.38-1.25l2.5-3.13 4.37-2.5-1.88 8.75c11.67-1.66 19.59-6.87 23.75-15.62l5.63-11.88h.63c2.08 0 3.54.21 4.37.63v2.5c0 1.25-2.92 7.3-8.75 18.13-.42.83-1.04 2.29-1.88 4.37l-3.75 7.5c.42 1.25 1.88 2.3 4.38 3.13 3.33 2.5 5 5.41 5 8.75 0 5.83-2.7 9.58-8.13 11.25l-8.12 1.87a43.56 43.56 0 0 1-1.25 5v3.13c0 2.5.63 5.2 1.88 8.12l.62 1.88c1.67-2.92 3.54-4.8 5.63-5.63l3.75 8.75 1.87 2.5c2.92 2.92 6.04 4.38 9.38 4.38 7.91 0 11.66-2.71 11.25-8.13v-3.13h-3.13l-5-3.75c-3.75-4.16-5.63-9.58-5.63-16.25 0-4.16.63-8.12 1.88-11.87l13.75-50.63c1.25-4.16 1.67-10 1.25-17.5v-13.12c-.83-33.33-5.63-58.33-14.38-75-8.75-17.08-26.04-33.75-51.87-50l-15-6.88-6.25-1.87c-9.58-3.33-17.5-5.2-23.75-5.63l-7.5-.62-6.88-1.25-19.37-.63-3.75 3.75m127.5 3.13h1.25c2.5 0 3.75-1.25 3.75-3.75 0-2.08-1.25-3.12-3.75-3.13-2.5 0-3.75.84-3.75 2.5 0 1.25.83 2.71 2.5 4.38m-16.25-6.25c-2.08.83-3.13 2.7-3.13 5.62 0 3.76 2.3 5.63 6.88 5.63 3.75 0 5.62-1.46 5.63-4.38 0-4.58-2.5-6.87-7.5-6.87h-1.88m-55 .62 18.13 7.5a33795 33795 0 0 0 8.75 4.38c2.91 1.25 5.2 2.5 6.87 3.75l5.63 3.75 15 9.37c1.66.84 3.33 2.3 5 4.38 2.08 1.67 4.58 3.54 7.5 5.62a18.58 18.58 0 0 0 9.37 2.5c9.58 0 14.38-4.79 14.38-14.37 0-8.75-3.96-13.13-11.88-13.13-2.08 0-3.96.84-5.63 2.5 6.25 2.09 9.38 4.59 9.38 7.5 0 4.59-2.92 6.88-8.75 6.88-3.75 0-9.38-1.67-16.88-5l-12.5-7.5-7.5-3.13-13.12-8.12c-5-2.92-12.92-5.2-23.75-6.88m-45 10.63 6.88 1.87 13.75.63c5.83 0 14.58 3.96 26.25 11.87l2.5 2.5c1.25 3.34 1.87 5.84 1.87 7.5 0 3.76-2.92 5.63-8.75 5.63-3.33 0-7.92-1.67-13.75-5 4.17 9.17 10.63 13.75 19.38 13.75 9.58 0 14.37-4.17 14.37-12.5s-5.2-14.38-15.63-18.13l-6.25-2.5-5.62-2.5c-2.08-.41-4.58-.83-7.5-1.25-2.5-.41-5.83-1.04-10-1.87l-5-.63c-6.25-1.25-9.8-1.45-10.63-.62l-1.87 1.25m-266.88 47.5 3.13 5.62 2.5 3.13a7.77 7.77 0 0 0 2.5-5.63l-1.25-2.5c0-.83-.42-1.66-1.25-2.5l-5-6.25-6.25-7.5-3.13-3.12c-5.83-4.58-9.38-6.87-10.62-6.88-2.5 0-3.76.84-3.75 2.5 0 1.25 3.33 3.96 10 8.13 2.91 2.08 7.29 7.08 13.12 15m181.25-18.75c.42 1.67 1.04 2.5 1.88 2.5.83 0 2.91-.63 6.25-1.88 3.33-1.25 6.24-1.87 8.75-1.87 3.74 0 8.54 1.67 14.37 5 1.67 2.92 2.5 5.42 2.5 7.5 0 6.67-4.38 10.2-13.12 10.62 4.16 1.25 7.7 1.88 10.62 1.88 3.33 0 6.46-1.25 9.38-3.75 3.33-2.5 5-5.42 5-8.75 0-11.67-7.92-17.5-23.75-17.5-6.26 0-13.55 2.08-21.88 6.25m-73.75-2.5-1.87.62-5 4.38-39.38 37.5-.62 10.62-.63 4.38c0 2.92 1.25 4.38 3.75 4.37 1.67 0 2.3-.62 1.88-1.87v-15.63l5-4.37 36.25-33.13 3.75-5.62-3.13-1.25m231.25 6.25-1.25 1.87c4.17.84 7.92 2.09 11.25 3.75l-1.88.63c1.25 2.08 1.88 3.75 1.88 5 0 5.42-4.38 8.13-13.13 8.12-1.66 0-4.16-.41-7.5-1.25l-18.12-8.75-6.88-2.5a87.5 87.5 0 0 1-6.25-1.87c-9.16-2.08-15.41-3.12-18.75-3.13-2.91 0-6.04.84-9.37 2.5l6.88.63 8.75.62 15 4.38 30 16.25c2.91 1.67 6.45 2.5 10.62 2.5 11.67 0 17.5-5.83 17.5-17.5 0-3.75-1.88-7.3-5.63-10.63a8.48 8.48 0 0 0-6.25-2.5h-2.5l-4.37 1.88m-327.5 10 .63.62.62 1.88c.42.83.63 2.5.63 5 0 4.58-2.3 8.13-6.88 10.62-4.17 2.09-6.46 3.34-6.87 3.75-.42.42-.84 2.09-1.25 5 13.33-3.33 20-10.2 20-20.62 0-1.25-1.05-4.58-3.13-10l-4.37-4.38-8.75-1.87 1.25 3.75 8.12 6.25m-25 26.25v-6.25c-8.33-2.5-12.7-8.33-13.12-17.5l1.87-3.75 4.38-2.5 3.12-3.75a8.72 8.72 0 0 0-3.75-.63c-7.5 0-11.25 4.59-11.25 13.75 0 11.25 6.25 18.13 18.75 20.63m373.75-30.63 3.75 8.75 2.5 2.5c6.67 10.42 10 21.25 10 32.5 0 6.67-2.08 13.34-6.25 20-3.33 4.59-7.7 6.67-13.13 6.25h-2.5l-3.75-3.12c-1.66-4.58-2.5-8.12-2.5-10.63 0-3.33 1.46-7.08 4.38-11.25a32.53 32.53 0 0 0-11.25 10c-2.5 7.5-3.75 11.46-3.75 11.88l.63 1.25c.41 3.33 1.04 5.83 1.87 7.5.42 5 5 7.5 13.75 7.5.42-.42 1.46-.63 3.13-.63l5-2.5v10l6.25-3.12c7.08-3.75 11.45-13.96 13.12-30.63v-8.75c.42-16.25-6.67-32.08-21.25-47.5m-383.12 13.13 1.88 1.87c8.33-7.5 12.5-11.45 12.5-11.87 0-2.08-1.46-3.12-4.38-3.13-1.25 0-3.33 1.46-6.25 4.38-2.5 2.5-3.75 4.38-3.75 5.62v3.13m251.88-1.88-5.63 2.5-3.75 3.13-5 3.12 1.25 10.63.63-.63 13.75-8.75c9.17-6.66 22.08-10 38.75-10a79.9 79.9 0 0 1 43.13 12.5l6.25 5.63 5 8.12c2.5 5.84 3.74 10.63 3.75 14.38 0 5-2.09 9.58-6.25 13.75-2.5 2.5-4.8 3.75-6.88 3.75-2.92 0-4.8-.2-5.63-.63 2.5-2.91 3.75-5 3.75-6.25s-1.04-3.54-3.12-6.87c-.83-.42-1.88-.83-3.13-1.25-.83-.42-1.87-.83-3.12-1.25l-4.38-.63-21.25 1.25-8.75-3.12-3.12-.63-7.5-8.75c-1.25-1.25-1.88-3.54-1.88-6.87l.63-5.63c-7.08 2.5-10.63 6.46-10.63 11.88 0 .42 1.05 4.17 3.13 11.25l3.13 4.37h-8.13l3.75 8.13 5 3.12c5.42 4.17 10.83 6.26 16.25 6.25h.63l19.37-1.87c3.33-.83 5 .83 5 5s-2.7 6.25-8.13 6.25h-3.75c-1.66-.42-3.54-.83-5.62-1.25-5.83-2.92-11.25-4.37-16.25-4.38-7.08 0-13.33 3.13-18.75 9.38l-1.25 7.5 9.38-.63v1.88c0 .42-1.46 1.88-4.38 4.37-2.5 2.5-3.75 7.09-3.75 13.75 0 2.09 1.04 5.84 3.13 11.25a15.77 15.77 0 0 0 10.62 3.75c-1.25-5.41-1.88-8.95-1.88-10.62 0-5 1.88-8.12 5.63-9.38l8.75-3.75c2.92-1.66 5-2.5 6.25-2.5l26.88-1.25c8.33-.83 12.5-3.33 12.5-7.5l.62-3.12-1.25-8.75 11.88-5c7.91-2.92 11.87-11.25 11.87-25 0-12.08-5.83-23.13-17.5-33.13l-10-6.87a27.81 27.81 0 0 0-5-2.5 74.98 74.98 0 0 0-5.63-2.5c-2.5 0-6.87-.83-13.12-2.5l-11.25-1.88-5-.62-18.75 1.87-16.88 5.63-4.37 1.87m-115.62 7.5a7.77 7.77 0 0 0-2.5 5.63l1.25 5 3.13-5.63 1.25-5 7.5-10.62-.63-2.5-2.5-1.25-7.5 14.37m-125-6.87a40 40 0 0 1 2.5 13.75c0 1.67-.62 4.58-1.87 8.75 5-4.17 7.5-8.54 7.5-13.13 0-4.16-.21-6.45-.63-6.87l-1.25-1.88-2.5-3.75-3.75 3.13m138.75-1.25c-4.58 5.83-8.33 13.75-11.25 23.75l2.5 2.5c2.5.83 3.54 1.25 3.13 1.25l3.12-6.25c2.08-4.58 3.33-7.3 3.75-8.13 2.5-2.5 3.75-4.16 3.75-5 0-2.08-1.67-4.79-5-8.12m149.38 15.62 1.25 2.5 1.88 2.5-.63 5.63v2.5l-4.38 5v.62c0 1.67 1.25 2.5 3.75 2.5 4.17 0 6.88-.83 8.13-2.5 1.25-1.66 1.87-4.79 1.88-9.37 4.58 0 6.87-.83 6.87-2.5 0-4.58-4.17-8.75-12.5-12.5s-14.38-5.62-18.13-5.63l-2.5.63-5.62.62-23.13 6.88-10 5.62c-2.5 1.25-3.75 2.71-3.75 4.38 0 1.25.63 1.88 1.88 1.87a140.7 140.7 0 0 1 6.25-4.37c2.92-1.67 6.04-3.54 9.38-5.63l6.25-1.87c4.58-1.67 8.33-2.5 11.25-2.5 8.74 0 16.04 1.88 21.87 5.62m-197.5 3.75c0 2.5 1.25 5 3.75 7.5 2.5 2.09 3.54 4.59 3.13 7.5v1.88c4.16-2.5 6.24-5 6.25-7.5 0-.42-.42-1.04-1.25-1.88l-6.88-6.87c-.83-.83-1.25-1.67-1.25-2.5 0-2.5 1.67-3.75 5-3.75l1.88 1.25 5.62 1.87 1.88 3.75 1.25 5.63v11.87l-1.88 4.38-.63 5.62 3.13 2.5 3.13 3.13 1.87 2.5 1.25 1.25 2.5 5 1.25 2.5c7.08-12.08 10.63-20 10.63-23.75s-1.88-8.12-5.63-13.13l-2.5 3.13a6.98 6.98 0 0 0-3.13-.63v-8.75c-.41-9.16-5.62-13.75-15.62-13.75-3.33 0-6.46 1.46-9.38 4.38-2.91 2.5-4.37 4.8-4.37 6.87m-113.12-8.75c-9.17 13.34-13.96 23.55-14.38 30.63L170 454.78c-.42 5.42.63 8.13 3.13 8.13 1.66 0 2.5-1.04 2.5-3.13v-17.5c0-3.74.62-7.5 1.87-11.25 1.67-3.74 3.12-7.08 4.38-10 1.66-3.33 3.12-6.04 4.37-8.12 1.67-2.08 2.5-3.54 2.5-4.38 0-1.66-.83-3.33-2.5-5m172.5 1.25-4.38 6.25c-5.83 7.5-8.95 13.75-9.37 18.75l-.63 9.38 3.75-1.88 5.63-16.87 8.13-11.25-3.13-4.38m-124.38 6.88-5.63 5H235l-.63-5m-45.63 3.75-2.5 5.62c8.75 5 17.92 7.5 27.5 7.5 3.34 0 7.92-.62 13.76-1.87l.62.62 3.13-1.87h6.87v-4.38c-.83-.83-2.08-1.25-3.75-1.25-2.08 0-5.83.42-11.25 1.25-5 .84-8.96 1.25-11.88 1.25-6.66 0-14.16-2.29-22.5-6.87m164.39 20c5-7.5 9.58-11.25 13.75-11.25 1.25.42 2.08.83 2.5 1.25h1.25l5 3.75-1.25-7.5c-.42-1.67-2.5-2.92-6.25-3.75-7.09 0-12.09 5.83-15 17.5m-63.75-8.13v1.25c0 2.92 2.29 5.42 6.87 7.5 2.92.84 6.25 2.5 10 5l6.88 5 8.75 7.5 5.62 5c-8.75-15.83-21.46-26.25-38.13-31.25m-102.5 1.88-3.12 3.75v5c0 4.17 1.25 6.25 3.75 6.25.42-.42.83-.63 1.25-.63.42 0 .83-.2 1.25-.62l8.75-.63 12.5-5 5-1.87 6.25-2.5-5-.63c-2.92 0-7.5 1.46-13.75 4.38-3.33.83-5.2 1.25-5.63 1.25-2.5 0-5.2-.83-8.12-2.5l-3.13-6.25m43.75 1.25c-3.33 30.83-13.12 46.25-29.37 46.25h-8.13c-1.25.83-2.08 1.04-2.5.62l-5-3.12c-1.25 0-1.87.83-1.87 2.5 0 4.17 5.2 6.25 15.63 6.25 10 0 18.54-4.8 25.62-14.38 7.08-9.58 10.63-21.04 10.63-34.37 0-2.92-1.25-4.37-3.75-4.38l-1.25.63m25 .62c-1.25.42-2.92.63-5 .63h-3.76c-3.33 0-5.41.42-6.25 1.25-.83.42-1.25 2.3-1.25 5.62v.63c5.42-1.67 11.67-2.5 18.75-2.5 22.5 0 42.71 8.96 60.63 26.87l1.25 1.25 3.13 3.75 1.87 1.88 2.5 1.25v-7.5l-3.13-1.88-11.87-10.62c-.83-.83-3.96-2.92-9.38-6.25l-1.87-1.25c-2.08-1.67-3.96-2.7-5.63-3.13-10.41-5.83-23.75-9.16-40-10m-32.5 4.38-8.75 2.5-2.5 1.87c-5 .84-9.16 2.92-12.5 6.25-20.83 10-31.25 27.3-31.25 51.88 0 12.08 3.75 22.08 11.25 30 7.5 7.92 16.88 11.88 28.13 11.88 9.17 0 16.67-2.92 22.5-8.75 5.83-6.25 8.75-14.17 8.75-23.75 0-12.92-7.08-20.63-21.25-23.13h-8.75c-7.5 3.75-11.25 6.46-11.25 8.12 0 2.09 1.87 3.13 5.63 3.13 2.91 0 4.79-.2 5.62-.63l.63 1.25v-1.25l-1.25 2.5a11.42 11.42 0 0 0-8.13 5c-1.67 2.92-2.5 5.63-2.5 8.13 0 10.42 4.8 15.62 14.38 15.62 1.25 0 3.54-1.04 6.87-3.12-5-3.75-7.5-7.7-7.5-11.88 0-5.83 2.3-8.74 6.88-8.75 1.25 0 4.37 1.05 9.37 3.13 2.08 5 3.12 7.7 3.13 8.12 0 13.34-8.34 20-25 20-9.17 0-16.67-3.54-22.5-10.62-5.84-7.5-8.76-16.67-8.75-27.5 0-6.25.62-11.04 1.87-14.38l5.63-10 1.87-5 10.63-10.62 10.62-6.25 7.5-3.13a35.71 35.71 0 0 1 6.25-1.87 35.73 35.73 0 0 0 6.25-1.88c.83-.83 1.25-2.29 1.25-4.37v-2.5h-3.13m130 14.37h-1.87c-2.08 0-3.33-2.08-3.75-6.25l-3.75 3.13-5 8.12-1.88 3.75c-6.25 12.09-9.16 22.09-8.75 30l.63 5v17.5l1.88 7.5 1.87 6.88.63 1.88 3.12 7.5 2.5 5.62c.42.42.63 1.46.63 3.13 0 2.91-1.05 4.37-3.13 4.37-3.75 0-6.67-4.8-8.75-14.38-2.08-11.66-3.13-17.29-3.13-16.87v-30.63c0-3.33-1.45-6.24-4.37-8.75-6.67-6.66-9.8-10-9.38-10-1.66 0-2.5 1.46-2.5 4.38l-1.25 18.12-1.25 5v10h.63v6.88c0 5.83 1.67 15.42 5 28.75l1.25 3.75c.42.42.63.83.63 1.25l.62.63c2.92.83 6.87 2.7 11.88 5.62l4.37 3.75c.83 4.17 1.25 6.04 1.25 5.63 0 .83-1.04 2.91-3.13 6.25-2.08.83-3.33 1.45-3.75 1.87 0 3.75 3.96 5.63 11.88 5.63l-.63 1.25 2.5 3.75c5.42 11.66 12.3 17.5 20.63 17.5 2.08 0 3.54-1.05 4.38-3.13l-1.25-2.5c-6.67-4.17-10.84-10.2-12.5-18.13 6.24-4.16 9.37-10.83 9.37-20v-1.25l-12.5-37.5c-.42-.83-.63-6.45-.63-16.87 0-11.25 2.71-21.25 8.13-30 5.42-9.17 11.25-13.75 17.5-13.75 5 0 7.5 2.08 7.5 6.25 0 2.08-.63 3.13-1.88 3.12l-10 1.88c-2.5.42-4.79 2.3-6.87 5.62-1.25 2.09-1.88 3.96-1.88 5.63v3.75c1.25 4.17 3.75 6.46 7.5 6.87l-1.25-6.25c0-1.25.42-2.91 1.25-5 1.25-2.08 2.5-3.33 3.75-3.75l11.25-2.5c4.59-.83 6.88-4.37 6.88-10.62 0-4.17-1.25-6.87-3.75-8.13l-4.38-1.87 3.13-5 1.25-3.75a17.5 17.5 0 0 0-8.75-2.5c-6.25 0-10.2.83-11.88 2.5a37.83 37.83 0 0 1-2.5 3.12l-4.37 1.88-3.13 4.37m-100.62-8.75-3.12.63h-1.25c-2.5-.83-4.17-.42-5 1.25l-.63 3.12.63 15.63v20.62l1.25 5.63-.63 36.87c0 11.25-4.37 18.34-13.12 21.25l-15 5.63c-2.08.83-3.13 1.88-3.13 3.13 0 3.33 2.09 4.79 6.25 4.37H220l10.63-.63h16.25l39.38-1.25 29.37 1.25c3.75 0 5.62-1.04 5.63-3.12 0-2.5-4.38-4.8-13.13-6.88l-11.88-3.12c-9.16-3.75-14.37-9.37-15.62-16.88l-1.88-8.75.63-39.37h-9.38c-8.33-5.83-12.5-12.5-12.5-20 0-5.42 3.75-11.25 11.25-17.5l-16.25-1.88m-30.62 4.38-3.75.62c-15.42 4.17-23.13 10.42-23.13 18.75 0 5 2.3 7.5 6.88 7.5 1.67 0 3.54-1.04 5.63-3.12-3.34-2.08-5-4.37-5-6.88 0-2.91.62-4.79 1.87-5.62l3.75-2.5 5-3.13 3.75-1.87 5-3.75m46.25 3.12c-3.75 3.76-6.04 7.71-6.88 11.88v2.5a37.3 37.3 0 0 0 5.63 10.62c5.42 2.09 8.54 3.13 9.38 3.13 1.66 0 2.7-.2 3.12-.63l3.13-1.87-5-1.25c-5-1.25-7.5-5.42-7.5-12.5 0-5.83 4.37-8.75 13.12-8.75 12.08 0 24.8 7.3 38.13 21.87l1.87 1.88 2.5 1.25v-1.88l-1.88-1.87a88.85 88.85 0 0 1-5-5.63c-.83-.83-1.45-1.25-1.87-1.25-1.67-3.33-5.2-6.66-10.63-10l-8.12-5a36.79 36.79 0 0 0-9.38-3.75 34.56 34.56 0 0 0-9.37-2.5c-.42.42-1.25.63-2.5.63l-8.75 3.12m128.75-2.5-3.13 7.5c-3.75 10.84-5.62 22.71-5.62 35.63 0 4.17.63 9.58 1.88 16.25 2.5 10 3.95 16.25 4.37 18.75.83 2.5 2.08 5.42 3.75 8.75l1.88 5 3.75 8.13 3.12 5.62 3.13 2.5c1.25 3.33 3.33 5.63 6.25 6.88l-2.5-5-2.5-6.25-2.5-13.13-6.25-15c-3.76-8.75-5.63-21.25-5.63-37.5 0-3.33.2-5.42.63-6.25l3.75-18.13.62-3.12 1.88-3.75c-.42.42-2.71-1.87-6.88-6.88m31.25 19.38-1.25 1.87c-2.92 4.17-4.38 7.5-4.38 10 0 1.67 1.05 4.17 3.13 7.5 5-17.5 13.33-26.25 25-26.25l17.5-.62 6.88-1.25c-8.34-2.5-15.63-3.75-21.88-3.75-2.92 0-4.58.2-5 .62l-10.63 3.13a38 38 0 0 1-3.12 2.5l-6.25 6.25m-147.5-9.38v11.25c0 2.09 1.04 3.13 3.13 3.13 2.08 0 3.12-1.25 3.12-3.75l-.63-5v-5l-3.75-1.25-1.87.62m-3.13 0c-2.5 2.09-3.75 4.17-3.75 6.25v1.25l.63 1.88 3.75 3.12-.63-12.5m158.13 13.75-.63 2.5c6.67 1.67 10 4.8 10 9.38 0 1.67-1.25 4.38-3.75 8.12l3.75 3.75 6.25 6.25 3.75 4.38 4.38 3.75 14.37 16.25 6.88 8.13 1.87.62 2.5 3.13 7.5 8.75 3.75 2.5c2.08 2.91 5.83 5.83 11.25 8.75l65 .62 18.13 1.25c2.91.42 4.37-1.04 4.37-4.38 0-3.33-1.46-4.79-4.38-4.37h-1.25l-6.87-.63-23.75-3.12-14.38-3.13-6.87-3.75-2.5-1.25-9.38-7.5-19.37-23.12-1.88-1.25-2.5-2.5-1.87-1.88-3.75-5a40.88 40.88 0 0 0-3.75-4.37c-1.25-1.25-2.08-1.87-2.5-1.88-.83 0-2.92 1.05-6.25 3.13-4.17 1.67-6.25 4.58-6.25 8.75 0 3.33.2 5.42.63 6.25l5 5c-3.34 1.25-5.63 1.88-6.88 1.88a17.5 17.5 0 0 1-8.75-2.5c-6.25-2.92-9.38-7.92-9.38-15 0-3.34.84-7.71 2.5-13.13l-1.25-.63c-1.25-2.91-1.87-5.41-1.87-7.5 0-3.33 2.08-8.33 6.25-15l-5-.62h-1.88c-1.25 0-3.33.62-6.25 1.87l-5.62 1.25-9.38 6.25m-3.75 13.75 3.75 3.13h.63c2.92 0 4.37-1.67 4.38-5 0-3.33-1.67-5-5-5-2.92 0-4.17 1.46-3.75 4.37v2.5m-150.63 25.63v7.5c-.41 3.33.63 8.54 3.13 15.63 1.67 2.91 3.54 5 5.63 6.25l2.5 1.87v-1.25c-.42-.42-.84-.63-1.25-.63l-1.25-1.25c-2.92-8.33-4.38-19.58-4.38-33.75v-13.12c.42-4.58.83-8.96 1.25-13.13h-1.25l-3.75 2.5c-1.25 1.25-1.46 3.34-.63 6.25.42 1.25.63 4.38.63 9.38v5c-.42 1.25-.63 4.17-.63 8.75m132.5-29.38c-2.5.84-3.75 2.5-3.75 5 0 2.09.84 3.34 2.5 3.75l1.25.63c2.5-.42 4.38-1.04 5.63-1.88 0-5-1.46-7.5-4.38-7.5h-1.25m16.88 8.75c-.42-.41-.83-.62-1.25-.62-2.92 0-4.38 1.46-4.38 4.37 0 4.17 2.09 6.26 6.25 6.25 3.34 0 5-1.45 5-4.37 0-2.5-1.87-4.37-5.62-5.63m61.88 1.25 2.5 1.88 7.5 8.75 2.5 1.87 2.5 3.13 4.37 3.75 1.25 2.5 5 4.37.63 1.25 8.12 10 7.5 6.25c5.42 3.76 8.96 5.84 10.63 6.25 1.66.42 3.74.63 6.25.63l-6.25-3.75-12.5-11.25-11.88-13.75-6.88-7.5-5.62-6.25-3.13-3.13-4.37-5c-1.25-1.25-2.3-1.87-3.13-1.87h-1.87l-1.25.62-1.88 1.25M355 496.66c-2.5 5-3.75 9.58-3.75 13.75 0 11.25 3.55 16.87 10.63 16.87.83 0 2.3-.41 4.38-1.25 2.08-1.25 3.54-1.87 4.37-1.87.83 0 2.3 1.25 4.38 3.75.41.83.62 2.7.62 5.63 0 1.66-2.92 5.41-8.75 11.25h5c5 0 7.5-2.3 7.5-6.88l-.63-10 .63-3.13v-.62c0-1.67-2.7-4.37-8.13-8.13L360 517.28c-2.91-2.91-4.37-5.41-4.37-7.5 0-7.5 2.92-11.25 8.75-11.25 7.08 0 12.5 5.63 16.25 16.88l2.5 5.63c5 15.41 11.46 25.83 19.38 31.25l-2.5-5.63-5-8.75c-.84-1.25-2.09-3.96-3.75-8.13a193.03 193.03 0 0 0-6.25-18.12c-4.59-14.58-11.05-21.88-19.38-21.88l-1.25.63-1.25.62-8.13 5.63m50.63 21.87 3.13 7.5c-.42-3.33-.84-6.04-1.25-8.12v-5c0-4.58 2.08-8.96 6.25-13.13l1.87 1.25c1.67.42 3.96 1.25 6.88 2.5.83-.83 1.25-1.45 1.25-1.87 0-5-3.55-7.5-10.63-7.5-6.25 0-9.38 4.58-9.38 13.75v.62c0 2.5.63 5.84 1.88 10m-216.88-21.25h-1.88c-2.08 0-3.12 2.09-3.12 6.25 0 4.59 1.87 6.88 5.63 6.88 3.33 0 5-2.08 5-6.25 0-4.58-1.88-6.87-5.63-6.88m238.12 22.5-3.75-1.25-.63-1.87-4.37-2.5c-3.75 8.33-5.42 15.63-5 21.88v3.75c.42 1.25.83 2.91 1.25 5a44.23 44.23 0 0 0 1.88 5.62l6.25 10.63c6.24 7.5 14.16 13.12 23.75 16.87 1.66.42 3.74 1.04 6.25 1.88v1.87c0 2.5-.84 3.75-2.5 3.75h-2.5c-1.25 0-2.5-.2-3.75-.63l-3.75-1.25-5-1.87-5-1.88-4.38-3.12-1.88-1.25a32.89 32.89 0 0 0-6.25-5l-6.25-5c-8.33-3.75-14.79-5.63-19.37-5.63-7.08 0-10.63.84-10.63 2.5 0 .84 1.25 2.71 3.75 5.63l1.88 1.88-5.63 3.12c-5.41 2.5-8.12 6.25-8.12 11.25 0 6.25 3.54 10.63 10.63 13.13 1.25-9.17 8.74-13.75 22.5-13.75 3.74 0 15.41 3.33 35 10 12.08 3.33 29.58 5 52.5 5h4.37c28.75.83 49.8-3.55 63.13-13.13l13.12-9.38c3.75-2.5 5.62-4.37 5.63-5.62l-.63-1.25h-13.75l-13.75 7.5-7.5 2.5-8.13 3.13a268.7 268.7 0 0 1-21.87 3.75c-6.67.41-12.7.62-18.13.62-6.25 0-10.83-.63-13.75-1.88l-5.62-1.25-5-1.25-4.38-2.5-1.87.63-2.5-.63-13.13-6.87-3.12-3.13-11.88-13.75a33.64 33.64 0 0 1-1.87-10.62c0-6.25 1.87-11.88 5.63-16.88 4.16-5.41 8.74-8.12 13.75-8.12.41 0 3.12 1.04 8.12 3.13.83 4.16 1.25 6.04 1.25 5.62 0 1.67-1.46 3.75-4.38 6.25-6.25 7.08-9.37 12.7-9.37 16.88 0 13.75 7.7 20.62 23.13 20.62 5.83 0 9.16-2.3 10-6.88-2.92.42-5 1.05-6.25 1.88l-5.63 3.13h-1.25c-9.58 0-14.38-6.05-14.38-18.13 0-4.58.63-6.88 1.88-6.88l8.75-8.75c1.67-1.66 3.12-5.2 4.38-10.62-.42-4.17-2.92-6.87-7.5-8.13l-.63-1.25v-1.25c0-1.25-1.04-2.29-3.13-3.12-7.08-2.08-11.66-3.12-13.75-3.13-4.58 0-10.2 3.34-16.87 10m-255.62 5.63 5 9.38 21.88 20.62c2.91 2.92 4.37 8.54 4.37 16.88 0 11.66-5 17.5-15 17.5-6.67 0-10-2.71-10-8.13 0-.83.42-1.67 1.25-2.5l10.63-9.38c1.66-1.25 2.5-3.54 2.5-6.87 0-10-4.59-15-13.75-15-3.76 0-6.46 2.5-8.13 7.5 3.33-2.08 6.04-3.13 8.13-3.13.83 0 2.29.63 4.37 1.88s3.12 2.7 3.13 4.38c0 .41-.42 2.7-1.25 6.87l-4.38 3.75-5 .63c-5 0-7.5 4.58-7.5 13.75 0 1.66.2 2.7.63 3.12l3.75 5 2.5 3.75c1.25 1.25 4.58 2.08 10 2.5l5 .63h1.25c6.66.83 12.29-2.92 16.87-11.25 2.5-4.59 3.54-8.13 3.13-10.63v-.63l-1.25-6.87-.63-5-3.13-5-4.37-6.88-25.63-22.5-4.37-4.37m300 24.38c-2.08.83-3.13 2.08-3.13 3.75 0 5.41 1.67 8.12 5 8.12 2.92 0 4.38-1.88 4.38-5.63 0-4.16-1.88-6.25-5.63-6.25h-.62m16.25 1.25c-2.08.84-3.13 2.5-3.13 5 0 3.34 1.46 5 4.38 5 3.33 0 5-2.08 5-6.25 0-2.5-1.88-3.75-5.63-3.75h-.62m109.38.63-1.25 6.88c-1.67 1.66-4.38 2.5-8.13 2.5 1.67 0 1.67 0 0 0-1.66-.42-4.79-.84-9.37-1.25l-10.63-.63h5l-61.25 1.25c0 2.92 5.42 4.8 16.25 5.63h.63l40-1.88 21.88 1.88c7.08.83 10.62-1.67 10.62-7.5 0-.84-.63-2.92-1.88-6.25l-1.87-.63m-273.12 3.75c-1.67 4.17-4.58 6.25-8.75 6.25h-3.13c-.83-.42-2.29-.83-4.37-1.25a91.27 91.27 0 0 0-11.25-.63c-3.75-.41-8.33-.62-13.75-.62-13.33 0-36.46.63-69.38 1.88v1.87l3.75 3.13 64.38-1.88c2.08-.42 4.17-.42 6.25 0 2.5 0 5.2.2 8.13.63 11.25 1.25 17.5 1.87 18.75 1.87 7.08 0 10.62-2.08 10.62-6.25a8.7 8.7 0 0 0-.63-3.75l-.62-1.25m161.88 18.75c0 2.92 1.67 4.38 5 4.38 3.75 0 5.62-1.88 5.63-5.63 0-3.33-1.46-5-4.38-5-4.17 0-6.25 2.08-6.25 6.25m73.13-5h-4.38c-1.25.42-2.3.83-3.13 1.25l-2.5 1.25c-6.25 3.75-13.95 5.63-23.12 5.63-4.58 0-6.88-2.5-6.88-7.5v-1.25l-1.25-.63v.63l-3.75 1.87c-1.25.83-1.87 2.3-1.87 4.38 0 4.58 3.33 6.87 10 6.87 15 0 27.3-4.17 36.88-12.5m-279.38.63c-10.42.41-15.63 2.29-15.63 5.62v1.25h4.38v3.13l-1.88 5h-.63c0 9.58 5.42 14.37 16.25 14.37 8.75 0 13.55-3.54 14.38-10.63-4.58 3.34-7.7 5-9.38 5-8.33 0-12.5-3.33-12.5-10 0-5.83 4.59-8.75 13.75-8.75 7.92 0 22.71 6.46 44.38 19.38 3.33 2.08 5.62 3.13 6.88 3.13l1.25-.63 1.25-1.25-10.63-5-28.13-16.88-11.87-3.75-6.25-.62h-4.38l-1.25.63m-54.37.62c-6.25 3.33-9.38 7.92-9.38 13.75 0 10.42 6.25 15.63 18.75 15.63 11.67 0 20.84-5.84 27.5-17.5-.41-.42-1.45-.63-3.12-.63-.83 0-2.08 1.25-3.75 3.75s-4.38 4.38-8.13 5.63c-8.33 2.08-12.29 3.12-11.87 3.12-2.5 0-5.83-1.46-10-4.38-1.67-2.91-2.5-5.2-2.5-6.87 0-5 2.3-7.5 6.88-7.5h.62l3.13.63 3.12 3.75.63 3.75c2.91-.42 4.37-1.25 4.37-2.5 0-5.84-1.46-8.96-4.38-9.38l-9.37-1.25H225m353.75 7.5a76.9 76.9 0 0 1-5 3.75l-1.88 1.88a13.46 13.46 0 0 0-3.75 8.12c1.67 5 3.96 7.5 6.88 7.5.42 0 2.3-.42 5.63-1.25-3.76-2.92-5.63-5.63-5.63-8.13 0-1.66 1.67-5.41 5-11.25l-1.25-.62M233.13 151.03l2.5 3.12 1.88-3.12h-4.38m-4.38 3.75-2.5.62v-2.5l2.5 1.88m-6.87 4.37-1.25-3.75-2.5 3.13 3.75.62m-10 .63 1.88-.63.62 1.88h-3.13l.63-1.25m161.25 3.12-1.25 5.63c-.42 2.08-.83 3.96-1.25 5.62v4.38l2.5 11.87c-3.33-3.33-5-6.87-5-10.62 0-11.25 1.25-16.88 3.75-16.88h1.25m-167.5 0 3.13 1.88-3.13 1.25v-3.13m168.75 5.63v7.5-7.5m208.12 7.5c4.58 0 7.7 2.7 9.38 8.12l-3.13-1.87c-1.25-2.92-3.13-4.58-5.63-5h1.25l-1.87-1.25m-239.38 10.62 1.25-.62.63 1.25-1.25.62-5.63.63-.63 2.5 20.63 6.87-22.5-2.5-3.13 1.25-5.62 3.75-1.88-1.25c3.34-3.33 6.46-5.41 9.38-6.25v-1.87l-5 1.25c-1.67 0-2.5-.63-2.5-1.88 0-.41.63-1.04 1.88-1.87l5.62-2.5 8.75.62m-150.62 9.38-1.88-.63a7.29 7.29 0 0 0-1.25 1.88 30.6 30.6 0 0 1-1.87 3.12c0 1.25.2 1.88.63 1.88l.62-1.25a76.55 76.55 0 0 1 3.75-5m189.38-4.38 4.38 1.88v1.87c.83 2.5 1.45 4.59 1.87 6.25-.42-.41-.63 1.05-.63 4.38v1.25c-1.25 0-1.87-1.87-1.87-5.63 0-1.66-1.25-5-3.75-10m-72.5 30-1.88.63c2.5 0 2.3-.83-.62-2.5h-2.5c-12.08-4.17-17.5-5.83-16.25-5l6.88 3.12c5.41 2.92 10.2 4.17 14.37 3.75l-5-1.87-5.63-.63 5 3.13 5.63-.63m71.25-2.5-3.75-2.5c0 2.09.2 3.13.63 3.13l3.12-.63m135 3.75-.63-.62-1.25 1.87-3.75-.62c-1.25 0-1.87-.42-1.87-1.25 0-.83.83-1.25 2.5-1.25 1.25 0 2.92.62 5 1.87m-4.38 4.38 20.63 8.12-24.38-6.25h1.88l-1.88-1.25 3.75-.62m60 11.87-13.12 3.75-7.5 6.25-6.25 11.88 5.63-8.75 21.25-13.13M535 254.78c.41.42.62 0 .62-1.25-1.67-1.67-2.7-2.5-3.13-2.5l-2.5 3.12v1.25c0 2.09.42 3.13 1.25 3.13 1.25 0 2.5-.83 3.75-2.5s1.46-2.5.63-2.5l-.63 1.25m-236.88-.63-.62 4.38-3.13 7.5.63-6.88 3.13-5m227.5 13.13-1.88 1.25-5 .63-.63-1.88h7.5m-13.75 2.5 5.63 3.13 8.75.62-7.5 1.25v-1.88H520c-.42.42-.63.84-.63 1.25.42.42.21.63-.62.63-2.92 0-5.2-.63-6.88-1.88v-3.12m39.38 38.75c1.67 0 3.54 1.04 5.63 3.13l-1.25 2.5h-1.88l-2.5-5.63m-3.13 3.75 2.5 4.38-2.5-.63c-.83-.83-1.25-1.67-1.25-2.5l1.25-1.25M430 349.78l3.75 2.5-2.5.63h-3.12l-.63-.63c-.83-.83-1.25-1.67-1.25-2.5v-1.88c.42-1.25.84-2.91 1.25-5l2.5 6.88m44.38-3.75-8.13.63-8.75 1.87c1.67-2.92 4.59-4.37 8.75-4.38h5.63l2.5 1.88M337.5 434.16c-.42-.84-.63.2-.63 3.12 0 2.08-.62 4.58-1.87 7.5h-1.88c.42-2.08.63-3.75.63-5 .42-1.67.63-2.92.63-3.75 0-3.33-.21-5.62-.63-6.88H335l2.5 5m151.25 4.38 34.38.63-13.75 3.12c-4.59.83-11.46-.42-20.63-3.75m33.13 15c1.25 2.5 1.87 4.38 1.87 5.63 0 2.08-1.46 4.58-4.38 7.5l-2.5-.63c2.09-5 3.13-7.92 3.13-8.75v-1.25c-2.08-1.25-3.33-2.5-3.75-3.75.42-.42 1.46-.63 3.13-.63l2.5 1.88m6.25 8.13h1.25l.62 1.24c0 .42-.83.63-2.5.63-1.25 0-1.88-1.67-1.88-5l2.5 3.13M495 470.4c-1.67 0-4.38-.41-8.13-1.25-3.75-1.25-6.66-1.87-8.75-1.87-3.33 0-6.45 1.46-9.37 4.38h-2.5c0-3.75 1.87-6.05 5.63-6.88l5.62-1.25 3.13-.63 14.37 7.5m-1.88 3.13L480 470.4a11.85 11.85 0 0 0-8.75 5H470l7.5-2.5h4.38l11.25.63m-160 2.5c.41 0 1.25-1.04 2.5-3.13l3.12-6.25c.83-2.08 1.25-3.33 1.25-3.75l-4.38 16.25a42.93 42.93 0 0 0-1.25 5 71.1 71.1 0 0 0-1.25 6.88l-.62 6.88v3.74h-1.88v-15c.42-.83.84-2.08 1.25-3.75l1.25-6.87m8.13 13.75-3.13 7.5h-2.5v-3.75l2.5-2.5c.42-.42.84-.63 1.25-.63.84 0 1.46-.2 1.88-.62m273.12 1.88 4.38.62c1.25 2.5 1.87 4.17 1.87 5 0 .83-.83 1.25-2.5 1.25l-1.25-1.25a9.83 9.83 0 0 0-1.88-2.5l-.62-3.13m2.5 9.38-1.25 2.5h-2.5v-1.88c-.83 0-1.67-.41-2.5-1.25.42-.41.83-.62 1.25-.62l1.25-1.25 3.75 2.5m-8.75 6.88 1.25-2.5 2.5.62 1.88 1.88 4.37 5c-2.08 0-3.54.2-4.38.62l3.13-.63-1.88-.62-4.37-5-2.5.63m-178.75 24.37 5.63-7.5c-2.09 4.58-3.96 12.08-5.63 22.5-.83-2.5-1.25-3.54-1.25-3.13 0-4.58.42-8.54 1.25-11.87m-78.75 19.38c-2.08 3.33-6.67 5-13.75 5h4.38l-4.38.62c-2.08 0-3.33-1.25-3.75-3.75l5 .63 4.38-3.13 8.12.63m0 5.62-6.25 3.75-2.5 1.88h1.25l-3.75 1.25-2.5-1.88 3.13-1.25 2.5-3.13 8.12-.62m49.38 7.5c3.74 0 7.5 1.25 11.25 3.75a9.8 9.8 0 0 0 2.5 1.88 9.83 9.83 0 0 1 2.5 1.87c5.41 4.17 8.12 7.5 8.12 10l-7.5-8.75-8.13-3.75-3.12-1.88-5.63-1.25v-1.87m58.13 16.25 4.38 1.25c.41.83.62 2.3.62 4.38 0 1.25-2.3 2.29-6.88 3.12l4.38-1.88-4.38 1.88 3.75-4.38-1.25-3.12-.62-1.25m10 4.38 3.13 3.12-1.88 3.75-3.75.63 2.5-7.5m7.5 2.5c1.67.41 2.5 1.04 2.5 1.87 0 2.08-1.46 3.33-4.38 3.75l1.88-5.63m5 5 3.13-3.12-.63 3.75-2.5-.63m10-2.5-1.88 4.38c-.41-.42-.62-1.04-.62-1.88 0-1.66.63-2.5 1.88-2.5h.62" transform="translate(-146.86 -119.79)"/>
</svg>
