<svg xmlns="http://www.w3.org/2000/svg" viewBox="0 0 500 500">
    <path d="M146.86 619.79v-500h500v500h-500m7.5-7.5h485v-485h-485v485m7.5-7.5V135.41h469.38v469.38H161.86m153.75-445v-3.13l-1.88-4.37 1.25-6.88c-.41-.41-.83-.62-1.25-.62l-1.25-1.25c-2.91 0-4.37 2.08-4.37 6.25 0 5 2.5 8.33 7.5 10m-116.88 3.75c4.17.83 6.46 1.25 6.88 1.25.83 0 1.45-.2 1.87-.63.83-.41 2.5-1.87 5-4.37 7.92-7.5 22.7-11.25 44.38-11.25 4.58 0 7.29.2 8.12.62l25.63 6.88h11.25l-.63-.63c0-.41-.2-.83-.63-1.25l-5-1.87-10.62-3.75c-8.33-2.5-19.17-3.75-32.5-3.75-13.33 0-23.96 2.08-31.87 6.25l-4.38 2.5-11.25 5.62-6.25 4.38m131.88-3.75h-1.88c-2.08-2.5-3.75-3.75-5-3.75-.83.83-1.66 2.7-2.5 5.62l.63 2.5v1.88l1.88 1.87c6.66 5 10 7.71 10 8.13 0 1.67-1.05 2.5-3.13 2.5-1.25 0-3.96-2.7-8.13-8.13-2.5-2.91-6.87-5.41-13.12-7.5-6.25-2.08-11.04-3.12-14.38-3.12-2.91 0-6.25 1.46-10 4.37-3.75 2.5-5.62 5.21-5.62 8.13 0 1.25 1.46 2.08 4.38 2.5l.62 1.25c-3.33 4.58-5 9.58-5 15l1.25 1.25.63 2.5 7.5 6.25 5-.63 3.12.63c.42 0 1.67-1.04 3.75-3.13 2.08-2.08 3.12-3.74 3.13-5l-.63-3.12-2.5 5.62c-.83 2.09-2.5 3.13-5 3.13-6.25 0-9.38-3.12-9.38-9.38 0-8.74 6.25-13.12 18.75-13.12 3.75 0 6.05.2 6.88.62l12.5 4.38c1.25.83 2.5 1.88 3.75 3.12l5 3.75 2.5 3.13.63 1.25 3.12 4.37 1.88 2.5 4.37 7.5c4.58 12.92 6.87 22.09 6.88 27.5v3.13c0 1.25-.21 2.5-.63 3.75l-.63 9.37c.42.42 1.88.63 4.38.63s3.75-6.67 3.75-20c0-14.17-2.08-25.2-6.25-33.13l-12.5-27.5c-1.25-2.5-1.88-5-1.88-7.5s1.05-5.41 3.13-8.75c2.08-3.74 4.37-5.62 6.88-5.62 1.66 0 3.95.83 6.87 2.5l.63-1.25c-3.34-3.33-6.67-5-10-5-8.76 0-13.96 5-15.63 15m40.63-11.88-.63 2.5c0 1.67 3.75 5.21 11.25 10.63 1.25 2.5 2.7 3.75 4.38 3.75 1.66 0 2.5-.83 2.5-2.5v-1.25l-1.25-8.13c0-1.25-.84-2.7-2.5-4.37-3.34-2.5-5.84-3.75-7.5-3.75l-6.25 3.12m60.62 5 3.13-.62c3.74 0 5.62 1.46 5.62 4.37v3.13l-3.13 3.75-10.62 7.5-1.25 5a6.95 6.95 0 0 0-.63 3.12c0 .84.63 1.88 1.88 3.13l1.25 1.87c2.92 4.17 6.04 6.26 9.38 6.25.83 0 2.91-.41 6.25-1.25l16.25-3.75c2.91 0 6.24 1.88 10 5.63l1.25 4.37h1.25c1.25-2.91 1.87-5.2 1.87-6.87s-1.67-4.17-5-7.5l3.13-2.5c-3.76-5-8.13-7.5-13.13-7.5-4.17 0-8.96 2.5-14.38 7.5h-1.25c-2.91 0-4.37-.83-4.37-2.5l3.13-1.88c2.5-1.25 6.04-2.91 10.62-5l3.13-3.75 1.87-3.75v-.62l-.63-.63c-1.25-1.25-3.54-1.87-6.87-1.87l1.88-.63h-2.5c-.84-8.74-3.96-13.12-9.38-13.12-4.17 0-7.08 2.7-8.75 8.12m33.75-5.62c0 3.75-1.88 7.08-5.63 10 7.5-1.67 11.25-3.96 11.25-6.88 0-3.33-1.45-5-4.37-5l-1.25 1.88m-74.38 18.75 2.5.62.63 1.25 7.5-5a11.84 11.84 0 0 0 4.38-9.37c0-5-1.67-7.5-5-7.5-6.67 0-10 3.75-10 11.25v8.75m-176.88-18.75-3.75 1.87c-.84 0-1.67.21-2.5.63-11.25 4.58-17.92 6.88-20 6.87-3.76 0-6.26-.2-7.5-.62l-5.63-3.13 1.25-9.37-5.62 8.75c0 7.5 4.16 11.25 12.5 11.25 7.5 0 17.91-5.42 31.25-16.25m370 0c-2.5 1.25-3.76 2.92-3.75 5 0 5.83 4.58 8.75 13.75 8.75.41 0 1.04-.42 1.87-1.25 2.08-2.92 3.75-5 5-6.25l3.13-3.13h2.5c5.41 0 8.12 2.3 8.12 6.88 0 5.83-4.38 8.75-13.13 8.75-2.91 0-6.04-.83-9.37-2.5v1.87l6.25 2.5c3.33.84 4.8 1.25 4.38 1.25 1.25 0 2.08-.2 2.5-.62l-.63 1.25c10.42-.42 15.63-3.75 15.63-10 0-8.33-3.96-12.5-11.88-12.5-4.17 0-7.08 1.25-8.75 3.75-4.17 4.17-7.08 6.25-8.75 6.25-4.17 0-6.46-3.33-6.88-10m-33.75 1.25 30 10.62c-.41-2.5-1.45-4.16-3.12-5a98.46 98.46 0 0 0-7.5-1.87 19.24 19.24 0 0 1-3.75-1.25c-5.83-2.92-10.63-3.96-14.38-3.13l-1.25.63m-88.12 11.87c-1.25 1.25-1.88 2.09-1.88 2.5 0 1.25.42 1.88 1.25 1.88.42 0 1.88-.42 4.38-1.25 2.5-1.25 4.17-1.87 5-1.88a65 65 0 0 1 8.13-2.5c3.33-.83 7.08-1.66 11.25-2.5l33.75-3.12c15.83-1.25 26.66 1.25 32.5 7.5l1.25 1.87c7.5 3.34 11.87 5 13.12 5h3.75l-18.75-8.75c7.5 1.25 14.8 4.17 21.88 8.75h8.12l3.13-1.87-6.25-2.5-5-2.5c-14.17-7.92-31.46-11.88-51.88-11.88-27.08 0-48.33 3.76-63.75 11.25m-203.12 6.25c.42-6.66 4.58-10 12.5-10 1.67 0 3.75.21 6.25.63 2.5.42 4.17.62 5 .62-.42 0 .63-.41 3.13-1.25-7.09-2.5-12.71-3.74-16.88-3.75-10.83 0-16.25 3.13-16.25 9.38 0 2.5 2.08 3.96 6.25 4.37m103.75-10-3.13 5.63c3.75 5.83 9.38 8.75 16.88 8.75h1.88c1.25-.42 2.91-.83 5-1.25-2.92-9.17-8.76-13.75-17.5-13.75l-3.13.62m-150 8.13h2.5l6.25-3.75 5-3.13-1.25-.62-12.5 7.5m185 6.25c5.42 1.25 8.96 1.88 10.63 1.87 4.58 0 7.7-2.7 9.37-8.12l-1.88-1.25-1.25-3.75c-.41-.42-1.66-.63-3.75-.63-2.91 0-4.58.63-5 1.88l-5 5-2.5.62-.62 4.38m70-5.63c11.67-1.25 16.04-1.87 13.13-1.87l1.25.62 9.37 3.13h.63c2.08 0 3.12-.63 3.12-1.88 0-3.74-2.5-5.62-7.5-5.62-1.67 0-2.7.2-3.13.62l-16.87 5m-293.12 5c-1.67 1.67-2.5 3.13-2.5 4.38 0 1.67 3.54 2.5 10.63 2.5 12.91.42 24.58 6.88 35 19.37 10.41 11.67 15.62 25.63 15.62 41.88l.63 25 .62 8.75v6.25l-.63 15v4.37c1.67 1.67 3.34 2.5 5 2.5 1.67 0 6.05-.62 13.13-1.87v-46.88c0-7.91 1.67-11.87 5-11.87 2.08 0 3.54.42 4.38 1.25l58.75 66.87a65.65 65.65 0 0 0 3.75-15l3.12-20c.42-.83.63-2.7.63-5.62s-1.46-5.83-4.38-8.75l-76.88-86.88-19.37-.62-15.63-1.88-21.25-.62-15.62 1.87m208.75 30c-1.67 5-4.17 9.8-7.5 14.38-9.17 14.17-13.75 23.12-13.75 26.87v2.5l4.38-5.62 8.75-15 6.87-10 1.88-4.38 5.62-11.25c2.5-4.16 3.75-9.37 3.75-15.62l.63-4.38c.41-5.41-1.46-8.12-5.63-8.12-2.5 0-3.75 1.25-3.75 3.75v1.25l3.75 5.62v1.25l.63 1.88c0 2.08-1.05 5.83-3.13 11.25l-1.25 2.5c0 .83-.42 1.88-1.25 3.12m137.5-13.75 4.38 4.38 1.25 1.87 1.87 1.88c3.33 9.17 5 18.96 5 29.37 0 2.92-.2 5.63-.63 8.13 0 2.5-.2 5-.62 7.5-.42 1.25-.63 2.7-.63 4.37v1.88l.63 5-.63 37.5c0 6.25 6.25 9.58 18.75 10v-60.63l.63-20c.83-20 6.67-31.25 17.5-33.75l26.25-6.25 6.25-4.37c-6.25-2.08-9.58-3.12-10-3.13l-3.75.63h-5c-2.92 0-5.42.2-7.5.62-1.25.42-4.17.63-8.75.63h-6.88c-2.08 0-4.58.2-7.5.62-2.08.42-5.2.63-9.37.63h-15c-4.17 0-7.3-.2-9.38-.63a939.57 939.57 0 0 0-19.37-1.87c-5-.42-8.96-.63-11.88-.63-7.5 0-11.25 1.25-11.25 3.75s3.13 3.96 9.38 4.38l17.5 1.87c4.17 0 10.42 2.09 18.75 6.25m-268.75-13.12 1.88 2.5 15 17.5 3.12 2.5 4.38 6.25 1.87 1.87 3.75 3.75 1.25 1.88 24.38 27.5 3.12 3.12 6.25 8.13 1.25 1.25 3.13 2.5 3.12 3.12 1.25 1.25-.63-8.12-2.5-1.25-3.12-3.75-44.38-50.63-11.25-13.75c-4.58-5-7.91-7.5-10-7.5-.83 0-1.45.21-1.87.63v1.25m108.75 8.75c5.42 2.08 8.33 3.13 8.75 3.12 7.08 0 11.46-3.33 13.13-10l-1.88-1.25-1.88 4.38-1.87 1.87h-3.75v-1.25c2.92-1.25 4.37-2.7 4.38-4.37v-.63l-11.25-1.25-5.63 9.38m36.88-3.75c3.74 6.67 7.08 10 10 10 3.74 0 5.62-1.67 5.62-5 0-6.25-4.38-9.37-13.13-9.38-2.08 0-3.12.84-3.12 2.5.42.42.63 1.05.63 1.88m203.12-1.88-9.38 3.75-13.13 2.5-9.37 3.75h-1.25a76.68 76.68 0 0 0-8.13 6.88 29.04 29.04 0 0 0-4.37 5.62 32.72 32.72 0 0 0-1.88 7.5v11.88l-.62 80.62 3.75 1.25 1.25-8.75.63-80c.41-11.25 5.41-18.12 15-20.62l26.25-6.25c3.74-.42 5.62-2.5 5.62-6.25 0-2.5-.83-3.75-2.5-3.75l-1.88 1.87m17.5 9.38c3.34 0 5-.63 5-1.88l.63-4.37-7.5.62-6.25-2.5v.63c0 1.67 1.04 3.33 3.13 5 2.08 1.67 3.74 2.5 5 2.5m-445-7.5c2.08 3.33 7.29 5.83 15.62 7.5 8.33 1.67 17.7 6.67 28.13 15-5.84-11.25-15.42-17.92-28.75-20l-15-2.5m246.25 8.75 1.25 3.12c2.91 2.5 5.2 3.96 6.87 4.38 1.25 0 2.3-.63 3.13-1.88l.62-.62c0-.42-1.04-1.46-3.13-3.13a67.52 67.52 0 0 0-3.12-3.75c-1.67-4.16-3.13-6.24-4.38-6.25-2.08 0-3.12 1.05-3.12 3.13a8.3 8.3 0 0 0 1.88 5m57.5-8.75c.41 4.17 6.24 7.08 17.5 8.75 10.41 1.25 19.16 4.17 26.25 8.75l1.87.62 4.38 5v-.62l.62-.63c0-1.66-1.25-3.74-3.75-6.25-4.58-4.58-8.75-7.29-12.5-8.12l-10.63-2.5-16.87-2.5-6.88-2.5m-80.62 2.5c-1.25 3.75-1.88 6.67-1.88 8.75s.21 3.75.63 5c3.33-3.33 5-5.62 5-6.88 0-1.25-1.25-3.54-3.75-6.87m-13.13.62-2.5 2.5c-4.58 2.09-6.87 4.59-6.87 7.5v4.38h1.88c4.16 0 6.66-.83 7.5-2.5a48.56 48.56 0 0 0 2.5-6.25c.41-.42.62-1.46.62-3.13 0-.83-1.04-1.66-3.13-2.5m221.25 6.88 3.75 5.62 2.5 6.88 1.25 5 2.5 5.62c.42 2.5 1.05 8.13 1.88 16.88v1.25c0 5.42-1.46 10.2-4.38 14.37l1.88 3.75-8.75 14.38-7.5 5a18.59 18.59 0 0 1-9.38 2.5c-3.33 0-7.08-1.46-11.25-4.38l-2.5-1.87a7.77 7.77 0 0 0-2.5 5.62c0 .42.42 2.3 1.25 5.63 1.25 3.75 3.55 6.25 6.88 7.5l-2.5 5.62c4.17 1.25 7.08 1.88 8.75 1.88 7.92 0 12.7-2.7 14.38-8.13l4.37-9.37c.83-.83 1.46-1.25 1.88-1.25.83 0 1.25.62 1.25 1.87 0 1.67-1.05 4.17-3.13 7.5l-11.25 13.13-5 5c-2.08 2.08-3.13 3.96-3.13 5.62-3.33 4.59-5.2 10.42-5.62 17.5l6.88-1.87c-.42 2.5-.84 4.8-1.25 6.87v5c0 2.09.62 5 1.87 8.75 5.42 11.25 11.67 16.88 18.75 16.88 7.92 0 11.88-2.3 11.88-6.88.41-.41.62-1.04.62-1.87v-6.25l.63-.63c0-.41-.84-1.45-2.5-3.12a233.2 233.2 0 0 0-4.38-5.63c-1.25-2.5-2.7-4.79-4.38-6.87-1.25-2.5-1.87-4.8-1.87-6.88 0-7.08 2.3-10.62 6.88-10.62 1.66 0 4.16.62 7.5 1.87l.62 3.75-.63 1.88-3.12 2.5c-1.67 1.25-2.5 2.5-2.5 3.75 0 1.67.63 2.5 1.88 2.5 5.83-.83 8.74-4.37 8.75-10.63 0-2.91-1.46-5-4.38-6.25s-5.2-1.87-6.88-1.87c-3.33 0-6.25 2.08-8.75 6.25l-1.87 3.12c-.83 4.17-1.25 6.05-1.25 5.63v3.75c.42.42 1.04 1.25 1.88 2.5.83 1.25 2.08 3.33 3.75 6.25l5.62 8.75c-.83 5.83-3.13 8.75-6.88 8.75-8.33 0-12.5-6.04-12.5-18.13 0-2.91.63-6.66 1.88-11.25l20-46.25c6.25-15.41 9.37-30.83 9.38-46.25 0-8.33-2.3-18.33-6.88-30-3.33-6.66-5.83-10.83-7.5-12.5l-3.13-2.5-3.75 4.38m-269.38 8.75c-6.25-7.5-11.66-11.25-16.25-11.25-6.66 0-10 2.7-10 8.12 0 3.76 1.88 5.63 5.63 5.63h.63l3.12-5.63c.83-.83 2.7-1.25 5.63-1.25 3.33 0 7.08 1.46 11.25 4.38m-162.5 3.75-2.5 6.25-1.25 8.12v15.63c0 7.08.83 10.62 2.5 10.62 2.5 0 3.74-1.25 3.75-3.75v-.62l-1.25-13.13c-.42-2.08 0-5.83 1.25-11.25l3.12-16.25 2.5-4.37v-1.25c0-1.67-.83-2.5-2.5-2.5-2.08 0-3.33 1.46-3.75 4.37l-1.87 8.13m242.5-13.13-3.75 5-5 3.75-16.25 16.88-6.25 6.25-3.13 3.75a48.13 48.13 0 0 0-7.5 11.87c-2.92 2.09-5.2 5.21-6.88 9.38-.41 1.25-1.66 3.54-3.75 6.87-1.66 2.92-2.5 4.59-2.5 5 0-.41.42 1.05 1.25 4.38l.63 1.25 8.13-10.63c6.66-15.41 20.62-32.08 41.87-50 1.25-1.66 3.96-3.74 8.13-6.25l-5-7.5m183.12.63-1.25 1.87c2.08 5 3.12 7.92 3.12 8.75 0 1.67-1.25 3.96-3.75 6.88-2.08 1.25-3.54 1.88-4.38 1.87a7.87 7.87 0 0 0-3.12-1.87l-3.75-8.13c-1.67 2.92-2.5 5.42-2.5 7.5.42.42.63 1.25.63 2.5 0 .84.2 1.46.62 1.88 3.75 3.75 7.3 5.63 10.63 5.62 7.08 0 10.62-4.37 10.62-13.12 0-5.42-2.3-10-6.88-13.75M183.1 211.66c1.26 6.26 5 9.38 11.26 9.38 6.66 0 10-3.54 10-10.63 0-3.33-1.05-5-3.13-5l-1.25 1.25c-.42 0-.83.21-1.25.63 2.08 2.08 3.12 3.33 3.13 3.75l-.63 3.12a7.77 7.77 0 0 1-5.62 2.5c-4.59 0-7.09-1.45-7.5-4.37l-.63-3.75 1.25-16.88c-.42-.41-1.25-.62-2.5-.62-2.5 0-3.75 3.54-3.75 10.62v5c0 2.09.2 3.76.63 5m305.62-10.62c2.5-2.5 4.58-3.75 6.25-3.75 1.25 0 3.54.62 6.87 1.87 2.08 3.34 3.12 5.63 3.13 6.88 0 2.08-1.25 4.58-3.75 7.5v1.25l-4.38 8.75 4.38-4.38c6.24-6.24 9.37-11.04 9.37-14.37 0-8.33-4.17-12.5-12.5-12.5-4.17 0-7.3 2.92-9.38 8.75m-171.25 28.75c0-14.17 3.75-21.25 11.25-21.25 2.5 0 5.42 2.5 8.75 7.5l1.25-5c0-5.83-3.75-8.75-11.25-8.75-9.16 0-13.75 4.58-13.75 13.75 0 2.92 1.25 7.5 3.75 13.75m251.88-18.13 2.5 2.5 2.5 2.5 3.13 5.63c1.25 4.58 1.87 7.92 1.88 10 0 1.25-1.05 5-3.13 11.25l-5 5.62-.63.63-7.5 1.25c2.5 3.75 5.84 5.63 10 5.62 1.67 0 5-1.04 10-3.12l.63 3.75c7.92-.42 11.88-6.25 11.88-17.5 0-10.83-3.34-18.96-10-24.38l-1.88-1.25a139 139 0 0 0-9.38-5.62c-5.83-3.33-8.95-5-9.37-5-1.25 0-1.88.83-1.88 2.5 0 2.08 2.09 3.96 6.25 5.62m-278.12-5 8.13 5 .63 1.25 6.25 8.75 5.62 5.63 1.88 1.87-.63-5-2.5-3.75-1.25-5c-2.5-7.5-6.25-11.25-11.25-11.25l-6.88 2.5m141.25 3.13 8.13 6.87 2.5 1.88 4.38 6.25 1.25 2.5.62 1.87a55.04 55.04 0 0 1 4.38 8.13l1.25 2.5c-.84.83-2.3 1.25-4.38 1.25h-5l1.25 6.87c1.25 3.34 3.54 6.26 6.88 8.75l19.37 10.63 1.25 5-5.63-1.25-1.87-.63c-7.08-1.25-11.25-1.87-12.5-1.87-9.17 0-15 2.5-17.5 7.5l-.63.62v.63c.42 2.08 2.92 3.33 7.5 3.75l1.25 1.25v.62c.42.42.84 1.05 1.25 1.88l-.62 1.25h-3.75l-3.75 1.25-3.13 1.87-1.87 5-1.88 3.75v13.13h9.38c5.42.42 10.63-1.04 15.63-4.38a13.4 13.4 0 0 1 3.12-2.5l1.88-1.87h5l-1.25 2.5-2.5 5.62 15.62-3.12H488.74c2.91 0 5.2.2 6.87.62a730.29 730.29 0 0 0 30 3.75 237.7 237.7 0 0 0 21.88 1.25h.62c3.33 0 5.62-.2 6.88-.62l8.75-1.88 11.25-1.87c4.58-1.25 7.5-4.58 8.75-10-12.09 3.33-19.59 5-22.5 5H545.6a22.37 22.37 0 0 0-5.63-1.88c-2.08-.83-4.37-1.66-6.87-2.5l-2.5-1.87-5-2.5-5-5c-7.08-5-10.63-12.08-10.63-21.25s3.55-13.75 10.63-13.75c1.25 0 3.33.83 6.25 2.5l1.25-5c0-4.17-3.33-6.87-10-8.13l-1.25-7.5c-6.25 0-10.83 1.88-13.75 5.63l-3.13 3.75-3.75 8.75c0 .42-.62.62-1.87.62s-1.88-.62-1.88-1.87v-.63l2.5-10v-1.87c0-13.33-3.33-22.7-10-28.13l-2.5-2.5c-1.66-1.66-2.91-2.5-3.75-2.5-.83 0-1.87.84-3.12 2.5-1.25 1.67-2.3 2.5-3.13 2.5a14.5 14.5 0 0 1-2.5-3.75l-3.75-1.25-6.25-2.5-6.25-.62h-6.87a28.37 28.37 0 0 0-14.38 5m-221.25.62-5 6.25-.62 3.75-1.88 3.75V239.8c-.83 5.83 2.71 10.62 10.63 14.37l1.25-6.87-2.5-4.38v-3.12l1.88 1.25.62.62 1.88 2.5c2.5 2.92 4.79 4.38 6.87 4.38 3.33 0 5-1.67 5-5 0-1.67-1.46-3.12-4.38-4.38l-3.12-4.37-2.5-6.25 1.25-16.25-.63-1.88-.62-1.25-3.13-1.87-2.5-1.25-2.5 4.37m306.88-2.5-2.5 2.5c-.83.42-1.45.84-1.87 1.25-5.42 4.59-8.75 7.5-10 8.75a27.66 27.66 0 0 0-2.5 5h-.63c-1.66 0-2.5.63-2.5 1.88v1.87c.42.42.63 1.46.63 3.13 0 2.08.2 3.75.63 5 1.66-2.5 3.54-5 5.62-7.5s4.17-5.2 6.25-8.13c.42-2.08 2.92-4.16 7.5-6.25 4.58-2.5 7.08-4.79 7.5-6.87 0-2.08-1.25-3.12-3.75-3.13l-.63.63h-.62l-3.13 1.87m-119.38 12.5-.62 1.25-8.13 6.88-3.12 3.75-1.88 2.5-5 6.25-6.87 10.62-3.75 6.25 5.63-2.5 11.25-16.87c6.24-8.75 14.37-13.13 24.37-13.13 2.08 0 6.04 1.67 11.88 5 2.5 4.59 3.74 7.71 3.75 9.38 0 5.83-3.13 8.75-9.38 8.75-3.75 0-5.83-.63-6.25-1.88l-3.75-4.37-.63-.63c-1.25.84-1.87 1.67-1.87 2.5 0 8.76 5.2 13.13 15.63 13.13 10 0 15-5 15-15 0-2.92-.21-5-.63-6.25 2.5-1.25 3.75-2.5 3.75-3.75 0-3.75-3.33-7.5-10-11.25-5-2.5-10-3.75-15-3.75-2.5 0-3.96.2-4.38.62l-10 2.5m121.88-1.25c-5.41 1.67-8.95 4.59-10.62 8.75 2.92-2.91 5.83-4.37 8.75-4.37.83 0 2.92.62 6.25 1.87l1.88 2.5a5.94 5.94 0 0 0 2.5-5c0-2.91-2.71-4.16-8.13-3.75h-.63m-197.5 16.25 5.63 13.13a44.13 44.13 0 0 1 3.75 17.5c0 4.58-.2 8.54-.63 11.87 0 2.92-.2 5.42-.62 7.5l-5.63 24.38-5.62 33.75v5.62h9.38l5-1.25 1.25 1.25h6.25c1.25.42 2.08.84 2.5 1.25h1.25c1.66 0 2.5-2.5 2.5-7.5 0-9.16 5.62-22.91 16.87-41.25 7.5-12.5 16.46-18.75 26.88-18.75 5 0 9.16 2.5 12.5 7.5l.62 6.88-1.25 2.5-1.88 1.87H400l-10-.62c-3.75 0-5.63 2.08-5.63 6.25 0 2.08 1.46 4.58 4.38 7.5s5.2 4.38 6.88 4.37h.62l15-2.5c5.42 0 8.12 3.34 8.13 10v1.88c2.08-2.08 3.12-3.96 3.12-5.63 0-6.66-3.96-10-11.88-10h-1.87l-13.13 3.13-5.62-2.5c-1.25-1.67-1.88-3.12-1.88-4.38 0-2.5 1.67-3.74 5-3.75l11.25 2.5c2.92 0 5.42-1.66 7.5-5 2.5-3.33 3.75-6.45 3.75-9.37 0-2.5-.62-5.62-1.87-9.38 5.42-1.66 8.12-4.37 8.13-8.12 0-1.25-2.71-2.08-8.13-2.5-1.67-.42-4.58-2.3-8.75-5.63-3.75-3.33-6.88-5-9.38-5l-5.62.63-1.88-1.25.63-6.25-21.88 9.37c-5 5-7.7 8.34-8.12 10l-6.25 17.5-4.38 8.75a329.9 329.9 0 0 1-7.5 16.88c-2.08 4.17-2.91 7.3-2.5 9.37v1.25c0 5-1.04 7.5-3.12 7.5-1.25 0-1.88-.41-1.88-1.25 0-1.25.21-2.08.63-2.5l1.88-10c1.25-6.66 5.83-17.29 13.75-31.87l1.87-4.38-4.38 6.25a7.29 7.29 0 0 0-1.25-1.87v-.63c1.25-2.08 2.5-5 3.75-8.75.42-.83.63-1.87.63-3.12a44.28 44.28 0 0 1 1.88-5.63l.62 2.5-1.25 10c.42-1.66 1.67-4.79 3.75-9.37l1.88-5c.41-.42.62-2.08.62-5 0-7.08-1.25-10.63-3.75-10.63-1.25 0-2.5.63-3.75 1.88s-3.13 1.88-5.63 1.87l-1.87-5.62c-3.33-9.58-9.8-15.63-19.38-18.13m-67.5 62.5h.63c1.25 0 2.5-.83 3.75-2.5v-25l1.25-25.62c0-1.25-1.25-1.87-3.75-1.88-1.25 0-1.88 2.71-1.88 8.13v6.25c0 2.5.21 4.38.63 5.62l-.63 35M170 249.16v5a24.16 24.16 0 0 1 11.88-7.5c-2.09-1.66-3.34-2.29-3.75-1.87h-3.75l-1.88 1.87a7.08 7.08 0 0 0-2.5 2.5m3.75 7.5-1.25 1.25a8.7 8.7 0 0 0-.63 3.75c0 2.09 2.09 7.3 6.25 15.63 1.67 2.92 2.5 5.63 2.5 8.12 0 .84-1.04 3.96-3.12 9.38.42.42 1.46.62 3.13.62 1.66 0 3.33-1.45 5-4.37 1.66-3.33 2.5-6.04 2.5-8.13 0-2.08-1.05-4.79-3.13-8.12l-7.5-10.63-.63-.62v-.63c.42-1.25 1.05-1.87 1.88-1.87.83 0 1.87 1.04 3.13 3.12l2.5 4.38c2.91 2.92 6.04 4.38 9.37 4.37 5 0 9.58-2.7 13.75-8.12-1.25.42-3.54.62-6.88.62-2.08 0-3.54-.41-4.37-1.25l-9.38-10a7.78 7.78 0 0 0-5.62-2.5c-4.17 0-6.67 1.67-7.5 5m48.13-3.75h-1.88c-.42 0-.63.21-.63.63v1.25c0 1.67 1.05 2.5 3.13 2.5 1.67 0 2.5-.83 2.5-2.5 0-1.25-1.04-1.87-3.13-1.88m52.5 15.63c4.59 5.83 6.88 9.8 6.88 11.87 0 2.92-.63 4.59-1.88 5l-6.87 5.63v1.25c0 .42.2.62.63.62 3.74 0 7.5-3.12 11.25-9.37.41-.42.62-1.04.62-1.88 0-1.25.2-2.08.63-2.5v-.62c0-4.58-3.76-7.92-11.25-10m-80.63 48.75c1.25-1.25 1.87-2.08 1.88-2.5a7.23 7.23 0 0 1-1.25-1.88 34.47 34.47 0 0 0-1.88-4.37v-8.13c1.67-15 9.17-23.54 22.5-25.62 4.17-1.67 7.3-2.3 9.38-1.88h2.5c.83 0 1.45-.2 1.87-.62v-2.5h-7.5l-8.13 1.25c-5.83 1.25-11.25 5-16.25 11.25s-7.5 12.7-7.5 19.37c0 5 1.46 10.21 4.38 15.63m-5.63-38.75 1.88 3.12v1.88l3.75-4.38-1.25-3.12h-3.75l-.63 2.5m26.25 12.5c2.92 2.92 5.84 4.38 8.75 4.37 4.59 0 6.88-2.5 6.88-7.5v-1.25l-4.38-3.75-.62 6.88c0 1.25-1.67 1.88-5 1.87-2.92 0-4.8-.2-5.63-.62m65.63 3.12-5 3.75c0 2.09 1.25 3.13 3.75 3.13.83 0 3.54-1.67 8.13-5l8.75-7.5c.41-.42.62-1.04.62-1.88 0-2.08-1.25-3.12-3.75-3.12-.83 0-1.88.62-3.13 1.87l-9.37 8.75m-78.75-6.25-2.5 5c14.58 9.59 26.04 14.8 34.38 15.63l20 .62c8.74.84 13.12-1.04 13.12-5.62 0-1.67-.83-2.5-2.5-2.5h-.63l-8.12 2.5c-.83.42-3.13.62-6.88.62-15.41 0-29.16-4.16-41.25-12.5-1.25-.41-3.12-1.66-5.62-3.75m63.13 2.5.62 4.38 1.25 2.5 2.5 5 3.13 5.62c3.74 12.09 5.62 21.25 5.62 27.5 0 9.17-2.08 18.13-6.25 26.88-.83 2.08-1.67 3.54-2.5 4.37l-2.5 1.88-1.88 4.37c10.42-4.16 15.63-15.62 15.63-34.37 0-19.17-5.2-35.2-15.63-48.13m43.13 20.63 1.88 4.37c.83 3.34 1.25 5.21 1.25 5.63 0 6.67-4.17 10.42-12.5 11.25 2.91 1.25 5.2 1.88 6.87 1.87 9.58.84 14.38-4.16 14.38-15 0-5-2.3-9.37-6.88-13.12a24 24 0 0 0-15.63-5.63c-1.25 0-2.7.21-4.37.63a27 27 0 0 0-5 .62c-5 1.25-7.7 2.5-8.13 3.75v1.25l17.5-1.25c1.67-.41 5.21 1.46 10.63 5.63m62.5-10.63a9.78 9.78 0 0 0-1.88 2.5c0 .84-.2 1.46-.62 1.88 0 2.08 1.87 3.96 5.63 5.62l4.37 5.63 6.25 6.87 8.13 9.38 2.5 1.87.62 1.25 7.5 8.13 1.25 1.87 8.75 10.63 6.88 6.87.62 1.25 3.13 3.13 1.25 1.25 5.62 7.5 5.63 5 1.25 1.25 2.5 3.75 2.5 2.5.62 1.25 7.5 8.12a9.28 9.28 0 0 0 4.38-2.5 7.33 7.33 0 0 0-1.25-1.87l-1.25-2.5-5.63-6.25-1.25-2.5-4.38-3.75-61.87-68.75c-2.5-4.17-5.42-7.3-8.75-9.38m-3.75 6.25-3.13 6.88-2.5 4.37c-.83 2.09-1.87 4.8-3.12 8.13-1.25 2.92-2.5 6.46-3.75 10.62l-1.88 6.88 76.25 85 3.75-5 11.88-15 5-5.63v-.62c0 .42-.42-1.04-1.25-4.38l-81.25-91.25m-106.25 5.63-3.75.62-.63 15.63-.62 13.12.63 7.5-.63 86.88 4.38.62.62-124.38m-6.88.63-18.12.62a26.78 26.78 0 0 0-1.88 9.38v6.25c0 2.92.21 5 .63 6.25v31.25l-.63 18.12v52.5l18.75-1.25-.62-35 1.88-88.12m-27.5 21.25c.41-2.08.62-3.75.62-5 .42-1.67.63-2.92.63-3.75.83-8.33-3.76-12.5-13.75-12.5-8.76 0-15.84 4.38-21.25 13.12-.42 1.25-.84 2.3-1.25 3.13v.62c.83.84 1.45 1.25 1.87 1.25 1.25 0 2.92-2.5 5-7.5 2.5-5.41 8.12-8.12 16.88-8.12 6.24 0 9.37 3.75 9.37 11.25l-.63 5.62c0 .84.84 1.46 2.5 1.88m250-17.5c-.41 3.33-2.7 6.04-6.87 8.12-5.83 2.92-9.38 5-10.63 6.25h3.13l3.75-2.5 10-2.5c4.17-.41 6.25-3.12 6.25-8.12 0-.42-.2-.63-.63-.63l-.62-1.25-5-1.87.63 2.5m80-1.25-1.88.62-.63 34.38-.62 76.87-1.25 136.88c-.42.42-.63 1.46-.63 3.13 0 1.25.63 1.88 1.88 1.88.83 0 1.67-.42 2.5-1.25l.63-1.88 1.25-249.38-1.25-1.25m-21.88 1.25-3.13 115.62v35.62l.63 3.75c0 6.67-1.67 10-5 10h-3.13l-4.37-4.37c-4.17-5-8.13-9.37-11.88-13.13a136.55 136.55 0 0 0-10-11.25l-1.25-1.25-2.5-3.12h-1.25c.42 1.25.63 3.54.63 6.88 0 8.33-2.92 14.16-8.75 17.5l-.63 1.87-1.87.63c-1.67 1.66-4.38 2.5-8.13 2.5l75.63 86.87 1.88-248.75-16.88.63m-88.13 3.12c0 3.33-1.04 6.67-3.12 10l-.63.63a94.59 94.59 0 0 1-6.25 5.62 79.48 79.48 0 0 1-8.75 6.25c-.83.42-1.87 1.04-3.12 1.88-.83.41-2.3 1.45-4.38 3.12.84 2.5 2.5 4.8 5 6.88.42 1.66 1.25 2.5 2.5 2.5.42 0 2.5-.63 6.25-1.88a180.2 180.2 0 0 1 13.13-3.75c5.42-1.25 9.8-1.87 13.13-1.88 3.74 0 8.54 1.67 14.37 5l2.5 1.25.63.63 2.5 3.13c1.66 2.91 2.5 5.2 2.5 6.87s-1.46 3.96-4.38 6.88a7.77 7.77 0 0 0 5.63 2.5c7.91 0 11.87-3.75 11.87-11.26 0-2.91-1.88-6.04-5.63-9.37 4.17-1.25 6.25-2.3 6.25-3.13 0-1.66-1.45-3.74-4.37-6.25a20.14 20.14 0 0 0-10-5.62l-3.13-1.25c-.41-.42-1.45-.63-3.12-.63-.83 0-1.25.42-1.25 1.25 1.25.42 2.7 1.05 4.38 1.88 1.66.83 3.54 1.67 5.62 2.5v1.25h-3.13c-4.58-2.5-7.91-3.75-10-3.75-3.75 0-6.25.2-7.5.63l1.88-3.76-10.63 1.25-4.37 2.5-18.75 7.5.63 1.25c-2.09 1.25-3.55 1.88-4.38 1.88-.42 0-.63-.42-.63-1.25 0-2.08 1.46-3.33 4.38-3.75 11.67-4.17 19.17-8.96 22.5-14.38l-4.38-1.25 1.25-6.25c0-1.66-1.66-3.54-5-5.62m-243.12 5.63c7.09 5 11.88 8.75 14.38 11.24 2.92 2.5 5.62 7.5 8.13 15 1.66 6.67 1.87 11.67.62 15l-1.25 5c0 2.09.63 3.13 1.88 3.13v-.63c.41-.41.83-1.04 1.25-1.87.41-2.08.62-4.17.62-6.25.42-2.08.63-4.17.63-6.25 0-12.5-2.71-20.63-8.13-24.38l-15-10.62-2.5-1.25-.63 1.88m325 10v-5.63l-8.12-.63a91.54 91.54 0 0 0-10-.62c-2.5-.42-4.8-.63-6.88-.63h-10.62c-10.42.84-16.46 1.46-18.13 1.88l-6.87 2.5 11.25 1.88 26.25-1.26 18.75 2.5h4.38m-341.25-.62c-7.92 1.25-11.88 5.42-11.88 12.5 0 7.5 2.5 11.25 7.5 11.25.83 0 1.67-.63 2.5-1.88-2.08-3.33-3.13-6.04-3.13-8.12 0-7.08 3.13-10.63 9.38-10.63 2.5 0 4.58.84 6.25 2.5 5.83 4.59 8.96 6.88 9.38 6.88 1.25 0 1.87-.42 1.87-1.25 0-1.67-2.92-4.37-8.75-8.13-5-2.08-9.38-3.12-13.13-3.12m78.75 2.5-1.25 6.25 5-.63 3.75 1.88-1.25-6.25-5-1.88-1.25.63m226.25-1.25-1.87.63v1.87c15.83.83 26.67 5.63 32.5 14.38.42 2.08.63 3.75.63 5 .41 1.24.62 2.29.62 3.12 0 1.67-.63 3.75-1.88 6.25-4.58 3.33-7.7 5-9.37 5-2.92 0-5-.2-6.25-.63 0 3.34 1.87 5 5.63 5 10.83 0 16.25-5.41 16.25-16.25 0-15.83-12.09-23.95-36.25-24.37m76.87 4.38 6.25 6.24a76.17 76.17 0 0 0 5 3.75l6.25 5 5.63 5 1.25 1.88 5 5c5.83 4.58 10.83 6.88 15 6.88 3.74 0 6.66-2.3 8.75-6.88l-.63-3.13-1.88.63-1.25-.63-.62 1.88c-3.75 2.5-6.67 3.75-8.75 3.75l-3.13-1.88a652.66 652.66 0 0 1-8.12-6.25l-7.5-7.5-5-3.75-7.5-6.25c-.83-1.25-3.75-2.5-8.75-3.75m1.88 8.75c-3.34-5-5.84-7.5-7.5-7.5-.84 0-1.25.42-1.25 1.25 0 1.25 1.45 2.5 4.37 3.75a7.2 7.2 0 0 0 1.88 1.25c.83 0 1.66.42 2.5 1.25M268.12 377.9c6.24-3.33 11.04-9.37 14.37-18.12 2.5-6.67 5.42-10 8.75-10 3.75 0 5.62 1.46 5.63 4.38 0 .83-1.05 2.08-3.13 3.74-1.67 1.25-2.5 2.09-2.5 2.5.42.42 1.46 1.05 3.13 1.88h.62c4.58 0 6.87-3.75 6.88-11.25-2.5-5.83-5.42-8.75-8.75-8.75-5.84 0-9.8 3.54-11.88 10.63l-3.75 10c-1.25 4.16-3.13 7.29-5.63 9.37l-3.12 3.13-.63 1.87v.63m-77.5-35.63c-1.66 1.67-2.5 3.13-2.5 4.38 0 1.24.21 2.08.63 2.5 2.5 14.16 7.92 21.24 16.25 21.24 6.67 0 10-3.12 10-9.37l-.63-.63v-2.5l-2.5-.62-3.12 9.38c-.83.83-1.67 1.24-2.5 1.24-7.08 0-12.3-8.54-15.63-25.62m8.13 15c.42 1.25 1.04 1.88 1.88 1.88l3.75-1.88c1.25-.83 3.95-2.5 8.12-5 4.17-2.5 6.25-4.8 6.25-6.88 0-1.25-.63-1.87-1.88-1.87h-.62l-17.5 13.75m363.12-8.75-.63 1.88 10.63 10.62 1.25.63c0-4.17-3.75-8.55-11.25-13.13m11.25 2.5c2.08 5 3.12 8.13 3.13 9.38 0 2.5-.21 4.37-.63 5.62h1.25l-1.25 8.75-5 14.38c-.42.41-.63 2.29-.63 5.62s.63 6.88 1.88 10.63l5.63 1.24v1.88c-2.5 4.58-3.76 8.33-3.75 11.25 0 2.08.83 4.58 2.5 7.5a77.2 77.2 0 0 0 11.87-3.75l1.88-1.88a27.8 27.8 0 0 0 2.5-5h1.87c.42 1.67 1.04 2.5 1.88 2.5 2.08 0 3.74-1.45 5-4.37.41-.42.62-1.25.62-2.5 0-1.67.2-2.7.63-3.13.83-.83 2.5-1.66 5-2.5 2.08 5.42 3.12 8.76 3.12 10l-1.25 1.88-1.88 5.63-1.87 3.74-3.75 5-3.13 1.25-5.62 4.38-3.13 1.88c-.83.41-2.08 1.45-3.75 3.12-5.83 4.58-10.2 11.25-13.12 20l7.5.63-1.25 5-2.5 5a88.44 88.44 0 0 1-1.88 6.24 64.62 64.62 0 0 0-2.5 8.13 50.75 50.75 0 0 0 21.88-7.5v2.5l1.88-1.88-1.25 6.88c5.41-1.67 9.37-6.04 11.87-13.13h2.5l-1.25 4.38-2.5 5-4.38 6.88-4.37 3.74-3.13 4.38-15.62 9.38c-1.67 2.5-3.13 3.95-4.38 4.37l-1.87 1.88c-4.58 4.58-6.88 10.62-6.88 18.12v3.13c0 1.25.21 2.5.63 3.75a10.2 10.2 0 0 1 2.5-.63l1.25-.63c1.25 0 1.87.84 1.88 2.5v.63l-1.25 1.25-2.5 5-3.75 3.75c-.42.42-.63 2.5-.63 6.25v4.38c0 2.08.2 3.75.63 5l.62 1.25 4.38-3.13a5.94 5.94 0 0 1 2.5 5 19.3 19.3 0 0 0 1.25 4.38l3.75 5c2.08 2.08 3.33 3.12 3.75 3.12 1.25 0 1.87-.63 1.87-1.88 0-.83-.2-1.45-.63-1.87l-4.37-9.38c-.42-.41-.63-3.33-.63-8.75 0-8.75 2.5-17.5 7.5-26.25.42-.41 1.67-2.5 3.75-6.25 2.09-3.74 5.21-9.58 9.38-17.5l.63-4.37 6.25-5.63c.83-.83 1.66-2.08 2.5-3.75 1.25-2.08 2.7-4.58 4.37-7.5 1.67-4.16 4.17-11.66 7.5-22.5l.63-1.25h1.25l1.25-33.75h-1.25l-2.5 8.13-5 10.63a14.7 14.7 0 0 1-3.13 5l-1.25-.63-1.25-1.25 2.5-1.88 4.38-10c3.33-8.74 5-15 5-18.75v-4.37h-3.13l1.25-10-1.25-5.63c-.42-.83-.83-1.87-1.25-3.12a24.5 24.5 0 0 0-1.88-5l-3.12-1.88-.63-6.87-3.75-4.38v3.75l-2.5-.62c0-6.67-2.08-12.08-6.25-16.25l.63 10c0 2.5.2 4.17.63 5 0 2.5-.84 5.2-2.5 8.13h-1.88c.42-3.34.63-6.05.63-8.13.41-2.08.62-3.75.62-5 0-9.17-2.7-15.83-8.13-20l1.25 7.5-1.87 3.13-1.25-3.76a71.41 71.41 0 0 0-3.75-12.5l-3.13-2.5-5-3.12.63 2.5m-257.5 3.13h-2.5c-7.5 2.08-11.25 5.2-11.25 9.37 0 1.67.83 2.7 2.5 3.13h1.88l3.12-2.5h3.75l3.75-1.88h21.25l3.75-1.25.63 2.5 5.62-1.25.63 3.13 6.25-1.26c-.84.84-1.25 1.67-1.25 2.5.83.84 1.45 1.25 1.87 1.25 2.08 0 3.12-1.45 3.13-4.37 0-4.58-5-7.5-15-8.75l-5-1.88h-20l-3.13 1.25m-126.25 10-5.63 6.88-.62 5.63-1.88 6.87-.62 1.88c0 5.41 1.87 10.2 5.63 14.37 4.16 4.17 8.74 6.25 13.75 6.25 10.83 0 18.75-6.67 23.75-20-2.5 0-3.96 1.46-4.38 4.38-3.33 8.75-9.58 13.12-18.75 13.12-4.58 0-8.54-1.87-11.88-5.63-3.33-3.74-5-7.91-5-12.5 0-3.74 1.05-7.7 3.13-11.87l3.75-6.88c-.42-.41-.63-.83-.63-1.25 0-.41-.2-.83-.62-1.25m145.62 3.75 17.5.63c-.83-.83-2.92-1.46-6.25-1.88-7.08-1.25-12.3-1.87-15.63-1.87h-1.87l-13.13.63c-5 .83-7.5 1.87-7.5 3.12 0 1.67 1.05 2.5 3.13 2.5-.42 0 1.04-.42 4.38-1.25 4.16-1.67 9.16-2.3 15-1.88h4.37m114.38 8.75v1.25c2.08-.41 3.75-.62 5-.62 1.25-.42 2.3-.63 3.13-.63 2.08 0 3.54 1.05 4.37 3.13a22.36 22.36 0 0 1 1.88 5.63c0 5-3.55 11.04-10.63 18.12a116.31 116.31 0 0 0-11.88 13.75 136.15 136.15 0 0 0-7.5 11.88c-7.08 8.33-10.62 19.79-10.62 34.37v2.5c.42.83.83 2.3 1.25 4.38h-3.13l-1.87-5a28.45 28.45 0 0 0-9.38-10.63c-7.5-2.08-11.87-3.12-13.12-3.13-.83 0-3.75 1.05-8.75 3.13l3.13 3.75c-5 3.33-7.5 8.33-7.5 15v3.13l.62 2.5 1.88 4.37 2.5 1.25 3.12 2.5 4.38-.63-3.13-2.5c-1.67-3.33-2.5-6.24-2.5-8.75 0-6.24 3.33-9.37 10-9.37 2.5 0 5.83 1.46 10 4.38l1.88 2.5 3.12 2.5 3.13 5 3.75 7.5v.62l1.87 2.5 1.25 3.13 1.88 3.12 3.12 5.63 6.25 11.87 2.5 2.5 1.88 3.13a51.63 51.63 0 0 0 11.25 9.37l-.63 1.25c22.08 12.08 42.92 18.13 62.5 18.13h6.25c2.92 0 5.2-.21 6.88-.63-2.5-4.17-4.59-6.04-6.25-5.63H508.1l-12.5-1.87-13.75-3.75-4.38-2.5-3.12-1.88-5.63-3.75-2.5-1.87-1.87-1.88-1.25-.62-8.13-8.13-5.62-9.37c-6.25-10-9.38-19.38-9.38-28.13 0-20 7.71-30 23.13-30l2.5.63 6.88 3.13 2.5 1.24v1.88l1.87 1.25 1.25 3.13.63 4.37c0 1.67-1.25 3.96-3.75 6.88l1.25 1.87c9.16-2.92 13.75-9.17 13.75-18.75 0-6.67-2.92-11.88-8.75-15.63 2.5-1.66 5-4.16 7.5-7.5.41-4.16-4.17-6.24-13.75-6.25-3.34 0-9.59 1.88-18.75 5.63a28.28 28.28 0 0 1-5 5l-5.63 5.63c-.42.41-2.08.62-5 .62h1.88-1.88c-.83-2.5-1.25-3.54-1.25-3.13l3.13-3.12 6.25-5 13.75-5.63c4.16-1.66 7.91-5 11.25-10 3.74-5.41 5.62-10.41 5.62-15 0-1.25-.63-1.66-1.88-1.25h-2.5l-5 .63 1.88-5.63c2.08-5.41 3.12-9.37 3.13-11.87 0-9.17-4.59-13.75-13.75-13.75-5.42 0-9.38 2.7-11.88 8.13m-125-6.88v1.88c-.83-.42-2.3-.63-4.38-.63.42 0-1.04.42-4.37 1.25l5.63 3.13 1.25 2.5 16.87-.63 3.75-5-5 .63c-.83-2.09-1.88-3.13-3.13-3.13l-2.5.63-1.25 1.87-4.37-2.5h-2.5m-136.25 18.75c7.08-5.83 14.38-8.75 21.88-8.75 2.08 0 5 .42 8.75 1.25 3.74.83 6.66 1.25 8.75 1.25.83 0 1.25-.42 1.25-1.25 0-1.25-.84-1.87-2.5-1.88h-1.88l-8.75-1.25-3.13-.62c-16.24-1.25-24.37 1.46-24.37 8.13v3.12m306.25 3.75c4.17-4.17 7.92-6.25 11.25-6.25 9.17 0 13.75 3.54 13.75 10.63 0 8.33-6.04 13.12-18.13 14.37l-16.25 1.25-6.25 1.88v2.5l6.25-1.26c1.25-.41 3.13-.62 5.63-.62l20.63-1.88c4.16 0 7.91-2.5 11.25-7.5 1.25-1.66 1.87-4.16 1.87-7.5 0-11.66-5.42-17.5-16.25-17.5-8.75 0-13.33 3.96-13.75 11.88m-141.88-5a90.95 90.95 0 0 1 6.88-1.25c5 0 7.5 3.33 7.5 10 0 2.5-.63 6.46-1.88 11.88-1.25 5-2.08 8.75-2.5 11.24v6.25l-4.38 28.75c-.41 2.09-.83 3.96-1.25 5.63v5c0 5 .63 11.25 1.88 18.75l1.25 5.63 1.25 7.5 1.25 4.37 1.25 3.75 1.25 3.75h1.88l-1.25-6.25-2.5-9.38-2.5-15.62c-.42-1.25-.63-2.7-.63-4.38v-3.12l.63-6.88v-8.75c0-10 1.25-19.79 3.75-29.37l6.87-22.5c.83-3.33 1.25-5.62 1.25-6.88 0-10-3.75-15-11.25-15-5 0-7.92 2.3-8.75 6.88m-13.75 3.75c2.5.83 3.54 1.25 3.13 1.25 2.08 0 3.12-1.25 3.12-3.75 0-5-4.58-7.5-13.75-7.5s-13.75 2.5-13.75 7.5c0 2.08.83 2.92 2.5 2.5l11.88-1.88c1.25-.83 3.54-.2 6.87 1.88m43.75-6.25-1.88 3.13-4.37 8.12-1.88 6.25-1.87 5.63-3.13 7.5-1.87 6.24-3.75 21.25-1.25 13.75v18.13l1.88 12.5 3.12 15.63h1.25c1.25-2.92 1.87-5 1.88-6.26 0-2.08-.84-5.62-2.5-10.62a81.34 81.34 0 0 1-1.25-6.25v-9.38c0-27.91 4.79-50.41 14.37-67.5 4.17-6.66 6.25-10.62 6.25-11.87 0-.83-1.04-2.3-3.13-4.38l-1.87-1.87m-54.38 6.25v3.13l3.13 1.87 1.88-5h-5m-5.63 1.25c-1.25.83-1.88 1.88-1.88 3.13 0 1.24.84 1.87 2.5 1.87 2.09 0 3.13-.83 3.13-2.5l-.63-.63c0-.41-.2-.83-.62-1.25l-2.5-.62m13.75.63-.63 1.24-.62.63.63 1.25c.83.83 1.45 1.25 1.87 1.25 1.25 0 1.87-.63 1.88-1.88v-1.25l-1.25-.62-1.88-.63m-45.63 3.75-.62 3.13.63 4.38-4.38 4.37-.63 3.13c-.41 1.24-.83 2.29-1.25 3.12v.63l1.25 5 .63 1.87 6.88 4.38 1.25-3.13-1.25-7.5c0-3.75 2.91-5.62 8.75-5.63 2.91 0 6.66 1.67 11.25 5l1.25 1.25 4.37 7.5 8.75 30.63 1.88 4.38.62 2.5 3.75 6.87 1.25-1.25-5-16.88-6.25-26.87-6.88-13.13-10.62-9.37-11.88-2.5-3.75-1.88m-111.25.63c-1.24 4.58-1.87 7.92-1.87 10 0 7.5 3.54 14.38 10.63 20.63 7.5 5.83 15.2 8.75 23.12 8.74 1.67 0 3.75-.62 6.25-1.87v1.88l5 .62h3.75c1.67 0 2.5-.63 2.5-1.88 0-.83-1.25-1.25-3.75-1.25h-9.37l-.63 1.88c-.83-1.25-1.46-1.87-1.87-1.88l-2.5-.62h-3.13c-8.33.83-15.83-3.54-22.5-13.13-2.5-2.91-3.75-7.08-3.75-12.5 0-4.58.2-7.5.63-8.75l-2.5-1.87m87.5 25 1.25 2.5v1.88l4.37 3.74-.63 1.88-.62-1.25-2.5 1.88-2.5.62 1.88 5c4.16 5.42 10.83 8.75 20 10 4.58.83 8.12 2.5 10.62 5l-.63 2.5-3.75-1.88-5-3.12c-1.25-.42-2.7-.63-4.37-.63-1.25 0-2.08-.2-2.5-.62h-4.38l-3.75 2.5-4.37 1.88c-2.92.41-4.38 3.54-4.38 9.37l1.25 5 1.25.63.63 3.12 6.25 3.13.63-8.13c0-1.25 1.25-2.5 3.75-3.75s5.2-1.87 8.12-1.88c11.67 0 22.92 5.42 33.75 16.25l5 5 6.88 8.13 1.25 1.88 4.37 5.62 3.13 7.5 9.37 18.75c1.67 1.67 3.96 2.92 6.88 3.75a43.58 43.58 0 0 0-1.25-5c-.42-1.25-2.3-4.58-5.63-10l-1.88-4.38a272.86 272.86 0 0 0-11.25-22.5 279.3 279.3 0 0 0-5.62-9.37l-5-6.25-3.13-3.75-7.5-8.75-7.5-6.25-4.37-4.38-5-3.12-6.25-5.63-8.13-8.12-3.12-4.38-6.25-7.5-1.88-6.87-.62-5.63 3.75-6.87-1.88-1.25h-.62c-.83 0-2.08.83-3.75 2.5-3.33 4.58-5 8.96-5 13.13v3.12c0 2.08.2 3.75.63 5m58.75-10.63 8.75 46.25 2.5 8.75 2.5 8.75 3.75 9.38 1.25 6.25 3.75 7.5 3.12 6.25.63 1.88 2.5 5c.41 3.33 1.25 5.41 2.5 6.24 1.66 0 2.5-1.45 2.5-4.37v-.63c0-1.25-1.25-4.16-3.75-8.75-2.09-3.74-4.17-8.74-6.25-15a269.95 269.95 0 0 1-6.25-22.5c-3.34-12.08-5.21-22.29-5.63-30.62v-10l-1.25-11.25v-10c.83-3.33-.63-5-4.38-5-4.58 0-6.87 1.04-6.87 3.13l.63 2.5v6.24m-96.88 18.75c-9.58-3.33-14.37-7.5-14.37-12.5 0-4.58 1.45-6.87 4.37-6.87 2.08 0 4.8 1.04 8.13 3.13-1.25-4.17-3.96-6.25-8.13-6.26-7.08 0-10.62 3.55-10.62 10.63 0 8.75 5.62 12.7 16.87 11.88h3.75m376.88-18.13 1.25 4.38v-.63a7.3 7.3 0 0 0 1.25-1.88v-.62l-2.5-4.38v3.13m-263.75 33.75c.42 3.33.83 6.88 1.25 10.63a65.3 65.3 0 0 0 3.75 10.62v.63c0 1.66.42 2.5 1.25 2.5.83 0 1.25-.42 1.25-1.26 0-.83-.2-1.66-.63-2.5a109.3 109.3 0 0 1-1.87-6.87l-1.88-13.75v-6.25c0-1.67.42-4.17 1.25-7.5l1.25-3.13 2.5-5c.42-1.25 1.46-2.08 3.13-2.5l5.63-1.87-2.5-3.75c-.84-1.25-2.3-1.87-4.38-1.88-6.67 0-10 6.67-10 20v11.88m47.5-29.38c-4.58.84-8.33 3.34-11.25 7.5-7.5 9.59-10.63 23.96-9.38 43.13v4.38l.63 5 3.13 17.5 1.87-2.5-1.88-37.5 3.75-10c4.17-12.92 10-19.38 17.5-19.38 2.5 0 5.42 1.67 8.75 5l1.25 6.25c0 .83-.2 1.88-.62 3.13 0 .83-.2 2.08-.63 3.74 5.42-2.91 8.13-7.29 8.13-13.12 0-3.75-1.88-7.08-5.63-10-3.33-3.33-7.08-5-11.25-5-1.25 0-2.08.2-2.5.63l-1.87 1.24m123.12.63h-.63c-1.25 0-1.87.42-1.87 1.25 0 2.92 1.46 4.38 4.38 4.38 2.08 0 3.12-1.05 3.12-3.13 0-1.67-1.67-2.5-5-2.5m-36.25 2.5c.42 1.25 1.46 1.88 3.13 1.88 1.25 0 3.12-.21 5.62-.63 2.92-.42 5-.63 6.25-.63 10.83 0 17.7 3.96 20.63 11.88l3.12.63c-2.08-10-10-15-23.75-15h-1.88l-13.12 1.87m126.25.63-3.13 1.87-3.12 1.88-1.25 2.5-1.25.62-1.25 1.88-1.88.62-2.5 2.5-8.12 4.38-.63 1.87-.62 1.25c2.92-.42 4.8-.83 5.63-1.25 1.25-.42 3.33-1.87 6.25-4.38l6.87-4.37 5-6.88v-2.5m-81.88 6.88h-1.25c-.83 0-1.25.42-1.25 1.25l-.62 1.88c0 2.91 1.67 4.37 5 4.37 1.67 0 2.5-1.67 2.5-5 0-1.67-1.46-2.5-4.38-2.5m58.75 1.88c-.41.41-.62 1.24-.62 2.5 0 1.24.83 1.87 2.5 1.87s2.5-.83 2.5-2.5l-1.25-1.25c0-.42-.42-1.04-1.25-1.88h-.63l-1.25 1.25m-77.5.63c-1.66 0-2.5 1.04-2.5 3.13 0 3.33 1.46 5 4.38 5s4.37-1.26 4.38-3.76c0-2.91-1.88-4.37-5.63-4.37h-.63m69.38 3.75c-.42.42-1.04 1.46-1.88 3.13l-.62 1.24c0 1.25 1.04 1.88 3.13 1.88 2.08 0 3.12-1.04 3.12-3.13 0-2.08-1.04-3.12-3.13-3.12h-.62m-80.63 1.88-1.25 1.24-.62 1.25-.63.63v.63l.63 1.24 1.25 2.5 1.88 1.88 5.62 6.25 3.13 2.5 1.87 1.25 10.63 11.88 3.12 3.12 1.88 2.5 3.12 3.13c1.67 1.66 3.12 2.5 4.38 2.5 1.25 0 1.87-.63 1.87-1.88s-1.25-2.5-3.75-3.75c-1.67-2.92-4.58-6.25-8.75-10l-1.25-1.25-1.88-3.13-1.87-1.25-1.88-1.87a13.44 13.44 0 0 0-2.5-3.13l-7.5-8.75-7.5-7.5m23.13 3.13c-2.08 0-3.13 1.25-3.13 3.75 0 2.92 1.67 4.38 5 4.38 2.5 0 3.75-1.26 3.75-3.76 0-2.91-1.66-4.37-5-4.37h-.62m-272.5 1.88 1.25.62c-20.42 1.67-38.96 10.2-55.62 25.63l-2.5 2.5a7.29 7.29 0 0 1-1.25 1.87l-5.63 8.75c-1.25 2.5-2.08 3.96-2.5 4.38l-6.25 18.12v24.38c1.25 7.91 4.8 17.5 10.63 28.75l2.5-1.88.62-1.88c-5.83-15-8.75-26.87-8.75-35.62 0-18.75 6.87-35.42 20.63-50 14.16-14.17 30.41-20.83 48.75-20h25c-3.76-4.58-9.8-6.46-18.13-5.63h-8.75m-75.62 13.75h2.5c1.66 6.26 4.79 9.38 9.37 9.38 4.58 0 8.12-1.25 10.63-3.75l9.37-8.13 12.5-5.62 5-3.75c-3.33.83-6.25 1.67-8.75 2.5-2.5.83-4.58 1.67-6.25 2.5l-10.62 5.63-5.63 2.5h-5c-.42 0-1.88-.42-4.37-1.26l-1.25-6.25c0-1.66 1.45-3.74 4.37-6.25l-.62-.62h-1.25c-2.5 0-3.96.63-4.38 1.88l-2.5 5-1.87 1.87.62 3.13-1.87 1.24m408.75-9.37c-2.5 1.25-3.76 2.7-3.75 4.38.83.83 1.45 1.24 1.87 1.24 2.92 0 4.37-1.45 4.38-4.37 0-1.25-.63-1.87-1.88-1.88h-.63v.63m-341.25 6.88v58.12c-.83 25-11.45 38.33-31.87 40l-6.25.63-7.5 1.25c-1.25 2.08-1.88 3.54-1.87 4.37 0 2.92 3.12 3.96 9.37 3.13h4.38l15-1.88 20-1.25 8.12-.63 58.13 5.63c3.33 0 5-1.25 5-3.75s-2.71-3.96-8.13-4.38c-23.75-1.66-37.5-7.91-41.25-18.75l-3.13-10-.62-75-1.87.63-1.25-.63h-2.5c-3.76 0-8.34.84-13.75 2.5m21.87-1.87v66.88c.42 7.5 2.3 13.54 5.63 18.12.83 3.33 1.87 5 3.12 5l1.88-.63-5.63-11.87v-77.5h-5m-45 10c-10.42 7.92-15.62 15.42-15.62 22.5v3.13c.41.83.83 2.08 1.25 3.74 2.5 5.42 6.66 8.13 12.5 8.13 2.91 0 5.41-1.67 7.5-5h-6.88c-4.58-3.33-6.88-7.5-6.87-12.5 0-10.83 8.12-19.8 24.37-26.88v-1.25c-2.08.84-4.58 1.88-7.5 3.13-2.5 1.25-5.42 2.92-8.75 5m250.62-6.25c-1.67 0-3.54 1.04-5.63 3.13l-1.25 1.87 1.88.63 5.63 7.5 1.87.62.63 1.88 3.75 3.12c4.58-2.08 6.87-5.2 6.87-9.38 0-1.25-1.04-2.91-3.13-5-2.91-2.91-6.25-4.37-10-4.37h-.62m-276.88 36.25-2.5 13.75c.42 10.42 2.7 15.63 6.88 15.63 1.25 0 2.29-.63 3.12-1.88v-1.25c0-.83-1.88-4.37-5.62-10.63-.84-.83-1.05-1.45-.63-1.87v-.63l.63-6.25 5-16.25-.63-3.12-6.25 12.5m105 11.25 1.25 1.88 2.5 3.74c4.17 7.92 6.04 13.96 5.63 18.13l-1.25 18.75c0 3.33.83 5 2.5 5 3.33 0 5-3.33 5-10 0-29.58-8.96-47.08-26.88-52.5l-11.88-4.38c-.41-.41-1.04-.62-1.87-.62-1.25 0-1.88.63-1.88 1.88 0 2.08 4.17 4.37 12.5 6.87 3.34.83 8.13 4.58 14.38 11.25m92.5-16.25-3.13 8.75-3.12 6.88-3.75 8.74-.63 5.63h-6.24l-1.88 3.75v6.25l-.63 4.38 1.88 2.5 1.88 3.75 1.25 2.5 3.75 3.12c.41 1.67 1.87 2.92 4.37 3.75l1.25 1.88 6.25 5.62c1.25 3.33 1.87 5.2 1.88 5.63l-1.25 6.25v-.63h-1.88l1.25.63h-5l-4.38-2.5-1.24-.63c-.42 0-3.96.63-10.63 1.88-3.75 1.66-7.5 4.37-11.25 8.12 7.08 13.33 16.04 20 26.88 20 4.16 0 8.74-1.88 13.75-5.63.83-.83 1.66-1.25 2.5-1.25 1.66 0 2.7.21 3.12.63l-.63 1.88c6.25 7.08 13.96 10.62 23.13 10.62 2.08 0 4.58-.83 7.5-2.5l-10-9.38-1.25-3.12.63-2.5c5 1.25 8.12 1.88 9.37 1.88 7.92 0 13.13-3.55 15.63-10.63l5-13.75c2.5-7.08 7.08-10.63 13.75-10.63.41 0 1.25.21 2.5.63 1.25 0 2.91.2 5 .63-1.25-3.34-2.71-5.84-4.38-7.5l-5-2.5h-3.75l-5 .62-1.88 1.25-3.74-1.25 1.87-10.63h-3.13c-4.58 0-8.33.84-11.24 2.5l-6.25 7.5v14.38c-.84 1.25-1.88 1.88-3.13 1.88-2.92 0-4.38-2.09-4.38-6.25 0-2.09.42-5.42 1.26-10 1.25-5 1.87-8.75 1.87-11.25 0-2.92-1.25-6.67-3.75-11.25a22.12 22.12 0 0 0-4.38-8.13l-5-5.63-2.5.63-3.74 4.38h-1.25c-.84 0-2.3-2.3-4.38-6.88-1.67-5-6.25-10-13.75-15m-75 33.75 1.88 16.25 1.25-8.75-.63-20c0-6.67 3.33-10 10-10 4.17 0 6.87 2.92 8.13 8.75l-.63 3.75a17.06 17.06 0 0 0 4.38-8.13c-.42-9.16-5.42-13.75-15-13.75-8.76 0-13.13 4.59-13.13 13.75 0 2.5.2 3.96.63 4.38l1.87 7.5 1.25 6.25m-91.88-1.88c3.75 7.09 6.67 10.63 8.76 10.63h.62c1.67-.42 2.92-3.54 3.75-9.38-3.75-4.16-5.63-8.33-5.62-12.5 0-2.91.62-5.41 1.87-7.5l5-6.87v-1.25c0-1.67-.62-2.5-1.87-2.5-2.92 0-6.05 2.7-9.38 8.13-2.92 5.41-4.38 9.79-4.37 13.12v3.13c.41 1.24.83 2.91 1.25 5m250.62.62 3.75 5.63c9.16 7.91 17.5 12.29 25 13.12l24.37 3.13v-1.25c0-1.25-.42-1.88-1.25-1.88-.83 0-1.88.2-3.13.63a10.2 10.2 0 0 1-2.5.62c-8.75 0-16.66-2.3-23.74-6.88l-4.38-3.12-3.75-3.13c-5.42-5.41-8.13-10.2-8.12-14.37 0-6.67 3.74-10.42 11.25-11.25-1.25-2.92-3.55-4.37-6.88-4.38-9.58 0-14.37 5-14.37 15 0 2.92 1.25 5.63 3.75 8.13m95-11.25c0-.42.41 1.04 1.25 4.38 2.91 2.5 5.2 3.75 6.87 3.74 1.67 0 2.5-.83 2.5-2.5-3.33-3.33-5-6.04-5-8.12 0-4.58 1.67-6.46 5-5.63h1.88c-.84-1.25-1.67-1.87-2.5-1.87h-4.38c-1.25.42-2.5 1.88-3.75 4.38s-1.88 4.37-1.88 5.62m-363.12 1.88c-1.24 0-1.87 1.04-1.87 3.12 0 2.92 1.67 4.38 5 4.38 1.67 0 2.5-.84 2.5-2.5 0-3.34-1.88-5-5.62-5m71.25 21.24.62.63c.42-7.92 3.75-11.88 10-11.88 4.58 0 8.54 2.5 11.88 7.5l2.5 5.63 1.25 1.88v5l1.25-1.25-.63-3.75-1.25-8.75c-.83-10-6.67-15-17.5-15-7.5 0-11.25 3.95-11.25 11.87 0 2.08 1.04 4.8 3.13 8.13m56.25-1.25 3.75-8.13c.83-2.08 2.7-3.12 5.62-3.13h1.88l8.75 2.5-4.38-3.75c-1.25-1.25-4.38-1.87-9.38-1.87-6.66 0-10 2.7-10 8.13l.63 1.25 3.13 5m284.38 31.87 1.25 10.63-2.5 3.12-2.5 4.38-7.5 5 .62 1.25c6.67-1.67 10.83-3.75 12.5-6.25l5-8.13 1.25-6.88c0-1.66-.42-2.91-1.25-3.75l-11.88-10c-2.08-2.08-3.12-4.79-3.12-8.12 0-15.42 4.37-23.13 13.13-23.13 2.5 0 4.16.21 5 .63 1.25 3.33 1.87 5.63 1.87 6.88 0 4.16-2.7 10.2-8.13 18.12 7.09-6.25 10.63-13.33 10.63-21.25 0-5.42-2.5-8.12-7.5-8.13-5.42 0-10.2 3.34-14.38 10-4.16 6.67-6.25 12.92-6.25 18.75 0 3.34 1.05 5.63 3.13 6.88l7.5 5.63 3.13 4.37m-406.25-32.5 1.87-1.25c.42 0 .63-.2.63-.63 0-3.74-1.67-5.62-5-5.62-1.67 0-2.71.83-3.13 2.5l-.62 1.25c0 4.17 1.25 6.25 3.75 6.25h.62l.63-.63h.62l.63-1.87m-13.75-4.38-1.25 1.25c0 .42-.21.84-.63 1.25l-.62 1.25c0 2.5 1.04 3.76 3.12 3.75 2.5 0 3.75-1.25 3.75-3.75s-1.46-3.74-4.37-3.75m370.62 7.5c.41.42.62.84.62 1.25l.63.63c1.25 0 1.87-.83 1.87-2.5 0-1.25-.42-1.87-1.25-1.88-.83 0-1.25.42-1.25 1.25l-.63 1.25m-216.25-2.5-3.12 1.25h-2.5l.63 6.88-12.5-3.13c-5.42 0-8.96 4.38-10.63 13.13 2.08-.42 3.75-.63 5-.63 1.25-.41 2.3-.62 3.13-.62 3.74 0 7.91 1.88 12.5 5.63l2.5 2.5 3.75 5.62 1.25 3.13c4.16-2.92 7.5-5.21 10-6.88 2.91-1.67 5.2-2.7 6.87-3.13 6.67-.83 10.2-1.45 10.63-1.87l.62-.63c0-5.83-3.96-10.2-11.88-13.12l-3.12-2.5-13.13-5.63m218.13 6.25-.63.63-1.25 3.75c1.67-.42 2.5-1.04 2.5-1.88 0-1.25-.2-2.08-.63-2.5m-61.25 17.5c-8.75 0-14.58.84-17.5 2.5l-13.12 5.63-8.75.63-4.37 4.37-6.88 4.38c3.33 2.08 5.83 3.12 7.5 3.12 2.5 0 5.2-.83 8.13-2.5v3.13c0 6.66 2.29 10.62 6.87 11.87l-.62-3.13c0-.83.83-2.5 2.5-5 1.66-2.5 2.5-4.58 2.5-6.25 0-1.66-1.05-2.91-3.13-3.75.42-5 2.7-7.5 6.88-7.5l5.62-2.5a22.24 22.24 0 0 1 6.25-1.87c2.92-.42 6.25-.83 10-1.25l-1.87-1.88m8.75 4.38c-3.34.42-5.84 1.46-7.5 3.13l-6.25 5.62-5 6.88c-2.09 7.08-3.13 11.45-3.13 13.12 0 2.5 1.67 3.75 5 3.75 2.92 0 5-.2 6.25-.63l3.13 5a20.46 20.46 0 0 0 15 6.25c12.91 0 19.37-6.45 19.37-19.37 0-7.08-2.7-10.63-8.13-10.63-2.08 0-4.16 1.67-6.25 5l5-1.25c3.75 0 5.63 2.3 5.63 6.88 0 8.33-4.17 12.5-12.5 12.5-9.58 0-14.38-5.2-14.38-15.63 0-13.33 8.96-20.83 26.88-22.5v-2.5h-4.38v.63h-7.5c-3.33 1.25-7.08 2.5-11.25 3.75m-150.61.63-6.88 3.75c-4.58 2.08-9.58 7.29-15 15.62l-8.75-3.13-9.38 4.38-5 .63c3.34 3.33 6.25 5 8.76 5h9.37v6.87l1.25 3.75a19.58 19.58 0 0 0 5 3.75l1.88-6.25 1.25-3.75v-4.38l-2.5-2.5v-1.87a9.8 9.8 0 0 1 1.87-2.5c.83-.83 1.67-2.08 2.5-3.75l5.63-6.25c5.41-6.25 13.75-9.38 25-9.38.83 0 2.91.63 6.25 1.88v-.63c0-1.66-1.88-2.91-5.63-3.75H365.6l-7.5 2.5m239.38-2.5c-5 7.09-8.76 13.34-11.25 18.75a16.24 16.24 0 0 0-.63 5v3.75c0 9.59 6.04 15 18.13 16.25-8.34-7.08-12.5-15.2-12.5-24.37 0-5.42 2.08-10.83 6.25-16.25v-3.13m-290 4.38c-1.67 2.92-5.21 4.38-10.63 4.38l-8.13-.63c-5-1.25-11.25-1.88-18.75-1.88-.83-.41-2.91-.62-6.25-.62h-4.37c-1.67 0-3.54-.2-5.63-.63h-31.87l-25.62 2.5c-2.92.42-6.67-.62-11.25-3.12 1.66 5.42 6.87 8.13 15.62 8.13 1.25 0 3.75-.21 7.5-.63 4.17-.42 9.8-1.04 16.88-1.88 7.91-1.25 13.54-1.66 16.87-1.25l56.88 5.63c7.5.83 11.25-1.46 11.25-6.88l-.63-1.87-1.88-1.25m-129.38 3.75 7.5 20c-.41 5.42-3.33 8.75-8.74 10 .41 2.5 2.29 3.75 5.62 3.75 5.83 0 8.75-3.33 8.75-10 0-8.75-4.38-16.67-13.12-23.75m68.12 12.5c-4.58 3.33-8.96 5-13.12 5h-5c-2.5-.42-5.42-.83-8.75-1.25 5.41 2.5 10.62 3.75 15.62 3.75 12.5 0 18.75-2.7 18.75-8.13 0-.41-.2-.83-.62-1.25l-1.25-1.25-4.38-1.87-1.25 5m8.75 15c1.67-.42 3.96-.83 6.88-1.25 2.91-.83 6.45-2.08 10.62-3.75l6.25-5a20.05 20.05 0 0 0 7.5-8.13l-5.63-.62-10 7.5-6.24 3.13-6.88 3.12-17.5 1.88h-2.5c-1.67 0-3.13-.21-4.37-.63l-13.75-2.5c-.42-.42-1.25-.63-2.5-.63-.84 0-1.46-.2-1.88-.62l-6.87-4.38a76.75 76.75 0 0 0-5-3.75l-2.5-2.5-6.88-.62 10.63 10c1.25 1.25 4.58 3.13 10 5.63l5 1.87a51.71 51.71 0 0 0 19.37 3.75c4.58 0 10-.83 16.25-2.5m206.25-13.75h-3.13l-1.87.63v.62c0 2.92.83 4.38 2.5 4.38 2.08 0 3.12-.63 3.13-1.88v-1.25l-.63-2.5m-173.12 4.38c-2.08 0-3.13 1.25-3.13 3.75s1.25 3.75 3.75 3.75c2.09 0 3.13-1.25 3.13-3.75l-.63-.63a4.01 4.01 0 0 0-3.12-3.13m11.25.63c-1.25 0-1.88.83-1.88 2.5 0 2.08 1.05 3.13 3.13 3.13s3.12-.84 3.13-2.5c0-2.5-1.25-3.75-3.75-3.75l-.63.62m231.88 16.88v2.5l6.25-2.5 13.75-6.88a10.12 10.12 0 0 1 6.25-1.88c1.25 0 2.3.42 3.13 1.25l3.12 3.13-1.25 5.63h3.13c2.08 0 3.12-2.09 3.12-6.25 0-5.42-3.54-8.13-10.63-8.13-4.16 0-8.12 1.25-11.87 3.75l-10 7.5c-.83.83-2.5 1.46-5 1.88m-205-8.75v-.63l-1.25-.63-6.88 5-2.5.63h-.62l-15.63-2.5c-.83 0-1.25.63-1.25 1.88 0 2.5 3.75 3.75 11.25 3.75 6.67 0 12.3-2.5 16.88-7.5m-37.5 2.5c-1.67.41-2.5 1.04-2.5 1.87 0 2.5 1.25 3.75 3.75 3.75s3.75-.83 3.75-2.5l-.63-.63v-.62l-4.37-1.88m-27.5 2.5 3.13 4.38 1.87.63c.42-.42.63-.84.63-1.25 0-3.34-1.25-5-3.75-5v.62l-1.88.63m39.38-431.25 1.25.62-4.38 5.62-4.38-3.12v-1.25l7.5-1.88m75.63 6.25 4.38-1.87-1.88 1.25-1.25.62h-.63c-1.66 0-2.5-1.04-2.5-3.12l1.88 3.12m28.75-3.75 4.38 5v-1.87l-4.38-3.13m28.75 13.13 3.13 4.37v-1.87h-3.13l-.63-1.88.63-.62m26.25 42.5 1.25 1.25h-2.5l1.25-1.25m6.25 4.37h-1.25c-.83 0-1.67-.41-2.5-1.25l.63-.62 3.12 1.87m21.88 1.25h2.5c.41 2.09.62 4.38.62 6.88.42 2.08.63 4.38.63 6.87 0 .42-.84.63-2.5.63l-1.25-14.38m-5 2.5 3.12 3.13.63 1.87-1.88.63-1.25-.63-.63-5m-11.87 1.25.63.63 3.12 5 3.13 7.5 1.87 2.5 5.63 12.5 3.75 7.5 2.5 3.75 3.75 6.25 1.25 1.88 1.87 2.5 4.38 6.87 5.62 5v3.75l7.5 6.88-1.25-1.88h-.63a9.14 9.14 0 0 1-5.62-1.88l-6.25-3.75-3.75-1.87h-.63l-14.37-5c-4.17-1.25-7.7-1.46-10.63-.63-.83.42-2.5.63-5 .63-.41 0-.62-.42-.62-1.25 0-1.25 1.25-1.87 3.75-1.88H486.86v-.62c0-2.92 1.04-4.8 3.12-5.63l.63 3.13-1.25 3.13v.62c0 1.25.62 2.08 1.87 2.5l8.13 2.5 3.12 1.88 1.25-2.5-9.38-11.88-3.75-5-6.87-11.25-1.88-3.75c0-.83-.2-1.67-.62-2.5a83.95 83.95 0 0 0-5-11.25l-3.13-5.63-4.37-8.12 2.5-.63m-16.88 21.25h3.13c1.25 2.5 3.54 3.76 6.88 3.75l.62 2.5-5-1.25-5.63-5m41.25 9.38 1.25.63-1.25 1.24-2.5 1.88 1.25-4.38 1.25.63m2.5 7.5.63-.63c0 .42-.2.63-.63.63l-.62.63c-1.25 0-1.88-.63-1.88-1.88 0-.83.42-1.25 1.25-1.25l1.25 2.5m-18.75 3.75 2.5-1.88-3.12 6.88-1.88-3.13 2.5-1.87m21.25 1.25.63.63-1.88-.63h1.25m85 1.88.63-.63 3.75-.63 3.75 1.25-1.25.63-6.88-.63m-102.5 6.25-1.87-1.87c.42-.83.83-1.46 1.25-1.88l1.25-2.5h.63c.83.84 1.25 1.46 1.25 1.88 0 1.25-.84 2.7-2.5 4.38m-111.25 0v-2.5c-.84 3.33-2.3 5.2-4.38 5.62l2.5-5h1.25l.63 1.88m6.25 4.37.62-3.75-3.13 3.75-4.37 2.5c-.83 2.5-3.33 5.2-7.5 8.13h1.25l-1.25-1.26 3.13-3.75 2.5-3.75 8.12-5 .63 3.13m81.25 5h-1.25.62l.63-1.88v1.88m133.12 16.25 9.37-13.13c0 2.09-1.25 3.96-3.75 5.63-2.08 4.58-3.96 7.08-5.63 7.5M469.98 410.4l1.25 2.5-3.12 5.63 1.88-8.13m-191.25 49.38-3.75 3.12 3.75-3.13m132.5 56.25 2.5-.62 3.12 14.38-.63-.63a30.85 30.85 0 0 0-1.87-3.13v-2.5c-.83-1.25-1.46-3.33-1.88-6.25l-1.25-1.25m-1.87 4.38 1.88.63v3.12h-1.25l-.63-3.75m-41.25 11.25 4.38 5 5.62 4.38v2.5l-.63-1.88-1.87.63-2.5-2.5-1.25-1.88-1.25-1.25-2.5-5m61.88 2.5 3.12 1.88-3.75 3.12-1.25-.63 1.88-4.37m-76.88 1.88 8.13 5v.62h-1.25l1.25-1.25-1.25.63-6.88-5m46.88 3.75 4.37 13.12 1.88 16.88 1.87 7.5-2.5.62 1.88-1.88-.63 1.25c-1.67-2.08-3.13-8.95-4.38-20.62-.83-2.92-2.08-6.67-3.75-11.25l-.62-3.75h1.88v-1.88m25 17.5v1.25c-.84.84-2.09 1.67-3.75 2.5h-1.25l2.5-1.25 2.5-2.5m-35.63 6.25c0 2.92-1.67 5.42-5 7.5l5.63-3.12-8.75 3.75 7.5-8.13.62 2.5v-2.5m2.5 6.25-1.88 5.63-.62-.63h-1.25l3.75-5m-26.25 5.63 6.88 2.5c-.84.42-2.3.63-4.38.63-.83 0-1.67-1.05-2.5-3.13m-7.5 1.25 13.75 6.88c-2.5.83-3.54 1.25-3.13 1.25-2.5 0-5.83-2.09-10-6.25l-.62-1.88" transform="translate(-146.86 -119.79)"/>
</svg>
