<svg xmlns="http://www.w3.org/2000/svg" viewBox="0 0 500 500">
    <path d="M146.86 619.79v-500h500v500h-500m7.5-7.5h485v-485h-485v485m7.5-7.5V135.41h469.38v469.38H161.86m36.25-463.12c3.75 0 6.25 1.46 7.5 4.37 1.25 2.92 1.87 5.21 1.88 6.88 0 2.08-1.25 5.2-3.75 9.37 5.83-5 8.74-9.37 8.75-13.12 0-7.5-3.13-11.25-9.38-11.25-2.92 0-4.58 1.25-5 3.75m5.63 26.25-4.38 7.5h1.25c.83 0 4.8-2.3 11.88-6.88 22.91-16.66 43.95-25 63.12-25 18.75 0 36.46 6.46 53.13 19.38 1.66-.42 3.12-.83 4.37-1.25 1.25-.42 2.3-.83 3.13-1.25l-7.5-6.25c-18.34-10.83-37.3-16.25-56.88-16.25-22.5 0-45.2 10-68.13 30m369.38-20c0 1.67.21 2.7.63 3.12l.63 1.25a27.21 27.21 0 0 0 7.5 8.13l1.25-2.5c-3.34-4.58-5-7.7-5-9.38 0-2.91 1.45-4.37 4.37-4.37 1.25 0 3.54 1.04 6.88 3.12-.84-4.58-3.13-7.5-6.88-8.75l-2.5-.62c-2.5 0-4.38 1.25-5.63 3.75a20.54 20.54 0 0 0-1.25 6.25m22.5 8.12c-3.33-2.08-6.25-3.12-8.75-3.12h-1.25l.63 15 3.13 4.37 5 5.63 4.37 3.12 4.38 5.63v1.87c.41 4.17-1.05 6.26-4.38 6.25-1.67 0-5.2-5.83-10.63-17.5-3.75-7.5-9.58-11.25-17.5-11.25-3.33 0-5.62.21-6.87.63l-7.5.62c1.25 2.92 3.54 5.42 6.88 7.5-6.26.84-10.21 4.17-11.88 10-.42.42-.63 1.67-.63 3.75 0 3.76 1.25 6.26 3.75 7.5l5 3.13.63-8.13c.42-3.74 3.33-5.62 8.75-5.62 3.75 0 7.5 2.08 11.25 6.25l2.5 3.75c6.67 10 12.7 15 18.13 15 4.16 0 7.91-1.46 11.25-4.38 3.33-2.91 5-6.04 5-9.37 0-10.42-3.96-19.38-11.88-26.88-2.5-6.24-3.75-10.2-3.75-11.87v-3.13c2.5-6.66 5.62-10 9.38-10 5 0 7.5 1.67 7.5 5 0 4.59-3.13 8.96-9.38 13.13-.42.42-.63 1.04-.63 1.87v1.88l.63 1.25 15 4.37-10-10c6.25-1.66 9.37-5.62 9.38-11.87 0-7.92-5-11.88-15-11.88-3.76 0-6.26.84-7.5 2.5-1.25 1.67-2.92 6.67-5 15m-144.38 8.75c-.84-2.5-2.71-3.74-5.63-3.75-18.75 0-28.13-4.16-28.13-12.5 0-2.5 1.67-3.74 5-3.75h3.75c-3.75-4.58-7.29-6.87-10.62-6.87-5.83 0-8.75 2.92-8.75 8.75 0 9.17 12.7 15 38.13 17.5.83.42 2.91.62 6.25.62m-91.25-23.75c4.58 2.09 6.87 4.38 6.87 6.88v1.87a18.58 18.58 0 0 1-9.38 2.5h-4.37l-1.88-1.25-8.75-2.5-21.87-8.12-7.5-1.25 5.63 3.75 10.62 4.37 8.13 3.75 6.25 1.88c4.16 2.92 9.37 4.38 15.62 4.37 12.5 0 18.75-2.7 18.75-8.12l-1.25-6.25c-2.5-2.92-5.2-4.37-8.13-4.38l-1.87.63-6.88 1.87m97.5 15.63c-1.25 1.25-1.87 2.3-1.87 3.12v1.25c4.58 1.67 8.33 2.5 11.25 2.5s8.54-1.25 16.88-3.75c1.25-.41 3.33-1.45 6.25-3.12 2.91-2.08 5.41-3.12 7.5-3.13.83 0 1.25.63 1.25 1.88 0 .83-1.05 1.25-3.13 1.25l-1.88-.63.63 1.88-5 4.37c-2.5 3.76-3.75 6.67-3.75 8.75 0 6.26 3.75 9.38 11.25 9.38h1.25c-1.67-2.92-2.5-5.42-2.5-7.5 0-5.42 3.96-10 11.88-13.75 8.33-4.17 18.12-6.25 29.37-6.25 10.42 0 21.46 3.33 33.13 10 5 0 9.16 1.25 12.5 3.75l-5-6.88c-17.09-12.5-36.05-18.75-56.88-18.75-11.67 0-21.25 1.46-28.75 4.38-14.17 3.33-23.96 5-29.38 5-7.91 0-11.87-2.08-11.87-6.25v-.63l.63-1.25 1.87-1.87-6.25-.63c-3.33-.83-5 .84-5 5 0 7.5 5.2 11.46 15.63 11.88m-291.88-4.38c0 .84.62 2.71 1.87 5.63l1.88 3.12.62 2.5.63 3.75c0 1.67-1.25 3.76-3.75 6.25.83.42 2.29.63 4.37.63 3.75 0 5.62-2.5 5.63-7.5 0-1.67-.84-3.96-2.5-6.88-3.34-3.33-5-5.83-5-7.5 0-2.91 1.04-4.37 3.12-4.37 1.67 0 4.17 1.25 7.5 3.75l2.5 3.12.63 1.25 1.25 3.75v9.38l-.63 1.87a88.66 88.66 0 0 0-1.87 6.25c-1.67 5-3.13 9.17-4.38 12.5-.83 2.92-1.46 5.21-1.87 6.88l-1.88 8.75-2.5 8.75-1.25 8.12a76.22 76.22 0 0 1 5.63-6.25c2.08-2.5 4.58-5.2 7.5-8.12l6.87-5.63 2.5-2.5h3.13c0 .84.2 1.46.62 1.88 0 .83-1.04 1.67-3.12 2.5-12.09 7.92-20.42 17.92-25 30a13.4 13.4 0 0 0 2.5-3.13l1.87-1.87c5.83-7.08 11.67-11.67 17.5-13.75l.63 1.87c-5.84 3.76-10 7.09-12.5 10-.84.84-1.67 1.88-2.5 3.13-.84.83-1.67 1.88-2.5 3.12a33.23 33.23 0 0 0-6.88 18.75 60 60 0 0 0 1.25-4.37 38.3 38.3 0 0 1 3.75-6.88l3.13-3.75 4.37-5 11.25-8.12 11.88-5c2.91-1.67 4.79-4.8 5.62-9.38-3.33-.41-5.2-1.66-5.62-3.75l6.25-2.5 6.25-3.75 3.12-6.25c1.67-1.66 2.5-3.33 2.5-5 0-.83-.2-1.45-.62-1.87-5-2.08-7.92-3.12-8.75-3.13-.84 0-2.3.21-4.38.63-1.67 0-3.54.2-5.62.62l-.63-5.62c-4.58.83-8.33 2.7-11.25 5.62-.83 1.25-1.67 1.88-2.5 1.88-.83-.83-1.25-1.67-1.25-2.5 0-1.25 1.87-3.12 5.63-5.63 7.08-4.58 10.62-10.2 10.62-16.87 0-2.08-.83-2.92-2.5-2.5h-1.25l-5 1.87c-1.67-10.41-5.2-16.45-10.62-18.12a15.56 15.56 0 0 0-6.88-1.88c-3.75 0-6.25 1.05-7.5 3.13s-1.88 4.8-1.87 8.12m98.12-3.75c5 2.09 8.33 3.96 10 5.63 3.33 3.33 5.2 5 5.63 5 1.66 0 2.5-.83 2.5-2.5 0-1.25-1.46-3.12-4.38-5.63-.42-.41-.83-.62-1.25-.62l-.63-.63-11.87-1.87v.62m25 3.13-1.25 1.25c-.42 0-1.04.42-1.88 1.25v1.25c0 2.92 1.46 4.38 4.38 4.37 2.92 0 4.37-1.25 4.38-3.75 0-2.91-1.88-4.37-5.63-4.37m-71.88 18.12c14.59-8.33 24.59-12.5 30-12.5 2.09 0 5.63 1.25 10.63 3.75l-1.25-.62 1.88 5-2.5 5c7.91-.42 11.87-2.92 11.87-7.5 0-6.67-5.42-10-16.25-10-2.92 0-5.83.83-8.75 2.5l-8.75 3.12c-2.08.84-5.63 3.13-10.62 6.88a9.82 9.82 0 0 0-2.5 1.87 14.5 14.5 0 0 1-3.75 2.5m92.5-10c-1.25 3.34-3.34 5.63-6.25 6.88 2.91 1.67 5.2 2.5 6.87 2.5 1.25 0 2.92-2.3 5-6.88-.83-2.5-2.08-5-3.75-7.5l-1.25-.62-3.13-1.25 2.5 6.87m219.38 2.5-2.5 2.5c-.41 1.25-.62 3.34-.62 6.25 0 7.09 3.12 10.63 9.38 10.63 2.08 0 4.79-.83 8.12-2.5-5.83-3.33-8.75-7.08-8.75-11.25 0-5.42 4.37-8.12 13.13-8.13 2.91 0 7.29.63 13.12 1.88-5.83-3.75-11.04-5.62-15.63-5.63-6.66 0-12.08 2.09-16.25 6.25m-258.75 37.5 4.38 1.25c1.67-2.5 3.75-3.95 6.25-4.37 1.67 4.58 4.17 7.08 7.5 7.5 24.17-20.42 54.38-30.63 90.63-30.63 29.58 0 55.2 5.84 76.87 17.5l9.38 4.38a14.6 14.6 0 0 1 3.75 2.5c1.25.83 2.29 1.46 3.12 1.87 4.17 4.17 6.87 6.05 8.13 5.63l8.12-3.13c2.08-.41 4.17-.62 6.25-.62l6.25-1.25c-1.67-5.42-6.25-10.2-13.75-14.38l-9.38-5c-10-5.41-24.58-10.2-43.75-14.37-20.41-4.58-36.04-6.87-46.87-6.88-22.92 0-45.2 3.76-66.88 11.25-21.66 7.5-38.33 17.09-50 28.75m5-38.12c-.83.42-1.87 1.25-3.12 2.5v.62c0 2.92 1.46 4.38 4.38 4.38 2.91 0 4.37-1.25 4.37-3.75s-1.88-3.75-5.63-3.75m191.25 8.12c1.25 2.92 2.92 4.38 5 4.38.42 0 1.25-.83 2.5-2.5 1.67-2.08 2.92-3.33 3.75-3.75 2.92-1.67 4.38-2.7 4.38-3.13 0-.83-.2-1.45-.63-1.87l-5 1.25-5 1.25-5 4.37m-175.62.63a8.31 8.31 0 0 0 1.88-5c0-1.25-1.04-1.87-3.13-1.88-3.33 0-5 1.05-5 3.13 0 2.5 1.25 3.75 3.75 3.75h2.5m217.5 8.75.63 1.87 1.25 4.38-10-1.25 3.13 11.87 3.75 5.63c3.33 3.33 7.29 5.2 11.87 5.62v1.88c0 .83-.63 1.25-1.88 1.25-2.08 0-5.62-.83-10.62-2.5-5-1.67-8.96-2.5-11.88-2.5-8.33 0-12.5 1.46-12.5 4.37 0 1.25 1.88 2.71 5.63 4.38l-.63 1.25c-5.83.83-10.2 3.75-13.12 8.75l-4.38 6.25-.62-.63-1.25 3.13c0-.83 2.3 1.67 6.88 7.5 5 1.25 8.54 1.88 10.62 1.87 2.92 0 8.33-1.66 16.25-5v1.25l-3.13 8.75c2.92.42 5.42.84 7.5 1.25h5l2.5-.62 10-8.13 1.88.63.63 7.5c.41 3.75 3.33 5.63 8.75 5.62l4.37-.62-2.5-11.88c0-4.58 2.92-8.54 8.75-11.87.42-.42 1.46-.63 3.13-.63 2.08 0 5.41 1.25 10 3.75l1.87 2.5c.83 5 2.5 8.55 5 10.63.42-.83.63-2.3.63-4.38 0-1.25-.63-2.91-1.88-5l-2.5-5.62-4.38-3.75v-.63c0-1.25.63-1.87 1.88-1.87h.63l4.37 5 .63 1.25.62 1.87.63 1.88c1.25 3.75 1.87 6.67 1.87 8.75 0 3.33-.2 5.63-.63 6.87l1.88 1.88 2.5-1.88.63-6.25v-3.75c0-4.16-1.46-8.33-4.38-12.5-5-8.74-11.67-13.12-20-13.12-2.08 0-6.25.83-12.5 2.5 0-3.33 2.3-5 6.88-5h5.62c4.17-.42 10 2.3 17.5 8.12l1.25 1.88c5.42 5.42 8.12 13.12 8.13 23.12v3.13l-2.5 5v3.75c3.74-5 5.62-10.2 5.62-15.63 0-7.08-2.3-13.95-6.88-20.62a21.52 21.52 0 0 0-7.5-7.5 31.6 31.6 0 0 0-7.5-3.75 20.59 20.59 0 0 0-6.25-1.25c-1.66-.42-2.5-.83-2.5-1.25l.63-.63c0-.83.83-1.25 2.5-1.25s3.54.63 5.63 1.88l6.25 3.12 4.37 1.88c-.83-1.67-1.67-2.7-2.5-3.13l-1.88-1.87-10.62-8.13-16.88-6.25c-10.83-3.74-16.25-10-16.25-18.75 0-.83.63-3.54 1.88-8.12-.42-.42-1.46-.63-3.13-.63-7.08 0-10.2 3.13-9.37 9.38l.63 5m-290-5.63c2.08-.41 3.74-.62 5-.62 1.25-.42 2.29-.63 3.12-.63 3.75 0 5.62 1.46 5.63 4.38l-.63 3.12c3.33-2.08 5-3.74 5-5 0-4.16-2.5-6.24-7.5-6.25h-1.88l-.62.63-8.13 4.37m-7.5 72.5.63 3.75 3.13 8.75c2.5-2.5 3.95-4.79 4.37-6.87l-3.13-12.5c-.41-.83-.62-2.7-.62-5.63a46.7 46.7 0 0 1 4.38-20 63.05 63.05 0 0 1 11.25-17.5c5-5 10.62-8.95 16.87-11.87a46.73 46.73 0 0 1 20-4.38c3.33 0 8.54 1.25 15.63 3.75 4.16-.83 6.45-2.29 6.87-4.37l-.63-.63c0-.41-.2-.83-.62-1.25l-5.63-1.25-5.62-2.5c-3.33-.83-5.63-1.25-6.88-1.25a57.85 57.85 0 0 0-23.75 5 59.16 59.16 0 0 0-19.37 13.13 63.61 63.61 0 0 0-13.13 19.37 52.2 52.2 0 0 0-5 22.5v6.88c.42 2.5.84 4.8 1.25 6.87m79.38-40 2.5 3.13c24.17-19.17 54.58-28.75 91.25-28.75 15 0 29.17 1.67 42.5 5l23.13 5.62c-13.34-9.58-37.3-14.37-71.88-14.37-35 0-64.17 9.8-87.5 29.37m88.75-17.5h4.38c6.66-.83 9.58 1.05 8.75 5.63v3.75l-7.5 3.75-10 .62c-1.25 0-1.88.84-1.88 2.5 0 6.26 3.96 9.38 11.88 9.38 5.41 0 8.12-1.04 8.12-3.13 0-1.25-.42-1.87-1.25-1.87h-8.75c-2.08 0-3.13-.83-3.13-2.5s3.13-2.5 9.38-2.5c6.25 0 9.37-2.92 9.38-8.75 0-4.17-2.09-7.5-6.25-10-3.34-.83-5.21-1.25-5.63-1.25-.83 0-1.46.2-1.88.62l-5.62 3.75m-18.75 11.25v6.25c.42 1.67.83 3.55 1.25 5.63l2.5.62 1.25 5.63-.63-6.25v-6.88c-1.25-2.91-2.5-8.12-3.75-15.62 0-1.25-.41-1.87-1.25-1.88-1.25 0-1.87.63-1.87 1.88 0 2.5.83 6.04 2.5 10.62m-10-5.62 1.88 20 6.87-1.88c0-7.08-1.46-15.2-4.38-24.37h-1.87c-2.5 0-3.96.83-4.38 2.5 0 .83.63 2.08 1.88 3.75m-6.88-3.75c.42 1.67.63 3.13.63 4.37.42 1.25.63 2.5.63 3.75 0 6.26-2.3 9.38-6.88 9.38-1.67 0-3.75-1.25-6.25-3.75l-1.25 5c0 4.17 2.5 6.25 7.5 6.25 7.08 0 10.63-5.2 10.63-15.63 0-6.24-1.25-9.37-3.75-9.37h-1.25m86.87 5.62c.83 5.84 2.7 8.76 5.63 8.75 2.91 0 5.62-2.29 8.12-6.87l.63-.63v-.62c-.84-1.25-1.46-1.87-1.88-1.88l-6.25 3.13-6.25-1.88m-17.5-1.25c-2.92.42-4.38 1.67-4.38 3.75 0 3.76 1.88 5.63 5.63 5.63 3.33 0 5-1.67 5-5 0-2.92-1.88-4.37-5.63-4.38h-.62m35 1.88c-3.33 10.83-5 18.96-5 24.37 0 15 3.96 27.71 11.88 38.13 3.33-3.33 5-5.42 5-6.25 0-1.67-2.09-6.46-6.25-14.38a50.12 50.12 0 0 1-3.13-18.12c0-2.5.63-6.04 1.88-10.63 1.25-4.58 1.87-7.91 1.87-10 0-1.66-2.08-2.7-6.25-3.12m9.38 3.12c-2.09 6.26-3.13 10.21-3.13 11.88 0 8.33 3.12 12.5 9.38 12.5 6.24 0 9.58-1.46 10-4.38l1.25-3.75-7.5 1.88c-1.67 0-3.55-1.25-5.63-3.75-1.67-2.92-2.5-5.42-2.5-7.5v-5c0-.42-.63-1.04-1.88-1.88M400 202.3c-2.5.84-3.75 2.3-3.75 4.38 0 2.92 1.46 4.38 4.38 4.37 3.33 0 5-1.45 5-4.37s-1.67-4.37-5-4.38h-.63m-87.5.63-1.25 5-5.63 5.62-3.12 8.13h-3.13l-3.75-3.75c-1.66 0-2.5 3.54-2.5 10.62v1.25c.42 1.67.84 4.59 1.25 8.75v4.38c.84 4.58-1.04 6.88-5.62 6.87-3.33 0-5-2.08-5-6.25v-1.87l6.88-16.25v-2.5c0-3.75-1.05-7.92-3.13-12.5s-4.8-6.87-8.13-6.88c-1.25 0-1.87 1.05-1.87 3.13v1.25h-2.5l-5.63-2.5c-.41-.42-1.25-.63-2.5-.63-2.5 0-5.83 1.88-10 5.63 6.67 1.25 11.46 3.33 14.38 6.25l3.13 6.25-1.88 20c0 2.92.63 5.2 1.88 6.87 2.5 4.17 7.7 8.13 15.62 11.88 7.92 3.33 15.42 5 22.5 5 10.42 0 20-4.58 28.75-13.75l11.25-11.88c6.25-6.66 15.2-10 26.88-10 .83 0 1.87.21 3.12.63 1.67 0 3.54.2 5.63.62-3.34-8.33-7.71-12.5-13.13-12.5-1.67 0-3.96.63-6.88 1.88-2.5.83-4.37 1.25-5.62 1.25-.42-.42-.63-2.5-.63-6.25-13.33 2.08-21.04 5.42-23.12 10l-5.63 12.5-1.87 3.75-3.13-.63c.42-1.25.63-3.54.63-6.87 0-2.92-.83-6.04-2.5-9.38l2.5-.62.63 2.5c.83 1.25 1.66 3.33 2.5 6.25l1.25-1.88-.63-10v-1.25c0-2.91-2.3-4.37-6.88-4.37H325c-4.17.83-6.46 1.46-6.88 1.87.42.42.63.84.63 1.25l1.88 1.88c4.16 5.42 5.83 10.62 5 15.62v5.63c0 2.92-1.46 4.38-4.38 4.37h2.5l-1.88-1.25c-.41 0-.2-1.66.63-5v-1.25c0-2.5-.2-4.37-.63-5.62l-1.25-5.63-5-6.87a6.81 6.81 0 0 0-1.25-2.5v-1.25c0-1.67 3.96-2.7 11.88-3.13-2.5-6.24-4.8-9.79-6.88-10.62l-5-1.25h-1.87m112.5.62c-1.67 0-2.92 1.05-3.75 3.13v1.25c0 3.75 1.67 5.63 5 5.62 3.33 0 5-1.45 5-4.37 0-3.75-2.08-5.62-6.25-5.63m191.88 1.25-2.5 3.13-5 2.5-8.13 2.5v.62c0 3.76 2.3 5.63 6.88 5.63 7.5 0 11.25-2.92 11.25-8.75 0-2.08-.83-3.96-2.5-5.63m-398.75 23.13v4.37a10.08 10.08 0 0 0 1.25-4.37c.42-1.25.83-2.3 1.25-3.13 1.25-7.08 5.62-10.62 13.13-10.62.83 0 2.29 1.04 4.37 3.12.83-3.33 1.25-5.2 1.25-5.62 0-3.33-2.08-5-6.25-5-8.33 0-13.33 7.08-15 21.25m193.75-20c-3.33 0-5 1.46-5 4.37 0 3.34 1.87 5 5.63 5 3.33 0 5-1.45 5-4.37 0-3.33-1.88-5-5.63-5m166.88 25c0 3.75.2 6.25.63 7.5v4.37c0 4.17-1.88 8.96-5.63 14.38l.63 1.87c1.66-2.08 3.12-5 4.37-8.75 1.25-4.16 2.7-8.95 4.38-14.37.83-7.08 2.5-12.5 5-16.25l1.87-.63c4.58 0 7.3 2.3 8.13 6.88.41-2.08.62-3.75.62-5 .42-1.25.63-2.08.63-2.5 0-4.58-3.13-6.87-9.38-6.88-7.5 0-11.25 5.63-11.25 16.88v2.5M198.13 413.54c.83 1.25 3.12 2.3 6.88 3.12l5.62 1.25h11.25c2.5-.41 5.42-.83 8.75-1.25 2.92 0 4.8-.2 5.63-.62l-1.25-6.25-1.88-11.25c-2.92-11.25-4.38-27.7-4.38-49.38 0-20.83 3.13-42.91 9.38-66.25 7.08-23.33 15-39.79 23.75-49.37 5.42-5.42 8.12-9.37 8.13-11.88 0-4.58-6.05-6.87-18.13-6.87-39.17 45.42-58.75 95.42-58.75 150 0 5.83.42 12.92 1.25 21.25.83 7.92 2.08 17.08 3.75 27.5m203.12-198.12h-.63c-3.75 0-5.62 1.25-5.62 3.75 0 4.17 1.87 6.25 5.63 6.25 3.33 0 5-1.67 5-5 0-2.92-1.46-4.58-4.38-5M430 276.04l-3.75 12.5c8.33-5 12.5-18.12 12.5-39.37 0-8.33-1.88-15.63-5.63-21.88-3.75-6.66-7.91-10-12.5-10-1.66 0-2.5.84-2.5 2.5v1.25l9.38 11.25c4.17 5.42 6.25 12.92 6.25 22.5 0 3.76-.83 8.76-2.5 15-.42.42-.63 1.46-.63 3.13 0 1.25-.2 2.3-.62 3.12m181.25 39.38a125.16 125.16 0 0 0-5.63 15c0 1.25 1.05 3.54 3.13 6.87 11.25-17.5 16.88-43.95 16.88-79.37 0-25-3.13-37.5-9.38-37.5-3.75 0-5.63 1.67-5.63 5v1.25l8.13 28.75c1.25 3.33 1.87 7.5 1.88 12.5 0 11.25-3.13 27.08-9.38 47.5m-200.62-91.88H410c-2.5 0-3.75 1.46-3.75 4.38 0 5.42 2.09 8.13 6.25 8.12 3.75 0 5.63-2.08 5.63-6.25 0-4.16-2.5-6.24-7.5-6.25m-141.25 3.75c-24.58 32.09-36.88 78.13-36.88 138.12 0 11.25 1.25 23.34 3.75 36.25l2.5 11.25c.84 2.09 1.46 3.13 1.88 3.13l2.5-.63a712.4 712.4 0 0 1-3.75-37.5c-.42-11.66-.63-22.5-.63-32.5 0-47.91 9.38-83.54 28.13-106.88 2.08-3.33 3.12-5.41 3.13-6.25 0-2.5-.21-4.16-.63-5m-57.5 37.5-1.25-6.87-1.88-6.25-1.25-8.13-2.5-6.25c-2.5-6.66-5.62-10-9.37-10-4.17 0-6.25 1.25-6.25 3.75v6.88l5.63-3.75h1.25c2.91 0 4.58.83 5 2.5l3.12 5 5 16.25 2.5 6.87m6.25-31.25 1.25 10 .63 2.5c.83-.83 1.25-1.45 1.25-1.87 0-.83-.42-2.5-1.25-5a41.26 41.26 0 0 0-1.88-5.63m327.5 20c-3.33 3.34-6.46 5-9.38 5-5.83 0-11.04-3.54-15.62-10.62-1.25 2.08-1.88 3.33-1.88 3.75a7.87 7.87 0 0 1 1.88 3.12c4.17 4.17 7.5 9.59 10 16.25l5 10.63c2.08 4.58 3.12 6.88 3.13 6.87 2.08 5 3.95 12.71 5.62 23.13l2.5 12.5c2.92 12.08 4.37 28.96 4.38 50.62l5.62-3.12c2.92-1.67 5.2-2.92 6.88-3.75a14.54 14.54 0 0 0 3.75-2.5l15.62-11.88c2.92-1.66 4.37-3.54 4.38-5.62a81.3 81.3 0 0 1-1.25-6.25c0-2.92-.42-6.25-1.25-10l-4.38-25.63c-4.58-24.16-15.42-47.91-32.5-71.25h-1.88c-1.25 0-2.5 1.05-3.75 3.13l-2.5 6.87 5.63 8.75m-180.62-15.62a14.57 14.57 0 0 0-3.75 2.5c0 14.58 3.75 21.87 11.25 21.87 6.67 0 10-2.5 10-7.5 0 .42-.42-1.04-1.25-4.37-2.5 3.33-4.8 5-6.88 5-4.58 0-7.7-5.83-9.37-17.5m229.38 0 .63 9.37c1.25.84 1.87 1.67 1.87 2.5v1.88c-7.92.42-11.88 4.38-11.88 11.87 0 6.67 3.75 12.09 11.25 16.25a23.43 23.43 0 0 1-2.5-10.62c0-4.58 2.09-6.87 6.25-6.88 2.92 0 6.67 2.3 11.25 6.88 2.09 7.08 3.13 11.46 3.13 13.12 0 1.67-.42 4.17-1.25 7.5-.42 2.92-1.04 6.88-1.88 11.88l-1.25 5c0 1.67-.2 3.54-.62 5.62 5.83-18.33 8.75-33.75 8.75-46.25 0-.41-.42-1.87-1.25-4.37l-2.5-5.63-.63-2.5c-.83-1.66-2.7-3.54-5.62-5.62l-10-6.25-3.75-3.75m-414.38 3.12c-.83.84-2.5 7.3-5 19.38-.83 2.08-2.3 3.13-4.38 3.12l-5-3.75v10.63l4.38 33.75c2.92-17.08 8.33-30.63 16.25-40.63h2.5l-5 9.38-3.75 6.25-.63 1.87-6.25 18.75v12.5l2.5-8.75 3.75-9.37 1.25-3.13 1.88-1.87c.42.42.83.62 1.25.62.42 0 .83.21 1.25.63-5.83 9.58-8.75 21.46-8.75 35.62v3.13c.42 1.25.83 2.92 1.25 5v-4.38c0-11.25 2.3-19.79 6.88-25.62l13.75-15.63c.41-1.25 1.66-6.04 3.75-14.37l-8.13-.63 4.38-4.37c.41-.83.83-1.87 1.25-3.13.41-1.66.83-3.54 1.25-5.62l-.63-10.63v-2.5c.42-.83.83-2.08 1.25-3.75-1.25-.41-3.54-.62-6.88-.62-3.33 0-6.45 2.5-9.37 7.5h-3.13v-3.75c0-1.67-.62-3.54-1.87-5.63m178.12.63h-.63c-1.25 0-2.29 1.25-3.12 3.75l-2.5 6.25c-5.83 9.58-8.75 13.96-8.75 13.12 0 2.5 1.04 3.76 3.13 3.75 8.33 0 12.29-6.87 11.87-20.62v-6.25m45 21.87c.42-7.91 3.96-11.87 10.63-11.87 8.33 0 12.5 5.2 12.5 15.62 0 6.26-1.05 10.21-3.13 11.88s-6.88 2.92-14.38 3.75c-.83 2.08-1.66 3.13-2.5 3.12-1.25 0-1.87-.83-1.87-2.5 0-2.08.2-3.33.63-3.75l-11.25 5c-2.92 2.5-4.38 4.8-4.38 6.88l.63 4.37 5-5.62 3.12-.63-1.88 5-1.25 8.75 13.13-12.5c.42-.41.83-.62 1.25-.62 1.67 0 2.5.42 2.5 1.25l-6.25 6.25c-.42.42-.63.83-.63 1.25 0 .42-.2.83-.62 1.25.83.83 1.46 1.25 1.88 1.25h.62l5-6.88 10.63-5c2.08-1.25 3.74-5.83 5-13.75.41-.83.62-1.87.62-3.12a44.04 44.04 0 0 1 1.88-5.63c.41-.83.62-2.29.62-4.37 0-6.25-1.67-10.42-5-12.5l-7.5-4.38-1.88-2.5h-2.5c-10-.41-15 3.76-15 12.5a8.1 8.1 0 0 0 4.38 7.5m157.5-15 3.13 6.25 3.12 5a134.52 134.52 0 0 1 12.5 30 205.17 205.17 0 0 1 7.5 32.5l3.13 25c2.91-1.66 4.37-3.54 4.37-5.62 0-1.25-.42-3.33-1.25-6.25-.42-2.92-.83-4.8-1.25-5.63l-.63-11.87-6.87-25c-2.92-12.92-10.83-27.7-23.75-44.38m-389.38.63c-1.25 3.33-1.88 5.2-1.88 5.62 0 .84.42 1.25 1.25 1.25 1.25 0 1.88-.83 1.88-2.5 0 .42-.42-1.04-1.25-4.37m287.5 24.37c0-5.41 1.87-10.41 5.63-15l4.37-3.75c-2.5-.83-3.54-1.25-3.13-1.25-7.91 0-11.87 4.17-11.87 12.5 0 2.92 1.67 5.42 5 7.5m22.5 1.25-2.5.63 15 5c4.17.83 6.67 1.25 7.5 1.25 12.92 0 19.38-5.62 19.38-16.88 0-7.5-2.92-11.25-8.75-11.25-4.17 0-6.26 1.46-6.25 4.38l4.37 1.87c2.92.84 4.37 2.3 4.38 4.38 0 9.17-4.59 13.54-13.75 13.12h-2.5l-16.88-2.5m-20.63-3.75c0 5.84 3.55 11.67 10.63 17.5 3.75 3.76 7.5 7.3 11.25 10.63 4.17 3.33 7.3 7.5 9.38 12.5l-5.63 1.25v.62c0 2.09 1.46 3.13 4.38 3.13 4.16 0 6.24-3.12 6.25-9.38 0-5.41-1.46-8.74-4.38-10l-5.63-1.25-3.12-3.12c2.08.42 3.96.83 5.63 1.25h3.75c1.25 0 1.87-.42 1.87-1.25 0-7.08-5.2-12.08-15.63-15-7.5-1.67-11.25-3.75-11.25-6.25v-.63c.42-1.25 1.25-1.87 2.5-1.87s4.38.62 9.38 1.87h1.88c8.74 0 15.2-3.95 19.37-11.87-1.25.42-3.54.62-6.88.62l-6.25-1.25c-5.83-1.25-10.41-1.87-13.75-1.87h-.62c-2.5-.42-5.42 1.25-8.75 5-2.92 3.75-4.38 6.88-4.38 9.37m-181.25 0v1.88l-3.12 6.87 3.13 8.13 9.37-2.5 5.63-5.63 5 6.88 3.12 1.25 5.63-.63-3.13-6.87-1.25-8.75c-.83-3.75-3.54-5.62-8.13-5.63-2.08 0-3.75 1.88-5 5.63-.83 1.25-1.45 1.88-1.87 1.87-.83 0-1.25-.41-1.25-1.25v-.62c1.25-2.92 1.87-5 1.88-6.25 0-.42-1.88-1.67-5.63-3.75-.83-.42-2.5-.63-5-.63-6.25 0-9.8 2.3-10.63 6.88 0 2.5 1.67 3.75 5 3.75 2.92 0 5-.2 6.25-.63m158.75 1.25 6.25-3.75 5 3.75-.62-6.87c0-1.25-1.25-1.87-3.75-1.88-3.33 0-5.63 2.92-6.88 8.75m-74.37 2.5c1.67-1.66 3.33-2.5 5-2.5 2.5 0 7.5 1.88 15 5.63l1.25 1.87 3.75 5.63c3.33-2.08 5-3.96 5-5.63l-1.25-2.5c-.42-2.08-1.04-5-1.88-8.75l-5 4.38c-4.58-3.33-8.33-5-11.25-5-3.75 0-7.29 2.3-10.62 6.87m-46.88 1.88c2.92 4.17 5.21 6.25 6.88 6.25l.63-.63h1.25l7.5-5h.62l1.25-.62c2.08 0 3.12 1.25 3.13 3.75 0 1.67-.21 2.7-.63 3.12l-2.5 8.13v1.25c0 5.42 2.7 8.13 8.13 8.12 2.5 0 4.16-.2 5-.62-3.34-3.33-5-6.04-5-8.13 0 .42.41-.62 1.25-3.12l2.5-6.88c.41-.41.62-1.25.62-2.5 0-8.33-3.96-12.5-11.88-12.5-.41 0-2.5 1.25-6.25 3.75-3.33 2.5-5.62 3.96-6.87 4.38l-1.25.62c-.83 0-2.3.21-4.38.63m49.38-1.25 5.63 9.37.62 5.63.63 1.87-5 13.13-1.25 11.25-1.88 6.25 1.25 10c2.08 7.92 5.42 14.17 10 18.75 13.33 9.58 26.88 14.37 40.63 14.37 18.33 0 30.62-4.37 36.87-13.12l11.88-17.5c4.16-7.08 11.45-12.3 21.87-15.63-4.17-2.91-7.5-4.37-10-4.37-.42 0-3.33 1.04-8.75 3.12l-3.75 2.5-1.88 2.5H460l1.88-9.37c-9.17 3.75-17.3 12.3-24.38 25.62-.42 1.25-1.67 3.13-3.75 5.63-1.67 2.5-3.54 3.75-5.63 3.75-2.5 0-3.75-1.04-3.75-3.13 0-1.25.84-2.5 2.5-3.75 5-3.33 8.34-5.83 10-7.5l3.13-5.62 1.25-2.5 1.88-6.25.62-9.38c0-1.66-.83-2.5-2.5-2.5-.83 0-2.92 1.05-6.25 3.13h-1.25v-2.5c2.92-2.92 4.37-6.67 4.38-11.25 0-7.92-1.67-11.88-5-11.88h-.63c-.83 1.67-2.7 3.34-5.63 5a259.1 259.1 0 0 1-14.37 6.25l-5.63 9.38-2.5-.63-2.5-3.75-1.87 1.25c-4.58 6.26-7.3 11.05-8.13 14.38l-3.12 16.87-1.25 1.25c-.42 0-.83.21-1.25.63H385c-2.5 0-3.75-1.25-3.75-3.75l.63-1.88 9.37-20.62c.83-1.25 1.46-5.2 1.88-11.88-2.09 1.25-3.34 1.88-3.75 1.88-1.67 0-2.71-.2-3.13-.63.42-2.08.63-3.74.63-5 .41-1.25.62-2.29.62-3.12 0-9.58-7.08-15-21.25-16.25m70.63 0-1.88 8.12 1.88 2.5 3.12 1.88.63 5 1.25 5.62-1.88 6.88c3.33-.83 5-4.17 5-10 0-9.17-2.7-15.83-8.13-20m59.38 10.62c1.25 5 6.67 7.5 16.25 7.5 12.92 0 19.38-1.87 19.38-5.62 0-5.42-1.25-8.12-3.75-8.13-.84 0-3.13.84-6.88 2.5a237.58 237.58 0 0 1-6.88 2.5c-5 1.25-8.75 1.88-11.25 1.88-3.33 0-5.62-.2-6.87-.63m-174.38 4.38c-14.58 5-26.04 7.5-34.38 7.5-2.91 0-8.95-.63-18.12-1.88l-3.13 5c0 1.67 5.42 2.5 16.25 2.5 7.5 0 17.3-1.66 29.38-5 14.58-4.58 21.88-10 21.88-16.25 0-.83-.42-1.25-1.25-1.25h-.63l-10 9.38m-46.88-3.75h-1.87l-8.13 6.87c-5 4.59-7.5 10.84-7.5 18.75 0 6.67 1.88 10 5.63 10 1.67 0 2.5-.83 2.5-2.5l-.63-1.25-3.12-8.12v-1.25c0-6.25 4.37-13.75 13.13-22.5m-25 1.87-1.25 4.38v2.5c5.41 3.75 8.33 5.42 8.75 5l1.87-3.13c.83-.83 1.25-1.45 1.25-1.87 0 1.25-3.54-1.04-10.63-6.88m195.63 20a5.6 5.6 0 0 1 3.75-3.12l-1.25 6.25-2.5 3.75 1.25 5c5-6.25 7.5-12.08 7.5-17.5 0-7.5-1.05-11.25-3.13-11.25-3.75 0-5.63 5.63-5.63 16.87m51.25-10.62 6.25 2.5 11.88 1.87c5 .84 9.58 4.59 13.75 11.25 1.67 2.92 2.5 6.46 2.5 10.63 0 10.83-5.42 16.25-16.25 16.25-3.75 0-7.7-2.5-11.88-7.5-.41.83-.62 2.5-.62 5 0 7.08 5.2 10.62 15.63 10.62 6.24 0 11.45-2.29 15.62-6.87 4.58-5 6.87-10.63 6.88-16.88 0-19.16-13.13-28.75-39.38-28.75-.83 0-1.46.21-1.88.63l-2.5 1.25m-199.38 26.87h-.62c-5 0-7.5-1.87-7.5-5.62s3.33-7.7 10-11.88a40.77 40.77 0 0 0 4.38-2.5l5-2.5c0-.83-.63-1.25-1.88-1.25s-4.58 1.05-10 3.13l-10 5c-3.33 2.08-5 5.2-5 9.37 0 6.67 3.12 10 9.38 10 2.91 0 5-1.25 6.25-3.75m156.88-11.25 7.5-3.12 1.87 1.25.63 5.62 15.62-4.37c-2.92-2.92-7.08-4.8-12.5-5.63l.63-5h-3.13c-5.42 0-8.96 3.76-10.63 11.25m-145 .63 2.5 6.87v13.75l3.13 6.25.63 1.25 2.5 2.5v3.13l-8.13-1.25 1.88 9.37 1.87 5c5 7.09 12.3 10.63 21.88 10.63 7.08 0 14.58-3.33 22.5-10h-1.25c-2.09 0-3.13-.63-3.13-1.88s.83-1.87 2.5-1.87h2.5l3.13.62c.83 0 1.87-.83 3.12-2.5l-13.13-1.87v-.63c0-1.66.42-2.5 1.25-2.5 1.67 0 3.75.42 6.25 1.25 2.92.42 5 .63 6.25.63l5.63.62c-4.17-2.5-7.7-3.95-10.63-4.37-2.91-.42-7.5-1.25-13.75-2.5l-3.75-1.25c1.67-1.25 2.92-1.87 3.75-1.88.84 0 2.3.42 4.38 1.25 2.08.84 3.96 1.25 5.63 1.25 1.66 0 3.33-.83 5-2.5l-18.13-6.87-5-1.25-.63-2.5 26.25 8.12c-2.91-3.74-6.87-6.66-11.87-8.75v-2.5l9.38 3.75c-.42-1.25-.63-2.5-.63-3.75 0-1.66-.2-2.7-.63-3.12-.83-7.92-2.7-13.13-5.62-15.63s-8.75-4.16-17.5-5l1.88 7.5-.63 1.88c-8.33-6.25-15.42-9.37-21.25-9.38-5 0-7.92.42-8.75 1.25l-3.75 3.13 2.5 1.25 1.88 2.5m286.25 10.62a65.24 65.24 0 0 0 1.87 8.75l2.5 7.5 3.13 4.38 1.87 1.87 2.5 3.75 2.5.63c.42-.83.63-2.08.63-3.75l-5-7.5c-3.34-5.42-5-11.04-5-16.88l.62-3.75 5.63-9.37v-1.25c0-1.67-.63-2.5-1.88-2.5-5.42 0-8.54 6.04-9.38 18.12m-327.5-10.62c1.67 1.67 3.34 2.5 5 2.5 2.5 0 3.75-1.46 3.75-4.38 0-3.33-1.87-5-5.62-5-2.5 0-3.75 1.46-3.75 4.38l.63 2.5m-81.25 13.12.62-6.87c.83-4.17 3.33-7.08 7.5-8.75-.42-1.67-1.46-2.5-3.13-2.5-4.16 0-6.25 3.33-6.25 10v3.12c.42 1.25.84 2.92 1.25 5m436.25-9.37-2.5 6.87-1.25 15.63c-2.5 4.17-5.41 9.38-8.75 15.62a340.9 340.9 0 0 0-9.37 22.5l-1.25 6.25v5l-.63 8.75c0 1.67.84 2.5 2.5 2.5 1.67 0 2.5-1.45 2.5-4.37l-.62-3.13v-5.62l1.25-6.25 2.5-6.88 1.25-5.62 15.63-29.38c1.25-1.66 1.87-4.37 1.87-8.12 0-2.08-1.04-6.67-3.13-13.75m-349.38 3.12c-3.33 0-5 1.46-5 4.38 0 4.17 1.88 6.25 5.63 6.25s5.62-1.87 5.63-5.63c0-3.33-2.09-5-6.25-5m-15 3.75c-2.09 0-3.34.84-3.75 2.5l-.63 1.25c0 3.34 1.87 5 5.63 5 2.5 0 3.74-1.45 3.75-4.37 0-2.92-1.67-4.37-5-4.38m-76.88 0-1.88 3.13c.42.83 1.05 2.5 1.88 5 .83 2.5 2.08 5.42 3.75 8.75l.63 1.25c-.84.83-1.46 1.25-1.88 1.25.42 0-1.25-2.7-5-8.13.42 2.92 1.04 5 1.88 6.25l.62 5c.42.42.63 1.05.63 1.88a9.82 9.82 0 0 0 1.87 2.5l.63 1.25 3.12 5c.42-2.92.63-5.2.63-6.88.41-2.08.62-3.54.62-4.37l-.63-1.88-3.74-8.75c-.42-1.66-1.05-5-1.88-10l-1.25-1.25m100.62 11.88 5.63 9.37-2.5 1.25c-3.34-6.66-6.67-9.58-10-8.75h-1.25c1.66.84 2.91 1.67 3.75 2.5a9.73 9.73 0 0 0 2.5 1.88l2.5 3.75.62.62v.63l-2.5 16.25c0 5 1.46 7.5 4.38 7.5 1.25-.42 2.29-1.46 3.12-3.13h2.5l1.88 4.38c3.33 4.58 7.08 6.88 11.25 6.87v-15l-4.38-6.87 8.13-.63-9.38-15 2.5 7.5-1.88.63c-2.91-5.42-6.25-9.37-10-11.88l3.13 5.63 1.88 3.75c.41 1.25.62 2.3.62 3.12l.63.63c0 1.25-.63 1.88-1.88 1.87-1.25 0-2.7-3.33-4.38-10-.83-2.08-3.12-4.37-6.87-6.87m-11.88 53.12 7.5 5h-6.25c-5 .84-7.5 1.88-7.5 3.13 0 2.5 1.25 3.96 3.75 4.37 6.67 8.76 16.05 14.17 28.13 16.25l29.38 4.38c1.25.42 2.7 1.25 4.37 2.5 1.67.83 3.54 2.08 5.63 3.75 2.91 2.92 4.37 5.2 4.37 6.87s-.63 2.71-1.88 3.13l-6.25 1.25-3.75 3.75-1.87.62c-.42.42-.63 1.46-.63 3.13l8.75 5.62h5c.42 0 4.17 2.3 11.25 6.88l5 5 3.75 3.75 1.25 2.5 4.38 6.87 1.88 3.75 1.25 1.88 1.87 5.62 2.5 8.75c2.08 7.5 3.12 11.67 3.13 12.5.41 6.26.83 9.8 1.25 10.63.83.83 2.29 1.46 4.37 1.88l-1.25-8.75-.63-13.75c-.83-15.84-5.41-32.09-13.75-48.76-7.91-16.66-17.91-29.58-30-38.75l-4.37-3.12-5-3.13-5-3.75-16.88-9.37-14.37-10c-2.08-.83-5-2.5-8.75-5l-3.13-2.5-1.87-1.25-5.63-6.25c-2.5-2.92-3.75-5.83-3.75-8.75 0-8.75 3.96-13.96 11.88-15.63-2.92-2.91-5.42-4.37-7.5-4.37-3.75 0-7.3 2.5-10.63 7.5-3.33 5-5 9.8-5 14.37 0 3.76.84 7.3 2.5 10.63 2.09 5.42 3.75 8.96 5 10.62 1.25 1.67 3.75 3.76 7.5 6.25m-105-40.62h1.26c5.41 0 9.58 2.08 12.5 6.25 3.33 3.75 6.24 7.5 8.75 11.25l-.63-4.38-3.75-6.25-4.37-8.12c-1.67-4.17-4.38-6.25-8.13-6.25-3.33 0-5.2 2.5-5.62 7.5m197.5-5v2.5c0 1.25 1.66 1.88 5 1.87l-5-4.37m235 .62-8.75 8.75c-2.5 2.5-5.42 5-8.75 7.5l-4.38 3.13a197.84 197.84 0 0 1-13.75 8.75c-4.58 2.92-9.8 6.04-15.63 9.37-3.33 1.25-7.08 2.71-11.25 4.38a310.38 310.38 0 0 0-13.12 5.62c-1.67.42-3.13 2.71-4.38 6.88v1.25c20.42-5 34.17-10 41.25-15l16.88-10.63 9.38-6.87 8.75-10 6.87-6.25c.42-.42.63-1.04.63-1.88 0-1.25-1.25-2.91-3.75-5m-137.5 6.88 7.5 1.25v2.5a26.85 26.85 0 0 0-5-.63 10.28 10.28 0 0 0-2.5-.62c-1.67 0-3.55 1.04-5.63 3.12l13.13 2.5 1.25 3.13-11.88-3.13h-4.38c-1.25 0-1.87.42-1.87 1.25 0 .84 2.92 2.3 8.75 4.38l4.38 1.25 11.25 1.25c-.42 1.67-1.25 2.5-2.5 2.5H464.98l-7.5-1.88-3.75.63 1.88 3.75h-5.63l-10.63-3.13h-6.25c-2.08 0-3.75.21-5 .63v1.25c.42 0 1.25.2 2.5.62 1.67 0 4.17.21 7.5.63 4.59.83 6.88 1.88 6.88 3.12 0 .84-.63 1.46-1.88 1.88l-10.62-2.5c.83 4.58 3.33 6.88 7.5 6.87l.63 1.88h-5.63c.42 7.92 5.2 11.87 14.38 11.87 2.91 0 7.5-.83 13.75-2.5a10.2 10.2 0 0 1 2.5-.62l1.25-.63 7.5-3.75 6.25-3.12-8.75-5 .62-1.88c1.67.42 2.92.84 3.75 1.25h3.13c10.41 0 18.33-5.83 23.75-17.5h-5.63a19.4 19.4 0 0 0-4.38-1.25 88.38 88.38 0 0 1-6.25-1.87l-6.25.62c2.92-4.16 4.38-7.29 4.38-9.37 0-.83-1.67-1.67-5-2.5l-10.63-1.25c-1.25 0-4.16 1.67-8.75 5m65 9.37 5-1.25c4.59 0 6.88 2.5 6.88 7.5 0 2.5-1.25 5.63-3.75 9.38-2.5 3.33-5 5.42-7.5 6.25-6.25 2.5-9.38 4.17-9.38 5 0 1.25.63 1.88 1.88 1.87 5.42 0 11.04-2.7 16.88-8.12 6.24-5.42 9.37-11.25 9.37-17.5 0-7.08-3.54-10.63-10.63-10.63-4.16 0-7.08 2.5-8.75 7.5m-161.88 0c-9.16 6.67-13.75 14.8-13.75 24.38v3.75c.42 1.67.84 3.75 1.25 6.25l.63 1.87 1.25 1.25 5 12.5 5.63-1.87 3.12-4.38c0-.41.42-.62 1.25-.62.83 0 1.25.42 1.25 1.25 0 1.25-.2 2.08-.63 2.5l.63 5c.83 5 2.7 9.58 5.63 13.75 4.16 5.42 7.29 8.13 9.37 8.12l1.25-.62c1.25-.42 2.92-1.67 5-3.75l7.5-5 5.63-4.38c2.08-1.66 3.33-3.33 3.75-5 .83-1.66 1.25-2.91 1.25-3.75.41-1.25.62-2.08.62-2.5.42-.41 1.25-.41 2.5 0 2.5 5.84 4.37 8.76 5.63 8.75 1.25 0 2.91-2.5 5-7.5.83-1.25 1.87-2.7 3.12-4.37s2.7-3.54 4.38-5.63v-1.25c.41-.83.83-2.29 1.25-4.37l.62-6.25.63-1.25c0-4.17-2.09-8.96-6.25-14.38a11.2 11.2 0 0 0-6.25-3.12l-.63 5-.63 1.87-3.12-.62 1.25-5c0-1.25-.63-1.87-1.88-1.88h-1.25l-4.37 12.5c-.42.42-1.04.63-1.88.63-1.25 0-1.87-.63-1.87-1.88 0-.83.63-2.29 1.88-4.37 1.66-2.5 2.5-4.17 2.5-5 0-1.25-.42-1.87-1.25-1.88-1.25 0-2.09.63-2.5 1.88l-1.88 5-2.5 8.75-5 1.25 6.88-17.5-6.25 6.87-3.75 9.38a48.17 48.17 0 0 0-2.5 5.62c0 .84-.21 2.5-.63 5l-3.13 1.88 1.25-.63c-1.66-.41-2.5-1.04-2.5-1.87 0 .42.42-1.04 1.25-4.38.84-4.16 2.71-10 5.63-17.5 1.67-1.66 2.5-3.12 2.5-4.37v-.63c-.42-1.66-1.04-2.5-1.88-2.5-1.25 0-2.7 1.05-4.37 3.13a16.26 16.26 0 0 0-2.5 4.37c-2.08 5.84-3.33 8.96-3.75 9.38l-.63.62c-1.66 0-2.5-.62-2.5-1.87v-1.25l.63-.63 8.75-14.37a4.24 4.24 0 0 0-3.13-1.25c-2.08 0-3.33 1.46-3.75 4.37l-2.5 1.88-2.5 6.25h-.62c-1.67 0-2.5-.63-2.5-1.88l1.88-2.5c1.25-1.66 2.91-4.16 5-7.5.41-.41 1.04-1.45 1.87-3.12-.83-.83-1.67-1.25-2.5-1.25-.83 0-1.46.2-1.88.62l-2.5 2.5h-1.25l-2.5 4.38-1.25.62c-1.25 0-1.87-.62-1.87-1.87s1.25-2.7 3.75-4.38c2.92-2.08 4.37-3.33 4.38-3.75-1.25-2.08-2.5-3.12-3.75-3.12l-10 5.62m255.62-1.87c-2.09 2.08-3.13 3.75-3.13 5a8.3 8.3 0 0 0 1.88 5 30.46 30.46 0 0 1 2.5 12.5c0 13.75-7.92 21.87-23.75 24.37-.42.42-.63 1.46-.63 3.13 0 .42.83.62 2.5.62 17.92 0 26.88-9.58 26.88-28.75 0-9.16-2.09-16.45-6.25-21.87m-108.13.62c-4.16 12.09-12.7 21.67-25.62 28.75l-8.13 3.75-3.75 1.88a96.69 96.69 0 0 0-5 1.87c0-.41-2.7 0-8.12 1.25a95.35 95.35 0 0 0-16.88 6.25 77.21 77.21 0 0 0-16.87 10.63c-5 4.17-7.3 8.96-6.88 14.37 0 2.5.84 5.21 2.5 8.13-6.25 3.33-12.29 10-18.12 20-9.58 18.33-14.38 34.58-14.38 48.75v7.5c.42 2.5.84 5.83 1.25 10 2.09 0 3.13-1.04 3.13-3.13l.63-15a33.21 33.21 0 0 0 1.87-6.87c.83-2.92 1.67-6.25 2.5-10l.63-3.75c.41-10 7.29-20.63 20.62-31.88.83-.83 2.3-1.87 4.38-3.12s4.58-2.7 7.5-4.38v2.5c-.84 5 1.25 7.5 6.25 7.5 1.66 0 2.7-.2 3.12-.62l38.75-11.25c.83-.42 2.5-.63 5-.63 7.5 0 11.25 2.5 11.25 7.5 0 4.59-2.92 6.88-8.75 6.88-1.25 0-2.08-.2-2.5-.63l-17.5-6.25c-1.67 0-3.75 1.05-6.25 3.13-2.5 1.67-3.75 3.33-3.75 5 0 1.25.2 2.08.63 2.5 2.91-2.5 5.41-3.75 7.5-3.75 2.08 0 5.2 1.46 9.37 4.37 4.17 2.5 6.46 3.76 6.88 3.75h.62l1.88-.62 6.87-1.88-1.88 9.38 15-6.25c7.5-2.92 11.25-8.33 11.25-16.25 0-2.92-2.5-7.92-7.5-15l8.13-.63c-5-10.83-13.54-16.25-25.63-16.25-13.75 0-24.79 2.92-33.12 8.75-2.92 2.5-5.2 4.38-6.88 5.63l-2.5 2.5h-2.5c-2.5 0-3.75-1.46-3.75-4.38 0-2.5 1.88-4.79 5.63-6.87 5.42-2.92 10-4.8 13.75-5.63l33.13-3.75c8.74-.83 15.83-7.5 21.25-20l-10.63-.62c7.92-6.67 11.88-13.33 11.88-20 0-4.58-2.09-8.96-6.25-13.13m82.5 6.88-4.38 4.37c-.42 34.17-10.63 72.3-30.63 114.38a34 34 0 0 0-1.87 4.38l-3.75 5v2.5c.42 1.25 1.25 1.88 2.5 1.87 1.67 0 4.8-4.16 9.38-12.5l11.25-24.37c12.5-26.67 18.75-55 18.75-85 0-1.25-.21-2.7-.63-4.38 0-2.08-.2-4.16-.63-6.25m-425.62 1.88c-1.66 0-2.5 1.04-2.5 3.12 0 2.5 1.05 3.76 3.13 3.75 2.5 0 3.75-1.25 3.75-3.75 0-2.08-1.25-3.12-3.75-3.12h-.62m8.75 3.75c.41 2.92 1.87 4.38 4.37 4.37 2.08 0 3.12-1.45 3.13-4.37 0-2.5-1.05-3.75-3.13-3.75-2.92 0-4.38 1.25-4.37 3.75m68.75 18.12c2.08 4.17 3.74 6.46 5 6.88l5 1.87c3.74 1.67 5.2 2.5 4.37 2.5.83 0 1.25-.62 1.25-1.87l-.63-.63-9.37-10.62c-.83-.83-1.25-1.46-1.25-1.88 0-2.5 2.3-4.16 6.88-5-1.25-4.58-3.13-6.87-5.63-6.87-4.17 0-6.25 2.92-6.25 8.75 0 3.33.2 5.63.63 6.87m340-15.62-21.88 14.37-13.13 5.63a205.16 205.16 0 0 1-6.25 43.75c-3.33 15-8.54 30.42-15.62 46.25 6.67 2.08 12.7 4.58 18.13 7.5l3.75 1.87c10-15.41 18.33-33.95 25-55.62 7.08-23.33 10.62-42.08 10.62-56.25v-2.5c0-2.08-.2-3.75-.63-5m-408.12 35.62c-3.75-7.91-5.62-13.75-5.62-17.5 0-.41.42-1.87 1.25-4.37l1.25-4.38 1.25-6.25h-1.88c-5-.41-7.5 3.76-7.5 12.5 0 9.17 3.75 15.84 11.26 20m152.5-10.62 1.25 2.5 1.25.62 3.75 5c2.5 3.76 5.41 6.26 8.75 7.5l3.12 4.38 3.13 1.87 1.25 1.88 2.5 4.37.62 1.88 6.25 6.87 6.25 11.25v.63l2.5 4.37c-1.67-10-6.88-20.62-15.63-31.87l-11.87-14.38c-3.33-4.58-5-9.37-5-14.37 0-2.5 2.3-6.04 6.88-10.63-2.09-2.08-3.96-3.12-5.63-3.12l-5 1.25c-4.17 2.5-6.25 6.04-6.25 10.62 0 2.5.63 5.63 1.88 9.38m-148.13-18.13c-2.91 0-4.37 1.46-4.37 4.38 0 2.08 1.04 3.13 3.13 3.12 2.91 0 4.37-1.04 4.37-3.12 0-2.92-1.04-4.37-3.13-4.38m-2.5 25.63 1.25 2.5 2.5 1.25 1.25 3.75c-1.25-.42-3.54-.63-6.87-.63-5.42 0-8.33 3.76-8.75 11.25 2.92-1.25 5-1.87 6.25-1.87.83 0 1.67.2 2.5.62 1.25 0 2.7.21 4.38.63 2.08-2.08 3.12-3.96 3.12-5.63a8.7 8.7 0 0 0-.63-3.75c8.34 4.59 16.46 6.88 24.38 6.88h6.25c2.92 0 5.42-.2 7.5-.63l-14.38-1.25-8.75-1.87-6.25-1.88-2.5-1.87-3.12-1.88-.63-1.87c2.92-1.25 4.38-2.7 4.38-4.38 0-.83-.42-1.66-1.25-2.5l-5-6.87-1.25-4.38c-3.75 0-5.83 2.5-6.25 7.5v.63c0 1.25.63 3.33 1.88 6.25m68.12-7.5v2.5c0 3.33 1.87 5.63 5.63 6.87 4.16.84 8.12 1.67 11.87 2.5h1.88c.83 0 1.25-.41 1.25-1.25 0-2.08-6.26-5.41-18.75-10l-1.88-.62m262.5 11.25a980.4 980.4 0 0 0 20-1.88c3.75-.41 4.58-.62 2.5-.62l3.13.62c1.25.42 3.12.63 5.62.63 1.67 0 2.92-1.87 3.75-5.63h-7.5l-4.38.63c-.83.42-2.7.62-5.62.62h-4.38c-1.66 0-3.54.21-5.62.63-3.75.42-6.25 2.08-7.5 5m103.12 1.87 3.75 1.25 4.38-.62 1.25 5.62 1.87 1.88 1.25-6.25c0-3.33-2.08-5-6.25-5-2.92 0-5 1.04-6.25 3.12m-8.13-.62-3.12 3.12c1.67 7.5 3.12 11.25 4.38 11.25 1.25 0 1.87-.62 1.87-1.87 0-.83-.63-2.7-1.88-5.63-.83-3.33-1.25-5.62-1.25-6.87m-376.25 9.37 51.88-3.75a7.77 7.77 0 0 0-5.63-2.5l-8.12.63-17.5 1.25-14.38 2.5h-5c-.41.42-.62.83-.62 1.25l-.63.62m279.38-5c2.92 3.76 7.71 5.63 14.38 5.63 4.17.83 10.42 2.7 18.75 5.62.42-.83.63-2.5.63-5 0-3.33-4.38-5.41-13.13-6.25l-15.63-.62-5 .62m102.5-.62v4.37c7.92 4.17 11.88 8.76 11.88 13.75 0 2.92-.83 4.38-2.5 4.38a7.77 7.77 0 0 1-5.63-2.5l-1.87 1.87c3.75 4.17 6.46 6.26 8.13 6.25 3.33 0 5-3.12 5-9.37 0-6.67-5-12.92-15-18.75m-13.13 2.5c-2.92 2.92-4.38 6.25-4.38 10 0 5.42 2.71 7.92 8.13 7.5h.63l3.75-.63 5-1.87 5.62-2.5v-.63c0-1.25-.42-1.87-1.25-1.87l-1.25-.63h-.63c-7.08 2.92-10.2 4.38-9.37 4.38-2.08 0-4.58-1.46-7.5-4.38a7.78 7.78 0 0 0 2.5-5.62l-.63-.63c0-.83-.2-1.87-.62-3.12m-323.75 1.87-21.25 1.88.63 5.62c7.08-1.66 13.33-2.5 18.75-2.5h5l8.12-5h-11.25m-5.63 18.75c1.67 2.5 3.55 3.76 5.63 3.75 2.92 0 4.8-.2 5.63-.62v2.5c-6.26 4.58-9.38 10.42-9.38 17.5 0 3.33.83 5.83 2.5 7.5 2.5 5.83 7.08 8.75 13.75 8.75 1.67 0 4.17-.42 7.5-1.25 3.75-.83 6.67-1.25 8.75-1.25 2.92 0 5 .2 6.25.62-1.25-3.33-3.75-5.2-7.5-5.62a80.61 80.61 0 0 0-10.63-1.88c-3.33-3.33-5-5.83-5-7.5 0-8.74 4.8-13.54 14.38-14.37l13.13-1.25 8.12-8.13 4.38-3.75c0-2.5-2.71-5.2-8.13-8.12a36.35 36.35 0 0 0-17.5-4.38c-7.5 0-15.83 3.96-25 11.88l-6.88 5.62m-27.5-14.37 3.75 14.37 8.13 25 3.75 6.88 2.5 4.37 5 9.38c.42 1.67 1.25 2.5 2.5 2.5s2.08-.2 2.5-.63l-2.5-5.62-3.13-6.25a85.59 85.59 0 0 1-5.62-10.63c-1.25-3.74-2.3-7.5-3.13-11.25-.41-1.66-.83-2.7-1.25-3.12v-1.88l-1.87-5.62-5-18.13c-.42-.41-1.25-.62-2.5-.62h-1.25l-1.88 1.25m-40.62-.63a77.29 77.29 0 0 1 3.75 11.88c1.25 3.75 2.3 7.7 3.13 11.87l1.25 3.75c1.25 2.5 2.91 6.05 5 10.63l5.62 13.12 6.25 12.5 5.63 9.38c2.5 3.75 4.37 5.63 5.62 5.62 1.67 0 3.54-.62 5.63-1.87l7.5-5c2.5-2.08 4.79-3.96 6.87-5.63 2.5-1.66 4.37-2.7 5.63-3.12-10.42-16.67-18.55-37.5-24.38-62.5-3.75.42-7.3.83-10.63 1.25h-8.12c-7.08 0-13.33-.63-18.75-1.88m319.38 5c9.58 2.09 14.38 5.84 14.38 11.25 0 2.5-1.46 5.21-4.38 8.13 6.25-.42 9.37-2.7 9.38-6.88 0-8.33-2.71-12.7-8.13-13.12l-11.25-2.5v3.12m-125.62 6.88c3.33-.83 4.8-1.25 4.38-1.25-.42 0 .62.42 3.12 1.25v6.25l-8.13 21.87-1.87 9.38 2.5-4.38 5-10 6.25-11.25c2.08-5 3.12-8.74 3.13-11.25 0-6.24-2.3-9.37-6.88-9.37-2.5 0-5 2.92-7.5 8.75m-221.88 19.37.63 2.5c-3.34 3.34-5 5.42-5 6.25 0 1.67 1.45 2.5 4.37 2.5 3.33 0 7.7-2.08 13.13-6.25l10-7.5c.83-.83 2.7-1.87 5.62-3.12l-6.88 8.12h-.62c-2.92 4.17-4.38 8.34-4.38 12.5 0 5 1.88 8.96 5.63 11.88v-3.75c-.83-7.92 3.33-15.2 12.5-21.88l-7.5-17.5a91.7 91.7 0 0 1-9.38 5.63c-5.83 3.75-9.37 5.63-10.62 5.62-6.25 0-9.38-2.91-9.38-8.75 0-1.66.63-4.16 1.88-7.5v-1.87h-.63c-4.58 0-6.87 4.38-6.87 13.12 0 5 2.5 8.34 7.5 10m151.88-16.25a36.52 36.52 0 0 1-3.13 3.75l-.62 1.25c-4.58 4.59-6.88 9.17-6.88 13.75 0 3.34 1.05 7.3 3.13 11.88 2.08 4.17 4.58 6.25 7.5 6.25 1.25 0 2.3-1.25 3.13-3.75-6.26-5-9.38-10.2-9.38-15.63 0-4.16 2.7-8.95 8.13-14.37l1.87-1.88a7.29 7.29 0 0 0 1.88-1.25c3.74-1.66 5.62-2.91 5.62-3.75 0-1.25-.83-1.87-2.5-1.87-.83 0-3.75 1.88-8.75 5.62m56.25-2.5-.63 10.63v16.87a259 259 0 0 0 3.75 42.5c.42 1.25.63 2.92.63 5v5.63l-.63 4.38c0 2.08.84 3.12 2.5 3.12 2.09 0 3.13-.83 3.13-2.5 0-1.25-.2-3.12-.63-5.63-.41-2.91-.62-5-.62-6.25l-.63-21.87 1.88-47.5h-2.5c-1.67 0-3.75-1.46-6.25-4.38m210 3.13 3.75 4.37 4.38 2.5 16.25 13.13c.83.83 2.5 1.25 5 1.25 2.91 0 4.37-1.46 4.37-4.38l-.63-3.75c-2.08 2.5-3.75 3.76-5 3.75-3.33 0-11.45-5-24.37-15l.63-1.25-4.38-.62m-.63 3.75c-2.08 2.08-3.12 3.75-3.12 5 0 .42 3.12 4.38 9.38 11.87l1.25.63 3.12 5.62 3.13 5 1.25 4.38 5 12.5 1.25 5c.41 3.33.62 6.25.62 8.75.42 2.08.63 3.96.63 5.62 0 2.92-.63 8.76-1.88 17.5-5.83 16.25-13.33 24.38-22.5 24.38-5.83 0-8.75-2.92-8.75-8.75 0-4.17 3.33-6.46 10-6.88l6.25-1.25c3.33-4.58 5-8.12 5-10.62 0-9.17-4.8-13.75-14.38-13.75-6.66 0-10.83 3.33-12.5 10 4.17-2.92 7.71-4.37 10.63-4.38 5.83 0 8.75 3.13 8.75 9.38 0 3.33-1.04 5.42-3.13 6.25l-10 2.5c-3.75.83-5.62 5-5.62 12.5 0 5 1.04 7.92 3.13 8.75 3.74 2.08 5.62 3.33 5.62 3.75l-.63 1.25-4.37 1.88c-.83.83-1.25 1.45-1.25 1.87 0 2.5 3.12 3.75 9.38 3.75 8.33 0 14.16-2.92 17.5-8.75l9.37-15 .63-.63c1.66 0 2.5.84 2.5 2.5 0 2.5-2.5 6.46-7.5 11.88l-1.25 3.13c-8.34 10.83-12.09 18.33-11.25 22.5v1.87l1.25 6.25 7.5-6.88c.83 12.09 4.58 18.13 11.25 18.13 3.33 0 5.62-2.92 6.87-8.75l-3.75.63c-3.75 0-5.63-2.3-5.63-6.88v-.63c.42-3.33 1.05-7.29 1.88-11.87.83-5 2.3-10.83 4.38-17.5 3.74-11.67 5.62-25.63 5.62-41.88 0-28.75-11.88-52.29-35.63-70.62m-4.37 9.37v2.5l6.25 6.88 3.13 6.87v5.63c.41 10.42-3.96 15.62-13.13 15.62-3.75 0-5.63-1.66-5.63-5 0-1.25.63-2.29 1.88-3.12l6.88-4.38.62-6.25-10.63 6.88c-3.33 4.58-5 7.92-5 10 0 6.25 2.5 9.38 7.5 9.37l6.25-1.25 1.88.63-1.88 3.75v2.5l12.5-5c1.67-.83 3.34-3.12 5-6.88.84-4.16 1.25-6.87 1.25-8.12 0-7.5-2.91-14.8-8.75-21.88l-3.75-3.75-4.37-5m-63.13 2.5c-3.33 5.42-6.45 8.96-9.37 10.63l-15.63 7.5c-5.83 2.5-8.75 5-8.75 7.5l1.25 6.25-8.75 5.62-3.75 4.38c-10.83 14.17-16.04 26.67-15.62 37.5v8.75l5.63-2.5c1.66-21.67 6.87-34.8 15.62-39.38l5-2.5-.63 5c.84.84 2.3 1.46 4.38 1.88h.63c1.25 0 3.12-.2 5.62-.63 2.92-.83 4.8-1.25 5.63-1.25l1.25.63 5 1.87c1.66 0 2.5-1.25 2.5-3.75 0-4.58-4.17-7.91-12.5-10h-1.25c-1.25-.41-1.88-1.45-1.88-3.12v-1.25l1.25-1.25 13.13-6.88c6.24-3.74 10-8.95 11.25-15.62l.62-3.13c0-3.33-.2-5.41-.63-6.25m-87.5.63-.62 1.87c-10.83 0-18.96 4.59-24.38 13.75l-3.12 6.25c-.83 2.5-1.67 5.21-2.5 8.13a46.4 46.4 0 0 0-1.88 8.12c2.5-.83 3.96-1.66 4.38-2.5.83-1.25 2.5-5.2 5-11.87 3.75-8.75 12.5-13.13 26.25-13.13 1.25 0 2.08.21 2.5.63l1.88 1.87 4.37 5a4.2 4.2 0 0 1 1.88 3.75c0 4.17-2.92 8.13-8.75 11.88 2.91 1.67 5.2 2.5 6.87 2.5 3.33 0 6.25-1.67 8.75-5 2.5-3.75 3.75-7.3 3.75-10.63 0-4.16-1.88-8.33-5.63-12.5-3.33-4.16-6.87-6.04-10.62-5.62h-5.63c-1.25 0-2.08-.83-2.5-2.5m-105 6.25c0 1.25-.2 2.3-.62 3.12l-.63 1.25c0 2.09 1.05 3.13 3.13 3.13 2.5 0 3.75-1.25 3.75-3.75s-1.67-3.75-5-3.75h-.63m-153.75 89.37 3.75 6.25c14.59 25.84 34.17 38.75 58.75 38.75l2.5-.62h3.75c1.67-.83 2.71-.42 3.13 1.25 2.92 2.92 5.83 4.38 8.75 4.38 3.33 0 5.62-.21 6.88-.63 5-.83 8.95-1.46 11.87-1.88 2.92-.83 4.8-1.25 5.63-1.25.83 0 1.87.21 3.12.63 1.25 0 2.92.2 5 .63a14.55 14.55 0 0 0-3.75-2.5 16.69 16.69 0 0 0-4.38-3.13H266.25l-4.38.63c-.41.41-1.45.62-3.12.62-.83 0-1.25-.42-1.25-1.25 0-1.25 2.7-2.08 8.13-2.5 1.66-.42 3.74-1.67 6.25-3.75 2.91-2.5 4.58-5 5-7.5l-6.25 3.13-20 2.5-5.63 6.25h-6.25l-8.13-1.25c-27.5-4.17-44.37-17.71-50.62-40.63l-3.13-11.88-1.87-5.62c-.42-2.5-1.04-8.54-1.88-18.13v-1.87c0-4.17.63-8.12 1.88-11.88l4.38-16.87c.83-2.5 1.87-5 3.12-7.5s2.3-5.2 3.13-8.13c0-1.25-.42-2.29-1.25-3.12-2.5 0-5 3.13-7.5 9.37l-5.63 16.88c-2.08 7.5-3.13 16.25-3.13 26.25 0 10.42 2.5 21.88 7.5 34.38m165.63-86.25c-1.67 0-2.5.83-2.5 2.5 0 2.08.62 3.33 1.87 3.74h1.25c2.08 0 3.12-.83 3.13-2.5 0-2.5-1.25-3.74-3.75-3.75m10 3.13c-1.67 0-2.92 1.04-3.75 3.12v.63c0 1.67 1.04 2.5 3.12 2.5s3.12-1.04 3.13-3.13c0-2.08-.84-3.12-2.5-3.12m112.5 6.25c5.41 1.67 8.12 4.8 8.12 9.37l-.63 2.5-5 18.13-1.87 6.25 3.75-5.63c7.92-11.66 11.88-19.79 11.88-24.37 0-7.08-3.13-10.63-9.38-10.63-2.92 0-5.2 1.46-6.88 4.38m-73.12 2.5h-.63l1.25.62.63-3.75-.63-.62-.62 3.75m-205-2.5c-2.92 7.08-4.38 12.5-4.38 16.25 0 5.83 2.09 10.83 6.25 15 4.59 4.17 9.8 6.25 15.63 6.25 12.5 0 18.75-5.62 18.75-16.88 0-7.08-3.75-10.41-11.25-10h-5c-2.08-.83-3.13-1.66-3.13-2.5v-2.5c-2.5 2.09-3.75 3.96-3.75 5.63 0 4.17 2.5 6.25 7.5 6.25l1.88-.63a8.7 8.7 0 0 1 3.75-.62c2.08 0 3.12 1.46 3.13 4.37 0 2.92-2.92 6.05-8.75 9.38-2.09 1.25-3.96 1.88-5.63 1.87-7.08 0-11.46-2.5-13.13-7.5l-2.5-6.25 1.25-11.87-.62-6.25m156.88.62c-1.25 0-1.88 1.25-1.88 3.75 0 2.09 1.05 3.13 3.13 3.13 2.5 0 3.75-1.04 3.75-3.13 0-2.5-1.67-3.74-5-3.75m-11.25 2.5c-2.08.84-3.13 2.5-3.13 5 0 3.34 1.25 5 3.75 5 3.75 0 5.63-1.66 5.63-5 0-3.33-1.67-5-5-5h-1.25m16.88 11.88 1.87 1.87c1.67-3.74 3.75-5.62 6.25-5.62 5.83 0 11.04 8.54 15.63 25.62l.62 2.5v-3.12c.42-8.33-1.25-15.63-5-21.88-3.33-6.66-7.3-10-11.88-10-5 0-7.5 3.55-7.5 10.63m-37.5 4.37c1.25 6.67 3.55 12.3 6.88 16.88-1.67-4.58-2.5-8.54-2.5-11.88 0-5.41 1.87-8.12 5.63-8.12 2.08 0 4.37 1.88 6.87 5.62.42-1.25.63-2.08.63-2.5l.62-1.25c0-5.41-3.13-8.12-9.38-8.12-4.16 0-7.08 3.13-8.75 9.37m190.63-6.25v1.88H515.62c5.42-.42 13.33 1.25 23.75 5l9.38 6.87c5.83 9.59 8.74 16.67 8.75 21.25 0 2.09-.21 3.34-.63 3.75l-2.5 6.88-.63 5h1.88c4.58.83 6.87-3.75 6.88-13.75 0-5.42-.21-8.33-.63-8.75l-3.13-8.13c-2.5-5.83-8.54-11.04-18.12-15.62-9.17-4.58-18.54-6.87-28.13-6.88-2.08 0-3.54.21-4.37.63l-6.88 1.87M233.13 512.3l-1.87 6.25c-3.75-5-6.67-7.5-8.75-7.5s-3.96.62-5.63 1.87L215 514.8a122.45 122.45 0 0 0-5.63 6.25c-3.75 3.75-6.25 5.63-7.5 5.63-2.08 0-4.37-.63-6.87-1.88l-2.5-7.5c-4.58 2.08-6.88 4.38-6.88 6.88 0 5.41 3.96 8.95 11.88 10.62-3.33 3.33-5 5.83-5 7.5 0 .83 1.25 1.25 3.75 1.25h6.25c4.17-.42 7.5-3.13 10-8.13.83-2.08 2.3-3.12 4.38-3.12h1.25l-.63 3.75-4.38 4.38-1.25 4.37-1.87 3.13v1.87c0 2.08.2 4.17.63 6.25l.62 6.25 5-.63v5c0 2.5.42 5 1.25 7.5 1.25 2.09 3.33 5.63 6.25 10.63 6.67-3.75 10-8.13 10-13.13 0-2.91-.2-5-.63-6.25l4.38.63 1.25 1.88h.63l1.25.62c1.25 0 1.87-.83 1.87-2.5v-1.25l-.63-8.75-4.37-9.38v-1.25c0-1.66.63-2.5 1.88-2.5 1.66 0 2.7.21 3.12.63l1.88 5.63-.63 5.62a12.06 12.06 0 0 1 1.88 6.25l-.63 8.75-1.88 1.88c0 1.66 2.09 3.75 6.25 6.25l1.25-7.5 2.5.62c2.5 5.42 6.67 8.13 12.5 8.13 9.59 0 14.38-3.34 14.38-10 0-1.25-.42-2.3-1.25-3.13l-9.38-11.88-.62-.62v-1.25c0-2.92 1.87-4.38 5.63-4.38l4.37.63.63 1.88c-.84-4.59-3.55-6.88-8.13-6.88-6.25 0-9.38 3.13-9.38 9.38 0 3.33 2.92 7.5 8.75 12.5l1.88 1.25v3.12c0 2.5-1.46 3.75-4.38 3.75-2.08 0-5-2.3-8.75-6.88l-3.12-7.5L255 537.3c0-8.33-4.38-12.92-13.13-13.75v-1.25c0-7.5 2.71-13.96 8.13-19.38 5.83-5.41 12.92-8.12 21.25-8.12 23.33 0 38.54 13.75 45.63 41.25l3.75 1.88c-.42-14.59-5.21-26.25-14.38-35-9.17-8.75-21.25-13.13-36.25-13.13-8.75 0-15.42 1.67-20 5l-12.5 10-4.38 7.5m184.38-20.63-1.25 1.88c-5.41.83-10.2 3.33-14.37 7.5l-1.88 6.87v12.5c0 5.42-4.16 8.13-12.5 8.13h-5c-2.08 0-3.75-.2-5-.63l-6.25-6.87-6.87-18.13c-2.08-5-4.38-7.5-6.88-7.5-1.66 0-2.91 1.05-3.75 3.13l-1.87 6.25-10.63-5-1.25-.63c-6.66 0-11.25 4.17-13.75 12.5h1.25c5.84 0 11.05 2.3 15.63 6.88l1.88 3.13c7.08 19.58 15.41 29.37 25 29.37.83 0 1.45-.2 1.87-.63l5.63-2.5h3.75l2.5 6.88 10.62.63 4.38.62-1.88-10.63a39.59 39.59 0 0 0 11.25 1.88c2.92.42 6.67-1.67 11.25-6.25l1.88-1.88c.41-.83.83-1.45 1.25-1.87l8.75-18.13c3.74-7.5 8.54-11.25 14.37-11.25h1.25l9.38 3.75c1.66 0 2.5-1.04 2.5-3.12 0-8.33-5-12.5-15-12.5-7.5 0-13.34 3.33-17.5 10-.42.42-1.05.62-1.88.62l-1.88-1.87c.42-.83.63-2.7.63-5.63 0-1.66-1.88-4.16-5.63-7.5m-1.25 67.5v5l.63 6.88c50-2.08 92.7-25 128.12-68.75-4.58-5-11.25-8.12-20-9.38-32.08 44.59-66.88 66.67-104.38 66.25h-4.38m-142.5-59.37.63.62 2.5 3.13 5.63 5.62a11.37 11.37 0 0 0 5 3.75c-2.5-4.16-5.63-8.54-9.38-13.12l-.63-.63-3.75-1.25v1.88m-3.75-1.25h-6.25c-5 2.92-8.12 4.8-9.37 5.62-1.25.84-2.7 2.3-4.38 4.38l-3.12 7.5c15 16.25 36.67 30 65 41.25a312.35 312.35 0 0 0 41.88 12.5 185.54 185.54 0 0 0 39.37 3.13h13.75l-.63-11.88h-5.62c-51.25.42-94.8-20.42-130.62-62.5m-93.13 5.62c-.41.84-.62 2.71-.62 5.63 0 5.83 2.08 8.75 6.25 8.75 2.08 0 3.33-1.46 3.75-4.38-5.42-.41-8.54-3.74-9.38-10m369.38-.62-5 6.87c-20.83 28.75-51.04 47.92-90.62 57.5l-18.75 5-6.25.63-7.5 1.25 1.25 2.5c0 .42.63.63 1.88.63H425c1.66-.42 3.54-.84 5.62-1.25a397.57 397.57 0 0 1 22.5-4.38c5.42-1.25 8.54-2.08 9.38-2.5 10.41-5.42 17.08-8.13 20-8.13L505 549.8c2.91-1.67 5.41-3.13 7.5-4.38a27.33 27.33 0 0 0 6.25-5.62l28.12-28.13c1.67-1.66 2.5-3.12 2.5-4.37 0-.42-1.04-1.67-3.13-3.75M470 539.79l1.88-1.25c.42-13.75 3.96-20.63 10.63-20.63 2.5 0 5 1.67 7.5 5l1.25 1.88c2.08-3.33 3.12-6.25 3.12-8.75 0-3.75-2.7-5.62-8.13-5.63-8.75 0-13.95 7.09-15.62 21.25l-.63 8.13m-31.87-2.5v-.63c-.83-6.24 1.04-9.37 5.63-9.37 4.58 0 7.5 1.25 8.75 3.75l1.87 3.75 4.38 8.75v-2.5c0-14.58-5-21.88-15-21.88-6.26 0-9.38 4.38-9.38 13.13 0 1.67 1.25 3.33 3.75 5m107.5-13.75c-1.67.42-2.5 1.67-2.5 3.75 0 2.92 1.46 4.38 4.38 4.38 2.5 0 3.74-1.25 3.75-3.75 0-2.92-1.67-4.38-5-4.38h-.63m-8.75 6.25-1.88 1.88v1.25c0 2.08.63 3.12 1.88 3.12 2.08 0 3.12-1.04 3.13-3.13 0-2.08-1.05-3.12-3.13-3.12m6.88 6.88c-2.09 0-3.34.83-3.75 2.5v1.25c0 2.5 1.45 3.75 4.37 3.75s4.37-1.25 4.38-3.75c0-2.5-1.67-3.75-5-3.75m-110.63 62.5c-13.33-12.5-20-23.75-20-33.75 0-6.67 2.92-11.67 8.75-15 1.67-1.25 3.13-1.88 4.38-1.88l1.25.63 9.38 2.5-.63-5.63c-.83-2.5-3.13-3.75-6.88-3.75-13.33 0-20 7.92-20 23.75 0 10.83 3.96 19.58 11.88 26.25l5.63 5 2.5 2.5 3.75-.63m123.12-54.37v.63c0 2.91.83 4.37 2.5 4.37 2.91 0 4.37-1.46 4.37-4.38 0-2.08-1.46-3.12-4.38-3.12l-.62.63c-1.25.83-1.88 1.45-1.88 1.87m-20 6.88a7.78 7.78 0 0 0 2.5-5.63c-.41-.42-.83-.63-1.25-.63l-.62-.62-1.25-.63c-2.5 0-3.75 1.05-3.75 3.13 0 1.67 1.46 3.13 4.38 4.38m-365-4.38 3.75 18.13 4.37 14.37c.42 1.67.63 3.13.63 4.38.41.83.62 1.66.62 2.5 0 5.41-4.38 8.12-13.13 8.12 2.5 3.33 5 5 7.5 5 7.09 0 10.63-3.96 10.63-11.88 0-2.91-.63-6.25-1.88-10L175 557.3l-1.87-5.63-1.88-4.37m376.88.63c-1.66.41-2.5 1.25-2.5 2.5 0 2.08 1.05 3.12 3.13 3.12 2.5 0 3.75-1.25 3.75-3.75l-.63-.63-3.75-1.25m-342.5 4.38-3.75-1.88c-2.08 0-3.12 1.05-3.12 3.13s1.04 3.13 3.13 3.13c2.91 0 4.37-1.05 4.37-3.13l-.63-1.25m285 18.75c2.5-6.25 5.63-9.38 9.38-9.38 4.17 0 6.87 1.88 8.13 5.63l4.37 11.25c1.25 4.17 5.42 6.25 12.5 6.25 7.5 0 11.25-2.92 11.25-8.75 0-2.08-1.25-3.54-3.75-4.38l-8.13-1.25c-4.16-.41-6.25-2.7-6.25-6.87 0-1.67 1.25-4.17 3.75-7.5l8.75-3.75h-3.75c-.41-.42-1.45-.63-3.12-.63-5.83 0-8.75 4.17-8.75 12.5 0 5.42 1.46 8.34 4.38 8.75 9.16 1.67 13.75 3.13 13.75 4.38 0 2.92-3.13 4.38-9.38 4.38-3.75 0-5.83-.63-6.25-1.88l-6.25-14.38c-2.08-4.58-5.83-6.87-11.25-6.87-6.25 0-9.38 4.17-9.38 12.5m-204.38-3.75c1.67-4.17 3.96-6.25 6.88-6.25s4.37 2.08 4.38 6.25c0 7.08-5.21 13.13-15.63 18.13 12.92-5 19.38-11.67 19.38-20 0-6.25-3.34-9.38-10-9.38-4.59 0-6.88 1.46-6.88 4.38 0 2.08.63 4.37 1.88 6.87m288.12 12.5-.63-1.88a18.6 18.6 0 0 1-9.38 2.5c-1.66 0-3.95-.83-6.87-2.5a10.07 10.07 0 0 1-3.75-8.12c0-5.83 3.96-8.96 11.88-9.38-.42-2.91-2.5-4.37-6.25-4.37-9.59 0-14.38 5.2-14.38 15.63 0 9.16 5 13.75 15 13.75 3.75 0 8.54-1.88 14.38-5.63m-370.63-19.38-1.25 1.25c0 .42-.2.84-.62 1.25.42.42.63.84.63 1.25l1.25 1.25h.62c2.08 0 3.12-.62 3.13-1.87 0-2.08-1.05-3.13-3.13-3.13h-.63m205.63 19.38-1.25-5h-25.01l-18.75-2.5-24.37-5-16.88-3.75.63 1.88c0 .41 2.5 1.45 7.5 3.12l11.25 3.75c2.92.83 5.62 1.46 8.13 1.88 2.5.41 4.79.83 6.87 1.25 10.42 1.25 16.25 1.87 17.5 1.87 2.08.42 3.54.83 4.38 1.25h7.5l15.62 1.25h6.88m-218.75-16.25c5.83 8.33 10.62 12.5 14.37 12.5 2.08 0 4.37-1.88 6.88-5.63-1.67.42-3.13.84-4.38 1.25H205c-2.92 0-7.7-2.7-14.38-8.12m90 26.25 6.25 1.25c1.67 0 3.34-.83 5-2.5l10-6.88 6.25-6.87 3.13-3.13c1.25-.41 1.87-1.45 1.88-3.12 0-1.67-1.05-2.5-3.13-2.5h-1.25l-1.25 1.25-6.88 9.38c-2.5 2.91-9.16 7.29-20 13.12m198.13-20-5 1.25c16.25 18.75 37.29 28.13 63.12 28.13 16.25 0 31.67-5.42 46.25-16.25l6.88-5 4.37-3.75 1.88-7.5-12.5 10.62-13.13 8.13-15 6.87c-5.42 2.08-11.67 3.13-18.75 3.13-22.92 0-42.3-8.55-58.13-25.63m-177.5 16.25-12.5 6.25c0 1.25.84 1.88 2.5 1.88 1.25 0 2.5-.63 3.75-1.88 1.67-1.25 6.88-4.17 15.63-8.75 6.25-2.5 12.3-3.75 18.13-3.75 4.16 0 7.91 1.88 11.25 5.63l.62 1.87v.63l-1.25 9.37 4.38-3.75c1.66-1.25 2.5-3.75 2.5-7.5 0-8.75-6.26-13.13-18.75-13.13-6.67 0-11.46 1.46-14.38 4.38l-11.88 8.75m-63.75-8.75c0 1.67.63 2.5 1.88 2.5 2.08 0 3.12-1.04 3.13-3.13 0-1.66-.84-2.5-2.5-2.5-1.25 0-2.09.63-2.5 1.88v1.25m205.62 21.88a20.74 20.74 0 0 1-1.88-8.13c0-5 2.92-7.5 8.75-7.5 4.17 0 14.17 3.75 30 11.25 7.92 3.75 16.67 5.63 26.25 5.63 1.25 0 3.54-.63 6.88-1.88l-8.13-2.5-18.13-3.75-20.62-10.63c-5-2.5-10-3.75-15-3.75-10.42 0-15.63 4.38-15.63 13.13 0 3.75 2.5 6.46 7.5 8.13m-199.38-18.13c-.83 0-1.24.42-1.24 1.25 0 1.67.62 2.5 1.87 2.5 1.67 0 2.5-.83 2.5-2.5 0-1.25-.83-1.88-2.5-1.88l-.63.63m127.5 18.13c-.41-.84-.62-2.92-.62-6.25 0-4.59 2.7-6.88 8.13-6.88 4.16 0 11.66 3.54 22.5 10.63a9.83 9.83 0 0 1 2.5 1.87c1.25.83 2.7 1.67 4.37 2.5v-2.5l-4.38-3.75-11.87-7.5c-5.83-3.75-11.46-5.63-16.88-5.63-6.25 0-9.37 3.13-9.37 9.38 0 3.75 1.87 6.46 5.63 8.13m224.38 0c-5-1.67-7.5-3.34-7.5-5l1.25-11.88-3.75 5c-1.25 2.08-1.88 3.96-1.88 5.63 0 5 1.87 7.5 5.63 7.5l6.25-1.25m-360-16.88c-1.25 0-1.88.63-1.88 1.88 0 1.66.83 2.5 2.5 2.5h1.25l.63-.63v-.63c0-2.08-.84-3.12-2.5-3.12m160.62 1.88 4.37 5 3.13 3.12c4.16 5.42 8.54 8.13 13.12 8.13 3.75 0 6.25-.21 7.5-.63l-2.5-2.5a7.33 7.33 0 0 0-1.25-1.88c-5.83-5-9.17-8.12-10-9.37-.83-1.67-2.3-2.5-4.38-2.5h-.62l-9.38.63m175-412.5 8.75 2.5 2.5 1.87 1.88 3.12-1.88 1.25a17.9 17.9 0 0 0-11.25-6.87v-1.88m34.38 23.13 2.5 1.25h1.88c.83 0 .83.42 0 1.25-.84.83-3.13 2.5-6.88 5l-1.88-.63-1.25-1.87 3.13-.63 2.5-4.37m-405 .62 3.75-3.12c0 .83-.2 2.08-.63 3.75-.41 1.25-1.66 1.88-3.74 1.87h-.63l1.25-2.5m-19.38-1.25.63 5.63h-3.75l-1.25-1.88 1.25-1.87 3.13-1.88m-1.88 9.38h1.25l-1.25 2.5h-1.25c-1.25 0-1.88-.42-1.88-1.25 0-.83.42-1.25 1.26-1.25h1.87m360-3.13c.83 2.5 1.25 4.59 1.25 6.25-3.33 2.09-5 3.34-5 3.75 0-2.08.63-3.54 1.88-4.37l1.87-5.63m-7.5-1.25c1.25.84 1.67 2.5 1.25 5-1.25 4.59-1.88 6.46-1.88 5.63 0-.42-.83-.42-2.5 0l2.5-5 .63-5.63M283.11 217.3c2.08 2.92 2.92 5.83 2.5 8.75.42-.42.63-1.04.63-1.88-1.67 7.92-3.34 12.3-5 13.13l1.87-20m236.88 2.5 1.25 1.25c0 .83-1.25 2.08-3.75 3.75-1.67 0-2.7-.63-3.13-1.88l5.63-3.12m-162.5 2.5-8.13 7.5a12.41 12.41 0 0 0-4.37 3.75 40.8 40.8 0 0 0-3.75 4.37l1.88-6.25 6.25-5.62 3.75-3.13 4.37-.62m148.75 1.25 3.13-1.88v5l-3.13-.62v-2.5m-6.25 1.25h.63c1.25 0 1.87.62 1.87 1.87 0 .42-.42.63-1.25.63h-1.88l.63-2.5m-186.25 10.62-1.25-4.37-3.13 2.5 4.38 1.87m180-8.75 1.88 2.5-1.25.63-3.13-1.88 2.5-1.25m-183.75 11.25 1.25 3.75 3.13-.62v-3.13h-4.38m1.88-9.37.62-5-2.5 1.87-1.88 2.5 3.75.63m-7.5 33.12-3.75-2.5c3.34-3.33 5.21-6.04 5.63-8.12l.63-3.75 3.12-3.75-.63 5a96.69 96.69 0 0 1-1.87 5c-.83 2.08-1.88 4.8-3.13 8.12m-20.62-13.12 3.13 3.12 5.62 1.25-5.63 1.25-3.12-5.62m37.5 6.87h1.88c-5.84 1.25-7.5 1.88-5 1.88h-6.25l2.5-2.5 1.87.62h5m-7.5 5-6.25 1.88 8.75 1.25c-.42-.42 1.04-.83 4.38-1.25 3.33-.83 5-1.46 5-1.88a22.56 22.56 0 0 0-7.5 0h-4.38m161.88 5.63h13.13l-11.25 1.87-1.88-1.87m-298.75 1.25 1.88-8.13c-.42.84-1.05 1.88-1.88 3.13-.42.83-1.25 2.08-2.5 3.75 0-.42-2.08.2-6.25 1.87.42 0 .83-.2 1.25-.62h7.5m-1.25 6.87-5.63-3.75 6.25 1.25c0-1.25 1.25-1.87 3.75-1.87l-4.37 4.37m16.88 15 3.12-5.62c-2.08 6.25-3.96 9.38-5.63 9.37-1.66 0-2.7-1.45-3.12-4.37l5.63.62m186.88.63c-.84 4.58-1.88 9.8-3.13 15.62-.83 5.84-1.67 9.17-2.5 10l-4.38 6.88.63-2.5 1.88-8.75 3.75-12.5 3.75-8.75M425 303.54l3.75 2.5c-.83 1.67-2.3 2.7-4.38 3.12-.83 0-1.45-.2-1.87-.62 0-1.25.42-1.87 1.25-1.88l1.25-3.12m-5 11.25 3.13-2.5c.41.42.62 1.25.62 2.5s-.63 1.88-1.88 1.87c-.83 0-1.45-.62-1.87-1.87m-68.13 1.87c1.67 1.67 2.5 3.96 2.5 6.88-1.66-2.5-3.12-3.96-4.37-4.38 3.75 2.09 5.62 4.8 5.63 8.13 0 6.25-2.3 9.38-6.88 9.37-2.5 0-3.75-2.5-3.75-7.5 0-2.91.63-7.29 1.88-13.12l.62-1.88 4.38 2.5m70 3.13-.63 2.5h-1.88c-1.25 0-1.87-.42-1.87-1.25 0-.83.63-1.25 1.88-1.25h2.5m17.5 4.37c-.42 1.25-1.46 2.71-3.13 4.38a40.8 40.8 0 0 1-4.38 3.75 24.83 24.83 0 0 1-3.75 3.12c-.83.42-1.04.63-.62.63-1.25 0-1.88-.42-1.88-1.25v-.63l10-8.75 3.75-10v8.75m-21.87 1.88v5l-3.13.62-.62-1.87 3.75-3.75m-5.63 9.37c.84.42 1.46.84 1.88 1.25h.63c0 1.25-.63 2.71-1.88 4.38l-2.5 4.37-3.13 6.25-5 5c-1.25-.41-1.87-1.04-1.87-1.87 0-.83.83-1.46 2.5-1.88l9.38-17.5m36.25 17.5 11.87-17.5a27.6 27.6 0 0 1-3.75 9.38c-1.25 2.08-3.33 4.58-6.25 7.5l-1.88.62m6.25-21.25 5.63-3.75-7.5 10.63-3.13 6.87-8.12 8.13-3.13.62 2.5-3.12 6.25-6.25 7.5-13.13m-75.62 6.88 3.75 1.87 5.63 1.25 5.62.63-8.13 1.25c-2.5-.42-4.79-2.08-6.87-5m1.25 6.87 13.13.63-6.88 3.12c-5.83-2.08-7.92-3.33-6.25-3.75m37.5 3.75 8.75 3.75c1.67.42 3.12.84 4.38 1.25l3.75 1.25c-6.26 1.25-10.84 1.05-13.75-.62l-3.13-5.63m-89.38 6.25h5.63c.42.42 2.5 1.05 6.25 1.88 3.75.83 5.62 1.46 5.63 1.87h-11.25c-.42 0-2.3-.41-5.63-1.25l-.63-2.5m88.75 2.5 13.13 2.5-10 1.88c-.83 0-1.88-1.46-3.13-4.38m-82.5 6.25-.62 1.88c-8.75-1.25-13.13-2.92-13.13-5v-.63l1.25-1.25c.84.84 2.71 1.88 5.63 3.13 3.33 1.25 5.62 1.88 6.88 1.87m-40-1.25v-3.12l3.75 2.5-3.75.62m2.5 5v.63l1.87 1.87c0 .84.63.21 1.88-1.87l-1.88-1.88v-.62l-1.88 1.87m66.25 3.75c-5 12.5-7.5 19.17-7.5 20v-3.12l.63-8.75 3.13-5 1.25-3.13h2.5m4.37 6.25-2.5 8.13-1.88.62 1.25-.62h-1.87v-5l3.13-5.63 1.87 2.5m91.25 3.13 2.5.62c-.42 1.67-1.04 2.5-1.88 2.5l-1.87-.62-6.25.62-1.25-2.5 8.75-.62m6.25 5.62v2.5l-5.63 1.88c-4.58 1.25-7.29 1.67-8.12 1.25l-1.25-.63-.63-3.75 6.25 1.25 6.25-1.25 3.13-1.25m-37.5 6.25-2.5 10.63-7.5 7.5 10-18.13m65 6.25 5.63-8.75-3.13 10.63c-4.58 2.5-7.5 3.75-8.75 3.75h-5.63l11.88-5.63m-204.38 3.13 13.75-.63.63 5.63-13.75-3.13-.63-1.87m213.12 2.5-9.38 5-5.62.62-6.88 1.88-3.12.62c-.83 0-1.46-.62-1.88-1.87 2.09-.42 3.55-1.04 4.38-1.88l15-3.12 10.63-6.25-3.13 5m-219.38 1.25 24.38 7.5c-7.5-.42-15.42-2.3-23.75-5.63l-.63-1.87m178.75-1.25-21.88 8.75-5 4.37-1.87-1.25c3.75-2.08 6.46-3.95 8.13-5.62 5.41-4.17 9.37-6.04 11.87-5.63l8.75-.62m-23.75 23.75-.63 3.75c0 1.25 1.05 2.5 3.13 3.75l3.13 1.25-7.5-1.88-.63-6.87h2.5m-1.88 10.62-5-.62-1.25-5.63 6.25 6.25m46.25-3.75 6.88-2.5a67.2 67.2 0 0 1-1.88 4.38l-.62 1.25-5.63-.63-12.5 3.13-1.25-1.88 15-3.75m-133.12 3.75c.84.84-.83 3.34-5 7.5v-.62l-1.25-1.25 3.13-3.13.63-3.12 1.87-.63.63 1.25m-60.63 8.75 5.63-9.37c-.42.42 3.12.62 10.62.62.83 0 1.25.63 1.25 1.88 0 .42-.2.83-.63 1.25h-5l-1.25 1.25-5 1.87-4.37 2.5h-1.25m65.63-3.12c-1.25 1.67-2.3 2.5-3.13 2.5l.63 2.5h.62l3.75-3.13v-2.5l-1.88.63m3.75 4.37c-2.5.84-3.54 1.25-3.12 1.25v.63l-.63.62v.63c0 .83.42 1.25 1.25 1.25 3.34 0 5-1.25 5-3.75-.41-.42-1.25-.63-2.5-.63m-.62 7.5 5 3.13-.63-5c0 .83-1.45 1.46-4.37 1.87m158.75 15.63a38.6 38.6 0 0 1-6.88 4.37c-2.08 1.25-4.58 2.71-7.5 4.38l-3.75.62 11.88-8.12 4.38-1.88 1.87.63m-105.62 31.25-2.5 5 1.25 6.87-3.13-.62v-6.88c0 .42.42-1.04 1.25-4.37l.63-.63 1.88-1.25.62 1.88m-183.75 20.62 1.88-3.12-3.75-1.88h-1.88l3.75 5m-3.13 1.25 1.88 3.75h-3.13l-1.25-2.5-1.25-3.75.63.63 3.13 1.88m140 12.5c0 .41.83 1.66 2.5 3.75 1.66 1.66 2.29 2.5 1.87 2.5-2.5-.84-4.17-1.88-5-3.13-4.17-4.17-6.67-7.5-7.5-10l-2.5-6.25h2.5c.83 2.08 2.5 5 5 8.75s3.54 5.2 3.13 4.38m-129.38-11.25a19.37 19.37 0 0 1-1.25 3.75v1.25c-1.67 5.41-2.5 9.37-2.5 11.87v.63c0 3.33-.84 5.2-2.5 5.62-.42-.42-1.05-2.08-1.88-5 .42.42.83 0 1.25-1.25l2.5-9.38 2.5-8.12 1.88.63m131.25 2.5 3.12 3.75.63 5-6.25-7.5-1.25-3.13 3.75 1.88m251.25 0 3.75-3.13-2.5 6.88-1.25-3.75m-380 6.87-1.25-3.13a6 6 0 0 1 4.37-1.87c2.08 0 3.12-.83 3.13-2.5 0 4.58-2.09 7.08-6.25 7.5m157.5-4.38c0 .84.2 1.46.62 1.88-2.08 1.25-5 1.88-8.75 1.88-5 0-7.5-.63-7.5-1.88l1.25-1.25 8.75.63 5.63-1.25m-155.63 8.12-1.25 1.88h-1.87c-.83 0-1.25-.42-1.25-1.25 0-2.5 1.67-3.75 5-3.75s5-.42 5-1.25c0 3.75-.63 5.62-1.88 5.62H240a6.79 6.79 0 0 0-2.5-1.25m151.88 1.88 3.13-4.38-8.75 1.25 5.63 3.13M605 542.91l.62 1.25c-4.58 4.58-9.58 7.7-15 9.37l-1.25-1.88c3.75-.83 6.25-1.87 7.5-3.12l6.25-6.25 1.88.63m-3.13 10c-3.75 4.58-6.25 6.87-7.5 6.87l-1.25-1.25c0-.42-.2-.83-.63-1.25 1.67 0 4.8-2.3 9.38-6.88v2.5m11.88 1.25-3.13 10-3.13 5.63-1.87 4.38-1.25 1.25c-1.25 0-1.88-.63-1.88-1.88v-.63c.42-.83.84-1.87 1.25-3.12l8.13-12.5 1.88-3.13" transform="translate(-146.86 -119.79)"/>
</svg>
