<svg xmlns="http://www.w3.org/2000/svg" viewBox="0 0 500 500">
  <path class="letter" d="M 194.39 415.62 L 186.89 419.37 C 178.97 422.7 174.81 424.37 174.39 424.37 C 171.47 424.37 167.1 422.7 161.27 419.37 L 137.52 407.49 C 108.77 392.91 86.68 370.2 71.27 339.37 C 55.84 308.12 48.14 271.04 48.14 228.12 C 48.14 181.44 63.97 139.16 95.64 101.24 C 127.31 63.32 162.72 44.36 201.89 44.36 C 210.22 44.37 216.89 45.61 221.89 48.11 L 229.39 52.49 C 231.89 53.32 233.14 54.16 233.14 54.99 C 233.14 56.24 232.31 56.86 230.64 56.86 L 226.27 56.24 C 184.18 52.91 149.39 68.53 121.89 103.11 C 94.8 137.7 81.26 180.83 81.26 232.49 C 81.26 269.99 89.39 304.36 105.64 335.61 C 121.89 366.86 142.72 388.11 168.14 399.36 L 179.39 404.99 L 199.39 411.87 Z M 112.51 342.49 L 112.507 342.481 C 112.512 342.487 112.516 342.494 112.52 342.5 Z M 112.507 342.481 C 103.333 328.308 95.217 304.355 88.14 270.62 L 87.51 257.5 C 85.85 251.25 85.01 242.5 85.01 231.25 C 85.01 190.42 92.72 156.67 108.14 130 C 109.862 126.061 111.955 122.294 114.39 118.75 C 116.109 115.936 117.985 113.222 120.01 110.62 C 121.26 108.96 125.43 104.58 132.51 97.5 L 146.26 86.87 C 149.6 84.79 152.51 82.92 155.01 81.25 C 157.94 79.58 160.64 77.92 163.14 76.25 C 184.81 64.58 207.1 58.75 230.01 58.75 C 238.76 58.75 243.14 59.79 243.14 61.87 C 243.14 63.12 242.1 63.75 240.02 63.75 L 233.14 63.12 L 228.14 62.5 C 192.72 60.83 161.47 73.54 134.39 100.62 C 107.31 127.7 92.72 161.24 90.64 201.24 L 90.02 209.99 C 89.59 212.08 89.39 214.16 89.39 216.24 L 89.39 230.62 C 89.39 261.04 92.31 284.99 98.14 302.49 L 110.64 335.62 Z M 277.52 46.25 L 277.52 46.251 C 277.517 46.251 277.513 46.25 277.51 46.25 Z M 277.52 46.251 C 306.687 49.173 337.514 62.503 370.01 86.25 C 398.76 107.92 417.72 130.62 426.89 154.37 L 438.76 186.87 C 441.68 193.96 443.14 198.96 443.14 201.87 C 443.14 203.12 442.31 203.96 440.64 204.37 C 432 208.507 422.684 211.048 413.14 211.87 L 411.89 211.87 C 408.14 211.88 405.85 210.42 405.02 207.5 C 404.6 204.17 404.18 201.04 403.77 198.12 L 396.89 176.87 C 387.72 148.12 373.35 123.54 353.77 103.12 C 334.19 82.29 311.89 68.54 286.89 61.87 C 280.22 60.2 277.1 56.25 277.52 50 Z M 401.9 110.62 L 401.939 110.677 C 401.92 110.661 401.9 110.646 401.88 110.63 Z M 401.939 110.677 C 420.248 125.264 433.349 145.658 441.26 171.88 L 448.14 192.51 L 449.4 198.12 L 449.4 198.75 C 449.4 200.83 448.56 201.87 446.9 201.87 C 445.23 201.88 444.19 199.79 443.77 195.62 L 443.15 194.37 L 443.15 193.12 C 441.07 185.21 438.77 178.13 436.27 171.87 C 434.432 165.774 431.917 159.904 428.77 154.37 L 428.15 151.25 L 419.4 135.62 L 418.15 134.37 L 410.65 123.12 L 408.77 120.62 Z M 453.76 224.37 L 453.76 255 C 453.76 260.83 451.68 264.37 447.51 265.62 L 448.13 255 C 449.38 248.75 450.01 243.75 450.01 240 C 450.01 237.08 449.8 233.75 449.39 230 C 448.97 225.83 448.34 221.25 447.51 216.25 L 451.26 214.37 C 452.51 220.63 453.34 223.96 453.76 224.37 Z M 445.01 219.37 L 446.26 220.62 L 446.26 241.25 L 445.64 256.25 C 445.21 263.33 444.18 267.29 442.51 268.12 C 441.26 268.96 439.39 269.58 436.89 270 L 430.01 271.25 L 419.39 271.25 C 416.46 270.83 413.76 269.58 411.26 267.5 L 409.38 266.87 L 411.26 243.12 L 411.26 242.5 C 411.26 244.17 410.63 238.96 409.38 226.87 L 409.38 224.37 L 429.38 222.5 C 431.599 221.628 433.906 220.998 436.26 220.62 C 438.76 219.79 441.05 218.96 443.13 218.12 C 443.817 218.437 444.452 218.859 445.01 219.37 Z M 398.73 388.74 C 404.98 382.49 408.53 378.74 409.36 377.49 L 424.36 351.24 C 427.28 346.66 431.86 334.57 438.11 314.99 C 438.94 312.07 439.57 309.37 439.98 306.87 C 440.453 304.127 441.08 301.412 441.86 298.74 C 443.94 290.41 446.03 286.24 448.11 286.24 L 448.73 286.24 L 449.36 286.86 C 437.28 351.87 409.99 395.83 367.49 418.74 C 358.32 424.17 352.9 426.87 351.24 426.87 C 349.57 426.87 348.74 425.83 348.74 423.75 C 348.74 424.58 352.28 422.7 359.36 418.12 L 369.36 412.5 L 374.98 409.37 L 378.11 406.87 L 398.74 388.74 Z M 439.36 289.36 C 439.357 289.361 439.355 289.361 439.352 289.362 L 439.35 289.36 Z M 439.352 289.362 L 441.23 291.23 L 439.35 297.48 C 422.27 364.57 392.48 405.2 349.98 419.36 L 347.48 420.61 C 346.64 420.61 345.39 421.03 343.72 421.86 L 343.72 426.24 C 364.56 438.32 387.47 444.37 412.47 444.37 C 429.97 444.37 446.64 437.49 462.47 423.74 L 464.97 417.49 C 465.4 413.32 466.43 411.24 468.1 411.24 C 469.77 411.24 470.6 412.7 470.6 415.61 C 470.6 430.19 462.27 443.32 445.6 454.99 C 428.93 466.66 410.6 471.87 390.6 470.62 L 369.35 468.74 L 361.85 467.49 L 292.48 449.99 L 219.98 435.62 L 228.73 431.87 C 230.563 430.756 232.438 429.712 234.35 428.74 C 236.04 427.738 237.707 426.698 239.35 425.62 C 239.77 425.19 241.02 424.99 243.1 424.99 L 252.49 424.99 C 255.41 424.99 258.94 425.2 263.11 425.61 L 266.24 426.24 C 292.07 427.07 315.82 420.41 337.48 406.24 C 360.81 391.66 376.86 374.57 385.61 354.99 L 387.48 349.99 L 393.73 337.49 C 395.504 333.44 396.968 329.261 398.11 324.99 C 399.864 319.658 401.323 314.233 402.48 308.74 C 405.82 296.66 407.07 290.61 406.23 290.61 C 407.9 290.61 410.4 291.03 413.73 291.86 C 417.07 292.7 419.57 293.11 421.23 293.11 C 424.559 293.12 430.606 291.861 439.352 289.362 Z M 473.1 427.48 C 473.1 433.31 468.31 441.03 458.72 450.61 L 446.22 463.11 C 435.39 473.11 417.47 478.11 392.47 478.11 C 377.47 478.11 361.43 476.03 344.35 471.86 L 231.85 444.99 L 212.47 439.99 C 212.89 438.74 213.72 438.11 214.97 438.11 C 217.47 438.11 218.93 438.32 219.35 438.73 L 268.72 447.48 L 279.35 450.61 L 288.72 452.48 L 294.97 454.36 L 301.85 456.23 L 305.6 456.86 C 308.334 457.602 311.042 458.436 313.72 459.36 C 317.47 460.19 321.43 461.23 325.6 462.48 C 329.238 463.158 332.796 464.207 336.22 465.61 C 339.55 466.44 341.43 466.86 341.85 466.86 L 344.97 467.48 C 349.14 467.9 351.85 468.53 353.1 469.36 L 366.85 471.23 L 379.97 473.11 C 383.31 473.53 385.39 473.74 386.22 473.74 L 391.22 473.74 C 399.97 474.15 409.56 473.11 419.97 470.61 C 433.31 466.86 445.39 458.94 456.22 446.86 C 461.22 442.69 465.81 436.24 469.97 427.49 L 472.47 420.61 C 472.89 421.86 473.1 424.15 473.1 427.48 Z M 158.72 422.48 C 159.97 422.9 161.02 423.32 161.85 423.73 C 165.6 423.73 167.89 424.36 168.73 425.61 L 168.73 426.86 L 163.1 425.61 L 159.35 423.74 L 156.22 423.11 L 155.6 422.49 C 155.6 422.07 155.39 421.44 154.97 420.61 Z M 246.89 43.74 C 249.39 43.75 250.64 44.37 250.64 45.62 C 250.64 47.29 250.43 48.33 250.01 48.74 L 246.89 44.99 L 245.64 43.74 Z"></path>
  <path d="M146.86 619.79v-500h500v500h-500m7.5-7.5h485v-485h-485v485m7.5-7.5V135.41h469.38v469.38H161.86m20-464.38-2.5 1.87a30.2 30.2 0 0 1-3.13 1.88l-.62.62c-.42.84-1.04 2.3-1.88 4.38-.41 2.08-1.04 4.8-1.87 8.12l-2.5-1.87h-1.25c-.83 0-1.67 1.04-2.5 3.12v.63-1.25 8.12l.63 2.5.62 1.25c3.33 7.5 8.75 11.67 16.25 12.5l-1.25 3.13c-2.08 1.25-3.13 2.5-3.13 3.75 0 3.33 1.46 5 4.38 5l7.5 1.25 1.25 1.25h.63c1.25 0 2.7-.83 4.37-2.5 5.42-6.25 8.75-9.37 10-9.38l1.25-.62h1.25l3.13 3.12 1.25 3.13c0 .83-1.05 2.3-3.13 4.37l-6.25 4.38-3.13 3.12c.84 2.5 1.26 3.55 1.26 3.13-1.67 2.08-3.34 5.2-5 9.37l-3.13-2.5-1.25 9.38h1.25c2.92-.83 4.58 0 5 2.5-1.25 5.83-1.88 8.96-1.88 9.37 0 2.5.21 3.76.63 3.75l1.25 1.25 3.13 3.75c.83.84 2.08 1.25 3.75 1.25 8.33 0 14.58-4.58 18.75-13.75l8.75-20c3.33-7.08 8.33-11.04 15-11.87-3.34-2.08-5.21-3.12-5.63-3.13-2.5 0-5.83 2.5-10 7.5a15.69 15.69 0 0 0-3.75 6.25l-4.38 13.75c-1.66 6.67-5.41 10-11.24 10-5 0-7.5-2.91-7.5-8.75 0-6.24 4.58-12.7 13.75-19.37l1.25.62-.63-1.25 6.25-5c2.5-1.66 5.2-3.54 8.13-5.62 9.58-6.25 14.37-12.92 14.37-20 0-.42-1.04-3.75-3.13-10-2.5-3.33-5.2-5-8.12-5-6.67 0-15.83 3.96-27.5 11.87l-5.63 1.88c-5.83 1.25-10 1.88-12.5 1.87-8.75 0-13.12-4.79-13.12-14.37 0-7.08 2.92-10.63 8.75-10.63 2.92 0 5.42 1.25 7.5 3.75l4.38 7.5c.41 1.67 2.5 2.5 6.25 2.5 3.33 0 6.87-1.04 10.62-3.12 3.75-2.5 5.62-5.42 5.63-8.75v-2.5c-5 6.25-9.38 9.38-13.13 9.37-3.75 0-6.88-1.66-9.38-5l-6.24-9.37-5.63-2.5h-6.25m240.62 2.5h-1.25c-1.25 0-3.13 2.08-5.63 6.25l-3.12 3.12c-1.67 0-3.33-1.87-5-5.62a29 29 0 0 0-6.25 18.12c0 2.09.63 4.59 1.88 7.5l4.37 5.63 4.38 5 5 3.12c1.66.42 2.5 1.25 2.5 2.5 0 1.67-1.25 2.5-3.75 2.5-2.09 0-4.38-.62-6.88-1.87v3.12l1.88 4.38 1.25 5 5.62 6.25 5.63 5 6.87 3.75v3.12h-10l.63 2.5 9.37 7.5 8.75 5.63 5 2.5 5.63 4.37 4.37 3.75 3.75 3.75-1.25-.62 3.75 4.37c6.25 7.5 11.88 21.05 16.88 40.63l1.25 5.62.62 12.5h-1.25l-2.5-6.25c-.83-2.5-1.46-4.79-1.88-6.87l-2.5-19.38-3.75-8.75a48.9 48.9 0 0 0-6.87-11.87 105.5 105.5 0 0 0-9.38-11.88v.63l-14.37-9.38-8.13-6.25-3.75-1.87-1.25-1.25c-5.41-4.17-10.62-6.25-15.62-6.25-2.5 0-5.42.42-8.75 1.25l-6.88 4.37-9.37 1.88c1.25 4.58 3.75 7.08 7.5 7.5l.63 6.87-1.25 1.25v5l-.63 5 1.88 4.38c2.91 5 6.66 7.5 11.25 7.5 2.08 0 4.37-1.46 6.87-4.38-6.67-1.66-10-4.79-10-9.37 0-8.33 5.2-12.5 15.63-12.5 2.5 0 6.66 1.25 12.5 3.75l18.75 13.12 9.37 12.5 2.5 4.38 10 19.37 2.5 8.13 5 19.37a95.24 95.24 0 0 1 2.5 21.88c0 15-2.7 30.62-8.13 46.87 0 4.59.84 6.88 2.5 6.88 4.17 0 7.5-7.08 10-21.25l2.5-12.5.63-11.25v-35l-4.38-31.88-3.75-16.87-7.5-20.63-4.37-9.37-7.5-11.88-4.38-9.37-26.25-33.75c-5-6.67-7.5-13.13-7.5-19.38 0-10.41 4.17-15.62 12.5-15.62 3.75 0 8.55 4.17 14.38 12.5l3.75 3.12 9.38-1.25 6.87-7.5c1.67-2.5 4.17-3.74 7.5-3.75 5.83 0 8.75 2.3 8.75 6.88 0 2.08-.83 4.58-2.5 7.5 4.58-3.33 6.87-6.46 6.88-9.38 0-7.08-4.38-10.62-13.13-10.62-3.33 0-6.67 1.67-10 5a16.45 16.45 0 0 1-10 5c-3.33-2.08-6.46-5.42-9.38-10a15.93 15.93 0 0 0-3.75-3.75l-12.5-1.88h-1.87l-3.75 1.88m-40 15.62-.63-4.37c0-4.17 1.25-6.25 3.75-6.25 2.09 0 4.8 1.04 8.13 3.12l.63-3.12c0-4.17-2.92-6.25-8.75-6.25-5.84 0-8.76 2.7-8.75 8.12 0 2.09 1.87 5 5.62 8.75m154.38-9.37c-2.5 1.67-5.2 3.33-8.13 5a61.6 61.6 0 0 0-8.12 5l-.63 1.87 7.5.63 11.25-5.63c1.67-1.66 5.84-2.5 12.5-2.5 5.42 0 10.84 1.46 16.25 4.38l1.88 1.25 1.25 1.87 3.75 6.88-.63 4.37-2.5 2.5-.62.63c0 3.33 2.08 5 6.25 5 4.58 0 7.08-2.08 7.5-6.25l2.5-6.25 5.63 1.87 5 1.88 1.25 1.25a9.84 9.84 0 0 1 2.5 1.87c2.08 2.5 3.95 5 5.62 7.5s3.12 4.8 4.38 6.88c.41.83.62 1.67.62 2.5.42.83 1.04 1.88 1.88 3.12v-1.25c0-2.91-1.05-6.04-3.13-9.37-2.92-4.58-5.2-7.7-6.88-9.38-3.33-3.33-5-5.2-5-5.62v-1.25c0-.83.42-1.25 1.25-1.25h1.25l1.25 2.5 2.5 1.87 1.88 2.5 1.25 2.5c1.25 2.5 3.75 6.26 7.5 11.25.42-2.08.63-3.95.63-5.62.41-2.08.62-3.54.62-4.38 0-2.08-1.67-6.04-5-11.87l-3.75-5.63c6.25-3.33 9.58-8.12 10-14.37-8.33 2.5-15 3.75-20 3.75-4.17 0-9.58-.63-16.25-1.88l-6.25-1.25a80.54 80.54 0 0 0-16.88-1.87c-3.75 0-11.04 1.67-21.87 5m-235.62-2.5c-7.5.42-14.8 1.46-21.88 3.12a196.07 196.07 0 0 0-21.25 5l4.38 8.13v1.87l6.88-1.87 11.25-3.13c10.83-3.33 23.54-5 38.12-5 27.92 0 49.8 6.05 65.63 18.13l19.37 14.37c2.08-2.08 3.12-3.54 3.13-4.37a18.84 18.84 0 0 0-2.5-1.88c-.84-.83-2.3-2.08-4.38-3.75l-13.75-11.25c-7.92-5.41-18.54-10-31.88-13.75a138.44 138.44 0 0 0-38.75-5.62h-14.37m202.5-1.25c-.83 6.25-2.08 10.62-3.75 13.12l-7.5 6.88c0 .42-.2.83-.63 1.25v1.25c0 2.5 2.09 4.38 6.25 5.62l-.62 3.13-5 6.25a6.02 6.02 0 0 0 5 4.37c1.25-2.91 4.37-6.24 9.38-10 1.66 3.76 3.54 5.63 5.62 5.63.83 0 1.67-.42 2.5-1.25l11.25-8.75c.83-.83 2.08-1.25 3.75-1.25 2.92 0 6.04 1.67 9.38 5-.42-7.92-5.63-11.88-15.63-11.88-2.92 0-6.67 1.67-11.25 5l-1.88.63-1.25 2.5c-.83 1.25-1.66 1.88-2.5 1.87-1.25 0-1.87-.41-1.87-1.25 0-2.08.83-5 2.5-8.75 2.08-4.16 3.12-7.08 3.13-8.75 0-2.5-2.3-6.04-6.88-10.62m-253.12 16.25 1.88 3.12 1.87 7.5v5c2.92-4.16 4.37-7.5 4.38-10 0-.83-.42-2.08-1.25-3.75-.42-2.08-1.25-3.54-2.5-4.37l-3.13-4.38h-2.5l1.25 6.88m56.25-3.13-2.5 1.88 10.63-.63-8.13-1.25m-6.25.63h-3.75c-16.67 1.67-25 6.46-25 14.37 0 3.76 2.7 5.63 8.13 5.63h2.5a8.48 8.48 0 0 1-2.5-6.25c0-5 3.12-8.12 9.37-9.38l8.13-1.87 6.25-2.5h-3.13m91.88 4.37 1.25 1.25 3.12 3.75c.42-.41.63-1.45.63-3.12 0-1.25-1.25-1.87-3.75-1.88h-1.25m-46.25 368.13-20-6.88-11.25-5.63c-25.42-11.25-46.25-32.5-62.5-63.75s-24.38-65.62-24.38-103.12c0-51.66 13.54-94.79 40.63-129.38 27.5-34.58 62.29-50.2 104.38-46.87l4.37.62c1.67 0 2.5-.62 2.5-1.87 0-.83-1.25-1.67-3.75-2.5l-7.5-4.38c-5-2.5-11.67-3.74-20-3.75-39.17 0-74.58 18.96-106.25 56.88S195 301.23 195 347.91c0 42.92 7.7 80 23.13 111.25 15.41 30.83 37.5 53.54 66.25 68.12l23.75 11.88c5.83 3.33 10.2 5 13.12 5 .42 0 4.58-1.67 12.5-5l7.5-3.75 5-3.75m-86.88-69.38-1.87-6.87-12.5-33.13c-5.83-17.5-8.75-41.45-8.75-71.87V336.03c0-2.08.2-4.16.63-6.25l.62-8.75c2.08-40 16.67-73.54 43.75-100.62s58.33-39.79 93.75-38.12l5 .62 6.88.63c2.08 0 3.12-.63 3.12-1.88 0-2.08-4.38-3.12-13.13-3.12-22.91 0-45.2 5.83-66.87 17.5-2.5 1.67-5.2 3.33-8.13 5-2.5 1.67-5.41 3.54-8.75 5.62l-13.75 10.63c-7.08 7.08-11.25 11.46-12.5 13.12a87.5 87.5 0 0 0-5.62 8.13 67.88 67.88 0 0 0-6.25 11.25c-15.42 26.67-23.13 60.42-23.13 101.25 0 11.25.84 20 2.5 26.25l.63 13.12c7.08 33.75 15.2 57.71 24.38 71.88m165-296.25v3.75c-.42 6.25 2.7 10.2 9.37 11.87 25 6.67 47.3 20.42 66.88 41.25 19.58 20.42 33.95 45 43.12 73.75l6.88 21.25c.41 2.92.83 6.05 1.25 9.38.83 2.92 3.12 4.38 6.87 4.37H560a79.47 79.47 0 0 0 27.5-7.5c1.67-.41 2.5-1.25 2.5-2.5 0-2.91-1.46-7.91-4.38-15l-11.87-32.5c-9.17-23.75-28.13-46.45-56.88-68.12-32.5-23.75-63.33-37.08-92.5-40m123.13 17.5-1.25 10.62-3.75-.62-5.63-3.13h-10a23.63 23.63 0 0 0 5 7.5l1.25 3.13 2.5 5 4.38 7.5a100.92 100.92 0 0 0 21.87 17.5l-1.25-2.5c2.5-.83 3.54-1.25 3.13-1.25a13.43 13.43 0 0 1 2.5 3.12c2.91 2.92 7.7 4.17 14.37 3.75h2.5c1.25-.41 2.7-.83 4.38-1.25v-.62c-7.09-1.67-14.8-5.62-23.13-11.88l-3.75-5h6.88l-2.5 1.88 2.5 1.87c8.33 7.09 17.08 10.63 26.25 10.63 2.5 0 4.58-1.46 6.25-4.38h-6.88c-3.33 0-6.04-1.04-8.13-3.12 1.25.42 3.55.62 6.88.62 4.58 0 7.7-.83 9.38-2.5l7.5-5.62c2.08-1.25 3.33-2.3 3.75-3.13a30.3 30.3 0 0 1 1.87-3.12c1.25 0 1.87.62 1.88 1.87 0 .84-.21 1.46-.63 1.88l-3.13 3.75-2.5 4.37-4.37 4.38-8.75 6.25c-9.17 7.5-13.75 16.04-13.75 25.62v1.88l2.5 6.25c3.75 5.42 8.54 8.13 14.38 8.12 5.41 0 10-1.87 13.75-5.62a21.65 21.65 0 0 0 5.62-15c0-2.92-2.5-6.67-7.5-11.25l1.25 12.5c-3.33 7.08-7.08 10.62-11.25 10.62-2.5 0-4.17-.2-5-.62l-2.5-1.25c-3.33-3.33-5-6.46-5-9.38 0-5.83 1.67-10.41 5-13.75l14.38-13.75c8.33-7.5 12.7-16.45 13.12-26.87l.63-5.63v-2.5c.41-2.91-.63-5.41-3.13-7.5l-2.5 13.13-3.13 5.62c-5 11.25-11.66 16.88-20 16.88-2.91 0-6.04-.83-9.37-2.5-2.92-2.5-4.38-5.2-4.38-8.13 0-7.08 2.3-10.2 6.88-9.37h5v-1.25c0-5.42-3.13-8.12-9.38-8.13l-1.25.63c-1.25 0-2.7 1.04-4.37 3.12-1.25 2.09-2.5 3.13-3.75 3.13-2.5 0-3.33-2.5-2.5-7.5v-2.5c0-2.08-1.67-5.42-5-10l-3.75-4.38-6.25-3.75-3.75 10-4.38 5.63m-210.62 21.25 10 1.87v8.75c2.92 6.67 7.3 10 13.13 10 4.58 0 7.92-1.25 10-3.75l10.63-10 7.5-1.25c-2.09-2.5-4.17-3.74-6.25-3.75l-2.5 2.5a81.12 81.12 0 0 0-7.5 6.88l-6.25.62c-5-1.66-7.5-5-7.5-10 0-8.74 4.79-13.12 14.37-13.12 14.17 0 24.58 3.33 31.25 10 2.08 2.08 3.33 3.13 3.75 3.12l1.88.63 3.75 4.37c-.84-3.33-3.13-6.24-6.88-8.75l-10.63-8.75c-.83-.83-2.7-1.66-5.62-2.5l-10-3.12c-3.33-.83-7.5-1.25-12.5-1.25h-.63c-3.75 0-8.75 1.25-15 3.75-5.83 2.08-10.83 6.67-15 13.75m-165.62 20.62 1.25-5 5.63-3.12c.42 0 2.92-4.17 7.5-12.5l-3.75 2.5-5 6.87-.63.63c-4.58 0-7.08-1.25-7.5-3.75l-.62-8.75-3.75 5c-.42.42-.63 1.46-.63 3.12 0 2.5 2.5 7.5 7.5 15m27.5-22.5c-2.08 3.34-3.12 5.21-3.12 5.63v2.5l3.13-8.13m94.37 15c-3.33 4.59-5 7.71-5 9.38 0 1.25.2 2.92.63 5 .83 2.08 1.25 3.54 1.25 4.37 0 1.67-2.09 2.5-6.25 2.5h-1.25c4.58 5.84 8.95 8.76 13.12 8.75 1.25 0 3.12-.2 5.63-.62 2.5-.83 4.37-1.25 5.62-1.25 2.5 0 4.37.2 5.63.62 0 1.67.2 2.71.62 3.13l-.63.62-1.87.63-10 1.25c-6.25.83-10.2 4.38-11.88 10.62l3.13 1.25c-5.42 9.17-7.92 15.21-7.5 18.13v3.75l.63 8.12 6.25-4.37 10.62-4.38 3.75-5 2.5 1.25c.42 2.92 1.25 4.38 2.5 4.38 1.25-.42 1.87-.83 1.88-1.25l4.37-11.25c1.67-5.42 6.67-8.12 15-8.13 2.92 0 4.37.84 4.38 2.5 0 1.25-.63 1.88-1.88 1.88l-3.75.62-3.13 1.88-6.87 6.25c-1.67 2.92-2.5 5-2.5 6.25l1.25 1.25c2.08 0 3.54-.2 4.38-.63v4.38c-.84 12.5 3.54 18.75 13.12 18.75 4.17 0 7.5-3.33 10-10-3.33 1.25-5.63 1.88-6.88 1.87-1.25 0-3.12-.62-5.62-1.87-2.5-4.17-3.75-7.08-3.75-8.75 0-5.83 3.12-10.42 9.38-13.75l5-1.25 13.75 1.87 1.25-3.12 5.62-2.5 3.13-3.75h1.87v1.25l-8.13 7.5c8.75-1.25 13.13-6.25 13.13-15 0-7.5-5-14.8-15-21.88-5.83-3.33-9.8-5-11.88-5h-.62l-27.5 3.75c-.83.42-2.92.63-6.25.63-10.83 0-16.25-4.37-16.25-13.13 0-7.08 4.37-10.62 13.13-10.62 2.5 0 3.95.83 4.37 2.5l3.75 6.25c1.25 2.92 3.33 4.38 6.25 4.37 7.08 0 10.42-2.5 10-7.5v-2.5c-3.33 3.34-5.83 5-7.5 5a7.84 7.84 0 0 1-6.88-3.75l-3.75-6.87c-1.25-1.67-3.75-2.5-7.5-2.5-4.58 0-10.2 2.7-16.87 8.12m188.12-6.87-.63 4.37c-1.66.42-2.5 1.88-2.5 4.38v10.62c0 6.67 1.25 14.59 3.75 23.75a88.06 88.06 0 0 1 3.13 15 458.3 458.3 0 0 1 1.88 8.75l2.5 32.5-.63 55.63c2.92-2.5 4.37-4.17 4.38-5 .41-.83.83-5 1.25-12.5l.62-15.63-1.25-18.12v-13.13l-8.75-70 1.25-16.25-5-4.37m-307.5 28.75-.63 1.87c-3.33 13.34-5 22.3-5 26.88V276.66c0 2.92-.2 5.42-.62 7.5v9.38c0 8.33 1.25 16.46 3.75 24.37l3.13 8.75 1.87 6.88 1.88 3.12 3.12 6.88 1.88 4.37 3.12 5 .63 1.25a5.71 5.71 0 0 0 3.75 4.38v-3.13c0-2.08.2-3.74.62-5v-3.12c0-1.67-2.7-7.92-8.13-18.75-5.41-9.17-8.12-23.33-8.12-42.5v-3.13c-.42-4.16.63-14.79 3.13-31.87.83-6.67 1.87-11.25 3.12-13.75l6.88-14.38c.41-.41.62-1.45.62-3.12v-2.5c0-2.08-.2-3.75-.63-5h-1.25l-3.12 6.25-3.13 5.62-2.5 4.38-1.87 5-2.5 6.25m294.38-11.88 3.13 5c.41-1.25.62-2.91.62-5v-3.75c0-6.24-1.25-9.37-3.75-9.37-2.08 0-3.13 1.25-3.13 3.75 0 1.25 1.05 4.38 3.13 9.37m80.63 2.5 6.87 10 1.88 2.5 2.5 3.75 5 7.5 1.25 1.25 8.75 15.63.62 3.12a85.1 85.1 0 0 1 7.5 17.5c2.5 6.26 4.8 13.34 6.88 21.25v1.25l.62 1.25c.42 4.17 1.46 6.26 3.13 6.25 1.66 0 2.5-1.04 2.5-3.12v-.63L595 312.3l-6.88-20.63c-7.92-26.25-21.04-46.66-39.38-61.25m-360.62 4.38a61.84 61.84 0 0 0-5.62 25.62c0 2.5 1.25 6.05 3.75 10.63 2.5 4.17 5.2 6.25 8.13 6.25 8.33 0 12.5-4.8 12.5-14.38a8.11 8.11 0 0 0-4.38-7.5v8.75c-3.33 2.09-5.42 3.13-6.25 3.13-4.17 0-7.3-5.42-9.38-16.25l1.25-16.25m308.13 14.37c-2.92 2.92-4.38 6.05-4.38 9.38v1.25c.42 3.33.83 7.7 1.25 13.12.83 5.42 1.87 11.88 3.13 19.38.41.42.62 1.25.62 2.5s.2 2.3.63 3.12l-1.25-27.5c.41-10 2.7-15 6.87-15 1.67 0 4.17 1.67 7.5 5l.63 8.13-1.25 2.5c3.33-4.58 5-8.33 5-11.25 0-8.75-4.8-13.13-14.38-13.13-1.67 0-3.13.84-4.38 2.5m-116.88 3.75c.42 2.09.63 3.76.63 5 .42 1.25.63 2.09.63 2.5 0 2.09-.63 5.21-1.88 9.38l-7.5 10c1.25.42 2.08.83 2.5 1.25H375c7.5 0 11.25-5 11.25-15 0-4.17-2.3-8.54-6.88-13.13m-120 25.63-.62 1.25-1.25 3.12-2.5 8.13a329.9 329.9 0 0 1-2.5 12.5 71.59 71.59 0 0 0-.63 8.75v8.75c0 1.25.21 2.7.63 4.37l.63 11.25 1.25 5c.41 1.25.62 3.55.62 6.88 0 2.5-1.67 10.42-5 23.75 7.92-4.17 12.3-9.58 13.13-16.25.41-2.92 1.04-4.37 1.87-4.38 1.67 0 2.7.21 3.13.63l.62-6.88-6.88-16.25a25.17 25.17 0 0 1-1.87-10c0-8.74 2.08-13.12 6.25-13.12 1.25 0 2.08.2 2.5.62l1.88 5-3.75 7.5v5.63l1.25 1.87-.63-3.12c0-2.92 1.04-4.37 3.13-4.38l.62 3.75 1.25 1.88-.63 2.5 3.13 4.37c-.42-.83-.63-2.7-.63-5.62 0-2.08.63-3.12 1.88-3.13 0 .42.42 2.3 1.25 5.63l3.13 4.37-5.63-1.25v1.88c0 2.08.42 3.54 1.25 4.37 1.25.84 1.87 1.46 1.88 1.88 0 .83-.42 1.25-1.25 1.25-.84 0-1.46-.2-1.88-.63l-4.38-5v3.13l2.5 2.5.63 2.5 1.88 2.5 3.12 5.62 1.88-2.5v-2.5h3.12c4.17 5.84 9.17 8.34 15 7.5h13.75l5 1.88v-3.75c.42-5.42-2.08-8.75-7.5-10l1.25-1.25c-1.67-.42-2.5-1.04-2.5-1.88 0-1.25.63-1.87 1.88-1.87 5-1.25 7.5-2.7 7.5-4.38 0-1.25-2.5-2.91-7.5-5a8 8 0 0 1-5-3.12c-5.84-4.17-8.34-9.17-7.5-15v-3.13l-2.5-.62v-1.88c1.25-.41 3.54-2.08 6.87-5-.83-.83-1.67-1.25-2.5-1.25l-2.5.63c.42-2.5 1.67-3.75 3.75-3.75h2.5l1.88 1.87-2.5 3.13c2.08 0 3.12.42 3.12 1.25 0 .83-.2 1.46-.63 1.87-3.33 0-5.83.84-7.5 2.5l6.25 1.25 1.25 8.75c2.92 5.42 8.13 9.8 15.63 13.13l2.5 1.87c1.67 3.76 3.54 5.63 5.63 5.63l1.25-.63 2.5-3.12H345c2.92 0 4.8-2.5 5.63-7.5v-1.25c0-.83-.21-1.67-.63-2.5 0-.83-.2-2.08-.63-3.75-2.91 4.17-6.87 6.25-11.87 6.25-10 0-16.67-6.67-20-20l-1.88 8.12-1.87-13.12h1.88l2.5 5v-6.88c0-2.5-.42-3.74-1.25-3.75l-4.38-.62-5.63-.63c-4.58 0-8.54.84-11.87 2.5-2.08 1.25-3.33 2.5-3.75 3.75L290 299.8l-2.5 8.12v8.13l1.25 3.12c.42.84.83 2.09 1.25 3.75a96.69 96.69 0 0 0 1.88 5h-3.13l-1.88-3.75-1.87-1.87-.63-3.13-1.25-6.25v-8.75l-3.75-7.5c-.83-3.33-1.25-5.41-1.25-6.25l1.25-13.12c0-1.67.21-2.7.63-3.13l4.38-7.5-1.25-4.37 1.25-6.88h-1.88c-6.25 0-13.96 7.71-23.13 23.13m149.38 16.87v3.75c.42 4.17.42 7.71 0 10.63 0 2.5-.2 4.58-.62 6.25l-1.88 8.12-1.25 6.25 2.5-3.75.63-4.37 2.5-6.88 3.13-25c2.08-10.83 7.7-16.25 16.87-16.25 3.33 0 6.67 1.88 10 5.63.42.83.63 2.7.63 5.62 0 1.25-1.67 4.17-5 8.75 7.5-1.66 11.25-6.45 11.25-14.37 0-10-5.84-15-17.5-15a20.8 20.8 0 0 0-11.25 3.12c-6.67 5.42-10 14.59-10 27.5m-20-20.62c-1.25 2.08-1.88 3.75-1.88 5s.63 2.08 1.88 2.5l.62 1.87c5.83 8.34 8.33 15 7.5 20v1.88l-3.13 30.62c0 1.67.84 2.5 2.5 2.5.84 0 1.67-1.04 2.5-3.12l1.25-3.75.63-2.5c2.08-5.42 3.12-12.7 3.13-21.88 0-.83-.21-2.08-.63-3.75 0-2.08-.2-4.37-.63-6.87-.41-1.67-.83-3.54-1.25-5.63a58.02 58.02 0 0 0-1.87-6.87l-3.13-5.63-6.25-6.87-1.25 2.5m225.63 31.25-.63.62-1.88 3.75c-2.08 2.09-3.12 3.76-3.12 5l.63 1.88 1.25 1.87c8.33-8.33 12.5-17.5 12.5-27.5 0-9.16-3.55-13.75-10.63-13.75-4.17 0-6.46.84-6.88 2.5l-.62 2.5 9.38.63c2.91 0 4.37 3.33 4.37 10 0 2.92-1.46 7.08-4.38 12.5m-25-25 1.25 3.75 5 3.75 8.75 5c.84.42 1.88 1.25 3.13 2.5 1.25.83 2.92 2.08 5 3.75v-6.88l-5.63-3.75-3.75-2.5a33.22 33.22 0 0 0-13.75-5.62M180 279.79l-.62 11.25v1.87c.42 8.76 3.33 13.13 8.75 13.13 4.17 0 6.25-1.67 6.25-5 0-2.08-.2-3.33-.63-3.75-.83.42-2.29.62-4.37.62-1.67 0-3.33-1.25-5-3.75l-4.38-14.37m322.5 14.37-.62 7.5c0 2.5 1.67 6.67 5 12.5.83.84 1.67 2.09 2.5 3.75 2.92 5 7.92 9.8 15 14.38l.63-6.25-13.13-11.88c-2.92-2.91-4.8-8.74-5.63-17.5v-1.25c0-5 1.88-7.5 5.63-7.5 2.08 0 4.58 1.46 7.5 4.38 1.25-1.67 1.87-2.92 1.88-3.75 0-4.58-3.55-6.87-10.63-6.88-5.42 0-8.13 3.96-8.13 11.88v.62m-161.88-9.37c4.59.83 7.5 3.54 8.75 8.12.42.84.63 2.5.63 5 0 .42-.2 1.25-.63 2.5a27 27 0 0 1-.62 5c5-4.16 7.5-8.33 7.5-12.5 0-7.5-2.92-11.25-8.75-11.25l-1.25.63-5.63 2.5m174.38 25 8.75-11.25c8.34-7.5 12.5-11.04 12.5-10.63 0-1.66-.83-2.5-2.5-2.5-3.33 0-6.25 1.88-8.75 5.63-2.08 3.75-3.75 5.83-5 6.25-4.58 2.08-6.87 5.2-6.87 9.37 0 .84.63 1.88 1.88 3.13m88.75 15 1.87 5 1.88 3.12 2.5 3.75 1.87-5.62-8.13-15.63-.62-6.87-1.25-5.63-.63-6.25c0-.41-.41-1.04-1.25-1.87-.41.42-1.25.62-2.5.62h-.62v11.88l3.13 10 3.75 7.5m-231.25-8.13c-2.09-3.33-3.13-5.62-3.13-6.87 0-4.17 2.3-6.25 6.88-6.25 9.16 0 13.75 6.25 13.75 18.75 0 3.75-1.67 10.2-5 19.37-.42 1.25-1.05 3.55-1.88 6.88 6.25-5.42 9.37-16.25 9.38-32.5 0-14.17-5.42-21.25-16.25-21.25-8.34 0-12.5 4.17-12.5 12.5 0 3.75 2.91 6.88 8.75 9.37m54.37-16.25v5.63l2.5 2.5c.42.42.63 1.04.63 1.87 0 .42-1.67 1.67-5 3.75l-1.88 1.88a9.8 9.8 0 0 0-2.5 1.87c-1.25 3.34-1.88 5.84-1.88 7.5 0 2.5.21 4.17.63 5 3.33 7.09 8.12 10.63 14.38 10.63 2.91 0 6.04-1.87 9.37-5.63-7.92-.41-11.88-4.16-11.88-11.25 0-6.24 4.38-9.37 13.13-9.37 2.92 0 7.08 1.46 12.5 4.37l.63.63 8.12 10 3.13 7.5.62 3.12v2.5l1.88 3.13-1.25 1.87v2.5l.62 6.25h1.25l1.25-10v-5c0-10.83-2.92-19.79-8.75-26.87-5.42-7.5-12.7-11.25-21.88-11.25l-8.12-.63-7.5-2.5m100.62 1.25-1.88 3.13c2.5 9.58 3.75 17.5 3.75 23.75 0 12.5-4.16 18.75-12.5 18.75-1.66 0-3.95-.63-6.87-1.88 2.08 4.59 4.58 6.88 7.5 6.88h1.88l5.62-2.5 1.88-1.25c5-1.67 7.5-8.96 7.5-21.88 0-9.58-2.3-17.91-6.88-25m-30 .63v3.75l.63 11.25 1.25-5c0-2.92-.63-6.25-1.88-10m123.12 10.62c-.42 4.17-1.04 8.13-1.88 11.88a24.98 24.98 0 0 1-3.12 9.37l-8.75 10c-1.67.42-2.5 1.05-2.5 1.88v3.12c3.33-.41 6.67-1.87 10-4.37 5.42-7.5 8.54-15 9.38-22.5V313.54c0-1.67-.63-2.5-1.88-2.5h-.63l-.62 1.87m-116.25 6.88-1.88 3.75a94.11 94.11 0 0 0-1.87 5c0 .83-.2 1.67-.63 2.5 0 .42-.2 2.08-.62 5 0 2.5-.2 6.04-.63 10.62l-.62 5.63.63 5.62 4.37-3.75v-12.5l3.75-15.62.63-2.5c0-1.25-1.05-2.5-3.13-3.75m-335.62 4.37a184.7 184.7 0 0 1 1.88 8.13c.41 2.08.83 3.75 1.25 5 .83 2.08 1.87 4.8 3.12 8.12a385.6 385.6 0 0 0 5 12.5 30.88 30.88 0 0 1 3.13 10 84.56 84.56 0 0 1 1.87 10l-2.5 10.63c-2.08 1.25-3.75 1.88-5 1.87h-3.13l-2.5-1.87-1.87-6.25 4.38-14.38c.41-.41.62-1.66.62-3.75 0-5.41-.83-8.12-2.5-8.12h-3.75l1.25 2.5 1.25 9.37-5 9.38-.63 2.5-1.25 4.37c0 3.76.84 6.46 2.5 8.13 2.09 3.33 4.8 5 8.13 5 10.42 0 15.63-5.62 15.63-16.88 0-4.58-1.05-9.58-3.13-15l-10.63-21.87-5.62-13.75-2.5-5.63m418.75 3.75 1.25.63c-1.67.42-2.92.83-3.75 1.25l-2.5 1.25a61.33 61.33 0 0 1-27.5 3.75h-3.13c-3.33-.83-8.12-1.46-14.37-1.88v4.38a43.57 43.57 0 0 0 15 2.5c14.17 0 25.2-1.67 33.13-5l10-4.38 2.5-.62c.83-.83 1.25-1.67 1.25-2.5 0-2.08-.42-3.12-1.25-3.13h-.63l-10 3.75m-231.25 3.75a38.57 38.57 0 0 0-4.38 6.88c-.83 2.5-1.66 5.2-2.5 8.12h-3.12l-3.13-4.37h-.62c-.42 0-1.04.42-1.88 1.25l-1.25 8.12v10.63l-1.87 10-5.63 13.75c-.83.83-1.87 2.08-3.12 3.75a61.95 61.95 0 0 0-4.38 5 32.96 32.96 0 0 0-10 6.25c-2.5 1.25-4.79 1.88-6.87 1.87-2.92 0-4.38-.83-4.38-2.5l.63-1.25 8.13-2.5 5.62-3.75-1.88-2.5v-.62c0-1.25.42-2.3 1.25-3.13l5-5.62v-7.5l-6.87 3.12-8.75 2.5-4.38 5h-1.25c-1.66 0-2.5-1.25-2.5-3.75v-2.5c-2.5.84-4.16 1.67-5 2.5-.41.84-2.29 3.34-5.62 7.5a38.02 38.02 0 0 1-5.63 4.38c-2.08 1.67-3.75 2.7-5 3.12-5.83 2.09-8.75 3.96-8.75 5.63 0 .83.42 1.25 1.25 1.25 0 0 1.05-.2 3.13-.63 2.08-.83 5.2-1.66 9.37-2.5 1.67-.41 2.92-.83 3.75-1.25l2.5-1.25 7.5-4.37c1.67 0 2.5.42 2.5 1.25 0 .83-3.54 2.92-10.62 6.25l-8.13 4.37-6.25 1.88v.62c2.92 1.67 5.42 2.5 7.5 2.5 2.5 0 6.46-1.45 11.88-4.37l1.25 3.75h-1.25c-2.5-.42-3.75.42-3.75 2.5l.62.62 3.13.63 5 .62h.62c7.09-2.08 9.17-3.12 6.25-3.12h3.13l-.63 3.75 7.5-.63 5.63-.62 13.13-1.25 4.37-.63c9.58-.83 14.38 2.5 14.38 10 0 5-2.3 7.5-6.88 7.5-2.5 0-4.17-.2-5-.62 1.67 4.17 4.17 6.25 7.5 6.25 8.75 0 13.13-5 13.13-15 0-1.67-.63-4.17-1.88-7.5h6.88c-2.5-5-5.63-7.92-9.38-8.75-1.25-.42-2.3-.63-3.13-.63l-.62-.62c-1.25 0-3.75 1.04-7.5 3.12-3.75 1.67-9.8 2.5-18.13 2.5-2.91 0-5-.2-6.25-.62v-1.88l6.25-.62 8.13-.63c2.08-.83 5-1.45 8.75-1.87 2.92-1.25 6.25-2.7 10-4.38 4.17-1.66 8.96-3.54 14.38-5.62 5.41-1.67 7.91-3.33 7.5-5v-3.75c.41 0 1.45-.83 3.12-2.5a68.21 68.21 0 0 0 5-5.63l5.63-5.62c1.66-1.67 2.91-2.5 3.75-2.5l-3.13 5.62 1.25.63c3.75-1.67 6.25-3.54 7.5-5.63 5-5 10.83-7.5 17.5-7.5.42 0 4.37 1.67 11.88 5v-5c0-1.66-1.25-3.95-3.75-6.87-2.09-3.33-4.8-5-8.13-5l-3.13-.63c-3.33 0-5.83 1.25-7.5 3.75l-1.87 2.5c0 .42-.42.63-1.25.63-.83 0-1.25-.42-1.25-1.25-.83-6.25-1.88-9.37-3.13-9.38-1.66 0-3.75 1.25-6.25 3.75a54.21 54.21 0 0 0-5 5.63l-.62.62-12.5 21.88-4.38 3.75c-3.33 2.5-5.83 3.75-7.5 3.75-3.33 0-5-1.25-5-3.75 0-1.25.42-2.3 1.25-3.13 3.75-2.5 5.84-3.95 6.25-4.37l-1.25-1.25c0-.42-.41-.83-1.25-1.25a28.36 28.36 0 0 0 5.63-12.5h3.13l-1.25 7.5c2.5-3.33 4.37-9.37 5.62-18.13l-6.25 1.25c-1.25-2.91-1.88-5-1.88-6.25 0-5.41.84-10 2.5-13.75v-1.87c-3.33.42-7.7 2.7-13.12 6.87m-169.38-1.87 2.5 5.62 1.25 1.25v-3.12l-3.75-3.75m411.25 4.37-3.75 1.88c.83 5 1.46 9.58 1.88 13.75.41 3.75.62 7.08.62 10 0 3.75-.63 8.75-1.88 15l-.62 10.62c4.17-1.25 6.25-4.79 6.25-10.62v-30.63c-.42-.41-1.25-3.74-2.5-10m-8.13 3.75c-2.08.84-4.37 1.67-6.87 2.5a33.2 33.2 0 0 0-6.88 1.88l-20 1.87v2.5c1.25 12.09 1.88 17.3 1.88 15.63v.62l-1.88 23.75 1.88.63c2.5 2.08 5.2 3.33 8.13 3.75h10.62l6.88-1.25c2.5-.42 4.37-1.04 5.62-1.88 1.67-.83 2.7-4.79 3.13-11.87l.62-15v-20.63l-1.25-1.25a7.33 7.33 0 0 0-1.88-1.25m-269.38.63c-1.25.83-1.87 1.88-1.87 3.12 0 1.67.83 2.5 2.5 2.5 2.5 0 3.75-1.25 3.75-3.75 0-1.25-1.46-1.87-4.38-1.87m230.63 5c-10 3.75-16.67 7.3-20 10.62-2.92 3.34-4.8 9.17-5.63 17.5 3.33 4.59 5 9.8 5 15.63v1.25c10.42 12.92 23.75 19.37 40 19.37 13.75 0 25.63-4.58 35.63-13.75 10.41-9.58 15.62-21.25 15.62-35 0-2.08-1.04-6.66-3.13-13.75l-3.12 2.5.63 14.38c0 2.5-.63 5.2-1.88 8.12v.63a92.16 92.16 0 0 1-3.13 6.87l-3.75 7.5-1.87 1.88-6.88 6.87c-3.75 4.17-11.45 6.88-23.12 8.13-1.25.42-3.13.62-5.63.62.42 0-4.58-.62-15-1.87-17.08-6.25-25.62-15.83-25.62-28.75 0-12.5 7.7-20.2 23.13-23.13l-1.25-5.62m-116.88 8.75c6.24.83 10.62 4.58 13.12 11.25.42 1.25.63 3.13.63 5.62 0 .84-.21 1.67-.63 2.5 0 .84-.2 2.09-.63 3.75a49.88 49.88 0 0 0-1.87 13.13c0 2.92 1.67 8.96 5 18.12l2.5 5c1.25 1.25 2.7 2.3 4.38 3.13 5.41 2.92 9.79 4.38 13.12 4.37 3.33 0 7.3-.62 11.88-1.87 6.66-2.5 11.04-5.42 13.12-8.75l12.5-20.63c.42-1.25 3.54-2.91 9.38-5l5.62 4.38 1.25 2.5h1.25a20.76 20.76 0 0 0 1.88-8.13c0-2.91-2.71-6.24-8.13-10l-13.75-.62 3.13-11.25c-5 1.25-9.59 3.33-13.75 6.25-6.26 7.5-9.38 13.75-9.38 18.75l-.63 10.62-4.37 8.13c-2.92 1.67-5.63 2.5-8.13 2.5-6.25 0-9.37-4.37-9.37-13.13 0-1.25.2-2.08.63-2.5l6.87-16.87c.83-3.33 1.25-4.8 1.25-4.38 0-2.91-2.08-6.45-6.25-10.62-.83 3.33-2.08 5-3.75 5-2.08 0-3.33-2.08-3.75-6.25-1.25-7.5-5.83-11.25-13.75-11.25-5.83 0-8.96 2.08-9.38 6.25m-111.87 1.87a7.77 7.77 0 0 0 5.62 2.5c2.5 0 3.75-1.25 3.75-3.75 0-2.91-1.67-4.37-5-4.37s-5 1.25-5 3.75l.63 1.87m-46.88 5.63c0 6.67 1.88 10 5.63 10 3.33 0 5-1.67 5-5 0-3.75-.84-5.62-2.5-5.63l-8.13.63m-7.5 7.5c2.5-1.67 3.75-3.54 3.75-5.63 0-1.66-1.25-2.5-3.75-2.5-2.08 0-3.12 1.05-3.12 3.13 0 1.25 1.04 2.92 3.12 5m23.13-2.5 3.75 1.25 2.5 1.25h.62c2.08 0 3.12-1.04 3.13-3.13 0-3.74-1.46-5.62-4.38-5.62-.83.83-2.3 1.46-4.37 1.87l-1.25 4.38m18.75-6.25c-2.5 2.08-3.76 3.54-3.75 4.37 0 2.5 1.66 3.76 5 3.75 3.74 0 5.62-1.25 5.62-3.75 0-2.08-2.3-3.54-6.87-4.37m17.5 3.75c-2.09.83-3.13 1.67-3.13 2.5 0 1.25 1.04 1.88 3.13 1.87 2.08 0 3.12-.83 3.12-2.5 0-.83-.2-1.25-.62-1.25l-2.5-.62m210 13.12.62 6.25 5 7.5a49.34 49.34 0 0 0 29.38 9.38c5.41 0 11.04-1.67 16.87-5-8.33 1.25-13.96 1.88-16.88 1.87-5 0-10.2-1.25-15.62-3.75-8.75-3.74-13.13-8.33-13.13-13.75 0-2.08 1.67-4.79 5-8.12-.41-1.67-1.04-2.5-1.87-2.5-5.83 0-8.96 2.7-9.38 8.12m-230-4.37c-2.5-.83-3.54-1.25-3.12-1.25-2.08 0-3.13.42-3.13 1.25 0 1.67 1.25 2.5 3.76 2.5 1.66 0 2.5-.83 2.5-2.5m92.5 5c2.91 7.08 7.29 12.08 13.12 15v1.25c0 2.08-1.25 3.33-3.75 3.75-3.75 1.25-5.63 2.3-5.62 3.12 0 .42 1.04 2.3 3.12 5.63l3.75 3.12c4.17 3.76 8.75 5.63 13.75 5.63h1.88l10-4.38 3.12-1.25c.42 0 .63-.41.63-1.25 0-.41-3.13-3.12-9.38-8.12l-1.25-3.13 6.25 1.88 7.5 6.25-.62-3.13-5-3.75 2.5-3.12v-.63c0-2.5-6.26-7.29-18.75-14.37l-8.75-3.13-12.5-1.87v2.5m222.5-.63-4.38 8.75-12.5 18.13a24 24 0 0 0-5.63 15.62c0 9.59 3.55 14.38 10.63 14.38 9.17 0 13.75-4.58 13.75-13.75 0-5.42-2.3-8.12-6.88-8.13-3.75 0-5.83 1.88-6.25 5.63l-.62 4.37 3.75-3.12 5 1.25c-.42 5.42-2.08 8.13-5 8.12-5.83 0-8.75-3.33-8.75-10 0-7.08 5-17.91 15-32.5a7.78 7.78 0 0 0 2.5-5.62c0-1.67-.2-2.7-.63-3.13m-350 2.5c-.41 6.67-5.83 10.63-16.24 11.88l-1.88 8.12c-.42.42-1.46.63-3.12.63-2.5 0-4.59-.83-6.25-2.5l1.25 6.87 10 2.5-1.25 7.5 4.37 3.75c2.92 2.5 4.58 4.17 5 5l-.62 3.75c0 2.09.62 3.13 1.87 3.13 3.33 0 5-2.92 5-8.75v-4.38l-8.12-10.62c-.84-.83-1.25-2.08-1.25-3.75 0-.83 3.33-3.75 10-8.75 2.91-1.67 4.37-4.37 4.37-8.13 0-2.08-1.04-4.16-3.12-6.25m118.75 20.63c-7.09 4.58-10.63 11.25-10.63 20l1.88.62.62-10.62 2.5.62v1.88c-.83 2.92-1.04 4.8-.62 5.62l1.25 6.25c.83-.41.41-.62-1.25-.62a3.76 3.76 0 0 1-2.5-2.5v4.37c-10.84 1.25-17.09 3.96-18.75 8.13-1.25 5.83-1.88 10.2-1.88 13.12 0 3.76 1.25 6.88 3.75 9.38l9.38 10 7.5 6.25c2.91 2.5 4.37 6.25 4.37 11.25 0 3.75-2.92 6.67-8.75 8.75.83.42 1.46.83 1.88 1.25h.62c7.08 0 10.63-3.96 10.63-11.88 0-5.41-5-13.12-15-23.12-2.5-2.92-3.76-5.42-3.75-7.5v-3.13l.62-3.75c0-.41 1.46-.83 4.38-1.25 2.91-.83 4.37-2.08 4.37-3.75v-.62c13.75.83 20.63 9.58 20.63 26.25 0 18.75-10.63 38.33-31.88 58.75 12.08-5 22.08-13.75 30-26.25 8.33-12.92 11.88-26.25 10.63-40v-3.13l-3.13-16.87-14.37-23.75c-1.25-1.67-1.88-3.96-1.88-6.88v-5.62l-.62-1.25m-204.38-.63c-11.67 9.17-17.5 16.67-17.5 22.5l.62 5c2.08 7.09 6.25 10.63 12.5 10.63 7.5 0 11.25-3.75 11.25-11.25 0-2.08-.62-5-1.87-8.75 0 4.58-1.46 8.33-4.38 11.25a8.7 8.7 0 0 1-3.75.62c-2.08 0-3.54-.2-4.37-.62-2.92-2.92-4.38-6.04-4.38-9.38l1.25-1.25 7.5-11.25c2.08-3.33 3.13-5.2 3.13-5.62v-1.88m358.75 110.62-20.63 18.13-3.13 2.5-5.62 3.13-10 5.62c-7.08 4.58-10.62 6.46-10.62 5.63 0 2.08.83 3.12 2.5 3.12 1.66 0 7.08-2.7 16.25-8.13 42.5-22.91 69.79-66.87 81.87-131.88l-.63-.62h-.62c-2.08 0-4.17 4.17-6.25 12.5a73.66 73.66 0 0 0-1.88 8.13c-.41 2.5-1.04 5.2-1.87 8.12-6.25 19.58-10.83 31.67-13.75 36.25l-15 26.25c-.83 1.25-4.38 5-10.63 11.25m-43.75-95h-3.12l-4.37.63v1.87l8.75.63 1.87 3.12h-10v2.5l-5-.63 1.88 3.75 3.75 5 1.87 1.25-.62.63c6.66 3.75 12.91 5.63 18.75 5.63.83 0 5.2-1.67 13.12-5l-1.25-1.88a5.7 5.7 0 0 1-3.75-4.38c12.08-.83 18.75-5.2 20-13.12h-11.25l-12.5-4.38-8.13-.62-6.24 1.25.62 3.75h-4.37m84.37-4.38c-8.75 2.5-14.8 3.76-18.13 3.75-1.66 0-4.16-.41-7.5-1.25-3.33-.83-5.83-1.25-7.5-1.25.84 0-.41 6.05-3.75 18.13a152.57 152.57 0 0 1-4.37 16.25 87.5 87.5 0 0 1-4.38 12.5l-6.25 12.5-1.87 5c-8.75 19.58-24.8 36.67-48.13 51.25-21.66 14.17-45.41 20.83-71.24 20l-3.13-.63c-4.17-.41-7.7-.62-10.62-.62H389.96c-2.08 0-3.33.2-3.75.63a130.3 130.3 0 0 1-5 3.12 84.51 84.51 0 0 0-5.62 3.13l-8.75 3.75 72.5 14.37 69.37 17.5 7.5 1.25 21.25 1.88c20 1.25 38.33-3.96 55-15.63 16.67-11.67 25-24.8 25-39.38 0-2.91-.83-4.37-2.5-4.37s-2.7 2.08-3.13 6.25l-2.5 6.25c-15.83 13.75-32.5 20.63-50 20.63-25 0-47.91-6.05-68.75-18.13v-4.38c1.67-.83 2.92-1.25 3.76-1.25l2.5-1.25c42.5-14.16 72.29-54.79 89.37-121.88l1.88-6.25-1.88-1.87m-140.62 2.5-5.62 1.88c-2.92.83-6.26 2.91-10 6.25l-2.5 2.5-5 11.25c1.25.41 2.7.62 4.37.62h3.75c2.08 0 4.17-.42 6.25-1.25 2.08-1.25 3.33-1.87 3.75-1.88.83.84 1.25 1.46 1.25 1.88l-3.12 5.63c-.84.83-.42 2.7 1.25 5.62l1.87 2.5c0 .83.63 2.3 1.88 4.38s2.5 2.91 3.75 2.5c2.91-.84 6.87-2.09 11.87-3.75 5-1.67 8.54-4.8 10.63-9.38l2.5 1.25 2.5 2.5 1.25 1.88 3.12.62.63-3.13h1.25c2.91-2.91 4.37-6.04 4.37-9.37v-12.5l-3.75-.63 1.25 5.63h-2.5c0-2.92-.83-4.37-2.5-4.38-.83 0-1.25.42-1.25 1.25l1.25 3.75-2.5 1.25-1.87-5h-2.5l1.25 5c0 .42-1.05 1.05-3.13 1.88v-3.75l-1.25 5h-3.75l-.62-8.13-2.5 12.5h-3.13l.63-8.75-2.5 1.88h-2.5l3.12-9.38-2.5.63v1.25l-1.87 3.75-3.13-1.25 3.13-6.25-3.75 2.5h-1.88v-.63l.63-4.37-1.88.63v-4.38m-153.75 8.13c-1.67.41-2.5 1.66-2.5 3.75 0 2.5 1.25 3.75 3.75 3.75 2.92 0 4.37-1.25 4.38-3.75 0-2.5-1.67-3.75-5-3.75h-.63m-12.5 1.87c-2.92 0-4.37 1.25-4.37 3.75s1.45 3.75 4.37 3.75 4.38-1.25 4.38-3.75-1.46-3.75-4.38-3.75m179.38.63-1.25 5c1.67-1.25 2.5-2.3 2.5-3.13 0-.42-.42-1.04-1.25-1.88m-157.5 8.75c-1.25 0-2.08.63-2.5 1.88l-.63 1.25v.63c0 2.08 1.26 3.12 3.76 3.12s3.74-.83 3.75-2.5c0-2.92-1.46-4.37-4.38-4.38m-13.75 0c-2.5 0-3.75 1.25-3.75 3.75 0 3.76 1.87 5.63 5.63 5.63 3.33 0 5-1.46 5-4.38 0-3.33-2.3-5-6.88-5m53.13 21.88.62 3.75c-8.33 1.25-13.33 5.2-15 11.88l6.88-2.5 7.5-.63c2.08 0 3.12-.83 3.12-2.5v-3.75c0-.83.42-1.25 1.25-1.25h3.13l6.87 1.88 3.75 2.5 7.5 9.37c1.25 4.58 1.87 7.92 1.88 10 0 20.42-5 33.96-15 40.63-3.34 2.08-5 3.75-5 5 .83.83 1.66 1.25 2.5 1.25.83 0 2.5-1.67 5-5l6.87-8.13 3.13-5 1.87-6.25 1.88-3.75a45 45 0 0 0 3.12-16.25c0-14.17-3.96-22.7-11.88-25.63l-16.24-6.87v-6.88l-6.88-2.5-11.88-8.75v4.38c-.83 5 4.17 10 15 15m-69.37-17.5c-1.25 0-2.08 1.25-2.5 3.75v1.25c0 2.92 1.67 4.38 5 4.38 3.75 0 5.63-1.67 5.63-5 0-3.34-2.5-5-7.5-5l-.63.62m321.25 10.63c-1.67 2.91-2.5 5.41-2.5 7.5 0 3.75 2.5 5.62 7.5 5.62 3.33 0 6.04-2.3 8.13-6.88 2.5-6.24 3.74-10.83 3.75-13.75 0-2.08-.63-3.12-1.88-3.12-1.25.83-1.88 2.3-1.88 4.38 0 7.91-2.29 11.87-6.87 11.87-2.5 0-4.58-1.87-6.25-5.63m-103.75-5c7.08.84 10.63 3.13 10.63 6.88 0 .83-.63 3.13-1.88 6.88-4.58 5.83-8.13 9.16-10.63 10-4.16 1.66-6.25 2.7-6.24 3.12 0 1.25.62 1.88 1.87 1.88s5.62-1.67 13.13-5l6.87-3.75c3.75-1.67 5.62-5.63 5.63-11.88 0-3.75-3.76-7.92-11.25-12.5l-1.25-.63c-3.76 0-6.05 1.67-6.88 5m-296.25 4.38c.42 2.5 2.08 3.75 5 3.75 3.75 0 5.63-2.08 5.63-6.25 0-3.33-1.88-5-5.63-5-3.33 0-5 2.08-5 6.25v1.25m331.88 0 4.38 2.5.62 1.25c0 2.08-2.08 4.58-6.25 7.5h1.88c6.24.83 9.37-2.3 9.37-9.38 0-3.33-1.88-5-5.63-5-2.08 0-3.54 1.05-4.37 3.13m-233.13 0c-1.67.42-2.5 1.88-2.5 4.38 0 4.16 1.87 6.25 5.63 6.25 2.91 0 4.37-1.88 4.37-5.63 0-3.33-2.3-5-6.88-5h-.62m39.38 8.13-8.75 1.25-13.75 8.75c-1.67 1.66-6.26 2.5-13.75 2.5-2.92 0-5.84-1.46-8.75-4.38l-3.13-3.13-.63-3.12.63-8.75h-1.88c-2.08 0-3.12 2.7-3.12 8.13 0 4.16 1.88 7.91 5.63 11.25 3.74 3.33 7.7 5 11.87 5 7.08 0 12.08-1.46 15-4.38l11.25-8.75 9.38-4.38m86.25-1.87.62 1.88c4.17.41 7.08 2.08 8.75 5v1.87l-1.25 6.88-6.25 11.25-1.88 5.62 3.13-5.63 5.63-6.25c4.58-5.83 6.87-10.83 6.87-15 0-6.66-3.13-10-9.38-10-.41 0-.83.21-1.24.63l-5 3.75m193.75 3.75-4.38 5-1.88 5-4.37 5c-7.92 5.42-12.92 8.13-15 8.13-3.33 0-5.63-.21-6.88-.63v1.88c0 2.91 6.46 4.37 19.38 4.37 4.58 0 8.96-1.46 13.13-4.38 3.33-2.5 5.62-5.41 6.87-8.75-3.33.84-4.8 1.25-4.38 1.25-1.66 0-2.5-.83-2.5-2.5l.63-1.25 3.75-2.5 2.5-9.37 4.38-3.13.62-.62c0-2.08-1.67-3.12-5-3.13-2.08 0-4.38 1.88-6.88 5.63m-442.5 16.25 1.26 6.25 3.12 5c5 5.83 10.63 8.75 16.88 8.75 1.66 0 2.7-.2 3.12-.63l10.63-2.5c5.83 0 8.75 3.34 8.75 10 0 2.5-1.67 4.8-5 6.88-2.92 2.08-5.63 3.13-8.13 3.13l-10.62-1.25c-5.42 0-10.63 3.75-15.63 11.25-1.67 2.91-2.5 5.41-2.5 7.5v2.5c.42.83.83 2.29 1.25 4.37 4.17 9.17 11.46 13.75 21.88 13.75 1.66 0 3.54-.2 5.62-.63 2.08-.83 3.33-1.25 3.75-1.25.83 0 1.88.63 3.13 1.88l1.87 2.5c-4.17 2.92-6.25 5.63-6.25 8.13 0 2.08 1.25 3.95 3.75 5.62v3.13c-9.17-.84-17.3-3.55-24.37-8.13-2.92-1.67-5.21-2.5-6.88-2.5s-2.5.63-2.5 1.88c0-.42.42.62 1.25 3.12 3.75 5.42 11.88 10.63 24.38 15.63l2.5 1.25c1.25.41 2.7 1.04 4.37 1.87l.63 2.5c5.41 8.75 13.95 13.13 25.62 13.13 1.25 0 1.88-.21 1.88-.63 0-1.25-.21-2.08-.63-2.5l28.13-3.13-20.63 5v1.88c4.17-.42 6.88-1.04 8.13-1.88 8.33-2.08 12.91-3.12 13.75-3.12l5.62-.63c.42-.41 4.58-1.66 12.5-3.75 2.08-.41 3.75-.62 5-.62 1.67-.42 2.92-.63 3.75-.63 5.42 0 8.12 2.5 8.13 7.5 0 1.67-2.3 3.55-6.88 5.63v1.88c3.33.83 5.2 1.25 5.63 1.25 5.41 0 8.12-3.34 8.12-10 0-10.42-8.13-15.63-24.38-15.63-3.33 0-5.2.2-5.62.63l-3.75 1.87h-3.75l6.88-9.38c-5.42-2.08-8.55-3.12-9.38-3.12-2.92 0-6.25.83-10 2.5-11.25 4.17-21.87 6.25-31.87 6.25-5 0-7.5-1.88-7.5-5.63 0-4.58 2.5-6.66 7.5-6.25h.62l6.25.63 6.88 1.25h3.75c6.66.42 12.29-1.46 16.87-5.63 5-4.16 7.5-9.37 7.5-15.62 0-4.58-.42-6.87-1.25-6.88-1.25 0-3.13 1.25-5.63 3.75l-3.12-1.87v1.88c-.42-.42-.62-1.46-.62-3.13 0-.83.62-2.92 1.87-6.25s1.88-6.25 1.88-8.75c0-2.08-.21-3.33-.63-3.75l-1.25-2.5-1.87 2.5-4.38-.63 1.25.63-1.25-5.63c-2.08-6.24-6.25-9.37-12.5-9.37-7.5 0-13.96 5-19.37 15l-4.38 8.75c-3.33 6.67-8.33 10.83-15 12.5l-11.25-1.25c-3.33-4.58-5-8.12-5-10.63 0-3.74 2.5-7.29 7.5-10.62 3.33-2.5 7.3-4.17 11.88-5l10-1.25c7.91-.42 11.87-5.2 11.87-14.38 0-2.5-1.25-5.2-3.75-8.12-2.08-2.92-4.37-4.37-6.87-4.38a36.56 36.56 0 0 1 3.75 3.13 700 700 0 0 0 1.25.63c.41-.42-1.88-.84-6.88-1.25-5.83-.84-12.5-.84-20 0-9.58.83-14.37-5.21-14.37-18.13 0-7.92 1.87-11.88 5.62-11.88l11.25-1.87-2.5-3.13c-.83-.83-2.08-1.25-3.75-1.25-9.17 0-14.8 7.3-16.87 21.88m35-20c-3.75 0-5.63 1.67-5.63 5 0 3.75 1.88 5.63 5.63 5.63 2.91 0 4.37-1.46 4.37-4.38 0-4.17-1.46-6.25-4.37-6.25m261.25 3.13c-2.5 0-4.38 1.25-5.63 3.75l-23.13 30.62-3.12 5.63 5-5a9.8 9.8 0 0 0 1.88-2.5l1.87-1.88c13.33-17.08 22.08-25.63 26.25-25.63h13.13l-2.5-6.25-10-.62-3.75 1.88m-23.75 0-2.5 4.37-2.5 5.63-3.13 5a418.42 418.42 0 0 1-4.38 7.5 56.9 56.9 0 0 1-4.37 6.25c-.42.83-1.25 1.87-2.5 3.12-.83.83-2.08 2.3-3.75 4.38l-2.5 2.5a9.83 9.83 0 0 1-1.88 2.5c-37.08 34.58-72.7 56.25-106.87 65a362 362 0 0 0-10 3.12c-2.09.42-3.55.83-4.38 1.25-2.08.42-4.38.83-6.87 1.25a35.72 35.72 0 0 0-6.25 1.88v1.87h6.25l10.62 3.13 3.75-1.25 27.5-9.38c25.42-8.75 49.17-22.7 71.25-41.88 22.92-19.16 41.46-40.2 55.63-63.12l-4.38.63-4.37 2.5-4.38-6.25m-253.13 5c-2.5 0-3.75 1.25-3.75 3.75 0 3.75 1.88 5.62 5.63 5.62s5.62-1.67 5.62-5-2.3-5-6.87-5l-.63.63m293.13 13.12.63 1.88c-.84-.84-1.67-1.25-2.5-1.25-.84 0-1.67.41-2.5 1.25-10.42 3.75-20.84 10-31.25 18.75l-18.13 14.37-17.5 12.5-5 3.75a38.27 38.27 0 0 0-6.87 3.75 56.82 56.82 0 0 0-6.25 4.38l-35.63 21.25-21.25 9.37-29.37 12.5-3.76.63.63 1.87a304.5 304.5 0 0 0 46.25-16.25c15-6.67 29.58-14.8 43.75-24.38l21.87-14.37 10-6.25 3.75-3.75c.84-.83 3.13-2.7 6.88-5.63 3.75-2.91 8.54-6.66 14.37-11.25 4.17-3.33 7.5-5.83 10-7.5a74.53 74.53 0 0 1 5.63-4.37l12.5-6.25 3.75-2.5c1.67-1.25 8.54-3.12 20.62-5.63 5.42-1.66 10-2.5 13.75-2.5 1.67 0 3.96.63 6.88 1.88 2.92.83 5 1.25 6.25 1.25.83 0 2.3-1.67 4.37-5a28.93 28.93 0 0 0-5.62-.63c-1.25-.41-2.3-.62-3.13-.62-13.75 0-26.04 2.08-36.87 6.25 0 0-.63.2-1.88.63-.83.41-2.29 1.04-4.37 1.87m-268.75-7.5h-1.25c-2.5 0-3.75.83-3.75 2.5 0 2.5 1.25 3.75 3.75 3.75s3.75-.83 3.75-2.5c0-2.08-.83-3.33-2.5-3.75m267.5 1.88-5 1.87-5 2.5-6.25 2.5c-2.08.83-4.58 3.33-7.5 7.5l11.25-5.63c8.33-4.58 12.5-6.66 12.5-6.25v-2.5m-281.88 1.25c-1.67.42-2.5 1.88-2.5 4.38s1.25 3.75 3.75 3.75c3.33 0 5-1.46 5-4.38 0-2.5-1.88-3.74-5.63-3.75h-.62m107.5 11.88c3.33.83 5 1.88 5 3.13 0 .83-.2 1.45-.63 1.87-3.33 4.58-5 8.33-5 11.25 0 8.33 2.5 12.08 7.5 11.25l15.63-1.25c2.5 0 3.96 2.7 4.37 8.13 2.09-3.34 3.13-5.21 3.13-5.63 0-4.58-2.08-6.87-6.25-6.88h-.63l-1.87.63-6.25 2.5c-.42.42-1.04.63-1.88.63-3.75 0-5.62-3.13-5.62-9.38 0-3.33 1.67-6.25 5-8.75 3.33-2.92 7.08-4.17 11.25-3.75h2.5a20 20 0 0 1 8.75 3.13l2.5 3.75c2.92 2.91 4.37 7.7 4.37 14.37 0 4.58-2.29 10.42-6.87 17.5v1.88c.42.41 1.04.62 1.87.62 2.5 0 4.8-3.54 6.88-10.63 2.5-6.66 3.75-11.66 3.75-15 0-17.5-9.8-26.25-29.38-26.25-10 0-16.04 2.3-18.12 6.88m165 6.88c5.42-1.25 8.96-2.5 10.62-3.75 8.75-3.75 15-5.63 18.75-5.63.42 0 3.34 1.04 8.75 3.13.42.83.63 2.5.63 5 0 3.33-2.08 5-6.25 5-2.5 0-5.2-1.25-8.13-3.75.42 6.25 3.13 9.37 8.13 9.37 8.33 0 12.5-3.54 12.5-10.63 0-7.91-4.17-11.87-12.5-11.87-10 0-20.83 4.38-32.5 13.13m-260.63-11.25v.62c0 1.67.42 2.5 1.25 2.5.83 0 1.67-.42 2.5-1.25 0-1.67-.83-2.5-2.5-2.5l-1.25.63m364.38 6.87c-.83 3.33-1.25 4.8-1.25 4.38 0 .83 1.04 1.87 3.12 3.12l3.75 3.75 1.88 5.63c-3.75 0-5.63 1.25-5.63 3.75 0-.84.42-.63 1.25.62a21.83 21.83 0 0 1 3.75 5.63c1.25 2.5 2.3 5.41 3.13 8.75a26.8 26.8 0 0 1 1.87 9.37c0 9.58-5 18.13-15 25.63 17.09-2.5 25.63-10.21 25.63-23.13 0-9.17-3.33-17.08-10-23.75-1.25-1.67-1.88-3.12-1.88-4.38 0-2.5 1.67-3.74 5-3.75 1.67 0 4.8 1.67 9.38 5l6.87 3.75 1.25-2.5H614.96c1.25-.41 2.7-.83 4.37-1.25 2.09-5.41 3.13-8.54 3.13-9.37 0-2.5-.21-4.37-.63-5.63-2.5 5.42-7.5 8.34-15 8.75l-3.75-2.5c-3.75-5-8.12-7.5-13.12-7.5-1.25 0-2.08.21-2.5.63l-1.88 3.75-4.37-2.5-1.25-1.88c-1.67-2.5-3.75-3.95-6.25-4.37m-116.88 15a635.9 635.9 0 0 1-11.88 8.13c-3.75 2.5-7.29 5-10.62 7.5a142.55 142.55 0 0 0-10.63 6.87c-3.75 2.5-8.33 5.42-13.75 8.75l-1.87 1.88c-.83.41-1.88 1.25-3.13 2.5l7.5-1.88 31.88-21.88c8.75-6.24 18.75-9.37 30-9.37 4.17 0 7.7 1.46 10.62 4.38 1.25 2.08 1.88 3.75 1.88 5 0 .83-.42 1.66-1.25 2.5-1.67 2.5-4.8 4.79-9.38 6.87l-4.37.63-22.5-1.25c-3.75 0-7.3 2.29-10.63 6.87l-1.25 3.75c0 3.33 2.3 5 6.88 5h1.25c-.42-1.25-.63-3.12-.63-5.63 0-4.58 2.5-6.87 7.5-6.87 1.67 0 3.34.2 5 .63 2.09 0 4.59.2 7.5.62.42.42 1.25.63 2.5.63 1.67 0 3.13.2 4.38.62 15.42-2.92 23.12-9.37 23.12-19.38 0-7.91-5.2-11.87-15.62-11.87l-2.5.63-20 4.37m109.38-1.25 1.25 7.5a91.01 91.01 0 0 1 1.25 6.88v1.25l-1.25.62-4.38 8.13-4.37 3.75-17.5 5.62c-6.25 4.58-9.38 9.38-9.38 14.38 0 5.83 2.71 8.54 8.13 8.12h4.37c-3.75-2.92-5.62-5.42-5.62-7.5 0-5.42 2.5-8.12 7.5-8.13 1.25 0 2.7.63 4.37 1.88l3.13 1.25h1.25c2.08 0 3.54-2.3 4.37-6.88l1.88-.62 1.87 1.25-.62 3.13c0 2.5.83 3.75 2.5 3.75 2.5 0 4.8-2.3 6.87-6.88 3.34-7.92 5-12.92 5-15 0-1.67-.62-4.17-1.87-7.5l-2.5-6.88-5-8.75-1.25.63m53.12 10.63c-2.91 0-4.37 1.87-4.37 5.62 0 2.08 1.04 3.13 3.12 3.13 2.92 0 4.38-1.25 4.38-3.75 0-3.34-1.04-5-3.13-5m-15 3.12c-2.08 0-3.33.83-3.75 2.5l-.62 1.25c0 2.5 1.46 3.75 4.37 3.75 2.92 0 4.38-1.25 4.38-3.75s-1.46-3.75-4.38-3.75m.63 11.88c-2.08 0-3.13 1.45-3.13 4.37s.84 4.58 2.5 5c2.92 0 4.38-1.87 4.38-5.63 0-2.5-1.25-3.74-3.75-3.75m-265 18.13-1.88.63v1.87l6.25-2.5 3.75-2.5c5.84-3.75 8.75-5.42 8.75-5-.41-.42-.83-.63-1.25-.63l-15.62 8.13m-68.13-1.88c5.84 0 8.75 2.3 8.75 6.88 0 3.75-1.45 6.46-4.37 8.13a191.77 191.77 0 0 1-9.38 5c13.75-1.67 20.63-5.84 20.63-12.5 0-6.67-2.7-10-8.13-10h-1.87l-5.63 2.5m347.5 1.87-2.5 6.88c-4.16 8.75-8.75 15.2-13.75 19.37-10.83 12.08-22.91 20-36.25 23.75-10.41 2.5-20 3.54-28.75 3.13h-5c-.83 0-2.91-.21-6.25-.63l-13.12-1.88-13.75-1.87c-1.25-.83-3.96-1.46-8.13-1.88l-3.12-.62c-.42 0-2.3-.42-5.63-1.25a54.2 54.2 0 0 0-10.62-3.13c-4.17-1.25-8.13-2.29-11.88-3.12a126.16 126.16 0 0 0-8.12-2.5l-3.75-.63-6.88-1.87-6.25-1.88-9.37-1.87-10.63-3.13-49.37-8.75c-.42-.41-1.88-.62-4.38-.62-1.25 0-2.08.63-2.5 1.88l19.38 5 112.5 26.87c17.08 4.17 33.12 6.25 48.12 6.25 25 0 42.92-5 53.75-15l12.5-12.5c9.59-9.58 14.38-17.3 14.38-23.13 0-3.33-.21-5.62-.63-6.87m-317.5 0c.42.83.63 1.46.63 1.88l.62.62 3.13.63 3.75 1.87 5.63 1.25v-1.25c-.84-1.25-3.13-1.88-6.88-1.88-.83-.41-1.88-.83-3.13-1.25l-3.75-1.87m33.75 2.5-3.75 1.25v1.88c1.67 0 2.92-1.05 3.75-3.13m-15 6.88v1.87c2.92-.42 4.38-1.25 4.38-2.5 0-.83-.2-1.25-.63-1.25l-3.75 1.88m-17.5-.63-28.12 12.5c10.42-1.67 20.83-5.83 31.25-12.5h-3.13m23.13 25.63 6.25-.63 11.25-3.13c3.33-.83 5.62-1.25 6.87-1.25 11.25 0 16.88 3.96 16.88 11.88 0 8.33-3.75 12.5-11.25 12.5-4.17 0-7.7-1.25-10.63-3.75l-10-8.13a12.06 12.06 0 0 0-6.25-1.87c-7.91 0-11.87 2.7-11.87 8.13 0 2.08.83 3.95 2.5 5.62l1.25-.63c.83-5.83 2.7-8.75 5.62-8.75h.63c2.08 0 3.75.42 5 1.25 1.67.42 5.42 3.13 11.25 8.13a20.86 20.86 0 0 0 14.37 5.63c11.25 0 16.88-5.21 16.88-15.63 0-12.5-5.63-18.75-16.88-18.75-1.25 0-6.04 1.04-14.37 3.13l-11.88 3.75c-.41.41-2.29 1.25-5.62 2.5m-151.88-5a38 38 0 0 0 10 10c4.17 2.5 6.25 5 6.25 7.5 0 3.75-1.67 5.62-5 5.62-1.25 0-2.08-.2-2.5-.63l-9.38-7.5h-.62l-1.25-.62c-2.08 0-3.33 2.08-3.75 6.25h6.87l6.88 7.5c.83.83 2.08 1.25 3.75 1.25 7.08 0 10.62-3.33 10.62-10 0-5.83-7.29-12.3-21.87-19.38m441.25 0-1.25 5.63v14.38l-1.25 1.25-1.25.62h-8.75l1.87 4.38h1.25c8.34.83 12.5-2.5 12.5-10 0-1.67-1.04-7.09-3.12-16.25m-236.25 5.62c6.67 15 13.96 22.5 21.87 22.5 3.75 0 6.05-1.04 6.88-3.13l2.5-6.25c.83-2.08 3.33-3.12 7.5-3.12 2.92 0 5.2.83 6.87 2.5l1.25 1.25c2.92 3.75 5.21 5.63 6.88 5.63.42-.42.62-.84.62-1.25 0-3.34-2.7-6.46-8.12-9.38-3.75-2.5-7.5-3.75-11.25-3.75-2.92 0-4.58.83-5 2.5l-3.75 8.13a4.2 4.2 0 0 1-3.75 1.87c-4.17 0-7.08-1.25-8.75-3.75l-9.38-9.38-4.37-4.37m65.62 18.13c0 3.33 1.67 5 5 5 3.75 0 5.63-2.3 5.63-6.88 0-1.67-2.08-2.5-6.25-2.5-3.33 0-5 1.46-5 4.38h.62M229.32 177.9l-1.25-1.25c0-2.08.42-3.12 1.25-3.12 1.67 0 2.5 1.25 2.5 3.75l-2.5.62m-6.87 1.25c.42-.41.83-.62 1.25-.62.42 0 .83-.2 1.25-.63 2.5.84 3.75 2.09 3.75 3.75 0 2.92-1.25 4.59-3.75 5v-4.37l-2.5-3.13c0 .42.42 1.05 1.25 1.88l-1.25-1.88m-2.5 5.63 1.25 1.25v5.62c-.83 0-1.88-1.87-3.13-5.62a13.42 13.42 0 0 0-3.12-2.5l-1.25-1.25 1.25-1.88 1.25-.62c1.67 0 2.92 1.67 3.75 5m-31.88 8.12-1.87-.62c-3.33-.83-1.25-1.46 6.25-1.88l11.25-6.87-10 8.75-5.63.62m368.75 1.25h-.62c1.67 0 2.5-.62 2.5-1.87a7.81 7.81 0 0 1-1.88-3.13l-3.75 1.25 3.75 3.75m-.62 7.5h-2.5c-.42-.41-.63-1.66-.63-3.75l5-.62-1.87 4.37m-1.88 1.88c3.34 0 5 1.04 5 3.12 0 2.09-1.25 3.13-3.75 3.13-.83 0-1.45-.83-1.87-2.5l.62-3.75m-113.75 6.87 5 3.13 1.88 1.87 3.75 5 .62.63 1.88 10.62 1.87 1.25-12.5-18.12-2.5-1.88v-2.5m-23.75 16.88-1.25 3.12-6.25-1.87.63 1.25c1.67 0 2.5.62 2.5 1.87v1.25l-8.75-1.87 3.12-2.5-9.37-1.25 9.37-2.5c2.09 0 5.42.83 10 2.5m-85 15.62h2.5l1.25 1.25c-1.66 1.67-1.87 2.5-.62 2.5-.83 0-1.88-.62-3.13-1.87v-1.88m-13.12 3.13c.42.42.62.83.62 1.25l-.62-.63v.63c.42.42.83 1.04 1.25 1.87.42.42-.42 1.25-2.5 2.5a26.58 26.58 0 0 0-3.75 2.5l3.12-6.25-1.25-1.25c0-.41-.2-.83-.62-1.25l.62.63a9.84 9.84 0 0 0-1.87-2.5 4.78 4.78 0 0 1-.63-1.88l5.63 4.38m6.87-3.75c-1.66.42-1.87 2.08-.62 5 1.25.83 2.08.83 2.5 0 .83-.83 1.25-1.67 1.25-2.5 0-.42-1.04-1.25-3.13-2.5m15 .62v3.75l4.38-1.87-4.38-1.88m25.63 3.13 1.25 7.5-.63-.63-3.12-5-3.13-1.87.63-2.5 5 2.5m-20 8.75-10 1.87-6.25.63-5.63 1.88-5.62 3.12-1.25.63-5.63 5h-3.12v-1.26c0-1.25 1.46-2.5 4.37-3.75 2.92-1.66 4.8-3.12 5.63-4.37l3.75-2.5 1.87-.63 10.63-1.87 5.62-1.88 5-.62c2.92 0 4.38.83 4.38 2.5a4.24 4.24 0 0 1-3.13 1.25h-.62m-5 10 .62 1.88v1.87l-3.75 1.88 1.25-1.88-4.37-5.63 6.25 1.88m-64.38-.63-1.87 4.38-5 5.63h-2.5l1.87-3.76 5.63-5.62.62-1.25 1.25.63m70 1.24-1.87 3.75v-5.62l1.87 1.88m6.88-1.26-2.5 1.25c-.42 1.67 0 2.5 1.25 2.5l.62-.62h.63v-3.13m-61.88 7.5 5.63-5c-1.25 2.09-2.7 4.8-4.38 8.13a118.89 118.89 0 0 1-5 11.25c0-.42-.2-1.04-.62-1.88v-4.37c1.67-3.33 2.08-4.8 1.25-4.38l3.12-3.75m-26.25 25 6.25 1.88 1.25-2.5c-.83 0-2.5-.42-5-1.25-2.5-.83-3.12-1.25-1.87-1.25l-5.63 3.75 5-.63m.63 6.88 6.87 3.75-1.25-4.38-1.87-1.25-1.88-1.25h-3.12l-1.88.63c0-.42-.83.2-2.5 1.88v2.5c1.25 0 2.5-.21 3.75-.63l1.88-1.25m211.25 15c.83 2.5 2.08 3.96 3.75 4.38.42-.42.62-.84.62-1.26 0-.41.21-.83.63-1.25-.83-.83-1.46-1.25-1.88-1.25l-1.25-1.25c-.83 0-1.45-.2-1.87-.62v1.25m4.37 11.88c-1.25 0-2.08-.21-2.5-.63 0-2.5.21-3.75.63-3.75 2.5-2.5 3.75-1.25 3.75 3.75-.42-.42-1.04-.2-1.88.63m-2.5 5h4.38l-1.88 3.74-2.5-3.75m-123.12 7.5 4.38 1.25.62-2.5-2.5-1.25-2.5 2.5m125 .63 1.88 1.88c-.83 2.08-1.46 3.12-1.88 3.12-.83 0-1.25-1.46-1.25-4.38 0-.41.42-.62 1.25-.62m-122.5 4.38 1.88 3.74-3.75 1.25-2.5-2.5c0-1.66.83-2.5 2.5-2.5h1.87m-1.25 8.75 1.25-1.25c.84-.83 1.05 1.05.63 5.63-3.75-.42-5.63-1.04-5.63-1.88 2.92-1.66 4.17-2.5 3.75-2.5m1.25 8.13-7.5 1.25-3.12 4.38c-1.67 2.5-4.17 6.45-7.5 11.87-6.67 10.42-10 16.04-10 16.88l1.25-1.26 3.75-3.75 2.5-5.62 10-13.13c.42-.41.83-1.04 1.25-1.87a9.83 9.83 0 0 1 1.87-2.5c.42 0 .84-.2 1.25-.63 2.92-3.74 5-5.62 6.25-5.62m-3.75 16.25.63 3.13 2.5 3.12c-4.58 0-6.88-1.25-6.88-3.75 0-1.67.63-2.5 1.88-2.5h1.87m-36.87-1.88h-4.38c-.41 0-.62.84-.62 2.5 0 .42.2.84.62 1.25l2.5-1.87 1.88-1.88m-11.25 6.88 3.75-.63-3.75-1.87v2.5m38.75 4.38 4.37 1.87 6.25-1.88c-4.16 0-6.25-.2-6.25-.62l-3.12-.63.62-1.87-1.87 3.13m-45-.63 2.5-1.25c1.25 0 1.87.42 1.87 1.25 0 1.25-.62 1.88-1.87 1.88l-1.88-.63-.62-1.25m126.88 13.13 8.12 1.87v1.88h-2.5l-5.62-3.76m35 .63c3.75 4.17 6.87 6.25 9.37 6.25h3.13c1.25-.42 2.92-.83 5-1.25l-5 5c0 1.25.2 2.08.62 2.5v-.63c-.83-.83-2.7-1.25-5.62-1.25-7.5 0-11.25-3.12-11.25-9.37 0-.42.2-.63.62-.63l3.13-.62m-88.75 24.38.62 1.24c-4.16 2.09-7.08 6.05-8.75 11.88l-1.87-.63 3.12-8.12 4.38-3.75 1.87-1.25.63.63m-50.63 48.74-.62 1.25-10 1.25c1.67-2.5 3.75-3.74 6.25-3.75h1.25l3.12 1.25m288.12-.62c-2.91 4.17-5.41 6.25-7.5 6.25-1.25 0-1.87-.63-1.87-1.88l.62-.62 2.5-1.25 4.38-2.5h1.87m-376.25 30 5 3.75 2.5.63-1.25 1.24c-3.33-2.5-6.45-3.74-9.37-3.75l3.12-1.87m5.63 13.75 1.25 2.5c1.67 2.92 2.5 5.63 2.5 8.13 0 2.5-1.46 5-4.38 7.5l-5.62 4.37c-1.25 1.25-2.5 1.88-3.75 1.88l-15.63 1.25-5.62 2.5-4.38-5 6.88-6.25 5.62-11.88c2.5-5.42 7.09-8.12 13.75-8.13 1.25 0 4.38 1.05 9.38 3.13m348.75-.63 2.5.63.62 1.88c1.25 8.75 2.09 12.91 2.5 12.5v.62l-.62 2.5-3.13.63c.42-1.25.63-2.92.63-5v-3.75c0-3.34-.83-6.67-2.5-10m-333.13 27.5 1.87 1.25c-.83 7.5-5.62 11.87-14.37 13.12l-.63-.63 8.13-5.62 5-8.13m-45 16.25c-.42.84-.63 2.5-.63 5 0 1.67.84 3.34 2.5 5l.63 3.13 1.25 5h-2.5c-3.75-2.92-5.63-5.83-5.63-8.75v-.63l.63-4.37 1.87-4.38h1.88m-6.25 8.13h.62v5.63c0 .41-.41.62-1.25.62-1.25 0-1.87-.63-1.87-1.88v-1.25l.62-3.12h1.88m41.25 15c-.83 1.25-2.92 1.88-6.25 1.88l-4.38.62v-3.13l3.75-.62 3.13-1.25 3.75 2.5" transform="translate(-146.86 -119.79)"/>
</svg>
