<svg xmlns="http://www.w3.org/2000/svg" viewBox="0 0 500 500">
    <path d="M146.86 619.79v-500h500v500h-500m7.5-7.5h485V127.91h-485v484.38m7.5-8.13V135.41h469.38v468.75H161.86m197.5-446.25 5 3.75 18.75-2.5 5 3.75h.63c2.08 0 3.12-1.04 3.12-3.12 0-3.75-3.13-5.62-9.38-5.63h-3.12l-5.63 2.5h-6.87c-1.67-1.66-2.5-3.33-2.5-5 0-4.58 3.75-6.87 11.25-6.87 5 0 9.58 1.46 13.75 4.37l16.25 9.38c.83.83 2.3 1.25 4.38 1.25 8.74 0 12.7-2.3 11.87-6.88v-.62a17.5 17.5 0 0 1-8.75 2.5c-5.42 0-8.96-.83-10.63-2.5l-13.75-10c-3.33-2.08-7.7-3.12-13.12-3.13-3.75 0-7.7 1.25-11.88 3.75-3.75 2.5-5.62 5.63-5.62 9.38 0 .42.42 2.3 1.25 5.62m-190-11.25 5-.62c2.5 0 5.62 2.3 9.38 6.87 1.25 2.5 1.87 4.59 1.87 6.25 0 .42-.42 2.3-1.25 5.63l-.63 3.12-1.24 3.13-1.25 1.87c-.84 4.17-2.71 8.34-5.63 12.5l-.63 5-2.5 8.13v5.62l-2.5 10v13.75l1.26 4.38 1.25 14.37c1.66 10.42 3.33 15.63 5 15.63 3.33 0 4.58-1.67 3.75-5v-.63c.41.42 1.25.63 2.5.63 2.08 0 3.12-1.25 3.12-3.75v-21.25l1.25-6.88c2.92-12.5 8.96-18.75 18.13-18.75 1.25 0 3.54.63 6.87 1.88l1.88 2.5 1.25 1.87-.63 2.5-1.25 4.38-5.63 1.25-6.24 1.25c-4.59.83-6.88 3.13-6.88 6.87 0 3.34 2.7 5.84 8.13 7.5l1.87-6.87 13.75-5.63c2.92-1.25 4.37-4.16 4.38-8.75 0-7.08-3.34-11.45-10-13.12l.62-3.13 2.5-3.12.63-.63c0-2.08-2.3-3.54-6.88-4.37-1.25-.83-3.33-1.46-6.25-1.88l-8.75 3.75-3.13 3.75-5 6.25c-2.5 2.92-4.37 7.5-5.62 13.75l-.63-1.25-1.24 5.63v8.75l-1.88.62h.63-.63c-.42-1.25-.63-3.95-.63-8.12 0-3.75.84-7.08 2.5-10l12.5-23.75a19.33 19.33 0 0 0 1.88-8.75c0-.42-.42-2.3-1.25-5.63l1.25-3.12c2.08-3.33 3.12-5.62 3.13-6.88 0-.83-1.05-3.95-3.13-9.37l-1.25-1.88c-.42 1.67-1.04 2.5-1.88 2.5l-2.5-.62v-.63l.63-5c0-1.66-1.25-4.16-3.75-7.5-2.92-1.66-5.63-2.5-8.13-2.5-5 0-7.7 2.5-8.12 7.5m388.75 1.25c-5.83 3.34-9.8 5-11.88 5-3.33 0-7.7-1.25-13.12-3.75l.63 3.13 5 .62 8.75 2.5 5-.62 6.87-1.25c3.75-.42 5.62-3.12 5.63-8.13 0-2.08-.63-3.54-1.88-4.37l-4.38-1.88-.62 8.75m-33.75 1.88c.83 5.83-1.46 8.75-6.88 8.75-7.91 0-11.87-2.3-11.87-6.88 0-3.33 1.46-5 4.38-5l6.87-.62c.83 0 1.25-.42 1.25-1.25 0-1.67-1.67-2.5-5-2.5-7.5 0-11.25 3.13-11.25 9.37 0 4.17 1.67 6.67 5 7.5l7.5 2.5c.42.42 5-1.25 13.75-5l1.25-3.12-1.25-3.75c-.42-.42-.63-1.25-.63-2.5 0-2.5 2.09-3.96 6.25-4.38l8.75 2.5c-2.08-3.74-4.79-5.62-8.12-5.62-7.5 0-10.83 2.5-10 7.5v2.5m-321.88-9.38-1.87 2.5c3.74 0 5.62 2.09 5.62 6.25 0 3.34-1.46 6.46-4.37 9.38l1.25 1.87 2.5-3.75 2.5-3.12a8.48 8.48 0 0 0 2.5-6.25c0-4.17-.84-6.25-2.5-6.25l-3.13-.63h-2.5m41.88 1.88-13.75 5-5.63 1.25-5 3.12-10 6.25-6.87 7.5c1.25.42 3.12.63 5.62.63h4.38l3.12-.63 18.75-10.62c6.25-3.75 15.63-5.62 28.13-5.63 12.91 0 25.41 3.55 37.5 10.63 4.16 3.75 6.87 5.63 8.12 5.62.83 0 1.46-.2 1.88-.62l1.87-1.88 1.88 1.88c.41.42 1.25.62 2.5.62 2.08 0 3.12-.83 3.12-2.5 0-1.66-3.13-4.79-9.38-9.37l-3.12-2.5-5-1.88-1.88-2.5-1.87.63c-.83.42-2.3 0-4.38-1.25a28.34 28.34 0 0 0-3.75-2.5c-10.41-2.08-19.79-3.12-28.12-3.13l-18.13 1.88m216.89 2.5.62 8.75.63 1.87c.41-1.25 1.04-1.87 1.87-1.87 1.25 0 1.87.42 1.88 1.25-.42.42-.63 1.04-.63 1.87h1.88l1.25-9.37v-1.88c-.42-2.91-1.67-4.37-3.75-4.37h-1.88l-1.88 3.75m10 9.37c.84-2.08 2.3-3.12 4.38-3.12v2.5l-2.5 3.12 1.25.63 2.5-.63 3.75-3.75 1.88-2.5c1.66-1.66 2.5-3.33 2.5-5 0-1.66-1.05-2.5-3.13-2.5-4.17 0-7.7 3.76-10.63 11.25m-162.5-6.25c.42 2.09 2.3 3.34 5.63 3.75a14.6 14.6 0 0 1 3.75 2.5l8.13 4.38c3.74 2.5 8.74 3.75 15 3.75 7.5 0 11.25-3.75 11.25-11.25 0-4.17-1.67-6.67-5-7.5l-3.13-.63-.63 7.5c0 3.34-3.33 5-10 5l-5-1.25-6.25-1.87-6.87-1.88-3.13-2.5h-3.75m142.5-2.5c-2.08 2.09-3.12 3.34-3.12 3.75 0 5.42 3.12 8.96 9.38 10.63l-3.13-5.63h3.13l2.5 3.13c-1.25-5.83-4.17-9.8-8.75-11.88m-26.88 4.38c-.42 0-.63.42-.63 1.25h1.25v-.63c0-.41-.2-.62-.62-.62m-170 3.12-1.25.63-4.38-.63c-1.66 0-4.16 1.05-7.5 3.13l-1.24 1.25 9.37.62c2.92.84 4.8 2.09 5.63 3.75l1.25 1.25v3.13c0 1.25.41 1.88 1.25 1.87 5.41 0 8.12-2.5 8.12-7.5 0-4.16-3.75-6.66-11.25-7.5m225 3.75-1.25.63v3.75l-1.88 1.87 1.25 1.25h1.88c6.67 0 10-1.87 10-5.62 0-.42-.63-1.04-1.88-1.88l-3.12-1.25h-3.13l-1.87 1.25m132.5 0-9.38 5-5.62 1.88-10.63-.63-5.62 1.25-11.88 1.25c-2.91.42-6.04 3.34-9.37 8.75l-3.13-.62c-.41-4.17-1.25-6.46-2.5-6.88l-1.87 1.88c-.83.42-1.67 1.46-2.5 3.12l-1.25-.62-2.5 3.75-6.25 5.62c-3.33 3.34-5 12.09-5 26.25 0 1.67.42 4.17 1.25 7.5.83 2.92 1.25 5 1.25 6.25 0 1.67-1.25 2.71-3.75 3.13-3.75-.42-5.63-2.7-5.63-6.88v-1.87c.42-2.08.84-6.04 1.25-11.88v-2.5c.42-2.08-.2-4.79-1.87-8.12-1.25-3.33-2.7-5-4.38-5-.83.83-1.25 2.08-1.25 3.75h-3.12c-2.5-5.42-6.88-8.75-13.13-10l2.5 6.87-1.25 13.75 1.25 6.88 1.25 4.37.63 1.25 5 8.13-9.38-3.75c-.41-.42-1.25-.63-2.5-.63-1.66 0-2.7.21-3.12.63v6.87c0 1.67 1.04 6.26 3.13 13.75l4.37 9.38 6.25 6.87c1.67.84 3.12 1.88 4.38 3.13 1.25 1.25 2.7 2.5 4.37 3.75 0 1.25-1.04 1.88-3.13 1.87l3.13-.62h-5l-4.38-1.25 1.88 5.62 3.75 5.63 1.88 1.25 6.87 8.75 3.13 3.75 1.87.62 3.75 4.38 1.88 3.12 1.87.63-2.5-.63 3.75 2.5 2.5 2.5 9.38 9.38 5 5.62 1.25-1.25c0 .42-.84-1.66-2.5-6.25-1.67-5-2.5-9.58-2.5-13.75 0-17.91 6.66-27.29 20-28.12l13.75-.63c3.33 0 7.08-2.08 11.25-6.25-1.25-1.66-3.13-2.5-5.63-2.5l-3.75-2.5 3.13-1.87 6.87 1.25c1.67 0 5.42-1.67 11.25-5l8.13-9.38h-.63c-6.25 0-11.46-2.08-15.63-6.25-5.41-2.08-10-3.12-13.75-3.12l.63-1.88 3.75-3.12h.63c0-2.08-1.88-3.12-5.63-3.13l-3.13.63h5.63l-15 .62-7.5 3.75-1.88 1.25-1.25 1.88h-3.12.63l-3.13 1.25c-4.17-.42-6.25-2.3-6.25-5.63 0-5.83 4.37-8.54 13.13-8.12h11.87c20.83.83 32.3-7.7 34.38-25.63l-1.88-3.75c-2.08 2.5-3.75 3.76-5 3.75-.42 0-1.25-.62-2.5-1.87 6.67-3.33 10.83-10.83 12.5-22.5l-.63-5-3.12-5.63m-158.12 5v-1.25c-2.92-1.66-5.2-2.5-6.88-2.5-2.5 0-3.75 1.25-3.75 3.75 0 1.67 1.05 2.5 3.13 2.5s4.58-.83 7.5-2.5m84.38-1.87c-5 7.08-12.09 10.62-21.25 10.62-7.09 0-12.71-1.25-16.88-3.75a30.8 30.8 0 0 0-3.13-1.87 7.2 7.2 0 0 1-1.87-1.25h-1.25c-.83 0-1.25.62-1.25 1.87 0 .42.42.63 1.25.63 8.75 5 16.67 7.5 23.75 7.5 3.75 0 8.12-1.04 13.13-3.13 5.41-2.08 8.12-4.79 8.12-8.12 0-1.25-.2-2.08-.63-2.5m-106.88 15.62c-7.5 7.5-13.33 17.09-17.5 28.75-.41 2.09-.83 3.96-1.25 5.63a7350.13 7350.13 0 0 0 0 7.5c.42 1.25.84 2.92 1.25 5 3.75 22.92 16.46 38.96 38.13 48.12l.63-5c-20.42-6.66-32.5-23.33-36.25-50a55 55 0 0 1 4.37-18.12c2.5-6.25 5.62-11.46 9.38-15.63a42.53 42.53 0 0 1 12.5-10.62c4.58-2.92 9.16-4.37 13.75-4.38h6.87c2.5.84 3.75.21 3.75-1.87 0-1.25-1.67-1.87-5-1.88-7.08 0-17.3 4.17-30.63 12.5m45.63-6.87-5.63-.63 2.5 3.13c4.59 3.33 7.92 5 10 5 2.92 0 4.38-1.25 4.38-3.75 0-2.08-1.25-3.54-3.75-4.38l-7.5-1.87v2.5m-150 0-78.13 3.75-43.12-1.88c-1.25-.41-3.54-.62-6.88-.62-1.24 0-1.87.2-1.87.62 0 2.09.2 3.34.63 3.75l5.62 3.13 21.88 6.25c2.91 2.5 6.66 5.63 11.25 9.37l7.5 9.38 2.5 6.25c.41.42 1.04 2.08 1.87 5 1.67 4.58 2.5 8.75 2.5 12.5l-.63 19.37a30.24 30.24 0 0 0 4.38 3.75l6.25 2.5c2.08.84 4.37 1.46 6.88 1.88l14.37 1.25c2.5 0 3.75-1.25 3.75-3.75v-3.13l1.25-50c4.58-7.5 13.13-12.08 25.63-13.75 6.24-.83 12.08-1.45 17.5-1.87 5.83-.83 11.45-1.25 16.87-1.25 21.25 0 41.67 3.75 61.25 11.25l6.88 1.87 4.37-7.5 6.88-9.37c1.25-1.67 1.87-2.92 1.87-3.75-.83-.83-3.13-1.67-6.88-2.5l-10-1.25-9.37-1.25-17.5-1.25-57.5 1.25m126.88 1.25c-2.5.83-3.75 1.88-3.75 3.12 0 2.09 1.25 3.13 3.75 3.13.83 0 2.08-.83 3.75-2.5-1.25-.42-1.88-1.46-1.88-3.13v-.62h-1.87m7.5 2.5c-2.08 3.33-3.13 5.2-3.13 5.62l.63 3.13h2.5c1.67 0 2.5-1.87 2.5-5.63-1.67 0-2.5-.62-2.5-1.87v-1.25m10-.63v4.38l-4.38-1.88c0 6.26 1.67 9.38 5 9.38 2.09 0 3.13-1.25 3.13-3.75 0-2.08-1.25-4.8-3.75-8.13m-48.75 27.5c22.92 16.67 35 41.05 36.25 73.13l34.38 2.5 1.25-13.13c-2.09-32.08-13.55-55.83-34.38-71.25l-10-7.5c-5.83-3.74-9.58-5.62-11.25-5.62-5 0-10.42 7.3-16.25 21.87m-189.38-3.75v-2.5l-3.75-2.5-11.25-6.25-4.38-1.25-5.62-1.25-9.38-3.75v2.5c0 .84 1.67 1.88 5 3.13l7.5 2.5 10.63 3.12 3.75 1.88c1.67.83 4.17 2.3 7.5 4.37m100-11.25-6.25 1.25a6 6 0 0 0 4.38 1.88l10-1.25c28.75 0 50 3.75 63.75 11.25 2.91 1.67 4.79 2.5 5.62 2.5 1.25 0 1.87-.42 1.88-1.25 0-.42-.21-.83-.63-1.25l-5-2.5c-15.83-7.5-33.96-11.04-54.38-10.63h-19.37m-15.63 1.25-3.75 1.25c-16.25 2.09-24.37 7.92-24.37 17.5l.63 28.75v6.88c0 1.25-.21 2.92-.63 5l-.63 6.87c.84.84 1.67 1.25 2.5 1.25.84 0 1.25-1.25 1.25-3.75 0-2.08-.2-3.74-.62-5l-.63-7.5.63-21.25v-15c0-1.66 1.46-3.33 4.38-5l5-3.12c.83-.83 4.79-2.08 11.87-3.75 3.33-.83 5.62-1.46 6.88-1.88l-2.5-1.25m15 6.25-1.25 18.13 1.87 3.12v.63l5 6.25-1.25-4.38 10.63 5-5 .63a7.84 7.84 0 0 0 6.87 3.75h1.25l10.63-1.88-1.25-6.25 15 .63c8.33.83 13.54-3.33 15.62-12.5l-5-.63c.42-1.66.63-2.91.63-3.75.41-1.25.62-2.29.62-3.12 0-1.25-2.08-2.08-6.25-2.5-3.75 5.83-8.75 8.96-15 9.37l3.75.63c-1.67.42-3.13.83-4.38 1.25h-4.37c-7.92 0-13.13-3.75-15.63-11.25-.83-2.5-1.25-3.54-1.25-3.13l-3.75-.62h-2.5l-5 .62m-8.75 0-4.37 1.25-1.88 8.75c-4.58 5-8.33 7.5-11.25 7.5-2.5 0-5.2-.62-8.12-1.87l-1.25 3.75 5 5 11.25-.63v5l3.13-.62c8.33-5.83 12.29-13.13 11.87-21.88v-3.12l1.25-3.13h-5.63m73.75 26.25c.42-2.5 1.88-3.74 4.38-3.75 2.5 0 4.58 1.46 6.25 4.38l3.13 10.62a16.24 16.24 0 0 1-.63-5v-3.75c-.42-9.16-3.54-13.75-9.38-13.75-5.41 0-8.12 2.09-8.12 6.25 0 1.67 1.46 3.34 4.38 5m-155.63-1.87c-5 3.33-7.5 7.3-7.5 11.87 0 10.42 4.38 18.96 13.13 25.63 8.75 6.25 20 8.96 33.75 8.12l.63-.62 4.37-.63 8.75-1.25 6.25-3.12 8.13-3.13c6.24-2.91 12.7-10.41 19.37-22.5 1.67-2.91 2.5-5.62 2.5-8.12 0-1.25-1.04-2.92-3.13-5-.41 7.92-4.37 16.46-11.87 25.62h-.63l-2.5 1.88-3.75 3.12-6.87 3.13-6.25 3.12-9.38 1.88a54.39 54.39 0 0 1-14.37 1.87c-4.17 0-8.33-.83-12.5-2.5a48.88 48.88 0 0 1-11.25-6.25 51.87 51.87 0 0 1-8.13-8.75c-2.08-3.33-3.12-6.45-3.12-9.37 0-4.58 2.08-8.75 6.25-12.5l-1.88-2.5M490 224.16l-2.5-3.12a86.94 86.94 0 0 1 9.37 39.37c0 1.67-.42 4.17-1.25 7.5a66.2 66.2 0 0 0-.63 7.5c0 1.25 1.46 2.09 4.38 2.5 1.25-5.41 1.87-9.58 1.88-12.5 0-2.91-.21-4.79-.63-5.62l-.63-7.5c-.41-1.25-.83-2.7-1.25-4.38 0-2.08-.41-4.58-1.25-7.5l-7.5-16.25m-102.5 13.13 1.88-14.38h-.63c-2.91 0-4.37 1.88-4.37 5.63 0 2.5 1.04 5.42 3.13 8.75m51.87 18.12c-5.42-7.91-8.13-13.95-8.13-18.12 0-3.75 2.5-7.3 7.5-10.63-.83-2.08-2.5-3.12-5-3.12-5.41 0-8.12 3.33-8.12 10 0 7.08 4.58 14.37 13.75 21.87M333.11 224.8l-.63 3.12-1.87 5.63 1.25-.63v-1.25l1.88-3.75-.63-3.12m38.75 3.12c-.83-1.25-1.88-1.87-3.13-1.87-1.66 0-2.5.83-2.5 2.5 0 1.25.42 1.88 1.25 1.87 1.25 0 2.71-.83 4.38-2.5m29.38 23.13v1.25c0 2.08-.84 3.13-2.5 3.12l-3.13-.62c-1.67-.83-4.38-1.67-8.13-2.5-.41-.42-1.66-.63-3.75-.63-8.33 0-12.5 3.13-12.5 9.38 0 2.08.21 3.33.63 3.75l1.88 1.25c2.91-4.17 5.41-6.25 7.5-6.25.41.42.83.62 1.25.62l11.25 5.63c2.5.83 4.16 1.25 5 1.25h.62c2.08-.83 3.96-2.92 5.63-6.25l3.75 1.25 1.25.62c11.66 6.67 21.25 10 28.75 10 .83 0 1.45-.2 1.87-.62 0-1.25-3.13-2.3-9.38-3.13a41.35 41.35 0 0 0-6.87-2.5 235 235 0 0 0-9.38-4.37 9.75 9.75 0 0 1-2.5-1.88l-2.5-2.5c2.5-1.66 3.75-3.33 3.75-5v-1.87l-.62-1.88-8.75-12.5-.63-8.12c-.41-.42-.83-.63-1.25-.63-.41.42-1.04.63-1.87.63-.42 0-.83.2-1.25.62a8.11 8.11 0 0 0-4.38 7.5l1.25 3.75a339.7 339.7 0 0 1 5 10.63m-82.5-19.38c-4.16 4.17-8.54 6.26-13.12 6.25-.42 0-3.33-1.04-8.75-3.12v3.12l1.88 3.13c1.66 2.5 3.74 3.75 6.25 3.75 4.16 0 9.16-4.17 15-12.5l-1.25-.63m70.62 15-2.5-3.75-5-4.37c-3.33-3.33-5.2-5-5.63-5-1.66 0-2.5.42-2.5 1.25l.63 1.25c.42.42.63.83.63 1.25l1.25 1.25 6.87 5 2.5 1.87 3.75 1.25m-60.63-10-3.75 6.25a30.97 30.97 0 0 0-5.62 8.13v1.25c0 4.17 2.3 6.67 6.88 7.5-2.92-4.17-4.38-6.87-4.38-8.13 0-2.5 1.04-5 3.13-7.5 2.5-2.5 3.74-4.16 3.75-5v-2.5m5 27.5 1.25 3.75.62 1.25 5 8.75 1.25.63 6.88 6.25v1.87c-3.76.84-5.63 1.67-5.63 2.5 0 5 3.75 9.59 11.25 13.75a38.48 38.48 0 0 0 16.25 3.75c2.5 0 4.58-.83 6.25-2.5l1.88-1.25 2.5-1.87c3.33-2.08 6.24-3.75 8.75-5 2.5-1.67 4.58-2.7 6.25-3.13l15-1.87 8.12-4.38 6.25.63v3.12c0 2.92-2.92 4.38-8.75 4.38-1.67 0-3.96-.2-6.88-.63-2.91-.41-5-.62-6.25-.62-.83 0-2.5.42-5 1.25l-1.25.62h1.88l-6.25 1.88-10.63 6.25a87.39 87.39 0 0 0-8.12 9.37c-2.5 2.92-3.75 5.42-3.75 7.5 0 2.92.2 5 .63 6.25l11.25-3.75v3.13l-2.5 3.75.62 1.87-.63 3.75 2.5 4.38c2.92 2.92 6.05 4.38 9.38 4.37 8.33 0 13.75-2.91 16.25-8.75l8.13-18.12c.83-2.08 2.7-3.12 5.62-3.13l7.5 1.25-.63-4.37-3.75-1.25h-3.12c-2.5 0-3.96.62-4.38 1.87l-.62 1.88c-1.25 0-3.13 1.46-5.63 4.37l-.62 1.25-2.5 3.13c-1.67 5.42-4.17 8.13-7.5 8.12-4.17 0-6.25-2.08-6.25-6.25 0-5.41 6.67-11.25 20-17.5 12.92-6.66 28.75-10 47.5-10 19.17 0 33.54 1.88 43.13 5.63l30 11.25 3.12 3.12 5.63 3.75 4.37 3.75 2.5 3.13 4.38 5c3.74 3.75 7.5 6.46 11.25 8.12.41-2.08.62-3.74.62-5 .42-1.25.63-2.08.63-2.5 0 .42-.42-1.04-1.25-4.37l-12.5-11.88-1.25-1.25-4.38-3.75-6.25-5c-3.33-3.74-7.08-6.24-11.25-7.5l-1.88-1.25-10-5-4.37-2.5-1.88-.62-1.25-.63-2.5-1.87-4.37-1.25-9.38-2.5-4.37-1.88-10-1.87-13.75-1.25h5.63l-17.5-.63c-3.76 0-10 .63-18.75 1.88l-53.75 2.5H371.86l-11.88-1.88c-14.16-4.16-21.25-11.87-21.25-23.12 0-6.67 3.13-10 9.38-10 .83 0 2.08.83 3.75 2.5l1.25 4.37c-1.25 5.84-1.88 8.96-1.88 9.38 0 3.33 1.25 5 3.75 5l6.88.62-3.75-8.12v-2.5c.42-1.25.83-2.92 1.25-5l.63-1.88c0-6.66-3.55-10-10.63-10-10.83 0-16.25 5.21-16.25 15.63 0 3.33.2 5.63.63 6.87m-146.25-5c-4.59 4.59-7.71 11.05-9.38 19.38l-.63 6.25c0 9.58 2.5 20 7.5 31.25a4.78 4.78 0 0 1 1.88-.63l1.25-.62-1.25-2.5c0-.83-.42-1.67-1.25-2.5-3.33-5.83-5-13.13-5-21.88a41.42 41.42 0 0 1 10-27.5c6.67-8.33 14.17-12.5 22.5-12.5 2.08 0 6.87 1.67 14.38 5l5.62 5 2.5 5.63c1.25 5 1.87 8.96 1.88 11.87 0 7.09-2.71 13.96-8.13 20.63l1.25 1.25c7.5-6.67 11.25-14.58 11.25-23.75 0-8.33-2.92-15.42-8.75-21.25-5.42-6.25-11.88-9.37-19.38-9.38-10 0-18.74 5.42-26.24 16.25m15 3.13-.63 2.5c-1.67 3.33-2.5 6.46-2.5 9.37 0 2.5 1.67 6.05 5 10.63l3.75 5 4.38 5 9.37 5-8.75-8.75c-2.92-4.17-4.38-8.54-4.38-13.13 0-8.74 2.92-13.12 8.76-13.12 2.5 0 5.2.83 8.12 2.5 0-3.75-1.25-6.87-3.75-9.38a66.57 66.57 0 0 0-7.5-.62 17.16 17.16 0 0 0-3.75-.63c-2.92 0-5.63 1.88-8.13 5.63m48.13-3.75-.63 6.25.63 25.62v31.88l.63 123.75c8.74.83 16.87 4.58 24.37 11.25l2.5.62 7.5 7.5.63-6.25v-83.12c0-1.67.2-2.92.62-3.75l95-.63 10 14.38 4.38 7.5 3.12 5 1.88 1.25 5.62-8.13 5.63-5 3.12.63-.63-1.25 3.75 12.5 3.75 5 6.88-8.13 11.25-3.75c0-1.25-1.67-4.16-5-8.75-9.17-10.41-13.75-17.29-13.75-20.62 0-3.75 1.87-6.67 5.63-8.75l24.37-13.13 14.38-11.87 16.25-20.63c1.25-1.66 1.87-3.12 1.87-4.37s-1.04-1.87-3.13-1.88h-2.5a31.76 31.76 0 0 0-6.25-.62h-20l-5.62 12.5c-6.67 13.75-18.33 24.8-35 33.12-16.25 7.92-35.63 11.67-58.13 11.25l-63.75-1.25-3.75-2.5v-3.75l-.62-81.25c0-3.74-.63-5.62-1.88-5.62.42 0-1.45.42-5.62 1.25h-3.75a39.82 39.82 0 0 1-16.88-3.75l-3.12-1.25-3.75-1.25m195.62 0 6.25 3.75-6.25-3.75m-155.62 4.37-1.25.63.63 90 1.25-.63.62-3.12v-35.63l-.63-13.12.63-21.25-.63-11.88v-1.25c.42-.41.63-1.25.63-2.5l-1.25-1.25m300.62 10c-1.67.42-2.5 1.88-2.5 4.38-1.25-.42-3.33-.63-6.25-.63-10.42 0-15.63 7.09-15.63 21.25v5.63c0 2.5.21 4.38.63 5.62l3.13 6.25c2.08 3.34 3.54 5.84 4.37 7.5l1.88 2.5c1.25 0 1.87-.41 1.87-1.25v-1.87c-6.25-7.5-9.38-14.38-9.38-20.63 0-7.08 2.5-12.91 7.5-17.5 2.09-2.08 3.75-3.12 5-3.12l5.63 1.25-1.25 8.12 2.5 6.88c1.25 1.25 1.87 2.3 1.88 3.12 0 1.67-.21 2.71-.63 3.13l-.63 1.25-1.87 3.12c.83.42 2.5.63 5 .63 4.58 0 6.87-2.7 6.88-8.13 0-1.66-.21-2.7-.63-3.12l-2.5-6.88c-.42-.41-.63-1.45-.63-3.12 0-2.5 1.05-4.37 3.13-5.63l11.25-5 .63-2.5 1.87-2.5c.42-.41.63-1.25.63-2.5 0-2.91-.84-4.37-2.5-4.37-.42 0-1.46 1.25-3.13 3.75-1.67 2.08-3.54 3.13-5.63 3.12H590.6l.63 1.25m-288.75-4.37c-4.17 2.92-6.25 7.3-6.25 13.12v4.38c0 1.67.2 3.13.63 4.37l1.25 1.88 2.5 5.62c6.66 6.26 12.29 9.38 16.87 9.38 6.25 0 11.46-.42 15.63-1.25l6.87-3.13c2.08-.83 3.12-1.66 3.13-2.5 0-.83-.42-1.25-1.25-1.25-1.25 0-3.55 1.05-6.88 3.13-.42.42-1.25.62-2.5.62s-2.3.21-3.13.63c-2.91.42-5.2.83-6.87 1.25h-3.13c-10.41 0-15.62-5-15.62-15 0-8.75 3.96-13.13 11.88-13.13 2.91 0 6.04 1.88 9.37 5.63.42 1.67 1.04 2.5 1.88 2.5h1.87c1.25-2.92 1.87-5.2 1.88-6.88 0-2.08-1.25-4.58-3.75-7.5-2.09-3.33-5.21-5-9.38-5-2.08 0-3.54.42-4.38 1.25l-3.12 3.75-5.63-2.5-1.87.63m-115 2.5-.62 3.12-1.25 5 5.62 10 3.75 3.75 4.38 5c9.58 11.25 20.62 17.92 33.12 20l12.5 1.88v-6.25c0-1.67-2.5-2.92-7.5-3.75-2.5 0-5.63-1.25-9.37-3.75h-.63l-17.5-10a58.9 58.9 0 0 1-3.75-4.38 87.4 87.4 0 0 1-5.62-8.12l-1.88-1.88a27.73 27.73 0 0 0-2.5-5 19.4 19.4 0 0 0-1.25-3.75c-2.08-3.74-3.54-5.62-4.37-5.62l-3.13 3.75m-21.25 18.75 2.5 1.25.63-3.13 4.37-2.5c.42-.41.63-1.04.63-1.87 0-4.58-1.25-6.87-3.75-6.88-3.76 0-5.63 2.5-5.63 7.5 0-.41.42 1.46 1.25 5.63m338.75-10c-.42.42-.63 1.25-.63 2.5 0 .83.42 1.25 1.25 1.25l1.25.62 8.75 3.13.63-1.88-3.75-1.87-7.5-3.75m-320.62 1.87.63 6.88 8.12 6.87-8.75-13.75m428.75 15 2.5 6.88c1.67-1.67 2.5-3.12 2.5-4.38l-1.88-5.62c-.41-1.67-1.87-3.33-4.37-5l-1.25-.63h-7.5l3.13 1.25 3.12 3.13c1.25 1.25 2.5 2.7 3.75 4.37m-56.25 1.88 1.88 10.62 5 11.25 2.5 3.75 2.5 3.13c1.66-.42 2.5-1.25 2.5-2.5v-1.25l-2.5-3.75-11.88-21.25m66.88 1.25c-.84 0-1.67 1.04-2.5 3.12l-.63.63c0 2.92 1.25 4.38 3.75 4.37 2.08 0 3.12-1.04 3.13-3.12v-1.88c-.84-2.08-2.09-3.12-3.75-3.12m-15.63 1.87c-2.08 0-3.13 1.05-3.13 3.13s1.05 3.13 3.13 3.12c1.67 0 2.5-1.25 2.5-3.75 0-1.66-.83-2.5-2.5-2.5m-121.25 2.5c-2.5 9.17-10.42 19.8-23.75 31.88l-3.13 1.87c-2.08 1.25-4.58 2.71-7.5 4.38a961.04 961.04 0 0 1-10 5.62l-3.75 1.88c-.83.42-1.45.83-1.87 1.25l-4.38 3.12c-5 3.34-7.5 6.26-7.5 8.75 0 2.09 1.88 5.21 5.63 9.38.83.83 1.87 2.5 3.13 5l13.75 18.12 3.75 4.38c1.66-.42 2.5-1.25 2.5-2.5v-.63l-5.63-6.87-5-8.13-6.25-6.87-3.75-6.88c-2.08-3.33-3.13-5.41-3.13-6.25.42-.41.84-.62 1.25-.62l1.88-1.88 23.13-12.5 5-3.75c7.91-5.83 13.54-11.04 16.87-15.62l3.13-5.63 10.62-15 .63-1.25c0-1.66-.84-2.5-2.5-2.5h-.63l-2.5 1.25m-189.38 13.75-.63 7.5a156.6 156.6 0 0 0 11.25-1.87c4.59-1.25 9.38-2.92 14.38-5l10.63-3.75c11.66-4.17 17.5-7.08 17.5-8.75 0-.83-.63-1.67-1.88-2.5l-.63-.63h-.62l-1.25.63-8.13 4.37c-1.25.42-2.7.84-4.37 1.25a44.47 44.47 0 0 0-5.63 1.88c-4.58 1.25-8.33 2.3-11.25 3.12-2.91.84-5 1.46-6.25 1.88-.83 0-5.2.62-13.12 1.87m-62.5-12.5-.62.63 7.5 2.5c-.84-2.08-2.3-3.12-4.38-3.13h-2.5m108.75 8.75-7.5 5.63-10 5.62c-.42.42-1.25 1.05-2.5 1.88-.83.83-2.08 1.88-3.75 3.12l-16.25 15-1.88 1.88a38 38 0 0 1-3.12 2.5l-1.25.62c.42 1.67 1.25 2.5 2.5 2.5l.63-.62 1.25-.63 5.62-5 3.75-1.87 6.88-6.88c12.08-11.66 21.66-18.95 28.75-21.87 7.5-2.92 11.25-5.2 11.25-6.88-.84-.83-2.5-1.25-5-1.25-.84 0-3.96 2.09-9.38 6.25m270.62-5c-1.67 0-2.5 1.25-2.5 3.75 0 2.92 1.04 4.38 3.13 4.38 2.5 0 3.74-1.04 3.75-3.13 0-3.33-1.46-5-4.38-5m-250 3.75c-22.08 11.67-35.42 25-40 40h14.38l11.25-15.62 15-12.5 1.25-6.25.62-3.75-1.88-2.5-.62.62M171.23 342.3l4.38-1.88 2.5-6.25 8.75-10 5.62-2.5 6.88-4.37 10-2.5c-.42-1.67-1.25-2.5-2.5-2.5-.84.42-2.09.83-3.75 1.25a44.49 44.49 0 0 0-5.63 1.87l-5 1.88c-8.75 2.92-15.83 11.25-21.25 25m323.75-25.63-1.88 1.88c-3.75 4.58-5.62 10.42-5.62 17.5l.63 3.12 5 7.5 5 5 3.75 3.75 5 3.75a24.43 24.43 0 0 0 5.62 3.13l-1.88-3.75-8.75-8.75a18.27 18.27 0 0 1-3.75-11.25c0-3.33 2.09-6.87 6.25-10.63v-1.87h2.5c5 2.08 7.71 3.13 8.13 3.12.83 0 1.25-.41 1.25-1.25 0-5.83-3.13-8.74-9.38-8.75-.41 0-1.25.21-2.5.63a27 27 0 0 0-5 .62l.63 1.25h-3.13c-.83 0-1.25-.41-1.25-1.25l.63-3.12-1.25-.63m38.13 1.25-.63.63c-6.25.83-9.38 3.33-9.38 7.5 0 2.5 1.25 4.58 3.75 6.25 2.5-5.42 4.8-8.12 6.88-8.13h.63l.62.63 10.63 2.5-.63-1.88-3.13-3.12a40.88 40.88 0 0 0-4.37-3.75h-3.13l-1.25-.63m-303.12 3.75-6.24-1.87h-3.75l.62 1.25-1.88 1.87v2.5c2.92-1.66 6.67-2.91 11.26-3.75m355.62 5-1.88 2.5v2.5h-3.13c-1.66.42-3.95-.2-6.87-1.87-.42 2.08-.83 3.96-1.25 5.62v4.38c0 2.92 1.25 6.46 3.75 10.62v1.88l10 11.87 3.75 1.25.63.63 2.5 3.12c1.66 1.67 2.5 2.92 2.5 3.75 0 1.67-.63 3.34-1.88 5l-7.5 1.25.63-1.87c-2.92-4.17-5.42-9.58-7.5-16.25l-3.75-7.5-3.75-3.75-6.88-5.63-3.75-.62c-5.83-.83-10-1.46-12.5-1.88-2.5-.83-3.33-1.25-2.5-1.25-1.25 0-2.7.63-4.38 1.88l-2.5.62 2.5 5c0 1.25.21 2.09.63 2.5a4.24 4.24 0 0 1-3.13 1.25h-.62c-3.75.84-6.25 2.09-7.5 3.75-2.08 5.42-3.13 8.55-3.13 9.38a8.3 8.3 0 0 0 1.88 5l.63 1.25a7.84 7.84 0 0 0 6.87 3.75v-2.5c-.42-5.42 3.54-8.12 11.88-8.13.83 0 3.74 1.05 8.75 3.13l5.62 5.62 3.13 5v1.25l7.5 8.75c4.58 3.34 8.12 5 10.62 5 8.33 0 12.5-1.87 12.5-5.62v-1.88c-1.25 2.09-2.5 3.13-3.75 3.13s-2.08-.2-2.5-.63l-1.25-1.87 5.63-1.25 3.12-5 2.5 1.25a20.76 20.76 0 0 0 1.88-8.13c0-6.24-2.71-11.87-8.13-16.87-5-7.5-7.5-13.13-7.5-16.88 0-8.33 4.17-12.5 12.5-12.5 2.92 0 6.04 1.88 9.38 5.63l1.25 4.37v5.63c-3.76 10-5.63 15.42-5.63 16.25 0 3.33.2 5.63.63 6.87l1.25 1.88c4.58 3.33 7.7 5 9.37 5 5.42 0 8.54-3.54 9.38-10.63h-1.88c-5.83.84-8.75-1.66-8.75-7.5l1.25-18.12c0-4.58-3.13-8.54-9.38-11.88-2.91-1.66-5.62-2.5-8.12-2.5-5.42 0-9.8 1.67-13.13 5m-363.75 21.25-15.62-11.87-12.5-10.63c-.83 0-1.46.63-1.87 1.88v.62c.41 1.25 1.45 2.3 3.12 3.13 5.42 3.33 10 6.88 13.75 10.62 3.75 3.76 6.87 7.3 9.38 10.63 2.91 5 5.41 7.5 7.5 7.5 1.66 0 2.5-1.04 2.5-3.13l-.63-.62-.62-.63c0-.83-.42-1.66-1.25-2.5l-3.75-5m144.38-20.62-7.5 5-10.63 11.87-3.13 4.38 2.5.62 5-6.87 4.38-5 3.75-2.5 5-3.75.63-3.75m-141.25 16.25.62 2.5c4.58 0 8.12 1.46 10.63 4.37v6.25l-1.88 3.13h.63a40.77 40.77 0 0 1-4.38 3.75c-1.25.83-2.7 1.67-4.38 2.5l-10.62 3.12c-.42.42-.63 1.05-.63 1.88 0 1.67.84 2.5 2.5 2.5v-.63c15.84-5 23.76-11.45 23.76-19.37 0-7.5-3.96-11.25-11.88-11.25-1.67 0-2.7.2-3.13.62l-1.24.63m-60 15 .62 2.5c.83-8.33 6.04-12.5 15.63-12.5 5 0 10.2 2.08 15.62 6.25l1.88-3.13a31.5 31.5 0 0 0-20-6.87c-3.34 0-5.84.62-7.5 1.87l-1.88 1.25-2.5 3.75-1.25 1.88-.63 5m28.76 10c2.91-.42 5.2-2.08 6.87-5 .83-1.25 2.7-3.12 5.63-5.63 3.33-2.91 5-4.79 5-5.62 0-1.25-.63-1.87-1.88-1.88-.83 0-3.13 2.09-6.88 6.25l-4.37 5-4.38 6.88m318.75 8.75c5.84 4.17 10 8.13 12.5 11.87l3.13 6.88 5.63 12.5v1.25c1.25 3.33 1.87 5.83 1.87 7.5.42 1.25 1.04 9.8 1.88 25.62v5.63a48.3 48.3 0 0 0-2.5 6.25 407.7 407.7 0 0 0-3.13 8.12l-3.75 7.5-1.25 3.13-1.88 3.75c2.5 4.17 4.17 6.25 5 6.25.84 0 2.92-3.54 6.25-10.63a95.1 95.1 0 0 0 10-43.12c0-22.5-7.7-40.83-23.12-55l-5.63-5.63c-.83-.83-2.5-1.87-5-3.12s-5.41-2.92-8.75-5l-3.12-1.25-3.75-1.88c-8.33-3.74-17.92-5.62-28.75-5.62-7.5 0-12.7.83-15.63 2.5l-5.62 3.12a14.52 14.52 0 0 0-3.75 2.5c0 .84.42 1.25 1.25 1.25 1.25 0 2.7-.41 4.38-1.25 2.08-.83 7.29-1.25 15.62-1.25h3.13l14.37 1.25 25 10.63 2.5 1.87 3.13 2.5v1.88M173.1 355.41c-2.09 2.09-3.13 3.96-3.13 5.63 0 3.33.83 6.46 2.5 9.37l2.5 3.75 2.5 5.63 2.5 1.25.63-4.38-4.38-8.12c-.42-.83-.83-2.3-1.25-4.38-.42-2.08-1.04-5-1.87-8.75m266.88 5.63-3.13 1.87 3.13-1.87m30.62.62h-4.38 6.88-6.25c-5 1.25-8.75 3.55-11.25 6.88s-3.75 5.83-3.75 7.5.2 2.92.63 3.75l1.25 2.5 1.87 3.75 5 2.5h5.63l-3.75-8.13v-1.87c0-6.67 4.37-11.25 13.12-13.75.42-.42 1.25-.63 2.5-.63s2.3-.2 3.13-.62l-10.63-1.88m-263.12 20c2.5-4.16 3.75-7.91 3.75-11.25 0-4.58-1.25-6.87-3.75-6.87l-1.88 1.87-.62 1.25v1.25l2.5 6.88v6.87m-23.75-10.62-.63 1.87c4.17 2.5 7.71 3.76 10.63 3.75h3.75c1.67-.41 3.54-.83 5.63-1.25v-1.87l-19.38-2.5m48.13 1.87c4.16 8.76 5.83 13.13 5 13.13 1.66 0 2.7-.2 3.12-.63-2.5-9.16-4.38-13.54-5.63-13.12l-2.5.62m145 .63-38.75.62h-29.37l-8.13.63a91.05 91.05 0 0 0-6.87-1.25c-2.92 0-4.38 2.3-4.38 6.87v85c0 2.5.21 4.59.63 6.25l3.13 3.13v-96.88l86.87-2.5-3.13-1.87m-203.75 35-.62 6.87-1.25 5.63v4.37c.42 2.09.83 5.84 1.25 11.25.42 12.5 2.92 21.88 7.5 28.13l1.88-5-5.63-16.25-.63-19.38 3.13-17.5 3.75-11.87 3.13-3.75 2.5-6.25 1.87-3.13c0-1.25-.83-1.87-2.5-1.87-2.08 0-5.63 6.25-10.63 18.75-.41.83-1.04 2.3-1.87 4.37a44.47 44.47 0 0 1-1.88 5.63m388.13-28.75c-4.59 7.08-9.38 10.42-14.38 10l-6.25-.63v3.13h10c8.75.83 13.13-1.67 13.13-7.5 0-1.67-.84-3.33-2.5-5m-250.63 3.12-3.12 8.75-4.38 30 1.25 18.75 1.88 11.88 1.88 5 1.87 7.5 1.88 7.5.62 1.87 1.25 2.5.63 4.38 1.25 6.25c1.25 5 1.87 8.75 1.87 11.25 0 .83-.2 2.08-.63 3.75 0 1.25-.2 2.92-.62 5l-3.13 10c-2.08 2.5-5.62 4.17-10.62 5 .83 3.33 3.33 5 7.5 5 8.75 0 13.13-6.25 13.13-18.75l-.63-3.13h3.13c.41 1.67 1.25 2.5 2.5 2.5s1.87-.2 1.87-.62l1.88-5 1.87-1.25-1.88-10.63-5-18.75-10.62-16.87a8.3 8.3 0 0 1-1.88-5c0-.83.63-1.87 1.88-3.13-.83-2.5-1.25-3.54-1.25-3.12 0-1.67 1.04-2.5 3.13-2.5 4.16 0 6.24 2.3 6.25 6.87-.42.42-.63 2.71-.63 6.88-.83 2.08-.2 5.42 1.88 10h.62l1.25 1.87c2.5 2.5 4.17 5.42 5 8.75 2.5 7.5 4.58 11.25 6.25 11.25.83 0 1.87-1.04 3.13-3.12l8.75 1.87-3.13 3.13h5c7.92 0 11.88-1.67 11.88-5 0-.83-.21-1.46-.63-1.88l-3.13-5.62 8.75-5c4.59-2.08 7.09-8.12 7.5-18.13-4.16-10.41-9.58-15.62-16.25-15.62 1.25 0 .63.42-1.87 1.25-2.08.42-6.04 1.04-11.88 1.87H345c-3.33 0-6.46-2.5-9.38-7.5-.41.84-.62 2.3-.62 4.38 0 .83.63 1.88 1.88 3.12 2.5 5 5.83 7.5 10 7.5 2.08 0 3.74-.62 5-1.87l5.62-5a4.24 4.24 0 0 1 3.13-1.25c2.5 0 5.41 2.5 8.75 7.5 0 6.25-2.5 10.83-7.5 13.75l3.12-1.88c-5.42 2.09-8.96 3.13-10.63 3.13-3.75 0-7.7-1.46-11.87-4.38l-6.25-4.37-.63-1.88c-8.33-14.58-12.5-29.37-12.5-44.37 0-9.17.84-16.88 2.5-23.13l-.62-1.25h-14.38m20 14.38.63 3.75.63 2.5 1.25 1.25 1.87 5 1.88 2.5c4.16 4.58 6.87 7.3 8.12 8.12 1.67.42 4.37.84 8.13 1.25l-.63-6.87 11.88.62c7.91 0 11.87-5.2 11.87-15.62 0-5-1.25-7.5-3.75-7.5-.83 0-1.67 1.67-2.5 5 0 1.67-1.04 3.54-3.13 5.62-3.33 1.67-6.45 2.5-9.37 2.5h-2.5c-.83-.41-2.08-.83-3.75-1.25l-1.88-.62-4.37-2.5-.63-1.25a30.98 30.98 0 0 1-6.25-16.88h-4.37c-2.5 0-3.75.84-3.75 2.5 0 2.09.2 3.55.63 4.38v7.5m161.25-14.38-1.88 3.13a32.68 32.68 0 0 1-13.75 8.12l-16.88 5-13.12 6.88v.62l-6.25 5.63h-1.88l-.62.62c-13.75 12.09-20.63 23.13-20.63 33.13 0 4.58 1.67 9.17 5 13.75 4.17 6.67 11.05 10 20.63 10 10 0 21.67-8.12 35-24.38.42-1.25 1.67-3.12 3.75-5.62l5-3.75c5.42-4.17 10.42-6.25 15-6.25 11.25 0 16.88 3.75 16.88 11.25v.62l1.25 1.88c2.5-4.17 3.74-7.3 3.75-9.38 0-2.5-1.88-6.04-5.63-10.62-2.08-1.67-5.2-2.92-9.38-3.75h3.13l-7.5-.63 1.88-8.12-13.13-2.5.63.62-6.25-1.25c-.84 0-3.96 1.05-9.38 3.13l-3.75 1.87c-7.08 5.84-11.67 10.84-13.75 15-1.25 2.92-4.58 7.71-10 14.38l1.88-1.88c-4.59 3.34-7.3 5-8.13 5-1.25 0-3.13-.62-5.63-1.87l-2.5-3.13 5.63-5 11.88-3.75 4.37-6.87 1.88-.63c2.5-6.66 6.45-11.25 11.87-13.75l9.38-3.75c8.33-3.33 12.5-8.74 12.5-16.25 0-.41-.21-1.25-.63-2.5 0-1.25-.2-2.91-.63-5m16.25 1.25-3.75 6.25-5 4.38-4.37 5.62c9.17-4.16 13.54-8.33 13.13-12.5v-3.75m93.12 8.13-6.25 3.12-.63 1.25h-15c-.83.84-1.25 2.09-1.25 3.75 0 2.09 3.34 3.13 10 3.13 13.34 0 20-5.2 20-15.63-.83-1.25-1.45-1.87-1.87-1.87h-.63c-1.25.42-2.29 1.46-3.12 3.12l-1.25 3.13m-409.38-5.63c-1.25 1.25-1.88 2.3-1.88 3.13 0 1.67 1.05 2.92 3.13 3.75 7.92 3.33 15.42 5 22.5 5 20 0 30-2.7 30-8.13 0-1.25-.42-1.87-1.25-1.87-1.25 0-2.7.62-4.38 1.87-5 2.09-14.16 3.13-27.5 3.13-5.41 0-12.29-2.3-20.62-6.88m220 5c-4.17 4.59-7.08 8.76-8.75 12.5-1.25 3.34-1.88 5.63-1.88 6.88s.63 3.33 1.88 6.25l-.63 2.5-8.75-3.75-1.25 13.12 3.75 7.5 1.25 1.25c2.09 3.34 4.17 5 6.25 5 1.67 0 2.5-.62 2.5-1.87l-1.25-5h3.13v1.87l3.13 3.13-2.5-11.25h3.12c.83 0 1.25.62 1.25 1.87l-.63 2.5.63 1.88 1.25 1.25v-5.63c-.42-.41-.63-1.45-.63-3.12 0-1.25.84-1.87 2.5-1.88v.63c.42 0 .84.42 1.25 1.25 2.92-4.17 4.38-8.12 4.38-11.88 0-3.74-2.08-9.58-6.25-17.5l-3.75-7.5m-30 10.63c-2.08 11.67-3.13 16.67-3.13 15v3.75c.42 1.25.84 2.92 1.25 5 .42 3.33 1.46 5.63 3.13 6.87l-.63 1.25 1.88 2.5 3.13 5.63c.41.42 1.45.62 3.12.62 2.08 0 3.12-.83 3.13-2.5 0-1.25-1.46-4.16-4.38-8.75-2.5-4.58-3.75-9.79-3.75-15.62 0-5 1.04-9.17 3.13-12.5l3.75-5.63c0-1.66-.21-2.7-.63-3.12h-1.25c-.42-.42-.83-.63-1.25-.63l-.63-.62-6.25 8.12-.62.63m136.25-7.5-7.5 1.25-7.5 3.75-5 1.87-.63 1.88 4.38-.63 10-4.37 10.63-.63c.41-.41.62-1.04.62-1.87 0-1.25-.63-1.87-1.88-1.88l-.62.63h-2.5m29.38 1.87c2.91.42 5 1.05 6.25 1.88 10.83 2.08 18.75 8.96 23.75 20.62l.62 6.25c0 .84-1.04 3.76-3.13 8.75l-.62 1.88c-4.17 2.92-7.92 4.38-11.25 4.37-3.33 0-5.63-.2-6.88-.62 2.5 6.25 5.42 9.38 8.75 9.37 1.25 0 3.13-.62 5.63-1.87l6.25-1.88c5-1.66 7.5-7.91 7.5-18.75 0-12.08-5.83-21.25-17.5-27.5-4.58-2.5-7.92-3.74-10-3.75H547.48v1.25m-123.75 14.38 5-.63-3.12 5.63c10-6.67 15-10.83 15-12.5 0-5.42-1.25-8.12-3.75-8.13a14.68 14.68 0 0 0-5 3.13l-3.13 2.5c-2.5 1.67-4.16 5-5 10m20-15.63-.62 4.38 1.25 3.75 3.75-1.88-3.13-5-1.25-1.25m-200.62 4.38c-2.5.83-3.75 2.92-3.75 6.25v1.25l.63 4.37c-.42 10-2.3 21.05-5.63 33.13l-2.5 5.62c-10 17.92-19.37 26.88-28.12 26.88h-6.88c-.83.83-1.66 2.08-2.5 3.75 1.25.42 3.75.62 7.5.62 5.42 0 11.88-2.7 19.38-8.12 7.5-5.42 13.13-13.96 16.88-25.63a126.11 126.11 0 0 0 4.37-14.37c.83-4.17 1.46-7.08 1.88-8.75v-6.88l1.25-12.5-2.5-5.62m311.88 2.5 2.5 5 1.25 4.37-2.5 4.38v.62c0 1.67 1.25 2.5 3.75 2.5.83 0 1.25-.41 1.25-1.25l.62-1.87 1.25-1.25.63-2.5v-.63c.41-2.91-2.5-6.04-8.75-9.37m-48.75 1.87 15 5c-1.25-4.16-3.76-6.24-7.5-6.25-1.67 0-2.71.21-3.13.63l-4.38.62m97.5 0-4.37 1.88-11.25 3.12 5 31.25h-.63c.42 2.09.63 4.8.63 8.13v5.62c0 2.92-.83 7.71-2.5 14.38-1.25 6.67-1.88 10.83-1.88 12.5v4.37l-3.12 5.63.63 2.5-2.5 3.12.62 3.75-.63 4.38c3.34-.83 5.42-1.67 6.25-2.5.84-.83 1.67-2.5 2.5-5l3.13-6.25 5.63-20c.83-3.75 1.45-7.5 1.87-11.25.42-3.75.83-7.3 1.25-10.63l1.25-23.75-1.88-21.25M192.5 423.54c1.25-5 4.17-7.5 8.75-7.5 3.75 0 7.5 2.08 11.25 6.25l.63 8.75-1.25 3.12a40.77 40.77 0 0 1-2.5 4.38 9.82 9.82 0 0 1-1.88 2.5l-15 15a40.26 40.26 0 0 0-8.75 13.12l4.38-4.37c6.25-6.25 9.8-9.58 10.63-10l9.37-6.25c3.33-2.08 7.5-6.25 12.5-12.5l3.13-3.75 1.25-3.13-.63-4.37c-.42-1.25-.63-2.7-.63-4.38a32.84 32.84 0 0 0-3.12-5l-3.75-6.25-1.88 1.88c-.83 2.5-1.45 3.75-1.87 3.75a26.54 26.54 0 0 1-6.88-4.38c-2.5-2.5-4.79-3.33-6.87-2.5-7.92 0-11.88 3.55-11.88 10.63 0 2.08 1.67 3.75 5 5m423.13-.63 1.87.63c-2.08 0-4.17 1.04-6.25 3.12a52.73 52.73 0 0 0-3.75 16.88l.63 1.87h-.63l-.63 5.63a74.92 74.92 0 0 0 2.5-5.63l2.5-6.25 4.38-5.62.63-.63 10-.62c.83-.83 1.25-1.67 1.25-2.5 0-4.58-2.92-6.87-8.75-6.88h-3.75m-129.38 16.25c-.42.42-.63 1.46-.63 3.13 0 1.25.83 2.7 2.5 4.37l6.25 6.88 19.38 24.37 10 13.75 1.87 1.88 13.13 15 1.87 3.12 3.75 3.13 13.75 15 3.75 3.13 4.38 3.75 1.87 1.87.63-2.5-3.75-3.13-3.13-3.75-3.13-2.5-20-22.5-8.75-10.62-3.12-3.13-3.75-5-3.75-4.37-13.75-18.75a183.3 183.3 0 0 0-19.38-23.13m-11.87 14.38c6.67 0 11.46.83 14.38 2.5-2.92 12.5-8.13 19.17-15.63 20-.42.42-.63 1.04-.63 1.87 0 .84 1.05 1.88 3.13 3.13 1.25 5 3.33 8.13 6.25 9.37l4.38 1.25.62.63-.63 2.5 1.25-3.75-2.5 6.87h-1.87c-.42.42-.63 1.25-.63 2.5 0 .84.63 1.88 1.88 3.13a22.72 22.72 0 0 1 5 5.62l3.75 5.63.63 1.25 1.87 1.88 10.63 11.87 16.25 16.25a77.13 77.13 0 0 0 44.37 20.63l8.75.62c8.33 1.25 14.8.83 19.38-1.25l9.37-5c.42-.42.63-1.04.63-1.88 0-1.25-2.3-2.29-6.88-3.12l-4.38-1.25-8.12-2.5-11.88-5.63-11.25-9.37-2.5-1.88-1.87-1.25-.63-1.25-21.87-22.5-5.63-6.87-44.37-57.5c-.42-1.67-1.46-2.5-3.13-2.5h-.62l-7.5 10m-70-8.75-5 .62c-3.33 0-6.04 1.05-8.13 3.13l-3.75 1.87c-3.75 5-6.66 12.92-8.75 23.75l-.62 3.75a10.2 10.2 0 0 1 2.5-.62l1.25-.63c.83 0 1.67.63 2.5 1.88-1.67 2.92-2.5 5.2-2.5 6.87 0 2.92.2 4.8.63 5.63l-1.25 8.12c8.33 0 14.16-.41 17.5-1.25l3.75-1.87 1.25-1.25c.83 0 1.25.42 1.25 1.25l-.63 1.25c0 .42-.2 1.25-.63 2.5 1.67 1.25 2.92 1.88 3.75 1.87 16.25 0 24.38-8.74 24.38-26.25 0-2.91-.83-4.58-2.5-5v3.13l-.63 1.25c-2.08-.83-3.12-1.67-3.12-2.5v-4.38c-.83 2.5-1.88 3.76-3.13 3.75h-.62l1.88-1.25h-2.5v-3.75a24.5 24.5 0 0 1-5 1.88 44.46 44.46 0 0 0-5.63 1.87v-1.87c5.42-1.25 8.12-3.54 8.13-6.88 0-.83-1.25-1.25-3.75-1.25h-.63l1.25-5-2.5.63 1.88-.63-5-.62 3.75-4.38-6.88 1.88-1.25-2.5 5.63-3.13-2.5-.62-4.38-1.25m-178.75 1.25-11.25 3.12c-4.17.84-7.5 2.3-10 4.38l-6.88 5-2.5 2.5-3.12 2.5c-9.58 12.08-16.04 24.17-19.38 36.25-1.24 3.75-1.87 6.04-1.87 6.87l.63 5.63c0 2.08.2 5 .62 8.75.83 3.33 1.67 7.7 2.5 13.13l6.88-3.13c-.84-4.58-1.67-7.7-2.5-9.38-.42-1.66-.63-2.08-.63-1.25l.63-4.37-.63-9.38 1.88-5.62v-5c1.25-2.08 2.7-4.58 4.37-7.5 2.08-3.33 4.17-7.3 6.25-11.88 1.25-2.91 2.08-4.58 2.5-5 .42-.83 2.92-3.12 7.5-6.87a74.61 74.61 0 0 1 5.63-4.38c1.66-.83 2.7-1.45 3.12-1.87l16.25-4.38 3.13-7.5-3.13-.62m35.63 16.87 3.12 1.88v1.87l3.13 3.13 1.87.62c3.33 10.84 5 18.13 5 21.88 0 5.83-3.13 12.08-9.38 18.75l-8.75 5.62-11.87 1.25h-1.25l-5-2.5-4.38-1.87-5.62-6.25-1.25-.63c-1.67 0-2.5.84-2.5 2.5 0 1.25.2 2.09.63 2.5 5 7.92 12.5 11.88 22.5 11.88 9.58 0 17.7-3.33 24.37-10 6.67-7.08 10-15.42 10-25 0-8.33-3.75-17.3-11.25-26.88a40.46 40.46 0 0 0-10.63-7.5l-6.87-3.12a59.98 59.98 0 0 1-4.38-1.25c-1.24-.42-2.29-.83-3.12-1.25h-1.88l-1.24 3.75-.63 1.25.63.62c.41.42 2.08.63 5 .63 1.66.83 3.54 2.08 5.62 3.75 2.5 1.25 5.2 2.7 8.13 4.37m286.88-5.62-3.13 3.12-1.88 3.75-1.25 3.75c7.92-5.41 12.92-8.12 15-8.12 1.67 0 4.17.62 7.5 1.87l1.88 2.5v.63c0 1.67.42 2.92 1.25 3.75 2.5 0 3.75-1.67 3.75-5 0-7.08-4.17-10.63-12.5-10.63-4.17 0-7.7 1.46-10.63 4.38m-34.37 2.5 8.13 1.25c.41 1.67.62 2.92.62 3.75.42.83.63 1.67.63 2.5 0 1.67-.63 3.75-1.88 6.25h1.88c3.33-5.83 5-9.58 5-11.25 0-5-2.71-7.5-8.13-7.5-4.17 0-6.25 1.67-6.25 5m-37.5-3.13-6.88 1.25-1.25 3.13c.42-.42 1.67-.63 3.75-.63 1.67 0 2.5.84 2.5 2.5 0 .84-.62 1.46-1.87 1.88-.83-.42-2.3-.63-4.38-.63-4.16 0-6.25.84-6.25 2.5.42 1.25 1.67 2.71 3.75 4.38 2.5 1.67 4.8 2.5 6.88 2.5 7.08 0 11.04-5 11.88-15 .83-2.08-.42-3.12-3.75-3.13l-2.5.63-1.88.62m101.25 3.75 3.13 2.5 3.12 5.63.63 6.87.62 3.13-2.5 8.12v4.38c4.17-8.33 6.25-16.25 6.25-23.75 0-3.75-1.46-6.87-4.38-9.38h-5.62l-1.25 2.5m-303.75.63c2.92 2.92 5.42 7.08 7.5 12.5l2.5 5.62 3.75 5c4.17 3.76 7.7 5.63 10.63 5.63 6.24 0 9.37-2.92 9.37-8.75 0-2.92-.2-5-.63-6.25h-2.5c-.83 4.58-2.7 6.88-5.62 6.87-3.75 0-7.3-2.29-10.63-6.87l-8.75-11.25-6.87-5 1.25 2.5m-35.63-.63-1.25 5c1.25 2.09 1.88 3.76 1.88 5 0 2.92-1.46 4.38-4.38 4.38-1.66 0-2.7-.2-3.12-.63 2.92 2.92 5.42 4.38 7.5 4.38 5 0 7.5-2.5 7.5-7.5 0-4.17-2.7-7.7-8.13-10.63m13.13-.62.63 8.75v11.87c6.24.84 9.37 2.09 9.37 3.75 0-.41-.42 1.05-1.25 4.38l-4.38-.63h2.5c-3.33.84-5.2 2.92-5.62 6.25 1.67 2.5 3.54 3.76 5.63 3.75 6.66 0 10-4.37 10-13.12 0-5.83-.42-9.37-1.25-10.63-.84-1.25-1.88-1.87-3.13-1.87l-3.13-7.5-4.37-2.5-5-2.5m207.5 10 .63 3.75h-1.25l.62-1.25-4.38.62-4.37-1.87-1.25 3.12 1.88.63 3.75 3.75-1.88-1.88c.83.84 1.25 1.46 1.25 1.88l1.25 1.25c-.42.42-.63.83-.63 1.25l-.62.62-6.88-5-2.5-1.87-1.25-.63-.62 5-3.75-3.75-3.75-1.87-.63 8.75 1.88 6.87c0 3.76 1.25 6.46 3.75 8.13l1.25 1.87c5.83 4.59 11.67 6.88 17.5 6.88.83 0 1.67-.63 2.5-1.88l-1.25-4.37c1.25.42 2.92.62 5 .62h4.38c8.33 0 12.5-1.66 12.5-5l-.63-.62c0-.42-.2-1.04-.63-1.88-2.08-2.08-5-5.62-8.75-10.62l-4.37-6.25-5-5.63-3.75-.62m150.62 0c-2.92 0-4.38 1.46-4.38 4.37 0 2.09 1.05 3.13 3.13 3.13 2.92 0 4.37-1.67 4.38-5 0-1.67-1.05-2.5-3.13-2.5m9.38 6.25h-1.25c-.84 0-1.46.62-1.88 1.87v1.25c0 2.09 1.25 3.13 3.75 3.13 2.92 0 4.37-1.25 4.38-3.75 0-1.67-1.67-2.5-5-2.5m-70 1.87c-4.17 1.67-6.88 4.17-8.13 7.5h3.75c6.25-.83 10.42 2.3 12.5 9.38 1.25 5.83 1.67 9.8 1.25 11.87-1.25 3.76-1.88 6.05-1.88 6.88.42 1.25 1.67 2.3 3.75 3.13l8.13 10 1.88 3.12 1.87 2.5 10.63 8.75c7.91-11.67 15.2-17.08 21.87-16.25h5l7.5 3.75c1.67 2.92 2.5 5.63 2.5 8.13v2.5l-3.75 6.87c8.33-.83 12.5-5 12.5-12.5 0-7.92-3.75-12.92-11.25-15l-2.5-1.88-1.25-1.87a9.55 9.55 0 0 0 5-6.25l-11.88-3.13a18.34 18.34 0 0 0-4.37-.62 5.55 5.55 0 0 0-2.5-.63c-2.08 0-3.96.84-5.63 2.5l-3.75 1.25-1.25.63-5 6.25-2.5 5.63-3.12 3.75-1.88 2.5c-.41.41-.83.62-1.25.62-2.91 0-3.95-1.04-3.12-3.13v-1.25l4.38-5a4.24 4.24 0 0 0 1.25-3.12c.41-1.25.83-2.3 1.25-3.13v-8.12l.62-6.88c0-2.5-1.04-3.74-3.13-3.75-1.66 0-3.12 1.46-4.37 4.38l-3.13-.63v-6.25c.42-9.16-4.58-13.75-15-13.75h-1.87l-3.13 1.25m-298.75 3.75c-5.41 2.5-8.12 4.8-8.12 6.88l-.63 4.37-.62 1.88v1.25l.63 2.5c.41.42 1.25.62 2.5.62l-1.25.63c4.16 4.17 7.91 6.25 11.25 6.25 2.5 0 5.62-1.04 9.37-3.13 4.17-2.5 6.25-4.79 6.25-6.87v-1.88c-3.75 4.17-7.5 6.26-11.25 6.25-5.83 0-8.75-2.29-8.75-6.87 0-2.92 2.3-6.04 6.88-9.38l-6.25-2.5m-29.38 1.88h-1.25c-1.25 0-2.08.62-2.5 1.87l-.63.63c0 2.08 1.46 3.13 4.38 3.12 2.92 0 4.37-1.25 4.38-3.75 0-1.25-1.46-1.87-4.38-1.87m376.88 11.25-2.5 1.87v1.25l-.63 1.88 3.75-.63v-1.25h3.13l-.63-3.12 1.25-1.88c2.92-2.91 5.42-4.37 7.5-4.37.84 0 2.92.62 6.25 1.87l-2.5 3.75 7.5 1.25-1.25.63 3.13.62 1.25-.62-2.5-.63 1.25-1.25c-.42-2.5-1.88-4.37-4.38-5.62l-6.25-3.75 1.25 2.5c-2.08-2.5-3.54-3.75-4.37-3.75-3.75 0-7.5 3.75-11.25 11.25m-312.5-8.13c.42 1.25.63 3.55.63 6.88 0 7.08-1.88 12.7-5.63 16.87l-8.13 8.75-3.12 3.75-6.25 3.13-6.25 2.5a22.36 22.36 0 0 1-5.63 1.88c-1.25 5-5.2 10.2-11.87 15.62-6.67 5.42-15 8.13-25 8.13-4.58 0-6.88.83-6.88 2.5.42.41.63.83.63 1.25 0 .83.2 1.45.63 1.87l4.37 2.5 75-2.5 30 3.13c1.67.41 4.17.62 7.5.62h7.5c13.33 0 20-1.88 20-5.63 0-1.25-1.67-2.29-5-3.12l-14.38-.63-4.37-.62-9.38-1.88-1.87-1.25-3.75-1.25-3.13-1.25-8.12-6.25c-11.25-9.16-16.88-21.66-16.88-37.5 0-1.66.21-4.16.63-7.5.42-3.33.63-5.62.63-6.87s-.63-2.3-1.88-3.13m-50.63 6.88c1.25 0 1.88-1.04 1.88-3.13 0-2.08-1.04-3.12-3.13-3.12-1.66 0-2.5.83-2.5 2.5 0 2.5 1.25 3.75 3.75 3.75m-26.87-3.13c-1.67 0-2.5 1.05-2.5 3.13 0 2.5 1.25 3.75 3.75 3.75s3.75-1.25 3.75-3.75-1.46-3.75-4.38-3.75l-.62.62m82.5-.62-.63 6.25v6.25c0 7.92.84 14.37 2.5 19.37l3.75 4.38-2.5-35-3.12-1.25m47.5 2.5v7.5c0 1.67 1.46 3.33 4.38 5l3.12 3.12 5.63 5c20.41 17.92 47.29 26.88 80.62 26.88 19.17 0 35.42-4.17 48.75-12.5a38.3 38.3 0 0 1 6.88-3.75c2.08-.83 3.12-1.67 3.12-2.5 0-.83-.42-1.67-1.25-2.5l-1.88-3.13-6.25 2.5-10 5.63c-.41.42-3.95 1.67-10.62 3.75l-9.38 1.88-11.25 1.25-6.25 1.25-5-.63-8.12.63c-2.5 0-4.17-.21-5-.63l-7.5-.63-10-2.5-2.5-.62-2.5-.63-8.13-2.5-7.5-4.37-5.62-2.5-8.75-5-4.38-3.75-6.87-5-8.13-8.75-5.62-2.5m-114.38 10.62 5.63-1.87c.83 0 1.25-.42 1.25-1.25 0-2.92-2.09-4.37-6.25-4.38h-1.88c-2.08 0-3.75 1.25-5 3.75v.63c0 2.92 1.04 4.38 3.13 4.37l3.12-1.25m-41.88 13.75v2.5l1.88-1.25c.42-6.66 3.33-10 8.75-10h.63l1.87.63 1.25.62 5.63 5.63c1.66 0 2.5-.63 2.5-1.88 0-7.91-3.76-11.87-11.25-11.87-3.34 0-6.05 1.88-8.13 5.62-2.08 3.34-3.13 6.67-3.13 10m240.63-12.5 2.5 1.88 1.25 2.5v4.37c-3.34 5-8.76 7.5-16.25 7.5-4.17 0-6.88-.2-8.13-.62-11.67-1.25-21.88-3.96-30.63-8.13v1.25c15.42 10 29.38 15 41.88 15 15 0 22.5-5.41 22.5-16.25 0-7.08-3.54-10.62-10.63-10.62-.83 0-1.45.2-1.87.62l-.63 2.5m-187.5-1.25v1.25c0 3.34 1.05 5 3.13 5s3.12-1.04 3.13-3.12c0-2.92-1.25-4.37-3.75-4.38l-1.25.63-1.25.62m101.25 3.13v2.5l6.87 10.62a13.41 13.41 0 0 1 2.5 3.13c1.67 3.75 5.62 7.92 11.88 12.5l1.25-1.88c-2.09-2.5-5-5.41-8.75-8.75l-9.38-13.75-4.38-4.37m-75.62 1.87c-.42 0-1.25.21-2.5.63-1.25 0-2.92.2-5 .62-.83.84-1.25 1.67-1.25 2.5 0 2.09.83 3.13 2.5 3.13 1.25 0 4.17-2.5 8.75-7.5h-2.5v.62m-47.5 0h-1.87c-.42.42-.63 1.05-.63 1.88 0 2.5 1.87 3.75 5.63 3.75 1.66 0 2.5-.63 2.5-1.88 0-2.5-1.88-3.74-5.63-3.75m116.88 5.63 1.25 17.5-1.88 9.38-2.5 4.37-.62.63c0 2.08 1.04 3.12 3.13 3.12l.62-.63c.83 0 1.25-.2 1.25-.62l.63-3.13 2.5-9.37c.83-3.33 1.25-5.42 1.25-6.25 0-9.17-1.88-14.17-5.63-15m-117.5 15.63-1.88 1.87v4.38c0 6.66 3.34 10 10 10 1.67 0 2.71-.84 3.13-2.5-4.58-2.5-6.88-5-6.88-7.5 0-5 4.8-7.5 14.38-7.5l11.25.62c5.42 0 8.54-1.04 9.38-3.13l-5.63.63c-2.5 0-6.04-.63-10.63-1.88-4.58-1.25-8.12-1.87-10.62-1.87s-6.67 2.3-12.5 6.88m125-2.5v5.62c0 3.75-.2 5.83-.63 6.25-.41.83-.83 2.08-1.25 3.75a96.8 96.8 0 0 1-1.87 5c0 1.25.83 1.88 2.5 1.88 2.08 0 3.12-3.96 3.13-11.88 0-2.5-.63-6.04-1.88-10.63m-27.5 11.25c1.67 4.17 3.96 6.25 6.88 6.25 5.83 0 9.16-1.66 10-5l.62-11.25-3.13 5c-2.5 3.76-5.2 5.63-8.12 5.63-2.92 0-5-.2-6.25-.63m66.88 13.75v2.5c-3.76.84-5.63 1.88-5.63 3.13 0 2.08 1.46 3.96 4.38 5.63 3.74 2.5 6.66 4.37 8.75 5.62a26.62 26.62 0 0 1 3.75 2.5c1.66 3.75 2.91 5.63 3.75 5.63l2.5-2.5c-.42-3.34-1.05-5.42-1.88-6.25-.42-.84-2.5-3.13-6.25-6.88-.83-.83-1.25-1.67-1.25-2.5 0-5.83 1.46-8.96 4.38-9.38l11.25-1.87 4.37-2.5-8.13-1.25-5.62-2.5c-.42-.42-1.88-.63-4.38-.63-3.75 0-5.62 1.46-5.62 4.38l.63 3.13-5.63-1.88-3.75-3.13-13.13-8.75-.62 3.75 1.25 1.25c.83.42 1.87 1.05 3.13 1.88.83 0 1.87.83 3.12 2.5 1.67 1.67 5.2 4.38 10.63 8.13M185.6 536.03c-9.58 3.75-16.04 8.54-19.37 14.38v1.87l-1.25 4.38v3.12c-.83 2.5.2 4.58 3.13 6.25l3.75.63c-1.67-2.92-2.5-5.63-2.5-8.13 0-12.08 7.7-18.13 23.12-18.13 2.08 0 4.58.84 7.5 2.5l1.88 3.13v-2.5c.83-5.83-2.5-8.75-10-8.75h-1.25l-5 1.25m315 16.25a7.78 7.78 0 0 1 2.5 5.63c0 3.33-3.13 8.33-9.38 15-3.33.83-5.83 2.7-7.5 5.62 19.17-1.25 28.75-9.38 28.75-24.38 0-4.58-2.5-8.75-7.5-12.5l-3.13-1.25-5-1.25c-10 0-15 4.17-15 12.5l.63.63c4.17-2.5 6.87-3.75 8.13-3.75 1.66 0 4.16 1.25 7.5 3.75m-45.63-11.88c-2.5 0-3.75 1.05-3.75 3.13 0 1.67 1.25 2.5 3.75 2.5 3.75 0 5.62-1.04 5.63-3.13 0-1.66-1.88-2.5-5.63-2.5m135.62 6.25 5.63 3.13 3.75-2.5 5.62-1.88-3.75-2.5h-5.63l-5.62 3.75m-405.62-3.12-6.88 4.38c-4.58 4.58-6.45 8.54-5.62 11.87v3.75c2.5 2.5 4.8 3.75 6.88 3.75 2.91 0 4.37-1.25 4.37-3.75 0 .42-.42-.63-1.25-3.13-2.08-2.08-3.13-3.54-3.13-4.37 0-2.5 2.09-4.38 6.25-5.63l2.5-.62c2.92 0 4.8.2 5.63.63 0 4.16.63 6.25 1.88 6.25 2.91 0 4.37-2.09 4.37-6.25 0-4.17-1.46-6.46-4.38-6.88l-1.87-.63-8.75.63m255 1.88c-1.25.83-1.88 1.87-1.88 3.12s1.05 1.88 3.13 1.88c1.25 0 2.3-.63 3.13-1.88l.62-1.25c0-1.67-1.25-2.5-3.75-2.5l-1.25.63m-18.75.62c-1.25 4.17-2.92 6.88-5 8.13-1.67.83-6.04 1.66-13.13 2.5 5.42 1.25 9.17 1.87 11.25 1.87 7.92 0 11.88-2.5 11.88-7.5 0-2.08-1.67-3.75-5-5m48.13-.63c-2.92 0-4.38 1.25-4.38 3.75 0 1.67 1.04 2.5 3.13 2.5 2.91 0 4.37-1.25 4.37-3.75 0-1.66-1.04-2.5-3.13-2.5m-15.62 5c-2.08.84-3.13 1.88-3.13 3.13 0 2.08 1.25 3.13 3.75 3.13 1.67 0 3.13-1.05 4.38-3.13l.63-.63c0-1.66-1.46-2.5-4.38-2.5h-1.25m-55.63 5.63-.62-.63-3.75-1.25c0 1.25 1.04 1.88 3.13 1.88h1.25m-214.38 1.88 3.12 5.62 1.25 1.25c15.42 19.17 37.7 28.75 66.88 28.75 22.91 0 41.66-6.25 56.25-18.75l-13.75-1.25-1.88 1.88-4.38 2.5h-1.87c-12.08 5-25.42 7.5-40 7.5a93.05 93.05 0 0 1-25.63-3.75l-8.74-4.38-1.25-.63-1.25-.62-9.38-6.25-2.5-2.5-2.5-2.5-2.5-3.75c-2.92-4.17-5.63-6.25-8.13-6.25h-.62l-3.13 3.13m206.89-.63c.41 5 8.33 7.5 23.75 7.5 11.25 0 19.58-1.46 25-4.38 4.16-.41 6.24-1.45 6.25-3.12 0-1.67-1.25-2.5-3.75-2.5-2.09 0-6.88 1.46-14.38 4.38a52.06 52.06 0 0 1-13.75 1.87c-6.67 0-14.38-1.25-23.13-3.75m72.5 0c-.83 0-1.87.83-3.12 2.5v1.25l-.63.63c0 1.66 1.25 2.5 3.75 2.5 3.34 0 5-1.46 5-4.38 0-1.67-1.45-2.5-4.37-2.5h-.63m65.63 1.25h-1.88l-4.37 4.38a95.1 95.1 0 0 0-7.5 6.87c-1.67 1.67-4.58 3.33-8.75 5a27.79 27.79 0 0 1-5 2.5 74.82 74.82 0 0 1-5.63 2.5h-3.12c-.42.42-1.46.63-3.13.63-1.66 0-3.12.2-4.37.62-12.08.83-18.13 2.5-18.13 5 0 3.75 3.96 5.63 11.88 5.63 24.17 0 44.8-8.13 61.88-24.38l-.63-1.88-3.75-1.87-4.38-3.13-1.87-1.25-1.25-.62m78.75.63-2.5 3.12c-4.58 5-10.63 7.5-18.13 7.5h-13.12l-6.25-.63-8.13-1.25c6.67 3.75 14.17 5.63 22.5 5.63 18.75 0 28.13-3.75 28.13-11.25 0-.83-.83-1.88-2.5-3.13m-252.5 1.25c-4.58 4.59-11.67 6.46-21.25 5.63h-1.88l-12.5-.63h-5 3.13l-14.38-.62-6.87-.63h-11.25l-7.5-.62h-17.5c-3.33 0-7.3.2-11.88.63l-15 .62-6.87 1.25-11.25 1.25-10-3.75c2.92 5 8.75 7.5 17.5 7.5 4.58 0 7.3-.2 8.13-.63l10-1.87 21.25-.63 83.12 2.5c7.5 0 11.25-2.29 11.25-6.87 0-1.25-.42-2.3-1.25-3.13m94.38 1.88c-2.92 0-4.38 1.46-4.38 4.38 0 2.08 1.25 3.12 3.75 3.12 2.92 0 4.37-1.04 4.38-3.13 0-2.91-1.25-4.37-3.75-4.37m-41.25 6.25 10 3.75 8.12 1.25 6.25 3.13v1.25l.63 1.25 2.5 6.87-3.75 6.25v.63c0 .83.62 1.25 1.87 1.25 5.83 0 8.75-3.34 8.75-10 0-9.17-5-14.17-15-15l-15-1.25h-3.75l-.63.62m-160 11.25 1.25 2.5 8.75 1.25v-1.88c-4.58-1.25-7.29-4.16-8.12-8.75v-1.25h-1.88c-1.66 0-2.5 2.3-2.5 6.88 0 .42.84.83 2.5 1.25m75.63 8.13c1.67 4.16 5 7.5 10 10v-2.5c-.42-2.92-.2-4.38.63-4.38s2.29.63 4.37 1.88c2.08 3.33 4.8 5 8.13 5 5 0 8.54-1.05 10.62-3.13l12.5-9.38c3.33-.83 5.2-1.25 5.63-1.25 5 0 8.33 2.71 10 8.13 2.5-.42 3.74-1.67 3.75-3.75 0-6.25-3.55-9.38-10.63-9.38l-5 2.5a272.3 272.3 0 0 0-13.13 6.25c-1.25.42-3.12.84-5.62 1.25-2.08.42-4.8.84-8.13 1.25l-4.37-1.25-1.25-.62-4.38-3.13-1.25-1.87-4.37-8.75h-1.88c-1.25-1.25-2.29-1.88-3.12-1.88-2.92 0-4.38 3.55-4.38 10.63 0 1.25.63 2.7 1.88 4.38m235.62-10.63-12.5-.63-9.38 1.25-1.87.63.63.63-8.75 1.87-.63.63c-5.42 2.91-11.88 5.41-19.38 7.5l-3.12 1.87 11.25-1.25 21.25-5c1.67-.42 3.12-.63 4.38-.63 1.25-.41 2.7-.62 4.37-.62 8.75 0 13.33 3.33 13.75 10l-1.25 1.88-4.38 3.12c3.34.83 5.21 1.25 5.63 1.25 6.25 0 9.37-3.75 9.38-11.25 0-2.92-2.09-6.25-6.25-10l-3.13-1.25m64.38 6.25c.83 2.08 1.45 3.13 1.87 3.13 1.25 0 1.87-1.46 1.88-4.38 0 0-.42-.2-1.25-.63l-1.88-3.75c-2.08-1.25-3.96-1.87-5.63-1.87-2.5 0-4.16.2-5 .63h-1.25l-6.25 6.87-3.12 1.88v.62c0 1.25 1.04 1.88 3.13 1.88l9.37-6.25 8.13 1.87m-450.63-3.75c-3.33 1.67-5.41 3.96-6.25 6.88-.41.41-.62 1.66-.62 3.75 0 1.25.83 2.7 2.5 4.37l1.25 2.5 4.38.63-1.25-8.13 5.62-5c3.75-1.25 6.46-1.88 8.13-1.88l3.12.63c2.08 0 5.2.42 9.38 1.25l-1.88-3.75-3.13-1.25-6.87-1.88h-8.75l-5.63 1.88m413.75 2.5c-.41.83-.62 2.3-.62 4.38 0 5.83 3.33 8.75 10 8.75 3.33 0 6.04-1.88 8.13-5.63-2.92-1.67-6.46-2.5-10.63-2.5h-2.5l-4.38-5m-290.62 5.63c-5.41.41-7.7 2.7-6.87 6.87v1.88l1.88 2.5h3.12a6.78 6.78 0 0 0-1.25-2.5v-1.25c0-1.67 1.04-4.17 3.13-7.5m273.12-420 8.12-.63-11.25 5 3.13-4.38m15 20v-1.87c-2.92 0-5 .2-6.25.62v3.13c0 .83.2 1.46.62 1.87 2.5-.83 4.17-1.04 5-.62 0-1.67.2-2.7.63-3.13m-11.88 9.38-1.88-4.38 1.88-1.87c4.58.83 5.42 1.67 2.5 2.5v1.87l-2.5 1.88m-8.75 5.62 1.25-6.25c2.92 1.67 4.37 3.34 4.38 5l-.63.63-5 .62m27.5 2.5 9.38-8.12c0 .83-1.25 2.5-3.75 5-2.09 2.5-3.55 3.75-4.38 3.75l-5.63 1.25 4.38-1.88m17.5-11.25-5 10.63c-4.58 4.58-8.75 6.88-12.5 6.87l8.75-6.87 8.75-10.63m-62.5 20c.42.42.63 1.46.63 3.13 0 1.25-.84 3.33-2.5 6.25-2.92 5.42-4.8 12.7-5.63 21.87v15.63c0 8.33 3.75 20.2 11.25 35.62l-3.75-4.37-.63-2.5v3.12c-6.66-10.41-9.79-21.45-9.37-33.12v-10c.42-6.25 1.25-12.08 2.5-17.5a63.52 63.52 0 0 1 6.25-16.88l1.25-.62.63 2.5-.63-3.13m-11.88 15.63c-.83.83-1.45 1.25-1.87 1.25h-1.25l-.63-.63-1.25-1.25 1.88-.62 2.5-1.25.63 2.5m20 4.37 6.87.63-5 1.87h-3.13c-1.66 0-2.5-1.04-2.5-3.12 0-.42-.2-.83-.62-1.25l-.63-1.25.63-4.38 4.38 7.5m-20.63 1.25c-1.25 3.34-2.3 5-3.13 5-.83 0-1.25-1.04-1.25-3.12 0-.83.21-1.46.63-1.88h3.75m-4.38 9.38c-1.25-.42-1.87-.2-1.87.62 0 1.67-.2 2.71-.63 3.13l3.13.62 1.88-1.25-2.5-3.12-1.25-1.25 1.25 1.25m21.25-6.25 2.5 1.87-5 .63-1.25-6.25 3.75 3.75m-45-5 2.5-8.13 4.37 19.38-6.88-11.25m58.75 13.75-5.62 3.75-6.25 6.87-2.5 4.38c-2.08 3.33-3.13 5.83-3.13 7.5l-.62 3.75c-.42.42-.83.62-1.25.62l-.63.63 1.25-1.25-1.25.62v-3.12c-.83-4.58 2.71-11.04 10.63-19.38.83-1.25 2.5-2.91 5-5l8.13-5.62-3.75 6.25m-20.63-4.38 4.38 3.13-3.75 3.75-.63-6.88m31.25 21.88 5 .62-5-.62m-144.38 24.37-4.38-3.75 6.25 1.25 1.25 2.5-2.5 3.75-5 4.38 4.38-8.13m5.63-1.87 1.25 1.25-1.25 1.87v-3.12m-54.38 28.75h-3.13l3.75-7.5 3.13-4.38 5-1.25 7.5-3.12-1.25 3.12-10 4.38-5 8.75m197.5 34.37-1.25 1.25v-.62l1.25-.63h-1.25a24.58 24.58 0 0 0-2.5-5.62l-.63-1.88 1.88-3.12 2.5 10.62m-18.13-2.5-5.62-2.5 11.88 4.38 3.75 2.5 3.75 6.87v3.75l-2.5-1.25-3.75-8.12-3.75-2.5-3.75-3.13m-96.88 85 3.13-8.75 2.5-3.12 1.87.62 1.25-3.75 6.25-3.12-15 18.12m-148.75-11.87c.42-1.67 0-2.92-1.25-3.75-.42-.42-1.46-.42-3.13 0l-1.25 1.25c-.41.42-.83 1.88-1.25 4.37h4.38l2.5-1.87m165.62 0c0 3.33-1.67 5.42-5 6.25l-4.38 6.25-.62-4.38 3.13-3.12 6.25-4.38.62.63v1.25l.63-1.25v-.63l-.63-.62m-164.38 4.37v1.88l-5 2.5-2.5-2.5 6.25-2.5 1.25.62m1.88 6.25v2.5h-3.13c-2.08 2.5-3.33 2.5-3.75 0 0-.41.63-1.04 1.88-1.87 1.25-1.25 2.29-1.87 3.12-1.88.83.42 1.25.84 1.25 1.25h.63m-5 6.25 6.25-.62c-1.25 1.25-2.3 1.88-3.13 1.87.42 0-.63-.41-3.13-1.25m120 12.5c2.09.84 3.96 1.46 5.63 1.88 1.67 0 3.33.2 5 .62-6.67-3.74-10.63-7.5-11.88-11.25l1.25 8.75m-45 3.75 5-3.75 6.25.63-6.25 3.12-5 11.25-4.37 6.25c2.5-10.41 3.96-15.62 4.38-15.62v-1.88M325.6 474.8l4.38 18.12h-1.88l-1.25-5.62-1.25-12.5m248.12 37.5h1.25l1.88-10.63-3.13 5v5.63m19.38-1.88-4.38 5h-2.5c1.25-2.5 3.54-4.16 6.88-5" transform="translate(-146.86 -119.79)"/>
</svg>
