<svg xmlns="http://www.w3.org/2000/svg" viewBox="0 0 500 500">
    <path d="M146.86 619.79v-500h500v500h-500m7.5-7.5h485v-485h-485v485m7.5-7.5V135.41h469.38v469.38H161.86m250.62-449.38 1.25 3.12c.42 1.67 1.04 2.5 1.88 2.5 2.08 0 3.12-1.87 3.12-5.62v-.63l-5.63-5.62c-1.25-1.25-1.87-2.5-1.87-3.75 0-2.92 1.25-4.37 3.75-4.38 3.75 0 6.87 2.09 9.38 6.25l8.12 13.75 8.13 3.13a8.7 8.7 0 0 0 3.75.62l5-1.25-2.5-2.5h-1.88c-6.25 0-10.2-2.08-11.88-6.25-5.41-11.66-11.66-17.5-18.75-17.5-7.91 0-11.87 3.13-11.87 9.38 0 4.17 3.33 7.08 10 8.75m-151.25-16.25-16.88 1.87c-5.83.84-13.12 3.76-21.87 8.75l-5 3.75c-1.67.84-4.58 2.71-8.75 5.63-3.75 2.5-6.04 5.2-6.87 8.12v10.63l3.12-1.25 3.13-.63 31.25-16.25c5-2.08 10.2-3.12 15.62-3.12 9.17 0 17.92 2.92 26.25 8.75l-1.88-.63 3.75 3.75 1.25 3.75c.42 1.25.63 2.3.63 3.13l.63.62c0 2.09-.84 3.96-2.5 5.63 1.66 1.25 3.12 1.88 4.37 1.87 5.42 0 8.33-2.08 8.75-6.25l1.25-8.12 5.63.62c-.42-5.83-1.88-10.62-4.38-14.37l-9.38-3.75-.62.62 1.88-.62c-5.42-.42-8.13-1.87-8.13-4.38 0-.83.42-1.25 1.25-1.25 1.67 0 2.7.21 3.13.63l4.37 3.12 6.88 1.88 25.62 13.75c3.33.83 6.25 1.25 8.75 1.25h10.63l-1.25-8.75 13.75 1.25c5.83.83 9.79-4.37 11.87-15.63l-2.5-4.37c-2.5 7.08-8.54 10.62-18.13 10.62h-3.12l-43.75-9.37-11.25-1.25-13.75-.63-13.75.63m-58.75 0 1.88 5 .62 5.62c0 2.09-1.88 5.63-5.62 10.63-.42 1.25-1.67 2.92-3.75 5h3.75l2.5-2.5 4.37-4.38c3.33-3.33 5-7.29 5-11.87 0-3.75-2.92-6.25-8.75-7.5m331.88 19.37v-1.25c0-7.08 1.87-10.62 5.63-10.62 1.66 0 3.74 1.46 6.25 4.37 1.66 3.34 2.5 6.46 2.5 9.38l-.63 5.62c0 2.92-.2 6.46-.63 10.63-.41 4.17-.62 6.67-.62 7.5 0 2.92.83 5.83 2.5 8.75v-8.75a28.92 28.92 0 0 1-.63-5.63l1.25-5 6.88-15v-2.5c0-5.41-3.54-10.62-10.63-15.62-1.25-.42-3.12-.63-5.62-.63-7.5 0-11.25 3.55-11.25 10.63 0 2.08 1.67 4.8 5 8.12m-359.38-16.87-2.5.62 3.75 6.88 1.25 3.12.63 1.25 1.25 3.75-2.5 1.88 2.5 13.12-.63 4.38-1.87 5-1.88 10-1.25 6.25-2.5 14.37.63 7.5h-.63V240.41c.42 4.58.83 9.8 1.25 15.62l2.5 10.63 2.5 8.12c2.08 7.92 3.54 12.92 4.38 15a14.36 14.36 0 0 0 5 5c7.5-3.74 11.25-6.04 11.25-6.87l-2.5-19.38-.63-3.12c-.42-6.67 1.04-12.08 4.38-16.25 3.33-4.58 7.7-6.67 13.12-6.25h3.13c-.84-8.75-3.96-13.13-9.38-13.13-2.5 0-4.58.84-6.25 2.5v-13.12l-10 11.25-1.25 2.5-3.12 6.87c0 1.25-.42 3.13-1.25 5.63a26.85 26.85 0 0 0-.63 5c0 1.25.63 3.13 1.88 5.62v3.75h-3.13c-1.25-5.41-1.88-9.37-1.87-11.87l.62-7.5c.42-5.42 1.04-10 1.88-13.75.83-4.17 1.66-7.5 2.5-10l10-21.88a38.5 38.5 0 0 0 3.75-16.25c0-.83-.21-2.08-.63-3.75 0-1.66-.2-3.54-.62-5.62-2.5 1.25-4.38 1.88-5.63 1.87-.83 0-1.25-.41-1.25-1.25 0-1.66.83-4.79 2.5-9.37 0-5-1.88-9.37-5.62-13.13l-2.5-1.25-.63-1.25-5-1.87-5-1.25m293.12.62h-1.88c-1.66 0-3.12 1.05-4.37 3.13v1.25c0 4.17 1.67 6.25 5 6.25s5-2.3 5-6.88c0-2.5-1.25-3.74-3.75-3.75m-91.88 7.5c.42.84.63 2.5.63 5 0 6.67-6.25 10-18.75 10-2.08 0-5.63-.62-10.63-1.87l-1.25 1.25a43.56 43.56 0 0 0 15 2.5c14.59 0 21.88-5.2 21.88-15.63 0-4.58-2.08-6.87-6.25-6.87-2.08 0-3.13.62-3.13 1.87s.84 2.5 2.5 3.75m204.38-3.75c-19.58 4.59-29.37 17.09-29.37 37.5 0 12.09 5.42 23.13 16.25 33.13l4.38 3.12 6.87 5 7.5 4.38c-.83-2.5-1.88-4.17-3.13-5-.83-.83-4.37-3.54-10.62-8.13-10.83-7.5-16.25-18.33-16.25-32.5 0-7.5 2.7-13.75 8.13-18.75 5.83-5.41 12.5-8.12 20-8.12 7.08 0 13.95 3.33 20.62 10 2.92 5.42 4.37 9.58 4.38 12.5l-.63 1.25-3.13 6.25-.62-.63c-2.08 2.09-3.75 3.13-5 3.13-1.67 0-2.92-.2-3.75-.63a75.26 75.26 0 0 0-2.5-5.62 35.74 35.74 0 0 0-1.88-6.25 7.87 7.87 0 0 0-3.12-1.88 14.6 14.6 0 0 0-3.75-2.5c2.08 5 2.5 8.96 1.25 11.88a94.24 94.24 0 0 0-1.88 5l-1.25 2.5.63.62c.42 0 1.04.21 1.88.63l11.25 7.5c2.5.83 4.58 1.25 6.25 1.25 12.91 0 19.37-7.7 19.37-23.13 0-9.16-4.17-14.16-12.5-15l-1.25-1.87c.83.42 2.7.62 5.63.62 5.41 0 8.12-2.5 8.12-7.5 0-.83-1.88-1.66-5.63-2.5h.63l-7.5-3.12c-9.17-3.33-15.42-5-18.75-5h-4.38l-6.25 1.87m-66.25 18.13 1.88 2.5c-2.92-12.92-11.46-19.38-25.63-19.38-11.66 0-17.5 2.3-17.5 6.88v.62c.42 1.25 1.46 1.88 3.13 1.88 1.25 0 3.75-.63 7.5-1.88 4.17-1.66 7.3-2.5 9.38-2.5 6.24 0 13.33 3.96 21.25 11.88m-60.63-16.25c-2.92 0-4.58 1.25-5 3.75v1.25c0 3.75 1.87 5.63 5.63 5.62 3.33 0 5-1.66 5-5 0-3.74-1.88-5.62-5.63-5.62m9.38 10c-1.67 0-2.92 1.04-3.75 3.12v1.25c0 2.5 1.25 3.76 3.75 3.75 2.91 0 4.37-1.25 4.37-3.75 0-2.91-1.46-4.37-4.38-4.37m55.63 11.87v2.5h-2.5c-2.08-3.33-3.75-5.2-5-5.62-.83-.83-3.96-1.25-9.38-1.25l2.5 3.12 4.38 10.63 6.88-1.25.62.62v.63l-.63 1.25v15.62c0 1.67-.83 5.63-2.5 11.88l.63 2.5c2.08-.83 3.12-2.5 3.13-5 .41-1.67 1.25-4.8 2.5-9.38 1.25-4.58 1.87-8.12 1.87-10.62v-3.13c0-2.08-.2-3.74-.63-5l6.88-3.75-1.25-8.75 1.25-5.62-1.25-.63c-4.58 0-7.08 3.76-7.5 11.25m-44.38-10.62a5.6 5.6 0 0 0-3.12 3.75l-.63 1.87c0 2.5 1.46 3.76 4.38 3.75 3.33 0 5-1.45 5-4.37 0-3.33-1.67-5-5-5h-.63M353.1 175.41l4.38 6.87c1.67 4.17 3.33 6.26 5 6.25.83 0 2.5-.41 5-1.25 2.5-.83 4.37-1.25 5.63-1.25h1.25l22.5-1.25c17.91-1.66 36.66 2.92 56.25 13.75 17.91 10.84 29.79 23.34 35.62 37.5l3.13 6.88c1.66 5 4.79 12.5 9.37 22.5 1.67 5 3.54 7.5 5.63 7.5 2.5 0 3.74-2.92 3.75-8.75 0-2.5-.21-3.96-.63-4.38l-3.75-17.5-10-65.62v-8.75c-2.08-1.25-3.33-1.87-3.75-1.88-1.25 0-2.92 1.05-5 3.13-3.75 4.17-7.5 6.25-11.25 6.25s-8.33-.63-13.75-1.88c-21.67-4.58-44.8-6.87-69.38-6.87-12.08 0-20.83.62-26.25 1.87l-8.75 2.5c-3.75.84-5.62 2.09-5.62 3.75l.63.63m-35.63-8.75 1.25 3.75c.83 3.33 1.25 4.8 1.25 4.37 0 1.25-.83 2.5-2.5 3.75l-6.25 2.5-5.63-6.25-1.25 1.88c-.83.83-1.25 1.67-1.25 2.5 0 5.83 3.75 8.75 11.25 8.75s11.25-3.96 11.25-11.88c0-6.24-2.7-9.37-8.12-9.37m247.5 4.37c-4.17 2.5-6.25 7.09-6.25 13.75 0 4.59 1.25 9.59 3.75 15l1.88 3.75 2.5 3.13 3.75 5 6.87 6.25 1.25-1.25c-10.42-8.75-15.63-17.3-15.63-25.63 0-9.58 3.55-14.37 10.63-14.37 1.67 0 3.54.62 5.63 1.87 0-6.66-2.3-10-6.88-10h-1.88l-5.62 2.5m-225.62-.62 4.38 4.37c3.74 4.59 6.87 10.21 9.37 16.88l1.88 4.37 1.25 10.63 6.87.62c-.83-11.25-5.42-22.29-13.75-33.12-3.33-3.75-5.83-5.62-7.5-5.63-.83 0-1.25.21-1.25.63l-1.25 1.25m165.62 48.75 1.25 5c.42 1.25.83 2.92 1.25 5 .42 1.67 1.04 3.96 1.88 6.87l.62 8.75 3.75 20.63c0 3.75-2.3 7.3-6.88 10.62 1.25.42 2.09.84 2.5 1.25h1.25l5-1.25 2.5-9.37-15.62-93.75-1.88 9.37c.42-1.25 1.88 11.05 4.38 36.88m-236.25-35h-3.13c-1.25 0-1.87.2-1.87.62 0-.41.42 1.05 1.25 4.38l6.88 6.87 1.87 1.88 1.25 1.87.63.63c0 2.92 1.04 4.38 3.12 4.37v6.88l.63 1.87.62 3.75 1.88 5.63 3.75-3.75-2.5 6.87 8.12-5.62v2.5l-4.38 5h-.62l.63 2.5c2.08-.42 3.74-.63 5-.63 1.25-.41 2.08-.62 2.5-.62 4.58 0 9.58 2.08 15 6.25-1.67-5.42-5.42-8.75-11.25-10h-2.5l-1.88-1.25c1.25-2.92 1.87-5.2 1.88-6.88l-.63-3.75-13.13 1.88c.42-1.25.63-3.75.63-7.5 0-1.25-.42-3.54-1.25-6.88l-6.25-20-1.25-8.75-.63-.62-1.25 1.25c-.41 0-.83.2-1.25.62a8.48 8.48 0 0 0-2.5 6.25l.63 4.38m-18.13-.63c.84 2.5 1.26 3.55 1.26 3.13 0 .83-.84 1.46-2.5 1.87l1.25-.62h-1.88c0-2.92-1.04-5.42-3.12-7.5l-8.13 8.12v1.88l1.25 9.37-1.87 3.75v6.25h-2.5c-1.67 0-2.5-.62-2.5-1.87s.41-2.7 1.25-4.38c1.25-1.66 1.87-2.91 1.87-3.75-.42-.41-.62-.83-.62-1.25 0-.83-.21-1.45-.63-1.87l-4.37-.63v-2.5c0-5.83-2.3-10.41-6.88-13.75v3.75c0 4.59-1.25 8.76-3.75 12.5l-3.12 3.75c-.84 1.67-2.09 4.59-3.75 8.75a32.1 32.1 0 0 0-1.88 10c0 11.67 3.75 18.13 11.25 19.38l10.63 1.25-1.25 4.37c-2.5 4.59-3.76 7.92-3.75 10 0 1.67 1.87 7.09 5.62 16.25 9.58 12.09 19.38 19.59 29.38 22.5l15 4.38 18.12.62h.63c0-2.91-2.71-4.37-8.13-4.37l-3.75.62-6.25-1.25c-10.83-2.08-20-6.24-27.5-12.5-7.08-6.66-10.62-13.95-10.62-21.87 0-4.58 1.66-6.87 5-6.88l1.25.63h1.25l3.75 5c1.25 1.67 4.58 2.5 10 2.5 8.33 0 16.66-2.92 25-8.75 7.91-6.67 12.5-10.2 13.75-10.63l3.75-1.25 1.25-2.5c-.84-1.66-2.5-2.7-5-3.12-.84-1.25-1.88-1.87-3.13-1.88-1.67 0-2.7.21-3.13.63l-2.5-.63-4.37 1.88v.62l-3.13.63-.62-5-5 .62-6.88 7.5 2.5-1.25-3.75-.62c5.42-6.67 8.13-11.88 8.13-15.63 0-2.08-.63-6.04-1.88-11.87l-5 2.5c-2.08-6.67-6.25-11.88-12.5-15.63l-1.87-.62-2.5 4.37-3.75 5v2.5c0 2.09-.62 3.76-1.87 5-2.09-2.08-3.55-3.12-4.38-3.12-1.25.42-2.3 1.88-3.12 4.37v4.38l.62 3.75c.42 1.25.63 2.92.63 5 0 3.75-1.67 5.63-5 5.62l-3.13-.62-3.12-5-1.25-9.38-2.5-4.37-5.63 6.25-1.87-.63c-1.25-4.16-1.88-7.29-1.88-9.37 0-.83 1.04-4.37 3.13-10.63l1.87.63v.62l.63.63c-2.09 5-3.13 7.92-3.13 8.75l.63 5 2.5-2.5 1.87-7.5 2.5.62-.62 1.88-.63 1.87 4.38 1.25-.63 2.5 1.25 2.5.63 1.88h3.75v2.5h-1.88c-.42 0-.62.42-.62 1.25v3.75l1.25 3.12.62-3.12 3.13-.63-.63-10c.83-1.66 1.87-3.95 3.13-6.87a54.18 54.18 0 0 0 3.12-10.63l2.5-1.25-.62 6.25-.63 5 6.25-12.5 5-.62c2.92 0 6.67 2.5 11.25 7.5l3.13 4.37.62 1.88 2.5.62c-.83-5-3.13-8.95-6.88-11.87-.83-.83-1.87-2.3-3.12-4.38s-2.7-4.58-4.38-7.5l6.25-1.25 3.13-8.75h-2.5l-4.38 1.25c-3.75 1.25-7.5 4.59-11.25 10m88.13-5c-21.25 11.67-34.58 26.25-40 43.75l8.75 3.75 3.13 4.38 1.25 1.87-3.13 7.5-4.38 1.25-4.37 1.25-1.88 3.13-6.25 3.12c-.83 0-1.25 1.46-1.25 4.38v5c.42 1.67.84 3.54 1.25 5.62l1.25 9.38c.84 7.08 4.38 15.83 10.63 26.25l6.25 8.75 5.63 7.5 14.37 14.37a86.97 86.97 0 0 0 12.5 8.75c.42.42 1.67 1.25 3.75 2.5s5 3.13 8.75 5.63c1.67 1.67 3.33 2.5 5 2.5.83 0 1.25-.42 1.25-1.25v-6.25c-.42-1.25-.63-3.33-.63-6.25v-15l1.25-5c.42-1.25.63-2.7.63-4.38 1.25-1.66 1.87-2.91 1.88-3.75l-1.25-1.25a7.33 7.33 0 0 0-1.88-1.25l-1.25-1.25-3.13-1.87-5-4.38-9.37-7.5c-16.67-14.16-25-30-25-47.5 0-22.08 8.54-37.91 25.63-47.5l6.25-3.12c-1.67-9.17-4.59-13.75-8.75-13.75l-1.88.62m65.63 9.38c-2.92-.42-5.21-.63-6.88-.63a10.28 10.28 0 0 0-2.5-.62c-4.17 0-6.67.2-7.5.62l-4.38.63-10.62.62-6.88 2.5h-3.12v1.25c0 1.67.63 2.5 1.88 2.5.83 0 2.29-.2 4.37-.62 2.5-.42 4.37-.83 5.63-1.25h8.12l20.63-1.88c9.16-.41 20.41 1.46 33.75 5.63l.62-1.25c-9.58-3.33-20.63-5.83-33.13-7.5m161.25 35.62 1.25-1.25c-1.25-.41-3.54-1.04-6.87-1.87-20.42-3.75-30.63-9.58-30.63-17.5 0-3.33 2.5-6.67 7.5-10-.41-.42-1.66-.63-3.75-.63-8.33 0-12.5 4.8-12.5 14.38 0 5.83 2.71 9.8 8.13 11.87 5.83 2.09 18.13 3.76 36.88 5m-222.5-25.62c-17.09 10.83-24.8 26.46-23.13 46.87v3.13l2.5 8.75.63 6.87 4.37 4.38-4.38-25 1.25-8.75 2.5-11.88 5.63-8.75 3.13-3.75 14.37-10.62c1.25-.42 1.87-1.46 1.88-3.13 0-1.66-.63-2.5-1.88-2.5v.63l-6.88 3.75m-145 3.12-1.24 2.5h-.63v1.25c-3.33 5-6.04 11.05-8.12 18.13l5.62-6.88 1.25-3.12c1.25-2.92 6.67-6.67 16.25-11.25-2.5-3.33-4.58-5-6.25-5h-.62l-1.25.62-5 3.75m171.25-1.87-.63 9.37c.83 2.09 2.7 5 5.63 8.75 3.74 5.84 8.33 8.76 13.75 8.75 7.91 0 11.87-2.91 11.87-8.75 0-.41-.42-2.29-1.25-5.62-3.33 4.58-6.46 6.88-9.38 6.87-7.91 0-14.58-6.45-20-19.37m215 16.87c1.25 4.17 3.13 6.26 5.63 6.25-.42-1.25-.63-3.54-.63-6.87 0-3.75 1.25-5.62 3.75-5.63h.63l4.38 1.25-1.25-6.25c-.84-.83-2.5-1.25-5-1.25-5.42 0-7.92 2.71-7.5 8.13v4.37m-232.5-3.12c5.83 0 10.83 1.46 15 4.37l.62-3.12c0-1.25-1.67-2.5-5-3.75-3.33-.83-5.2-1.25-5.63-1.25-2.91 0-4.58 1.25-5 3.75m60 .62c.42 1.67.63 2.92.63 3.75l.63 1.25v2.5c0 2.09-.21 3.76-.63 5l-.63 1.88c0 .83.42 1.67 1.25 2.5l1.25.62-.62 2.5-5.63-1.25 1.25 6.88 1.88 3.12 1.88 1.88.62 1.87 2.5.63v1.25c2.92 1.25 5.42 1.88 7.5 1.87 1.25 0 1.87-.41 1.88-1.25l-.63-.62c0-.83-.2-1.87-.63-3.13l3.13-1.25 1.25 3.13 2.5 5c1.67-1.67 2.5-2.92 2.5-3.75 0-1.25-.83-3.12-2.5-5.63-1.25-2.5-2.08-5-2.5-7.5l1.88-.62c.83 0 1.25 1.25 1.25 3.75l1.25 1.87 1.25 3.13 2.5 2.5 1.87-3.13-3.13-9.37 3.13 1.25 1.88 5.62 3.12-1.87-1.88-6.25-5.62-8.13c-4.17-5.83-12.3-9.16-24.38-10m186.25 15.63-2.5 1.25-.62-.63-1.88-2.5-3.12-1.87c-.42 1.25-.63 3.54-.63 6.87 0 3.76 1.88 6.88 5.63 9.38 7.92 5.83 13.54 12.08 16.88 18.75l.62 1.25 4.38 10c1.25 3.75 1.87 6.25 1.87 7.5 0 2.08-.2 3.54-.63 4.37-1.25-.83-2.29-2.91-3.12-6.25-.83-5-3.96-12.5-9.38-22.5-5-4.58-9.58-7.91-13.75-10l-4.37-1.87-6.25-1.25c-2.08 0-6.04 1.67-11.88 5-2.91 2.92-4.37 5-4.37 6.25.83.83 2.92 1.46 6.25 1.87l-.63 1.88h-2.5c-3.75 0-5.62 2.3-5.62 6.87 0 7.5 4.37 11.46 13.13 11.88 0-7.92 2.91-11.88 8.75-11.88 12.08 0 21.66 12.3 28.75 36.88v11.87c.83 14.59-3.55 28.55-13.13 41.88l-5 6.87c-4.17 2.5-6.25 4.8-6.25 6.88l.63 5c24.16-16.25 36.25-43.13 36.25-80.63 0-15.41-1.67-27.08-5-35l-8.13-16.25a25.17 25.17 0 0 1-1.88-10c0-4.16 2.92-7.91 8.75-11.25v-1.25c-2.91-2.91-6.04-4.37-9.37-4.37-8.33 0-12.5 3.96-12.5 11.87l.63 3.13m-253.13 0-3.75 10.62-.62 2.5c-2.5 3.76-5.2 5.63-8.13 5.63-2.08 0-3.54-.2-4.37-.63v2.5c1.67 2.92 3.54 4.38 5.63 4.38 3.33 0 5.41-.2 6.25-.63v2.5l-4.38 3.75 2.5.63c8.75-2.92 13.54-7.92 14.38-15 2.08-9.58 3.74-14.38 5-14.38.83 0 1.45.63 1.87 1.88.83.83 1.25 1.46 1.25 1.87 0 1.67-.63 3.34-1.88 5l-11.87 23.75a19.46 19.46 0 0 1-1.25 3.75v2.5c0 .84.2 1.25.63 1.25a5.56 5.56 0 0 1 2.5-.62c.83-.42 1.87-1.04 3.12-1.88v2.5c-3.33 2.09-4.8 5.63-4.38 10.63v2.5c2.5 5 5.21 7.5 8.13 7.5.42 0 .83-.2 1.25-.63 0-1.25-.42-2.91-1.25-5-.83-2.5-1.25-4.37-1.25-5.62 0-2.08.83-4.58 2.5-7.5 8.75-18.33 13.33-32.7 13.75-43.13v-1.25c0-2.08-1.25-4.79-3.75-8.12a10.23 10.23 0 0 0-7.5-3.13l-1.25-1.25c-.42-.41-.83-.62-1.25-.62-6.67 0-10.63 4.58-11.88 13.75m115-13.75 1.25 5c.42.83.63 2.5.63 5 0 1.67-1.04 4.17-3.13 7.5l-4.37 3.12-5.63 5-3.12 1.88c-5.83 4.58-8.75 8.75-8.75 12.5l.63 5.62.62 1.88 1.25 1.87 2.5 3.75c5.42 4.17 11.04 6.26 16.88 6.25 8.74 0 15.41-3.54 20-10.62 3.74-5 6.24-8.12 7.5-9.38 1.66-1.25 2.29-2.29 1.87-3.12v-1.88a17.51 17.51 0 0 0-8.75-2.5c-4.58 0-7.92 1.05-10 3.13l-1.88 2.5-5 .62v-1.25c7.92-5.41 11.88-11.87 11.88-19.37 0-9.17-4.8-15-14.38-17.5m75.63 9.37-13.13 4.38c-3.33.83-5 1.88-5 3.12l.63 4.38.63 3.12 5.62-2.5c10.42-5 20.2-7.5 29.38-7.5 7.08 0 16.87 3.13 29.37 9.38l6.25 1.25c-1.67-4.17-5-7.3-10-9.38l-1.25 1.25-7.5-4.37-10-2.5-15.63-1.25h-5.62l-3.75.62m-161.25 6.25-1.88 6.25c1.25-.41 2.09-.62 2.5-.62l1.25-.63c.84 0 2.09 1.25 3.75 3.75 2.09 2.5 3.13 4.38 3.13 5.63 0 2.5-1.25 5.83-3.75 10l-3.13 8.12-6.87 17.5-2.5 6.25-2.5 9.38 1.25 3.75 1.25-.63c.83-2.91 1.67-5.62 2.5-8.12.83-2.5 1.67-4.8 2.5-6.88l13.75-26.25c2.5-5.41 3.75-10.62 3.75-15.62 0-8.75-3.54-13.13-10.63-13.13h-1.25l-3.12 1.25m159.38 8.13-4.38 5.62c-2.08 5-3.12 7.71-3.12 8.13 0 2.08.63 4.58 1.88 7.5 2.91 5.42 6.66 8.13 11.25 8.12 6.66 0 10.41-1.04 11.25-3.12l1.87-3.75.63-1.25c.83-.83 1.25-1.67 1.25-2.5 0-1.67-.63-2.5-1.88-2.5l-1.25.62c-1.25 3.34-2.92 5-5 5-5.83 0-8.75-3.12-8.75-9.37 0-10 6.67-15 20-15 2.92 0 7.08 1.04 12.5 3.12 3.33.84 4.8 1.25 4.38 1.25h1.25l1.87-1.25-1.25-.62-1.25-1.88-5-2.5c-5-1.66-10.63-2.5-16.88-2.5-9.16 0-15.62 2.3-19.37 6.88m-50-3.13-3.75 3.13-1.88 1.25c-2.5 2.08-3.75 3.75-3.75 5 .42.42 1.25.62 2.5.62l3.75-1.25 2.5-1.87 2.5-1.88-1.87-5m-66.88 14.38-24.37 8.12c1.67 3.76 5 6.05 10 6.88l-.63 1.25c-5 0-8.75 1.25-11.25 3.75l-5 5.62a19.79 19.79 0 0 0-2.5 10v1.25c1.67-.41 2.92-.62 3.75-.62l1.25-.63c4.17 0 9.17 2.3 15 6.88 2.92 2.92 5.21 4.38 6.88 4.37 1.67 0 4.8-1.25 9.38-3.75l.62 1.88 1.25-2.5-5 6.87-.63 1.88 8.13.62c5 .42 9.58-.83 13.75-3.75 4.58-3.33 7.3-6.87 8.13-10.62l1.87-8.75-6.88 1.87-3.12.63 1.88-2.5 5-2.5-1.25-1.25-15 3.75 15.62-7.5h-4.38l-1.25-1.88-13.12 1.25c-3.33 2.09-5.83 3.34-7.5 3.75l-4.38-.62 6.88-3.75c.42-.42 5-2.3 13.75-5.63-.83-2.08-1.46-3.12-1.88-3.12-.83 0-2.7.42-5.62 1.25-2.5.83-4.58 1.25-6.25 1.25l11.88-4.38-.63-1.87H421.86l-.62-1.88 10-1.25c-1.25-2.08-3.54-3.12-6.88-3.12l-7.5-1.25m74.38 6.87c-5.83 9.17-8.54 18.96-8.13 29.38v3.75l.63 5v6.25c.42 4.17 1.04 8.33 1.88 12.5 1.25 3.75 2.7 7.5 4.37 11.25l.63 1.25c6.24 13.33 17.08 25.83 32.5 37.5l2.5 6.25v1.87a6.02 6.02 0 0 0 5-4.37h2.5l-.63.62 1.88 3.75c1.66 2.09 4.79 3.96 9.37 5.63 2.92 1.25 4.8 3.54 5.63 6.87l1.25 5c4.58-3.33 7.08-8.12 7.5-14.37l-.63-2.5-3.13-4.38 1.25-1.25 6.25 3.13v-3.75c.84-4.17-.83-7.08-5-8.75l-10.62-3.13h1.25v-1.87l4.38.62 13.75 2.5h3.12c3.75 0 7.08-.83 10-2.5l8.13-4.37 1.25-1.25.62-1.25v-.63c0-1.66-2.08-3.95-6.25-6.87l11.88-1.88 9.37-11.25 3.13-3.12-.63-3.75-5.63-5a8.7 8.7 0 0 0-3.75-.63c-3.33 0-7.5 1.25-12.5 3.75l-1.87-1.25-1.25-10.62-1.88.62c-5.41 1.67-9.37 5.21-11.87 10.63-8.33 8.33-13.33 12.08-15 11.25h-4.38v-1.88c0-.83 1.67-1.66 5-2.5 7.5-1.66 15.21-9.37 23.13-23.12.83-2.5 1.25-4.37 1.25-5.63v-1.87l-1.88-7.5.63-5.63c-.42 0-.83-.2-1.25-.62h-1.25c-1.67 0-3.33.83-5 2.5l-2.5 2.5c-5.42-9.17-12.3-13.75-20.63-13.75-1.66 0-3.33.83-5 2.5-5.41 2.5-8.12 6.46-8.12 11.87l1.25 5.63a30.7 30.7 0 0 0 9.38 6.25c.41.83.62 1.88.62 3.12 0 5-2.7 7.5-8.13 7.5-2.5 0-4.16-.2-5-.62l-1.87-4.38-.63-9.37c-.41-5.42-4.16-8.12-11.25-8.13-2.5 0-5.41 2.3-8.75 6.88l1.25 1.25c1.67-2.5 3.55-3.75 5.63-3.75 5 0 7.3 4.38 6.88 13.12v5c5 3.76 8.95 5.63 11.87 5.63 3.75 0 7.3-1.67 10.63-5 3.33-3.33 5-6.67 5-10v-5l-6.88-1.25c-2.92-1.67-4.38-3.75-4.38-6.25 0-3.33 1.88-5 5.63-5h.63l2.5.62 5.62 1.88-.63 1.87c-.83 1.67.21 3.96 3.13 6.88 3.33 2.5 5 4.58 5 6.25 0 6.67-6.04 14.37-18.13 23.12l-1.25-.62c-5 1.25-8.75 1.88-11.25 1.87-7.08 0-14.58-3.74-22.5-11.25-10-8.33-14.37-19.16-13.12-32.5v-3.12c.42-1.67.63-3.33.63-5 .41-1.67.83-3.54 1.25-5.63 0-2.08-1.46-4.58-4.38-7.5m-219.38 2.5-3.13.63c-7.08 3.33-10.62 6.67-10.62 10 0 2.5.2 4.17.63 5l.62 2.5 1.88 3.75 2.5 2.5 1.87 1.25a64.42 64.42 0 0 0 9.38 4.37c3.33.84 7.08 1.46 11.25 1.88l6.87.62v-1.25c-.83-.83-2.5-1.66-5-2.5h-.63c-4.16 0-7.08-.62-8.75-1.87l-3.12-1.88-5-3.12c-2.5-1.67-3.75-4.37-3.75-8.13 0-4.58 2.7-6.87 8.13-6.87 2.91 0 4.79 1.88 5.62 5.62l1.25-.62v3.12c3.75-1.25 5.62-2.7 5.63-4.37 0-6.67-5.21-10.2-15.63-10.63m-69.38 14.38v3.75c-1.24 2.08-1.87 3.96-1.87 5.62 0 1.67.83 2.5 2.5 2.5 1.25 0 2.3-.41 3.13-1.25l3.12-10c.42-2.91 2.92-4.37 7.5-4.37 1.25 0 3.54 1.04 6.88 3.12.83 2.5 1.87 3.96 3.12 4.38 2.08-1.25 3.12-2.5 3.13-3.75 0-3.33-2.3-6.87-6.88-10.63-2.08-1.25-3.96-1.87-5.63-1.87-7.5 0-12.5 4.17-15 12.5m138.76-3.75c-3.76 1.25-5.63 2.5-5.63 3.75 0 .83.2 1.46.63 1.87l1.87 2.5 1.25 1.25a7.55 7.55 0 0 0 4.38-4.37l-2.5-5m140 4.37c-2.09 9.17-3.13 15-3.13 17.5v.63l1.88 23.75c.41 6.67-2.5 13.54-8.75 20.62a12.72 12.72 0 0 1-9.38 3.75c-2.5 0-6.04-1.66-10.63-5v-5c-.83-3.33 1.88-6.04 8.13-8.12-3.33-2.5-6.04-3.75-8.13-3.75-5.83 0-8.75 3.33-8.75 10v2.5c.42 1.25.84 2.92 1.25 5l.63 1.87.63.63c3.33 7.08 9.79 10.62 19.37 10.62 10.83 0 17.3-6.66 19.38-20l1.25-10v-1.87l-3.13-9.38c-.42-.41-.63-2.08-.63-5v-3.75c0-1.66-.2-3.54-.62-5.62 0-2.92-.2-5-.63-6.25l1.25-13.13m-27.5 4.38c2.5 8.33 3.75 12.08 3.75 11.25 0 1.67-.83 2.7-2.5 3.12l1.25-1.25h-2.5c0-5-1.25-9.16-3.75-12.5l-1.25 6.25-3.12 9.38-1.25 5c0 5 2.3 8.75 6.88 11.25l7.5 3.75 3.12-6.25h2.5l.63 4.37 1.87 2.5c.83 1.25 2.5 2.3 5 3.13l.63 1.25v-1.88c2.5-1.25 3.74-2.5 3.75-3.75v-1.87l-1.88-1.88-.63-3.75h-4.37a4.24 4.24 0 0 0-3.13-1.25h-.62l-2.5-6.25.63-1.87 10 3.75v-5.63c0-4.58-3.13-9.79-9.38-15.62l3.13 6.87-6.88-6.25v3.75l1.88 6.25-2.5 1.88c-.84-4.58-2.92-9.17-6.25-13.75m127.5 11.25c0 1.25.62 3.13 1.87 5.62l4.38 3.75c.41-6.24 2.91-9.37 7.5-9.37 2.08 0 4.79 1.25 8.12 3.75l1.88 2.5 2.5 8.12v11.25l2.5 3.75c.41-2.08.62-4.16.62-6.25.42-2.08.63-3.95.63-5.62 0-7.5-2.5-14.8-7.5-21.88l-.63-1.87c-2.92-2.92-5.63-4.37-8.13-4.38-5 0-8.54 1.46-10.62 4.38-2.08 2.5-3.13 4.58-3.13 6.25m-201.88-5.63-2.5 3.13-7.5 10.62c-4.16 10-6.25 20.84-6.25 32.5v8.13c.42 2.92.84 6.25 1.25 10l.63 6.25 4.38 13.12 3.75 6.25 2.5 4.38 4.37 7.5 8.75 12.5 5 6.25 3.13 3.12c.41-1.25.62-2.08.62-2.5l.63-1.25c-.42-1.66-2.92-5-7.5-10a36.28 36.28 0 0 1-3.13-3.75 43.73 43.73 0 0 0-3.13-6.25c-10.83-17.08-16.25-30.62-16.25-40.62l.63-3.13v-19.37l1.25-6.25a35.74 35.74 0 0 1 1.88-6.25l3.12-7.5 1.25-1.88 5.63-6.25 6.25-4.37-6.25.62-2.5-5m-191.25 15c-7.5 7.5-11.67 17.5-12.5 30 .41 18.75 3.54 28.13 9.37 28.13 1.25 0 1.87-.83 1.88-2.5v-1.25c-1.25-2.08-2.92-5.83-5-11.25-1.67-5.42-2.5-9.37-2.5-11.88 0-8.33 2.08-15.83 6.25-22.5 6.66-11.66 15.41-17.5 26.25-17.5 5 0 9.16 3.55 12.5 10.63l1.25 1.87.62 5-2.5 5.63 3.13 4.37c2.91-5.41 4.37-10 4.37-13.75 0-11.66-6.25-17.5-18.75-17.5-6.67 0-13.33 2.71-20 8.13l-4.37 4.37m-20-3.75-.63 2.5 7.5-1.25 5.63 2.5c.41.42 1.04.63 1.87.63 1.67 0 2.5-.42 2.5-1.25 0-.83-.62-2.3-1.87-4.38l-2.5-1.87c-2.09-2.5-3.96-3.75-5.63-3.75-3.75 0-6.04 2.3-6.87 6.87m66.87 7.5.63 5 .62.63.63 3.12 5 2.5v-3.12c-.42-9.17 4.16-13.75 13.75-13.75 4.16 0 6.87.2 8.12.62l21.25 3.75 3.13.63h2.5c2.5 0 4.37-.2 5.62-.63l-22.5-5-7.5-1.87-7.5-2.5a28.93 28.93 0 0 0-5.63-.63 18.42 18.42 0 0 0-4.37-.62c-8.75 0-13.33 3.96-13.75 11.87m-28.75-3.12 3.75 5.62 3.13 4.38.62-.63v-1.25l-3.75-7.5-1.25-4.37c-.42-.42-1.04-.63-1.87-.63-1.67 0-2.5.63-2.5 1.88.41.42.62.83.62 1.25l1.25 1.25m172.5 5-1.25 3.75h5l6.88-5.63 10-.62c.41-.42 1.04-.63 1.87-.63 4.17 0 6.25 3.13 6.25 9.38 0 .83-.42 2.08-1.25 3.75l-1.25 2.5c.83.83 1.67 1.25 2.5 1.25 4.17 0 6.25-2.7 6.25-8.13 0-3.33-1.25-6.45-3.75-9.37-2.5-2.92-4.38-4.17-5.63-3.75h-2.5a7.78 7.78 0 0 0-5.62-2.5c-6.25 0-12.08 3.33-17.5 10m-177.5-6.88-3.12 1.88c-3.76 3.33-5.63 5.42-5.63 6.25 0 .83 1.67 2.92 5 6.25l3.13 4.37 5 4.38c7.5 8.33 14.58 13.54 21.25 15.62l41.25 14.38 21.25 2.5v-.63c0-2.08-1.25-3.74-3.75-5l-5-1.25-13.13-3.75a19.4 19.4 0 0 0-3.75-1.25 44.47 44.47 0 0 1-5.63-1.87l-10.62-3.75-10.62-5.63-10-5-15.63-13.75-1.87-3.12a98.76 98.76 0 0 0-3.13-4.38 32.88 32.88 0 0 0-5-6.25m267.5 1.88-.63 3.12 1.25.63 2.5 1.87v-1.25c0-1.66-1.04-3.12-3.12-4.37m-165.62 5 1.88 3.12 1.87 3.75-.63-.62 8.75 11.25 3.75 3.75 5 5.62 1.88 1.25a132.1 132.1 0 0 0 11.25 8.75 385.3 385.3 0 0 0 15.63 9.38l10 6.25c0-4.58-2.3-7.5-6.88-8.75l-5-2.5-1.88-1.25-14.37-10-6.88-5.63-6.87-5.62-5.63-6.25-13.12-16.25 1.25 3.75m-45 4.37h1.25c5.83 0 8.75-1.25 8.75-3.75s-1.25-3.74-3.75-3.75c-4.58 0-6.88 1.46-6.88 4.38 0 1.67.21 2.7.63 3.12m18.75-1.87c-2.5 0-3.75 1.04-3.75 3.12 0 2.92 1.46 4.38 4.38 4.38 2.5 0 3.74-1.25 3.75-3.75 0-2.5-1.46-3.75-4.38-3.75m-15.63 11.87.63 1.25c5.83 0 8.75-1.25 8.75-3.75 0-3.74-1.67-5.62-5-5.62-2.92 0-4.38 1.46-4.38 4.37v3.75m-8.75-7.5c-2.91 0-4.37 1.46-4.37 4.38 0 3.33 1.25 5 3.75 5 3.75 0 5.62-1.87 5.63-5.63 0-2.5-1.67-3.74-5-3.75m121.25 0c-2.09 8.34-3.13 17.71-3.13 28.13v5.62c0 2.5.2 4.8.63 6.88l1.25 1.87 56.87 29.38c27.92 14.17 47.08 27.08 57.5 38.75 11.25 12.5 16.88 28.12 16.88 46.87l-.63 4.38c11.25-1.25 15.83-1.87 13.75-1.88h11.88a61.52 61.52 0 0 0 2.5-18.12c0-23.75-4.38-42.3-13.13-55.63-8.75-12.91-26.04-26.04-51.88-39.37l-13.75-6.88a628.24 628.24 0 0 1-21.25-11.25l-13.12-5.62a793.91 793.91 0 0 0-20.63-10.63l-9.37-5-6.88-3.75-1.87-.62-5.63-3.13m-85.62 10.63v6.25l.63 2.5.62 1.25.63 3.12h-2.5c-.84 0-1.67.42-2.5 1.25l1.25 2.5c.41.84 1.04 2.3 1.87 4.38 1.25 1.67 2.7 3.75 4.38 6.25 6.66 7.5 17.08 13.33 31.25 17.5 10 2.5 15.2 3.96 15.62 4.37 6.25 2.5 9.58 4.59 10 6.25 0 2.92-1.25 4.38-3.75 4.38a7.77 7.77 0 0 1-5.63-2.5l-4.37-3.13-5-3.12-4.38-3.13h-1.87c-6.25-2.08-10.2-3.12-11.88-3.12-5 0-11.04 1.46-18.12 4.37l1.88 3.13 3.75 1.87-1.88 2.5c-4.17 2.92-6.67 8.13-7.5 15.63.42 9.17 5.2 13.75 14.38 13.75l5-1.25c-4.59-3.33-6.88-6.25-6.88-8.75 0-7.92 6.46-11.88 19.38-11.88 15.83 0 31.45 5.84 46.87 17.5l8.75 6.88 5.63 5.62 7.5 8.75 3.12 1.88 1.25-8.75 1.25-6.88c0-1.25-3.13-5-9.38-11.25-1.25-.41-2.5-1.66-3.75-3.75l-7.5-9.37-5-4.38-1.87-1.87-14.38-13.13-11.87-8.12-8.13-5.63-29.37-16.25c-5-3.74-7.5-8.74-7.5-15v-1.87l3.75-6.25-5.63-2.5c-3.75 0-6.45 3.33-8.12 10m-13.13 3.12c1.67 1.25 2.92 1.88 3.75 1.88 2.5 0 3.75-1.25 3.75-3.75s-1.04-4.17-3.12-5l-1.88-.63c-2.08 0-3.12 1.46-3.12 4.38l.63 3.12m-13.75 2.5-.63-1.87c0-1.25-1.04-1.87-3.13-1.88-2.91 0-4.37 1.46-4.37 4.38s1.87 4.38 5.63 4.37h1.87l.63-2.5v-2.5m335 21.88-3.13 5.62-5 5.63 1.25 1.87a66.6 66.6 0 0 0 15-22.5c3.33-8.33 5-13.12 5-14.37 0-.83-.42-1.25-1.25-1.25-1.67 0-3.13 3.75-4.38 11.25l-3.12 6.25c-1.25 2.08-2.7 4.58-4.38 7.5m-312.5-5v-1.88c-5-2.91-8.54-6.04-10.62-9.37l-6.25-8.13-.63 3.13c0 6.67 5.84 12.08 17.5 16.25m203.75-15.63c2.09 3.34 2.71 6.26 1.88 8.75v14.38h.63c.41.42.83.62 1.25.62 2.91 0 4.37-2.08 4.37-6.25 0-5-2.7-10.83-8.13-17.5m-273.12 5-5 5c-5 3.34-11.87 9.38-20.62 18.13l-2.5 5.62c-1.67 2.92-2.5 5.21-2.5 6.88 0 1.25.63 1.88 1.88 1.87l1.25-.62c.41 0 .83-.2 1.25-.63l2.5-6.87 3.12-4.38 3.75-4.37 7.5-7.5a66.65 66.65 0 0 0 3.75-3.13c5.83-3.74 8.75-6.45 8.75-8.12 0-1.67-.83-2.5-2.5-2.5l-.63.62m32.5 12.5c-8.75.84-13.12 3.96-13.12 9.38 0 2.92 1.25 4.38 3.75 4.37 1.67 0 2.5-.62 2.5-1.87l-.63-5c0-1.67 2.3-2.5 6.88-2.5l1.88.62 15 3.13h6.87l7.5 1.87v-1.87l-10-1.25-14.38-5-6.25-.63v-1.25m234.38.63c-2.5.83-3.75 2.08-3.75 3.75 0 2.92 1.25 4.38 3.75 4.37 2.92 0 4.38-1.66 4.38-5 0-2.08-1.04-3.12-3.13-3.12h-1.25m16.25 9.37c1.25.42 2.09.84 2.5 1.25h1.25c1.67 0 2.5-1.25 2.5-3.75s-1.25-3.74-3.75-3.75c-1.66 0-2.5 1.05-2.5 3.13v3.12m-276.88 1.25 3.75 1.25.63 9.38c-1.25 2.5-1.88 4.17-1.88 5 .84.83 1.46 1.25 1.88 1.25 2.5 0 3.75-3.96 3.75-11.88 0-6.66-2.5-10-7.5-10-1.25 0-2.92.84-5 2.5-1.67 1.25-2.5 2.5-2.5 3.75 0 .84.63 1.25 1.88 1.25 1.66 0 3.33-.83 5-2.5M490 356.66c-2.5.83-3.96 2.7-4.38 5.62 2.08 2.09 3.33 3.13 3.75 3.13 1.25 0 2.5-.63 3.75-1.88s1.87-2.5 1.88-3.75c0-.83-.42-1.66-1.25-2.5l-3.75-.62m-11.25 62.5-.63.62 5 3.75.63-1.87c0-1.25-1.46-2.7-4.38-4.38l-3.75-3.12-3.75-3.13-2.5-1.25-5-3.75h-1.25a84.42 84.42 0 0 1-5.63-3.12l-6.25-3.75-3.12-2.5-5-2.5-4.38-2.5-8.75-5-4.37-2.5-6.25-3.75-5.63-2.5a7.86 7.86 0 0 0-3.12-1.88 41.02 41.02 0 0 0-4.38-2.5 56.06 56.06 0 0 1-11.25-4.37 540.7 540.7 0 0 1-14.37-7.5c-1.67-1.67-3.33-2.5-5-2.5-.83 0-1.25.62-1.25 1.87s.42 2.3 1.25 3.13l36.88 18.12 11.87 6.25 54.38 30.63m95.62-60a16.64 16.64 0 0 0-5.63 3.75l-.62 6.25c.83-.42 2.7-.63 5.63-.63 2.5 0 3.74.63 3.75 1.88 0 4.58-3.34 9.17-10 13.75-6.26 4.58-12.3 7.5-18.13 8.75-3.75 1.25-5.83 2.08-6.25 2.5l-4.38 1.87a91 91 0 0 0-6.87 1.25c-3.75.84-5.63 1.46-5.63 1.88.42.83.84 2.08 1.25 3.75.84 1.67 1.67 2.5 2.5 2.5l3.75-.63 18.75-3.12c10.84-2.08 23.75-8.12 38.75-18.13 9.17-6.66 15-10 17.5-10 6.25 0 9.38 2.3 9.38 6.88l-.63 1.87-1.87 4.38v2.5c6.25-1.67 9.37-5.83 9.38-12.5 0-3.75-2.5-7.3-7.5-10.63-3.34-.83-5.63-1.25-6.88-1.25-10 0-16.88 3.13-20.63 9.38-.41 1.67-1.25 2.5-2.5 2.5h-3.75l1.25-10.63-3.12-6.25-1.25-1.25-6.25-.62m-267.5 6.87-6.25-2.5-18.75-1.87-7.5-.63-8.75.63-13.13.62-11.25 1.25c-5.83.84-8.75 2.3-8.75 4.38v1.25l.63.62 7.5-1.25 28.75-3.75 20.63.63h6.25c.83.42 2.29.62 4.37.62h6.25m-110.62-.62c7.08 2.92 13.54 4.38 19.38 4.37 3.33 0 5-.83 5-2.5 0-1.25-.63-1.87-1.88-1.87l-12.5-.63-8.75-1.87-1.25 2.5m43.75 8.75-.63-.63h-1.25l-3.12 1.88-4.38 3.75c-1.25 1.25-3.12 1.88-5.62 1.87h-1.25l-2.5-.62-5.63-6.25H215c-.83 0-1.25.42-1.25 1.25 0 2.08 1.25 4.17 3.75 6.25 2.92 2.08 5.62 3.13 8.13 3.12 5.83 0 10.62-3.54 14.37-10.62m4.38 7.5-5.63 1.25-5 3.75-3.75 2.5-.63 1.25c0 2.08.84 3.13 2.5 3.12a43.67 43.67 0 0 0 6.25-3.12 43.74 43.74 0 0 1 6.25-3.13l21.88-7.5c1.25-.41 4.8-1.04 10.63-1.87h11.87c.42.42 1.46.62 3.13.62.41 0 .62-.41.62-1.25 0-2.5-1.25-3.74-3.75-3.75l-5 .63-11.88.62-12.5 1.88c-.83.42-2.5 1.04-5 1.87-2.5.84-5.83 1.88-10 3.13m281.88.62.63 1.88v3.75c0 1.25-.83 2.5-2.5 3.75v.62l-1.88 2.5v2.5c6.67-2.5 10-7.08 10-13.75 0-5-2.29-7.5-6.87-7.5-3.75 0-5.63 1.46-5.63 4.38 0 .83 2.09 1.46 6.25 1.87m-343.12-4.37c-9.16.42-13.75 3.96-13.75 10.62 0 1.25.21 2.92.63 5 .83 2.09 2.5 3.76 5 5v-3.75l-1.25-3.12c-.42-.42-.63-.83-.63-1.25 0-2.92 1.67-5.2 5-6.88 3.75-2.08 7.09-3.12 10-3.12 5.42 0 11.05 1.46 16.88 4.37l2.5.63 1.25-.63-3.13-3.75-11.25-3.75-7.5-.62-3.75 1.25m83.75 6.25c-9.58 3.33-17.08 8.54-22.5 15.62-2.5 6.26-3.54 10.21-3.12 11.88l.63 6.87-.63 8.75c4.17 0 7.08-.83 8.75-2.5 1.67 7.92 6.67 11.88 15 11.88 4.58 0 8.75-1.67 12.5-5 4.17-3.75 6.25-7.92 6.25-12.5 0-3.33-.83-5.2-2.5-5.63l-.63 3.13-2.5 7.5c-3.33 2.5-6.04 3.75-8.12 3.75h-2.5c-.83-.42-2.08-.83-3.75-1.25l-1.88-1.88-3.12-2.5-2.5-2.5c-2.5-4.16-3.75-7.29-3.75-9.37 0-6.67 4.37-13.13 13.13-19.38 1.66-1.66 3.33-2.5 5-2.5l18.12-3.75c.42 0 .63-.41.63-1.25 0-2.08-1.46-3.12-4.38-3.12l-1.88.62c-2.08 0-3.54.21-4.37.63l-6.25 1.25c-2.08.42-3.96.83-5.63 1.25m132.5 16.87 1.88 1.25v.63c0 .83 1.04 1.67 3.13 2.5-1.67-3.33-2.5-6.46-2.5-9.38 0-5.41 1.87-8.12 5.62-8.12 1.67 0 3.33.83 5 2.5-.83-5-3.13-7.5-6.88-7.5-5.41 0-8.12 3.96-8.12 11.87 0 1.25.63 3.34 1.88 6.25m203.75-16.25-1.88 2.5c-1.25 3.34-1.88 5.84-1.88 7.5 0 6.67 2.5 10 7.5 10 2.92 0 4.38-1.66 4.38-5v-.62l-.63-3.13-5-5-2.5-6.25m-420.62.63c-1.66 2.92-2.5 5.42-2.5 7.5 0 4.17.21 6.88.63 8.12l1.25 6.88c.42 3.75 1.25 5.63 2.5 5.62 1.67 0 2.5-.83 2.5-2.5v-.62l-3.13-13.13c0-1.25.21-2.7.63-4.37.42-2.08.63-3.54.63-4.38 0-1.66-.84-2.7-2.5-3.12m10 11.25c-2.09.83-3.13 1.88-3.13 3.12 0 1.25.63 1.88 1.88 1.88 7.5 0 15.83-4.58 25-13.75l-1.26-1.25-1.87.62c-1.25.42-3.33 1.88-6.25 4.38-2.5 2.5-7.3 4.17-14.38 5m77.5-3.13h-.62a43.22 43.22 0 0 1-1.25 5v2.5c0 4.17 2.08 6.26 6.25 6.25 1.25-.41 2.7-1.04 4.38-1.87-2.5-2.5-3.76-5-3.75-7.5 0-3.75 1.25-6.04 3.75-6.88l6.87-1.87-1.88-1.25c-.41-.42-1.25-.63-2.5-.63-2.08 0-5.83 2.09-11.25 6.25m-50 3.13 2.5 3.12 1.25 1.25c5.84 8.34 8.75 16.25 8.75 23.75 0 15.42-5.2 23.13-15.62 23.13-4.17 0-8.13-2.3-11.88-6.88-.41 1.25-.83 2.3-1.25 3.13v.62c0 .84 1.67 2.3 5 4.38 3.75 2.08 7.3 3.13 10.63 3.12 11.25 0 16.88-8.74 16.88-26.25 0-8.33-3.13-17.91-9.38-28.75-2.92-4.16-5-6.24-6.25-6.25-1.67 0-2.5.84-2.5 2.5 0 .84.63 1.88 1.88 3.13m117.5-.63-9.38 3.13c-5 2.92-8.33 6.88-10 11.87l1.25 10.63c4.58 7.08 9.58 10.62 15 10.62 1.25 0 4.58-1.04 10-3.12v-1.25c-11.25 0-16.88-3.75-16.88-11.25 0-9.58 6.67-14.38 20-14.38 5.42 0 11.46 2.09 18.13 6.25.42.42 1.04.84 1.88 1.25.83.42 1.87 1.05 3.12 1.88l10 8.75.63-.63v-.62c-.84-1.25-2.71-3.12-5.63-5.63l-6.25-5.62c-.42-.42-3.33-2.3-8.75-5.63l-6.88-3.75-7.5-1.87-5-.63h-3.75m238.75 4.38c.84.83 1.67 1.25 2.5 1.25 1.25 0 1.88-1.04 1.88-3.13 0-1.25-.83-1.87-2.5-1.87-1.25 0-1.88.62-1.88 1.87v1.88m-160.62 1.87-3.75 4.38-2.5 4.37-3.12-1.25-5.63-1.87c-.41 1.25-.62 2.7-.62 4.37v2.5l-2.5 8.13v3.12c0 3.76.2 6.26.63 7.5l3.75 7.5h.62v1.88l3.13 3.75 5.62 8.12a9.28 9.28 0 0 1 2.5 4.38c.42 1.67 1.04 2.5 1.88 2.5 1.25 0 2.7-1.67 4.37-5a91.18 91.18 0 0 1 6.88-11.25 6.95 6.95 0 0 1-.63-3.13c0-1.66-.2-2.7-.63-3.12l-2.5-11.88-.62-3.12c-.83-5.42 1.04-9.8 5.63-13.13l1.25-.62 10.62-.63-2.5-7.5-5.63-3.75v-.62h-3.12l-3.75-.63c-2.92 0-6.04 1.67-9.38 5m-200.62-4.37c-6.25 4.58-11.04 9.17-14.37 13.75a501.78 501.78 0 0 1-6.88 9.37 127.74 127.74 0 0 1-7.5 10.63c-12.91 24.17-19.37 49.37-19.37 75.62v7.5c.42 2.5.83 5.21 1.25 8.13l1.25 8.13c1.25 11.25 2.7 18.75 4.37 22.5l1.88 6.25 3.75 13.12c2.08 5.42 3.12 9.38 3.12 11.88 0 6.25-2.29 9.37-6.87 9.37-2.5 0-3.75-.83-3.75-2.5l.62-1.88 3.75-6.25.63-.62c0-6.25-2.5-10.42-7.5-12.5l1.87 5.63-1.25 5-2.5 3.75-.62 1.87h-.63c-.41.83-.62 2.7-.62 5.63 0 1.25.2 2.08.62 2.5 2.92 3.75 6.25 5.62 10 5.62h3.13c1.25-.42 2.92-.83 5-1.25l2.5-1.25c3.75-2.5 6.46-9.58 8.12-21.25l4.38 1.88c0-2.09-.2-4.17-.63-6.25 0-2.5-.2-4.8-.62-6.88l-4.38-7.5v-.63l-1.87-3.12-3.75-3.75c-2.92-2.5-4.38-5.2-4.38-8.13 0-.83.84-1.45 2.5-1.87.84.42 1.25.83 1.25 1.25h.63v1.88c0 2.08.83 3.95 2.5 5.62a74.64 74.64 0 0 1 4.37 5.63 7.07 7.07 0 0 1 2.5 2.5c.84.41 1.46 1.25 1.88 2.5.42 1.25 1.04 3.33 1.87 6.25 2.92 10 11.88 15 26.88 15 5 0 9.17-1.25 12.5-3.75 3.75-2.92 5.62-4.8 5.62-5.63 0-.83-1.87-2.3-5.62-4.38v-1.87h3.75c3.75 0 7.08-2.5 10-7.5 3.33-5.42 5-10.2 5-14.38 0-13.75-6.67-20.62-20-20.62-2.08 0-4.58 1.04-7.5 3.13-2.5 2.08-3.75 4.16-3.75 6.25 0 1.25.2 2.08.62 2.5l2.5 4.37v1.88c0 3.75-2.08 5.62-6.25 5.62-2.91 0-5-.2-6.25-.63-5-2.5-7.5-7.08-7.5-13.75v-1.87c-2.5 4.58-3.75 8.75-3.75 12.5l1.88 4.38c5.83 5.83 11.46 8.75 16.87 8.75 9.59 0 14.17-5 13.75-15l-.62-6.25 6.25-1.25c1.25 0 2.3 1.04 3.12 3.12v10.63l-.62.62c-4.17 5.42-10 8.96-17.5 10.63h1.25-4.38c-7.91.41-15-2.5-21.25-8.75l-5-5c-12.91-12.92-19.37-31.25-19.37-55 0-40.42 12.5-69.17 37.5-86.26 0-2.08-1.46-3.95-4.38-5.62m386.88 6.87a17.41 17.41 0 0 0-10.62-3.75c-7.5 0-11.46 1.46-11.88 4.38 0 1.67.63 2.5 1.88 2.5h.63l11.87-2.5 5.63.62 2.5-1.25m-30-1.87h-.63c-2.5 0-3.75 1.25-3.75 3.75 0 2.92 1.25 4.38 3.75 4.37 2.08 0 3.12-1.66 3.13-5 0-2.08-.84-3.12-2.5-3.12m38.12 3.75.63 6.87c.41 1.25.62 3.34.62 6.25 0 5.42-3.13 10.21-9.38 14.38a36.4 36.4 0 0 1-20.62 6.25h-1.25l-.63 1.87h1.88a8.48 8.48 0 0 0 6.25 2.5c6.25 0 14.38-5.41 24.38-16.25 2.91-2.91 4.37-7.7 4.37-14.37v-2.5l-1.88-3.75-.62-1.88-3.13-.62-.62 1.25m-392.5 1.25-1.88 1.87-4.37 4.38c-16.25 15.83-24.38 36.46-24.38 61.87 0 16.67 8.13 25.63 24.38 26.88l-1.88-9.38h3.13c6.25.84 9.37-2.08 9.37-8.75-1.25.42-3.75.63-7.5.63-12.5 0-18.75-8.12-18.75-24.38 0-13.33 2.3-23.54 6.88-30.62l10.62-15 9.38-7.5v-.63c0-1.25-.63-1.87-1.88-1.87h-.62l-2.5 2.5m307.5-.63a138.2 138.2 0 0 1 9.38 50c0 2.09-.21 3.34-.63 3.75l-1.25 5.63-.63 6.25 4.38 1.25.63-6.25c1.25-7.5 1.87-12.92 1.87-16.25 0-16.67-3.75-30-11.25-40l-.63-3.75-1.87-.63m69.38 10c1.25-.41 2.08-.62 2.5-.62l1.25-.63 3.75 1.25c3.74-1.66 5.62-3.54 5.62-5.62 0-3.33-2.08-5-6.25-5-3.75 0-6.04 3.54-6.88 10.62m-393.75-10.62-11.87 8.75c-2.92 2.92-5.63 4.38-8.13 4.37-1.66 0-3.95-.62-6.87-1.87l-3.75-3.75c-.83-2.08-1.67-3.12-2.5-3.13-.83 0-1.25.42-1.25 1.25 0 .42.2 1.67.62 3.75.42 2.09.63 3.96.63 5.63l1.87 3.12c2.5 2.5 5 3.76 7.5 3.75 4.59 0 11.05-5.41 19.38-16.25a9.83 9.83 0 0 1 1.87-2.5c.84-.83 1.67-1.87 2.5-3.12m245 19.37-5.62 8.13-5 5-3.13 4.37c-11.25 15.84-16.87 29.59-16.87 41.25 0 4.59.63 6.88 1.88 6.88.83 0 1.66-1.04 2.5-3.13l5.62-16.25c2.5-8.74 7.7-15.2 15.63-19.37 10.41-6.67 18.54-10 24.37-10 2.5 0 6.46 1.46 11.88 4.37l2.5 2.5v.63l1.24 2.5v3.12c.42 2.92-1.87 5.42-6.87 7.5a9.14 9.14 0 0 0 5.63 1.88c2.5 0 5.2-1.46 8.12-4.38 2.92-3.33 4.37-6.45 4.38-9.37 0-2.5-1.88-5.42-5.63-8.75l-2.5-1.88c3.75-.41 5.62-1.25 5.63-2.5 0-1.25-1.46-3.33-4.38-6.25-2.92-2.91-7.3-4.58-13.13-5l-5 1.25a44.46 44.46 0 0 0-5.62 1.88l-4.38 1.87-6.25 6.88-3.75 1.87-4.37 1.88-.63-2.5.63-.63c.83-.41 2.7-1.25 5.63-2.5 3.33-1.66 6.45-5.83 9.37-12.5l1.25-5c0-4.58-3.75-8.54-11.25-11.87 1.67 3.33 2.5 6.04 2.5 8.12 0 1.25-1.46 4.59-4.38 10m131.88-15c-1.66.42-2.5 1.67-2.5 3.75 0 2.5 1.25 3.76 3.75 3.75 2.92 0 4.38-1.45 4.38-4.37 0-2.5-1.46-3.75-4.38-3.75l-1.25.62m-35 6.25-5.62 1.25v1.88c.42 3.33 2.3 5.42 5.63 6.25 3.74.83 7.29 1.46 10.62 1.87l5-8.12-13.75-2.5-1.88-.63m-79.37 1.88-.63 4.37c4.17-.41 6.25-1.66 6.25-3.75 0-.41-.2-.83-.62-1.25l-2.5-.62-2.5 1.25m91.87 16.25v1.87l1.25 1.88 1.25 1.87 1.25-.62c1.25-7.92 5.63-13.96 13.13-18.13-.42-2.91-1.67-4.37-3.75-4.37-3.75 0-6.88 2.08-9.38 6.25-2.5 4.17-3.75 7.92-3.75 11.25m-203.75-10c3.75 1.67 6.05 3.96 6.88 6.87l-2.5.63-6.25-1.25c-2.5 0-5.2 1.46-8.13 4.37l-7.5 7.5-3.75 8.75a90.1 90.1 0 0 0-1.25 6.88v3.75c0 2.5.21 4.38.63 5.62 5.42 12.5 12.3 18.75 20.62 18.75 3.34 0 5.63-.62 6.88-1.87l9.37-7.5a14.93 14.93 0 0 1 10-3.75c2.92 0 5.84 2.08 8.75 6.25 1.25 2.5 1.88 4.58 1.88 6.25 0 1.25-2.3 4.8-6.88 10.62 9.17-1.25 13.75-6.04 13.75-14.37 0-4.58-2.5-9.37-7.5-14.38-4.58-3.33-8.33-5-11.25-5-3.75 0-6.25.84-7.5 2.5l-6.25 10c-2.5 3.76-6.25 5.63-11.25 5.63-9.16 0-13.75-4.8-13.75-14.38 0-11.66 8.96-17.5 26.88-17.5 5.83 0 10.62 1.25 14.37 3.75l10.63 7.5 1.87 1.25 3.75 5 3.13 5.63.62 1.87 2.5 6.25.63 6.25 1.87 6.88.63 5.62.62 9.38c2.09-2.08 3.13-4.17 3.13-6.25 0-2.92-.2-4.8-.63-5.63l2.5-.62v8.75c.84-.42 2.5-.63 5-.63 1.25 0 2.09 1.46 2.5 4.38 2.5-4.17 4.59-6.87 6.25-8.13 4.17-2.91 6.25-5.2 6.25-6.87 0 1.67-.62-2.5-1.87-12.5l3.12-.63c1.67 9.17 2.92 13.75 3.75 13.75.84-.83 1.25-1.45 1.25-1.87 0-1.67-.41-3.54-1.25-5.63-.41-2.5-.62-4.37-.62-5.62l-.63-8.13-1.87-6.87-3.75 7.5-1.25 4.37-1.88 6.88-.62 5.62-1.88 3.13c-.41 1.67-1.66 2.5-3.75 2.5h-2.5c-2.91-2.5-4.37-5.2-4.37-8.13l.62-2.5 3.13-18.75c0-1.25-1.88-4.79-5.63-10.62l-3.75-5-2.5-5c-10-17.92-21.66-26.88-35-26.88-.83 0-2.5.42-5 1.25l-11.25 4.38m-47.5-3.13c-2.91.42-5.2 1.25-6.87 2.5l-3.75 6.88-5-1.88-5 6.25c-.83 4.17-1.25 6.05-1.25 5.63 0 2.08 2.3 3.75 6.87 5l2.5 2.5 1.88 2.5 3.75 5c0 1.67 1.46 3.13 4.37 4.37 3.34.84 5.21 1.25 5.63 1.25l6.25 3.75v1.25l2.5.63 1.87 2.5 2.5 1.25.63 1.87h-2.5c-3.33-3.33-9.58-6.87-18.75-10.62l.62 4.37c.42 5 1.88 8.13 4.38 9.38 2.92.83 6.04 1.88 9.37 3.12l3.13 2.5 4.37 5c7.5 7.5 11.25 16.46 11.25 26.88V523.54l6.88 4.37c1.25-5 1.87-9.58 1.87-13.75 0-19.17-6.25-35-18.75-47.5l-15-15c-2.5-2.92-3.75-6.04-3.75-9.38 0-6.66 5-10.62 15-11.87-3.33-5.83-7.7-8.75-13.12-8.75h-1.25l-.63.62m169.38.63-1.25-1.25c-2.91 0-4.37.62-4.37 1.87l-.63 1.25h6.88l-.63-1.87m92.5 6.87c-2.91 5.42-4.37 10-4.37 13.75 0 1.25 1.04 5 3.13 11.25l4.37 6.25 4.38 4.38 8.75 11.87 4.37 4.38 2.5 5a34.46 34.46 0 0 1 1.88 4.37l1.25 2.5 2.5 7.5c1.66 6.26 2.29 10.84 1.87 13.75l-1.88 8.75-1.87 9.38-4.38 7.5c-5.83 4.58-9.79 6.88-11.87 6.88-3.75 0-5.63-2.09-5.63-6.25 0-4.17 1.67-6.25 5-6.25 1.67 0 3.75.62 6.25 1.87 0-3.33-1.87-5-5.62-5-8.33 0-12.5 4.17-12.5 12.5v3.75c.42 1.67.83 3.54 1.25 5.63 2.5 4.58 5.2 6.87 8.13 6.87 2.08 0 5.83-1.04 11.25-3.13v10c12.08-3.33 18.12-8.54 18.12-15.62 0-.42-.63-2.3-1.88-5.63l-2.5-3.12-2.5-6.25v-1.88c0-2.5.84-3.74 2.5-3.75l.63.63h.63l.62 6.25 1.25 2.5c1.67 2.92 3.96 4.8 6.88 5.63l.62-9.38h1.25c1.67-.42 2.5 1.04 2.5 4.38l8.13 6.25c2.08-6.25 3.12-10.63 3.12-13.13 0-4.17-1.25-7.7-3.75-10.63-2.08-3.33-3.13-5.41-3.13-6.25 0-.83 1.88-1.87 5.63-3.12l.63-4.38-1.25.63c-.84-8.33-6.67-14.58-17.5-18.75-2.92-.42-4.8-1.46-5.63-3.13v-1.25c0-2.08.63-3.12 1.88-3.12 1.66 0 2.7.2 3.12.62l3.13 1.25 1.25.63c2.5 0 3.74-.83 3.75-2.5v-1.25l-3.75-3.75 2.5-1.25h3.12c1.67 0 2.92-.42 3.75-1.25a53.1 53.1 0 0 1 5-6.25l1.88-2.5c0-2.08-2.09-4.58-6.25-7.5l-3.13-.63-9.38-1.25-.62-1.25 6.25-3.75-7.5-3.75-5.63-2.5-18.75.63-1.87-1.25-.63-.63-1.87-1.25a8.7 8.7 0 0 1-.63-3.75c0-2.91 1.46-4.37 4.38-4.37l7.5 1.25 8.13-2.5v-2.5l-3.13-2.5-5.63-3.13a19.8 19.8 0 0 0-10-2.5c-4.16 0-7.5 1.67-10 5m45.63 21.25-2.5-3.12c-3.33-3.75-5.2-5.62-5.63-5.63l-3.12.63v2.5l3.75 1.25 6.25 5 1.25-.63m-365-1.87c-4.58 0-8.33-.83-11.25-2.5l-1.25.62-1.25 6.25c0 2.09.83 3.96 2.5 5.63l.62 3.12v-1.25c-7.08 5-10.62 11.25-10.62 18.75v1.25l1.25 5v3.75c0 2.5.2 4.38.62 5.63v1.87c0 .84-.2 1.88-.62 3.13 0 1.25-.2 2.92-.63 5l-3.12 10c1.25.42 2.7.63 4.37.63h3.75c14.17 0 22.3-6.05 24.38-18.13.83 0 1.67 1.04 2.5 3.12 2.5 3.34 5 5 7.5 5 2.08 0 5-1.25 8.75-3.75v-2.5c-3.33-3.33-5-6.45-5-9.37 0-1.67.2-2.7.62-3.13l4.38-8.75.62-1.25c0-2.91-.83-7.91-2.5-15a36.75 36.75 0 0 0-9.37 3.75 85.63 85.63 0 0 0-8.75 4.38l1.87-.63-6.87 6.25 1.87-2.5c-.83 1.25-1.45 1.88-1.87 1.88-1.25 0-1.88-.83-1.88-2.5 0-.83 1.46-2.08 4.38-3.75l6.87-4.38 13.75-5.62 1.25-6.88 4.38-6.25-6.25-1.87-3.75-.63c-2.5 0-6.46 1.05-11.88 3.13-5 1.67-8.12 2.5-9.37 2.5m118.12 115.62-17.5-2.5h-3.13l-5.62-1.88-17.5-5a87.5 87.5 0 0 0-9.38-.62c-2.5-.42-4.16-.63-5-.63h-2.5l-14.37 3.75c0 3.34 1.87 5 5.62 5 1.25 0 3.55-.62 6.88-1.87s5.83-1.88 7.5-1.88c.83 0 3.33.42 7.5 1.25 15.42 3.34 26.87 6.05 34.37 8.13l11.25 2.5c1.25 0 1.88-.83 1.88-2.5v-3.75m10-20c-24.17-5-43.96-14.17-59.38-27.5-15.41-13.75-24.58-30.63-27.5-50.63-1.25-10.83-3.33-16.25-6.25-16.25-2.5 0-3.75 4.17-3.75 12.5v7.5c.42 2.5.84 5.21 1.25 8.13l1.88 18.13 1.87 23.12.63 23.13.62 8.12.63 1.25.62 1.88 1.88 1.25 7.5-1.25 11.25-3.75 8.12 1.25 30.63 7.5 15 1.87c.83.42 2.3.63 4.37.63 2.09 0 4.38-3.34 6.88-10 .42-.42 1.67-2.71 3.75-6.88m-86.25-91.88.62 5.63c.42 1.67.84 3.54 1.25 5.63a220.8 220.8 0 0 0 1.88 6.87l2.5 6.88 3.75 8.12 1.25 3.75 5.62 9.38c.84 2.5 1.25 4.16 1.25 5l3.13.62c-7.92-13.33-12.5-24.58-13.75-33.75-.83-5.42-1.67-8.75-2.5-10-.42-1.67-2.08-4.37-5-8.13m324.38.63c-.42.42-.63 1.04-.63 1.88 0 1.24.42 1.87 1.25 1.87 1.25 0 1.88-.42 1.88-1.25 0-1.67-.83-2.5-2.5-2.5m-61.25 11.25v.63c0 1.24.63 2.08 1.88 2.5 2.08-3.34 3.74-4.59 5-3.76h3.75v5c0 4.17-3.34 6.26-10 6.25h-3.13a43.27 43.27 0 0 0-5-1.25c5.83 5.84 9.17 8.76 10 8.75 10 0 15-4.58 15-13.75 0-7.5-3.54-11.25-10.63-11.25-2.5 0-4.79 2.3-6.87 6.88m-115.62 18.13 1.25 11.87.62 5.63 1.25-19.38c.84-9.58 4.38-14.38 10.63-14.38 3.33 0 5.62 1.46 6.87 4.38.42-.83.63-2.5.63-5 0-4.58-3.13-6.87-9.38-6.88-8.75 0-12.7 6.26-11.87 18.75v5m28.12-5c2.92-2.91 5.63-4.37 8.13-4.37 1.67 0 3.75.63 6.25 1.88l1.25 6.24c0 1.25-1.46 4.59-4.38 10a65.33 65.33 0 0 0-3.75 10.63c2.5-3.75 4.17-6.04 5-6.88 6.25-7.5 9.38-12.91 9.38-16.25 0-7.91-3.54-11.87-10.63-11.87-5 0-8.75 3.54-11.25 10.63m58.13-3.13c-20.42.42-33.54 5.83-39.38 16.25l-3.12 5-3.75 5c-4.58 11.67-6.88 19.58-6.88 23.75v1.25c3.75-2.08 5.84-3.75 6.25-5 .84-1.67 1.88-5.2 3.13-10.63 1.67-7.08 6.46-13.54 14.37-19.37 8.34-5.83 16.46-8.75 24.38-8.75 10 0 18.75 3.75 26.25 11.25l3.13 4.38-9.38 1.87c-4.17 3.75-6.25 7.7-6.25 11.88l-1.25 14.37c-.42 5.83-3.96 12.08-10.63 18.75 1.67 1.25 2.92 1.88 3.75 1.88 11.25 0 17.09-6.46 17.5-19.38h2.5v3.13c0 1.66.63 2.7 1.88 3.12l5 3.13 6.88-8.75c1.66-1.25 2.29-3.13 1.87-5.63l-.63-.63-5.62-7.5a9.14 9.14 0 0 1-1.88-5.62c0-2.92 1.67-4.37 5-4.38h2.5l3.75 4.38 2.5 3.13 2.5 1.87 11.88 3.75v-8.75l5 1.88 1.88.62c2.91 0 5.2-2.7 6.87-8.13l-8.13-1.25-4.37-5-3.13-4.37a30.98 30.98 0 0 1-9.37-7.5h1.88-4.38l-5 3.13-.63 4.37-3.75-.63.63-1.25a57 57 0 0 0-6.25-4.37l-6.25-5-12.5-5-8.75-1.25m100.62-.63-1.25 2.5-1.88 4.38-3.12-1.88-1.88 1.25.63 7.5c-.42.84-.63 2.3-.63 4.38l.63 1.25c.83.83 1.87 2.3 3.13 4.38 1.25 1.66 2.7 3.54 4.37 5.62l2.5 3.75.63-21.88-3.13-11.25M518.79 487.9h-16.25c-6.67 15.84-13.75 27.5-21.25 35s-18.13 13.34-31.88 17.5h-.62c-2.92 0-4.38 1.67-4.38 5l.63 1.88c0 2.08-.83 4.58-2.5 7.5-1.25 2.5-1.88 3.96-1.88 4.38 0 1.66.63 2.5 1.88 2.5-1.25 0 5.42-1.88 20-5.63 28.33-7.08 49.37-30.42 63.12-70l-6.87 1.88m-35 60-5.63 3.12-10 5-13.75 5-5.62 1.25-9.38 1.88-2.5 5.62c35.84-1.25 64.8-21.67 86.88-61.25a55.77 55.77 0 0 0 3.13-5.63c1.25-2.91 2.7-7.7 4.37-14.37 0-.83-.63-1.25-1.88-1.25s-2.08.42-2.5 1.25c-.41.83-1.66 5-3.75 12.5-.41 1.67-1.45 3.75-3.12 6.25-1.25 2.08-2.92 4.8-5 8.13l-6.88 10.62c-4.58 7.08-12.7 14.38-24.37 21.88m125.62-59.38.63.63v3.12h.62c1.25 0 1.87-.63 1.88-1.88 0-1.25-1.05-1.87-3.13-1.87m-162.5 7.5-5 4.38-2.5 5-.63 3.12-.62-1.25h-2.5l-.63-5-3.75-5c-8.33 6.25-12.5 12.08-12.5 17.5l.63 2.5c.42 1.67.62 3.33.62 5v5c0 7.08-1.66 12.92-5 17.5-2.91 4.17-4.58 6.46-5 6.88v6.25c0 5.41-2.08 7.91-6.25 7.5h-1.87l-1.25-5c0-1.67.83-3.34 2.5-5l7.5-9.38c4.17-5.42 6.25-12.08 6.25-20 0-1.67-.42-4.58-1.25-8.75l-1.88-3.75-1.25-6.25-5.62 1.88.62.62c-3.33 1.25-5.2 3.75-5.62 7.5l-1.88 1.25-1.25-.63c-.83-4.16-2.7-7.29-5.62-9.37l-.63-1.25-3.75-1.25-5.62-.63-3.75-1.87c-.42.42-.63 1.25-.63 2.5s.63 2.7 1.88 4.38l1.87 1.24-1.87 1.88-3.13-2.5-11.25-.63-4.37 4.38c-2.08 3.33-3.13 5.83-3.13 7.5v2.5c.42.83 1.25 1.88 2.5 3.13 2.92-4.17 5.42-6.25 7.5-6.25 3.75 0 7.71 1.45 11.88 4.37 1.25 2.5 1.87 4.38 1.87 5.63 0 7.08-1.04 12.08-3.12 15l-3.75 5.62c-4.58 8.33-6.88 13.96-6.88 16.88 0 1.66.84 4.37 2.5 8.12 2.09 3.33 5 5.2 8.75 5.63v.62c0 2.08-1.25 3.75-3.75 5l-7.5 9.38 7.5.62h9.38c2.5 0 4.58-.83 6.25-2.5a36.65 36.65 0 0 0 4.37-5 18.53 18.53 0 0 1 1.88-2.5l10 1.88 8.12-3.75 5-2.5c7.92-4.17 15.42-22.09 22.5-53.75 3.75-15.84 11.46-25.84 23.13-30-3.33-4.59-7.5-6.88-12.5-6.88h-2.5l-5 2.5m-133.75 2.5.62 4.38 3.75-4.38c1.25.83 3.96 2.08 8.13 3.75-2.08-5.83-4.38-8.75-6.88-8.75-2.91 0-4.79 1.67-5.62 5m35 2.5c-2.5 5-4.17 12.7-5 23.13l-.63 5.62 3.13 1.25 1.87-7.5 1.25-7.5c2.09-7.08 4.8-10.63 8.13-10.63l6.25 1.88-1.25-4.38c-.42-2.91-2.92-4.37-7.5-4.37h-1.25l-5 2.5m208.12 6.25c2.92 8.75 4.37 15.2 4.38 19.38 0 4.16-1.88 9.58-5.63 16.25a20.58 20.58 0 0 1-2.5 3.12 9.83 9.83 0 0 1-1.88 2.5l-7.5 6.88v1.25c0 1.66.84 2.5 2.5 2.5 1.67 0 3.55-1.25 5.63-3.75l8.13-10.63c2.5-2.92 3.74-8.12 3.75-15.63 0-2.91-.63-7.29-1.88-13.12l-5-8.75m66.25 10v1.88l-.63 1.87c0 .83.63 1.25 1.88 1.25 1.67 0 2.5-.63 2.5-1.88s-.2-2.08-.63-2.5l-3.12-.62m-85 32.5 1.25 1.25c.42 0 .83.2 1.25.63 2.08 0 3.12-1.46 3.13-4.38 0-2.5-1.05-3.75-3.13-3.75s-3.13 1.67-3.13 5l.63 1.25m70-.63-1.88-.62-4.37 13.75c.83 2.5 1.25 3.54 1.25 3.13 0 1.25-.42 3.54-1.25 6.87-.83 2.92-1.25 5.2-1.25 6.88-1.67-1.67-2.5-2.92-2.5-3.75 0-1.67.83-5 2.5-10l-4.38 1.87h-1.25a26.77 26.77 0 0 0-1.87 9.38c0 1.66.63 3.54 1.88 5.62 1.66 2.08 2.7 3.96 3.12 5.63 2.92-1.67 4.8-3.96 5.63-6.88h1.25c.83.83 1.25 1.67 1.25 2.5 0 .83-.42 2.3-1.25 4.38-.84 1.66-1.25 2.91-1.25 3.75 0 5.41 3.33 8.12 10 8.12 2.5 0 5.2-2.08 8.12-6.25l-3.75-1.25-5-3.75-1.25-8.75 2.5-7.5 1.88-8.13 3.12-8.12v-6.88l-5-3.12.63-.63h-2.5l-1.25 3.75h-3.13m-86.25 34.38 13.13 3.13 2.5-1.25-1.88-.63-3.13-.63-7.5-1.87-4.37-1.25-6.25-3.13-4.38-1.87-2.5-2.5c-3.75-4.17-5.62-7.92-5.62-11.25 0-3.75 1.67-5.63 5-5.63 2.92 0 4.8.21 5.63.63.83-3.33 1.24-5.2 1.24-5.63 0-2.91-2.7-4.37-8.12-4.37-7.92 0-11.88 5-11.88 15 0 10.42 9.38 17.5 28.13 21.25M259.4 557.28v6.25l3.75-5c1.25-1.67 2.7-2.5 4.38-2.5 3.33 0 6.24 1.46 8.75 4.38a6.76 6.76 0 0 1 1.87 5c0 2.91-1.88 5.83-5.63 8.75-3.33 2.91-6.25 4.37-8.75 4.37h-18.12c-1.67 0-2.5.83-2.5 2.5.42.42.62.83.62 1.25l.63.63h3.75l11.87 1.25h6.88l1.88-.63 6.25-2.5c7.08-3.33 10.62-8.13 10.62-14.38 0-11.66-4.8-17.5-14.38-17.5-5.41 0-9.37 2.71-11.87 8.13m270-6.88c-1.67.42-2.5 1.25-2.5 2.5 0 1.67.83 2.5 2.5 2.5 2.5 0 3.75-1.04 3.75-3.12 0-1.67-1.04-2.5-3.13-2.5l-.62.63m-11.25 8.75h1.88c1.25 0 2.7-.84 4.37-2.5-.42-2.92-1.67-4.38-3.75-4.38s-3.13 1.67-3.13 5l.63 1.88m18.13-3.13c-2.09.83-3.13 2.5-3.13 5 0 2.08 1.04 3.13 3.13 3.13 2.91 0 4.37-1.46 4.37-4.38 0-2.5-1.25-3.75-3.75-3.75h-.63m21.88 2.5-3.13 2.5c-1.25 2.5-1.87 5.63-1.87 9.38v3.12c2.5 5.42 7.08 8.13 13.75 8.13 5 0 12.08-3.96 21.25-11.88l-.63-.63c-2.08 1.25-3.33 1.88-3.75 1.88a7.87 7.87 0 0 0-3.12-1.88v-1.25l-3.13 4.38c-3.33 1.25-6.04 1.88-8.12 1.88.42 0-1.46-.42-5.63-1.25l-3.12-7.5 3.13-5.63-5.63-1.25m-72.5 17.5c14.58 13.33 33.33 20 56.25 20 14.58 0 25.63-2.5 33.13-7.5l5-3.13 9.37-6.87.63-.63-.63-3.75-5.63 2.5-10 6.25c-5.41 4.17-16.04 6.25-31.87 6.25h-4.38l-8.75-.62a39.86 39.86 0 0 0-5.62-1.25 65.01 65.01 0 0 0-8.13-2.5l-6.87-2.5-3.75-1.88h-1.25v-.62l-5-3.13-1.25-.62-4.38-4.38c-7.08-7.08-11.04-10.62-11.87-10.62-2.92 0-4.38 1.25-4.38 3.75 0 1.25 1.88 3.75 5.63 7.5l3.75 3.75m39.38-14.38c-1.25 2.09-1.88 3.75-1.88 5 0 2.09 1.25 3.13 3.75 3.13 1.67 0 2.5-2.08 2.5-6.25-.83-1.25-1.88-1.88-3.13-1.88h-1.25m21.88 1.88c-1.67 0-2.5 1.04-2.5 3.13 0 2.08 1.04 3.12 3.13 3.12 2.5 0 3.74-1.25 3.75-3.75 0-1.67-1.46-2.5-4.38-2.5m-234.38.63-2.5 2.5-5.63 5.62-10.62 5.63c-10.83 5.41-23.54 8.12-38.13 8.12-4.58 0-7.08-.2-7.5-.63l-9.37-1.87-8.75 1.88c10.42 5 20.2 7.5 29.37 7.5 14.17 0 26.88-2.5 38.13-7.5 7.92-3.34 12.7-6.25 14.38-8.75l3.12-3.13 5-4.38.63.63 1.25-4.38-9.38-1.25m208.12 3.13c-.42-1.67-1.46-2.5-3.13-2.5-2.5 0-3.75 1.25-3.75 3.75s1.05 3.75 3.13 3.75c1.67 0 2.92-1.67 3.75-5m15.63.63c-2.92 1.66-4.38 3.12-4.38 4.37 0 2.5 1.25 3.75 3.75 3.75 1.25 0 2.3-.63 3.13-1.88.83-1.25 1.45-2.29 1.87-3.12l-.63-.63c0-.41-.2-.83-.62-1.25l-3.13-1.25m-203.75 1.88-7.5 1.88c-3.33.83-7.08 2.91-11.25 6.25l-5 4.37-5 2.5-6.25 3.13 5-1.25 25-10c.84-.42 2.92-.63 6.25-.63 10.84 0 16.25 3.54 16.25 10.63 0 5.83-2.91 8.75-8.75 8.75-.83 0-3.95-1.05-9.37-3.13 1.67 5 5.62 7.5 11.88 7.5 10.83 0 16.25-4.58 16.25-13.75 0-3.75-1.46-7.08-4.38-10l-3.75-3.13c-2.5-.83-3.96-1.25-4.38-1.25h-1.25l-13.75-1.87m133.75 3.75c-1.25-.42-4.37-.63-9.37-.63-4.17 0-7.7 1.46-10.63 4.38-2.91 4.17-4.37 7.5-4.37 10 0 8.33 4.58 12.7 13.75 13.13-3.33-5.84-5-9.38-5-10.63 0-5.42 3.96-8.13 11.88-8.13 3.74 0 7.29.63 10.62 1.88l27.5 10 9.38 1.88 3.12.62c1.25 0 2.92-.63 5-1.88l-3.13-.62-6.25-1.88-4.37-1.25-1.25-.62-1.88-.63-3.75-1.87-5.62-1.88-1.25-.62-3.75-1.88-1.25-.62-3.75-2.5-5-1.88-6.88-3.12-3.75-1.25m-260 6.25c2.92 4.17 4.38 7.3 4.38 9.38 0 2.5-.83 5.41-2.5 8.75 6.25-.42 9.37-2.71 9.38-6.88 0-5.42-3.76-9.17-11.26-11.25m383.75 1.88-3.12 2.5-5.63 7.5v1.25c0 2.08 2.09 4.58 6.25 7.5l-.62-5c0-2.5.63-4.38 1.88-5.63l4.37-4.38.63-1.25c0-1.66-1.25-2.5-3.75-2.5m-93.13 13.75-1.25-.62 1.25.63m-223.12-445-1.25.62c-.42-.83-.63-2.3-.63-4.38 0-2.5.84-3.74 2.5-3.75h.63l1.88.63-1.88 3.75v3.75l-1.25-.63m-5-5.62 1.88 3.12-2.5 1.88-1.88-2.5.63-3.13 1.87.63m-5.63-.63.63 4.38c0 1.25-.42 1.88-1.25 1.87-1.67 0-2.5-.83-2.5-2.5 0-.83.2-1.45.63-1.87l2.5-1.88m-6.88 1.25 3.13 5-4.38-.62 1.25-4.38m54.38 1.88 5.62.62 12.5 4.38 9.38 8.75-5-1.88-5.63-5.62-16.88-4.38v-1.87m-115 31.87v3.13l-.62 3.12-3.13 8.75-8.75 20.63.63-3.13c.83-2.5 1.87-6.04 3.12-10.62 0-2.92.84-4.58 2.5-5l1.25-3.75 1.25-6.88 3.13-5.62.62-.63m76.25 8.75 2.5 7.5-3.12-6.25.63-1.25m-15.63 25.63v-3.75h1.88c-2.5.83-1.88 1.25 1.87 1.25 0 1.25.42 1.88 1.25 1.87l-5 .63m7.5 17.5 8.13-13.75a39.25 39.25 0 0 1-5 14.37l-3.13-.62m-5.63-12.5v5.62c-1.25 6.26-3.54 11.05-6.87 14.38l1.25-.63-2.5.63c.83-1.25 1.46-2.7 1.87-4.38l2.5-6.25v-6.25c.84-2.08 2.09-3.12 3.75-3.12m99.38 0 4.38.62 1.87 3.13h-3.13c-.83 0-2.08-.63-3.75-1.88l.63-1.87m3.13 5.62c2.91 1.67 3.95 3.76 3.12 6.25v1.25h-.63l-3.12-5-5.63.63 2.5-3.13h3.75m63.13 5 1.88-3.75 3.12 5.63-1.88 1.25h-1.87l-1.25-3.13m47.5 3.75-.63 4.38-3.12 5-1.88 2.5c-2.5 2.92-4.58 4.38-6.25 4.37v-1.25l3.13-2.5c2.5-2.08 3.96-4.16 4.38-6.25.83-3.74 1.45-5.83 1.87-6.25h2.5m-238.75 3.13 1.25-.63 1.25-1.25c2.92-.41 4.37.42 4.37 2.5 0 1.25-.62 1.88-1.87 1.88-1.67 0-3.33-.83-5-2.5m23.12 7.5 3.13 1.25 4.38-.63.62 1.25-2.5 2.5h-3.13c-1.25.42-2.91-.41-5-2.5 0-.41-.62-.62-1.87-.62-.83-.42-1.25-.83-1.25-1.25-1.25 0-.2-.42 3.12-1.25l.63.62c.42 0 1.04.21 1.87.63m25-.63.63-6.25-3.75 4.38c-2.08 3.75-4.8 5.63-8.13 5.62l-.62 3.13 11.88-6.88m81.87-.62h1.88c-1.67 5.83-3.13 10.83-4.38 15s-2.7 7.3-4.38 9.38l-1.87-.63 8.75-23.75m-72.5-.63-5 5.63-3.13 1.25-6.87 3.75-8.13 1.87.63-1.87 6.25-2.5 8.75-5 7.5-3.13m-30 9.38 1.88.62-5.63 2.5-2.5-.62-2.5-2.5v-1.88c0-.83 1.25-.41 3.75 1.25.83-.41 2.5-.2 5 .63m195.62 5.62 3.13.63 3.12 3.75-6.25-.63c-3.33-4.58-5-6.66-5-6.25l1.25-3.12 1.88-1.25 1.87 6.87m-53.75 3.13 11.25-4.38.63 1.25-3.13.63v.63l-1.88.62-.62 1.25-2.5 1.25-2.5.63-1.25-1.88m43.75-4.38c.42 1.67 3.33 4.59 8.75 8.75a26.46 26.46 0 0 0-4.38-.62h-1.25l-3.75-3.13.63-5m26.25 9.38a41.03 41.03 0 0 1-2.5 4.38c-.42 1.24-3.75 2.29-10 3.12-4.58.83-6.88-.42-6.88-3.75l-3.12-1.88 10 2.5c2.92.42 5 .21 6.25-.62a61.08 61.08 0 0 0 6.25-3.75m-280 1.25 1.25-1.25c1.67 0 1.67.83 0 2.5s-4.58 2.92-8.75 3.75h-1.88l-.62-2.5h3.13l3.74-2.5h3.13m-3.75 8.13h2.5c1.67 0 2.5.41 2.5 1.24-.42 1.25-3.54 2.3-9.38 3.13v-1.88l4.38-2.5m210.62 5.63h5l-1.25-1.88-.63-1.87-3.12.63v3.12m-206.25 2.5-3.13 4.38-3.12-3.76 4.38-1.25 1.87.63m211.25 3.75 1.88 1.25 11.87 5c-7.92-.42-13.13-2.5-15.63-6.25h1.88m37.5 3.75-4.38-1.88-4.37 1.25-1.88-.62-5.62 3.13 16.25-1.88m-3.75 5.63-13.13 3.12 5.63-3.75 11.25-2.5c0 1.67-2.08 3.33-6.25 5 .42-.42.83-.63 1.25-.63l1.25-1.25m185 3.13-1.25 1.25-2.5.63-.63-5 4.38 3.12m-1.88 5.63v3.12c0-.42-.62-.63-1.87-.63-.83 0-1.25-1.25-1.25-3.75l3.13 1.25m-1.88 5.63c1.67 0 2.5.63 2.5 1.88 0 2.91-.2 4.37-.63 4.37l-3.75-1.88 1.88-4.37m-73.75 16.25s.2.42.63 1.25c.41.42 1.04 1.25 1.87 2.5 0 2.08-.2 3.13-.63 3.13l-3.75-1.88-.62-5 1.88-1.25.62 1.25m-6.88-.63v4.38l4.38 3.75h-6.88l-1.87-3.13c.83 3.34 1.25 1.88 1.25-4.37 0-.83.42-.83 1.25 0 .83 0 1.46-.2 1.88-.63m-31.88 3.13 7.5 5a64.41 64.41 0 0 0 9.38 4.38c3.33.83 6.87 1.45 10.62 1.87h.63l7.5-.63c5 0 7.7.21 8.12.63l-.63.63h-1.87c0 1.66-2.08 2.5-6.25 2.5h-9.38l-3.12-.63-5.63-1.25-16.25-8.75-.62-3.75m22.5-3.75.63 5 3.12 4.38-3.75 1.24-3.75-2.5v-3.12l3.75-5m35 12.5 6.88-.63-5 2.5-1.88-1.87m-8.13 5.63-1.87-.63 3.75-5c0 .83.63 2.08 1.88 3.75.41 1.25.41 1.88 0 1.88h-3.75m-23.75 5.62 3.75 1.25v5l-.63 1.25-1.88-.63h-3.75l-2.5-2.5v-2.5c1.25 0 2.92-.62 5-1.87m10 1.25 6.25-.63-3.75 3.13v5l-3.12-1.25c.83 0 .63-1.46-.63-4.38l1.25-1.87m-231.88.63 15.63 7.5-9.38-2.5-4.37-3.13-1.88-1.88m-3.12 5.63 11.25 4.38v.62l.63-.63v1.88c-5.42-1.67-9.38-3.75-11.88-6.25m50.63 21.25c.41.83.62 2.5.62 5 0 2.92-.63 4.58-1.88 5h-2.5l-1.87.63 1.25-2.5 2.5-1.88v-5.63h1.88v-.62m-39.38 4.38-5 .62-.63 1.25-2.5.63c-2.08.83-3.54 1.87-4.37 3.12l-3.13 2.5-1.25 3.13-1.87 1.87-1.25-.63c2.5-7.5 7.7-11.87 15.63-13.12l1.87 1.25-.63-1.88 3.13 1.25m43.75.63c1.25 2.08 1.87 3.33 1.88 3.75 0 .42.41 1.04 1.25 1.88.41.41.41.83 0 1.24-.84.84-2.71 1.46-5.63 1.88l2.5-8.75m5.63 5 1.87 1.88a5.71 5.71 0 0 1-4.38 3.74l2.5-5.62m35.63 35 .63 3.13 1.25 9.37 1.87 4.38c-4.17-.42-6.25-5.63-6.25-15.63.83-.83 1.67-1.25 2.5-1.25m5.63 3.75 1.25 6.88 1.25 6.87 1.25-1.25-2.5.63c-2.5-10-3.76-13.96-3.75-11.88 0-.42.83-.83 2.5-1.25m160 5.63c0 2.5-1.05 4.16-3.13 5l1.88-5.63v.63h1.25m-101.88.62 11.25 1.88 5 1.24-5 1.25 1.25-.62-3.13-.63c-3.75-1.25-6.46-1.87-8.13-1.87H465l1.88-1.25m106.25.63 1.25.62a16.67 16.67 0 0 0-3.13 4.38c-.42 1.66-1.04 2.5-1.88 2.5-.83 0-1.25-.42-1.25-1.26 0-2.08 1.67-4.16 5-6.25M297.5 444.78l2.5 1.88 1.88 3.12c2.5 0 4.17.2 5 .63-.42.41-1.04.83-1.88 1.24l-1.87 1.88-3.75-3.75-6.25-6.88 1.25-1.25 3.13 3.13m137.5 0 1.87-.63 3.13 2.5-1.25 1.25-.63 1.25-3.13-1.25v-3.12m131.88 1.25 6.25 5 1.88.63 2.5 2.5c.83.83 8.75 3.95 23.75 9.37l-10 .63-6.88-3.76-2.5-.62-.62-1.25-3.13-1.88-3.12-1.87-2.5-2.5-1.25-1.25-4.38-5m-189.38.63c2.92.83 8.55 4.58 16.88 11.24l7.5 5v2.5c.42.84.83 2.3 1.25 4.38.42 2.08.63 3.54.63 4.38v1.24l-1.25-1.25-3.13-5-1.25-2.5c-1.67-3.33-5-7.5-10-12.5L385 452.9a16.66 16.66 0 0 1-4.37-3.12l-3.13-3.13m54.38 3.13 5 3.13-6.25-.63-.63-3.13 1.88.63m135.62 2.5 8.75 6.88 7.5 3.74-3.13 1.25-6.25-3.12-3.75-3.75-2.5-2.5-.62-2.5m-138.75.63 3.13 3.74-6.25 1.88 3.12-5.63m-160 28.75-1.88.63c-6.25-1.67-9.37-2.7-9.37-3.13l5.63-1.87c3.74 1.25 5.62 2.7 5.62 4.38M590 476.02l-.63 3.13 1.25-3.13-1.25 3.75H585l5-3.75m-346.88 3.75c-.42 0 .63.42 3.13 1.25 0 2.08-.42 3.54-1.25 4.38l-3.13-.63-2.5-1.25a5.6 5.6 0 0 1 3.75-3.13v-.62m16.25 3.75c5 2.08 6.46 3.54 4.38 4.38a16.24 16.24 0 0 0-5-.63h-1.88l-2.5-.63.63-3.12h4.37m340.62-3.75-6.25 7.5h-1.88c.42-4.17 1.46-6.25 3.13-6.25l5-1.25m19.38 1.88.62 7.5-1.25.62-1.25-6.88 1.88-1.25m-362.5 8.75 5.62 1.25v3.13c-.83-.83-1.88-.83-3.13 0-4.58-.83-7.08-1.04-7.5-.63l-1.25-1.87c.42 0 1.25-.63 2.5-1.88h3.75m-17.5-2.5 2.5 1.88-.62.63c0 .41-.42 1.04-1.25 1.87-.83-.83-1.67-1.25-2.5-1.25-.83 0-1.25-.2-1.25-.63 0-1.66.42-2.5 1.25-2.5h1.88m310 6.88.62 1.88h-5l4.38-1.88m-314.38-.63 3.75 1.25-.63 3.13-3.75-.63.63-3.75m323.12 3.13-2.5 2.5h.62c-3.75.42-6.25 2.08-7.5 5h-1.88 1.25l-1.87-.63c1.67-4.16 3.96-6.24 6.88-6.25h1.25l3.75-.62m-140 3.13.62.62-2.5 1.88c-2.5 0-3.75-1.05-3.75-3.13 0-.83.42-1.25 1.25-1.25l4.38 1.88m-185 6.24c.41-3.74 1.04-5.62 1.87-5.62 1.25 0 1.87.83 1.88 2.5 0 .83-.42 1.25-1.25 1.25l-1.88 1.88h-.62m330-1.88h2.5l8.12 3.13-3.13 2.5h-3.12l-1.88-1.88-1.87-1.88-.63-1.87m36.88.63h2.5c1.25 4.58 5 10.83 11.25 18.74l-3.13 1.88c-2.08 0-3.95-1.87-5.62-5.63a314.51 314.51 0 0 0-5-15m-52.5 11.88c2.08 0 3.12 1.25 3.13 3.75l1.25 1.88c.83 1.25 1.25 2.29 1.25 3.12l-4.38.63-1.25-9.38m-370 .63.63 1.25-4.38 1.87c.42-2.92.83-4.58 1.25-5l1.25 1.88h1.25m231.25 19.37-3.13.63 3.13-8.75v-6.88l1.88.63v-.63l.62 8.75-2.5 6.25m-225.62-13.13-8.13 1.88c.42-2.5 1.46-3.75 3.13-3.75l5 1.88m1.25 3.75 1.25 1.87h-6.25l-3.75 6.25-1.25-5a9.83 9.83 0 0 1 1.88-2.5 18.53 18.53 0 0 0 2.5-1.88l2.5.63c2.08 0 3.12.2 3.12.63m430.62 2.5-.63 2.5 1.25 1.87h-3.12l2.5-4.38m-427.5 6.25-1.87-.62-6.88 2.5 5-5h1.88c.41.42 1.04 1.46 1.87 3.13m430 2.5h1.88v2.5h-2.5 1.25l-1.25-1.25.62-1.25m-20.63 8.75 1.88.62-3.75 8.13c-1.25 2.5-2.92 3.75-5 3.75h-1.25l8.13-12.5m-175 25.62 1.87-.63h-1.88l-.62-1.87c.83-.83 1.67-1.88 2.5-3.13a32.87 32.87 0 0 0 3.13-5c1.66-8.75 3.54-13.12 5.62-13.12.42 0 .63.63.63 1.88 0 2.08-1.25 6.45-3.75 13.12-2.5 6.25-4.59 9.17-6.25 8.75h-1.25m-40.63-23.13 1.88.63 1.25 3.13c-5.42 5.41-8.13 12.08-8.13 20-2.5-.42-3.75-1.46-3.75-3.13 0-4.17 2.92-11.04 8.75-20.63m5 5.63 1.25 3.75c-2.92 2.92-4.58 7.08-5 12.5h-3.13c0-4.17 1.25-7.92 3.75-11.25v-3.75l3.13-1.25m-169.38 13.75 14.38 2.5 5-3.13h-7.5l-11.88.63m179.38-1.88.63 1.88 1.25 1.88c1.66 1.25 3.12 1.87 4.37 1.87-1.25 0 .2-.42 4.38-1.25-.84 2.5-1.67 3.75-2.5 3.75-2.5 0-5.21-.63-8.13-1.88l-1.25-2.5c-.42-.41-.63-1.25-.63-2.5a7.29 7.29 0 0 1 1.88-1.25m-183.75 4.38a40 40 0 0 0 13.75 2.5h.63c.83 0 1.45.2 1.87.63 1.67.41 3.12.41 4.38 0l-.63 1.25h-6.87c-2.92 0-7.09-.63-12.5-1.88l-.63-2.5m187.5 8.13v-.63 1.88l-5 .62 2.5-.63-4.38-.62c-1.25-.42-1.87-1.25-1.87-2.5 0-.42.2-.83.63-1.25l8.12 3.13m-10 3.12 1.88 1.25 4.37 1.88-1.88.62.63-.63-2.5.63c-1.25 0-2.08-1.25-2.5-3.75" transform="translate(-146.86 -119.79)"/>
</svg>
