<svg xmlns="http://www.w3.org/2000/svg" viewBox="0 0 500 500">
    <path d="M146.86 619.79v-500h500v500h-500m7.5-7.5h485v-485h-485v485m7.5-7.5V135.41h469.38v469.38H161.86m41.25-466.25-6.88-1.25-4.37 1.25-3.13 5.62 6.88-1.25 3.75 1.88c.42 1.67.63 2.92.63 3.75l.62 1.25c0 2.08-1.25 5.2-3.75 9.37 5.83-3.33 8.75-7.5 8.75-12.5 0-2.5-.83-5.2-2.5-8.12m113.75 25 7.5 10c2.5 8.75 3.75 15.42 3.75 20 0 5.42-1.46 10.83-4.38 16.25l-1.87 1.25c-2.08 2.5-7.5 6.46-16.25 11.87l-3.75.63v-.63c-.42-2.5-1.46-5-3.13-7.5h-.62l-2.5.63-5 1.87c-.42.42-1.25.63-2.5.63-5 0-8.75-2.92-11.25-8.75-1.67 1.67-2.5 3.33-2.5 5 0 2.5.2 4.38.63 5.62 3.74 6.26 10.41 9.38 20 9.38h4.37l-2.5 10c2.5 8.75 7.08 13.75 13.75 15-2.5-3.75-3.75-6.87-3.75-9.38 0-2.5.63-4.37 1.88-5.62l4.37-3.75.63-1.25c.41-.42.62-.83.62-1.25 0-1.67-2.08-2.7-6.25-3.13l-1.25-1.25c17.92-9.16 26.88-21.87 26.88-38.12 0-14.58-7.09-27.5-21.25-38.75-13.75-11.25-29.17-16.25-46.25-15l-6.88.62c-13.75.84-24.17 3.55-31.25 8.13l-21.25 11.87c-4.58 3.34-6.88 5.84-6.88 7.5 0 .84.84 1.25 2.5 1.25a18.9 18.9 0 0 1 3.13-.62l1.25-.63 12.5-9.37 8.13-3.75 9.37-5c7.08-2.08 17.5-3.12 31.25-3.13 19.58 0 35.83 6.46 48.75 19.38m161.88-19.38-10.63 1.25-15.62 10c-1.67 1.67-7.3 3.13-16.88 4.38-2.08.42-3.95.83-5.62 1.25h-3.13c-8.75 0-13.12-3.12-13.12-9.38 0-6.66 3.75-10 11.25-10 1.25 0 3.54 1.05 6.88 3.13l8.12 5 1.88.62c.41.42 1.04.63 1.87.63 4.58 0 7.3-1.25 8.13-3.75-.42-.42-.63-.83-.63-1.25 0-.83-.2-1.46-.63-1.88l-10 1.88-12.5-6.25-3.75-1.25c-9.58 0-14.37 4.58-14.37 13.75s5.83 13.75 17.5 13.75c11.25 0 23.96-4.58 38.13-13.75l6.87-4.38 6.25-3.75m-40.63 40L435 189.8l-5.63 13.12-1.25 5.63-2.5 23.12h-2.5c-2.08-1.25-3.54-1.87-4.37-1.87-3.33 0-4.8 3.33-4.38 10v3.75l.63 13.75c0 3.33-.2 5.63-.63 6.87l-5.62 22.5h-1.88c-2.08 5.42-5 9.17-8.75 11.25 1.25.42 3.55.63 6.88.63 10.83 0 17.5-4.8 20-14.38.42-2.91 1.25-4.37 2.5-4.37h1.88c.41 4.17 1.45 6.25 3.12 6.25 2.92 0 4.37-3.96 4.38-11.88 0-8.74-.84-13.95-2.5-15.62l-7.5-9.38c-.42-.41-.63-1.25-.63-2.5 0-3.33 1.46-5 4.38-5 1.66 0 3.54.63 5.62 1.88l2.5 6.25 1.25 5.62c.42 5.42 4.37 8.13 11.88 8.13 1.25 0 1.87-.42 1.87-1.25 0-1.25-.63-2.92-1.88-5 9.17-.42 15-3.54 17.5-9.38-4.58 1.67-8.12 2.5-10.62 2.5-6.25 0-10-3.74-11.25-11.25l-2.5-18.75c-.42-1.66-1.46-2.5-3.13-2.5-.83 0-2.91 1.05-6.25 3.13 0 2.5-.41 3.75-1.25 3.75-1.25 0-1.87-.63-1.87-1.88v-3.12c.42-1.25.83-2.92 1.25-5l1.88-8.13 3.12-8.12 1.25-5c.83-3.33 4.17-8.33 10-15 20-21.25 42.92-31.88 68.75-31.88 20.83 0 35.83 2.71 45 8.13l21.88 13.75 10 1.25v-1.88l-4.38-2.5-13.13-9.37c-2.08-1.67-3.75-2.7-5-3.13a18.5 18.5 0 0 1-2.5-1.87c-9.16-4.58-20.83-8.12-35-10.63a31.88 31.88 0 0 0-6.25-.62 20.6 20.6 0 0 0-5-.63c-36.25 0-65 15-86.25 45m-93.75-15c.42-1.25.63-2.08.63-2.5l.63-1.25c0 .42-.42-.62-1.25-3.12l-3.13-4.38v-1.87c0-7.5 5.2-11.25 15.63-11.25 2.08 0 4.16.62 6.25 1.87 2.5.84 3.95 1.25 4.37 1.25l9.38 8.13h1.87c1.67 0 2.5-.63 2.5-1.88s-1.04-2.5-3.13-3.75a41.06 41.06 0 0 0-6.25-5 28.87 28.87 0 0 0-8.12-3.75c-2.92-1.25-5.42-1.87-7.5-1.87-13.33 0-20 5.42-20 16.25 0 4.58 2.7 8.96 8.13 13.12m31.87-25c15.83 3.34 23.75 8.34 23.75 15v11.88l2.5 4.37c2.08-7.08 3.12-11.04 3.13-11.87 0-6.25-2.5-11.67-7.5-16.25-5-5-10.63-7.5-16.88-7.5-4.58 0-6.88.62-6.88 1.87.42.42.63.84.63 1.25l1.25 1.25m-208.12-4.37.63 3.75 3.12 5.62 1.88 6.88.62 11.25-1.25 6.87v3.13l-1.88 10-1.25 3.75.63 1.87-1.25 7.5-.63 6.25c-.41 3.34-.83 6.05-1.25 8.13v18.75l.63 10 1.25 3.75.63 5.62.62 3.75.63 3.13 2.5 7.5 3.12 10 1.25 1.87-.63 2.5 3.75 6.25 2.5 3.13 3.75 5 8.13 4.37-2.5-6.87-9.38-24.38c-3.75-9.16-5.62-19.37-5.62-30.62 0-8.33 1.67-15.42 5-21.25 3.75-5.83 8.12-8.75 13.13-8.75 4.58 0 8.33 2.08 11.25 6.25.41-2.08.62-3.75.62-5 .42-1.67.63-3.12.63-4.38 0-1.66-1.67-4.79-5-9.37-3.34-2.08-5.84-3.12-7.5-3.13-5 0-10 2.71-15 8.13l-.63 1.87-1.88 3.13-.62 3.12-2.5 1.88c-1.25-1.25-1.88-2.3-1.88-3.13l1.25-5 2.5-5.62 5-9.38-1.25-5c-3.33-4.58-5-7.7-5-9.37 0-5 4.8-7.92 14.38-8.75l-.63-3.75-1.25-1.25-3.12 1.25h1.88-2.5l-.63-1.25c0-.83-.2-2.3-.63-4.38 0-5-2.7-8.95-8.12-11.87l-1.88-1.88-5.62-1.87m428.12 23.75-1.88-5.63-2.5-4.37c-.41-.42-.62-1.67-.62-3.75 0-2.92 1.67-5 5-6.25v-1.25c-2.5-.83-3.54-1.25-3.13-1.25-4.58 0-6.87 2.7-6.87 8.12 0 5.42 3.33 10.21 10 14.38m15-20.63c-6.25 3.34-9.38 8.96-9.38 16.88 0 4.58.84 8.33 2.5 11.25l5 6.25-.62 6.87-1.88 3.13 1.88 12.5-10-3.13a33 33 0 0 0 1.88 6.88l2.5 6.25.62 1.25 2.5 3.75 8.75 11.87a68.2 68.2 0 0 1 2.5 17.5c0 5.42-.83 8.13-2.5 8.13h-.63a7.33 7.33 0 0 0-1.87-1.25l-.63-9.38.63-6.87c.42-4.17-1.67-7.92-6.25-11.25-4.17-3.33-8.96-5-14.38-5h-2.5l1.25 5.62 2.5 3.13 2.5 5-5-.63c-1.66 0-4.79 1.67-9.37 5a43.53 43.53 0 0 1-1.25 5v1.88c0 6.67.83 10 2.5 10l3.13 3.12 5.62-8.12c.42-.42 1.25-.63 2.5-.63 5 0 8.75 3.55 11.25 10.63v.62c.42 2.09.63 3.96.63 5.63.41 1.67.62 3.33.62 5 0 8.75-3.13 19.37-9.38 31.87l-14.37 21.88-4.38 3.12-3.75 4.38-1.87 1.25-.63 2.5v8.75c13.34-7.5 25.21-20.83 35.63-40 11.25-19.17 16.88-37.08 16.88-53.75l1.25-30.63-.63-8.75-3.75-14.37c-.83-4.58-1.67-7.92-2.5-10l-.63-3.13-6.25-15a22.05 22.05 0 0 1-1.87-8.75c0-7.5 2.3-10.83 6.88-10 2.08 0 4.16 1.67 6.25 5v-5c.41-5.41-1.67-8.12-6.25-8.12h-1.25l-4.38 1.87m-345.62 4.38c10.42 2.92 15.63 5.63 15.63 8.12 0 2.5-.84 4.59-2.5 6.25 5-.41 7.5-2.29 7.5-5.62 0-7.08-5.84-10.63-17.5-10.63-.84 0-1.67.42-2.5 1.25l-.63.63m86.88 38.12v-4.37c0-10.42 2.29-17.92 6.87-22.5a59.04 59.04 0 0 1 3.75-4.38l1.25-1.87c0-2.08-1.25-3.12-3.75-3.13-4.17 0-7.5 5-10 15-2.08 9.17-3.13 15.84-3.13 20 0 2.09.42 4.8 1.25 8.13l3.13 8.12c1.25 2.5 2.3 3.76 3.13 3.75 1.66 0 2.5-1.04 2.5-3.12 0 .83-1.67-4.37-5-15.63m-36.25-35.62 16.25 18.75 1.87 3.75c2.5 6.25 3.75 12.08 3.75 17.5 0 9.17-2.5 17.7-7.5 25.62-2.5 7.5-3.75 12.09-3.75 13.75 0 3.34.63 5.21 1.88 5.63l1.87 1.25 1.88-3.13c.41-.41.83-.62 1.25-.62 1.25 0 2.29 1.88 3.12 5.62 1.25 3.34 3.75 5 7.5 5 2.5 0 3.75-.62 3.75-1.87v-1.88c-6.25-6.24-9.38-11.04-9.38-14.37v-1.25l2.5-20.63v-5c.84-11.25-1.25-21.45-6.25-30.62-5-9.58-11.25-15.42-18.75-17.5m-66.87 15.62c3.33-1.25 5-2.91 5-5 0-7.08-3.96-10.62-11.88-10.62-1.25 0-3.12.42-5.62 1.25l-6.25 2.5-1.88.62 1.25 1.88 7.5-2.5h1.88c7.08 0 10.63 3.13 10.63 9.37l-.63 2.5m267.5-1.87c3.33 4.58 6.87 6.67 10.63 6.25h3.75l20.62-3.75 9.38 1.87c-1.25-3.33-3.96-5-8.13-5l-18.75 3.75c-4.58 0-6.88-2.08-6.88-6.25 0-4.58 3.55-6.87 10.63-6.87 6.67 0 18.54 4.38 35.63 13.12a7.2 7.2 0 0 0 1.87 1.25c.83.42 1.87 1.05 3.13 1.88l.62-1.88c-21.25-11.25-37.08-16.87-47.5-16.87-10.83 0-15.83 3.54-15 10.62v1.88m-132.5-13.13c-1.67 12.92-7.3 19.38-16.88 19.38-7.08 0-10.62.83-10.62 2.5s1.87 2.5 5.63 2.5c6.66 0 12.5-1.67 17.5-5s7.5-7.3 7.5-11.88c0-1.66-1.05-4.16-3.13-7.5m116.88 6.25-.63-1.25.63 1.25c-4.58 2.09-6.88 4.59-6.88 7.5v1.25c5-.41 9.8-3.33 14.38-8.75 1.67-.41 2.5-1.04 2.5-1.87 0-.83-.2-1.46-.63-1.88l-9.37 3.75M300 156.04c11.67 10.42 17.5 21.04 17.5 31.87 0 9.59-3.54 14.38-10.63 14.38-7.5 0-11.25-3.33-11.25-10 0-1.67.21-2.92.63-3.75-5 2.5-7.5 5.63-7.5 9.37 0 9.17 5.2 13.75 15.63 13.75 12.91 0 19.37-7.91 19.37-23.75 0-12.91-7.92-23.54-23.75-31.87m153.12 25-.63 1.25c-2.08 2.08-4.16 5-6.25 8.75-.83 3.33-1.25 5.83-1.25 7.5l.63 3.12c1.67 7.5 6.25 11.25 13.75 11.25 3.75 0 6.46-.83 8.13-2.5 1.25-.41 1.87-1.04 1.87-1.87v-8.13l-5.63 3.13c-.41.42-1.45.62-3.12.62-5.42 0-8.13-3.12-8.13-9.37 0-7.5 3.55-14.17 10.63-20 2.08-2.08 4.37-4.17 6.88-6.25a79.53 79.53 0 0 1 8.75-6.25c3.33-.83 5-1.67 5-2.5v-1.25l-5 1.87A28.2 28.2 0 0 0 465 169.8l-7.5 7.5-4.38 3.75m-240-16.25c3.33 0 5-.83 5-2.5l-1.25-1.25c-.42 0-.63.2-.63.62l-3.12 3.13M390 163.54c-1.67 1.67-2.5 3.13-2.5 4.37.42 1.67 1.87 3.96 4.38 6.88a15.7 15.7 0 0 1 3.75 6.25l8.12 22.5c2.5-1.67 3.75-3.54 3.75-5.63 0-.41-1.04-3.74-3.13-10l-4.37-9.37a9.84 9.84 0 0 0-1.88-2.5 16.28 16.28 0 0 0-2.5-4.38l-5.62-8.12m90 5.62a17.2 17.2 0 0 0-8.13 6.25c-1.66 2.92-2.29 5-1.87 6.25v3.75l.63 3.75c3.33 6.26 8.74 10.42 16.25 12.5l.62 1.25-3.13 1.88-6.25 1.25-2.5 2.5c-2.91 4.17-4.37 8.33-4.37 12.5 0-.83.2.42.63 3.75.41 2.92 1.04 7.92 1.87 15 1.67 6.25 2.5 10.62 2.5 13.12v.63a39.61 39.61 0 0 1-3.75 8.75c-2.92 1.67-4.38 3.75-4.38 6.25 0 1.67 2.92 2.5 8.75 2.5 12.92 0 21.05-6.04 24.38-18.13l3.13-13.12c.41-1.67 2.5-3.54 6.25-5.63l.62 1.88v-1.88l.63 1.88c-3.34 5.83-5 9.38-5 10.62 0 2.5.62 5.21 1.87 8.13 3.75 5.42 7.5 8.13 11.25 8.12 8.33 0 14.17-3.12 17.5-9.37l-7.5-2.5c-4.17-4.17-6.25-7.92-6.25-11.25 0-5.83 3.33-9.37 10-10.63 2.5-.41 3.75-2.08 3.75-5l-.63-1.25h-6.25v-1.87l6.25-2.5-.62-1.88-6.25 1.25c-1.67 0-3.54.21-5.63.63.42-.83.84-1.46 1.25-1.88l1.25-1.25h2.5a6.97 6.97 0 0 1 3.13-.62 15.7 15.7 0 0 0 3.75-1.88c-1.25-2.08-2.5-3.12-3.75-3.12-2.08 0-3.96.62-5.63 1.87l-10 3.75-5 3.75-1.87 2.5c-1.25-1.25-1.88-2.29-1.88-3.12 1.67-1.67 2.92-2.7 3.75-3.13l5.63-3.75c3.33-2.08 6.25-3.12 8.75-3.12 5.42 0 8.12-.83 8.13-2.5 0-.83-.42-1.25-1.25-1.25h-.63c-.83 0-2.3.2-4.38.62-1.66.42-2.91.63-3.75.63-1.25 0-2.08-.2-2.5-.63l7.5-3.75c-1.25-1.66-2.29-2.5-3.12-2.5-.42 0-1.25.21-2.5.63-1.25.42-2.7.83-4.38 1.25-4.58 2.5-6.45 3.75-5.62 3.75-1.25 0-1.88-.63-1.88-1.88 0-.83 1.05-1.66 3.13-2.5 2.5-1.25 4.17-2.5 5-3.75l-16.88-3.12-5-2.5-4.37-1.25-6.88-4.38-6.87-16.25m-231.88 3.13-60-2.5c-4.17 0-6.25 1.25-6.25 3.75s3.75 4.38 11.25 5.62c11.25 2.5 19.17 6.05 23.75 10.63 4.58 4.58 7.5 12.08 8.75 22.5l-.63 56.87v15l1.25 2.5 6.25 4.38 9.38 5.62c3.33 2.09 6.46 3.96 9.38 5.63 3.33 1.67 6.04 2.92 8.12 3.75v-98.13c0-3.33 1.04-6.66 3.13-10l7.5-8.12c2.91-3.75 5.83-5.83 8.75-6.25 2.5-.83 5.2-1.67 8.12-2.5 2.92-1.25 6.04-2.7 9.38-4.38 1.25-.41 1.87-1.66 1.87-3.75 0-2.5-1.67-3.74-5-3.75l-1.88.63h-3.75l-39.37 2.5M365 214.16c5.83 3.34 11.88 5 18.13 5 15.83 0 27.5-6.87 35-20.62s11.66-21.04 12.5-21.88c3.74-2.91 5.62-5 5.62-6.25 0-.41-.42-.62-1.25-.62-2.5 0-4.8 1.67-6.88 5l-14.37 21.87c-8.33 12.09-18.33 18.13-30 18.13-3.33 0-6.88-.63-10.63-1.88-3.75-1.66-5.83-2.5-6.25-2.5a7.91 7.91 0 0 0-1.87 3.75m-63.75-42.5c-.83 4.59-2.3 7.3-4.38 8.13l-7.5 2.5-2.5 1.25-5 .62-3.75 1.88v.62c-10.83 4.59-16.25 16.25-16.25 35v71.88a16.24 16.24 0 0 0-.62 5v2.5c0 2.92.42 4.8 1.25 5.62l4.38 1.25v-94.37c.41-12.92 5.41-21.04 15-24.38l16.25-5.62c2.91-1.25 4.37-3.33 4.37-6.25 0-.42-.42-2.3-1.25-5.63m235.62 23.13c2.92 4.17 4.37 9.38 4.38 15.62l.62 16.88-.63 65 4.38-2.5 6.25-6.25 4.38-3.75c3.33-3.33 5-7.3 5-11.88l-.63-8.12-.63-20.63v-2.5c0-2.08-.2-3.74-.62-5v-8.12c0-21.25 5.62-33.75 16.88-37.5l21.25-5.63c2.08-.83 3.12-2.29 3.12-4.37 0-1.25-1.88-2.3-5.63-3.13l-11.87-.62-8.75 1.25-49.38-.63c-7.5-1.25-12.29-1.87-14.37-1.87-9.17 0-13.75 1.88-13.75 5.62 0 1.25 1.46 2.09 4.38 2.5l19.37 5.63c3.33.83 8.75 4.17 16.25 10m66.25-19.38c-.42 4.17-2.92 6.88-7.5 8.13l-9.38 1.87a29.3 29.3 0 0 0-18.75 12.5c-2.91 4.17-4.58 9.38-5 15.63h.63l-.63 6.25v5.62l.63 11.88-.63 11.25 1.25 18.75 3.75-10v-43.13c0-12.08 4.38-19.37 13.13-21.87l19.38-5 1.87-2.5c1.67-1.67 2.5-3.33 2.5-5 0 .42-.42-1.04-1.25-4.38m-245 71.25c6.25 11.67 14.17 17.5 23.75 17.5 8.33 0 15-3.33 20-10 5.42-6.66 8.12-15.41 8.13-26.25v-7.5c0-4.16-.84-6.24-2.5-6.25-2.92 0-3.96 1.88-3.13 5.63v15l-.63 4.37c-3.33 13.34-10.41 20-21.25 20-6.25 0-11.66-3.12-16.25-9.37a38.79 38.79 0 0 1-6.87-22.5c0-9.17 2.7-17.7 8.13-25.63 5.41-7.91 11.66-12.5 18.75-13.75 4.58-.83 6.87-1.87 6.87-3.12 0-2.5-1.25-3.75-3.75-3.75-2.08 0-5.2 1.25-9.38 3.75a66.46 66.46 0 0 0-18.75 16.87c-5 6.67-7.5 15.63-7.5 26.88v.62c.42 2.09 1.05 4.8 1.88 8.13a294.6 294.6 0 0 1 2.5 9.37m-170-66.25 5.63 5.63c1.66.83 3.12 1.67 4.37 2.5 1.67.42 3.75 1.04 6.25 1.87a116 116 0 0 1 11.88 4.38l-4.38-4.38-6.25-3.12-1.88-1.25-15.62-5.63m312.5 1.25c2.92 6.26 9.8 10 20.63 11.25l5 2.5a91.9 91.9 0 0 1 10.62 5.63l-2.5-5a48.15 48.15 0 0 0-13.75-8.75l-1.25-.63-18.75-5m70 35.63c0 2.92.2 7.7.63 14.37.41 6.67.62 11.88.62 15.63 0 7.92-2.08 16.04-6.25 24.37a30.23 30.23 0 0 0-1.88 3.13 7.27 7.27 0 0 1-1.25 1.87c-6.25 9.17-13.54 16.05-21.87 20.63l-10 5c-12.08 3.33-21.04 5-26.88 5-28.75 0-49.37-13.13-61.87-39.38a43.52 43.52 0 0 1-1.25 5v2.5c0 4.59 1.46 8.34 4.38 11.25 12.91 17.92 33.12 26.88 60.62 26.88 32.5 0 55.2-14.58 68.13-43.75 3.33-7.92 5-12.92 5-15v-1.25l-2.5-11.88 2.5-11.25c0-.83-2.71-5.2-8.13-13.12m-203.75 23.12 3.75 3.13c4.17 3.75 7.92 5.63 11.25 5.62 7.08 0 10.63-4.37 10.63-13.12 0-2.08-.84-3.33-2.5-3.75-4.59 5-8.34 7.5-11.25 7.5-7.5 0-11.46-3.96-11.88-11.88 0-5.83-.63-8.74-1.88-8.75-.83.84-1.25 2.3-1.25 4.38v11.25c.42 1.67 1.46 3.54 3.13 5.62m-171.88-5.62-1.25 11.87 1.88 5 .62 3.13-2.5.62-1.88-1.87-2.5-1.88.63 13.75.63 3.13c.83 4.58 2.08 9.38 3.75 14.37 1.66 5 3.74 9.8 6.25 14.38l4.37 8.75 3.75 6.25 6.88 10 1.87 3.75c2.5 2.5 5.62 6.25 9.38 11.25l3.12 3.12 11.88 8.75v.63c-.84 1.25-2.09 1.67-3.75 1.25h-1.88l-5.63-5.63-14.37-13.12-15.63-20c-4.16-7.92-9.79-11.88-16.87-11.88-2.92 0-5 .21-6.25.63-7.08 3.33-10.83 7.7-11.25 13.12l-.63 10 .63 1.88c2.08 7.5 5.62 11.46 10.63 11.87l13.12 1.88 6.88 2.5 1.87-1.88-3.13-3.12a11.16 11.16 0 0 0-3.12-3.13l-12.5-1.25c-4.58-.83-6.88-3.33-6.88-7.5 0-5.83 2.71-8.74 8.13-8.75 5 0 10.63 4.38 16.88 13.13l13.12 16.87c4.17 5 12.92 13.75 26.25 26.25l4.38 1.88-4.38-5-5-4.38-3.13-3.12c-1.66-2.08-3.95-4.8-6.87-8.13l-3.13-3.12c4.59.83 8.96 4.38 13.13 10.62 1.25 1.67 3.54 3.76 6.88 6.25l11.87 8.75 4.38 4.38 6.87 4.37.63.63 5 3.12-6.25-.62c3.74 4.58 7.08 6.88 10 6.87 2.5 0 3.74-.83 3.75-2.5 0-1.25-.84-2.7-2.5-4.37l5-2.5a32.86 32.86 0 0 1 7.5-1.88 40.88 40.88 0 0 0-3.75-4.37c-1.25-1.67-2.71-3.54-4.38-5.63l-.63-2.5 7.5-3.12a16.18 16.18 0 0 1-6.87-8.13c-1.25-3.74-5-9.58-11.25-17.5-.42-.41-.63-1.25-.63-2.5 0-2.5 3.96-3.74 11.88-3.75 2.08 0 5.83 1.05 11.25 3.13l-.63-7.5c3.75-.83 5.84-1.46 6.25-1.88 0-.83-1.66-2.5-5-5-3.33-2.5-9.58-5.83-18.75-10l-3.75-1.25-5.62-1.87-23.75-11.88-11.25-7.5-7.5-8.12c-11.25-11.25-16.88-22.7-16.88-34.38 0-11.25 3.55-16.87 10.63-16.87l5 1.25v2.5l-2.5 4.37-5 3.13c-1.25.42-2.08 2.5-2.5 6.25v4.37l1.25 5.63c1.67 2.5 3.33 3.75 5 3.75-.42 0 1.46-.42 5.63-1.25-5.42-1.25-8.13-4.17-8.13-8.75 0-1.25.42-2.3 1.25-3.13l6.25-7.5c1.25-1.25 1.87-3.54 1.88-6.87 0-10-4.17-15-12.5-15-5.42 0-9.8 4.17-13.13 12.5m80 26.87v6.88c4.17 17.5 13.96 26.25 29.38 26.25 5.83 0 11.04-1.46 15.62-4.38 4.58-3.33 6.87-6.87 6.88-10.62 0-2.92-1.25-4.17-3.75-3.75h-1.25c-2.5 10-8.55 15-18.13 15-6.67 0-12.5-2.5-17.5-7.5s-7.5-10.83-7.5-17.5v-11.25c0-7.5 3.33-12.7 10-15.63 2.5-1.66 3.96-3.33 4.38-5-.42-.41-1.25-.62-2.5-.62-4.17 0-8.13 3.33-11.88 10-2.92 4.17-4.38 8.54-4.38 13.12l.63 5m49.38-20.62c-1.25 0-2.09.83-2.5 2.5v1.87c0 3.34 1.66 5 5 5 3.33 0 5-1.87 5-5.62 0-2.5-2.5-3.75-7.5-3.75m-33.75 2.5c-3.76 4.58-5.63 9.17-5.63 13.75 0 10 4.8 15 14.38 15 4.58 0 7.5-2.08 8.75-6.25l-3.75.62c-10 .84-15-3.33-15-12.5 0-2.5.83-5.41 2.5-8.75l-1.25-1.87m58.12 3.12c-2.92 0-4.38 1.25-4.38 3.75 0 3.34 1.46 5 4.38 5 3.33 0 5-1.66 5-5 0-2.91-1.46-4.16-4.38-3.75h-.62m-12.5 6.25c-2.08 0-3.13 1.05-3.13 3.13 0 4.58 1.46 6.88 4.38 6.87 2.5 0 3.75-2.08 3.75-6.25 0-2.5-1.67-3.74-5-3.75m-12.5 1.25c-2.5 0-3.75.84-3.75 2.5 0 4.59 2.08 6.88 6.25 6.88 2.08 0 3.12-1.25 3.13-3.75 0-3.75-1.88-5.62-5.63-5.63m40 10.63a47.05 47.05 0 0 1 5 4.37c1.67 1.25 3.54 2.71 5.63 4.38l5 2.5 5 4.37c1.25 2.09 1.87 3.76 1.87 5 0 1.67-.63 3.96-1.88 6.88-3.33 2.08-5.62 3.13-6.87 3.12-7.92 0-11.67-3.33-11.25-10l.63-5c-3.34.84-5 3.76-5 8.75 0 9.17 5.41 13.75 16.25 13.75 10.83 0 16.25-5.41 16.25-16.25 0-7.08-2.92-11.87-8.75-14.37l-6.25-2.5-15-6.25-.63 1.25m-20.63 3.75-.62 2.5c0 1.25 1.46 1.88 4.38 1.87 3.33.84 5-.62 5-4.37 0-2.92-1.67-4.37-5-4.38-2.92 0-4.38.84-4.38 2.5l.63 1.88m-28.13-4.38c-1.67.42-2.5 2.09-2.5 5 0 2.92 1.46 4.38 4.38 4.38 3.74 0 5.62-1.87 5.62-5.63 0-2.5-2.08-3.74-6.25-3.75h-1.25m14.38 10c.83 3.34 2.29 5 4.37 5 1.25 0 2.3-.62 3.13-1.87a10.08 10.08 0 0 0 1.25-4.38c0-3.74-1.88-5.62-5.63-5.62-2.5 0-3.75 1.25-3.75 3.75l.63 3.12m262.5-5-1.25 2.5a24.1 24.1 0 0 0-1.25 3.13v1.87c-2.09 0-3.55-.2-4.38-.62l-3.13.62c-5.41.42-8.12 4.8-8.12 13.13 0 2.5 1.87 5.83 5.63 10 .83-8.33 2.91-12.5 6.25-12.5h2.5c2.08 3.33 3.12 5.2 3.12 5.62 0 3.34-.83 5.84-2.5 7.5l-5.63 10-5.62 8.13-5.63 6.25-.62 2.5c3.75-2.5 8.33-6.87 13.75-13.13l5-6.87c5.42-6.67 8.12-15.2 8.13-25.63 0-4.16-2.09-8.33-6.25-12.5m-76.88 31.25c6.25-.41 11.46-2.29 15.63-5.62 4.58-3.33 6.87-7.3 6.87-11.88 0-8.33-3.33-12.5-10-12.5-3.33 0-5 .63-5 1.88l.63.62 6.25 6.88a4.2 4.2 0 0 1 1.87 3.75c0 3.33-1.67 6.25-5 8.75l-6.25 4.37-5 3.75m-44.38-20c2.09 5.84 5.21 8.76 9.38 8.75 1.25 0 3.12-.41 5.63-1.25l15-9.37 3.75 1.25c3.74 2.08 5.62 3.96 5.62 5.62 0 8.34-6.25 12.5-18.75 12.5a45.4 45.4 0 0 1-14.38-2.5c-.41-.41-1.45-.62-3.12-.62-1.25 0-2.5-.2-3.75-.63 7.92 5 15.83 7.5 23.75 7.5 16.25 0 24.38-6.04 24.38-18.12 0-8.33-4.59-12.5-13.75-12.5-2.09 0-4.8.42-8.13 1.25l-9.38 8.75c-1.66 1.67-4.16 2.5-7.5 2.5-.83 0-3.75-1.04-8.75-3.13m-141.88 35.63v14.37c0 5 1.25 8.34 3.75 10 0-3.74.63-5.62 1.88-5.62s2.08.2 2.5.62c-1.25 3.34-1.88 5.63-1.88 6.88 0 2.08.21 3.54.63 4.37l1.88 1.88c1.66-12.92 4.37-19.38 8.12-19.38l-5.63 26.25h1.25c.84-3.33 1.88-5 3.13-5-.42 0 .63.42 3.13 1.25l-5.63 6.25-1.88 5.63 10-10-1.87 6.25c2.92-1.25 5.2-1.87 6.88-1.88 7.91-1.66 13.33-3.74 16.25-6.25 2.91-2.5 4.37-7.5 4.37-15 0-6.66-3.75-14.79-11.25-24.37l-6.25-10.63-1.25 1.88c-1.25 3.33-2.7 5-4.38 5h-1.25l-1.25-4.38-1.87-9.37 1.88-7.5c0-2.08-.63-3.12-1.88-3.13-7.5 0-13.96 10.63-19.38 31.88m-50-30c4.17 7.92 6.25 13.33 6.25 16.25 0 2.5-1.66 3.75-5 3.75-2.91 0-4.79-.2-5.62-.63 1.25 5 3.54 7.5 6.88 7.5 6.66 0 10-3.95 10-11.87 0-2.5-2.3-5.62-6.88-9.38-1.25-.41-3.13-2.29-5.63-5.62m288.75 1.87-3.12 3.13c-1.25 2.5-1.88 4.58-1.88 6.25v1.25l.63 10v14.37l.63 103.12c-.42 12.5-2.5 25.21-6.25 38.13-3.34 12.5-8.34 25.2-15 38.12-7.09 13.34-16.05 23.34-26.88 30l-3.13 1.88-16.25 10.63-4.37 2.5c-2.08.83-4.8 2.08-8.13 3.75a587.76 587.76 0 0 0-11.25 5l-21.87 6.87a106.81 106.81 0 0 1-18.13 3.75c-6.66.42-13.95.83-21.87 1.25l-7.5.63c.83 3.33 2.5 5 5 5h1.88l10.62-1.25c38.33-3.34 68.13-13.34 89.38-30l7.5-6.25 7.5-5 9.37-9.38 4.38-6.25 4.37-5 3.75-8.13 5.63-10.62 1.87-6.25 4.38-9.38 1.25-3.75 3.75-13.75 1.87-9.37 2.5-15.63-.63-1.25 1.25-6.87V289.16l-1.25-1.25m-6.87 8.75-8.75 5.62-3.13 1.88-7.5 4.37 1.25 57.5-.62 57.5c-.83 80.42-49.17 121.46-145 123.13l1.88 15.62c1.25 2.92 3.12 4.38 5.62 4.38-1.67 0 4.8-.63 19.38-1.88 92.5-9.17 138.33-61.67 137.5-157.5l-.63-110.62m-130.62 0 .63 3.75c0 .83-.42 1.25-1.25 1.25h-3.75a43.26 43.26 0 0 0-5-1.25l-3.75-.63c-21.67 0-32.09 10-31.25 30v2.5c3.33 9.59 10 14.38 20 14.38 2.91 0 4.58-.2 5-.63l13.75-4.37h1.87c3.33 0 6.46 1.46 9.38 4.37l2.5 1.88.62 2.5c.42.83.63 2.08.63 3.75 0-.42-.42 1.04-1.25 4.37-3.76 3.76-7.5 5.63-11.25 5.63-1.25 0-2.09-.2-2.5-.63l-16.25-5.62h-3.75c-7.92 0-11.88 3.13-11.88 9.37 0 3.76 1.25 5.63 3.75 5.63h.63l3.75-7.5c1.25-1.67 3.74-2.5 7.5-2.5h1.25l1.87.62 15.63 5.63c.41.42 1.25.62 2.5.62 2.08 0 4.16-.62 6.25-1.87 6.66-4.17 10-10 10-17.5s-4.8-13.13-14.38-16.88l-8.75-.62-11.88 4.37h-1.87c-2.92 0-5.63-1.25-8.13-3.75-2.5-2.5-3.75-4.79-3.75-6.87 0-11.67 7.5-17.5 22.5-17.5 10 0 18.34 3.33 25 10l1.88 1.87 2.5 3.13 3.75 8.12c1.67 4.59 2.5 8.55 2.5 11.88 0 11.67-6.04 21.87-18.13 30.62l-8.12 8.75c-1.25.84-5.2 5.63-11.88 14.38l-.62 1.87-11.25 15-7.5 12.5-2.5 5-3.75 11.88-5 11.25c-.42 1.67-.83 3.54-1.25 5.62V470.41l2.5 5.62 9.38-11.87 1.87-6.25 3.13-9.38a26.42 26.42 0 0 1 6.25-9.37c8.33-14.17 17.29-23.96 26.87-29.38 11.67-7.5 22.7-11.25 33.13-11.25 4.16 0 11.25 1.67 21.25 5l6.25 3.75 5.62 5 1.88 11.25.62 3.13c0 6.25-3.13 9.38-9.38 9.37-6.25 0-11.25-4.79-15-14.37-5.41-9.17-12.5-13.75-21.25-13.75-11.25 0-16.87 4.8-16.87 14.37 0 2.09 2.3 4.17 6.88 6.25l-.63-3.75c-.83-5 1.67-7.5 7.5-7.5l6.25 1.25 4.38 2.5 6.25 5.63 2.5 5c1.25 1.25 2.5 2.7 3.75 4.37l3.75 1.88 6.87 3.75 5 1.25c6.67 0 12.3-2.3 16.88-6.88 5-5 7.5-10.83 7.5-17.5 0-6.24-2.92-11.66-8.75-16.25l-1.25-1.87.62-2.5 4.38-3.13-5.63-6.25-6.25-3.75c-4.58-2.91-11.46-5-20.63-6.25L470 379.78l-5.63 2.5-3.75 1.88-13.12 10.62c-2.08 2.09-3.75 3.13-5 3.13a8.7 8.7 0 0 1-3.75-.63v-3.12c0-2.5 2.5-5 7.5-7.5l10.63-5a84.78 84.78 0 0 0 5.62-3.13 308 308 0 0 0 8.13-5.62l-.63-1.88-5.63 3.75-1.87-.62 4.38-4.38c1.25-1.66 2.7-3.54 4.37-5.62l2.5-8.75h3.13v1.87l.62.63c0 1.67-1.46 4.58-4.38 8.75l-1.25 3.12 3.75-3.12 3.13-5.63 1.88-3.12.62-13.75h-4.38c-1.66.42-3.12 1.67-4.37 3.75l-2.5-.63-.63-2.5 1.25-15c0-3.33-1.66-7.91-5-13.75l-6.25-7.5v1.25l-1.87.63-1.88 3.75h-1.25a19.63 19.63 0 0 0-3.75-5c-1.25-1.67-2.7-3.54-4.37-5.63-.42-.41-3.75-1.87-10-4.37a5.57 5.57 0 0 0-2.5-.63l-3.75-1.87m191.25 3.75-1.88-.63h-5c-2.08 2.5-3.33 4.38-3.75 5.63l-3.75 5.62v.63l-.62.62-5 8.13-4.38 5.62H595l-14.38 15.63c-5.83 3.75-8.75 6.25-8.75 7.5.84.83 1.46 1.25 1.88 1.25l1.88-.63 3.12-2.5 6.25-5 1.25-2.5 6.25-4.37 3.75-5 6.88-7.5 5.62-8.75c2.5-4.17 5.83-6.25 10-6.25.83 0 2.3.62 4.38 1.87a8.31 8.31 0 0 0 1.87-5c0-.83-1.25-2.29-3.75-4.37m-325.62 15.62.63 6.25 1.25 5 4.37 6.88c0 1.25.83 2.5 2.5 3.75l6.25 3.75c2.5.83 4.8 2.08 6.88 3.75a10.16 10.16 0 0 1 4.37 5c0 3.75-.63 5.63-1.88 5.62-2.5 0-4.16-.2-5-.62l-1.87-1.25-10-13.75c-3.75-3.75-7.3-5.62-10.63-5.63-.83 0-1.25.21-1.25.63 0 1.25.63 3.33 1.88 6.25v3.75c-3.33-2.08-8.54-3.75-15.63-5l-1.87-.63-2.5.63-1.25 2.5 7.5 15 1.25 2.5 5.63 6.25 4.37 3.75-8.75 2.5h1.25l-1.88 1.87 1.25 1.25 4.38 5.63 15.63 2.5c5.41 1.25 8.12 3.75 8.12 7.5 0 2.92-1.67 4.38-5 4.37-1.67 0-3.96-.83-6.88-2.5l-6.25-4.37a15.37 15.37 0 0 0-5.62-1.25c-1.25-.42-2.7-.83-4.38-1.25l-2.5.62-1.25 1.25c-.41 0-.83.21-1.25.63l.63 1.87 5 3.75-6.88 1.25h3.13l-3.75 1.25c-5 .84-7.92 3.76-8.75 8.75l.63 5.63h1.25c3.33-4.58 7.08-6.87 11.25-6.88 1.66 0 2.7.21 3.12.63l15.63 5 5 .62.62 1.25.63-1.25c20.41-1.25 30.62-15.2 30.62-41.87 0-12.08-5.63-24.8-16.88-38.13-5.41-6.66-8.12-12.5-8.12-17.5 0-4.16 2.08-8.33 6.25-12.5a8.72 8.72 0 0 0-3.75-.62c-5.83 0-9.38 2.3-10.63 6.87l-.62 3.75.63 7.5h-4.38l-2.5-2.5m173.75-5.62 5.63 4.37 8.12 2.5 3.13 1.25 22.5 2.5c7.5.84 11.66 4.17 12.5 10-2.92 5.42-6.26 8.13-10 8.13-2.92 0-5.21-.83-6.88-2.5l-8.75-6.88a4.2 4.2 0 0 0-3.75-1.87c-5 0-7.5 2.5-7.5 7.5 0 2.92 1.25 4.58 3.75 5 .42-3.75 1.87-5.62 4.38-5.63 2.08 0 3.95.84 5.62 2.5 5.42 4.17 8.54 6.26 9.38 6.25l4.37.63h2.5l6.88-.63 1.87-1.87c.83-1.25 2.08-2.7 3.75-4.38l2.5-7.5 4.38 3.13h.62c1.25 0 1.87-1.25 1.88-3.75 0-1.67-1.88-4.8-5.63-9.38-4.58-2.5-8.13-3.74-10.63-3.75l-26.25-.62c-1.66 0-7.7-1.25-18.12-3.75-.42-.42-1.25-.63-2.5-.63s-2.5-.2-3.75-.62m150 8.12v.63h-1.25c-1.25 0-1.88.83-1.88 2.5 0 2.92 1.25 4.38 3.75 4.37 3.75 0 5.63-1.25 5.63-3.75v-.62l-.63-.63v-.62l-5.62-1.88m-15.63 17.5c0 2.5 2.09 3.76 6.25 3.75-.41 0 1.46-.41 5.63-1.25.42-.83.63-2.7.63-5.62 0-2.5-2.71-3.75-8.13-3.75-1.67 0-2.92.83-3.75 2.5a18.34 18.34 0 0 0-.63 4.37m18.75-6.25.63 1.88-3.75 3.75v1.25c0 1.67 1.25 2.7 3.75 3.12a7.78 7.78 0 0 0 2.5-5.62c0-.83-1.04-2.3-3.13-4.38m-6.25 12.5 1.25.63h-1.25c-2.08 0-2.91.83-2.5 2.5v4.37l-.62 5c0 2.09 1.67 3.13 5 3.13 5 0 7.5-2.7 7.5-8.13 0-4.16-3.13-6.66-9.38-7.5m-7.5 1.25-3.75-1.25c-5.83 0-8.75 2.09-8.75 6.25 0 4.59 2.3 6.88 6.88 6.88 2.5 0 3.75-1.67 3.75-5v-1.25c0-1.25.63-3.12 1.88-5.63M180 346.03c-2.09.84-3.13 1.88-3.13 3.13 0 3.33 1.67 5 5 5 2.5 0 3.75-1.25 3.75-3.75-.42-.83-.83-1.25-1.25-1.25v-.63l-4.38-2.5m343.13 1.25-6.25 3.13-6.25 1.87-8.75 3.13c-1.67.42-3.55.83-5.63 1.25-2.08 0-4.17.2-6.25.62l-4.38.63-1.25 1.87 6.88.63c8.75.42 16.67-.63 23.75-3.13 7.5-2.91 11.25-6.04 11.25-9.37 0-1.25-.42-1.87-1.25-1.88h-.63l-1.25 1.25m8.75 5.63-19.37 6.87-7.5.63-4.38 1.25h-8.12l-3.13.62c-3.33-.83-4.79-1.25-4.37-1.25-2.08 0-3.75 2.5-5 7.5h6.88c6.66-.41 14.16-1.04 22.5-1.87l10-1.88c12.91-2.5 19.37-5.62 19.37-9.37 0-2.5-.83-3.75-2.5-3.75l-4.38 1.25m-340.62 1.87c-3.75 0-5.62 1.67-5.62 5 0 2.92 1.67 4.38 5 4.38 4.17 0 6.25-1.87 6.25-5.63 0-2.5-1.88-3.74-5.63-3.75m396.88 0c-2.91 0-4.37 1.88-4.37 5.63 0 5 2.92 7.5 8.75 7.5 3.33 0 5-1.87 5-5.63 0-5.83-2.92-8.33-8.75-7.5h-.63m-410.62 1.25c-.41-.41-1.25-.62-2.5-.62-3.75 0-5.62 1.25-5.62 3.75 0 1.67 1.04 2.92 3.13 3.75.83.83 2.08 1.25 3.75 1.25 3.33 0 5-.63 5-1.88 0-1.66-1.25-3.74-3.75-6.25m430.62 1.88-.63 1.25c-3.33 4.58-5 7.92-5 10 0 2.5 2.5 3.75 7.5 3.75 3.75 0 5.62-1.87 5.63-5.63 0-5-2.5-8.12-7.5-9.37m16.25 3.12h-2.51c-2.08-.83-3.12 1.05-3.12 5.63 0 2.08 1.04 3.13 3.13 3.12 2.5 0 3.74-1.66 3.75-5l-.63-.62c0-.83-.2-1.87-.63-3.13m-276.88 3.75h-1.25c-5.83 5-8.75 12.71-8.75 23.13.42 1.25 1.67 2.3 3.75 3.12l2.5 3.13 4.38 3.12.63.63 8.75 3.75v2.5l-8.75-2.5-11.88-8.13-.63-.62-3.75 5c-1.25 2.5-2.29 4.17-3.12 5l-7.5 10c-.83 2.5-1.04 4.17-.63 5v4.37l1.25 6.88.63 1.25 3.75 3.75-2.5-8.75 3.13-.63.62 3.13c2.08 4.17 5.2 7.7 9.38 10.62l1.87 2.5c-5 0-8.54-1.66-10.63-5l-1.25-.62v2.5l3.13 3.12 2.5 3.13 1.88.62 10.62 3.75c.42.42 1.67.63 3.75.63 1.67 0 2.5-1.46 2.5-4.38 0-2.08-1.25-6.04-3.75-11.87l6.25 2.5 13.13 1.25 5.62 1.25c1.67 0 3.75-3.33 6.25-10s3.75-11.67 3.75-15v-.63c.42-9.16-1.46-13.95-5.63-14.37l-2.5-3.13h-1.25v-4.37l8.13 3.12 6.25-1.25c0-6.66-2.5-13.12-7.5-19.37-5-6.25-10.42-9.58-16.25-10l-9.38-.63h-2.5l-5 2.5m-145-1.25-3.12.63c-2.92.42-4.38 1.67-4.38 3.75 0 2.5 1.67 3.75 5 3.75 5 0 7.5-1.46 7.5-4.38 0-2.5-1.45-3.74-4.37-3.75h-.63m-19.37 3.13c-3.33 0-5 1.46-5 4.37 0 3.76 2.08 5.63 6.25 5.63 3.33 0 5-1.46 5-4.38 0-3.74-2.08-5.62-6.25-5.62m-8.75 9.37v-3.12c.42-3.75-.42-5.62-2.5-5.63-2.5 0-3.75 1.67-3.75 5 0 2.92 1.04 4.38 3.13 4.38 1.66 0 2.7-.2 3.12-.63m51.25-8.12-1.25 21.25a28.93 28.93 0 0 0-.63 5.62V404.16c0 18.75.84 31.25 2.5 37.5l2.5 15 1.25 6.87.63 1.25 1.25 7.5 4.38 12.5c6.24 21.67 21.45 40.21 45.62 55.63 23.75 15 50.42 22.92 80 23.75l8.13.63 8.75.62-2.5-6.88-3.13-11.87-7.5-1.88c-32.08-2.5-58.13-14.79-78.13-36.87-19.58-22.08-29.37-49.8-29.37-83.13 0-2.91.42-7.08 1.25-12.5.83-5.83 1.25-10.2 1.25-13.12 0-2.5-.2-4.37-.63-5.63l-3.12-1.87-1.25-.63-3.75-1.87-2.5-1.88-11.88-9.37-3.12-3.13-8.75-6.87m275 3.12h-7.5l-5.63.63.63 1.25h25l23.13 1.25c.83-.83 1.25-1.67 1.25-2.5 0-1.67-.63-2.5-1.88-2.5l-12.5.62-22.5 1.25m-88.75.63h-1.25c-3.75 0-5.63 1.25-5.63 3.75 0 4.17 2.09 6.25 6.25 6.25 4.59 0 6.88-2.08 6.88-6.25 0-2.5-2.08-3.75-6.25-3.75m71.25 0-6.88 1.25 11.25-.63-4.37-.62m89.38 1.87v5a8.7 8.7 0 0 0 3.75.63c2.5 0 4.37.2 5.62.62H585c8.33.84 12.5-1.25 12.5-6.25-.84-1.25-1.67-1.87-2.5-1.87l-1.88.62c-5.83 1.25-10 1.88-12.5 1.88l-8.13-.63m40 3.13c-.83 3.33-1.25 4.8-1.25 4.37 0 3.76 2.09 5.63 6.25 5.63 4.17 0 6.25-2.08 6.25-6.25v-1.88c0-.83-.2-1.45-.62-1.87l-4.38-3.75-1.87 2.5-4.38 1.25m-418.12 4.37h3.75c2.92-.41 6.05.63 9.38 3.13 1.67 3.75 2.3 6.25 1.88 7.5v1.25l-2.5 6.25c-.42.42-.63.83-.63 1.25l-9.38 8.12-3.12 6.25.63 1.88h.62c1.25 0 2.7-1.25 4.38-3.75 1.66-2.92 2.91-4.8 3.75-5.63l6.87-4.37c2.92-1.67 4.37-5.62 4.38-11.88 0-10.41-5.21-15.62-15.63-15.62-3.75 0-5.63.62-5.63 1.87v1.25c.42.42.84 1.25 1.25 2.5m298.75-5 15 8.13c6.67.83 16.67 2.7 30 5.62.42-.83.63-2.7.63-5.62 0-1.25-.83-2.5-2.5-3.75H535l-5.63-1.88-5.62-.62-12.5-2.5-7.5.62h-10.63m108.75 0h-.62c-2.92 0-4.38 1.88-4.38 5.63 0 4.58 1.67 6.88 5 6.87 3.75 0 5.63-2.29 5.63-6.87 0-3.75-1.88-5.62-5.63-5.63m-210 8.75c1.67 1.67 3.34 2.5 5 2.5 2.09 0 3.34-1.45 3.75-4.37l.63-2.5c0-2.5-1.46-3.75-4.38-3.75-3.75 0-5.62 1.67-5.62 5 0 1.67.2 2.7.63 3.12m-218.13.63c0 2.92 1.67 4.38 5 4.37 3.75 0 5.63-1.66 5.63-5 0-3.33-1.88-5-5.63-5-2.5 0-3.95 1.25-4.37 3.75l-.63 1.88m75.63-5.63.63 2.5 10.62 6.88-11.25-9.38m-56.25 4.38c-3.33.83-5 2.5-5 5s1.46 3.75 4.38 3.75c2.5 0 3.74-.83 3.75-2.5 0-.83-1.05-2.92-3.13-6.25m209.38 9.37-.63 3.13c0 2.92 1.05 4.38 3.13 4.37 5 0 7.5-2.08 7.5-6.25 0-3.74-1.88-5.62-5.63-5.62h-1.25l-3.12 4.37m126.88 4.38.63 2.5c1.25 2.5 1.87 4.38 1.87 5.62 0 1.25-1.67 3.13-5 5.63l.63 1.25h6.25l.62-1.88 3.13-2.5c.41-.41.62-1.45.62-3.12 0-4.17-2.3-7.7-6.88-10.63-4.16-3.33-8.33-5.2-12.5-5.62-.83 0-1.45.2-1.87.62l-.63 1.88 10 3.75 3.13 2.5m88.75-5 1.25 3.12c.42.84.63 2.3.63 4.38 0 .83-.63 1.88-1.88 3.12l-11.25 1.25-10-6.87c-2.5-.83-3.96-1.25-4.38-1.25-2.91 0-4.37.62-4.37 1.87l-.63 6.25h-1.87c-1.25 0-2.92-.83-5-2.5-1.67-2.08-4.38-4.16-8.13-6.25v9.38a7.55 7.55 0 0 0 4.38 4.37c2.08.42 3.12.84 3.13 1.25l.62 3.13-2.5.62h1.88c-2.92.42-4.38 1.46-4.38 3.13 0 2.5.2 4.17.63 5l3.75 5.62 8.12 10c.42 1.67.63 3.13.63 4.38.41.83.62 1.67.62 2.5 0 5.42-2.3 8.13-6.88 8.12-1.66 0-3.75-.62-6.25-1.87l-2.5-5c-1.25 3.33-1.87 5.63-1.87 6.87 0 5.84 3.54 8.76 10.63 8.75 8.74 0 12.91-4.58 12.5-13.75l-.63-7.5 3.75-1.87 1.25 1.87c1.67 1.67 3.33 2.5 5 2.5s2.5-1.45 2.5-4.37c0-3.75-1.67-7.92-5-12.5l-8.75-5.63c0-4.16.63-6.24 1.88-6.25 1.25 0 3.54 1.25 6.87 3.75s6.46 3.76 9.38 3.75c.83 0 2.5-.41 5-1.25l4.37-3.12-5-6.88 6.88-3.12c2.08-3.33 3.12-5.42 3.12-6.25 0-.42-1.04-3.12-3.13-8.13l-4.37-.62m-218.12 5-.63-3.13c-.83-.83-1.66-1.25-2.5-1.25-3.75 0-5.62 2.3-5.62 6.88 0 2.92 1.46 4.38 4.38 4.37 3.74 0 5.62-1.25 5.62-3.75l-1.25-3.12m-136.25 0v1.87l1.88-.62-1.88-2.5v1.25m-91.25 3.75 6.25 3.75 1.25 1.87 1.87 3.75-1.87.63-1.25 3.75-.63 3.12c0 1.67 2.5 2.71 7.5 3.13.42.42.63 1.04.63 1.87 0 .42-.42 1.05-1.25 1.88-2.92 2.92-4.38 6.04-4.38 9.37v3.13c.42 1.25.84 2.92 1.25 5 3.75 8.75 9.17 13.12 16.25 13.12l20-1.87c4.17-.42 6.25-1.04 6.25-1.88-.41-.41-.62-1.04-.62-1.87 0-.42-.2-.83-.63-1.25h-6.25l-15 2.5c-10.83 0-16.25-5-16.25-15 0-5 1.25-7.5 3.75-7.5.42.42 1.25.62 2.5.62l6.25 3.75h.63c1.25 0 2.3-.41 3.12-1.25 2.92-2.5 5-4.37 6.25-5.62a37.82 37.82 0 0 0 3.13-2.5h1.25c1.67 0 3.96.83 6.87 2.5.42-1.67.63-2.92.63-3.75.42-1.25.62-2.3.62-3.13 0-1.66-.83-3.33-2.5-5-3.33-2.08-5.62-3.12-6.87-3.12-2.5 0-4.17.2-5 .62l-3.13 2.5-2.5 5-6.87 1.88-4.38-4.38 2.5-10.62-1.25-5.63a18.6 18.6 0 0 0-9.37-2.5c-2.5 0-5.42 1.05-8.75 3.13m221.25 6.87a7.83 7.83 0 0 0-1.88 3.13v1.25c0 2.5 1.25 3.75 3.75 3.75 2.92 0 4.38-1.46 4.38-4.38 0-2.5-1.88-3.74-5.63-3.75h-.62m-130.62 3.13-1.25 22.5.63 8.12c0 4.17 1.25 12.71 3.75 25.63l2.5 6.25 1.87 5.62 3.75 7.5 3.75 6.25 1.88 2.5 1.87 1.88c-5.42-12.08-9.58-22.92-12.5-32.5-2.5-10-3.54-18.96-3.13-26.88v-11.87l-.62-11.25-2.5-3.75m49.38 2.5h-3.75l-1.25.62-3.13 3.13v-3.75l-6.88 4.37c-2.5 1.25-6.25 4.38-11.25 9.38l-8.12 11.87c-1.67 4.59-2.5 8.34-2.5 11.25v4.38l1.25 2.5 1.25 3.75 5.63-3.13 6.25-1.87 6.87-3.75v8.75l11.88-1.25c9.16-5.42 13.75-12.3 13.75-20.63 0-2.08-1.25-5.41-3.75-10l-.63 2.5-1.25 1.25-1.25-4.37.63-8.75c0 3.75-.84 6.46-2.5 8.12l-1.88-.62.63-8.75-2.5.62.62 1.88-5.63 6.87a23.09 23.09 0 0 1 7.5-14.37m218.13 6.25c-3.34 0-5 1.46-5 4.37 0 2.92 1.25 4.38 3.75 4.38 3.33 0 5-1.67 5-5 0-2.5-1.25-3.75-3.75-3.75m92.5 5-.63 3.75-4.38 2.5-8.12-3.13 1.25 3.75c.42 2.5 2.92 4.38 7.5 5.63h1.25c.83 0 1.87-.83 3.13-2.5 1.66-1.67 2.7-2.92 3.12-3.75l-1.25-3.13v-2.5l-1.88-.62m-240.62 4.37-6.25 15 5 10c3.34-4.58 5-8.54 5-11.87 0-2.92-1.25-7.3-3.75-13.13m131.88 8.13c.42 1.25 1.25 1.88 2.5 1.87 2.5 0 3.75-1.87 3.75-5.62 0-2.08-1.04-3.12-3.12-3.13-2.5 0-3.54 1.46-3.13 4.38v2.5m-69.37-4.38-4.38 1.25 1.88 2.5v8.75l-1.88.63-1.87 2.5a4.24 4.24 0 0 1-3.13 1.25c-7.91 0-11.87-2.3-11.87-6.88v-4.37c-3.75 2.08-5.63 4.38-5.63 6.87 0 7.5 6.05 11.25 18.13 11.25 3.33 0 5.2-.2 5.63-.62l8.12-3.13 6.25-1.25v1.25c-3.75 2.09-5.63 4.38-5.63 6.88l.63 3.12c.42 1.67 1.87 3.34 4.38 5 .83-2.5 1.24-3.54 1.24-3.12 0 .42-.41-.63-1.25-3.13 2.92-2.91 5.42-4.37 7.5-4.37 4.17 0 6.25 2.3 6.25 6.87 0 2.09-.2 3.34-.62 3.75l-5.63 11.25-1.87 7.5-1.88 3.75c-1.25 2.5-2.91 7.3-5 14.38-1.66 6.67-2.5 12.3-2.5 16.87v3.75c.42 1.25.84 2.92 1.25 5 .84-19.16 5-34.37 12.5-45.62l7.5-10.63c2.5-4.16 3.75-10.2 3.75-18.12 0-7.92-7.08-15.2-21.25-21.88l-.62-.62-10-.63m82.5 7.5c.42 2.09 1.25 3.55 2.5 4.38 2.92 0 4.37-1.87 4.38-5.63 0-3.33-1.25-5-3.75-5-2.92 0-3.96 1.88-3.13 5.63v.62m-360.62 1.88c-1.67 1.67-2.5 3.96-2.5 6.87l.62 4.38.63 2.5a18.06 18.06 0 0 0 5.62 5.62l1.88 3.13a38.3 38.3 0 0 1-6.88 3.75h-.62c2.92 7.5 9.37 11.25 19.37 11.25 2.5 0 4.17-.42 5-1.25l12.5-8.75c.42-.42.84-.63 1.25-.63 2.92 0 4.17 1.25 3.75 3.75 0 2.09-.83 3.96-2.5 5.63l-11.25 6.25c-2.5 3.75-4.58 8.96-6.25 15.62l.63 9.38h3.12c1.67-2.92 2.92-4.37 3.75-4.38l1.25 1.25c.42 0 1.05.42 1.88 1.25l.62 1.25a15 15 0 0 0 5 8.13c2.92 5.42 8.13 8.13 15.63 8.13 10.83 0 16.25-5.21 16.25-15.63 0-5.83-3.75-9.8-11.25-11.88 2.92 2.92 4.37 5.84 4.37 8.75 0 5.84-2.5 8.76-7.5 8.75-2.08 0-3.54-.2-4.37-.62l-2.5-1.25c-5.42-4.17-8.13-9.37-8.13-15.63 0-2.91 1.46-7.08 4.38-12.5 2.92-5.41 5.62-8.74 8.12-10 5.84-2.5 8.75-4.37 8.75-5.62l-.62-6.88v-1.25c0-2.91-1.25-4.37-3.75-4.37-1.67 0-5.2.83-10.63 2.5-5 1.67-8.95 2.5-11.87 2.5a8.7 8.7 0 0 1-3.75-.63l-15-3.75c-6.67-1.25-9.8-7.08-9.38-17.5v-3.75h-1.25c-2.5 1.67-3.95 3.55-4.37 5.63m443.12-3.75c-1.67 4.58-2.5 7.5-2.5 8.75 0 1.67.83 3.33 2.5 5 .83 2.08 1.87 4.8 3.13 8.12 1.25 2.92 2.5 6.46 3.75 10.63l2.5 13.75.62 9.37-1.25-1.25c.42 2.09.63 3.96.63 5.63v11.25c0 7.92-2.5 18.33-7.5 31.25l-3.13 3.75-.63 3.13-8.75 10-1.25 3.12-7.5 7.5-.62.63-1.25 1.25-11.25 7.5c-.83.41-1.88.83-3.13 1.25-.83.41-1.87.83-3.12 1.25l-5 2.5a86.04 86.04 0 0 1-8.13 1.87c-6.25 1.25-10.83 1.88-13.75 1.88-15 0-22.5-4.38-22.5-13.13 0-3.33 2.5-5 7.5-5 2.92 0 5 .63 6.25 1.88l8.75 7.5c1.67 1.66 5 2.5 10 2.5 3.75 0 6.88-2.3 9.38-6.88-5 1.25-8.13 1.88-9.38 1.88-5 0-9.79-2.3-14.37-6.88a54.5 54.5 0 0 0-5.63-4.38c-2.5-2.5-5.83-3.75-10-3.75h-7.5l-3.75 1.25-1.87 1.88-2.5 3.13-1.88 4.37-3.75-1.25c-.83-2.08-1.87-3.13-3.12-3.13s-1.88.84-1.88 2.5v4.38c0 2.5.21 4.8.63 6.88 4.17 6.25 8.54 9.37 13.13 9.37h1.24c2.5 0 3.75.42 3.75 1.25 0 1.67-.62 2.5-1.87 2.5-1.67 0-2.7-.2-3.13-.63a98.23 98.23 0 0 1-7.5-1.87c-2.91-.83-6.25-1.67-10-2.5l-8.75-5.63-3.75-2.5-3.75-2.5a27.5 27.5 0 0 0-11.25-2.5l-5.62.63 1.25 6.88-2.5.62-5-2.5c-2.08-1.67-5.42-2.5-10-2.5-10 0-15 3.54-15 10.63 0 6.25 3.54 9.37 10.63 9.37 1.24 0 2.29-.63 3.12-1.88-4.58-2.08-6.88-4.16-6.88-6.25 0-3.33 1.88-5 5.63-5l28.75 9.38 20 5c5.42.42 10 .83 13.75 1.25h10c31.67 0 57.92-8.13 78.75-24.38 21.25-16.66 31.88-37.5 31.88-62.5v-13.75l.62-11.25c.83-22.08-4.58-38.95-16.25-50.62m-128.75 27.5 5.63-3.13 5.62-2.5 6.25-3.75 5.63-1.25 1.87-1.25 9.38-5c3.33-2.08 5-3.95 5-5.62 0-.83-.42-1.25-1.25-1.25-2.5 0-6.46 2.5-11.88 7.5l-4.38 1.87c-2.91.84-7.29 2.3-13.12 4.38-2.92.83-5.83 4.17-8.75 10m124.38 24.37c-6.67 0-10-3.95-10-11.87 0-1.67.2-2.7.63-3.13l4.37-8.12 1.25-5.63h-1.88l-4.37 5 .63 1.88c-2.92 4.17-4.38 7.3-4.38 9.37v2.5c.42.84.83 2.09 1.25 3.75l1.88 3.13c2.91 7.92 6.45 11.87 10.62 11.87 2.92 0 6.46-3.33 10.63-10-.42-1.25-.63-3.33-.63-6.25-1.25-10.41-3.54-18.95-6.88-25.62l-2.5-5-1.25-3.75c-.41-.42-1.04-.63-1.87-.63-.42 0-.63.42-.63 1.25 0 1.25.21 2.09.63 2.5l3.75 8.75 1.88 8.75c1.25 4.59 1.87 7.5 1.87 8.75 0 1.67-.63 4.17-1.88 7.5-.83 3.34-1.87 5-3.12 5m-276.25-29.37a8.48 8.48 0 0 0-2.5 6.25v3.75l2.5 6.87 15.62 11.25 1.25 3.13c.42 2.92 1.05 4.38 1.88 4.37 2.5 0 3.75-1.66 3.75-5 0-2.91-1.46-5.2-4.38-6.87l-10-7.5c-1.25-.42-1.87-1.46-1.87-3.13 0-4.16 2.3-6.24 6.87-6.25 5 0 9.38 3.13 13.13 9.38 3.75 5.83 5.62 12.5 5.62 20v8.12c-.41 4.59-.2 8.96.63 13.13a71.2 71.2 0 0 0 3.75 12.5c1.67 3.75 5 5.83 10 6.25.42 2.08.83 3.96 1.25 5.63.42 1.25.83 2.29 1.25 3.12 1.67 7.08 3.54 12.7 5.62 16.88l3.13 6.25 1.87 5.62 4.38 5.63 6.87 6.87c3.34 2.5 7.5 5.83 12.5 10 2.5.83 3.55 1.25 3.13 1.25 2.08 0 3.12-1.04 3.12-3.13v-.62l-.62-1.88-14.38-15a32.83 32.83 0 0 0-3.12-5 43.87 43.87 0 0 0-3.13-6.25c-3.33-9.16-5-15.41-5-18.75 0-1.25 1.05-5.41 3.13-12.5h1.25c6.25 0 9.58-8.95 10-26.87.83-24.58 7.92-36.46 21.25-35.63h3.12l1.88.63 2.5 3.12-1.25 8.75-10 5c-2.08.84-3.13 3.34-3.13 7.5 0 7.5 4.8 11.25 14.38 11.25 10 0 15-4.37 15-13.12l-1.88-1.88c-2.91 5-7.08 7.92-12.5 8.75l-2.5-.62c-2.5-1.67-3.75-3.54-3.75-5.63 0-2.08 1.25-3.74 3.75-5l8.13-5c3.33-2.08 5-5.83 5-11.25 0-3.74-2.3-7.91-6.88-12.5l-6.87-1.87-7.5.62-12.5 6.25 1.25-11.87h-2.5c-.83 0-2.92 1.67-6.25 5l-10 10.62c-.83.84-2.08 3.34-3.75 7.5l-2.5 8.75a28.3 28.3 0 0 0-1.88 10v5.63c0 12.5-1.87 18.75-5.62 18.75-2.92 0-4.38-1.67-4.38-5 0 .42.42-1.04 1.25-4.38l5-12.5c1.25-2.91 1.88-6.66 1.88-11.25a45 45 0 0 0-3.13-16.25l-3.75-8.12c-1.66-4.17-3.54-6.25-5.62-6.25-.83 0-1.67.42-2.5 1.25l-3.13 6.87h-.62c-7.08-8.74-14.8-13.12-23.13-13.12-4.58 0-9.37 2.5-14.37 7.5m203.12-6.88h-7.5c-12.92.42-24.38 4.17-34.38 11.25l-6.25 3.13c-1.25.83-2.7 2.3-4.37 4.37a54.21 54.21 0 0 1-5 5.63l-4.38 5.62-5.62 8.75c-5 8.34-7.5 19.59-7.5 33.75v4.38c0 1.25.2 2.5.63 3.75 4.58-.83 6.87-1.87 6.87-3.13l-.63-4.37-.62-5c-.83-5.42 1.04-12.92 5.63-22.5 1.66-4.17 2.7-6.46 3.12-6.88l7.5-7.5 2.5-3.75c.83-.83 2.08-1.87 3.75-3.12a58.47 58.47 0 0 1 7.5-5 62.66 62.66 0 0 1 7.5-3.75 561.1 561.1 0 0 0 11.25-4.38c7.92-.83 13.96-1.45 18.13-1.87 1.25-.42 1.87-3.54 1.87-9.38m-220.62 21.88.62 2.5 1.25 1.87.63 1.25c-3.75-2.5-6.25-3.74-7.5-3.75-.42.42-.63.84-.63 1.25l-.62.63c0 1.67.62 4.17 1.87 7.5 1.67 2.92 2.92 4.8 3.75 5.62 1.67.84 3.75 2.09 6.25 3.75l10 5 1.25.63 3.75 1.87v.63l.63 1.87c.42.42.62 1.25.62 2.5 0 .84-1.04 1.67-3.12 2.5l-5-1.87-5.63-5c-3.33-6.25-8.54-9.37-15.62-9.38-4.17 0-6.88 3.13-8.13 9.38h4.38c7.92-.42 14.8 4.8 20.62 15.62 2.92 2.92 5.21 4.38 6.88 4.38h1.87l5.63-4.38 1.87.63a9.83 9.83 0 0 0 1.88 2.5 36.6 36.6 0 0 1 3.12 3.75l1.88 1.88c3.33 4.58 5.62 7.5 6.87 8.75 1.25.83 2.92 1.04 5 .62h2.5c-2.08-5-3.75-8.33-5-10l-4.37-6.88-3.13-4.37-4.37-6.25c2.5-2.92 3.75-5.62 3.75-8.13 0-.41-.2-.83-.63-1.25l-2.5-3.75-5-2.5-5-3.75-2.5-2.5-7.5-6.87a20.45 20.45 0 0 1-6.25-15l.63-5.63h-1.25c-1.67 0-2.92 1.05-3.75 3.13-.83 1.67-1.25 2.92-1.25 3.75 0 1.67.42 4.17 1.25 7.5m258.12-3.13 4.38 7.5c1.66 2.92 2.5 5.42 2.5 7.5 0 7.92-2.5 13.96-7.5 18.13l-3.75.62-1.88 1.88h-6.88c-2.5-1.25-4.37-1.87-5.62-1.88-1.67 0-2.5 2.5-2.5 7.5 0 2.5 2.5 5.21 7.5 8.13 0 1.25-.83 1.88-2.5 1.88l.63.62-5 .63-13.75 5.62-6.88 5.63-4.38 3.12-5 4.38c-2.91 2.91-4.58 5.83-5 8.75 5.42-1.25 8.96-1.88 10.63-1.88 1.25 0 2.08.2 2.5.63l18.13 8.12 10 1.88c1.25.41 3.33.62 6.25.62 11.66 0 20.62-7.3 26.87-21.88 6.25 2.09 10 3.13 11.25 3.13 2.5 0 4.8-1.88 6.88-5.63-5.42-2.5-7.92-5.2-7.5-8.12v-1.88l.62-4.37-3.75.63 5-10.63-1.25-2.5.63-2.5-1.88-5.63-1.25 7.5c-3.33 8.76-5.42 13.13-6.25 13.13h-1.88c3.75-7.92 5.63-15.63 5.63-23.13v-3.75c0-2.91-.2-5-.63-6.25l-3.75-3.12c.42 2.92.63 5.2.63 6.87.42 1.67.63 2.92.63 3.75 0 12.09-4.59 22.5-13.75 31.25h-1.88l2.5-6.25 5.63-10.62c2.5-3.75 3.74-10 3.75-18.75 0-6.25-2.5-12.92-7.5-20 2.5 10.83 3.74 15.42 3.75 13.75 0 2.08-.21 3.75-.63 5l-1.88 1.25c-2.08-19.58-6.87-29.38-14.37-29.38-2.08 0-3.13 1.05-3.13 3.13 0 2.5 1.88 4.38 5.63 5.62m-295-4.37.63 1.87 1.87 6.25 9.38 1.88c1.66.83 3.74 2.08 6.24 3.75l8.75 4.37v-3.12c.84-3.33-1.87-6.67-8.12-10l-10-4.38-8.13-2.5-.62 1.88m295 13.12 3.13 5.63c.41 0 .62-.2.62-.63l.63-1.25c0-2.08-1.25-4.79-3.75-8.12-2.09-3.75-3.96-5.62-5.63-5.63-1.25 0-1.88 1.05-1.88 3.13 0 2.5 2.3 4.8 6.88 6.87m-67.5-3.75-10 4.38-7.5 4.37-1.25 1.88-4.38 3.12-3.75 5c-2.91 2.92-4.37 5.84-4.37 8.75-2.08 9.17-3.13 15-3.13 17.5v8.13c1.25-.42 1.88-.83 1.88-1.25l.63-3.75-.63-4.38c0-2.91.83-6.24 2.5-10a40.55 40.55 0 0 1 6.25-10 52.88 52.88 0 0 1 9.38-7.5c3.33-2.08 6.45-3.12 9.37-3.12 1.25 0 2.5 1.04 3.75 3.12l.63 6.88-1.88 1.87c-5 6.26-11.46 9.59-19.38 10l-3.75 6.25.63 4.38c2.92-3.75 5-6.04 6.25-6.88l14.38-5.62c10.83-4.58 16.24-10.63 16.24-18.13 0-1.66-1.04-4.16-3.12-7.5l-7.5-1.25 1.88-6.25h-3.13m-318.12 13.75c-7.5 9.59-12.3 17.92-14.38 25-1.66 7.09-2.5 15-2.5 23.75 0 2.5.21 4.38.63 5.63l1.25 5 3.75 14.38 1.25.62c10.83 22.08 28.12 33.13 51.87 33.13 12.92 0 24.17-3.96 33.75-11.88 10-7.92 15-17.5 15-28.75 0-13.33-6.66-23.54-20-30.63a19.33 19.33 0 0 0-8.75-1.87c-6.25 0-11.04 1.67-14.37 5l-3.13 4.38-1.87-.63c-1.25-2.92-2.7-4.58-4.38-5l-5.62 3.13-4.38 3.12c-3.33 2.08-7.91 3.13-13.75 3.13-3.75 0-8.54-2.3-14.37-6.88-1.25 1.25-1.88 2.5-1.88 3.75s1.05 3.54 3.13 6.88l1.25 1.87 4.37 2.5-1.25 2.5c-1.66 1.25-2.5 2.3-2.5 3.13 0 2.91 3.13 4.37 9.38 4.37 5 0 8.33-1.04 10-3.13 2.08-2.5 3.96-4.79 5.62-6.87h1.88v5.63l-4.38 5a24.44 24.44 0 0 0-5.62 3.12 19.57 19.57 0 0 0-5 3.75l3.12 3.13-1.25 6.25v3.75c0 3.33 1.05 5 3.13 5 2.92 0 6.25-1.88 10-5.63l1.87.63 1.25 5 3.13-5 2.5-16.88c.42-2.5 1.67-3.75 3.75-3.75l1.25.63-3.13 14.37 1.25 7.5 1.88 5 3.75-1.88 5.62 3.75c.42.42 1.05.63 1.88.63 2.08 0 4.37-1.46 6.87-4.38h-2.5c-2.91.42-6.04-1.04-9.37-4.37a19.37 19.37 0 0 0-1.25-3.75v-1.25c0-3.33 2.7-8.96 8.12-16.88.42-1.66 1.46-3.75 3.13-6.25l-3.13-7.5-4.37 1.25h-.63c-2.08 0-3.12-.83-3.12-2.5l.62-1.25c2.09-4.58 7.09-6.87 15-6.87 4.59 0 8.75 2.08 12.5 6.25a28.93 28.93 0 0 1 8.75 21.25c0 8.75-4.37 16.46-13.12 23.13-8.75 6.25-19.17 9.37-31.25 9.37-7.92 0-15-1.46-21.25-4.38l-3.13-1.25-6.25-2.5-11.87-12.5a43.7 43.7 0 0 0-3.13-6.25c-.83-2.08-1.87-4.58-3.12-7.5l-1.88-6.25-1.87-8.12c-.42-.83-.63-2.92-.63-6.25v-6.88c.42-3.33.84-7.29 1.25-11.87l2.5-6.25 1.88-4.38 5.62-9.37.63-8.13m98.75 5-.63 1.88 3.75 1.87-3.12-3.75m-99.38 13.13c-1.66 2.92-2.5 5-2.5 6.25v.63c.42 9.16 3.75 13.75 10 13.75 3.34 0 5.42-1.67 6.25-5v-3.13h-10l-.62-.63-2.5-4.37.62-6.25-1.25-1.25m244.38 2.5-5.62 2.5c-4.17 1.67-7.08 3.75-8.75 6.25l-1.88 1.25c-5.41 6.67-8.12 13.13-8.12 19.38 0 1.25.62 1.87 1.87 1.87.84 0 2.5-2.92 5-8.75s7.71-8.75 15.63-8.75c3.33 0 6.46 2.08 9.37 6.25l-.62 5.63c7.5-1.25 11.25-4.8 11.25-10.63 0-.42-.2-1.04-.63-1.88a27 27 0 0 0-.62-5c-2.08-3.33-4.38-5.2-6.88-5.62l-2.5-.63-7.5-1.87m194.38 28.13-6.87 14.37-3.75 7.5-1.88 4.38-3.12 5.62-3.75 8.75-.63 7.5 1.88 5.63-1.25.62h-.63c0 .83.63 1.46 1.88 1.88l1.25-.63 3.75.63v1.87c.83.42 2.92.63 6.25.63 4.58 0 7.08-1.46 7.5-4.38l.63-3.13-.63-5.62-3.75 3.75-2.5.63 1.25.62h-3.75c-4.17 0-5.83-1.88-5-5.63 0-2.08.63-5.41 1.88-10l1.25-6.25 4.37-10 2.5-8.12 3.13-6.25v-4.38m-376.88 22.5 1.87 1.25c3.33-2.08 5.42-3.12 6.25-3.12.42 0 2.3 1.04 5.62 3.13l-1.87.62c.42.83.62 2.5.62 5 0 1.67-1.04 4.17-3.12 7.5h1.87c1.25 0 2.3-1.67 3.13-5l1.87-5c.42-1.25.63-2.08.63-2.5l.62-1.25c0-.83-1.04-3.75-3.12-8.75a8.48 8.48 0 0 0-6.25-2.5c-6.25 0-8.96 3.13-8.13 9.38v1.25m66.25-5.63c2.92 1.67 5 2.7 6.25 3.13 1.25.41 4.59 1.45 10 3.12l10.63 3.13 32.5 5 6.87.62h3.13c-.83-3.33-1.67-5-2.5-5h-10l-11.88-1.25-15.62-2.5-13.75-3.13-5.63-.62-10-2.5m263.75 5.63c-1.66 2.91-2.5 5-2.5 6.25 0 2.08 2.3 3.12 6.88 3.12 1.67 0 2.7-.2 3.13-.63l4.37-4.37 5.63-5 2.5-4.38-7.5 6.88a7.77 7.77 0 0 1-5.63 2.5c-2.92 0-5.2-1.46-6.88-4.38m-95 10.63 1.88 1.88 9.37 6.25 3.75 2.5-3.12-8.75-6.25-5-5.63-6.88c.42 0-.62-.42-3.12-1.25-2.5 0-3.75 1.04-3.75 3.13 0 1.66 2.3 4.37 6.87 8.12m-222.5 21.88c2.5-1.67 4.59-2.71 6.25-3.13 2.92-1.67 5.21-2.92 6.88-3.75a14.54 14.54 0 0 0 3.75-2.5l3.75-3.75c1.67-1.67 4.37-2.5 8.12-2.5 3.75 0 7.3.83 10.63 2.5.42.83.62 2.5.62 5 0 2.08-2.29 4.17-6.87 6.25 2.08 2.08 3.75 3.13 5 3.13 5 0 7.5-1.25 7.5-3.75l.62-2.5-1.25-5.63 3.75.63 1.25 6.87 3.13 3.75c5 2.08 7.92 3.13 8.75 3.13h2.5c1.25-.42 2.7-.84 4.37-1.25l5.63-5.63-11.88-.63-.62-.62c-2.5-1.67-3.75-4.38-3.75-8.13v-.62c8.33-.42 12.92-2.5 13.75-6.25l-10-2.5-2.5-2.5-4.38-1.88c-3.75-2.5-7.5-3.75-11.25-3.75-6.25 0-11.04 1.67-14.37 5l-19.38 16.88-5 3.13-5 5m135-5.63 1.88-.63a68.31 68.31 0 0 0-5-5.62 76.25 76.25 0 0 0-5.63-6.25l-6.25-.63 6.88 7.5c.83.84 1.87 1.67 3.12 2.5 1.67.84 3.34 1.88 5 3.13m16.25-11.88 3.75 4.38 5.63 7.5-3.13-6.88-3.12-3.75-2.5-2.5-.63 1.25m190.62-1.25-1.25.63-5.62 5a21.5 21.5 0 0 0-7.5 7.5c-1.67 2.92-2.5 4.8-2.5 5.63 0 2.91 1.25 4.37 3.75 4.37l7.5-.63-1.25-1.87-1.25-6.25 5.63-8.75 2.5-5.63m-238.13 20c-5.41-1.66-8.12-4.37-8.12-8.12 0-3.75 2.3-5.63 6.87-5.63 1.67 0 4.17.42 7.5 1.25l20 11.88 8.13.63-7.5-4.38-12.5-8.75c-7.08-4.58-12.92-6.88-17.5-6.88-9.58 0-14.38 4.17-14.38 12.5 0 7.5 3.96 11.25 11.88 11.25 2.92 0 4.8-1.25 5.62-3.75m-188.12-20v3.75c0 2.09 1.05 4.8 3.13 8.13 0 3.75-2.08 5.83-6.25 6.25l-4.38-1.88c1.25 4.59 2.71 6.88 4.38 6.88s4.17-.63 7.5-1.88c1.25-3.75 1.87-6.66 1.87-8.75 0-4.16-2.08-8.33-6.25-12.5m29.38-373.75-5.63-2.5-6.87-1.25-2.5 1.25-1.25-1.25c1.25-2.5 3.12-3.74 5.62-3.75 8.34 0 11.88 2.5 10.63 7.5m407.5.63c-.42.42.42 3.33 2.5 8.75l3.75 5c-6.25-.42-9.38-4.17-9.38-11.25 0-.83.42-1.67 1.25-2.5h1.88m-130 10-1.88 6.87 1.25-2.5c.84-.83 1.46-1.25 1.88-1.25 1.25 0 1.87.42 1.87 1.25 0 2.09-.2 3.96-.62 5.63s0 4.38 1.25 8.12h-3.75l-2.5-11.25 1.25 13.13h-3.13c-.41-.42-.62-1.25-.62-2.5s-.2-2.3-.63-3.13v-6.87l1.88-5.63 1.25-2.5 2.5.63m-308.12 2.5 1.87-3.13 3.75.63.63 3.12-6.25-.62m426.25 6.87c4.58 1.25 7.5 3.55 8.75 6.88l3.13 7.5h-.63c-.42 0-.63 1.46-.63 4.37v4.38a60.67 60.67 0 0 0-5-17.5c-1.66 0-3.33-1.25-5-3.75l-.62-1.88m-422.5 2.5c0 2.5-1.04 3.76-3.13 3.75l-1.87-.62c-.42-.42-.63-1.04-.63-1.88 0-.83.63-1.25 1.88-1.25h3.75m323.75 1.25c.83.84 1.25 2.3 1.25 4.38 0 .83-.83 1.46-2.5 1.87h-1.88c-1.25 0-1.87-.83-1.87-2.5 0-2.91.83-4.37 2.5-4.37l2.5.62m-325.62 8.75v2.5l-.63 1.88-1.87-.63-.63-2.5v-2.5l3.13 1.25m255 0h3.75c2.5.84 3.75 1.46 3.75 1.88v3.12c-.83 0-2.08-.2-3.75-.62-1.25-.83-2.3-1.25-3.13-1.25-.41.42-1.25.62-2.5.62s-2.08.21-2.5.63c0-3.33 1.46-4.8 4.38-4.38m62.5 5v-3.75h.62v-.62h1.25v-.63h.63c.42 0 1.04.42 1.87 1.25v1.88c.42 1.25-1.04 1.88-4.37 1.87m-3.75 5.63h2.5l2.5 2.5-4.38.62-.62-.62v-2.5m123.75 12.5 4.38-1.88 3.12 4.38c-2.5 1.25-4.17 1.88-5 1.87-1.25 0-2.08-1.45-2.5-4.37m-177.5 15-1.88-3.13-1.25-5-1.87-4.37.62-1.25 5 5.62-.62 8.13m183.12-8.75.63 1.25c0 2.08-1.05 3.13-3.13 3.12-2.5 0-3.75-1.04-3.75-3.12.83-1.67 1.67-2.08 2.5-1.25h3.75m-6.25 6.87 5.63-.62c0 2.08-.21 3.13-.63 3.12-5.83 0-7.08.42-3.75 1.25l-1.25-3.75m-197.5 16.88h-.63c-.41 0-1.04-.42-1.87-1.25a43.67 43.67 0 0 1 3.12-6.25c1.67-2.5 2.3-6.04 1.88-10.63.42-6.66.83-10.2 1.25-10.62.42 2.08.62 4.38.62 6.87.42 2.5.63 5.42.63 8.75 0-.41-.42 1.05-1.25 4.38l-1.25 3.75-2.5 5m196.88-11.25 5 1.25c-.83 2.08-2.08 3.13-3.75 3.12l-1.88-.62.63-3.75m-276.25 33.75-1.25 5.62c-.42.42-.63 1.67-.63 3.75v1.25c.84 2.09.63 3.13-.62 3.13s-1.88-.63-1.88-1.88l.63-2.5 1.87-8.75 1.25-6.25.63 5.63m-100-8.75 12.5 7.5c1.67.42 4.37 1.88 8.12 4.37 4.17 2.09 6.25 3.55 6.25 4.38l-10-3.75c-.41.42-4.79-1.87-13.12-6.88l-3.75-5.62m40.62 21.25-6.87-2.5 1.87.62-1.87-.62.62-1.88 5.63 1.88c2.5.83 3.54 1.25 3.12 1.25 2.09.42 4.17 1.67 6.25 3.75h-1.87c-.83-.42-2.3-.83-4.38-1.25-.83 0-1.66-.42-2.5-1.25m96.25 9.37c1.25 2.09 1.88 3.55 1.88 4.38-.83 1.25-1.46 3.33-1.88 6.25l-.62 2.5-3.13 3.12a40.79 40.79 0 0 1-4.37 3.75l-.63-1.87c5.42-3.75 8.13-7.92 8.13-12.5 0-.42-.42-2.3-1.25-5.63h1.87m-10.62 14.38 1.25-2.5 2.5-3.13.62-5.62c.42-1.25 1.46-1.87 3.13-1.88l-1.25.63c.83.83 1.25 1.67 1.25 2.5 0 .83-.63 2.5-1.88 5l-1.25 3.12-1.25 1.25c-.41.42-1.04.63-1.87.63h-1.25m-35 10 3.75-3.75-2.5 7.5-6.25.62-.63-2.5 5.63-1.87m-75.63 2.5c-2.5-.42-3.75-1.25-3.75-2.5 0-1.67 1.25-2.5 3.75-2.5 2.09 0 3.13.83 3.13 2.5 0 .83-1.04 1.67-3.13 2.5m219.38-.63 1.25 3.75-3.75 1.25-1.87 3.75h-.63c-1.25 0-1.87-.41-1.87-1.25 0-1.25 1.04-2.7 3.12-4.37 2.09-2.08 2.71-3.12 1.88-3.13h1.87m-141.88 5 4.38-3.12.62 1.25c-2.08 3.33-3.75 5-5 5a5.54 5.54 0 0 0-2.5-.63 9.75 9.75 0 0 1-2.5-1.87l5-.63m-71.25-3.75h5v3.13c0 1.25-1.45 1.88-4.37 1.87h1.87-3.12l.62-5m41.88.63 1.87 1.25 1.25 2.5 6.25 5c3.75 3.33 9.17 6.04 16.25 8.12l-1.87 2.5-8.13-2.5-10-5.62a7.29 7.29 0 0 0-1.87-1.25l-1.88-3.75-2.5-2.5-1.25-5 1.88 1.25m-59.38 0 8.75 5c3.34 2.08 5 4.17 5 6.25v1.87l-5-3.75-3.75-3.12-5-4.38v-1.87m129.38 9.37c-.41-.41-1.45-.62-3.12-.62-1.25 0-2.08-.2-2.5-.63-4.58-1.25-5.2-1.87-1.88-1.87-.41 0-1.25.2-2.5.62a27 27 0 0 0-5 .63l-1.25-2.5c3.34-.83 5.21-1.25 5.63-1.25 7.92 0 11.46 1.04 10.62 3.12v2.5m-99.37.63-3.75-.63c-.83-.83-1.25-1.66-1.25-2.5 0-1.25 1.46-1.87 4.37-1.87 1.25 0 1.88.62 1.88 1.87s-.42 2.3-1.25 3.13m64.37-3.75v2.5l-2.5 4.37-1.87-.62h-1.88l3.13-3.13 3.12-3.12m24.38 3.12 6.25 1.25-1.25 1.88-7.5-1.25v-.63l2.5-1.25m117.5 11.88 13.75 1.87.62.63 6.88 2.5-1.88 1.87-11.87-3.12-6.88-.63-4.37 1.88-3.75-.63 7.5-4.37m-160 6.87 3.75 1.25v1.25c0 4.59-1.25 7.5-3.75 8.75l-2.5-.62c2.92-1.67 4.37-3.33 4.37-5l-.62-3.13-1.25-2.5m118.75 3.75c-.42.84-.63 2.92-.63 6.25 0 1.67 1.88 2.5 5.63 2.5h1.87l.63 1.25c0 1.67-2.08 2.5-6.25 2.5-4.58 0-6.88-2.29-6.88-6.87 0-4.17 1.46-6.25 4.38-6.25l1.25.62m-111.25-1.87 1.25 2.5v1.87c.83 2.5-.42 4.8-3.75 6.88h-1.88c2.5-1.67 3.75-4.37 3.75-8.13l.63-3.12m101.25 10c0 1.25 1.67 2.92 5 5l3.12 1.25v1.25c-2.5 1.25-4.58 1.88-6.25 1.87-3.33 0-5-2.29-5-6.87 0-.83 1.05-1.67 3.13-2.5m174.38 3.12 12.5 2.5-2.5 1.88-4.38-.63-5.62-3.75m-15 8.13c.42-2.92 1.25-4.37 2.5-4.38 1.25 0 1.87.63 1.87 1.88s-1.45 2.08-4.37 2.5m-165-3.13c0 2.09 1.46 3.34 4.37 3.75h.63c-1.25 2.09-2.5 3.13-3.75 3.13-2.92 0-4.38-.83-4.38-2.5v-.63l1.25-4.37 1.88.62m-42.5 13.75c.42-2.91 1.04-5 1.87-6.25l-1.25-6.87c.42-2.92 1.05-4.37 1.88-4.38 1.67 0 2.3 1.46 1.87 4.38l-.62 10c0 2.5-.63 3.75-1.88 3.75-.83 0-1.45-.2-1.87-.63m-5-13.12 2.5.62c.42 1.25.42 2.92 0 5 0 1.67-.2 3.76-.63 6.25l-1.87-1.87v-10m223.12 1.87c-2.92 1.67-4.38 3.34-4.38 5l.63 3.13-1.25.62c-1.67 0-2.5-1.04-2.5-3.12v-4.38c0-1.66 1.46-2.5 4.38-2.5l3.12 1.25m-291.25 4.38-1.25 2.5-1.88 3.75-6.87 2.5 10-8.75m113.75 3.12c-.42 1.67-1.04 2.5-1.88 2.5-2.5 0-3.75-1.04-3.75-3.12 0-.42.21-.83.63-1.25l1.25 1.25 3.75.62m-115 13.13 3.12-1.88v3.75l-2.5 3.75-6.87 10.63 6.25-16.25m293.12-8.13 5.63 5.63c1.66 1.67 2.29 3.33 1.87 5l.63.62-2.5.63-2.5-6.25-1.25-.63-1.88-5m-1.88 5v5h3.75l-1.25-1.25-2.5-3.75M318.8 441.03l-1.87 6.88c-.42 2.5-3.13 5.42-8.13 8.75l-1.25-1.88 5-6.25c2.5-.83 4.59-3.33 6.25-7.5m-104.38 22.5 2.5.63c1.25.42 2.5 2.7 3.75 6.87v2.5l-3.75.63-2.5-10.63m-6.87 2.5c5 0 7.5 2.71 7.5 8.13v.62c0 1.67-.83 2.71-2.5 3.13l-1.25-.63.62-4.37c0-1.67-1.45-3.96-4.37-6.88m166.25 4.38 2.5.62c2.92 5.42 4.37 9.17 4.37 11.25a8.7 8.7 0 0 0-.62 3.75c0 1.25-.2 2.09-.63 2.5l-1.87-8.12-3.75-10m30.62 2.5c-5.41 7.08-8.54 12.5-9.37 16.25-.83 3.75-1.25 6.04-1.25 6.87 0 .42-.2.84-.63 1.25-1.25-.41-1.87-1.25-1.87-2.5 0-1.66.2-2.91.62-3.75l1.25-5.62 1.88-5 7.5-9.38 1.87 1.88m-38.75 15 1.88 6.25c1.25 7.08 1.87 12.7 1.87 16.87 0 3.34-.62 7.09-1.87 11.25-1.67-.41-2.5-1.45-2.5-3.12v-5.63c0-4.58.2-7.29.62-8.12v-3.13a40 40 0 0 0-2.5-13.75l2.5-.62m5 5 2.5 2.5v6.87c0 2.92-.62 4.59-1.87 5l-.63-14.37m-38.75 25v-1.88l1.88-1.87 3.75-6.25 1.25 5.62-6.88 4.38m46.25 9.38 7.5.62 5.63-3.13.62-.62c1.25 0 1.88.63 1.88 1.88 0 3.33-2.5 5.2-7.5 5.62h-2.5l-.63.63c-1.25 0-2.91-1.67-5-5m188.75 11.25c-2.08-1.25-3.12-2.3-3.12-3.13 1.25-1.67 2.7-2.5 4.38-2.5 1.66 0 2.5.63 2.5 1.88s.2 1.87.62 1.87c-1.25 0-2.7.63-4.38 1.88m-176.88.62c-.83.83-1.45.83-1.87 0-.83-.83-1.46-1.25-1.88-1.25l-1.25-1.25h-3.12 1.25l-.63-2.5h2.5l2.5 1.88 2.5 3.12m172.5-3.13c.42.84.21 2.5-.62 5h-4.38v-4.37l5-.63m-343.12 3.13 3.13.63 1.25 1.87-.63 1.88-3.12 1.87-3.13-1.25v-2.5l.63-1.88 1.87-.62m330.63.63 1.87.62 3.13 2.5-5 .63v-3.75m-323.75 9.37c-.84.83-3.96 5-9.38 12.5-.83 3.33-1.67 5-2.5 5h-1.88c0-7.08 2.71-13.33 8.13-18.75 2.92-2.92 5.2-4.38 6.87-4.38 1.25 0 1.88.63 1.88 1.88 0 1.67-1.04 2.92-3.13 3.75m345.63-3.13 1.25 1.25-2.5 3.13c-1.67 1.67-3.34 2.5-5 2.5l-3.13-.63 9.38-6.25m7.5 2.5a36.51 36.51 0 0 1-15.63 11.88h-5l-.63-3.13 9.38-.62a11.38 11.38 0 0 0 5-3.75c1.67-3.75 3.33-5.63 5-5.63l1.88 1.25m-346.25 2.5h1.87l-1.25 4.38-3.13.63c-1.25 0-1.87-.84-1.87-2.5 0-1.67.42-2.5 1.25-2.5h3.12m73.13 18.12 13.12 10.63-9.37-4.38-6.88-3.13h-8.12l1.25-2.5 10-.62m202.5 5.63 7.5 2.5 1.88 3.75-2.5.62h2.5-8.13l-1.88-1.88.63-5" transform="translate(-146.86 -119.79)"/>
</svg>
