<svg xmlns="http://www.w3.org/2000/svg" viewBox="0 0 500 500">
    <path d="M146.86 619.79v-500h500v500h-500m7.5-7.5h485v-485h-485v485m7.5-7.5V135.41h469.38v469.38H161.86m470-6.88-.63 3.13h-.62l1.25-3.13m-462.5-448.75 2.5 5.63 1.25 1.87-3.13 3.13c0 2.08 5.63 3.96 16.88 5.62l7.5 1.25h1.25l30.63-9.37v1.87l-3.13 1.88c-1.25.83-1.88 2.7-1.88 5.62 0 1.25.84 1.88 2.5 1.88 17.09 0 25.63-4.37 25.63-13.13 0-7.91-4.8-11.87-14.38-11.87-3.75 0-8.33 1.25-13.74 3.75l-20 8.75-11.25 2.5h-1.88l-6.25-1.25-4.38-2.5c-2.91-1.67-4.37-3.12-4.37-4.38 0-3.33 1.67-5 5-5h.63l1.25.63h.62l10 6.25c.42.42 1.67.62 3.75.62 2.5 0 3.75-1.25 3.75-3.75l-.63-1.25-6.87-1.87-6.25-5.63c-3.33-.83-5.2-1.25-5.63-1.25-6.66 0-10 2.3-10 6.88 0 1.67.21 2.7.63 3.12m124.38-10-23.13 2.5-9.37 1.88 1.25 6.25a156.21 156.21 0 0 1 41.25-5.63c7.92 0 17.5 1.67 28.75 5 1.25.42 3.54 1.05 6.88 1.88.83-3.33 1.25-4.8 1.25-4.38 0-.83-3.34-2.08-10-3.75a40.16 40.16 0 0 0-6.25-1.25c-2.5-.41-5.63-1.04-9.38-1.87l-6.88-.63H293.75m-46.25 3.13 5 5.62 2.5 7.5c1.67-2.91 2.5-5.2 2.5-6.87 0-3.33-2.08-5.62-6.25-6.88l-2.5-.62-1.25 1.25m132.5-.63c-.42-.41-1.25-.62-2.5-.62h-1.88l-1.87 1.87-.63 1.88 2.5 5 4.38-8.13m120.62.63c-1.25.42-2.92.62-5 .62-1.67 0-2.7.21-3.13.63-10.83 1.25-17.7 2.5-20.62 3.75l-6.88 2.5c-20 7.92-32.91 16.25-38.75 25a7.25 7.25 0 0 0-1.25 1.87 9.8 9.8 0 0 1-1.87 2.5l-3.13 5 1.25.63 3.13 5.62 3.75 3.75c12.92-26.66 35.2-41.04 66.88-43.12l19.37-1.25 17.5 1.87 9.38-2.5a36.82 36.82 0 0 0-9.38-3.75 44.67 44.67 0 0 0-11.25-2.5l-5.63-.62h-14.37m-106.25 11.87-2.5.63-2.5-5.63-2.5-1.25-.63 1.88-1.87 2.5v4.37c.42 1.25.83 3.13 1.25 5.63l1.88 1.25 7.5 8.12 10 3.75 1.25 5c0 1.25-.63 2.5-1.88 3.75v2.5c-2.92 1.67-4.38 3.13-4.38 4.38 0-.42 2.92 2.3 8.75 8.12l5.63 5 2.5 3.75 3.13 3.13 3.75 5.62 5.62 12.5 2.5 5a35.74 35.74 0 0 1 1.88 6.25 35.57 35.57 0 0 0 1.87 6.25 38.68 38.68 0 0 1 3.13 10c.83 2.5 1.45 4.8 1.87 6.88v4.37l1.25 6.25v11.88c-.42.83-.63 2.5-.63 5 0 1.67 2.3 3.54 6.88 5.62 1.25-8.74 1.87-14.16 1.88-16.25 0-14.16-1.25-24.79-3.75-31.87l-13.13-35-15.63-26.88-4.37-6.87-1.88-4.38-7.5-12.5v-3.75c0-4.16 2.71-8.12 8.13-11.87-2.08-2.5-4.38-3.75-6.88-3.75-5 0-8.54 3.54-10.62 10.62m54.38-.62c-6.26 1.67-11.67 2.5-16.25 2.5h-3.13c-3.33-3.33-4.8-6.46-4.38-9.38v-1.87l-1.25-.63v.63l-3.75 3.12c-.83.84-1.25 2.09-1.25 3.75 0 6.26 3.75 9.38 11.25 9.38 5 0 11.25-2.5 18.75-7.5m116.25-8.13-1.25 1.25c-.41 0-1.04.42-1.87 1.25 0 1.25.83 2.71 2.5 4.38l.63-6.88m-218.75 5c2.08.84 3.12 1.67 3.12 2.5l-.63 1.88h-5c-6.25 0-11.25 3.13-15 9.37 6.67-1.25 11.67-1.87 15-1.87 1.67 0 3.34.2 5 .62 1.67 0 3.55.21 5.63.63l11.25 3.12c2.92.84 5.42 1.88 7.5 3.13a43.64 43.64 0 0 0 6.25 3.12h6.88c2.5 0 4.37-.2 5.62-.62-2.5-1.67-5.63-4.8-9.38-9.38l-2.5-4.37a50.77 50.77 0 0 0-12.5-10c-5-2.08-8.75-3.12-11.25-3.13-2.08 0-5.41 1.67-10 5m228.13 13.75 1.25 2.5 5.62 6.88c.83.42 2.7.62 5.63.62 1.66 0 2.5-1.04 2.5-3.12 0-1.25-1.05-3.54-3.13-6.88l-7.5-8.75c-.42-.83-.83-1.87-1.25-3.12-.42-1.67-.83-3.54-1.25-5.63l-1.25.63h-.63c-2.08 0-3.33.83-3.75 2.5v2.5l.63 3.75v4.37c0 .42 1.04 1.67 3.13 3.75m30-11.25-3.75 1.25c-2.09-2.5-3.96-3.74-5.63-3.75a16.66 16.66 0 0 0-5.63 3.75c-1.25 3.34-1.87 5.63-1.87 6.88a8.3 8.3 0 0 0 1.88 5l3.12 7.5 13.13-1.25v-1.88c-.42-10.41 3.33-15.62 11.25-15.62l5 .62c-2.5-5.83-5-8.54-7.5-8.12h-2.51l-7.5 5.62m-297.5 0c2.92-1.25 5.42-1.87 7.5-1.87 3.34 0 8.55 1.25 15.63 3.75v-.63c0-1.25-1.25-2.29-3.75-3.12l-6.25-1.88c-.42-.41-1.88-.62-4.38-.62-5.41 0-8.33 1.46-8.75 4.37m-4.37-1.87c-6.67 2.5-10 5.63-10 9.37 0 1.25 1.46 2.71 4.38 4.38l2.5-6.88 5.62-3.75-2.5-3.12m235.62 1.25h-3.13c-3.33 1.25-5 2.3-5 3.12a30.18 30.18 0 0 0 4.38 3.75c-5.83 1.67-9.58 3.13-11.25 4.38-1.25 1.25-2.7 3.54-4.38 6.87l-1.87 3.75 2.5 11.25c6.67-12.5 16.04-18.75 28.13-18.75 5.41 0 12.91 2.09 22.5 6.25 3.33.84 4.79 1.25 4.37 1.25 2.08 0 3.12-.62 3.13-1.87 0-1.25-1.05-2.92-3.13-5l-6.88-5.63c-6.66-6.66-14.37-10-23.12-10-2.92 0-5 .21-6.25.63m-33.13 0-14.37.62.63.63c-5.42 2.92-8.13 6.88-8.13 11.87 2.08 4.59 4.58 6.88 7.5 6.88 1.25 0 2.3-.42 3.13-1.25v-1.25l-2.5-5.63c0-5.83 5.2-8.95 15.62-9.37h9.38l6.25-1.25-17.5-1.25m-235.63 22.5v5l-3.12 4.37-.63 1.25v1.25c3.34 7.09 7.3 11.46 11.88 13.13 2.5.83 3.96 1.46 4.38 1.87v3.13l-3.75-.63c-2.92 0-4.38.42-4.38 1.25 0 4.17 3.96 6.88 11.88 8.13l20 4.37c3.33.42 7.91 2.92 13.75 7.5l3.12 1.25 6.25 5c4.17 6.67 6.25 9.8 6.25 9.38l-.63 1.87-3.75-3.12-1.87-2.5.63-1.88-5-2.5-6.25-5.62c-.42-.42-1.67-.63-3.75-.63-2.92 0-6.46.63-10.63 1.88l1.25 4.37 4.38 5-8.13 3.13c-5 1.25-7.5 5.2-7.5 11.87 0 6.26 3.54 9.8 10.63 10.63-2.92-4.17-4.38-7.08-4.38-8.75 0-6.25 4.37-9.37 13.13-9.38 3.33 0 8.54 2.3 15.62 6.88v1.25l2.5 2.5v.62l4.38 6.25 4.37 10a7.7 7.7 0 0 0 3.75 5.63c2.08.83 4.37 1.67 6.88 2.5.41-1.67.62-3.75.62-6.25v-5c0-30.42-17.08-53.33-51.25-68.75a21.87 21.87 0 0 1-6.25-3.13c-12.08-4.58-18.13-11.25-18.13-20 0-6.24 3.13-9.16 9.38-8.75h.63c1.66 0 3.74.63 6.25 1.88-1.67-5.42-5-8.12-10-8.13-8.76 0-13.13 2.71-13.13 8.13 0 1.67.2 2.92.63 3.75m-60-6.88a6.8 6.8 0 0 1 2.5 1.25h1.25c1.25 0 1.87-.62 1.87-1.87 0-.83-.42-1.25-1.25-1.25h-.62l-3.75 1.87m-17.5 20.63 2.5 5 2.5 4.37 5 13.75 3.75 11.88 1.25 5 3.75 10.62 5.62 17.5 6.25 20 46.88 157.5 11.87.63c1.25.42 3.12.62 5.63.62 2.5 0 4.16.21 5 .63 8.33 2.92 13.33 4.38 15 4.37 1.25 0 1.87-.83 1.87-2.5 0-1.25-.2-2.08-.63-2.5l-20-57.5-51.25-167.5c-.41-2.08-.83-3.95-1.24-5.62v-5.63c0-9.58 3.33-15.2 10-16.87l7.5-2.5 5.62-2.5c1.67-1.25 2.5-2.3 2.5-3.13 0-2.08-1.67-3.12-5-3.12-2.08 0-7.3.62-15.63 1.87a160.28 160.28 0 0 1-23.74 1.88c-2.92 0-6.46-.2-10.63-.63l-11.25-1.25c-3.75-.83-7.3-1.45-10.62-1.87a66.84 66.84 0 0 0-6.88-.63c-3.75 0-5.62 1.67-5.62 5 0 1.67 2.5 3.13 7.5 4.38 2.08.42 6.25 3.33 12.5 8.75m133.75-3.13 4.37 4.38 7.5 12.5 4.38 10 13.75 43.12 33.75 112.5c.41 2.09.62 3.76.62 5 .42.84.63 1.05.63.63 0 5-2.71 12.08-8.13 21.25-.83 2.08-2.5 5.42-5 10-2.08 4.17-4.8 9.8-8.13 16.87l-3.75 7.5 5.63 3.13 4.38-1.25 8.75 3.12 1.87-4.37 5.63-11.25 1.87-5 5-8.13 3.75 1.25 3.13-6.87 1.87-3.75 16.25-36.88-8.13-23.12-3.75-12.5-30.62-102.5c-2.92-8.33-4.38-15-4.38-20 0-9.17 5.21-15.2 15.63-18.13 1.67-.41 2.5-1.45 2.5-3.12 0-2.08-.83-3.33-2.5-3.75l-3.75-.63-21.88 1.25-7.5.63-47.5-5c-7.08-.83-10.62.42-10.62 3.75 0 2.5 1.87 3.75 5.63 3.75 6.24 0 12.5 1.88 18.75 5.62m-82.5 37.5 2.5 9.38 6.25 16.87.62 2.5 1.25 5 4.38 13.75 2.5 9.38 1.25 3.12 1.25 3.75.62 2.5 5.63 16.88 1.25 5 6.87 22.5 6.25 19.37 5 15.63 2.5 6.87 4.38 15 5 15.63 1.87 4.37 2.5 8.13 2.5 6.87c1.67 11.25 4.58 16.88 8.75 16.88h.63L248.1 221.04c-2.92-8.33-4.38-14.8-4.38-19.38 0-9.16 1.67-13.75 5-13.75l16.88-6.25c1.25-.41 1.87-1.66 1.87-3.75v-.62l-3.13-4.38-3.12 5.63-15 5.62c-5.83 2.09-8.75 7.3-8.75 15.63 0 2.92 1.87 10.62 5.63 23.12m246.25-27.5-8.13-1.25v3.75c0 3.76.83 7.09 2.5 10l1.88 2.5 1.25 1.88 6.25 6.87 7.5 3.75 4.37 3.75 1.25 9.38-6.88-1.25-4.37-2.5-16.88-22.5c-4.58-6.25-11.25-9.8-20-10.63v1.25l1.88 4.38h-1.88c-3.75-2.5-6.45-3.75-8.12-3.75-2.5 0-5.42 2.3-8.75 6.87h1.88c6.66 0 12.29 2.3 16.87 6.88 1.67 1.67 2.7 2.92 3.13 3.75l3.12 5 1.25 1.25 2.5 4.37 1.88 2.5 4.37 6.88c8.33 8.33 16.88 12.5 25.63 12.5 13.75 0 20.62-5.83 20.62-17.5 0-5.42-1.04-9.17-3.13-11.25l-17.5-18.75c-3.33-3.33-5-7.7-5-13.13 0-6.66 3.96-11.45 11.88-14.37-4.17-.83-6.04-1.25-5.63-1.25-9.16 0-13.75 6.67-13.75 20v.62m-11.25-19.37c-.41 0-1.04.42-1.87 1.25v1.25c0 2.08 1.04 3.13 3.13 3.12 2.5 0 3.74-1.04 3.75-3.12 0-1.67-1.67-2.5-5-2.5m80.62 21.25c3.33 5.83 5 12.92 5 21.25 0 6.25-.2 9.8-.63 10.62l-6.25 22.5-26.87 97.5a307.8 307.8 0 0 0-3.75 13.75c-1.25 4.59-2.7 9.8-4.38 15.63l20-.63 15.63-51.25 16.88-71.25c1.25-4.58 2.29-8.74 3.12-12.5.83-3.74 1.46-6.87 1.88-9.37 5.41-27.92 11.45-43.13 18.12-45.63l14.38-5c2.5-.41 3.74-1.87 3.75-4.37 0-1.67-.84-2.5-2.5-2.5h-.63l-13.13 2.5c-1.25.42-6.04.62-14.37.62h-5.63c-17.08 0-29.58-1.25-37.5-3.75h-2.5c-4.58 0-6.87 2.09-6.87 6.25 0 2.09 2.08 3.96 6.25 5.63 3.75 1.67 7.3 3.33 10.63 5a40.6 40.6 0 0 1 9.37 5m-93.13-21.25h-.62c-3.33 0-5 1.67-5 5 0 2.08.83 3.13 2.5 3.12 3.75 0 5.62-2.08 5.63-6.25 0-1.25-.84-1.87-2.5-1.87m-67.5 0v1.87c0 2.09-1.05 4.17-3.13 6.25l-9.38 3.75-5.62 10v8.75l5 17.5 5 18.13c.42.83.83 2.3 1.25 4.37a38.81 38.81 0 0 1 2.5 7.5c.42.42 2.5 6.88 6.25 19.38l13.13 43.12 11.87 36.88 3.13-5.63-2.5-5.62-28.75-91.25-6.88-25.63c-.42-.41-.63-1.45-.63-3.12 0-1.67-.2-2.92-.62-3.75-2.08-9.17-3.13-15-3.13-17.5v-.63c-.83-3.33.63-6.04 4.38-8.12l6.88-3.13c4.58-2.08 6.87-5.2 6.87-9.37 0-2.5-1.88-3.75-5.63-3.75m221.25 0c-.41 3.75-1.87 6.46-4.37 8.12-2.5 1.25-4.17 1.88-5 1.88-9.17 3.33-15 6.25-17.5 8.75-2.08 2.08-3.75 6.67-5 13.75l-3.13 16.87-1.25 6.88-6.87 28.75-12.5 53.12-18.75 63.13 2.5.62c2.08 0 3.33-1.45 3.75-4.37 2.92-11.25 7.92-28.13 15-50.63l12.5-48.12 13.13-61.25c2.91-12.92 10.2-21.04 21.87-24.38 6.67-1.66 10-5 10-10 0-1.66-1.46-2.7-4.38-3.12m-310 16.25c-2.5 1.25-4.58 1.88-6.25 1.87a6.76 6.76 0 0 1-5-1.87l-2.5-5a13.92 13.92 0 0 0-1.87-4.38c-.42-1.66-.83-2.5-1.25-2.5-1.67 0-2.5 1.05-2.5 3.13 0 8.75 4.58 13.12 13.75 13.12 4.17 0 6.25-.83 6.25-2.5l-.63-1.87m-5-10c3.34 1.67 6.46 3.13 9.38 4.37l10 2.5c-3.33-4.16-9.8-6.45-19.38-6.87m171.25 11.25 2.5-1.88v-1.25c0-2.5-2.29-3.74-6.87-3.75-2.08 0-3.13 1.25-3.13 3.75 0 2.92 1.46 4.38 4.38 4.38-.42 0 .63-.42 3.13-1.25m-20-6.25c-1.67 0-2.5 1.04-2.5 3.12 0 1.67 1.04 2.5 3.12 2.5 1.25 0 2.3-.62 3.13-1.87l.62-.63c0-2.5-1.25-3.54-3.75-3.12h-.63m65.63 31.25c.83-2.08 1.46-3.12 1.88-3.13h1.87v16.25c1.25-1.25 1.87-2.29 1.88-3.12 0-.42-.21-1.67-.63-3.75a26.83 26.83 0 0 1-.63-5c0-2.5 1.25-4.37 3.75-5.63v11.25c0 2.5.84 3.96 2.5 4.38l-.62-8.13h2.5l.63 5c5.83-5 8.74-11.25 8.75-18.75 0-2.5-1.05-3.74-3.13-3.75l-3.75.63s-.2-.63-.63-1.88l-1.87-5.62c-1.25-2.92-2.7-4.37-4.38-4.38-7.5 0-11.25 5.63-11.25 16.88 0 2.5 1.05 5.42 3.13 8.75m-337.5-16.25c-9.17 17.92-13.75 36.25-13.75 55v3.75l1.25 8.12c.42 2.92 1.04 6.46 1.88 10.63.83 3.75 1.87 8.33 3.12 13.75l1.25 3.75 6.25 14.37 5 6.25 1.88 1.25 5-5 3.75-2.5c1.25-.41 1.87-1.25 1.87-2.5.42 0-.62-.41-3.12-1.25l-6.88-4.37 1.88 3.12v1.88l-6.88-4.38-5-6.25 3.75 1.25 5 5-4.37-6.25c-6.25-9.16-9.38-14.79-9.38-16.87 0-1.67.42-2.5 1.25-2.5.83 0 2.3.62 4.38 1.87l1.25 1.88c1.25 13.33 9.37 20 24.37 20 5 0 7.5-1.04 7.5-3.13 0-.83-.62-1.87-1.87-3.12l-2.5-4.38c4.58-4.58 6.87-8.74 6.87-12.5 0-6.66-3.54-12.91-10.62-18.75l-4.38-1.87-8.75-6.25c-1.25-2.92-1.87-5.42-1.87-7.5v-3.75c-5 2.08-7.5 4.17-7.5 6.25 0 8.75 2.08 13.33 6.25 13.75l13.12 2.5 5.63 5c.83 4.17 1.25 6.04 1.25 5.62 0 2.5-.84 5.21-2.5 8.13l-.63.62-5 1.88h-4.37c-2.5.83-5.21-.2-8.13-3.13-7.08-7.08-10.62-21.25-10.62-42.5 0-19.58 3.12-32.29 9.37-38.12 1.25-1.25 1.88-2.3 1.88-3.13 0-.83-.21-1.25-.63-1.25l-3.12-1.87-3.13 7.5m-2.5-6.25-6.25 5.62-3.12-.62c-1.67 0-2.5.62-2.5 1.87 0 2.09 1.45 3.13 4.37 3.13s5.2-2.08 6.88-6.25l.62-3.75m421.88 10c6.25 12.5 9.37 24.58 9.38 36.25v10c0 1.25-.21 2.7-.63 4.37l2.5 6.25a16.67 16.67 0 0 1 3.13-4.37 24.46 24.46 0 0 0 3.12-5.63v-6.25l.63-11.25-1.25-5-5-18.75c-2.5-9.16-5.63-13.75-9.38-13.75-2.92 0-4.38 1.05-4.38 3.13a8.3 8.3 0 0 0 1.88 5m-197.5-6.88-5.63 11.25-5 3.13-.62 1.25c0 1.25 1.04 1.88 3.13 1.87 3.74 0 6.66-2.5 8.75-7.5l1.25-6.25-1.88-3.75m-122.5 18.13h-5.63l-5.62.62-8.13-2.5c-5-2.91-7.5-6.04-7.5-9.37 0-2.08.84-3.96 2.5-5.63l-.62.63-3.75.62c-2.5.84-3.75 3.13-3.75 6.88 0 8.75 5.2 13.12 15.63 13.12h3.12l6.88-2.5h5l1.87-1.87m126.88-12.5 1.88 11.25-2.5 6.25-.63 8.75c0 5.83 1.04 12.3 3.13 19.37l1.25 1.25 2.5 4.38 2.5 1.25 1.25-2.5h1.87v6.25l3.13 3.12c2.5 2.92 4.79 4.38 6.87 4.38 2.5 0 3.75-1.25 3.75-3.75 0-1.25-1.67-2.92-5-5-6.67-4.17-10-12.5-10-25v-1.25l1.25-14.38c0-2.5-3.75-7.29-11.25-14.37m-224.38 24.37c1.25 4.17 3.54 6.26 6.88 6.25 5 0 7.5-1.66 7.5-5v-4.37l-5 1.25-3.13-.63-3.75-5-1.25-15-1.25 7.5c-1.67 4.59-2.5 7.3-2.5 8.13 0 1.67.83 3.96 2.5 6.87m220.62-11.87c-3.33 12.5-5 17.7-5 15.62v3.75c0 2.5.2 4.8.63 6.88l1.25 10c.41 2.08 1.04 5 1.87 8.75 1.25 3.75 2.92 7.92 5 12.5l1.88 5c.83 1.25 1.87 2.92 3.12 5a542.6 542.6 0 0 0 5 8.12c18.75 21.25 39.17 31.88 61.25 31.88 19.17 0 36.67-7.3 52.5-21.88 4.58-5.83 6.87-9.37 6.88-10.62 0-2.5-1.25-3.75-3.75-3.75-2.09 0-4.59 2.7-7.5 8.12-8.34 13.75-26.46 20.63-54.38 20.63-26.25 0-45.83-15.63-58.75-46.88-7.08-17.5-10.63-29.16-10.63-35v-2.5c0-2.08.21-3.74.63-5l.63-5.62c0-.42.62-2.92 1.87-7.5l-1.25-2.5-1.25 5m139.38 0h1.88l-3.75 1.25-5.63 10 8.13 4.37c1.25 3.34 2.5 5 3.75 5 2.08 0 3.95-1.25 5.62-3.75 1.67-2.91 2.5-5 2.5-6.25 0-.83-.42-1.25-1.25-1.25l-2.5.63c2.5-3.75 3.75-7.08 3.75-10 0-2.5-.63-3.75-1.88-3.75h-.62l-3.13 2.5-6.87 1.25m-97.5 33.12h1.88a39.98 39.98 0 0 1-2.5-13.75c0-8.74 2.91-13.54 8.75-14.37v-.63c0-3.33-1.67-5-5-5-5 0-7.5 3.76-7.5 11.25v1.25c.41 3.34.62 5.84.62 7.5.42 1.25.63 2.09.63 2.5l1.87 5 1.25 6.25m-162.5-30.62c-5.42 3.33-9.8 6.04-13.13 8.12a34.2 34.2 0 0 0-6.87 6.25 10.9 10.9 0 0 0-3.13 5.63c-.41 2.08-.62 4.8-.62 8.12 0 5.84 1.46 10.84 4.38 15 4.16 6.67 6.87 10 8.12 10 1.67-.41 2.5-.83 2.5-1.25v-1.87l-6.25-8.13c-1.67-1.66-2.5-5.41-2.5-11.25 0-7.5 2.5-13.95 7.5-19.37 5.42-5.42 11.67-8.12 18.75-8.13h.63l9.37 1.88 6.25-1.88-8.13-3.75-9.37-1.25-7.5-.62v2.5m-10 18.12v3.13c0 4.58 2.3 6.88 6.88 6.87 2.5 0 4.37-1.25 5.62-3.75-3.33-2.08-5-4.58-5-7.5 0-2.5.2-3.95.63-4.37l5-4.38-1.25-.62c-.42-.42-1.05-.63-1.88-.63-3.75 0-7.08 3.76-10 11.25m332.5 15c.42-2.08.63-3.95.63-5.62.41-1.67.62-3.12.62-4.38 0-9.58-3.54-14.37-10.63-14.37-2.08 0-3.33.62-3.75 1.87l-3.12 3.75 5.63.63c5.41.42 8.12 4.38 8.12 11.87v5l.63.63c.41 0 1.04.2 1.87.62m-78.75-20 4.38 5-1.25 1.88-6.88-3.13-.63 3.75 5.63 1.25-1.25 2.5c-1.25-.41-2.3-.62-3.13-.62l-.62-.63c-.83 0-1.88.63-3.13 1.88l7.5 4.37 1.88 3.75-2.5.63c-2.08-2.92-4.58-4.8-7.5-5.63l1.88 3.75-9.38-3.12 4.38 5.62c-.42.42-1.25.63-2.5.63h-1.25a6.81 6.81 0 0 0-2.5-1.25v3.12a7.78 7.78 0 0 0-5.63-2.5c-1.67 0-2.7.21-3.13.63v6.25c2.09 7.08 6.46 11.87 13.13 14.37l6.25 1.88 6.25 3.12v-.62c0-2.92 1.25-4.8 3.75-5.63l2.5 6.88 1.88 3.75c.83.42 1.45.83 1.87 1.25l3.75 1.25.63-7.5 5-11.25c.41-.42.62-1.67.62-3.75l-3.13-7.5-1.25-3.75 6.25-.63c.84 0 1.25-1.04 1.25-3.12 0-3.75-2.08-8.33-6.25-13.75a9.84 9.84 0 0 0-2.5-1.88l-1.25-1.25-3.12-.62-5-1.25-5 1.87m-73.13 24.38 10 1.87 3.75 4.38c-3.33 3.33-5 5.83-5 7.5 0 2.08 2.09 3.13 6.25 3.12l7.5-.62 3.75-.63c-.83 0-.83-.2 0-.62a60.8 60.8 0 0 1 4.38-1.25 40.77 40.77 0 0 0 4.38-2.5c1.25-.83 1.87-1.87 1.87-3.13v-1.25l-1.25-5.62 2.5-3.13-7.5 3.13c-1.67 1.67-3.13 2.5-4.38 2.5l-.62-.63-1.25-1.25c0 .84 3.75-1.66 11.25-7.5h-2.5c-1.25 0-2.7.84-4.38 2.5l-1.25-1.25c.42-.41.63-1.04.63-1.87 0-.42.2-.83.63-1.25 0-2.08-3.34-3.12-10-3.13-10 0-16.25 3.55-18.75 10.63m133.12-2.5-1.88 5.62h5c3.75-.41 7.92 2.3 12.5 8.13 1.25 4.58 1.87 8.33 1.88 11.25 0 6.25-2.3 15.83-6.88 28.75v5a38.5 38.5 0 0 1-3.75 16.25l6.25-3.75a98.2 98.2 0 0 1 6.88-5l2.5-6.25 4.37-8.75 2.5-6.25 3.75-15.63v-15l.63-9.37.62-6.25c-4.17 4.17-6.67 8.13-7.5 11.87l-1.25 21.25-3.13 8.75-1.25-1.25c0-.41-.2-.83-.62-1.25 0-.83.63-2.29 1.88-4.37 1.66-2.5 2.5-5 2.5-7.5 0-.83-.21-1.87-.63-3.13 0-1.25-.2-2.91-.63-5v-1.25a25.9 25.9 0 0 0-5-15.62c-3.33-4.58-7.08-6.87-11.25-6.88l-.62.63h-1.25l-5.63 5m-300.62 4.37-1.25-.62c-3.75 1.25-5.62 3.54-5.62 6.87 0 3.34 1.46 5 4.38 5 2.5 0 3.74-1.04 3.75-3.12 0-1.67-.21-3.12-.63-4.38l-.63-3.75m211.88 4.38-1.25 15.62-2.5-.62-.62-13.75-1.88 12.5c-2.08-.83-3.12-2.3-3.12-4.38v-1.87c-3.75 3.75-5.83 7.7-6.25 11.87l-1.88 12.5-.62 1.25c0 2.5 1.04 4.17 3.13 5l2.5-1.87 8.12-1.25 3.13-6.88h3.12l1.88 1.88c.41 1.25 1.04 1.88 1.87 1.87.42-.41.83-1.25 1.25-2.5a44.01 44.01 0 0 1 1.88-5.62v-1.88l-1.25-5.62-3.75-7.5.62 1.87h-2.5l-1.88-10.62M317.5 274.16c2.92-1.25 5.21-1.87 6.88-1.87s4.17 1.88 7.5 5.62c1.25-.41 1.87-.83 1.88-1.25 0-7.5-2.92-11.25-8.75-11.25-4.17 0-6.67 2.92-7.5 8.75m-19.38-5c-1.67 0-2.5.63-2.5 1.88 0 2.5 1.04 3.75 3.13 3.75 1.66 0 2.5-.83 2.5-2.5 0-2.08-1.05-3.12-3.13-3.13m9.38 5.63c-.84 0-1.25.83-1.25 2.5-.84 2.08.41 3.13 3.75 3.12 1.66 0 2.5-.83 2.5-2.5 0-2.08-1.67-3.12-5-3.12m276.25 8.75c2.91-1.25 5-1.87 6.25-1.88 1.66 0 3.74 1.46 6.25 4.38l2.5 5.62-1.88 11.25 1.88 1.25 1.87-6.25a32.12 32.12 0 0 0 1.88-10c0-9.16-3.55-13.75-10.63-13.75-4.17 0-6.88 3.13-8.13 9.38m-301.25-7.5c-1.25 0-1.87.42-1.87 1.25 0 2.08 1.04 3.13 3.13 3.12 1.25 0 1.87-.62 1.87-1.87 0-1.67-.83-2.5-2.5-2.5h-.63m10 2.5c-1.66.42-2.91 2.08-3.75 5l-.62 1.25c0 2.08 1.46 3.13 4.38 3.12 3.33 0 5-1.66 5-5 0-2.91-1.67-4.37-5-4.37m170 6.87.62 3.13-.63 6.25c-5.83 3.75-10.2 5.63-13.12 5.62-5.42 0-12.08-4.37-20-13.12a9.83 9.83 0 0 0-1.88-2.5 20.45 20.45 0 0 1-2.5-3.13c2.92 6.67 7.5 12.71 13.75 18.13l6.25 4.37 7.5 1.25c2.09.42 3.55.84 4.38 1.25h1.88c4.16 0 8.54-3.12 13.12-9.37 1.25-1.67 1.87-3.96 1.88-6.88 0-2.5-1.25-5-3.75-7.5-2.09-2.5-4.38-3.74-6.88-3.75-1.67 0-2.5.84-2.5 2.5l1.88 3.75m-136.25 1.88a22.2 22.2 0 0 1 10-2.5c7.5 0 13.95 3.54 19.37 10.62 5.42 6.67 8.12 14.8 8.13 24.38 0 4.17-1.25 8.33-3.75 12.5l-3.13 6.25v1.87c6.67-6.66 10-13.12 10-19.37 0-11.25-3.13-20.63-9.38-28.13-5.83-7.5-13.12-11.25-21.87-11.25-6.25 0-9.38 1.05-9.38 3.13v2.5m-50.62-2.5-1.25 1.25c0 .42-.2.83-.63 1.25 0 3.33 1.67 5 5 5 2.5 0 3.75-1.04 3.75-3.13 0-3.33-1.87-5-5.62-5l-1.25.63m28.75 0c-2.08 0-3.13 1.04-3.13 3.12 0 2.92 1.46 4.38 4.38 4.38 2.5 0 3.75-1.25 3.75-3.75s-1.67-3.75-5-3.75m13.13 0c-1.67 0-2.5 1.25-2.5 3.75 0 2.08 1.04 3.13 3.12 3.12 1.25 0 2.3-.62 3.13-1.87l.62-1.25c0-2.5-1.46-3.75-4.38-3.75m23.75 5.62a44.52 44.52 0 0 0-1.87 5.63c0 1.67-.2 3.13-.63 4.37-1.25 8.34-2.7 13.34-4.37 15l-5.63 9.38-.62.62v.63c.42 2.5 1.67 3.75 3.75 3.75l1.25-.63 3.13-3.75 10-18.12a87.04 87.04 0 0 0 1.87-8.13l.63-3.75c0-2.08-2.5-3.74-7.5-5m-50 1.88c-1.67.42-2.71 1.25-3.13 2.5v.62c0 2.92 2.08 4.38 6.25 4.38 2.08 0 3.12-1.04 3.13-3.13-.42-2.91-2.5-4.37-6.25-4.37m16.25 4.37-1.88.63c-1.67.42-2.5 1.04-2.5 1.87 0 2.09 1.25 3.13 3.75 3.13 2.08 0 3.12-1.04 3.13-3.13 0-1.66-.63-2.5-1.88-2.5h-.63M320 329.8l3.13 5c4.17 6.67 9.58 10 16.25 10 2.08 0 3.12-1.25 3.13-3.75 0-1.67-2.09-2.7-6.25-3.13-2.5-.41-5.42-2.7-8.75-6.87-4.59-7.08-6.88-12.3-6.88-15.63 0-7.5 2.08-11.25 6.25-11.25 1.67 0 3.54.63 5.63 1.88 1.25-1.67 1.87-2.92 1.87-3.75 0-2.08-2.3-3.12-6.88-3.13-7.91 0-11.87 5-11.87 15 0 5 1.46 10.21 4.38 15.63m-148.75-31.25c0 8.33 1.45 15.2 4.37 20.62 2.5 7.5 5 11.25 7.5 11.25 2.08-2.08 3.13-3.74 3.13-5 0-.83-2.09-3.95-6.25-9.37-.84-.42-2.92-4.37-6.25-11.88l-1.25-2.5a24.2 24.2 0 0 1-1.25-3.12m420.62 2.5-1.88 6.25-3.13 1.87.63-5.62h-4.38c-1.66-.42-3.54 1.46-5.62 5.62-1.67 3.76-2.3 6.88-1.88 9.38.84 7.08 1.05 10.83.63 11.25l-5.63 5-.62.62c0 1.67 1.25 2.5 3.75 2.5 6.67 0 10-5.83 10-17.5l-.63-3.12c3.34-.83 4.8-1.25 4.38-1.25.83 0 1.67.42 2.5 1.25 1.25 2.5 1.87 4.17 1.88 5 0 1.67-1.05 4.17-3.13 7.5l-4.38 6.25-5 5.62-3.75 4.38a547.34 547.34 0 0 1-8.12 5 24.16 24.16 0 0 0-4.38 3.12 74.04 74.04 0 0 0-2.5 5.63 57.96 57.96 0 0 1-1.87 6.87c7.92-1.66 15.42-5.41 22.5-11.25a32.82 32.82 0 0 0 5-3.12c1.67-1.25 3.54-2.7 5.63-4.38l8.12-11.25c3.75-5.83 10.2-8.95 19.38-9.37-3.34-2.5-5.42-3.75-6.25-3.75-2.92 0-5.84.83-8.75 2.5l-11.25 9.37-4.38 4.38-2.5 1.87-.63-1.87c7.92-6.67 11.88-15.63 11.88-26.88 0-2.91-1.25-6.87-3.75-11.87h-1.88m-308.12 14.37c2.5-2.5 4.38-3.74 5.63-3.75 1.25 0 3.12.63 5.63 1.88l1.25 1.87a8.48 8.48 0 0 1 2.5 6.25c0 2.92-3.55 6.67-10.63 11.25v1.88c.42 1.67 1.04 2.5 1.88 2.5 5.41 0 10.2-3.33 14.37-10 1.67-1.67 2.5-4.58 2.5-8.75 0-8.75-5-13.13-15-13.13-5 0-7.7 3.34-8.13 10M230 319.16c-3.75-5.41-8.75-8.12-15-8.12-3.75 0-6.45.62-8.12 1.87l-5.63 4.38-4.37 3.12-3.13 4.38-12.5 14.37c-3.75 5-6.04 9.17-6.87 12.5l-5.63 21.25c-1.66 5-2.08 7.92-1.25 8.75l1.88 15 4.38 14.38c1.66 0 2.5-.63 2.5-1.88 0-.83-.63-2.29-1.88-4.37-.83-.42-1.46-2.92-1.88-7.5l-1.25-5v-8.13c0-13.33 2.71-25.2 8.13-35.62 2.92-7.08 9.8-15.42 20.63-25 5.83-5.83 11.66-8.75 17.5-8.75 2.91 0 5 .83 6.25 2.5a7.87 7.87 0 0 1 3.12 4.37c.42 1.67.63 3.34.63 5 .41 1.25.83 1.88 1.25 1.88 1.66 0 2.5-.63 2.5-1.88l-.63-.62v-2.5c0-1.67-.2-3.12-.63-4.38m281.25 2.5c10.42 0 15.63 1.88 15.63 5.63 0 2.08-.2 3.33-.63 3.75 5-1.25 7.5-3.12 7.5-5.63 0-6.24-3.33-9.37-10-9.37-3.33 0-7.5 1.88-12.5 5.62m-186.88 26.25-.62 3.75c-.83 5 2.08 7.5 8.75 7.5 12.92 0 19.38-8.33 19.38-25 0-10.83-1.46-16.25-4.38-16.25-1.67 0-2.5 1.05-2.5 3.13v2.5l3.13 8.12v1.25c0 4.17-1.25 8.34-3.75 12.5-3.34 5.84-7.09 8.76-11.25 8.75-2.09 0-5-2.08-8.75-6.25m115.62-28.75c-.84 18.34-5.84 36.46-15 54.38l-20.63 40.62-3.75 10.63-6.25 11.25-.63 4.37c-1.25.84-1.87 1.46-1.87 1.88.42.42.63.83.63 1.25l.62.62v1.88l1.25 1.87 10-22.5 28.75-56.87 8.75-22.5 1.88-8.13 4.37-14.37c0-2.5-2.7-3.96-8.13-4.38m-15.62 3.75c5.83 3.76 8.75 9.17 8.75 16.25-.42.84-.83 2.3-1.25 4.38 0 1.67-.42 3.75-1.25 6.25l4.38-13.75c0-10.83-2.3-16.25-6.88-16.25h-1.25l-2.5 3.12m-206.25 31.25 1.25 1.88 2.5 3.12 4.38 5a77.67 77.67 0 0 1 7.5 15.63 77.02 77.02 0 0 1 4.37 18.12l1.25.63-.63-2.5a14.93 14.93 0 0 0 3.76-10c0-5-.84-8.33-2.5-10l-4.38-6.25 6.88-1.25-5.63-14.38-5.63-6.87c-2.91-2.92-5.62-4.8-8.12-5.63-6.67-2.5-10.42-4.16-11.25-5l-2.5-6.87 8.13-2.5-1.88-4.38h-.63a7.29 7.29 0 0 0-1.87-1.25l-1.25-.62c-1.67 0-4.38 1.67-8.13 5-3.74 3.33-5.62 6.04-5.62 8.12 0 1.67 1.25 3.34 3.75 5 7.5 6.26 12.92 11.25 16.25 15m242.5-29.37c4.58 3.75 6.87 6.46 6.88 8.12 0 2.09-.63 4.59-1.88 7.5 5.83-.83 8.75-2.7 8.75-5.62 0-2.08-1.46-4.37-4.38-6.88-2.91-2.91-5.41-4.37-7.5-4.37l-1.25.62-.62.63m28.13 7.5c-3.76 3.75-5.21 6.46-4.38 8.12v3.13l2.5 6.25 3.13 7.5 1.25 5c0 6.25-5.84 10.2-17.5 11.87v3.75c15-1.66 22.5-8.54 22.5-20.62 0-.83-.21-1.46-.63-1.88l-5-10.62v-1.88c0-5.41 3.12-8.12 9.38-8.12 4.16 0 7.91 2.3 11.25 6.87.41 2.09.62 3.96.62 5.63.42 1.25.63 2.5.63 3.75 0 2.08-2.3 7.3-6.88 15.62a58.5 58.5 0 0 1-13.13 10 43.66 43.66 0 0 0-6.25 3.13 74.11 74.11 0 0 1-5.62 2.5l-1.88 1.87-6.87 5c-3.75 2.5-5.63 6.88-5.63 13.13 0 7.92 3.96 12.08 11.88 12.5l8.13.62 6.25 1.88c3.74 2.92 5.83 5.83 6.25 8.75l1.87 1.25c3.33-5.83 5-10 5-12.5 0-.42-.42-1.87-1.25-4.38l-2.5-6.25 5-2.5v-.62c0-.83-1.04-1.67-3.13-2.5l-9.37-1.25-9.38 5.62h-2.5c-3.75 0-5.62-1.66-5.62-5 0-2.91 1.67-4.37 5-4.37l16.88.62c6.24 0 11.45-3.33 15.62-10 1.25-1.66 1.87-3.12 1.88-4.37 0-1.25-1.46-1.87-4.38-1.88l-5.63.63v-2.5c12.5-6.67 18.75-16.67 18.75-30 0-3.33-1.04-5.42-3.12-6.25-.42 1.67-1.04 2.5-1.88 2.5-.83 0-1.66-.63-2.5-1.88a19.63 19.63 0 0 0-3.75-5c-1.25-1.66-3.12-3.12-5.62-4.37-2.5-1.67-5.63-2.5-9.38-2.5-5 0-8.33 1.25-10 3.75m-254.38 2.5-5.62-1.25 5.63 1.25m-17.5-1.88v1.25l5 2.5-5-3.75m75 10 .62 3.75.63 1.88 11.87-3.75s.63-.2 1.88-.63c1.25-.83 3.33-1.66 6.25-2.5 3.74-1.66 5.62-3.12 5.62-4.37 0-2.92-1.25-4.37-3.75-4.38l-23.13 10m-63.12-4.37 8.75 5.62c-.83-3.74-3.75-5.62-8.75-5.62m388.12 8.75 3.75-1.88v-.62l.63-.63c0-1.66-.84-2.5-2.5-2.5-1.67 0-2.5.84-2.5 2.5 0 1.67.2 2.71.62 3.13m-425-5.63-1.87 3.75 4.37 10v3.75c0 2.92-1.67 5.63-5 8.13-.42.42-1.46.62-3.12.62-1.67 0-3.34-.83-5-2.5 1.25 7.09 4.37 10.63 9.37 10.63 7.5 0 11.25-5.2 11.25-15.63 0-7.08-3.33-13.33-10-18.75m167.5 7.5c1.67-.41 2.92-.62 3.75-.62 1.25-.42 2.3-.63 3.13-.63 2.5 0 5.2 2.09 8.12 6.25l1.25 6.25c0 2.92-2.92 8.55-8.75 16.88l-1.25 6.25c0 4.17 2.08 6.25 6.25 6.25.83 0 2.3-1.04 4.38-3.13-3.34-2.08-5-3.95-5-5.62l.62-1.88c1.67-6.66 4.37-10 8.13-10l.62-5 1.25-5c0-5.41-3.13-9.79-9.38-13.12a12.06 12.06 0 0 0-6.25-1.88c-3.75 0-6.04 1.67-6.87 5m101.88 27.5 1.25-3.12c-10.42-2.92-15.63-8.12-15.63-15.63 0-4.58 3.34-7.08 10-7.5 0-1.66-.83-2.5-2.5-2.5-7.08 0-10.62 3.34-10.62 10 0 7.5 5.83 13.75 17.5 18.75m.63-19.37 3.75-1.88c1.66-1.66 3.95-2.5 6.87-2.5l1.25 1.25 8.75 5v-4.37c-.83-4.58-4.8-6.87-11.88-6.88-2.91 0-6.45 2.09-10.62 6.25-4.17 3.76-6.25 7.09-6.25 10 .83.84 1.46 1.25 1.88 1.25.41 0 .83-.2 1.25-.62l5-7.5m147.5-3.75c2.5-.42 3.74-1.46 3.75-3.13 0-1.25-.84-1.87-2.5-1.87-1.25 0-1.88.83-1.88 2.5 0 1.25.2 2.08.63 2.5m-313.75.62c10.41.42 15.83 4.59 16.25 12.5 4.16-.41 6.24-2.29 6.25-5.62 0-7.08-4.59-10.63-13.75-10.63-1.67 0-2.71.21-3.13.63l-5.63 3.12m294.38-2.5 3.75-.62c-.83.42-2.5 1.46-5 3.12-2.5 1.67-6.04 3.96-10.62 6.88 2.08-.42 3.75-.63 5-.63 1.67-.41 2.92-.62 3.75-.62 1.67 0 5.2 1.04 10.63 3.12.83-3.33 1.25-5.2 1.25-5.62 0-1.67-2.92-3.54-8.75-5.63m-238.75 2.5-.63 2.5c0 .84.42 1.25 1.25 1.25 1.25 0 1.87-.41 1.88-1.25 0-1.66-.63-2.5-1.88-2.5h-.63m268.13 0c-.84 0-1.67 1.05-2.5 3.13v1.25c0 2.5 1.04 3.75 3.12 3.75s3.12-1.25 3.13-3.75c0-2.92-1.25-4.37-3.75-4.38m-260 3.75c-1.25.84-1.88 1.46-1.88 1.88l.63 1.25 1.25 1.25c.41 0 .83.2 1.25.62.83 0 1.25-.62 1.25-1.87 0-1.67-.84-2.7-2.5-3.13m248.12 1.88-1.88 1.25v2.5c0 2.5 1.04 3.75 3.13 3.75 2.08 0 3.12-1.46 3.12-4.38-1.67-1.66-3.13-2.7-4.38-3.12m-391.25 0c-2.91 5.42-5.41 9.8-7.5 13.12-1.66 3.34-2.91 5.42-3.74 6.25l-9.38 10c-5.42 5.42-8.12 8.96-8.12 10.63.41.83 1.66 1.46 3.75 1.87l4.37-8.12 9.38-9.38c6.25-6.24 10.41-14.16 12.5-23.75l-1.25-.62m231.25 16.87c2.08 7.09 6.04 10.63 11.87 10.63 7.08 0 10.63-5 10.63-15 0-7.92-1.67-11.88-5-11.88-.42.42-.84.63-1.25.63v1.87l3.12 8.13v3.12c0 5.42-2.92 8.13-8.75 8.13-2.08 0-3.54-.42-4.38-1.25l-2.5-3.75-3.75-.63m-96.25-14.37c-1.25.83-1.87 1.67-1.87 2.5 0 2.08 1.04 3.13 3.13 3.12.83 0 1.66-.62 2.5-1.87v-1.25c0-1.67-1.05-2.5-3.13-2.5h-.63m6.88 10-1.25-.63.63 1.88-6.25-1.25-1.88-.63-.63-.62-1.87 1.87 1.25 1.25 1.88 3.13 6.87 3.12c-2.08 5.42-4.58 9.17-7.5 11.25-2.92 2.09-9.17 4.17-18.75 6.25.42 1.67 1.67 2.5 3.75 2.5l5-1.87 9.38-3.13c2.5-.83 4.58-2.5 6.25-5l1.87-3.12 2.5-3.75v-5l3.13-3.75 1.25-8.75h-3.13c-1.67 0-2.5 2.08-2.5 6.25m257.5-5.63-1.88 1.88v1.25c0 2.08.84 3.13 2.5 3.12 2.09 0 3.13-1.04 3.13-3.12s-1.04-3.12-3.13-3.13h-.62m-180.62 4.38c-1.67 1.67-2.5 3.33-2.5 5 0 8.33 1.04 12.5 3.13 12.5l4.37 13.12 5.63 14.38c.41.83 1.04 2.5 1.87 5 .83 2.5 2.5 6.88 5 13.12l3.75 10.63 4.38 9.37 4.37-3.12v-1.25c0-4.17-1.88-9.17-5.63-15a138.69 138.69 0 0 0-5.62-9.38 48.11 48.11 0 0 1-2.5-5.62l-16.25-48.75m-104.38 5.62c5.83.84 8.75 3.55 8.75 8.13 0 2.08-1.25 5.2-3.75 9.37l3.75-3.12 3.75-9.38.63-1.25c0-5-3.13-7.5-9.38-7.5h-1.25l-2.5 3.75m275-3.75-1.25 1.25c-.42 0-.83.42-1.25 1.25v1.25c0 2.09.83 3.13 2.5 3.13 2.5 0 3.75-1.04 3.75-3.13 0-2.5-1.25-3.74-3.75-3.75m-15.63.63-6.25 3.75-6.25 1.25-1.25 6.87-26.25-2.5-6.87-.62h-3.13l-20 1.87c2.5.42 4.59.84 6.25 1.25h20.63a69.34 69.34 0 0 1 29.38 5l-1.88 5c4.17 1.25 8.75 3.55 13.75 6.88 1.67-1.25 2.5-2.3 2.5-3.13 0-3.74-3.13-6.66-9.38-8.75l-.62-3.12c6.25-2.92 9.37-6.04 9.38-9.38v-4.37m31.87 3.12c-.83 0-1.25.42-1.25 1.25l-.63.63c0 2.08 1.05 3.13 3.13 3.12 1.67 0 2.5-.83 2.5-2.5 0-1.66-1.04-2.5-3.13-2.5h-.62m-316.88 5h1.25c2.08 0 4.37 1.25 6.88 3.75 1.25 2.09 1.87 3.34 1.87 3.75 0 .42-.2 1.67-.63 3.75 0 2.09-.2 5.42-.62 10 .83 2.5 2.08 3.55 3.75 3.13h1.88c-2.09 6.25-3.13 10.2-3.13 11.87 0 3.34.2 5.63.63 6.88l.62 3.75c2.92 9.17 7.3 15.62 13.13 19.37-6.26-10.41-9.38-18.75-9.38-25 0-2.5 1.04-6.24 3.13-11.25h2.5c.41 2.92 1.66 4.38 3.75 4.38 1.25 0 2.08-.2 2.5-.63l9.37-5h6.25c-5-3.74-8.96-5.62-11.88-5.62l-6.24.62-4.38-4.37-.63-11.88c-.83-8.33-5-12.5-12.5-12.5-3.33 0-6.04 1.67-8.12 5m308.75-3.75c-1.25 7.5-5 11.05-11.25 10.63h-11.88v1.87l2.5.63h3.75l7.5.62 8.75-4.37c2.09-3.33 3.13-5.2 3.13-5.63 0-1.25-.83-2.5-2.5-3.75m-183.75 3.13-1.88 2.5a289.7 289.7 0 0 0-5.62 11.87l-5 10-5.63 10.63c-.41.83-.83 1.88-1.24 3.12l-1.25 2.5c1.66 4.17 3.54 10.21 5.62 18.13l15.63 40.62 3.75 6.88 1.25 3.75c1.66-2.5 2.7-4.58 3.12-6.25 2.92-7.5 5.42-12.3 7.5-14.38l11.88-13.75v-1.25l.62-.62-.63-1.25-6.87-15-21.25-57.5m-240.62 28.75.63-2.5c-6.25-3.75-9.38-7.92-9.38-12.5 0-5 2.08-7.5 6.25-7.5l5 .62c.83-3.33 1.25-4.37 1.25-3.12-.83-1.25-2.5-1.87-5-1.88h-1.25c-6.25-.41-9.37 3.34-9.37 11.25 0 6.26 3.95 11.46 11.87 15.63m345-22.5 5.63.62-5.63-.62m6.88 2.5c.41.42 1.45.62 3.12.62.83 0 1.25-.41 1.25-1.25 0-1.66-.63-2.5-1.88-2.5s-1.87.42-1.87 1.25l-.63 1.88m-7.5.62h-6.25c-8.33 0-13.95 1.88-16.87 5.63.42 1.25 1.25 1.88 2.5 1.87h4.38l5.62-.62c10.83 0 26.04 3.75 45.63 11.25 7.5 3.33 14.79 8.54 21.87 15.62l5 5.63 5.63 8.12 5.62 9.38 3.75 8.75 2.5 6.25 1.25 6.25v1.87l1.25 6.88 1.25 6.87c.42.84.63 2.92.63 6.25 0 4.17-.21 6.88-.63 8.13l-1.88 15.62-.62 8.75v-1.25l-1.88 3.13.63 1.88-1.88 2.5.63 1.87-3.75 5-2.5 8.13-2.5 4.37-2.5 5c-11.67 16.67-26.46 25-44.38 25a29 29 0 0 1-18.12-6.25v3.13c-.42 2.91 1.87 5 6.88 6.25l.62 2.5-6.25 2.5-.63 1.25c0 .83.21 1.25.63 1.25l10.63 1.25 1.87-.63 19.38-5.63 3.12-1.87 13.13-7.5 10.62-10.63h1.25c1.25 0 1.87.63 1.88 1.88l-.63.63-3.13 3.12-1.25 2.5-5 3.75-3.75 3.75-6.25 11.88c3.34.83 4.38 1.25 3.13 1.25 1.67 0 3.54-1.05 5.63-3.13l3.12 1.25c1.67 6.25 7.5 9.38 17.5 9.38 3.75 0 6.04-.63 6.88-1.88v-1.88l4.37-6.87c.42-.42.63-1.46.63-3.13v-1.25l-4.38-11.87-1.25-6.88c-2.5 3.34-3.75 5.63-3.75 6.88l.63 1.25 1.87 11.25c0 2.5-1.25 3.96-3.75 4.38 0 2.5-.63 3.75-1.88 3.75-5.41 0-8.12-3.34-8.12-10 0-6.67 1.04-10 3.13-10l5.62-11.25 3.13-11.25 3.75-8.75 1.87-6.25 2.5-11.25c1.67-6.25 2.5-15.21 2.5-26.88 0-30.83-7.7-55.2-23.13-73.13a76.39 76.39 0 0 0-5.62-6.25 53.24 53.24 0 0 0-6.88-6.87c-14.58-11.25-32.91-18.54-55-21.88m-332.5 3.75v1.88a68.1 68.1 0 0 1 3.76 5c2.5 2.92 3.95 4.38 4.37 4.37 1.25 0 1.88-.62 1.88-1.87s-3.34-4.37-10-9.38m1.87 15.63-2.5 2.5c1.25.42 3.33.62 6.25.62s5.83-1.04 8.75-3.12c3.33-2.08 5-4.37 5-6.88 0-1.66-.62-3.33-1.87-5-1.25-1.66-2.71-2.5-4.38-2.5-1.25 0-1.88.42-1.87 1.25 0 .84.83 1.88 2.5 3.13 1.66 1.25 2.5 2.08 2.5 2.5 0 5.83-3.55 8.33-10.63 7.5h-3.75m144.38-11.25c6.25 1.25 9.58 4.38 10 9.37 2.92-.41 4.37-1.87 4.38-4.37 0-4.17-2.5-6.25-7.5-6.25h-2.5l-4.38 1.25m113.75.62c-2.5 3.76-3.75 6.26-3.75 7.5 0 2.5 2.7 5 8.13 7.5l-4.38-15m70 1.25c15 5.84 25.42 12.3 31.25 19.38 2.08 5.42 3.12 9.17 3.13 11.25 0 2.92-1.25 6.46-3.75 10.62-4.59 3.34-8.34 5-11.25 5-4.59 0-7.92-4.16-10-12.5-2.5 2.09-3.76 5-3.75 8.75v1.88c2.91 7.92 8.12 11.87 15.62 11.87 2.92 0 5.2-.83 6.88-2.5l3.12-3.12c2.5-.42 3.96.83 4.38 3.75l.62.62h1.25c2.08 0 4.17-2.5 6.25-7.5 2.5-5.41 3.75-9.37 3.75-11.87 0-16.25-9.58-26.88-28.75-31.88-1.25-.83-3.33-1.45-6.25-1.87l-12.5-1.88m-328.75 3.75c-.83-1.25-1.46-1.87-1.87-1.87-4.59 0-6.88 3.96-6.88 11.87 0 5.84 1.04 9.38 3.13 10.63l2.5 1.25.62 1.25 5.63.62c-1.25-.41-2.71-1.45-4.38-3.12-2.92-2.5-4.37-6.04-4.37-10.63 0-2.08 1.87-5.41 5.62-10m311.25 0-1.88 3.75a129.12 129.12 0 0 0-5.62 13.75 181.34 181.34 0 0 0-6.25 20.63c-2.92 8.75-5.42 16.04-7.5 21.87l-3.75 13.13c-.42 1.25-.83 2.3-1.25 3.12v.63a165.52 165.52 0 0 1-5 16.87c-.42.84-.83 1.25-1.25 1.25-.42-.41-.83-.62-1.25-.62-4.58 0-8.13-4.17-10.63-12.5-.83-3.33-1.87-5-3.12-5-.83 0-6.46 6.25-16.88 18.75-3.33 5.83-5 9.58-5 11.25 0 2.5 2.09 7.92 6.25 16.25.42 2.5 1.67 6.04 3.75 10.63l3.75 8.12 3.75 8.75 4.38 5.63a40.05 40.05 0 0 0 8.13-11.88l2.5-4.38 28.75-63.12 26.25-74.38-18.13-2.5m68.75.63 5.63 3.75 15.62 13.75c.42 1.25 1.46 1.88 3.13 1.87h.62c3.33 0 6.04-1.04 8.13-3.12a7.82 7.82 0 0 1 1.87-3.13v-6.87l-6.88 3.75h-3.12c-3.75 0-9.8-2.3-18.13-6.88l-6.25-3.75-.62.63m-130 0 1.88 8.12 1.25 1.25-3.13-9.37m81.88 1.87-16.88 51.25a409 409 0 0 0-3.13 8.13 85.52 85.52 0 0 1-4.37 11.25l-2.5 6.25-8.75 19.37-9.38 24.38-10 17.5-4.37 10a37.7 37.7 0 0 0-2.5 3.13 122.4 122.4 0 0 0-5.63 6.25c1.25 2.08 2.5 3.12 3.75 3.12s4.17-3.75 8.75-11.25l11.25-21.25 25.63-58.75 20-59.38c1.25-4.16 1.87-6.87 1.88-8.12a4.2 4.2 0 0 0-3.75-1.88m-292.5 33.13 1.25 1.25v1.25l.62 8.12-6.87 4.38 1.87 1.25-1.25 2.5-1.87 1.87-1.88 3.75-1.25-4.37c-2.08 5-3.13 7.7-3.12 8.12 0 1.67 1.25 3.96 3.75 6.88l3.75-5.63 11.25-4.37 5-10.63 5.62-2.5 3.13-5.62c.41-1.67 3.74-2.5 10-2.5 22.91 0 41.45 3.96 55.62 11.87l5.63 3.13c.83.42 2.29 1.67 4.37 3.75s3.96 3.13 5.63 3.12c1.25 0 1.87-.62 1.87-1.87 0-6.67-13.54-13.13-40.63-19.38a223.15 223.15 0 0 0-19.37-3.75 57.73 57.73 0 0 0-14.38-.62l-3.12.62c-4.58.84-7.08 1.05-7.5.63l-2.5-2.5-6.25-1.25-3.75-5-1.25-1.88c-9.58-5.83-14.37-9.58-14.37-11.25 0-3.33 1.87-5 5.62-5 .42 0 .83.21 1.25.63l4.38 6.87c2.08 2.09 3.74 3.13 5 3.13 5.83 0 8.74-2.7 8.75-8.13 0-1.66-1.25-3.12-3.75-4.37-.84 3.33-2.09 5-3.75 5-.84 0-1.67-.42-2.5-1.25l-6.88-7.5c-.42-.42-1.46-.63-3.12-.63-7.5 0-11.25 4.17-11.25 12.5 0 5.84 1.66 9.8 5 11.88l6.87 3.75 4.38 3.75m152.5-20.63c-4.59 8.34-7.09 13.75-7.5 16.25 0 .84.62 1.46 1.87 1.88l5-10 4.38-8.75 2.5-5.63c.41-.41.62-1.25.62-2.5s-.42-1.87-1.25-1.87h-.63l-5 10.62M169.98 452.3c.84 8.75 3.34 16.46 7.5 23.12 1.26-1.66 1.88-3.12 1.88-4.37 0-.83-1.04-3.75-3.12-8.75-2.09-5-3.13-9.17-3.13-12.5 0-7.5 1.67-16.67 5-27.5 2.5-8.33 4.17-11.46 5-9.38l-.62-.62c-.84-.83-1.46-1.25-1.88-1.25-2.08 0-4.58 3.75-7.5 11.25-2.5 7.5-3.75 13.54-3.75 18.12l.63 11.88m45.62-36.88-1.25 3.13 3.13 8.75 1.25 16.87 2.5-1.25c.83-.83 1.25-1.66 1.25-2.5v-1.25l-.63-3.75-1.25-8.75-1.87-5.62c-.42-1.67-1.46-3.54-3.13-5.63m-31.87 6.25-.63 3.75c0 9.17 10 14.59 30 16.25v-1.87c-12.5-2.08-22.3-8.12-29.37-18.13m285 9.38 6.25-1.25c2.5 0 5 2.7 7.5 8.12v3.13a35.93 35.93 0 0 1-5.63 5.62 68.24 68.24 0 0 1-5.63 5l-2.5 1.25c-.41.42-1.04.84-1.87 1.25l-5.63 3.75v1.25c.84-.83 1.67-1.25 2.5-1.25l2.5-1.25c15.42-6.66 23.13-13.54 23.13-20.62 0-8.75-3.96-13.13-11.88-13.13-4.16 0-7.08 2.71-8.75 8.13m116.88-8.75v1.87l3.13 4.38 1.25 2.5 3.13 5.62 1.87 7.5 1.25 5v7.5l-5.63 5.63-8.75-.63c.42 6.67 3.13 10 8.13 10 8.33 0 12.5-6.04 12.5-18.12 0-10.83-5.63-21.25-16.88-31.25m-246.88 20.62 6.88 3.13h10c8.75 0 15 5.2 18.75 15.62a32.12 32.12 0 0 1 1.88 10v2.5l-1.25 5.63v5l2.5 2.5.62 1.25 3.75 3.75 2.5-6.25 2.5-3.75 4.38-5 .62-4.38 1.25-14.37c.83-7.5-2.92-14.17-11.25-20a7.86 7.86 0 0 1-3.13-1.88v.63h-1.25l-1.25 5c-.83-.42-2.08-1.46-3.75-3.13-4.58-3.33-9.16-5-13.75-5-.83 0-2.91.42-6.25 1.25l-5.62 3.75-8.13 3.75m70.63-1.87c-3.33 3.33-6.67 8.33-10 15-2.08 3.33-3.13 5.42-3.13 6.25 0 2.5.21 4.17.63 5l3.75-2.5 5.63-10 6.25-6.88-3.13-6.87m-226.25 1.87c-3.75 3.34-5.62 5.84-5.62 7.5 0 5.42 3.95 8.13 11.87 8.13 2.92 0 7.3-2.3 13.13-6.88-3.75 1.25-6.46 1.88-8.13 1.88l-5.62-.63-1.25-.62-1.88-1.25-2.5-8.13m54.38 1.88c-20 3.75-36.46 12.08-49.38 25-12.5 12.5-19.17 27.7-20 45.62l-.62 13.13-.63-4.38.63 10.63 1.87 8.75 2.5 15.63 1.88 6.25c.41 2.08.62 3.95.62 5.62.42 1.67.63 3.33.63 5 0 5-.84 9.8-2.5 14.38-1.67 2.91-2.5 4.79-2.5 5.62 0 1.25.83 1.88 2.5 1.88 8.75 0 13.12-4.59 13.12-13.75 0-3.34-1.87-7.92-5.62-13.75a4.78 4.78 0 0 1 1.87-.63l.63-.63 1.25 1.25c.41 0 1.04.42 1.87 1.25l1.88 2.5c3.75 3.75 7.29 5.63 10.62 5.63h3.13c1.25-.42 2.91-.83 5-1.25v-3.75l5 .63c7.91.41 11.87-2.71 11.87-9.38l-.62-3.75-3.75 3.75-12.5 2.5v-1.88c-1.25.42-2.3.84-3.13 1.25h-.62c-1.25 0-3.13-.62-5.63-1.87l-4.37-1.88-1.88-1.87-5.62-5c-6.25-10.42-9.38-20-9.38-28.75 0-15.83 4.58-31.46 13.75-46.88 9.17-15.41 19.38-24.79 30.63-28.12l11.87-2.5 5.63-3.75v-2.5m118.75 6.25-18.75 37.5c-2.5 4.58-4.17 6.88-5 6.87-2.09 0-3.55-.2-4.38-.62l-3.13-5.63-9.37-31.87-4.38-2.5-4.37-1.25a38.78 38.78 0 0 0-7.5-.63 185.6 185.6 0 0 1-9.38-1.87c-4.58-1.67-8.75-2.5-12.5-2.5-1.25 0-2.08.2-2.5.62-2.5 1.25-3.54 3.34-3.12 6.25.42 2.5 2.08 3.76 5 3.75l11.25 30 25.63 65c1.66 3.34 2.91 5.21 3.75 5.63 2.08 0 5.41-4.17 10-12.5l42.5-79.38c.41-.41.62-1.04.62-1.87 0-6.67-4.8-11.67-14.38-15m134.38-.63-15 4.38c-9.58 2.08-18.95 9.8-28.12 23.12l-5.63 8.75c-5.83 9.59-8.75 21.46-8.75 35.63 0 6.25 2.09 14.8 6.25 25.63l3.13 7.5 3.75 6.25 2.5 6.25 5 3.75 5 4.37 5.63 3.75 3.75 3.75 13.12 6.25 12.5 6.88c7.5 3.33 19.38 5 35.63 5 12.5 0 22.29-1.46 29.37-4.38l.63-1.25 5-1.88 16.87-7.5 1.25-5.62-8.75 3.13-8.75 5-5 .62-15.63 4.38-19.37 1.25h-3.75a68.57 68.57 0 0 0-7.5-1.25l-4.38-.63-6.25-1.88-1.87-.62-5.63-2.5c-37.08-14.58-55.62-37.5-55.62-68.75 0-10.42 3.75-21.67 11.25-33.75 5.83-8.75 10.83-13.96 15-15.63l5.63-2.5 6.25-4.37 11.25-1.88a24.48 24.48 0 0 0 1.87-5l2.5-6.25h-3.13m-294.38 25-5 6.88 4.38 1.25 3.75-9.38 8.75-7.5 10-7.5 8.75-3.75-.62-1.25c-.42-.41-1.05-.62-1.88-.62-4.17 0-13.54 7.3-28.12 21.87m123.12-13.12 2.5 6.25.62 3.12 5 14.38 1.88 6.87a5.71 5.71 0 0 0 4.37-3.75l-5-6.25-1.25-5-3.75-10.62-1.88-7.5-3.12-2.5.63 5m205.62 6.25c6.24 1.25 10.83 3.96 13.75 8.12l1.25 1.25 1.87 8.75 3.75 3.13h-6.88c-1.25-3.75-2.5-5.62-3.75-5.63-1.25 0-2.7.63-4.37 1.88-2.92 1.25-5 3.33-6.25 6.25a48.14 48.14 0 0 0-2.5 5.62c-2.5 7.09-3.75 10.84-3.75 11.25l-1.25 25c0 2.09-1.04 5.84-3.13 11.25-3.75 9.17-9.16 14.17-16.25 15 1.26 4.17 3.34 6.25 6.26 6.25 6.24 0 9.79-1.25 10.62-3.75l3.75-8.75 5 1.88 1.88 3.75h1.87l1.88-1.88 4.37-6.25 1.25-3.12 1.25-3.13.63-5-3.13 1.88-1.88-.63 1.25-10.62h1.25l1.88 2.5 3.13-6.25-2.5-16.88c0-1.66 1.04-2.5 3.12-2.5 4.17 0 6.25 2.71 6.25 8.13v.63l-.63 1.25-5 13.12-.62 5c0 9.58 1.25 14.38 3.75 14.38 1.67 0 3.96-2.09 6.88-6.25l1.87 1.87c-2.92 4.17-4.38 8.13-4.38 11.88 0 1.25.63 3.33 1.88 6.25 4.17 4.16 6.87 6.45 8.13 6.87l2.5-5 8.75-8.75c.83-.83 1.66-2.92 2.5-6.25.83-3.33 2.08-5 3.75-5l-.63-8.13 3.75 1.25c.42 1.25 1.04 1.88 1.88 1.88 3.74 0 5.62-4.37 5.62-13.13v-.62l-.63-11.88c0-.41-.41-1.25-1.25-2.5a7189 7189 0 0 1-2.5-5 16.72 16.72 0 0 0-3.12-4.37l-1.25-2.5c0-1.25.42-1.87 1.25-1.88.83 0 2.08.84 3.75 2.5l1.88 3.13 2.5 3.12 3.75 1.88-1.88-.63a17.5 17.5 0 0 0 8.75 2.5c5.83 0 8.75-1.25 8.75-3.75 0-.83-.83-1.87-2.5-3.12l-3.13-3.13-1.25-3.75 2.5.63c2.92 0 4.38-1.67 4.38-5l2.5.62c1.25-2.5 1.87-4.58 1.88-6.25l-.63-.62c0-.83-.2-1.87-.63-3.13l-10.62 3.75-8.13-3.75-2.5-3.12-6.25-7.5c-1.66-1.25-3.95-4.17-6.87-8.75-2.92-2.92-5.63-4.37-8.13-4.38-1.25 0-3.12.63-5.62 1.88l-2.5 3.75-.63 6.87h-2.5l-8.75-8.12-6.25-4.38-11.25-2.5-3.75 10.63m-311.88 8.12 2.5 1.25 2.5-7.5.63-5.62-2.5 1.87-1.25 5a96.73 96.73 0 0 1-1.87 5m119.38-4.37.62.62c2.92-1.25 4.37-2.7 4.38-4.37-.84-.83-1.46-1.25-1.88-1.25h-.62l-2.5 5m129.38 6.25-3.13 3.12 1.88.63c.41 0 1.45-1.25 3.12-3.75 2.08-2.5 5.2-3.75 9.38-3.75 3.74 0 6.24.2 7.5.62l3.12 4.38c1.25-1.67 1.87-2.92 1.88-3.75 0-4.58-3.13-6.87-9.38-6.88-4.17 0-8.96 3.13-14.38 9.38m-55-9.38-9.37 5.63-1.25 1.25c-9.17 10.42-13.75 20-13.75 28.75v1.25a70.8 70.8 0 0 1 1.25 8.75v3.13c.42 5-1.25 7.5-5 7.5-1.25 0-2.7-.63-4.38-1.88l-1.24-6.25-.63-14.38-1.88-5-1.87 5a8.7 8.7 0 0 0-.63 3.75c0 1.25-.2 2.09-.62 2.5-1.25 10-1.88 16.05-1.88 18.13v6.25c.42 2.08.84 4.8 1.26 8.13.41.83.62 2.91.62 6.25l9.38 4.37 3.75 4.38c4.16-7.5 7.29-11.25 9.37-11.25v-9.38c.42-10.42 2.7-19.58 6.88-27.5 4.58-7.92 9.58-11.88 15-11.88 1.66 0 3.74 1.46 6.25 4.38l1.25 1.25v3.12c0 2.92-1.05 4.8-3.13 5.63l-15.63 5-2.5 3.13c-2.5 5-3.75 8.33-3.74 10 0 4.16 2.7 7.7 8.12 10.62.42.42 1.25.42 2.5 0h4.38l5-.63c3.74-.41 5.62-1.66 5.62-3.75l-.63-2.5c-5.41 2.09-8.95 3.13-10.62 3.13-6.25 0-9.38-3.54-9.38-10.63 0-3.74 1.67-6.04 5-6.87l16.26-2.5c6.24-.42 9.37-3.75 9.37-10 0-.83-.2-1.46-.63-1.88l-3.74-6.25 4.37-1.87c.42 0 .63-.42.63-1.25v-.63l-1.88-3.12-2.5-8.13c-1.25-3.33-4.8-5-10.63-5h-1.24l-2.5 2.5-3.75.63 1.25-9.38-2.5-2.5m-36.25.63a662.29 662.29 0 0 1-7.5 15.62 83.48 83.48 0 0 0-4.38 8.75l-3.75 6.88-5.63 11.25c-11.66 25.42-21.87 42.08-30.62 50 1.25 2.08 2.3 3.13 3.13 3.13h.62l1.25-.63c.42-1.67 2.3-3.75 5.63-6.25 5-3.75 11.87-16.46 20.62-38.13.83-2.08 2.7-6.04 5.63-11.87a742.17 742.17 0 0 1 11.87-22.5c2.08-5.42 3.12-8.96 3.13-10.63v-5.62m-111.25 1.87c-2.09 3.34-3.13 5.42-3.13 6.25l1.25 6.25a18 18 0 0 0 9.38 8.13c.41.42.62 1.25.62 2.5-.83.83-1.67 1.25-2.5 1.25-.83 0-1.88-1.04-3.13-3.13-5.83-4.58-13.12-7.29-21.87-8.12l-.62 4.37-6.25-2.5h-10l-9.38-2.5v.63c0 5.83 2.7 11.46 8.13 16.87-4.59.84-6.88 2.09-6.88 3.75 0 3.34 2.92 6.88 8.75 10.63l6.88 4.38 8.12 1.87 6.88 2.5v.63l-.63 1.87h-5l-9.37-1.25-8.13 1.88c.83 3.33 2.5 4.58 5 3.75h1.88l-3.13 3.75h-6.87c-5.42-.42-10 2.08-13.75 7.5l10 2.5 10.62 6.87a8.31 8.31 0 0 0 5 1.88 10.2 10.2 0 0 1 2.5-.63l1.25-.63 5.63-3.75h.62c.42 0 .63.42.63 1.25 0 .84-.63 1.88-1.88 3.13l-1.87 7.5 9.37-1.88 6.88-8.75c2.08-3.33 5-5 8.75-5 5 0 10.2 2.71 15.62 8.13l3.13 5.63c.41 2.08.62 3.75.62 5 .42 1.25.63 2.08.63 2.5 0 3.33-1.25 8.12-3.75 14.37 2.5-2.92 5.2-5.63 8.12-8.13v-1.87l1.25-3.75-1.25-1.25v-1.88c0-9.16-2.92-16.25-8.75-21.25l-5-2.5a40.97 40.97 0 0 0-4.38-2.5h-4.37c1.25-2.08 2.3-3.12 3.13-3.12 2.08 0 4.58.83 7.5 2.5l1.25 1.25 10 6.88 1.87 6.87 1.88 11.88 3.12-8.13 2.5-11.25c.42-1.25.63-2.92.63-5s-.63-3.12-1.88-3.13c-.42.42-.63.84-.63 1.25l-.62.63-2.5-1.88-3.75-6.25-.63-1.25-3.12-1.25-3.13-3.12-1.87-.63-8.13-3.75c-8.33-3.33-12.5-5.2-12.5-5.62.84-.83 1.67-1.25 2.5-1.25.84 0 3.96 1.04 9.38 3.13l8.13 3.75 5.62 3.12.63.63 3.75 1.87.62 1.88 2.5 3.75 1.25 1.25.63 1.87 1.87 1.88c0-9.17-3.13-16.88-9.38-23.13-2.5-2.5-3.95-4.37-4.37-5.63l-.63-1.87 1.88-.63 1.25 1.25 2.5 2.5 1.88 3.13 3.75 5 1.87 4.38c-.83-3.34-1.46-6.05-1.88-8.13-.41-2.5-.83-4.17-1.24-5l-11.88-17.5-3.13-8.75-3.74 3.75-.63.62c-1.25 0-2.3-1.66-3.13-5a30.28 30.28 0 0 0-3.74-4.37 54.24 54.24 0 0 0-5-5.63m215 18.13c.41 4.17 1.66 6.25 3.75 6.25 2.08 0 3.12-1.04 3.12-3.13h-.63v-1.87l-5.62-8.13-1.88-5.62h-.62c-1.67 0-2.5.83-2.5 2.5 0 2.5 1.46 5.83 4.38 10m-283.13-2.5c-.83 2.08-1.45 3.33-1.87 3.75 0 1.25 2.5 1.88 7.5 1.87 7.5 0 11.25-1.66 11.25-5 0-1.25-.42-1.87-1.25-1.87-.83 0-2.08.62-3.75 1.87-2.5 2.09-6.46 1.88-11.87-.62m180.62.62-1.25 4.38.62 1.25c.83 2.08 1.87 5.63 3.13 10.62 1.25 4.59 2.29 10.63 3.12 18.13l2.5-.63v-7.5l.63-8.75c0-3.33-2.92-9.16-8.75-17.5m-185 8.13a22.19 22.19 0 0 0-2.5 10l.62 5.62c.83 13.34 5.83 20 15 20 8.75 0 13.13-3.74 13.13-11.25v-1.25a17.5 17.5 0 0 1-8.75 2.5c-10 .84-15.21-6.24-15.63-21.25.42-.41.63-1.25.63-2.5 0-.83-.84-1.45-2.5-1.87m406.25 21.87-1.25 1.25c0 .42-.21.84-.63 1.25v.63c0 2.08 1.04 3.13 3.13 3.13 2.08 0 3.33-.84 3.75-2.5v-1.25c0-1.67-1.25-2.5-3.75-2.5h-1.25m-177.5 4.37-1.25 1.25c0 .42-.21.83-.63 1.25l-.63 1.25c0 2.08 1.05 3.13 3.13 3.13 2.92 0 4.37-1.46 4.38-4.38 0-1.67-1.67-2.5-5-2.5m11.25 4.38-1.25 1.25c0 .41-.21.83-.63 1.25v.62c0 1.25.63 1.88 1.88 1.88 2.5 0 3.74-1.25 3.75-3.75 0-.84-.84-1.25-2.5-1.25h-1.25m-76.88 6.25c3.33-.84 4.37-1.25 3.13-1.25 1.66 0 3.54 1.25 5.62 3.75.42 4.16 2.5 7.7 6.25 10.62-.42-2.08-.83-4.38-1.25-6.88 0-2.5-.42-5.41-1.25-8.75-.83-2.08-2.7-3.12-5.63-3.12-4.58 0-6.87 1.88-6.87 5.63m244.38-3.13c-2.5.83-3.75 1.88-3.75 3.13 0 2.08 1.04 3.12 3.13 3.12 3.33 0 5-1.25 5-3.75l-4.38-2.5m-170.62 10.63 4.38 3.12c.83-.83 1.25-1.67 1.25-2.5 0-1.25-.84-1.88-2.5-1.88l-1.25.63-1.88.63m170.62 2.5c-1.25-1.67-2.3-2.5-3.13-2.5-3.33 0-5 1.04-5 3.12s1.05 3.13 3.13 3.13 3.75-1.25 5-3.75m-56.25 48.75a7.77 7.77 0 0 0-5.63-2.5h-9.37c-7.92.41-15.42-2.3-22.5-8.13-7.08-6.25-10.63-13.33-10.63-21.25 0-8.33 3.13-12.5 9.38-12.5.42 0 2.3.42 5.63 1.25 0-4.58-2.5-6.88-7.5-6.88-8.76 0-13.13 7.3-13.13 21.88 0 9.17 6.25 17.08 18.75 23.75 6.67 3.75 13.33 5.63 20 5.63h5c2.5-.42 5.83-.84 10-1.25m-141.88-38.13c-2.08 1.25-3.33 1.88-3.75 1.88-1.25 0-2.7-1.25-4.38-3.75-1.66 2.91-2.5 5.41-2.5 7.5v3.12c.42.83.84 2.08 1.26 3.75 3.33 7.92 5 12.3 5 13.13 0 2.08-1.46 3.75-4.38 5h-2.5c-1.25 0-2.08-.84-2.5-2.5l-1.88-3.75v-10c0-5.42-4.58-10-13.74-13.75l-7.5.62 1.25 3.13 1.87 2.5h-3.75l-1.25-2.5c-5.83-2.92-10-4.38-12.5-4.38-7.5 0-11.67 4.8-12.5 14.38l3.13 3.75 5.62-5.63c.42-.42 1.04-.63 1.88-.63 2.08 0 6.04 2.3 11.87 6.88l3.13 4.38 7.5 8.75c6.66 8.75 15.41 13.12 26.25 13.12 3.74 0 7.7-1.46 11.87-4.38 2.92-2.91 4.37-7.91 4.38-15 0-.83-.21-2.29-.63-4.37 0-2.5-.2-5.42-.63-8.75l-.62-1.88c0-8.75 3.96-13.12 11.88-13.12 6.24 0 9.37 2.92 9.37 8.75 0 .83-.2 1.46-.63 1.88l-1.24 1.25-11.25 7.5-.63 5.62c1.25 2.08 2.5 3.13 3.75 3.13l6.25-1.25-1.25-6.25 5.63-5.63c1.66-1.67 3.12-5.63 4.37-11.88l-1.88-.62c-5.41-5.42-11.04-8.13-16.87-8.13-6.25 0-12.08 2.71-17.5 8.13m-207.5-5.63v3.13c0 6.25 3.13 9.38 9.38 9.38.41-.42 1.04-.63 1.87-.63l9.38-3.75h5c1.25 0 3.33.83 6.25 2.5-1.67-5.42-4.59-8.13-8.75-8.13-3.34 0-5.21.42-5.63 1.25 0 .84-1.67 1.67-5 2.5l-5.62 1.25-6.88-7.5m393.12.63h-1.25c-.42 0-.83.63-1.25 1.88v1.25c0 2.5 1.25 3.75 3.75 3.75 2.08 0 3.12-1.25 3.13-3.75 0-2.09-1.46-3.13-4.38-3.13m-306.88 5 .63 7.5c.83 8.75-3.34 16.67-12.5 23.75-11.25 5.42-21.05 8.33-29.38 8.75h1.88l-9.38-.63-6.25-1.87c-7.08-1.67-10.83-2.92-11.25-3.75-2.92-1.67-4.8-2.5-5.62-2.5h-5.63l-5-1.25c12.5 11.25 27.5 16.88 45 16.88 17.08 0 30-6.88 38.75-20.63 2.92-4.17 4.37-8.33 4.38-12.5 0-3.33-1.88-7.92-5.63-13.75m261.25 3.13c-2.5.83-3.75 2.29-3.75 4.37s1.04 3.13 3.13 3.13c3.33 0 5-1.88 5-5.63 0-1.25-1.25-1.88-3.75-1.88h-.63m-20 13.13 2.5 1.25c2.08-2.08 3.12-3.54 3.13-4.38 0-1.25-.84-1.87-2.5-1.87h-.63l-2.5 5m10.63-3.13c-.42.42-.63.84-.63 1.25l-.63.63v1.25c0 2.5 1.05 3.75 3.13 3.75 2.5 0 3.75-1.25 3.75-3.75 0-2.08-1.67-3.13-5-3.13h-.63m17.5 4.38 1.88-3.13-2.5-1.25.63 4.38m-296.88 0c3.74 1.25 5.62 2.92 5.62 5 0 8.33-6.67 12.5-20 12.5-5.42 0-13.75-1.88-25-5.63v1.25c10 4.59 19.17 6.88 27.5 6.88 17.08 0 25.63-5 25.63-15 0-6.25-2.92-9.38-8.75-9.38-2.09 0-3.76 1.46-5 4.38m63.75 3.75-1.88 3.75c-1.25-.42-3.54-.63-6.87-.63-11.25 0-22.5 6.05-33.75 18.13l9.37-3.13 13.13-9.37 3.12-.63 8.75-2.5 1.88-.62h.62c1.25 0 2.3.42 3.13 1.25v5.63l4.37 5 3.75-5.63-.62-5.63 6.25-2.5c1.25-.41 1.87-1.45 1.87-3.12 0-.42-.42-1.04-1.25-1.88l-1.25 1.25c-.42 0-.83.21-1.25.63h-9.37m170.62 18.75c-2.5-1.25-4.8-2.5-6.88-3.75a85.14 85.14 0 0 0-5.62-3.13c-10.84-7.08-20.84-10.62-30-10.62-9.17 0-13.75 3.96-13.75 11.88 0 6.66 3.74 10 11.25 10h.62l10-1.88 6.88 1.25v-.63c0-4.16-2.09-6.25-6.25-6.25h-1.88l-5.62 1.25c-2.5.84-3.96 1.05-4.38.63-2.92-.42-4.38-2.08-4.37-5 0-3.75 2.7-5.63 8.12-5.63h.63l10.62 2.5 10.63 3.13 14.37 5.63 5.63.62m-137.5-6.25.62-4.38-1.87-1.25h-1.25c-2.5 0-3.76 1.05-3.75 3.13 0 1.25 2.08 2.08 6.25 2.5m-24.38-4.38 1.25 1.88-.62 1.25c7.91 5.42 12.91 8.13 15 8.13l1.25-.63h1.25l1.25-1.88-10-3.75-8.13-5.62-1.25.63m32.5 2.5c-1.25 0-1.88.83-1.87 2.5 0 1.25.83 1.87 2.5 1.87 1.25 0 2.29-.63 3.12-1.88 0-.83-1.25-1.66-3.75-2.5m-70 6.88h5.63c2.91 0 5.2 2.08 6.87 6.25 2.92-.42 4.37-2.08 4.38-5 0-5-2.5-7.5-7.5-7.5l-1.25.63-8.13 5.62m-90-5-2.5 8.13c2.92 0 4.38-.63 4.38-1.88 0-.83-.63-2.92-1.88-6.25m153.12 5.63c-1.67.41-2.5 1.45-2.5 3.12 0 2.08 1.25 3.13 3.75 3.13 2.92 0 4.37-1.05 4.38-3.13 0-2.08-1.67-3.13-5-3.13h-.63m15-440c-6.25-.83-9.58-1.45-10-1.87 0-.83 3.54-.83 10.63 0 6.66.42 10.41 2.08 11.25 5v1.25h-2.5a24.5 24.5 0 0 0-5-1.88 41.06 41.06 0 0 0-4.38-2.5m185.62 5h-4.38l5-1.25c2.09 0 3.55.21 4.38.63l4.38 1.87-9.38-1.25m-259.38 50.63 12.5 3.75 10.63 3.75-24.38-4.38 1.25-3.12m183.75 1.25c5 2.08 7.92 4.38 8.75 6.87l1.88 13.13c-1.67-5.42-5-11.46-10-18.13l-.63-1.87m39.38 32.5 3.12-10c-3.33 4.58-5 6.25-5 5-3.33 2.92-6.04 3.33-8.12 1.25 1.25.83 3.33 1.46 6.25 1.87 2.91.42 4.16 1.05 3.75 1.88m28.12-5.63c5 .84 7.7 3.34 8.13 7.5l-6.88-5-1.25-2.5m-36.87-28.75c-.42-.41-.84-.62-1.25-.62l-.63-.63c4.17 2.5 8.54 6.67 13.13 12.5-1.67-1.66-2.71-3.12-3.13-4.37l6.25 8.75c.42-.42-.62-1.67-3.12-3.75-4.59-3.33-7.71-6.04-9.38-8.13l-3.75-1.87c-4.17-2.92-6.25-5-6.25-6.25 0-.83.83-1.25 2.5-1.25l5.63 5.62m8.12 54.38 1.25 2.5 5 3.12 5.63 7.5-11.88-8.12-1.87-5h1.87m-335 4.37 3.13 1.25a4.24 4.24 0 0 0 1.25-3.12l-.63-1.88h-2.5c2.08-2.08 1.46-1.87-1.87.63-.42 1.67-.21 2.7.62 3.12m363.75-3.75 1.88 15-3.75-8.75 1.87-6.25m-361.25 7.5c-2.5 3.34-1.67 5.21 2.5 5.63l1.25-1.25 1.25-2.5-5-1.88m169.38-.62 3.75 1.25-1.87 4.37-3.13-1.25 1.25-4.37m246.88 41.87c2.5 5.42 2.08 10.63-1.25 15.63 1.25-1.67 1.87-4.8 1.88-9.38-1.67 0-2.71-1.45-3.13-4.37l2.5-5v3.12m-82.5 69.38-5 6.87c-2.08 2.5-3.96 3.76-5.62 3.75-1.25 0-1.88-.2-1.88-.62 0-1.25 1.25-2.5 3.75-3.75s5.42-3.33 8.75-6.25m-38.75 16.87 5.63 7.5-4.38-1.25.63-.62h-.63c-1.25 0-1.88-.83-1.87-2.5 0-1.67.2-2.7.62-3.13m-226.88 43.75c6.25 0 7.7 2.92 4.38 8.75.83-.83 0-1.25-2.5-1.25v-3.75l-1.88-3.75m141.88 12.5 1.88 1.25c2.5 4.59 3.74 10.84 3.75 18.75l-1.88-5.62-1.87-.63-1.88-13.75m13.75 25c-4.58 3.34-6.88 5.84-6.87 7.5 1.66-1.66 2.7-3.12 3.12-4.37-2.5 4.17-4.17 6.25-5 6.25-1.67 0-2.5-.83-2.5-2.5 2.5-3.33 4.58-5 6.25-5 1.25-1.67 2.3-2.5 3.13-2.5l1.87.62m180.62 3.13c.83 0 4.58 3.96 11.25 11.87l-5.63-6.25-3.12-2.5-2.5-3.12m-20.63 10 1.26-1.88c.83-2.08 1.66-3.12 2.5-3.12.83 0 1.66 1.04 2.5 3.12.41 1.67.2 2.5-.63 2.5-.83 0-1.25.42-1.25 1.25 0-1.66-1.46-2.29-4.38-1.87m13.76 2.5-1.88 5-3.75-1.88-.63-1.25c.42-1.25 1.05-1.87 1.88-1.87h4.38m-36.25 0c1.66-1.67 3.12-2.08 4.37-1.25.42-.42 2.92 1.04 7.5 4.37-.83-.83-3.13-1.25-6.88-1.25a8.3 8.3 0 0 1-5-1.87m8.13 10-5-1.88-5-.62c1.67-1.67 3.33-2.5 5-2.5 2.5 0 3.96.42 4.38 1.25.41.83.83 1.88 1.25 3.12l-.63.63m-313.12-.63-.62 3.13c-.42-.42-1.88-.63-4.38-.63-.42-.41-.62-1.04-.62-1.87a7.85 7.85 0 0 1 3.12-1.88l2.5 1.25m2.5 2.5 3.13 1.25v2.5l-2.5-1.25-.63-2.5m9.38 6.88 1.87-3.75c-1.67-.42-2.7-.42-3.12 0v2.5l1.25 1.25m331.25-3.13h2.5c2.5 7.09 3.74 13.55 3.75 19.38 0 1.67-.42 1.04-1.25-1.88-.84-2.91-1.25-5-1.25-6.25l-3.75-11.25m-323.13 5.63-1.87-4.38 5-.62-.62 3.12-2.5 1.88m321.25 0c.41.42.62 3.33.62 8.75l-1.88-1.88c-.41-.83-.83-3.12-1.25-6.87h2.5m-30 10 3.13.63.63 15-5-7.5 1.25-8.13m-174.38.63 9.37 6.25 6.25-5h-4.37l-5 .62-6.25-1.88m-110 10.63-.63-1.25.63 1.88h-.63c-2.5.83-3.75.83-3.75 0 0-1.67 1.04-2.5 3.13-2.5.83.83 1.25 1.45 1.25 1.87m32.5 11.25h-2.5l-3.75-3.75a32.87 32.87 0 0 0-5-6.25l2.5-2.5h1.87l-.62-.63 3.12 3.75c1.67 1.67 3.12 4.8 4.38 9.38m-42.5-10.63-3.13-1.87 1.25-3.13 5 1.88-.62 1.88-2.5 1.25m123.12-1.25 4.37 4.37 6.25-3.13-10.62-1.25m-131.25 1.25h-3.13v-4.37l3.13-.63 1.87 1.88-1.87 3.13m132.5 5.62 2.5.63 4.37-.63v.63c0 1.25-.83 2.08-2.5 2.5l-1.25.62c-2.08 0-3.13-1.25-3.12-3.75m231.88 7.5 1.87.63.63 1.25-1.88 3.75-2.5-1.88 1.88-3.75m-3.75 5.63 3.12 3.12-4.38-1.25 1.25-1.88m-428.75 3.75c.42-2.5 1.46-3.75 3.13-3.75 1.25 0 1.88.63 1.88 1.88s-1.05 1.88-3.13 1.88h-1.87m228.12 6.25-1.25 6.25-.63-1.88a7.84 7.84 0 0 1-1.87-3.13v-.62l3.75-8.13c.41.42.62 1.46.62 3.13l-.62 4.38m-25 3.12h-2.5l-2.5-2.5c-1.25-.42-1.88-1.67-1.88-3.75 0-.83.83-1.25 2.5-1.25 2.92 0 4.37 2.5 4.38 7.5m-196.88-4.38h1.87l-3.75 1.88v-1.88c0-1.25.42-1.87 1.25-1.87h.63v1.88m418.75 12.5c-.42 1.25-.63 3.12-.63 5.62l1.25 5h-1.87l-.63-3.13v-7.5h1.88m-202.5 12.5c-2.09 2.5-5 3.75-8.75 3.75v-2.5l5.62-1.25 2.5-3.12.63 3.13" transform="translate(-146.86 -119.79)"/>
</svg>
