<svg xmlns="http://www.w3.org/2000/svg" viewBox="0 0 500 500">
    <path d="M146.86 619.79v-500h500v500h-500m7.5-7.5h485v-485h-485v485m7.5-7.5V135.41h469.38v469.38H161.86m39.38-464.38v1.87c3.33.84 5 2.09 5 3.75 0 2.92-.21 5-.63 6.25 4.17-2.91 6.25-5.62 6.25-8.12 0-4.17-2.3-6.25-6.88-6.25v.62h-1.87l-1.88 1.88m33.13 4.37 1.25 4.38.63 1.25 5-.63 3.12-1.87 3.75-.63 9.38-2.5c.41-.41 1.87-.62 4.37-.62 22.08 0 41.04 8.13 56.88 24.37h.62c.83.42 2.3.21 4.38-.62a98.07 98.07 0 0 1-3.13-4.38 14.6 14.6 0 0 0-2.5-3.75c-7.08-11.66-23.54-18.33-49.38-20l-8.75-.62-10 1.25-7.5 1.25-8.12 3.12m-57.5 32.5v-5l-5-21.87c0-2.92 1.67-4.37 5-4.38 4.17 0 6.25 5 6.25 15 0 4.59-.2 7.5-.63 8.75a177.63 177.63 0 0 1-2.5 15.63 71.91 71.91 0 0 0-.62 6.25c0 9.17 6.67 13.75 20 13.75 3.75 0 6.04-.63 6.88-1.88l3.75-5.62 7.5-20 2.5-3.13c3.74-4.16 7.5-6.24 11.25-6.25 8.33 0 12.5 2.5 12.5 7.5 0 2.09-1.67 3.13-5 3.13h-6.88c-1.67 0-3.54-.2-5.63-.63-7.5 2.09-11.24 7.92-11.24 17.5 0 9.59 4.37 14.38 13.12 14.38 2.5 0 4.8-1.87 6.88-5.63h-1.25c-7.92 0-11.88-2.91-11.88-8.75 0-4.58 1.67-7.5 5-8.75l1.25-.62h.63l13.75 3.12c3.33 0 6.24-1.87 8.75-5.62 1.25-1.67 1.87-4.17 1.87-7.5 0-3.75-1.25-7.5-3.75-11.25s-5.42-5.62-8.75-5.63h-1.88c-.41.42-1.45.63-3.12.63-1.25 0-2.5.2-3.75.62v-3.75c.83-7.08-.83-10.62-5-10.62-6.67 0-13.13 3.33-19.38 10-4.16 6.67-6.25 11.87-6.24 15.62v7.5c0 1.25-.21 2.71-.63 4.38 0 1.67-.2 3.54-.63 5.62l-3.12 3.13 2.5 3.75-2.5 2.5h-2.5c-2.5 0-5-2.08-7.5-6.25h5.63l-.63-10 6.25-11.25c1.67-2.92 2.5-7.92 2.5-15 0-.42-1.04-3.12-3.13-8.13-.41 2.92-1.45 4.38-3.12 4.38l-2.5-.63c-2.08-8.74-6.46-13.12-13.13-13.12-7.08 0-10.62 3.96-10.62 11.87 0 2.92.2 4.59.63 5l4.37 15 .63 1.88c0 2.08-.84 4.38-2.5 6.87-1.67 2.5-2.5 3.96-2.5 4.38.83.83 1.45 1.25 1.87 1.25 1.25 0 3.33-2.7 6.25-8.13m121.25-36.25 23.75 10 20 11.88c8.33 4.58 16.88 6.88 25.63 6.87 12.5 0 18.75-5.2 18.75-15.62 0-9.17-6.46-13.75-19.38-13.75-2.92 0-4.58.2-5 .62l-9.38 4.38c-2.5 1.25-5 1.88-7.5 1.87-.83 0-4.79-1.04-11.87-3.12l3.13 6.25 2.5.62 5.62 1.88c.42.42 1.25.62 2.5.62l5-1.25 10-6.25h1.25c7.08 0 10.63 2.3 10.63 6.88 0 2.08-1.67 4.17-5 6.25-5.42 1.67-9.8 2.5-13.13 2.5-5.42 0-11.46-1.87-18.13-5.63l-23.75-11.87-6.87-1.88h-3.75l-5-1.25m131.25 0-6.88 1.88-6.87 4.37c-1.25 4.59-1.88 7.71-1.88 9.38 0 3.75 1.88 7.08 5.63 10a25.12 25.12 0 0 0 13.13 3.75l1.87-.63 6.25-.62 17.5-4.38 3.13-.62 3.75-2.5 4.37-2.5 3.75-4.38 3.75-1.87-6.88 2.5-6.87 3.12c-10 3.34-17.7 5-23.13 5-9.16 0-13.75-2.7-13.75-8.12 0-5.42 4.38-8.12 13.13-8.13h4.38c5.41.84 9.37 1.67 11.87 2.5 2.5.42 3.96.63 4.38.63 2.08 0 4.16-1.87 6.25-5.63-1.25.42-3.34.63-6.25.63H448.1c-1.25-.42-2.7-.83-4.38-1.25l-6.87-2.5-5.63-.63h-1.87m95 1.88-5.63.62c-4.16.42-10.62 1.88-19.37 4.38l-3.75 1.87-6.88 3.13-4.37 1.25-5.63 4.37h-2.5v1.25h-1.87l-1.88 2.5-3.75 2.5-3.75 3.75 6.88 1.25h7.5l10-7.5 6.88-3.12 6.25-3.13 10.62-2.5 11.88-3.12c.41-.42 1.66-.63 3.75-.63 18.33 0 35.83 4.59 52.5 13.75 1.66.42 3.54 1.46 5.62 3.13v-3.75c.83-2.08-.42-4.17-3.75-6.25-4.17-2.92-9.58-5.42-16.25-7.5l-2.5-1.25c-.83-.42-1.88-.83-3.13-1.25l-11.25-2.5a37.32 37.32 0 0 0-11.87-1.88c-1.67 0-3.54.21-5.63.63-1.66 0-3.75.2-6.25.62l-1.87-.62m86.88 3.75-3.13 1.25c-2.92.42-5 1.88-6.25 4.37l-1.88 1.88-3.75.62a13.12 13.12 0 0 0-6.87-1.87l5 23.75c3.33 3.33 5 5.83 5 7.5 0 1.25-1.46 2.08-4.38 2.5l-7.5-6.25c-5.83-2.5-9.79-3.75-11.87-3.75-2.5 0-5.83 1.25-10 3.75l-5 5 6.88 2.5 1.25 3.12c-4.17 2.92-6.26 6.26-6.25 10 0 4.59 4.16 8.55 12.5 11.88 12.91 4.58 19.58 7.92 20 10v1.87l-.63 6.88 3.75-.63c1.67-2.91 2.5-5.2 2.5-6.87s-.63-4.37-1.88-8.13a24.51 24.51 0 0 0-5-1.87l-5-1.25c-10-1.67-15-5.62-15-11.88 0-5 2.92-7.5 8.75-7.5 3.75 0 6.67 1.05 8.75 3.13l4.38 5 5 4.37 2.5 5.63 5.63 11.25a55.99 55.99 0 0 1 6.87 25v.62l-.63 7.5.63 5.63-2.5 6.87.63 5c.41 1.25 0 3.55-1.25 6.88-2.92 7.5-6.05 15.2-9.38 23.12a69.8 69.8 0 0 1-13.13 20.63l-2.5 3.12-3.12 3.75a164.9 164.9 0 0 1-7.5 6.88 177.6 177.6 0 0 1-13.13 8.75c-2.91 1.67-8.95 4.17-18.12 7.5l-13.13 4.37-.62 7.5 2.5-.62 13.75-3.13c2.5-.83 4.58-1.45 6.25-1.87 2.08-.83 3.54-1.67 4.38-2.5l11.25-6.25c9.16-5.42 14.79-9.17 16.87-11.25l14.38-19.38 6.87-9.37c7.92-10.42 13.33-26.46 16.25-48.13l.63-6.87.62-12.5-1.25-8.75-.63-8.13-1.25-4.37-4.37-20-9.38-26.88c-1.66-3.33-2.5-7.29-2.5-11.87 0-8.75 3.13-13.13 9.38-13.13 3.75 0 5.62 2.5 5.63 7.5 0 1.25-.63 3.34-1.88 6.25l1.88 1.25c2.91-2.91 4.37-5.62 4.37-8.12l-.63-1.88c-1.25-6.66-4.37-9.79-9.37-9.37h-4.38m-351.88 1.87-23.12 5 .63.63c.41 0 1.04.2 1.87.62l1.25.63c1.67 0 3.54-.63 5.63-1.88l18.75-1.25c9.16-.41 13.75 1.46 13.75 5.63 0-.42-.42 1.04-1.25 4.37l-3.13 1.25-8.13.63c4.59 3.33 8.13 5 10.63 5 6.67 0 10-3.12 10-9.38 0-6.66-7.5-10.41-22.5-11.25h-4.38m136.25 2.5c-2.5 2.09-3.75 3.96-3.75 5.63 0 4.17 2.71 6.25 8.13 6.25 4.58 0 6.87-1.87 6.88-5.63 0-5-2.92-7.5-8.75-7.5h-.63l-1.88 1.25m130.63 3.75-1.88 1.88h-1.25c-7.5-.42-11.25 2.3-11.25 8.12 0 4.17 3.33 6.26 10 6.25h4.38c2.91-.41 7.29-.83 13.12-1.25h6.25c2.08 0 3.75.21 5 .63l5.63 4.37c.83.42 1.45.84 1.87 1.25h.63a4.24 4.24 0 0 0 1.25-3.12c0-5-3.76-7.3-11.25-6.88h-3.75c-3.34.84-5.21 1.25-5.63 1.25h-6.88l-.62-1.87h-3.13a4.23 4.23 0 0 1-1.25-3.13c0-1.25 1.67-2.5 5-3.75.42-.41 2.09-.62 5-.62h2.5l.63-1.25c-3.75-2.08-6.67-2.7-8.75-1.88h-5.63m43.75 8.75c.84.84 2.71 2.3 5.63 4.38a88.02 88.02 0 0 1 11.88 7.5v-2.5a59.36 59.36 0 0 0-17.5-9.38m46.25 6.25a7.77 7.77 0 0 0-2.5 5.63c0 7.5 2.91 11.25 8.75 11.25.83 0 1.66-.63 2.5-1.88-2.09-.83-4.17-3.12-6.25-6.87l-1.25-10-1.25 1.87m-356.25 2.5-.63 16.88h6.88c5.41-.42 9.79.2 13.12 1.87 2.92 1.67 5.2 2.92 6.88 3.75 1.66.42 2.7.84 3.12 1.25.42 0 2.08-.83 5-2.5 3.33-1.66 6.04-2.5 8.13-2.5l176.25 1.25c5.41 0 8.95.63 10.62 1.88 2.08 1.25 3.12 3.54 3.13 6.87 0 3.34-3.13 8.13-9.38 14.38l-83.13 111.25a4.24 4.24 0 0 0-1.25 3.12l.63 5.63c.42 3.75.63 7.92.63 12.5v7.5c.83 6.25.2 12.92-1.88 20l-1.25 8.12-1.25 6.88 62.5-81.25 80-107.5c7.08-9.58 10.63-17.08 10.63-22.5 0-2.08-1.05-3.54-3.13-4.38l-285.62-2.5m132.5 228.75-1.25 6.25v1.25l1.25 1.25L548.73 197.9c1.25-1.66 1.87-3.12 1.88-4.37 0-2.08-.21-3.54-.63-4.38l-8.13 13.13-3.12 3.75-146.25 195M260.6 193.53c-2.5.42-6.04 1.67-10.63 3.75-7.5 3.33-11.24 9.38-11.24 18.12 0 3.34 1.25 7.09 3.75 11.25 2.91 4.17 4.79 6.26 5.62 6.25 1.25 0 1.87-1.04 1.88-3.12 0-1.67-.63-3.75-1.88-6.25l-2.5-5v-2.5c0-9.58 5.2-14.38 15.63-14.38 6.66 0 12.91 2.3 18.75 6.88 2.5 3.75 3.74 6.67 3.75 8.75 0 2.92-1.46 5.83-4.38 8.75 3.33.83 4.8 1.25 4.38 1.25 7.08 0 10.62-4.17 10.62-12.5 0-2.92-1.46-6.46-4.38-10.63-2.5-4.58-5-7.08-7.5-7.5l-9.37-1.87-4.38-1.88-8.12.63m41.25.62h1.88l-4.38 1.25-2.5 1.88-2.5.62-1.25 1.25 1.88 1.88 4.37-1.88h68.13l94.37.63 26.88 2.5c.41-.42.62-1.25.62-2.5 0-2.92-1.88-4.37-5.63-4.38l-181.88-1.25m-102.5 18.13-2.5-1.88-7.5-.62-2.5-1.88-4.37-1.87a66.25 66.25 0 0 1-3.12-3.75c-1.25-2.08-2.09-3.12-2.5-3.13-1.25 0-1.88.84-1.88 2.5 0 4.59 3.54 8.76 10.63 12.5 2.91 1.25 5.41 1.88 7.5 1.88 2.08 0 4.16-1.25 6.25-3.75m71.25 27.5-.63 6.25c4.17 1.25 7.5 1.88 10 1.87 17.08 0 30.2-5.83 39.38-17.5l5-6.25 4.37-8.75a22.2 22.2 0 0 0 2.5-10c0-2.08-1.25-3.12-3.75-3.12s-3.96 2.5-4.38 7.5c-.41 10.42-7.08 18.96-20 25.62a47.4 47.4 0 0 1-22.5 5.63h-4.37c-1.67-.42-3.54-.83-5.63-1.25m51.88-8.13v1.88c0 .42.42.62 1.25.62.83-.41 1.67-1.45 2.5-3.12a32.82 32.82 0 0 0 3.13-5l1.87-3.75 1.25-1.88.63-4.37 4.37-10.63-1.88-1.87-3.12 10-2.5 6.87-4.38 7.5-3.12 3.75m109.38-28.12h-5.63l-6.25 5c-.41.42-5.83 2.5-16.25 6.25 2.5 4.58 6.05 6.88 10.63 6.87 5.83 0 11.04-2.5 15.63-7.5l-.63 10c8.75-2.5 13.96-8.12 15.63-16.87a9.85 9.85 0 0 0-2.5-3.75h-10.63m24.38 0h-5.63c-1.67 2.92-2.5 5.2-2.5 6.87 0 7.92 2.5 12.71 7.5 14.38l1.25-3.13c4.17 2.5 7.3 3.76 9.38 3.75 6.24 0 9.37-2.5 9.37-7.5 0-1.66-.2-2.7-.63-3.12l-6.25 1.25c-5 0-7.7-2.7-8.12-8.13-.83-3.74-1.67-5.2-2.5-4.37h-1.88m-55.62 3.12c-7.92 1.67-11.88 6.46-11.88 14.38v5c.42 1.25.84 2.92 1.25 5l-2.5 1.25-4.37-6.25-1.25 7.5c-.42 1.25-.63 3.54-.63 6.87v1.88l6.88 25c.42.83.63 2.5.63 5 0 4.17-1.46 6.25-4.38 6.25s-4.38-1.67-4.38-5v-19.38c0-2.91-1.45-7.08-4.37-12.5-.83-2.08-1.88-3.54-3.13-4.37l-6.25-6.25-1.87 6.25c-.83.83-1.67 1.25-2.5 1.25v-.63c-1.25-1.66-3.33-3.33-6.25-5-2.92-2.08-7.7-4.58-14.38-7.5l-1.87 10c-.42 2.09-.83 3.96-1.25 5.63v4.37c0 3.34 1.87 6.88 5.63 10.63l-.63 3.13-10-3.76-1.25 4.38c.42 8.75 2.08 14.17 5 16.25l11.25 9.38c2.08 2.08 3.12 3.95 3.13 5.62 0 2.92-1.67 4.38-5 4.38-2.92 0-4.59-.84-5-2.5l-6.88-13.13c-5.83-9.17-14.8-13.96-26.88-14.38l-.62 9.38-10-2.5c-.42-.42-1.67-.63-3.75-.63-6.25 0-11.25 2.92-15 8.75-1.67 2.92-2.5 5-2.5 6.25v3.13c4.17-1.25 7.7-1.87 10.63-1.88 7.91 0 16.04 2.5 24.37 7.5l22.5 14.38c7.92 5 16.25 7.5 25 7.5 5 0 9.8-2.92 14.38-8.75 10 3.33 15 19.58 15 48.75 0 19.58-1.25 33.96-3.75 43.13l-13.13 48.74-5.63 32.5 5.63-8.12 6.25-30.63 14.38-47.5 4.37-25.62v-10l.63-10.63-.63-7.5v-6.87c-.42-9.58-2.08-17.5-5-23.75l-6.88-13.75h8.75l3.75-1.25h1.25l.63-3.13 2.5-4.37-1.25-.63-2.5 2.5a7.33 7.33 0 0 0-1.25-1.87v-.63c0-.83.42-2.08 1.25-3.75a15.36 15.36 0 0 0 1.25-5.62l-.63-5c0-1.67.42-2.5 1.25-2.5 1.67 0 2.71 1.46 3.13 4.38l.63-1.26-3.75-62.5 1.87-5m-127.5 2.5c-8.33-2.08-12.92-3.12-13.75-3.12-2.5 0-4.17 1.04-5 3.12l-.62 11.25-1.88 15c0 4.17 1.87 6.26 5.63 6.25 1.25 0 2.08-.2 2.5-.62.83-2.5 2.08-7.92 3.75-16.25.41-2.5 2.29-6.04 5.62-10.63.42-1.25 1.67-2.91 3.75-5m44.38 3.13c-3.34 3.33-6.05 5-8.13 5-4.17 0-6.25-1.67-6.25-5v-.63c.42-1.25 1.67-2.91 3.75-5h-1.88c-.83 0-2.29.84-4.37 2.5-2.08 1.25-3.13 2.92-3.13 5 0 6.26 3.13 9.38 9.38 9.38 7.92 0 11.88-2.92 11.88-8.75 0-.83-.42-1.67-1.25-2.5m237.5-3.13a16.18 16.18 0 0 0-8.13 6.88 64.44 64.44 0 0 0-4.38 9.37c-1.66-.41-2.91-2.08-3.75-5h-1.87c-.42.42-1.25 2.09-2.5 5l-1.88 3.75c-.83.84-1.25 3.55-1.25 8.13v1.25c0 2.92 1.05 7.08 3.13 12.5l-7.5-.63-1.25-.62v5h-3.75l-3.13 1.25-3.75 1.25-.62-1.88 2.5-3.75-3.75 1.25 3.13 10.63 1.87 1.25c2.08 2.08 3.12 4.8 3.13 8.13 0 1.24-1.25 3.75-3.75 7.5a74.53 74.53 0 0 1-9.38 11.24l-7.5 2.5-4.38 2.5-5-.62 3.13 2.5 3.75-.63 10-1.87 3.75-1.88 1.25-.62 4.38-4.38 2.5-.62-3.75 5-8.13 6.88 7.5-.63 13.13-6.88c2.91-1.66 4.79-3.33 5.62-5l9.38-15.62c.41-.42.83-.63 1.25-.63 1.25 0 1.87.63 1.87 1.88 0-.83-1.88 2.7-5.63 10.63-2.08 3.33-3.33 5.2-3.75 5.62-6.25 4.58-9.16 7.08-8.75 7.5l1.88 1.25 1.25-1.25 5.63-2.5 2.5-3.75 2.5.63c-.42.41-.63 1.45-.63 3.12 0 1.67.63 2.5 1.88 2.5.83 0 1.25-.2 1.25-.63l8.12-8.12h.63c1.25 0 1.87.83 1.87 2.5v1.25l11.88-6.25 9.37-2.5 3.75-1.88c3.33-.83 5.42-1.25 6.25-1.25 3.33 0 7.3 1.67 11.88 5 .83-4.16 1.25-6.04 1.25-5.62 0-6.25-4.17-10.42-12.5-12.5h-3.13c-1.25-.42-3.54 1.04-6.88 4.38-2.08-.84-3.12-1.88-3.12-3.13.42-.42 1.67-2.08 3.75-5 2.08-3.33 3.12-11.04 3.13-23.13v-12.5h-1.25c-1.67 0-4.38 3.76-8.13 11.25l-3.13.63-.62-13.13-6.25-13.12-2.5-5.63-1.88-.62-2.5 1.87m-180.62-.62c-2.91.42-4.37 2.7-4.37 6.87 0 5.42 2.08 8.13 6.25 8.13 5.42 0 8.12-2.08 8.13-6.25 0-5.83-2.92-8.75-8.75-8.75h-1.25m-109.38 21.25c-.84 3.33-1.67 6.46-2.5 9.37-.42 2.92-2.92 4.8-7.5 5.63 2.08 3.33 3.54 5 4.37 5l1.88-.63c1.66 0 2.91-.83 3.75-2.5l1.25-3.12 4.37-16.25 7.5-12.5c0-2.08-1.04-3.12-3.13-3.13-2.08-.41-3.33.84-3.75 3.75l-.62 2.5-3.75 5.63-1.88 6.25m90-11.25c0 5.83 2.3 8.75 6.88 8.75 3.33 0 5-1.87 5-5.63 0-6.66-2.3-10-6.88-10-3.33 0-5 2.3-5 6.88m-176.88-4.38-1.87 17.5.63 3.13c1.66 23.33 11.45 41.67 29.37 55l3.75 2.5 5 2.5c9.17 3.33 14.17 5 15 5h6.88l-5-6.88-8.75-2.5-5-3.12-5-3.75c-18.34-13.33-27.5-31.25-27.5-53.75 0-1.67.41-3.54 1.25-5.63.83-2.08 1.25-3.54 1.25-4.37 0 .42-3.34-1.46-10-5.63m174.38 12.5c0-7.5-1.46-11.25-4.38-11.25-2.08 0-3.13 1.46-3.13 4.38s2.5 5.2 7.5 6.87m-120 62.5c-.41-2.91-2.5-4.79-6.24-5.62-5.84-1.67-11.05-5.42-15.63-11.25-4.58-6.25-6.88-12.7-6.87-19.38 0-13.75 6.04-20.62 18.12-20.62 5.42 0 8.12 2.3 8.13 6.87 0 1.67-.84 3.96-2.5 6.88l-3.75 2.5-5 2.5c-2.92 1.67-4.38 5-4.38 10 0 3.75 3.33 6.46 10 8.13a17.5 17.5 0 0 1-2.5-8.76l.63-1.87c.41-.42 1.66-1.04 3.75-1.88a56.85 56.85 0 0 0 6.25-4.37 27.31 27.31 0 0 0 5.62-6.25c1.67-2.5 2.5-5.62 2.5-9.38 0-5.41-2.3-10-6.87-13.75-4.17-4.16-9.38-6.24-15.63-6.25-6.67 0-12.5 2.71-17.5 8.13-4.58 5.42-6.88 12.3-6.87 20.62 0 13.34 4.37 23.13 13.12 29.38l8.13 6.25 5 3.75c.41.42 4.58 1.88 12.5 4.38m212.5-69.38v5.62c1.25-.41 1.87-1.25 1.87-2.5s-.63-2.29-1.88-3.12m0 39.37c3.34-2.5 5-4.79 5-6.87 0-.42-1.25-2.92-3.75-7.5a8.48 8.48 0 0 1-2.5-6.25v-8.13c0-5.41-.83-8.12-2.5-8.12-2.5 0-3.75 2.08-3.75 6.25l.63 6.25.63 6.25c.41 2.08 1.04 4.8 1.87 8.12 1.25 2.92 2.7 6.26 4.38 10m.62-33.12v6.25c-.42 7.92 2.3 11.87 8.13 11.87 5.83 0 8.74-2.5 8.75-7.5 0-1.25-.42-2.29-1.25-3.12-2.5 2.92-4.59 4.38-6.25 4.37-3.34 0-6.46-3.95-9.38-11.87m-40.63 6.87c8.34 1.25 12.5 3.96 12.5 8.13 0 .83-.41 1.67-1.25 2.5l-8.12 15.62a38.7 38.7 0 0 0-1.25 9.38c0 2.5.2 3.96.63 4.38l6.25 6.87v1.88a37.7 37.7 0 0 0-2.5 3.12 386.82 386.82 0 0 0-5 6.88c-1.67 2.5-2.71 6.04-3.13 10.62v6.25c.83-1.25 1.87-2.7 3.13-4.38 1.25-1.66 2.7-3.54 4.37-5.62l14.38-14.38c7.91-7.91 12.29-17.08 13.12-27.5-.83-7.08-1.46-11.25-1.88-12.5l-3.12-6.87.63 16.87c0 10.84-4.38 16.25-13.13 16.25-5 0-7.7-3.33-8.13-10l5-8.75c5-3.74 7.5-7.7 7.5-11.87 0-8.75-3.75-13.13-11.25-13.13-3.33 0-6.25 2.09-8.75 6.25m-31.25-5.62c-1.25.83-1.87 1.46-1.87 1.87l.63 1.88c1.25 1.67 2.29 2.5 3.12 2.5 2.08 0 3.12-.83 3.13-2.5 0-1.25-.42-2.3-1.25-3.13l-3.75-.62m-38.75 7.5 1.25-4.38c0-1.25-.63-1.87-1.88-1.87-2.5 0-3.75 1.88-3.75 5.62 0 2.09.83 3.13 2.5 3.13.83 0 1.25-.2 1.25-.63l.63-1.87m98.12-5.63v8.13-8.13m-110 5.63-10.63 7.5-6.25 3.12-5.62 1.25-5.63 3.13-20.62 3.12c-8.75 1.25-13.13 6.05-13.13 14.38 0 6.67 2.71 10 8.13 10l4.38-.63 3.75-3.75c-5.42-.41-8.13-2.29-8.13-5.62v-.63l.63-2.5c.41-1.66 9.16-4.79 26.25-9.37 9.58-2.5 18.54-9.17 26.87-20m1.88 6.25c-1.67 2.92-2.5 5.2-2.5 6.87 0 3.34 1.87 5 5.62 5 2.92 0 5-1.87 6.25-5.62-1.25-3.75-4.38-5.83-9.38-6.25m265 18.75c1.67-4.17 3.96-6.25 6.88-6.25 7.5 0 10.83 4.8 10 14.37v5l.63 6.88c2.5-7.92 3.74-12.92 3.75-15v-.63l-.63-1.87-2.5-11.88c-.42-.41-.63-.83-.63-1.25 0-.83-.2-1.45-.62-1.87l-3.75-2.5-1.88-2.5-5.62-.63-1.25-.62c-.42-.42-1.04-.63-1.88-.63-1.25 0-2.7 1.25-4.37 3.75a17.9 17.9 0 0 0-1.88 8.13c0 3.75 1.25 6.25 3.75 7.5m-273.75-6.25c-1.25.83-1.87 1.88-1.87 3.12 0 5.84 3.12 8.76 9.38 8.75 2.08 0 3.12-1.25 3.12-3.75 0-5.83-3.13-8.74-9.38-8.75l-1.25.63m-73.75 29.37-1.87 1.88h-3.75l.63 8.13c1.66 3.33 4.58 7.08 8.75 11.24l1.25-1.87-1.88-3.75h2.5l3.75 3.13 6.88 1.24-.63 1.25c0 .84-.63 1.25-1.88 1.25-.41 0-2.29-.41-5.62-1.25l-.62 1.88 6.25 1.25 23.75 1.88 5 1.87 1.87-1.88c3.33 0 5 1.46 5 4.38 0 2.5-1.46 5.2-4.38 8.13l-1.87-1.88c1.67-1.67 2.5-3.33 2.5-5l-1.25-1.25c0-.42-.42-1.04-1.25-1.88l.63 3.13c0 1.67-1.25 2.7-3.75 3.13l-8.75.62-13.75-6.88-8.75-1.87a29.05 29.05 0 0 0-5.63-.63 18.34 18.34 0 0 0-4.37-.62c-10.84 0-16.88 3.75-18.13 11.25 2.5.83 4.37 2.08 5.63 3.75-6.67 4.17-10 7.08-10 8.75l.62 1.25 2.5 3.13-1.87 3.74 1.25 5c-2.5-1.66-3.76-3.12-3.75-4.37 0-.42.41-2.3 1.25-5.63-3.76 1.25-5.63 2.71-5.63 4.38 0 2.08.63 4.58 1.88 7.5l4.37.63 4.38 3.12c.83.83 2.5 1.25 5 1.25h.62c1.25 0 2.92-1.04 5-3.13-1.67-1.66-2.5-3.95-2.5-6.87v-2.5a73.07 73.07 0 0 1 6.25-7.5 11.64 11.64 0 0 1 7.5-2.5l38.75-2.5c2.92-.42 6.04-3.12 9.38-8.13.83-2.5 1.25-3.95 1.25-4.37 0-5-1.88-8.54-5.63-10.63l-20-11.25c-14.17-7.91-21.25-16.87-21.25-26.87 0-3.75.83-7.3 2.5-10.63-.83-1.25-1.67-1.87-2.5-1.87-2.92 0-5.83 1.46-8.75 4.37-2.92 2.92-4.38 6.05-4.37 9.38 0 5 2.5 10.2 7.5 15.63m-75-19.38c.83-.42 2.29-.63 4.37-.63 2.5 0 4.8 1.05 6.88 3.13l6.87 8.13 3.75 3.12-2.5-5.63-3.75-5.62-3.75-6.25c-1.67-2.92-3.96-4.37-6.87-4.38-3.34 0-5 2.71-5 8.13m5 12.5c0 4.58-.42 8.13-1.25 10.63-.42 2.5-1.88 7.7-4.38 15.62v1.25c0 4.17 2.5 7.92 7.5 11.25 5 2.92 10.83 4.38 17.5 4.38h2.5l18.75-9.38 3.75-1.25 6.88-3.13-7.5.63-16.25 4.38c-4.17.83-6.67 1.24-7.5 1.24-7.92 0-11.88-3.12-11.88-9.37 0-6.25 2.5-9.37 7.5-9.38 4.58 0 6.67 1.46 6.25 4.38 0 1.25-1.04 3.54-3.12 6.88 3.33.83 4.79 1.24 4.37 1.24 3.75 0 5.62-2.5 5.63-7.5 0-9.16-3.76-13.75-11.25-13.75-2.09 0-5 .84-8.75 2.5-2.09-5-5-8.54-8.75-10.62m340.62 3.75c-2.5 2.5-5.84 3.75-10 3.75h-12.5c-3.76 3.75-5.63 6.67-5.63 8.75 0 1.25 1.67 1.88 5 1.88 9.17 0 17.3-4.38 24.38-13.13l-1.25-1.25m66.87 21.88a90.9 90.9 0 0 1 6.88-1.26c3.74 0 5.62 2.09 5.62 6.25 0 1.25-1.04 5-3.13 11.25l.63 3.13 4.38-6.88 4.37-8.12c.83-.83 1.25-2.08 1.25-3.75 0-8.33-3.75-12.5-11.25-12.5-6.67 0-9.58 2.5-8.75 7.5v4.38m-285 2.5c2.92 4.16 4.37 7.5 4.38 10 0 5-1.46 8.33-4.38 10l-7.5 5.62a7.84 7.84 0 0 0-1.88 3.13c0 2.08 1.05 3.12 3.13 3.12.42 0 1.87-.42 4.38-1.25 7.5-4.17 11.25-11.67 11.25-22.5 0-7.5-2.3-11.25-6.88-11.25-1.67 0-2.5.63-2.5 1.88v1.24m254.38-1.87c-10 3.33-15 8.75-15 16.25 0 10 5 15 15 15 4.58 0 7.7-2.08 9.38-6.25-1.25.42-3.34.63-6.25.63-6.26 0-9.38-2.92-9.38-8.76 0-5.83 4.37-8.74 13.13-8.75 6.66 0 10 3.55 10 10.63 0 11.67-4.17 19.17-12.5 22.5-5.42 1.67-8.55 3.33-9.38 5l-3.13 3.13 10.63-3.13c5.83-1.25 11.04-4.8 15.63-10.63 4.58-5.83 6.87-11.45 6.87-16.87 0-13.33-6.25-19.8-18.75-19.38l-6.25.63m-51.88 39.38-1.87 1.87-1.88-1.25v1.88l-9.37.62c0 2.5 1.46 3.75 4.38 3.75 8.74 0 13.12-4.37 13.12-13.13 0-1.25-.42-2.29-1.25-3.12l-8.75-6.25c-2.92-1.67-4.38-3.96-4.38-6.88 0-5.83 3.55-8.74 10.63-8.75 13.33 0 20 7.09 20 21.25 0 17.92-13.75 28.34-41.25 31.25-19.58 2.09-32.5 6.26-38.75 12.5-2.92 2.92-5 4.59-6.25 5l-7.5 3.75c-10 4.59-19.38 13.13-28.13 25.63a112.45 112.45 0 0 0-16.87 40c-.42 4.17-1.04 6.88-1.88 8.13-1.25 2.5-1.87 4.37-1.87 5.62 0 .83.83 1.88 2.5 3.13l.63-2.5a77.76 77.76 0 0 1 4.37-2.5 7.85 7.85 0 0 0 1.88-3.13c.41-1.25.83-3.12 1.25-5.63.41-2.91 1.25-7.29 2.5-13.12 2.08-8.75 9.58-18.33 22.5-28.75 12.91-10.42 27.29-15.63 43.12-15.63 9.17 0 17.08 1.88 23.75 5.63 6.67 3.33 10 7.5 10 12.5 0 7.92-3.13 11.46-9.38 10.63h-3.75c1.25 6.25 3.75 9.37 7.5 9.37 5.42 0 8.75-3.75 10-11.25l1.88.63c2.08 3.33 3.33 5 3.75 5 1.67 0 3.75-1.67 6.25-5 2.5-3.34 3.75-6.05 3.75-8.13 0-2.5-2.3-5.42-6.88-8.75l-.62-3.75h1.88c3.74 0 6.24-1.25 7.5-3.75-1.25-5.83-4.59-9.58-10-11.25v1.25c0 1.25-1.25 2.08-3.75 2.5h-2.5c1.66.42 2.5 1.04 2.5 1.88 0 1.66-1.25 2.5-3.75 2.5s-4.17-.21-5-.63l-.63-3.75c-1.25 0-1.88-.42-1.88-1.25v-1.25c1.67-1.25 2.5-2.5 2.5-3.75 0-.42-.2-.83-.62-1.25h-1.25c-1.67 0-4.58.63-8.75 1.88-3.75 1.24-6.67 1.87-8.75 1.87-3.33 0-5-1.67-5-5 0-3.75 2.7-5.62 8.13-5.63h.62l21.25 2.5 14.38-1.25 3.75-2.5 7.5-2.5c2.5-1.66 5.83-6.66 10-15 1.25-2.5 1.87-4.16 1.87-5 0-1.25-.63-1.87-1.88-1.87-2.08 0-3.95.63-5.62 1.88l.63-6.88 1.87-2.5c2.08-2.08 3.12-5.62 3.13-10.63 0-8.33-3.13-15.2-9.38-20.62-6.25-5.83-14.17-8.75-23.75-8.75-12.5 0-18.75 3.96-18.75 11.88 0 2.91 1.87 5.62 5.63 8.12l14.37 10.63a4.24 4.24 0 0 1 1.25 3.12c0 2.08-.2 3.54-.63 4.38M168.1 482.26c8.75-1.66 15.42-9.16 20-22.5 2.09-7.08 3.13-11.66 3.13-13.75 0-.83-.2-2.08-.62-3.75 0-1.66-.21-3.95-.63-6.87-.42-1.67-.83-2.7-1.25-3.13v-1.25c0-.83-2.7-5.2-8.12-13.12-1.67-2.5-2.92-6.04-3.75-10.63h4.37c.42 2.09 1.04 3.55 1.88 4.38 3.74 10 9.37 15 16.87 15a25.9 25.9 0 0 0 15.63-5c4.58-3.33 6.87-7.08 6.87-11.25l-1.25-1.25c0-.42-.2-.83-.62-1.25-4.59 2.5-7.71 3.75-9.38 3.75-2.5 0-4.38-.2-5.62-.63l-.63.63c-16.67-1.67-25-14.17-25-37.5 0-4.58.63-9.17 1.88-13.75 5.41-17.92 13.54-29.8 24.37-35.63 10.83-5.83 16.25-10.2 16.25-13.12 0-.83-.83-1.25-2.5-1.25-3.33 0-6.67 1.04-10 3.13l-5.62 3.75-8.75 5.62c-3.76 2.5-7.5 6.25-11.25 11.25a113.8 113.8 0 0 0-9.38 17.5 140.32 140.32 0 0 0-6.25 20 89.93 89.93 0 0 0-2.5 20.63c0 4.16.2 6.66.63 7.5l5.62 39.37c.42 1.25.63 3.54.63 6.88v6.25c0 7.5-1.67 17.5-5 30m140.62-168.13-3.13 13.75c21.67 6.67 36.04 19.38 43.13 38.13l3.12 7.5 2.5 6.88h1.25l2.5-4.38c-5-27.5-18.75-46.88-41.25-58.13-.83-.41-1.88-.83-3.12-1.25a27.8 27.8 0 0 0-5-2.5m288.12 16.88.62 4.38 11.25-8.13 3.75-1.25 5 .63 5.63 7.5c2.08-3.34 3.12-5.63 3.12-6.88 0-7.08-3.75-10.63-11.25-10.63-2.5 0-5 1.25-7.5 3.75l-5.63 6.25-5 4.38M468.09 317.9c-3.75 5-5.62 8.96-5.62 11.88 0 9.17 4.17 13.75 12.5 13.75 4.58 0 6.87-1.87 6.88-5.63v-2.5l-.63-.62-8.12-8.75-3.13-8.13h-1.87m-107.5 53.13 1.25-1.25-1.25-8.75-3.75-11.88c-.42-.83-.63-2.5-.63-5 0-7.91 3.12-11.87 9.38-11.87 5.41 0 8.12 2.7 8.12 8.13v.62c-.83 2.08-2.92 4.8-6.25 8.13h1.25c7.08 0 10.63-4.38 10.63-13.13s-4.59-13.13-13.75-13.13c-10.42 0-15.63 5.84-15.63 17.5 0 1.67.2 2.71.63 3.13l8.12 21.25 1.88 6.25m-175-46.88c-2.09-1.25-3.96-1.87-5.63-1.87-6.67 0-10 2.08-10 6.25 0 2.5 1.67 3.75 5 3.75 2.92 0 6.46-2.7 10.63-8.13m28.75 0c-16.67 7.92-25 18.55-25 31.88 0 10 4.37 15 13.12 15 8.33 0 12.5-3.12 12.5-9.38l-1.25-6.25c-1.67 2.5-3.54 3.96-5.62 4.38-5.84-.83-8.76-2.7-8.75-5.63l-.63-5-.62-1.87 3.12-6.88.63-2.5a24.8 24.8 0 0 0 3.75-3.12 68.26 68.26 0 0 1 5.62-5c1.25-2.08 2.3-3.12 3.13-3.13l1.87-.62-1.87-1.88m49.37 9.38c-7.5 2.08-11.25 4.8-11.25 8.13 0 3.33 2.5 5 7.5 5v2.5h-5c-5.42-.42-12.3 3.12-20.62 10.62l-5.63 3.75-5.62 6.25-3.75 3.75.62 5.63c0 2.08-2.92 4.16-8.75 6.24-3.33 1.25-5.63 1.88-6.87 1.88-1.67 0-2.71-1.25-3.13-3.75l8.13-1.25 3.12-1.88-1.87-1.87c-4.59 1.25-7.71 1.88-9.38 1.88-1.67 0-5.42-1.67-11.25-5 .42 16.66 8.12 25 23.13 25 11.66 0 20.41-6.05 26.25-18.13 6.66-15 12.91-22.5 18.75-22.5 3.33 0 5 .63 5 1.88 0 2.5-1.25 3.95-3.75 4.37-10 3.33-15 9.58-15 18.75 0 3.33.83 6.67 2.5 10 .41-.42 1.45-.63 3.12-.63.42 0 1.67 1.05 3.75 3.13l-1.25-5 6.25 3.75-1.25 3.75c2.92.42 4.37 1.04 4.38 1.88l-.63 2.5 9.38-.63 3.75-3.75 3.12-3.13v-1.87l-8.75 1.88c-4.17-2.5-6.25-5.42-6.25-8.76 0-10.41 6.67-15.62 20-15.62 9.58 0 16.88 5 21.88 15l-1.25-6.88-9.38-8.75 1.88-3.75-1.88-1.25 1.25-3.75-5-5a47.05 47.05 0 0 0-5-4.37 12.41 12.41 0 0 0-4.37-3.75c-5-2.92-7.5-5.2-7.5-6.88 0-1.66.62-3.74 1.87-6.25a20.8 20.8 0 0 0-11.25-3.12m190.62.63-3.12 1.24a99.8 99.8 0 0 1-3.13 4.38 40.65 40.65 0 0 0-2.5 4.38l-.62 2.5v1.24c0 .84 1.04 1.25 3.12 1.25 2.92 0 5.83-.83 8.75-2.5l-1.25-3.12h7.5a17.48 17.48 0 0 0-8.75-9.38m140.62 2.5-2.5 1.88 1.88.63.62-2.5m-8.13 6.24 1.25 1.25c1.25 0 1.88-.62 1.88-1.87l-.63-1.25-2.5 1.88m-280-1.26 3.76 8.75c-6.67 0-10 2.92-10 8.75 3.74 13.75 11.04 22.3 21.87 25.63-5-5.42-7.5-10.63-7.5-15.63 0-2.5.42-3.95 1.25-4.37.83-.83 2.5-1.25 5-1.25 9.17 0 18.13 8.54 26.88 25.63 2.08-2.09 3.12-3.55 3.12-4.38 0-4.17-1.25-8.54-3.75-13.13a47.23 47.23 0 0 0-10-12.5 50.49 50.49 0 0 0-13.75-10.62 53.44 53.44 0 0 0-16.87-6.88m291.25 5.63c0 4.58 2.29 6.88 6.87 6.88 3.33 0 5-1.88 5-5.63 0-3.33-1.25-5-3.75-5-5.42 0-8.13 1.25-8.13 3.75m-132.5 0-7.5 1.88c-4.16 2.91-6.66 7.7-7.5 14.37l7.5-3.75h12.5c2.5 0 4.38-1.04 5.63-3.13 1.25-2.5 1.87-4.37 1.88-5.62 0-3.33-1.88-5-5.63-5l-.62.63h-1.25l-5 .62m-90 10L231.2 551.66c-.42.42-.63 1.04-.63 1.88 0 2.91 1.67 4.37 5 4.37l258.12 2.5c16.67 0 29.17-6.67 37.5-20l12.5-19.38 7.5-10.62 5.63-10 3.12-4.38v-2.5c0-1.66-.63-2.5-1.88-2.5-2.5 0-8.33 4.59-17.5 13.75-17.91 16.67-35.2 27.09-51.87 31.25-9.58 2.09-24.17 3.55-43.75 4.38-19.58.83-43.96 1.04-73.12.63l-59.38-.63h-13.12c-5 .83-7.5-1.87-7.5-8.13 0-3.33.83-5.83 2.5-7.5l79.37-103.12c.83-2.08 1.87-4.79 3.13-8.12a84.23 84.23 0 0 0 3.12-14.38l3.75-24.37.63-15.63.62-3.75v-.62c0-3.75-.83-5.62-2.5-5.63l-6.87 8.13m240.62-6.88c-2.92 0-4.38 2.3-4.38 6.88 0 2.92 1.25 4.38 3.75 4.37 3.33 0 5-2.29 5-6.87 0-2.92-1.46-4.37-4.37-4.38M431.8 372.3l-3.75 4.37c-2.09.84-3.13 1.46-3.13 1.88v1.87c11.67-5.41 17.5-11.25 17.5-17.5 0-3.74-1.46-5.62-4.37-5.62-.84 2.5-1.88 5-3.13 7.5-.83 2.5-1.88 5-3.12 7.5m161.25-15-2.5 1.87c-.84.84-1.25 1.46-1.25 1.88 0 2.5 1.45 3.75 4.37 3.75 2.08 0 3.75-.83 5-2.5l.63-1.25-.63-1.25c-.83-2.08-2.3-3.12-4.37-3.13l-1.25.63m-24.38 7.5-3.75 1.87-1.87 4.38c-.84 2.08-5.21 1.46-13.13-1.88l-5-1.25-5 1.25-10 .63-4.37 1.87v1.25l16.87.63a8.7 8.7 0 0 1 3.75-.63c.83 0 4.37.63 10.63 1.88 2.91 0 5 .2 6.25.62.41 4.59 2.5 7.5 6.25 8.75 3.74.84 7.5 1.88 11.25 3.13.41.42 1.04.62 1.87.62.42 0 .83.21 1.25.63.83-.83 1.25-1.46 1.25-1.88 0-1.66-1.25-3.12-3.75-4.37s-5.42-3.54-8.75-6.88l.63-1.25c.41-1.25.83-1.87 1.25-1.87l6.87-5.63c1.25-1.25 1.87-2.29 1.88-3.12 0-.83-.42-1.67-1.25-2.5l-13.13 3.75m31.88 1.87v3.13a16.66 16.66 0 0 0-4.38 3.12 40.7 40.7 0 0 1-4.37 2.5c0 1.25.2 2.09.62 2.5l3.75-.62 3.75-.63 3.13-3.75 3.75-3.12a6 6 0 0 0 1.87-4.38c0-2.08-.83-3.12-2.5-3.12l-.62.62-5 3.75m-327.5 8.75-.63 3.13 8.75 1.25 3.13 1.87c6.24 7.09 9.37 14.17 9.37 21.25 0 11.25-3.96 21.46-11.87 30.63-7.5 9.17-16.67 14.37-27.5 15.62l-13.75 1.88c-2.09.83-7.5.2-16.25-1.88l-4.38-1.25a24.5 24.5 0 0 0-5-1.87l-5-2.5-1.87 2.5c-.84.83-1.25 1.67-1.25 2.5 0 1.67 2.08 2.5 6.25 2.5 13.75 4.58 21.25 6.88 22.5 6.87l1.87-.62 3.13-.63h8.75c8.33.84 19.16-3.54 32.5-13.12a61.98 61.98 0 0 0 5-4.38 36.59 36.59 0 0 0 3.75-3.12l2.5-4.38 6.25-6.87.62-3.13 4.38-7.5c.83-4.16 1.25-7.08 1.25-8.75 0-21.25-9.17-31.45-27.5-30.62h-.63l-4.37.62m231.88 8.75.62 1.25h6.25l8.13 1.88 6.25-.63 6.87 1.88 13.75 4.37c12.5 3.76 23.13 10 31.88 18.75l5.62 5.63 3.75 3.12 5.63 6.25 4.37 5 2.5 5.63c8.33 17.5 12.5 33.75 12.5 48.75 0 5.42-1.04 11.25-3.12 17.5-1.67 6.25-3.96 11.25-6.88 15-3.33-2.08-5.63-3.12-6.87-3.13-3.76 0-8.76 3.13-15 9.38-6.26 6.25-9.38 11.25-9.38 15 0 2.92 2.7 5.2 8.13 6.88.83.41 2.5.62 5 .62 1.66 0 2.7-.2 3.12-.63l.63-1.25 5.62-6.87c2.08-2.08 3.54-3.12 4.38-3.13 3.33 0 5 1.46 5 4.38 0 .42-1.05 1.04-3.13 1.88-10.83 7.91-16.67 15.2-17.5 21.87a7.33 7.33 0 0 1-1.25 1.88v.62l-1.87 1.88-.63 1.87-1.87 6.88v10l1.87 4.37 1.25.63.63-.63c.41 0 .83-.2 1.25-.63l8.12-7.5c.42-.41 1.04-.62 1.88-.62.41.42.83.63 1.25.63v8.12c.41 6.25 3.95 9.38 10.62 9.38h.63l5.62-1.25h3.13l1.87-4.38c-4.17-.83-7.5-3.13-10-6.88-2.08-4.16-3.13-7.7-3.12-10.62 0-2.5.62-6.25 1.87-11.25-2.5-.42-3.75-1.46-3.75-3.13 0-.83.2-1.45.63-1.87l3.12-6.88 1.25-2.5 4.38-3.75 1.87 4.38c.83 2.5 1.87 1.67 3.13-2.5 2.08-5.83 3.54-9.38 4.37-10.63a6.72 6.72 0 0 0 1.25-3.75c0-2.91-2.3-6.66-6.87-11.25 5-11.25 7.5-23.33 7.5-36.25 0-34.16-14.17-62.5-42.5-85l-13.75-8.12-6.25-3.13-7.5-3.75c-5-2.5-10.42-4.16-16.25-5a65.6 65.6 0 0 0-11.25-1.25c-2.5-.41-4.17-.83-5-1.25l-4.38-.62-9.37 4.37m48.12-2.5-.62 1.88 26.87 13.75 6.25 5 9.38 8.12c6.66 6.26 12.5 9.38 17.5 9.38 8.74 0 13.12-5.42 13.12-16.25 0-8.75-3.33-15.2-10-19.38h-3.12c-5.42-.41-8.13.84-8.13 3.75 0 .84.2 1.46.63 1.88 6.66.83 10.2 4.58 10.62 11.25-1.25 4.58-3.33 6.67-6.25 6.25l-4.37-.63-8.13-3.75-7.5-5-9.37-4.37-3.75-2.5-5.63-2.5-3.12-1.25-14.38-5.63m-63.75 2.5-.62.63 3.75-.63h-3.13m23.75 5.63v1.87c.42.84 2.3 1.46 5.63 1.88h1.25c9.58 0 20.62 3.75 33.12 11.25 15.83 9.58 23.75 18.96 23.75 28.12 0 5.84-2.5 8.76-7.5 8.75-3.33 0-5.42-3.54-6.25-10.62h-1.87c-2.92-.42-4.38 2.7-4.38 9.37 0 5.42 2.92 9.8 8.75 13.13a10.12 10.12 0 0 0 6.25 1.87c2.5 0 5.42-2.29 8.75-6.87l2.5.62 5 3.75c2.08-5 3.12-8.12 3.13-9.37 0-7.5-3.76-15.63-11.25-24.38a64.55 64.55 0 0 0-25.63-19.37l-9.37-3.75-5.63-1.88-10.62-3.12-15.63-1.25m-275.62 7.5c-5.83 0-8.75 2.92-8.75 8.75 0 3.75 2.7 5.63 8.13 5.62 5 0 7.5-2.29 7.5-6.87 0-5-2.3-7.5-6.88-7.5m65 31.25 2.5-1.25 1.25-4.38 1.88-1.25 1.87-5c0-.83 1.04-2.29 3.13-4.37l5-5.63c.83-.83 1.66-1.25 2.5-1.25 3.74 0 5.62 1.88 5.62 5.63 0 2.08-.83 4.58-2.5 7.5 5-5 7.5-8.75 7.5-11.25 0-6.67-3.13-10-9.37-10-5.84 0-9.38 2.08-10.63 6.25l-3.75 11.87-2.5 6.88-2.5 6.25m212.5-30 1.25 2.5c5 .83 9.37 2.7 13.13 5.62l5.62 4.38c2.5 3.33 3.96 6.04 4.38 8.12.41 6.26-3.13 9.38-10.63 9.38-5 0-8.54-3.54-10.63-10.63-2.5 2.09-3.75 3.96-3.74 5.63 0 9.17 5.2 13.75 15.62 13.75 12.92 0 19.38-6.25 19.38-18.75 0-2.5-1.05-4.8-3.13-6.88a39.83 39.83 0 0 0-7.5-6.87 40.62 40.62 0 0 0-9.38-5c-3.33-1.25-6.25-1.87-8.74-1.88h-2.5l-3.13.63m-66.25 34.37c2.08 4.59 4.8 6.88 8.13 6.88 8.74 0 13.12-4.8 13.12-14.38 0-6.24-3.13-11.45-9.37-15.62-6.26-4.58-12.71-6.87-19.38-6.88-14.17 0-27.7 7.5-40.62 22.5-3.76 3.76-6.05 7.5-6.88 11.25l-3.75 20 3.13-1.87 4.37-17.5c1.25-5.42 5.42-10.42 12.5-15l10-5.63 3.75-2.5 9.38-.62 8.75-.63c10.41-.41 15.62 4.38 15.62 14.38 0 4.58-2.3 6.46-6.87 5.62h-1.88m-180-23.75c-8.33.84-13.75 4.59-16.25 11.25a41.35 41.35 0 0 1 11.88-1.87c3.74-.42 5.62 1.67 5.62 6.25 0 5.83-4.8 11.67-14.37 17.5l-4.38 1.87-5.62 1.88c-.42.42-1.25.62-2.5.62h-2.5a43.25 43.25 0 0 0-5-1.25l-23.13-5 1.88 2.5c.41 1.25 3.12 2.3 8.12 3.13l6.88 1.25 6.87.62c1.25.42 4.37.63 9.38.63 9.16 0 16.66-2.3 22.5-6.88l9.37-8.12 1.25-2.5 2.5-3.75c.83-2.5 1.25-5.2 1.25-8.13 0-5.41-1.46-8.33-4.37-8.75l-10-1.25h.62m155.62 15.63v1.87l-.62-1.87c-5.42 1.67-8.76 6.46-10 14.37l2.5 5c2.91-5.41 6.24-8.12 10-8.12 5.83 0 8.74 3.75 8.75 11.25 0 .83-.42 2.5-1.25 5l-6.88 18.12-.62 6.25 15-24.37a19.72 19.72 0 0 0 3.12-10.63c0-4.58-1.67-8.54-5-11.87-3.33-3.75-7.3-5.62-11.87-5.63l-1.25.63h-1.88m-223.12 13.75c-2.92 5.42-4.38 8.96-4.37 10.62 0 1.25 1.25 2.09 3.75 2.5 6.24-14.58 15.2-21.87 26.87-21.87 2.08 0 5.2 1.46 9.38 4.37l5 7.5 4.37-.62c-3.75-11.25-11.04-16.88-21.87-16.88-3.34 0-7.09 1.46-11.25 4.38l-3.75 1.25a40.8 40.8 0 0 0-3.75 4.37l-4.38 4.38m-8.12-9.38 1.87 11.88c2.5-2.5 4.17-5.62 5-9.38l-6.87-2.5m226.25 31.88-1.25-6.25-3.75-5c-1.67-1.67-2.5-4.58-2.5-8.75v-3.75l1.25-6.25h-1.25c-2.09 0-3.76 1.46-5 4.37-2.92 5.42-4.38 10-4.38 13.75l.63 2.5 3.75 6.25.62 2.5h6.88c2.08 0 3.74.21 5 .63m-50-29.38-70 92.5c-2.09 3.34-3.13 5.42-3.13 6.25v1.25c.42.84.83 2.09 1.25 3.75l1.88-4.37a99.4 99.4 0 0 0 4.37-5.63c2.5-3.33 6.25-7.91 11.25-13.75a20.5 20.5 0 0 0 2.5-3.12 32.74 32.74 0 0 1 3.75-5.63c5.83-8.33 12.3-17.29 19.38-26.87 7.5-9.58 15.41-19.58 23.75-30 3.74-5 5.62-8.54 5.62-10.63l-.62-3.75m113.75 5-9.38 1.25-3.75 2.5-5.62.63a175.07 175.07 0 0 1-7.5 5.62 501.12 501.12 0 0 0-9.38 6.88c-2.5 2.5-5.63 6.25-9.37 11.25l-6.88 10.62-3.75 5.63-.62 1.87-1.88 8.75c-1.67 6.26-2.3 9.59-1.87 10l.62 6.25-.62 11.25c0-3.74 1.25 1.88 3.75 16.88 3.33 0 5-.83 5-2.5s-.63-4.37-1.88-8.13a53.68 53.68 0 0 1-1.25-10v-11.87l1.25-3.75 3.75-16.88c3.75-14.58 14.38-26.25 31.88-35a51.14 51.14 0 0 1 23.12-5.62c17.5 0 29.38 7.08 35.63 21.25 2.91-.42 4.37-1.46 4.37-3.13 0-5.41-4.17-10.41-12.5-15-7.92-4.58-16.88-7.29-26.88-8.12l-6.24-.63m38.75 34.38c-5.42-.42-8.13-1.46-8.13-3.13 0-1.66 1.25-4.16 3.75-7.5l-7.5-7.5c-12.92 6.26-19.37 13.75-19.37 22.5 0 8.34 3.54 12.5 10.62 12.5h1.88c5.41 0 11.66-.62 18.75-1.87l5-3.75 6.25-1.25c7.08-1.67 13.54-8.12 19.37-19.38.42-.41.63-1.45.63-3.12v-1.88l-2.5-5-1.25-4.37c-1.25-2.5-5-3.75-11.25-3.75h-3.75c-2.5 0-4.8.2-6.88.62-1.67.42-2.5 1.05-2.5 1.88 0 .83.42 1.67 1.25 2.5l2.5 3.12 1.88 3.75 5 3.75v.63c0 3.75-4.59 7.5-13.75 11.25m77.5-26.25-.63 13.12c0 14.59-5.2 21.88-15.63 21.88-5.83 0-8.75-2.3-8.74-6.88 0-2.5 1.45-5.2 4.37-8.12v-1.25l-3.13-.63c-1.66 0-3.54 1.05-5.62 3.13l-2.5-.63c-1.67 3.76-2.5 6.88-2.5 9.38 0 9.17 5.62 13.75 16.88 13.75 5 0 8.74-1.46 11.25-4.38 2.91-2.91 4.58-4.37 5-4.37l1.87.62c.42-1.66.63-2.91.63-3.75l.62-1.25c2.5-5.41 3.75-8.74 3.75-10l-1.25-5.62-1.25-6.25-1.88-1.25.63-3.75c0-.42-.63-1.67-1.88-3.75m-45 5c.42 2.08.63 3.75.63 5 .42 1.25.63 2.08.63 2.5 0 9.17-6.88 17.7-20.63 25.62-7.08 4.59-15 7.3-23.75 8.13h-3.75c-2.5 0-4.38.2-5.62.62 7.08 2.09 11.25 3.13 12.5 3.13 12.08 0 22.5-3.54 31.25-10.63 9.16-7.08 13.75-15.41 13.75-25 0-5.41-1.67-8.54-5-9.37m-348.13 1.25.63 3.12 3.75 1.88 6.25 2.5 4.38.62.62-1.25-5.62-3.12-10-3.75m-12.5 1.87-.63 5c-.42.42-.62 1.05-.62 1.88 0 .42 1.87 1.88 5.62 4.37 3.75 2.5 5.83 3.96 6.25 4.38 4.17 3.75 7.3 5.63 9.38 5.62l2.5-.62.62-.63.63-.62c.41-1.67-2.09-3.96-7.5-6.88a84.57 84.57 0 0 1-5.63-3.12l-5.62-5.63-1.25-.62a36.58 36.58 0 0 0-3.75-3.13m169.38 0-1.25 3.75-1.88 1.88-1.25 10.62-4.37 20v1.25c0 2.09.83 3.13 2.5 3.13 1.66 0 2.7-2.08 3.12-6.25l5-30.63a4.2 4.2 0 0 0-1.87-3.75m-94.38 1.88-17.5 6.87 20-.62c4.17-.42 6.25 1.67 6.25 6.25s-1.25 7.08-3.75 7.5l-5 1.25-7.5.62c-4.58.84-6.88 3.96-6.87 9.38 0 2.92 1.66 5.63 5 8.12l-1.25-6.25c0-2.5 1.87-5.41 5.62-8.75l4.38-1.25 6.87.63 1.25-1.25 4.38-1.25c4.16-1.67 6.24-5.42 6.25-11.25 0-7.08-3.55-10.63-10.63-10.63h-.62l-1.25.63h-5.63m203.75 0c-11.25 1.25-20.83 6.88-28.75 16.87a50.5 50.5 0 0 0-11.87 33.13v.62l1.87 23.13c.42 4.58 2.08 7.3 5 8.13-2.92-11.25-4.38-20.63-4.37-28.13 0-17.92 5-30 15-36.25l11.87-7.5 1.88.62 10 .63c2.5 0 3.74 1.88 3.75 5.62l-.63 3.75c6.25-.41 9.37-3.33 9.38-8.75 0-4.58-4.38-8.54-13.13-11.87m-113.75 80a20.74 20.74 0 0 0 8.13 1.88l5-.63c1.66-37.92 12.7-56.88 33.12-56.88 6.25 0 9.37 2.71 9.38 8.13l-5.63 5.62h-6.87c-12.5 0-18.75 5.63-18.75 16.88 0 10 6.45 15 19.37 15 3.75 0 7.3-2.92 10.63-8.75a17.5 17.5 0 0 1-8.75 2.5c-6.26 0-9.38-2.5-9.38-7.5s2.92-7.92 8.75-8.75l6.88-.63c5.41-.41 8.74-4.58 10-12.5l-3.13-8.75c2.92-2.5 4.37-5 4.38-7.5 0-1.66-1.05-2.5-3.13-2.5h-3.12c-7.09-2.91-11.25-4.37-12.5-4.37s-3.96 2.08-8.13 6.25l-.62-4.38 1.25-6.87-1.88-1.88-6.25 3.75-8.75 6.88c-10.83 9.17-17.3 27.92-19.37 56.25v3.75c0 2.08-.21 3.75-.63 5m-120-69.38h-4.37c-2.09 0-6.67 2.92-13.75 8.75a26.38 26.38 0 0 1-6.88 5c-7.08 3.34-10.62 6.05-10.62 8.13 0 1.67.62 2.5 1.87 2.5.83 0 2.3-.63 4.38-1.88l16.87-9.37 2.5-3.13 6.88-6.25 3.12-3.75m-40 37.5c2.5-1.66 3.75-3.54 3.75-5.62v-1.25a92.88 92.88 0 0 1-3.75-16.25c0-9.17-1.46-13.75-4.37-13.75-1.25 0-1.88 1.25-1.88 3.75 0 16.67 2.08 27.7 6.25 33.12m153.75-37.5a16.12 16.12 0 0 0-3.75 8.13v4.37a8.7 8.7 0 0 0-.62 3.75c0 1.67-.21 3.13-.63 4.38h2.5l1.88-5.63 1.87-9.37.63-3.13c0-.83-.63-1.66-1.88-2.5m113.12 10h-.62c-3.34 0-5.21 1.46-5.63 4.38v1.87c0 5 1.67 7.5 5 7.5 4.58 0 6.87-2.91 6.88-8.75 0-3.33-1.88-5-5.63-5M241.19 499.8c5.42 10.42 9.17 15.62 11.25 15.62.42-.41.83-1.04 1.25-1.87.83-.83 1.25-1.67 1.25-2.5 0-1.67-.2-2.7-.62-3.13l-8.75-11.87-1.88-3.75-8.12-7.5c-2.92-2.92-5-4.37-6.25-4.38-2.09 0-3.13.84-3.13 2.5 0 1.67 1.25 3.34 3.75 5l5.63 5.63a25.41 25.41 0 0 1 5.62 6.25m230.62 10h-3.75c-12.92-.42-19.37 6.04-19.37 19.37 4.16-4.16 7.5-6.24 10-6.25l8.12.63 1.25-1.25 3.75-1.25c2.08-.83 3.12-2.08 3.13-3.75v-1.88l6.25 1.88 6.87 2.5c.42.42 2.5.63 6.25.63 19.17 0 32.3-7.92 39.38-23.75h-4.38c-9.58 13.33-21.46 20-35.62 20-8.76 0-13.13-1.67-13.13-5l.63-.63 5-3.13.62-4.37-3.12.62-3.75-8.75 3.75.63v-9.38c.41-.83.62-2.29.62-4.37 0-.83-.62-1.25-1.87-1.25-2.09 0-4.17 1.46-6.25 4.37-1.67 2.5-2.5 5-2.5 7.5v11.88l-1.88 5m-25.62-15.63c3.33.84 4.79 1.25 4.37 1.25 3.75 0 5.62-1.87 5.63-5.62 0-4.58-2.09-6.87-6.25-6.88-3.76 0-5.63 1.88-5.63 5.63 0 1.25.63 3.13 1.88 5.62m150.62-2.5c-.84-1.25-1.88-1.87-3.13-1.87-2.5 0-4.38 1.46-5.62 4.37l-.63 1.25c0 2.5 1.46 3.76 4.38 3.75 2.5 0 4.16-2.5 5-7.5m-248.12-.62-3.13 4.37-2.5 11.25-8.75-3.75-5 .63 1.25 1.25 1.88-.63c2.91 0 4.37.84 4.37 2.5 0 1.25-.83 1.88-2.5 1.88h-2.5c-1.25-.42-3.13.62-5.62 3.12l-2.5-.62-.63-4.38c-4.58 3.76-6.88 8.55-6.87 14.38 0 9.58 3.54 14.38 10.62 14.38.83 0 2.92-1.05 6.25-3.13-5.42-2.5-8.13-5.62-8.12-9.38 0-5.41 2.91-8.12 8.75-8.12 5 0 8.12 4.58 9.37 13.75a98.32 98.32 0 0 0 1.88 7.5l10-1.25v-15l1.87-13.75c0-4.58-2.7-9.58-8.12-15m-158.12 1.87c-15 13.34-22.5 27.71-22.5 43.13 0 10 3.54 19.58 10.62 28.75 7.08 8.75 15.63 14.38 25.63 16.88l3.12-5c-1.67-.84-2.92-1.25-3.75-1.25l-2.5-1.25c-17.92-8.75-26.87-21.46-26.87-38.13 0-10.83 2.29-19.17 6.87-25l10-10.63-.62-7.5m270.62 1.88c-2.92 1.67-4.38 3.75-4.38 6.25 0 3.33 2.5 5 7.5 5 3.33 0 5-2.7 5-8.13v-2.5l-8.12-.62m56.87 63.12c-5.42 2.92-14.17 4.38-26.25 4.38h-11.87l-16.25-.63-.63 1.25a61.73 61.73 0 0 0-8.75-.62c-2.5-.42-5-.63-7.5-.63h-1.25l-33.75.63-65.62-1.25-63.75.63-30.63-.63h-5.62c-7.5-1.25-12.3-1.88-14.38-1.88-.83.84-1.25 1.46-1.25 1.88 0 2.5 1.46 3.96 4.38 4.38l271.25 1.87c10 0 23.54-12.5 40.62-37.5l12.5-19.38c2.92-4.16 4.37-7.29 4.38-9.37v-.63l-1.25-4.37-7.5 12.5-1.88 3.12-19.37 30c-2.5 3.75-7.71 9.17-15.63 16.25M217.44 504.8l1.25 1.25 1.25-1.25 6.25 1.25c2.08.42 4.37 1.04 6.88 1.87l3.75 4.38 2.5 1.25-1.88-1.25-6.87-10.63c-7.5-2.08-12.09-3.12-13.75-3.12-8.76 0-15.84 4.38-21.25 13.12-.42.42-.63 1.46-.63 3.13 0 .42.42.63 1.25.63 1.25 0 2.3-.42 3.13-1.25 4.16-2.92 6.66-4.8 7.5-5.63 2.08-1.25 5.62-2.5 10.62-3.75m226.25-5c-1.67.42-2.5 1.46-2.5 3.12 0 2.5 1.25 3.76 3.75 3.75 2.92 0 5-1.04 6.25-3.12v-.63c-.83-2.08-2.92-3.12-6.25-3.12h-1.25m115.62 31.25a24.5 24.5 0 0 1 1.88 5 74.92 74.92 0 0 1 2.5 5.63l3.12 2.5 5 6.25 9.38 3.12h.62c.83-.42 1.87-.83 3.13-1.25l-8.75-1.88-3.75-3.75-3.13-2.5c-2.92-1.66-4.38-7.5-4.37-17.5 0-13.33 7.7-20.2 23.12-20.62-.42-2.92-2.5-4.37-6.25-4.38-3.75 0-6.46.63-8.12 1.88l-1.25.62-.63.63-7.5 5.62c-3.33 2.5-5 8.34-5 17.5v3.13m41.88-26.88-2.5-1.25h-.63c-3.33 0-5 1.25-5 3.75s1.46 3.76 4.38 3.75c3.33 0 5-1.45 5-4.37 0-.42-.42-1.04-1.25-1.88m-151.25 6.88-1.25-.63c-3.76 0-5.63 1.25-5.63 3.75 0 1.67.83 2.5 2.5 2.5s3.12-1.87 4.38-5.62m129.38.62a9.84 9.84 0 0 0-3.75 2.5v1.25c0 2.09 1.04 3.13 3.12 3.13 4.17 0 6.25-1.67 6.25-5 0-1.67-1.46-2.5-4.38-2.5l-1.24.62m-373.13 1.88-3.12 4.38c.42.83.83 1.87 1.25 3.12.42.83.83 1.88 1.25 3.13 4.58 15.83 7.5 23.75 8.75 23.75.42-.42.83-.63 1.25-.63l1.25-1.25.63-1.25c0-2.92-.84-6.67-2.5-11.25-.84-2.08-2.09-4.8-3.75-8.13-1.25-3.33-2.92-7.29-5-11.87m-13.13 21.25c-2.5 3.33-3.75 5.63-3.75 6.88 0 2.91.2 4.79.63 5.62 3.74 8.75 9.16 13.13 16.25 13.13 16.25 0 24.37-7.71 24.37-23.13 0-9.17-3.75-16.04-11.25-20.63-2.08-1.25-3.75-1.87-5-1.87l-1.87 1.88v1.25c0 2.5.83 3.95 2.5 4.37l4.37 1.88c3.75 2.08 5.62 6.66 5.63 13.75 0 10.83-6.05 16.25-18.13 16.25-6.67 0-11.25-6.46-13.75-19.38m-11.87 14.38c2.91-7.92 5.41-12.92 7.5-15l5.62-6.25 2.5-2.5 1.88-.63h.62c.42-.42.63-1.25.63-2.5 0-2.08-.84-3.12-2.5-3.13-2.5 0-5.63 2.5-9.38 7.5-6.25 7.5-9.38 12.71-9.37 15.63 0 2.92.83 5.2 2.5 6.88m197.5-12.5 8.12-.63 4.38-3.13 7.5.63c-1.67-4.17-4.8-6.25-9.38-6.25-5.83 0-9.38 3.13-10.62 9.38m163.75 7.5c-3.34 3.33-4.8 6.25-4.38 8.75v3.12c3.33 4.58 6.67 6.88 10 6.88h4.38c2.08-.42 4.58-.84 7.5-1.25v1.25c-4.59 2.08-6.88 4.37-6.88 6.87 0 2.08 1.46 3.13 4.38 3.13 10.41 0 17.91-4.17 22.5-12.5l-.63-.63c-1.67-.83-3.96-2.08-6.88-3.75-2.5-2.08-5.41-4.58-8.75-7.5h-3.12c-3.33 2.08-5.83 3.13-7.5 3.13h-1.25c-2.92.41-5.42-1.05-7.5-4.38v-3.13h-1.88m76.25 42.5v-5.62l-2.5-8.13-.62-13.12c-1.67 0-3.33 1.46-5 4.38-1.25 2.5-1.88 4.79-1.88 6.87 0 6.25 3.34 11.46 10 15.63m-447.5-25-.62 7.5c-.42 17.91 7.3 26.87 23.13 26.87 7.5 0 13.75-2.92 18.75-8.75 5.41-5.83 8.12-12.92 8.12-21.25 0-2.5-.42-3.75-1.25-3.75.42 0-1.04.42-4.37 1.25-2.5 17.5-9.59 26.25-21.25 26.25-5.84 0-10.42-2.3-13.75-6.88-1.25-1.66-1.88-2.91-1.88-3.75l-1.87-11.25-5-6.25m377.5 20-18.13-.62c-2.08-5-3.13-8.13-3.13-9.38 0-1.66 2.5-4.16 7.5-7.5-1.25-.41-2.29-.62-3.12-.62l-.63-.63c-8.33 0-12.5 3.96-12.5 11.88 0 6.67 5.42 10 16.25 10 .84 0 5.42-1.04 13.75-3.13M246.82 569.8a8.7 8.7 0 0 0-3.74-.63c-3.34 0-5.84.84-7.5 2.5l-2.5 2.5-11.25 3.13c-1.67.42-2.5 1.46-2.5 3.13 0 2.08.83 3.12 2.5 3.12 2.08 0 4.79-.63 8.12-1.88 3.75-1.25 6.25-2.5 7.5-3.75l4.38-3.75 5-4.37m66.87 17.5v5h-8.75l-5.62-1.88-9.38-5-11.25-10c-1.67-.83-5-2.08-10-3.75a16.24 16.24 0 0 0-5-.62c-5.83 0-11.67 2.3-17.5 6.88l-8.75 8.75-9.37 3.75 8.12 3.12 8.75-3.13 6.25 5a6 6 0 0 0 4.38 1.88l1.87-.63 7.5-1.87 10.63-.63c-.84-2.5-1.46-3.75-1.88-3.75l-3.12-.62-12.5 1.88-1.88-1.88-1.25-1.88c-.83-.83-1.25-1.66-1.25-2.5 0-4.58 3.54-6.87 10.63-6.87.83 0 2.91.42 6.25 1.25l20.62 12.5a56.12 56.12 0 0 0 27.5 6.88c10 0 15-2.3 15-6.88 0-3.33-2.08-5.63-6.25-6.88l-20.62-4.37c-.84-.83-1.25-1.46-1.25-1.88 0-2.91 1.66-4.37 5-4.37l18.12 3.75 13.13 7.5 8.75 5.63 6.25 1.87v-1.88l-5-3.75-10.63-8.12c-.83-.42-5.83-2.3-15-5.63l-10-2.5a62.34 62.34 0 0 0-9.37-1.87h-1.88c-8.75-.42-13.12 2.08-13.12 7.5 0 5.83 7.29 9.17 21.87 10m78.13 11.88-.63-5.63-10-8.75a21.89 21.89 0 0 1-3.12-6.25c-.42-5.42-1.88-8.13-4.38-8.13h-1.25l-5.62.63v5l-1.88 1.88-3.75-7.5-4.37.62-3.13-1.25c-.83.83-1.25 1.67-1.25 2.5 0 .42 1.04 3.33 3.13 8.75l4.37 8.13c3.33 7.08 9.8 10.62 19.38 10.62l5-.63h7.5m-4.38-13.75c-2.5-10.41-4.17-15.62-5-15.62-1.25 0-1.88 1.04-1.87 3.13 0 1.25 2.29 5.41 6.87 12.5m63.13-14.38v1.25c0 .42 2.29 2.5 6.87 6.25l6.88 5c3.74 2.92 8.95 5.2 15.62 6.88l10.63 3.12c7.5 2.08 18.33 3.13 32.5 3.13 11.66 0 21.66-1.88 30-5.63 6.66-.42 12.7-3.13 18.12-8.13l1.25-3.75c0-.41-.63-1.04-1.88-1.87-2.08 0-4.16 1.04-6.24 3.13l-8.13 2.5-6.88 3.75c-5.41 2.91-17.91 4.37-37.5 4.37-8.33 0-18.95-2.3-31.87-6.88-.83-.41-1.88-.83-3.12-1.25a19.4 19.4 0 0 0-3.75-1.25l-3.13-3.12-6.25-2.5-3.12-3.75-6.25-1.25h-3.75m-46.25 23.75a22.19 22.19 0 0 0 10 2.5h3.75l11.87-3.75 7.5-.63c1.67 0 3.33.42 5 1.25 1.67.84 2.7 1.25 3.13 1.25 1.25-.41 1.87-1.04 1.87-1.87-.42-.42-.83-.63-1.25-.63l-1.25-1.25c-2.08-2.5-3.96-3.75-5.62-3.75l-3.75.63-10.63 2.5c-.83.42-2.5.63-5 .63-3.75 0-6.67-2.3-8.75-6.88 2.5-4.58 5.2-6.88 8.13-6.88h.62c2.92.42 6.67 1.25 11.25 2.5s10.2 3.34 16.88 6.25c13.33 5.84 23.12 8.96 29.37 9.38 7.92 1.25 11.46 1.88 10.63 1.88l1.25-1.25c0-1.67-1.67-2.5-5-2.5h-3.75l-15.63-5.63-5.62-1.88-6.25-2.5-5-2.5c-11.67-6.66-21.88-10-30.63-10-12.92 0-19.37 4.8-19.37 14.38 0 2.08 2.08 5 6.25 8.75m100.62-12.5c.41 1.25 1.04 1.88 1.87 1.88.83 0 1.67-.42 2.5-1.25-2.08-5-6.46-7.5-13.12-7.5-1.67 0-2.5.62-2.5 1.87 0 3.75 2.7 5.63 8.12 5.63 1.67 0 2.7-.21 3.13-.63m61.87 8.75c-1.67 1.67-2.5 3.13-2.5 4.38 0 3.33 1.46 5 4.38 5 1.66 0 2.5-.63 2.5-1.88-1.25-1.25-2.71-3.75-4.38-7.5M214.93 154.79l2.5 1.87-4.37 3.75-3.13 7.5c-.42.42-.83.63-1.25.63-1.25 0-1.88-.63-1.87-1.88 0-.83 1.04-2.91 3.12-6.25l5-5.62m381.88 34.37 3.13-1.25 1.87-3.12 1.25-.63c1.67 0 2.5.84 2.5 2.5 0 4.17-2.08 6.26-6.25 6.25-1.25 0-2.08-1.25-2.5-3.75m16.88 17.5h1.25l-.63 1.88c0 1.25-.2 3.13-.62 5.62-.42.42-.63 1.05-.63 1.88.42.42 1.87 5.63 4.38 15.62l2.5 7.5v1.88c2.08-1.25 2.7-2.92 1.87-5l-3.12-19.38-3.13-8.12-1.87-1.88 1.25-1.25-1.25 1.25m-270 30v8.13a4.24 4.24 0 0 1 1.25 3.12c.41 1.25.83 2.3 1.25 3.13-2.5 0-4.17-1.46-5-4.38-.84-3.33-1.25-5.62-1.25-6.87 0-2.08.62-3.12 1.87-3.13h1.88m204.38 5.63 1.87-3.13c1.25 0 1.87.84 1.88 2.5 0 1.25-.42 1.88-1.25 1.88-.84 0-1.67-.42-2.5-1.25v-.63c.41.42.41.63 0 .63m28.12 2.5 3.13 3.12v5c.41 5.42-1.25 8.13-5 8.13l1.87-16.25m-28.13 3.75 1.88-.63.63 3.13-3.13 1.25.63-3.75m3.12 8.75 1.25 3.12-1.25 3.13-1.25 3.12c-.42.42-.83.63-1.25.63-4.17-1.67-4.38-3.54-.63-5.63l.63-1.87-2.5-3.75 3.13-.63 1.87 1.88m-202.5 1.87 9.38-.62.62 3.12c-.42.42-1.25.63-2.5.63s-2.08-.63-2.5-1.88l-5-1.25m27.5 36.88-9.37 1.87 3.12-5-3.75-3.75-3.75-6.25-4.37-9.37 1.25-3.13 3.75 5.63 2.5 5.62 5.62 6.25 5 8.13m-64.37-22.5c-.84 0-1.25-.2-1.25-.63.41-1.25 1.87-1.87 4.37-1.87 6.25 0 11.88 3.33 16.88 10l-2.5.62c-3.76-3.74-7.5-6.45-11.25-8.12h-6.25m0 3.12 11.25 2.5c3.33 1.25 5 3.13 5 5.63l.62 2.5 3.75 1.87h-2.5c-.83-.41-3.33-2.7-7.5-6.87-1.25-.83-2.3-1.25-3.12-1.25l-2.5-1.25-5-3.13m73.12 14.38c-.42-.42-.83-.63-1.25-.63l-1.87-1.87c0-1.25 1.66-2.3 5-3.13l-8.75-3.12c2.5.83 5 .83 7.5 0 0-1.25 2.7-2.7 8.12-4.38l-5 4.38 4.38 3.12-8.13 5.63m-28.75 10c3.33-.83 5-.42 5 1.25 0 3.75-2.3 5.63-6.87 5.62-1.25 0-1.88-.62-1.88-1.87v-.63c.42-.83.83-1.87 1.25-3.12l-6.87 1.25-.63-2.5 6.88-3.13 2.5-5 .62 8.13m-98.75 23.75-7.5 1.25-12.5 2.5c.42-4.17 5-6.25 13.75-6.25 2.5 0 4.58.83 6.25 2.5m8.75 25.62c1.67 1.25 3.54.84 5.63-1.25 0-2.5-.63-3.54-1.88-3.12 0-.83-1.46-1.25-4.37-1.25.41-.42.62 1.46.62 5.62m222.5 15.63v-1.25l10-3.13c.42 0 3.96-2.08 10.63-6.25.41 0 .62.42.62 1.25l-5.62 3.75c-2.09 1.67-7.3 3.55-15.63 5.63m-220-9.38v5l-3.12 4.38 1.25 3.12.62-1.87 4.38-6.25.62-3.75-3.75-.63m10 1.88h-1.25c.83 0 0 1.04-2.5 3.12-2.5 1.67-3.96 2.92-4.37 3.75-.84.84-.84 2.09 0 3.75.41 1.25.2 1.88-.63 1.88l6.25-6.88 2.5-5.62m-2.5 9.37c0-.83.42-2.29 1.25-4.37 1.25-2.08 2.5-3.12 3.75-3.13.83 0 1.25.84 1.25 2.5 0 .84-2.08 2.5-6.25 5m-106.88 16.25h6.88c-1.25 0-1.88-2.08-1.88-6.25 0-.41-.62 0-1.87 1.25-1.25.84-2.3 2.5-3.13 5m291.88 3.75c2.92-.41 3.12-1.04.63-1.87-.84-.83-1.46-2.3-1.88-4.38l1.88-5.62c-2.5.83-4.8 2.5-6.88 5-1.67 2.5.42 4.8 6.25 6.87m-10-8.75c0 2.5.42 5 1.25 7.5.83 2.09 1.67 2.92 2.5 2.5h-5c-1.25 0-1.88-1.66-1.87-5v-.62c0-2.08.41-3.54 1.25-4.38h1.87m-8.75 3.13h2.5l3.13 8.12c-4.17 0-6.26-1.25-6.25-3.75 0-2.5.2-3.95.62-4.37m-7.5 2.5c0 .83.2 2.7.63 5.62.83 2.5 1.25 2.92 1.25 1.25 0 .84 2.08 1.25 6.25 1.25-2.92 0-4.38-1.87-4.38-5.62l-1.87-3.13-1.88.63m-265.62 5.62.63-3.12h4.37l1.88 1.87c.41 1.25.2 1.88-.63 1.88l-6.25-.63m262.5 0 .63 5-3.75-3.12.62-4.38 2.5 2.5m-255.62 3.75h-4.37c-1.25 0-1.88 1.46-1.88 4.38 0 .83 1.67.83 5 0h3.13l-1.88-4.38m-3.75 6.25c5.42.42 8.12.42 8.13 0 0 1.67.2 2.71.62 3.13h-.62c-.42-.42-1.67-.63-3.75-.63.41 0-.63.42-3.13 1.25-1.67 1.25-2.5 1.05-2.5-.62 0-1.25.42-2.3 1.25-3.13m11.25 33.75c3.33 3.34 5 7.3 5 11.88 0 5-1.25 7.5-3.75 7.5l-1.25-19.38m283.75 85.63-8.12 2.5c0-1.67 1.25-3.12 3.75-4.38l1.87-.62h.63c.83 0 1.45.83 1.87 2.5m128.75 3.13h-3.13c-1.25 0-2.5 1.25-3.75 3.75h-1.87c0-5.84 2.7-8.75 8.13-8.75 2.08 0 3.12.83 3.12 2.5 0 1.25-.83 2.08-2.5 2.5m-229.38 58.12 1.88 1.25.62 3.75 2.5 1.88c.42.41.63 1.04.63 1.87 0 .83-.21 1.25-.63 1.25l-3.75-1.88-.62-1.87-3.13-2.5-.62-1.25c0-.83 1.04-1.67 3.12-2.5" transform="translate(-146.86 -119.79)"/>
</svg>
